<svg width="41" height="40" viewBox="0 0 41 40" fill="none" xmlns="http://www.w3.org/2000/svg">
<path fill-rule="evenodd" clip-rule="evenodd" d="M6.03597 9.36219C6.29394 8.7394 6.90167 8.33333 7.57577 8.33333H24.2424C30.6858 8.33333 35.9091 13.5567 35.9091 20C35.9091 26.4433 30.6858 31.6667 24.2424 31.6667H9.24244C8.32197 31.6667 7.57577 30.9205 7.57577 30C7.57577 29.0795 8.32197 28.3333 9.24244 28.3333H24.2424C28.8448 28.3333 32.5758 24.6024 32.5758 20C32.5758 15.3976 28.8448 11.6667 24.2424 11.6667H11.5995L14.5876 14.6548C15.2385 15.3057 15.2385 16.361 14.5876 17.0118C13.9367 17.6627 12.8815 17.6627 12.2306 17.0118L6.39726 11.1785C5.9206 10.7018 5.77801 9.98498 6.03597 9.36219Z" fill="#09244B"/>
</svg>
