<svg width="41" height="41" viewBox="0 0 41 41" fill="none" xmlns="http://www.w3.org/2000/svg">
<path fill-rule="evenodd" clip-rule="evenodd" d="M5.26609 9.95238C5.65304 9.01819 6.56463 8.40909 7.57579 8.40909H24.2425C31.146 8.40909 36.7425 14.0055 36.7425 20.9091C36.7425 27.8126 31.146 33.4091 24.2425 33.4091H9.24245C7.86174 33.4091 6.74245 32.2898 6.74245 30.9091C6.74245 29.5284 7.86174 28.4091 9.24245 28.4091H24.2425C28.3846 28.4091 31.7425 25.0512 31.7425 20.9091C31.7425 16.767 28.3846 13.4091 24.2425 13.4091H13.6113L15.1769 14.9747C16.1532 15.951 16.1532 17.5339 15.1769 18.5102C14.2006 19.4865 12.6177 19.4865 11.6414 18.5102L5.80802 12.6769C5.09303 11.9619 4.87914 10.8866 5.26609 9.95238Z" fill="#09244B"/>
</svg>
