<svg width="16" height="16" viewBox="0 0 16 16" fill="none" xmlns="http://www.w3.org/2000/svg">
<path d="M13.4545 6.78789C13.4545 11.0303 7.99996 14.6667 7.99996 14.6667C7.99996 14.6667 2.54541 11.0303 2.54541 6.78789C2.54541 5.34125 3.12008 3.95387 4.14301 2.93094C5.16593 1.90802 6.55332 1.33334 7.99996 1.33334C9.44659 1.33334 10.834 1.90802 11.8569 2.93094C12.8798 3.95387 13.4545 5.34125 13.4545 6.78789Z" stroke="#969696" stroke-width="2" stroke-linecap="round" stroke-linejoin="round"/>
<path d="M7.99994 8.60606C9.0041 8.60606 9.81813 7.79203 9.81813 6.78788C9.81813 5.78372 9.0041 4.9697 7.99994 4.9697C6.99579 4.9697 6.18176 5.78372 6.18176 6.78788C6.18176 7.79203 6.99579 8.60606 7.99994 8.60606Z" stroke="#969696" stroke-width="2" stroke-linecap="round" stroke-linejoin="round"/>
</svg>
