<svg width="585" height="502" viewBox="0 0 585 502" fill="none" xmlns="http://www.w3.org/2000/svg">
<path d="M0.0158023 7.47002C2.6558 45.77 17.7558 115.04 89.5058 149.99L165.856 63.99C165.856 63.99 56.0158 58.61 12.5158 2.69002C11.5938 1.51 10.3176 0.656795 8.87476 0.255723C7.43194 -0.145349 5.89852 -0.0731405 4.49977 0.461741C3.10103 0.996623 1.91068 1.96598 1.1036 3.22742C0.29652 4.48885 -0.0847491 5.97586 0.0158023 7.47002Z" fill="url(#paint0_linear_862_12475)"/>
<path d="M584.305 7.47008C581.685 45.7701 566.585 115.04 494.835 149.99L418.485 63.9901C418.485 63.9901 528.355 58.6101 571.825 2.69008C572.75 1.51897 574.025 0.673966 575.463 0.278351C576.902 -0.117263 578.43 -0.0427883 579.823 0.49091C581.217 1.02461 582.403 1.9896 583.209 3.24511C584.016 4.50061 584.4 5.98092 584.305 7.47008Z" fill="url(#paint1_linear_862_12475)"/>
<path d="M292.18 501.36C425.38 501.36 533.36 393.38 533.36 260.18C533.36 126.98 425.38 19 292.18 19C158.98 19 51 126.98 51 260.18C51 393.38 158.98 501.36 292.18 501.36Z" fill="url(#paint2_linear_862_12475)"/>
<g style="mix-blend-mode:soft-light">
<path d="M292.18 501.45C425.38 501.45 533.36 393.47 533.36 260.27C533.36 127.07 425.38 19.0898 292.18 19.0898C158.98 19.0898 51 127.07 51 260.27C51 393.47 158.98 501.45 292.18 501.45Z" fill="url(#paint3_radial_862_12475)"/>
</g>
<g style="mix-blend-mode:soft-light">
<path d="M292.18 501.36C425.38 501.36 533.36 393.38 533.36 260.18C533.36 126.98 425.38 19 292.18 19C158.98 19 51 126.98 51 260.18C51 393.38 158.98 501.36 292.18 501.36Z" fill="url(#paint4_linear_862_12475)"/>
</g>
<g style="mix-blend-mode:overlay">
<path d="M292.18 501.45C425.38 501.45 533.36 393.47 533.36 260.27C533.36 127.07 425.38 19.0898 292.18 19.0898C158.98 19.0898 51 127.07 51 260.27C51 393.47 158.98 501.45 292.18 501.45Z" fill="url(#paint5_radial_862_12475)" fill-opacity="0.7"/>
</g>
<mask id="mask0_862_12475" style="mask-type:alpha" maskUnits="userSpaceOnUse" x="51" y="19" width="483" height="483">
<path d="M292.18 501.45C425.38 501.45 533.36 393.47 533.36 260.27C533.36 127.07 425.38 19.0898 292.18 19.0898C158.98 19.0898 51 127.07 51 260.27C51 393.47 158.98 501.45 292.18 501.45Z" fill="white"/>
</mask>
<g mask="url(#mask0_862_12475)">
<g filter="url(#filter0_f_862_12475)">
<path d="M49.6241 253.388C49.886 249.962 51.0137 249.618 51.3426 253.098C51.7081 256.964 50.9977 264.736 51.1687 269.424C51.6216 281.838 53.5244 292.631 55.486 301.41C61.8075 329.702 70.5617 347.932 78.7268 363.378C105.566 414.15 134.967 439.86 163.648 459.237C205.689 487.639 248.072 496.674 290.49 498.59C291.56 498.638 291.738 505.607 290.686 506.515C288.788 508.151 286.436 506.527 284.494 506.459C278.915 506.264 273.335 505.881 267.756 505.301C251.213 503.582 234.67 500.081 218.162 494.448C173.275 479.133 124.877 452.911 82.6092 379.052C79.9502 374.405 77.3124 369.514 74.7118 364.257C72.6321 360.053 70.5726 355.646 68.5493 350.933C61.8946 335.431 46.3868 295.748 49.6241 253.388ZM290.52 506.59C289.499 506.621 289.241 500.124 290.214 498.775C291.684 496.736 293.888 498.415 295.439 498.319C301.877 497.916 308.314 497.319 314.75 496.511C332.395 494.295 350.028 490.512 367.621 484.686C411.257 470.235 458.17 448.205 499.305 380.521C501.923 376.213 504.518 371.643 507.079 366.731C514.86 351.802 534.361 312.174 532.107 262.911C531.917 258.758 533.181 256.27 533.747 259.833C534.467 264.369 534.175 273.826 533.977 278.858C533.341 294.973 530.866 308.601 528.257 319.608C519.987 354.488 508.376 374.713 497.744 391.599C463.184 446.487 425.648 468.614 389.155 484.514C356.424 498.775 323.444 505.573 290.52 506.59Z" fill="#3A0044"/>
</g>
<g filter="url(#filter1_f_862_12475)">
<path d="M49.6241 253.388C49.886 249.962 51.0137 249.618 51.3426 253.098C51.7081 256.964 50.9977 264.736 51.1687 269.424C51.6216 281.838 53.5244 292.631 55.486 301.41C61.8075 329.702 70.5617 347.932 78.7268 363.378C105.566 414.15 134.967 439.86 163.648 459.237C205.689 487.639 248.072 496.674 290.49 498.59C291.56 498.638 291.738 505.607 290.686 506.515C288.788 508.151 286.436 506.527 284.494 506.459C278.915 506.264 273.335 505.881 267.756 505.301C251.213 503.582 234.67 500.081 218.162 494.448C173.275 479.133 124.877 452.911 82.6092 379.052C79.9502 374.405 77.3124 369.514 74.7118 364.257C72.6321 360.053 70.5726 355.646 68.5493 350.933C61.8946 335.431 46.3868 295.748 49.6241 253.388ZM290.52 506.59C289.499 506.621 289.241 500.124 290.214 498.775C291.684 496.736 293.888 498.415 295.439 498.319C301.877 497.916 308.314 497.319 314.75 496.511C332.395 494.295 350.028 490.512 367.621 484.686C411.257 470.235 458.17 448.205 499.305 380.521C501.923 376.213 504.518 371.643 507.079 366.731C514.86 351.802 534.361 312.174 532.107 262.911C531.917 258.758 533.181 256.27 533.747 259.833C534.467 264.369 534.175 273.826 533.977 278.858C533.341 294.973 530.866 308.601 528.257 319.608C519.987 354.488 508.376 374.713 497.744 391.599C463.184 446.487 425.648 468.614 389.155 484.514C356.424 498.775 323.444 505.573 290.52 506.59Z" fill="#3A0044"/>
</g>
</g>
<path d="M224.559 297.11C240.559 297.11 253.529 280.307 253.529 259.58C253.529 238.853 240.559 222.05 224.559 222.05C208.559 222.05 195.589 238.853 195.589 259.58C195.589 280.307 208.559 297.11 224.559 297.11Z" fill="url(#paint6_radial_862_12475)"/>
<path d="M224.559 297.11C240.559 297.11 253.529 280.307 253.529 259.58C253.529 238.853 240.559 222.05 224.559 222.05C208.559 222.05 195.589 238.853 195.589 259.58C195.589 280.307 208.559 297.11 224.559 297.11Z" stroke="url(#paint7_radial_862_12475)" stroke-width="2" stroke-miterlimit="10"/>
<path d="M260.529 240.63C259.749 241.151 258.811 241.381 257.879 241.28C256.947 241.18 256.08 240.755 255.429 240.08L255.009 239.65C254.119 238.73 253.209 237.82 252.299 236.91C251.389 236 250.529 235.17 249.629 234.31C248.729 233.45 247.889 232.72 246.989 231.86C246.089 231 245.279 230.31 244.419 229.55C243.559 228.79 242.739 228.1 241.879 227.38C241.019 226.66 240.229 226.01 239.399 225.38C238.569 224.75 237.779 224.1 236.959 223.47L234.569 221.68C233.789 221.13 233.009 220.57 232.209 220.03C231.409 219.49 230.689 219.03 229.909 218.49C229.129 217.95 228.409 217.49 227.649 217.06C226.889 216.63 226.189 216.18 225.439 215.74C224.689 215.3 224.009 214.92 223.279 214.53C222.549 214.14 221.869 213.78 221.169 213.42L219.089 212.42L217.089 211.5C216.439 211.22 215.779 210.95 215.089 210.68C214.399 210.41 213.819 210.18 213.169 209.95C212.519 209.72 211.919 209.51 211.289 209.3C210.659 209.09 210.059 208.9 209.449 208.73C208.839 208.56 208.269 208.38 207.669 208.23C207.069 208.08 206.519 207.94 205.929 207.81C205.339 207.68 204.809 207.56 204.249 207.45C203.689 207.34 203.149 207.25 202.609 207.16L201.019 206.92C200.499 206.86 200.019 206.8 199.479 206.76C198.939 206.72 198.479 206.67 197.979 206.63L196.539 206.55H195.149H193.799H192.499L191.299 206.62L190.089 206.74L188.919 206.87L188.409 206.95C182.269 207.81 179.569 205.57 178.479 202.71C176.779 198.24 179.799 193.39 184.479 192.38C220.739 184.51 247.479 213.84 261.599 235.13C262.176 236.004 262.388 237.07 262.188 238.099C261.988 239.127 261.392 240.036 260.529 240.63Z" fill="#331842"/>
<path d="M359.729 297.11C375.728 297.11 388.699 280.307 388.699 259.58C388.699 238.853 375.728 222.05 359.729 222.05C343.729 222.05 330.759 238.853 330.759 259.58C330.759 280.307 343.729 297.11 359.729 297.11Z" fill="url(#paint8_radial_862_12475)"/>
<path d="M359.729 297.11C375.728 297.11 388.699 280.307 388.699 259.58C388.699 238.853 375.728 222.05 359.729 222.05C343.729 222.05 330.759 238.853 330.759 259.58C330.759 280.307 343.729 297.11 359.729 297.11Z" stroke="url(#paint9_radial_862_12475)" stroke-width="2" stroke-miterlimit="10"/>
<path d="M323.759 240.63C324.539 241.151 325.477 241.381 326.409 241.28C327.341 241.18 328.208 240.755 328.859 240.08L329.279 239.65C330.169 238.73 331.079 237.82 331.989 236.91L334.659 234.31C335.519 233.48 336.399 232.67 337.289 231.86C338.179 231.05 338.999 230.31 339.859 229.55C340.719 228.79 341.539 228.1 342.399 227.38C343.259 226.66 344.049 226.01 344.879 225.38C345.709 224.75 346.499 224.1 347.319 223.47L349.709 221.68C350.489 221.13 351.269 220.57 352.069 220.03C352.869 219.49 353.589 219.03 354.369 218.49C355.149 217.95 355.869 217.49 356.629 217.06C357.389 216.63 358.089 216.18 358.839 215.74C359.589 215.3 360.269 214.92 360.999 214.53C361.729 214.14 362.409 213.78 363.109 213.42L365.189 212.42L367.189 211.5C367.839 211.22 368.499 210.95 369.189 210.68C369.879 210.41 370.459 210.18 371.109 209.95C371.759 209.72 372.359 209.51 372.989 209.3C373.619 209.09 374.219 208.9 374.829 208.73C375.439 208.56 376.009 208.38 376.609 208.23C377.209 208.08 377.759 207.94 378.349 207.81C378.939 207.68 379.469 207.56 380.029 207.45C380.589 207.34 381.129 207.25 381.669 207.16L383.259 206.92C383.779 206.86 384.259 206.8 384.799 206.76C385.339 206.72 385.799 206.67 386.299 206.63L387.739 206.55H389.129H390.479H391.779L392.979 206.62L394.189 206.74L395.359 206.87L395.869 206.95C402.009 207.81 404.709 205.57 405.799 202.71C407.499 198.24 404.479 193.39 399.799 192.38C363.539 184.51 336.799 213.84 322.679 235.13C322.102 236.005 321.893 237.072 322.095 238.101C322.296 239.129 322.894 240.038 323.759 240.63Z" fill="#331842"/>
<path d="M221.743 394.96C221.361 395.257 220.895 395.426 220.412 395.446C219.928 395.465 219.451 395.332 219.047 395.067C218.642 394.801 218.331 394.416 218.156 393.964C217.982 393.513 217.953 393.018 218.073 392.55C226.313 361.62 256.413 338.72 292.283 338.72C328.153 338.72 358.283 361.66 366.553 392.61C366.674 393.078 366.645 393.573 366.47 394.024C366.295 394.476 365.984 394.861 365.58 395.127C365.175 395.392 364.698 395.525 364.214 395.506C363.731 395.486 363.265 395.317 362.883 395.02C345.033 381.66 319.993 373.34 292.283 373.34C264.573 373.34 239.553 381.64 221.743 394.96Z" fill="url(#paint10_radial_862_12475)"/>
<path d="M221.743 394.96C221.361 395.257 220.895 395.426 220.412 395.446C219.928 395.465 219.451 395.332 219.047 395.067C218.642 394.801 218.331 394.416 218.156 393.964C217.982 393.513 217.953 393.018 218.073 392.55C226.313 361.62 256.413 338.72 292.283 338.72C328.153 338.72 358.283 361.66 366.553 392.61C366.674 393.078 366.645 393.573 366.47 394.024C366.295 394.476 365.984 394.861 365.58 395.127C365.175 395.392 364.698 395.525 364.214 395.506C363.731 395.486 363.265 395.317 362.883 395.02C345.033 381.66 319.993 373.34 292.283 373.34C264.573 373.34 239.553 381.64 221.743 394.96Z" stroke="url(#paint11_linear_862_12475)" stroke-width="2" stroke-miterlimit="10"/>
<defs>
<filter id="filter0_f_862_12475" x="24.1851" y="225.648" width="535.022" height="306.595" filterUnits="userSpaceOnUse" color-interpolation-filters="sRGB">
<feFlood flood-opacity="0" result="BackgroundImageFix"/>
<feBlend mode="normal" in="SourceGraphic" in2="BackgroundImageFix" result="shape"/>
<feGaussianBlur stdDeviation="12.5" result="effect1_foregroundBlur_862_12475"/>
</filter>
<filter id="filter1_f_862_12475" x="9.18506" y="210.648" width="565.022" height="336.595" filterUnits="userSpaceOnUse" color-interpolation-filters="sRGB">
<feFlood flood-opacity="0" result="BackgroundImageFix"/>
<feBlend mode="normal" in="SourceGraphic" in2="BackgroundImageFix" result="shape"/>
<feGaussianBlur stdDeviation="20" result="effect1_foregroundBlur_862_12475"/>
</filter>
<linearGradient id="paint0_linear_862_12475" x1="39.1952" y1="-19.6472" x2="125.24" y2="129.357" gradientUnits="userSpaceOnUse">
<stop stop-color="#AF4FF7"/>
<stop offset="0.526042" stop-color="#A233FF"/>
<stop offset="1" stop-color="#43008F"/>
</linearGradient>
<linearGradient id="paint1_linear_862_12475" x1="457.675" y1="-19.6157" x2="543.702" y2="129.365" gradientUnits="userSpaceOnUse">
<stop stop-color="#AF4FF7"/>
<stop offset="0.526042" stop-color="#A233FF"/>
<stop offset="1" stop-color="#43008F"/>
</linearGradient>
<linearGradient id="paint2_linear_862_12475" x1="292.17" y1="501.82" x2="292.17" y2="18.8203" gradientUnits="userSpaceOnUse">
<stop stop-color="#A05AFF"/>
<stop offset="0.486542" stop-color="#A456FF"/>
<stop offset="0.768116" stop-color="#B14BFF"/>
<stop offset="1" stop-color="#C33AFF"/>
</linearGradient>
<radialGradient id="paint3_radial_862_12475" cx="0" cy="0" r="1" gradientUnits="userSpaceOnUse" gradientTransform="translate(292 83.5898) rotate(90) scale(417.5)">
<stop stop-color="white" stop-opacity="0.5"/>
<stop offset="0.782278"/>
</radialGradient>
<linearGradient id="paint4_linear_862_12475" x1="292.17" y1="501.82" x2="292.17" y2="18.8203" gradientUnits="userSpaceOnUse">
<stop stop-color="#A05AFF"/>
<stop offset="0.401042" stop-color="#A456FF"/>
<stop offset="0.768116" stop-color="#B14BFF" stop-opacity="0"/>
<stop offset="1" stop-color="#C33AFF" stop-opacity="0"/>
</linearGradient>
<radialGradient id="paint5_radial_862_12475" cx="0" cy="0" r="1" gradientUnits="userSpaceOnUse" gradientTransform="translate(292 -33.4101) rotate(90) scale(534.5 722.835)">
<stop offset="0.0922635" stop-color="white"/>
<stop offset="0.670207" stop-color="white" stop-opacity="0"/>
</radialGradient>
<radialGradient id="paint6_radial_862_12475" cx="0" cy="0" r="1" gradientUnits="userSpaceOnUse" gradientTransform="translate(224.525 259.092) scale(36.9297 37.5951)">
<stop stop-color="#490082"/>
<stop offset="1" stop-color="#321040"/>
</radialGradient>
<radialGradient id="paint7_radial_862_12475" cx="0" cy="0" r="1" gradientUnits="userSpaceOnUse" gradientTransform="translate(224.559 259.58) scale(34.52 34.52)">
<stop stop-color="#B66EFF"/>
<stop offset="0.27" stop-color="#B46AFF"/>
<stop offset="0.56" stop-color="#AF5DFF"/>
<stop offset="0.84" stop-color="#A649FF"/>
<stop offset="1" stop-color="#9F3AFF"/>
</radialGradient>
<radialGradient id="paint8_radial_862_12475" cx="0" cy="0" r="1" gradientUnits="userSpaceOnUse" gradientTransform="translate(359.695 259.092) scale(36.9297 37.5951)">
<stop stop-color="#490082"/>
<stop offset="1" stop-color="#321040"/>
</radialGradient>
<radialGradient id="paint9_radial_862_12475" cx="0" cy="0" r="1" gradientUnits="userSpaceOnUse" gradientTransform="translate(359.729 259.58) scale(34.52 34.52)">
<stop stop-color="#B66EFF"/>
<stop offset="0.27" stop-color="#B46AFF"/>
<stop offset="0.56" stop-color="#AF5DFF"/>
<stop offset="0.84" stop-color="#A649FF"/>
<stop offset="1" stop-color="#9F3AFF"/>
</radialGradient>
<radialGradient id="paint10_radial_862_12475" cx="0" cy="0" r="1" gradientUnits="userSpaceOnUse" gradientTransform="translate(292.227 366.744) scale(94.7311 28.4431)">
<stop stop-color="#490082"/>
<stop offset="1" stop-color="#321040"/>
</radialGradient>
<linearGradient id="paint11_linear_862_12475" x1="292.202" y1="330.394" x2="292.202" y2="416.438" gradientUnits="userSpaceOnUse">
<stop stop-color="#38036B"/>
<stop offset="1" stop-color="#B06CF4"/>
</linearGradient>
</defs>
</svg>
