<svg width="484" height="483" viewBox="0 0 484 483" fill="none" xmlns="http://www.w3.org/2000/svg">
    <path d="M242.18 482.36C375.38 482.36 483.36 374.38 483.36 241.18C483.36 107.98 375.38 0 242.18 0C108.98 0 1 107.98 1 241.18C1 374.38 108.98 482.36 242.18 482.36Z"
          fill="url(#paint0_radial_862_12461)"/>

    <path d="M174.548 293.96C190.548 293.96 203.518 277.157 203.518 256.43C203.518 235.703 190.548 218.9 174.548 218.9C158.548 218.9 145.578 235.703 145.578 256.43C145.578 277.157 158.548 293.96 174.548 293.96Z"
          fill="url(#paint4_radial_862_12461)"/>
    <path d="M174.548 293.96C190.548 293.96 203.518 277.157 203.518 256.43C203.518 235.703 190.548 218.9 174.548 218.9C158.548 218.9 145.578 235.703 145.578 256.43C145.578 277.157 158.548 293.96 174.548 293.96Z"
          stroke="url(#paint5_linear_862_12461)" stroke-width="2.17" stroke-miterlimit="10"/>
    <path d="M273.749 231.47C274.528 231.992 275.465 232.224 276.397 232.125C277.329 232.026 278.197 231.603 278.849 230.93L279.269 230.49C280.159 229.57 281.069 228.66 281.979 227.75C282.889 226.84 283.749 226.01 284.649 225.15C285.549 224.29 286.389 223.52 287.269 222.7C288.149 221.88 288.979 221.15 289.849 220.39C290.719 219.63 291.529 218.94 292.389 218.22C293.249 217.5 294.039 216.85 294.869 216.22C295.699 215.59 296.489 214.93 297.309 214.3C298.129 213.67 298.899 213.11 299.699 212.52C300.499 211.93 301.259 211.4 302.059 210.86C302.859 210.32 303.579 209.86 304.359 209.32C305.139 208.78 305.859 208.32 306.619 207.89C307.379 207.46 308.079 207.01 308.829 206.57C309.579 206.13 310.259 205.75 310.989 205.36C311.719 204.97 312.399 204.61 313.099 204.25L315.169 203.25C315.839 202.94 316.519 202.63 317.169 202.34C317.819 202.05 318.479 201.78 319.169 201.51C319.859 201.24 320.439 201.01 321.089 200.78C321.739 200.55 322.339 200.34 322.969 200.13C323.599 199.92 324.189 199.74 324.809 199.56C325.429 199.38 325.989 199.22 326.579 199.06C327.169 198.9 327.739 198.77 328.329 198.64L330.009 198.28C330.559 198.17 331.109 198.08 331.649 197.99C332.189 197.9 332.719 197.82 333.239 197.76C333.759 197.7 334.239 197.63 334.779 197.59C335.319 197.55 335.779 197.5 336.279 197.46L337.719 197.38H339.109C339.569 197.38 340.009 197.38 340.459 197.38H341.759L342.959 197.46L344.169 197.57L345.339 197.7L345.849 197.78C351.979 198.65 354.689 196.4 355.779 193.54C357.479 189.07 354.459 184.22 349.779 183.21C313.519 175.34 286.779 204.67 272.659 225.96C272.08 226.838 271.87 227.907 272.074 228.939C272.278 229.97 272.88 230.879 273.749 231.47Z"
          fill="#42210B"/>
    <path d="M309.708 293.96C325.708 293.96 338.678 277.157 338.678 256.43C338.678 235.703 325.708 218.9 309.708 218.9C293.709 218.9 280.738 235.703 280.738 256.43C280.738 277.157 293.709 293.96 309.708 293.96Z"
          fill="url(#paint6_radial_862_12461)"/>
    <path d="M309.708 293.96C325.708 293.96 338.678 277.157 338.678 256.43C338.678 235.703 325.708 218.9 309.708 218.9C293.709 218.9 280.738 235.703 280.738 256.43C280.738 277.157 293.709 293.96 309.708 293.96Z"
          stroke="url(#paint7_linear_862_12461)" stroke-width="2.17" stroke-miterlimit="10"/>
    <path d="M170.743 389.14C170.361 389.437 169.895 389.607 169.412 389.626C168.928 389.645 168.451 389.512 168.047 389.247C167.642 388.981 167.331 388.596 167.156 388.144C166.982 387.693 166.953 387.199 167.073 386.73C175.363 355.8 205.463 332.88 241.333 332.88C277.203 332.88 307.333 355.82 315.603 386.77C315.726 387.24 315.698 387.737 315.524 388.191C315.349 388.645 315.036 389.032 314.63 389.298C314.223 389.565 313.743 389.696 313.257 389.675C312.772 389.654 312.305 389.481 311.923 389.18C294.083 375.82 269.043 367.5 241.333 367.5C213.623 367.5 188.603 375.82 170.743 389.14Z"
          fill="url(#paint8_radial_862_12461)"/>
    <path d="M170.743 389.14C170.361 389.437 169.895 389.607 169.412 389.626C168.928 389.645 168.451 389.512 168.047 389.247C167.642 388.981 167.331 388.596 167.156 388.144C166.982 387.693 166.953 387.199 167.073 386.73C175.363 355.8 205.463 332.88 241.333 332.88C277.203 332.88 307.333 355.82 315.603 386.77C315.726 387.24 315.698 387.737 315.524 388.191C315.349 388.645 315.036 389.032 314.63 389.298C314.223 389.565 313.743 389.696 313.257 389.675C312.772 389.654 312.305 389.481 311.923 389.18C294.083 375.82 269.043 367.5 241.333 367.5C213.623 367.5 188.603 375.82 170.743 389.14Z"
          stroke="url(#paint9_linear_862_12461)" stroke-width="2" stroke-miterlimit="10"/>
    <defs>
        <filter id="filter0_f_862_12461" x="-25.8145" y="206.558" width="535.021" height="306.595"
                filterUnits="userSpaceOnUse" color-interpolation-filters="sRGB">
            <feFlood flood-opacity="0" result="BackgroundImageFix"/>
            <feBlend mode="normal" in="SourceGraphic" in2="BackgroundImageFix" result="shape"/>
            <feGaussianBlur stdDeviation="12.5" result="effect1_foregroundBlur_862_12461"/>
        </filter>
        <filter id="filter1_f_862_12461" x="-40.8145" y="191.558" width="565.021" height="336.595"
                filterUnits="userSpaceOnUse" color-interpolation-filters="sRGB">
            <feFlood flood-opacity="0" result="BackgroundImageFix"/>
            <feBlend mode="normal" in="SourceGraphic" in2="BackgroundImageFix" result="shape"/>
            <feGaussianBlur stdDeviation="20" result="effect1_foregroundBlur_862_12461"/>
        </filter>
        <radialGradient id="paint0_radial_862_12461" cx="0" cy="0" r="1" gradientUnits="userSpaceOnUse"
                        gradientTransform="translate(242 -4.53898e-06) rotate(90) scale(482)">
            <stop stop-color="#FFDE43"/>
            <stop offset="1" stop-color="#FFBC00"/>
        </radialGradient>
        <radialGradient id="paint1_radial_862_12461" cx="0" cy="0" r="1" gradientUnits="userSpaceOnUse"
                        gradientTransform="translate(242 64.5) rotate(90) scale(417.5)">
            <stop stop-color="white" stop-opacity="0.5"/>
            <stop offset="0.782278"/>
        </radialGradient>
        <radialGradient id="paint2_radial_862_12461" cx="0" cy="0" r="1" gradientUnits="userSpaceOnUse"
                        gradientTransform="translate(242 64.5) rotate(90) scale(417.5)">
            <stop stop-color="white" stop-opacity="0.5"/>
            <stop offset="0.782278"/>
        </radialGradient>
        <radialGradient id="paint3_radial_862_12461" cx="0" cy="0" r="1" gradientUnits="userSpaceOnUse"
                        gradientTransform="translate(242 -52.5) rotate(90) scale(534.5 722.835)">
            <stop offset="0.0922635" stop-color="white"/>
            <stop offset="0.670207" stop-color="white" stop-opacity="0"/>
        </radialGradient>
        <radialGradient id="paint4_radial_862_12461" cx="0" cy="0" r="1" gradientUnits="userSpaceOnUse"
                        gradientTransform="translate(174.508 256.405) scale(36.9297 37.5951)">
            <stop stop-color="#743C1C"/>
            <stop offset="1" stop-color="#401C02"/>
        </radialGradient>
        <linearGradient id="paint5_linear_862_12461" x1="174.548" y1="296.072" x2="174.548" y2="216.485"
                        gradientUnits="userSpaceOnUse">
            <stop offset="0.265625" stop-color="#FFDE43"/>
            <stop offset="1" stop-color="#F79D14"/>
        </linearGradient>
        <radialGradient id="paint6_radial_862_12461" cx="0" cy="0" r="1" gradientUnits="userSpaceOnUse"
                        gradientTransform="translate(309.668 256.405) scale(36.9297 37.5951)">
            <stop stop-color="#743C1C"/>
            <stop offset="1" stop-color="#401C02"/>
        </radialGradient>
        <linearGradient id="paint7_linear_862_12461" x1="309.708" y1="296.072" x2="309.708" y2="216.485"
                        gradientUnits="userSpaceOnUse">
            <stop offset="0.265625" stop-color="#FFDE43"/>
            <stop offset="1" stop-color="#F79D14"/>
        </linearGradient>
        <radialGradient id="paint8_radial_862_12461" cx="0" cy="0" r="1" gradientUnits="userSpaceOnUse"
                        gradientTransform="translate(241.339 361.164) scale(56.1131 57.3686)">
            <stop stop-color="#743C1C"/>
            <stop offset="1" stop-color="#401C02"/>
        </radialGradient>
        <linearGradient id="paint9_linear_862_12461" x1="241.339" y1="391.276" x2="241.339" y2="331.052"
                        gradientUnits="userSpaceOnUse">
            <stop offset="0.265625" stop-color="#FFDE43"/>
            <stop offset="1" stop-color="#F79D14"/>
        </linearGradient>
    </defs>
</svg>
