<svg width="483" height="483" viewBox="0 0 483 483" fill="none" xmlns="http://www.w3.org/2000/svg">
<path d="M241.18 482.36C374.38 482.36 482.36 374.38 482.36 241.18C482.36 107.98 374.38 0 241.18 0C107.98 0 0 107.98 0 241.18C0 374.38 107.98 482.36 241.18 482.36Z" fill="url(#paint0_radial_862_12537)"/>
<g style="mix-blend-mode:soft-light">
<path d="M241.18 482.36C374.38 482.36 482.36 374.38 482.36 241.18C482.36 107.98 374.38 0 241.18 0C107.98 0 0 107.98 0 241.18C0 374.38 107.98 482.36 241.18 482.36Z" fill="url(#paint1_radial_862_12537)"/>
</g>
<g style="mix-blend-mode:soft-light">
<path d="M241.18 482.36C374.38 482.36 482.36 374.38 482.36 241.18C482.36 107.98 374.38 0 241.18 0C107.98 0 0 107.98 0 241.18C0 374.38 107.98 482.36 241.18 482.36Z" fill="url(#paint2_radial_862_12537)"/>
</g>
<g style="mix-blend-mode:overlay">
<path d="M241.18 482.36C374.38 482.36 482.36 374.38 482.36 241.18C482.36 107.98 374.38 0 241.18 0C107.98 0 0 107.98 0 241.18C0 374.38 107.98 482.36 241.18 482.36Z" fill="url(#paint3_radial_862_12537)" fill-opacity="0.7"/>
</g>
<mask id="mask0_862_12537" style="mask-type:alpha" maskUnits="userSpaceOnUse" x="0" y="0" width="483" height="483">
<path d="M241.18 482.36C374.38 482.36 482.36 374.38 482.36 241.18C482.36 107.98 374.38 0 241.18 0C107.98 0 0 107.98 0 241.18C0 374.38 107.98 482.36 241.18 482.36Z" fill="white"/>
</mask>
<g mask="url(#mask0_862_12537)">
<g filter="url(#filter0_f_862_12537)">
<path d="M-1.3759 234.299C-1.11402 230.872 0.0137008 230.529 0.342619 234.008C0.708055 237.874 -0.00231624 245.646 0.16871 250.335C0.621554 262.748 2.52441 273.541 4.48605 282.32C10.8075 310.612 19.5617 328.843 27.7268 344.288C54.5663 395.06 83.9667 420.77 112.648 440.147C154.689 468.549 197.072 477.584 239.49 479.5C240.56 479.548 240.738 486.518 239.686 487.425C237.788 489.061 235.436 487.437 233.494 487.369C227.915 487.174 222.335 486.791 216.756 486.211C200.213 484.492 183.67 480.991 167.162 475.358C122.275 460.044 73.8765 433.821 31.6092 359.962C28.9502 355.316 26.3124 350.424 23.7118 345.167C21.6321 340.963 19.5726 336.556 17.5493 331.843C10.8946 316.342 -4.61323 276.658 -1.3759 234.299ZM239.52 487.5C238.499 487.531 238.241 481.034 239.214 479.685C240.684 477.647 242.888 479.326 244.439 479.229C250.877 478.826 257.314 478.229 263.75 477.421C281.395 475.205 299.028 471.422 316.621 465.596C360.257 451.145 407.17 429.115 448.305 361.431C450.923 357.123 453.518 352.553 456.079 347.641C463.86 332.712 483.361 293.084 481.107 243.821C480.917 239.668 482.181 237.181 482.747 240.743C483.467 245.279 483.175 254.736 482.977 259.768C482.341 275.883 479.866 289.512 477.257 300.518C468.987 335.399 457.376 355.623 446.744 372.51C412.184 427.397 374.648 449.524 338.155 465.424C305.424 479.686 272.444 486.484 239.52 487.5Z" fill="#401C02"/>
</g>
<g filter="url(#filter1_f_862_12537)">
<path d="M-1.3759 234.299C-1.11402 230.872 0.0137008 230.529 0.342619 234.008C0.708055 237.874 -0.00231624 245.646 0.16871 250.335C0.621554 262.748 2.52441 273.541 4.48605 282.32C10.8075 310.612 19.5617 328.843 27.7268 344.288C54.5663 395.06 83.9667 420.77 112.648 440.147C154.689 468.549 197.072 477.584 239.49 479.5C240.56 479.548 240.738 486.518 239.686 487.425C237.788 489.061 235.436 487.437 233.494 487.369C227.915 487.174 222.335 486.791 216.756 486.211C200.213 484.492 183.67 480.991 167.162 475.358C122.275 460.044 73.8765 433.821 31.6092 359.962C28.9502 355.316 26.3124 350.424 23.7118 345.167C21.6321 340.963 19.5726 336.556 17.5493 331.843C10.8946 316.342 -4.61323 276.658 -1.3759 234.299ZM239.52 487.5C238.499 487.531 238.241 481.034 239.214 479.685C240.684 477.647 242.888 479.326 244.439 479.229C250.877 478.826 257.314 478.229 263.75 477.421C281.395 475.205 299.028 471.422 316.621 465.596C360.257 451.145 407.17 429.115 448.305 361.431C450.923 357.123 453.518 352.553 456.079 347.641C463.86 332.712 483.361 293.084 481.107 243.821C480.917 239.668 482.181 237.181 482.747 240.743C483.467 245.279 483.175 254.736 482.977 259.768C482.341 275.883 479.866 289.512 477.257 300.518C468.987 335.399 457.376 355.623 446.744 372.51C412.184 427.397 374.648 449.524 338.155 465.424C305.424 479.686 272.444 486.484 239.52 487.5Z" fill="#401C02"/>
</g>
</g>
<path d="M331.887 278.08C347.887 278.08 360.857 261.277 360.857 240.55C360.857 219.823 347.887 203.02 331.887 203.02C315.887 203.02 302.917 219.823 302.917 240.55C302.917 261.277 315.887 278.08 331.887 278.08Z" fill="url(#paint4_radial_862_12537)"/>
<path d="M331.887 278.08C347.887 278.08 360.857 261.277 360.857 240.55C360.857 219.823 347.887 203.02 331.887 203.02C315.887 203.02 302.917 219.823 302.917 240.55C302.917 261.277 315.887 278.08 331.887 278.08Z" stroke="url(#paint5_linear_862_12537)" stroke-width="2.17" stroke-miterlimit="10"/>
<path d="M391.987 158.95C386.147 151.15 349.337 105.37 302.307 122.54C300.825 123.044 299.561 124.04 298.724 125.363C297.887 126.686 297.528 128.255 297.707 129.81C297.987 131.72 299.107 133.59 302.057 134.49C314.847 138.38 341.717 129.79 375.827 157.43C378.827 159.84 381.557 162.5 384.267 165.19C386.217 167.12 389.457 169.62 392.057 168.12C394.277 166.83 394.257 164.49 393.807 162.66C393.454 161.315 392.835 160.053 391.987 158.95Z" fill="#42210B"/>
<path d="M151.161 278.08C135.161 278.08 122.191 261.277 122.191 240.55C122.191 219.823 135.161 203.02 151.161 203.02C167.16 203.02 180.131 219.823 180.131 240.55C180.131 261.277 167.16 278.08 151.161 278.08Z" fill="url(#paint6_radial_862_12537)"/>
<path d="M151.161 278.08C135.161 278.08 122.191 261.277 122.191 240.55C122.191 219.823 135.161 203.02 151.161 203.02C167.16 203.02 180.131 219.823 180.131 240.55C180.131 261.277 167.16 278.08 151.161 278.08Z" stroke="url(#paint7_linear_862_12537)" stroke-width="2.17" stroke-miterlimit="10"/>
<path d="M91.0604 158.95C96.9004 151.15 133.71 105.37 180.74 122.54C182.222 123.044 183.487 124.04 184.324 125.363C185.161 126.686 185.52 128.255 185.34 129.81C185.06 131.72 183.94 133.59 180.99 134.49C168.2 138.38 141.33 129.79 107.22 157.43C104.22 159.84 101.49 162.5 98.7804 165.19C96.8304 167.12 93.5904 169.62 90.9904 168.12C88.7704 166.83 88.7904 164.49 89.2404 162.66C89.5941 161.315 90.2128 160.053 91.0604 158.95Z" fill="#42210B"/>
<path d="M305.071 374.13C319.511 392.92 303.771 419.65 280.301 416.32C254.444 412.694 228.207 412.694 202.351 416.32C178.861 419.65 163.071 392.95 177.561 374.13C192.681 354.46 215.621 341.95 241.301 341.95C266.981 341.95 289.911 354.46 305.071 374.13Z" fill="url(#paint8_radial_862_12537)"/>
<path d="M305.071 374.13C319.511 392.92 303.771 419.65 280.301 416.32C254.444 412.694 228.207 412.694 202.351 416.32C178.861 419.65 163.071 392.95 177.561 374.13C192.681 354.46 215.621 341.95 241.301 341.95C266.981 341.95 289.911 354.46 305.071 374.13Z" stroke="url(#paint9_linear_862_12537)" stroke-width="1.66" stroke-miterlimit="10"/>
<defs>
<filter id="filter0_f_862_12537" x="-26.8149" y="206.558" width="535.022" height="306.595" filterUnits="userSpaceOnUse" color-interpolation-filters="sRGB">
<feFlood flood-opacity="0" result="BackgroundImageFix"/>
<feBlend mode="normal" in="SourceGraphic" in2="BackgroundImageFix" result="shape"/>
<feGaussianBlur stdDeviation="12.5" result="effect1_foregroundBlur_862_12537"/>
</filter>
<filter id="filter1_f_862_12537" x="-41.8149" y="191.558" width="565.022" height="336.595" filterUnits="userSpaceOnUse" color-interpolation-filters="sRGB">
<feFlood flood-opacity="0" result="BackgroundImageFix"/>
<feBlend mode="normal" in="SourceGraphic" in2="BackgroundImageFix" result="shape"/>
<feGaussianBlur stdDeviation="20" result="effect1_foregroundBlur_862_12537"/>
</filter>
<radialGradient id="paint0_radial_862_12537" cx="0" cy="0" r="1" gradientUnits="userSpaceOnUse" gradientTransform="translate(241 -4.53898e-06) rotate(90) scale(482)">
<stop stop-color="#FFDE43"/>
<stop offset="1" stop-color="#FFBC00"/>
</radialGradient>
<radialGradient id="paint1_radial_862_12537" cx="0" cy="0" r="1" gradientUnits="userSpaceOnUse" gradientTransform="translate(241 64.5) rotate(90) scale(417.5)">
<stop stop-color="white" stop-opacity="0.5"/>
<stop offset="0.782278"/>
</radialGradient>
<radialGradient id="paint2_radial_862_12537" cx="0" cy="0" r="1" gradientUnits="userSpaceOnUse" gradientTransform="translate(241 64.5) rotate(90) scale(417.5)">
<stop stop-color="white" stop-opacity="0.5"/>
<stop offset="0.782278"/>
</radialGradient>
<radialGradient id="paint3_radial_862_12537" cx="0" cy="0" r="1" gradientUnits="userSpaceOnUse" gradientTransform="translate(241 -52.5) rotate(90) scale(534.5 722.835)">
<stop offset="0.0922635" stop-color="white"/>
<stop offset="0.670207" stop-color="white" stop-opacity="0"/>
</radialGradient>
<radialGradient id="paint4_radial_862_12537" cx="0" cy="0" r="1" gradientUnits="userSpaceOnUse" gradientTransform="translate(331.847 240.525) scale(36.9297 37.5951)">
<stop stop-color="#743C1C"/>
<stop offset="1" stop-color="#401C02"/>
</radialGradient>
<linearGradient id="paint5_linear_862_12537" x1="331.887" y1="280.192" x2="331.887" y2="200.605" gradientUnits="userSpaceOnUse">
<stop stop-color="#FFDE43"/>
<stop offset="0.22" stop-color="#FED93F"/>
<stop offset="0.51" stop-color="#FCC934"/>
<stop offset="0.82" stop-color="#F9AF21"/>
<stop offset="1" stop-color="#F79D14"/>
</linearGradient>
<radialGradient id="paint6_radial_862_12537" cx="0" cy="0" r="1" gradientUnits="userSpaceOnUse" gradientTransform="translate(151.201 240.525) rotate(180) scale(36.9297 37.5951)">
<stop stop-color="#743C1C"/>
<stop offset="1" stop-color="#401C02"/>
</radialGradient>
<linearGradient id="paint7_linear_862_12537" x1="151.161" y1="280.192" x2="151.161" y2="200.605" gradientUnits="userSpaceOnUse">
<stop stop-color="#FFDE43"/>
<stop offset="0.22" stop-color="#FED93F"/>
<stop offset="0.51" stop-color="#FCC934"/>
<stop offset="0.82" stop-color="#F9AF21"/>
<stop offset="1" stop-color="#F79D14"/>
</linearGradient>
<radialGradient id="paint8_radial_862_12537" cx="0" cy="0" r="1" gradientUnits="userSpaceOnUse" gradientTransform="translate(241.305 379.126) scale(52.313 75.4044)">
<stop stop-color="#743C1C"/>
<stop offset="1" stop-color="#401C02"/>
</radialGradient>
<linearGradient id="paint9_linear_862_12537" x1="241.305" y1="418.705" x2="241.305" y2="339.548" gradientUnits="userSpaceOnUse">
<stop offset="0.265625" stop-color="#FFDE43"/>
<stop offset="1" stop-color="#F79D14"/>
</linearGradient>
</defs>
</svg>
