<svg width="484" height="483" viewBox="0 0 484 483" fill="none" xmlns="http://www.w3.org/2000/svg">
<path d="M242.18 482.36C375.38 482.36 483.36 374.38 483.36 241.18C483.36 107.98 375.38 0.00012207 242.18 0.00012207C108.98 0.00012207 1 107.98 1 241.18C1 374.38 108.98 482.36 242.18 482.36Z" fill="url(#paint0_radial_862_12466)"/>
<g style="mix-blend-mode:soft-light">
<path d="M242.18 482.36C375.38 482.36 483.36 374.38 483.36 241.18C483.36 107.98 375.38 0.00012207 242.18 0.00012207C108.98 0.00012207 1 107.98 1 241.18C1 374.38 108.98 482.36 242.18 482.36Z" fill="url(#paint1_radial_862_12466)"/>
</g>
<g style="mix-blend-mode:soft-light">
<path d="M242.18 482.36C375.38 482.36 483.36 374.38 483.36 241.18C483.36 107.98 375.38 0.00012207 242.18 0.00012207C108.98 0.00012207 1 107.98 1 241.18C1 374.38 108.98 482.36 242.18 482.36Z" fill="url(#paint2_radial_862_12466)"/>
</g>
<g style="mix-blend-mode:overlay">
<path d="M242.18 482.36C375.38 482.36 483.36 374.38 483.36 241.18C483.36 107.98 375.38 0.00012207 242.18 0.00012207C108.98 0.00012207 1 107.98 1 241.18C1 374.38 108.98 482.36 242.18 482.36Z" fill="url(#paint3_radial_862_12466)" fill-opacity="0.7"/>
</g>
<path d="M242.18 482.36C375.38 482.36 483.36 374.38 483.36 241.18C483.36 107.98 375.38 0.00012207 242.18 0.00012207C108.98 0.00012207 1 107.98 1 241.18C1 374.38 108.98 482.36 242.18 482.36Z" fill="url(#paint4_linear_862_12466)"/>
<mask id="mask0_862_12466" style="mask-type:alpha" maskUnits="userSpaceOnUse" x="1" y="0" width="483" height="483">
<path d="M242.18 482.36C375.38 482.36 483.36 374.38 483.36 241.18C483.36 107.98 375.38 0.00012207 242.18 0.00012207C108.98 0.00012207 1 107.98 1 241.18C1 374.38 108.98 482.36 242.18 482.36Z" fill="white"/>
</mask>
<g mask="url(#mask0_862_12466)">
<g filter="url(#filter0_f_862_12466)">
<path d="M-0.375414 234.299C-0.113529 230.872 1.01419 230.529 1.34311 234.008C1.70854 237.874 0.998172 245.646 1.1692 250.335C1.62204 262.748 3.5249 273.541 5.48654 282.32C11.808 310.612 20.5622 328.843 28.7273 344.289C55.5668 395.061 84.9672 420.77 113.648 440.147C155.69 468.549 198.073 477.584 240.491 479.5C241.561 479.548 241.739 486.518 240.686 487.425C238.788 489.061 236.437 487.437 234.495 487.369C228.915 487.174 223.336 486.791 217.756 486.211C201.213 484.492 184.671 480.991 168.162 475.358C123.275 460.044 74.877 433.821 32.6097 359.962C29.9507 355.316 27.3128 350.424 24.7123 345.167C22.6325 340.963 20.573 336.557 18.5498 331.844C11.895 316.342 -3.61274 276.658 -0.375414 234.299ZM240.52 487.5C239.5 487.531 239.241 481.034 240.214 479.685C241.685 477.647 243.889 479.326 245.439 479.229C251.878 478.827 258.315 478.229 264.75 477.421C282.396 475.205 300.028 471.422 317.621 465.596C361.257 451.146 408.17 429.115 449.305 361.431C451.923 357.123 454.519 352.553 457.079 347.641C464.86 332.712 484.362 293.084 482.107 243.821C481.917 239.668 483.182 237.181 483.748 240.743C484.468 245.279 484.176 254.736 483.977 259.768C483.342 275.883 480.867 289.512 478.257 300.518C469.987 335.399 458.377 355.623 447.744 372.51C413.184 427.397 375.649 449.524 339.156 465.424C306.425 479.686 273.445 486.484 240.52 487.5Z" fill="#401C02"/>
</g>
<g filter="url(#filter1_f_862_12466)">
<path d="M-0.375414 234.299C-0.113529 230.872 1.01419 230.529 1.34311 234.008C1.70854 237.874 0.998172 245.646 1.1692 250.335C1.62204 262.748 3.5249 273.541 5.48654 282.32C11.808 310.612 20.5622 328.843 28.7273 344.289C55.5668 395.061 84.9672 420.77 113.648 440.147C155.69 468.549 198.073 477.584 240.491 479.5C241.561 479.548 241.739 486.518 240.686 487.425C238.788 489.061 236.437 487.437 234.495 487.369C228.915 487.174 223.336 486.791 217.756 486.211C201.213 484.492 184.671 480.991 168.162 475.358C123.275 460.044 74.877 433.821 32.6097 359.962C29.9507 355.316 27.3128 350.424 24.7123 345.167C22.6325 340.963 20.573 336.557 18.5498 331.844C11.895 316.342 -3.61274 276.658 -0.375414 234.299ZM240.52 487.5C239.5 487.531 239.241 481.034 240.214 479.685C241.685 477.647 243.889 479.326 245.439 479.229C251.878 478.827 258.315 478.229 264.75 477.421C282.396 475.205 300.028 471.422 317.621 465.596C361.257 451.146 408.17 429.115 449.305 361.431C451.923 357.123 454.519 352.553 457.079 347.641C464.86 332.712 484.362 293.084 482.107 243.821C481.917 239.668 483.182 237.181 483.748 240.743C484.468 245.279 484.176 254.736 483.977 259.768C483.342 275.883 480.867 289.512 478.257 300.518C469.987 335.399 458.377 355.623 447.744 372.51C413.184 427.397 375.649 449.524 339.156 465.424C306.425 479.686 273.445 486.484 240.52 487.5Z" fill="#401C02"/>
</g>
</g>
<mask id="mask1_862_12466" style="mask-type:alpha" maskUnits="userSpaceOnUse" x="1" y="0" width="483" height="483">
<path d="M242.18 -2.10846e-05C108.98 -3.27293e-05 1.0004 107.98 1.00039 241.18C1.00038 374.38 108.98 482.36 242.18 482.36C375.38 482.36 483.36 374.38 483.36 241.18C483.36 107.98 375.38 -9.43991e-06 242.18 -2.10846e-05Z" fill="white"/>
</mask>
<g mask="url(#mask1_862_12466)">
<g filter="url(#filter2_f_862_12466)">
<path d="M484.737 248.061C484.475 251.488 483.347 251.831 483.018 248.352C482.653 244.486 483.363 236.714 483.192 232.025C482.739 219.612 480.836 208.819 478.875 200.04C472.553 171.748 463.799 153.517 455.634 138.072C428.795 87.2995 399.394 61.5896 370.713 42.2133C328.672 13.8108 286.288 4.77615 243.871 2.85996C242.801 2.81162 242.623 -4.15764 243.675 -5.06499C245.573 -6.70107 247.924 -5.07729 249.867 -5.00925C255.446 -4.81377 261.026 -4.43084 266.605 -3.85102C283.148 -2.13175 299.69 1.36917 316.199 7.00171C361.086 22.3163 409.484 48.5393 451.752 122.398C454.411 127.044 457.048 131.936 459.649 137.193C461.729 141.397 463.788 145.804 465.812 150.517C472.466 166.018 487.974 205.702 484.737 248.061ZM243.841 -5.13976C244.862 -5.17126 245.12 1.32565 244.147 2.67462C242.677 4.71337 240.473 3.03442 238.922 3.13128C232.484 3.53353 226.046 4.1307 219.611 4.93882C201.966 7.15459 184.333 10.9379 166.74 16.764C123.104 31.2145 76.1909 53.2449 35.056 120.929C32.438 125.237 29.8427 129.807 27.2821 134.719C19.5011 149.648 -0.000574455 189.276 2.25394 238.539C2.444 242.692 1.17941 245.179 0.613648 241.617C-0.106627 237.081 0.185763 227.624 0.384158 222.592C1.01954 206.477 3.49454 192.848 6.10407 181.842C14.3741 146.961 25.9846 126.737 36.6172 109.85C71.1769 54.963 108.713 32.8362 145.205 16.9358C177.937 2.67444 210.917 -4.12354 243.841 -5.13976Z" fill="white"/>
</g>
<g filter="url(#filter3_f_862_12466)">
<path d="M484.737 248.061C484.475 251.488 483.347 251.831 483.018 248.352C482.653 244.486 483.363 236.714 483.192 232.025C482.739 219.612 480.836 208.819 478.875 200.04C472.553 171.748 463.799 153.517 455.634 138.072C428.795 87.2995 399.394 61.5896 370.713 42.2133C328.672 13.8108 286.288 4.77615 243.871 2.85996C242.801 2.81162 242.623 -4.15764 243.675 -5.06499C245.573 -6.70107 247.924 -5.07729 249.867 -5.00925C255.446 -4.81377 261.026 -4.43084 266.605 -3.85102C283.148 -2.13175 299.69 1.36917 316.199 7.00171C361.086 22.3163 409.484 48.5393 451.752 122.398C454.411 127.044 457.048 131.936 459.649 137.193C461.729 141.397 463.788 145.804 465.812 150.517C472.466 166.018 487.974 205.702 484.737 248.061ZM243.841 -5.13976C244.862 -5.17126 245.12 1.32565 244.147 2.67462C242.677 4.71337 240.473 3.03442 238.922 3.13128C232.484 3.53353 226.046 4.1307 219.611 4.93882C201.966 7.15459 184.333 10.9379 166.74 16.764C123.104 31.2145 76.1909 53.2449 35.056 120.929C32.438 125.237 29.8427 129.807 27.2821 134.719C19.5011 149.648 -0.000574455 189.276 2.25394 238.539C2.444 242.692 1.17941 245.179 0.613648 241.617C-0.106627 237.081 0.185763 227.624 0.384158 222.592C1.01954 206.477 3.49454 192.848 6.10407 181.842C14.3741 146.961 25.9846 126.737 36.6172 109.85C71.1769 54.963 108.713 32.8362 145.205 16.9358C177.937 2.67444 210.917 -4.12354 243.841 -5.13976Z" fill="white"/>
</g>
</g>
<path d="M171.293 392.2C170.906 392.504 170.433 392.677 169.941 392.696C169.449 392.714 168.964 392.576 168.556 392.302C168.147 392.028 167.836 391.631 167.667 391.169C167.497 390.707 167.479 390.203 167.613 389.73C175.913 358.12 206.003 334.73 241.883 334.73C277.763 334.73 307.883 358.17 316.153 389.8C316.288 390.273 316.269 390.777 316.1 391.239C315.931 391.701 315.619 392.098 315.211 392.372C314.802 392.646 314.317 392.784 313.825 392.766C313.334 392.747 312.86 392.574 312.473 392.27C294.633 378.58 269.563 370.09 241.883 370.09C214.203 370.09 189.143 378.58 171.293 392.2Z" fill="url(#paint5_radial_862_12466)"/>
<path d="M171.293 392.2C170.906 392.504 170.433 392.677 169.941 392.696C169.449 392.714 168.964 392.576 168.556 392.302C168.147 392.028 167.836 391.631 167.667 391.169C167.497 390.707 167.479 390.203 167.613 389.73C175.913 358.12 206.003 334.73 241.883 334.73C277.763 334.73 307.883 358.17 316.153 389.8C316.288 390.273 316.269 390.777 316.1 391.239C315.931 391.701 315.619 392.098 315.211 392.372C314.802 392.646 314.317 392.784 313.825 392.766C313.334 392.747 312.86 392.574 312.473 392.27C294.633 378.58 269.563 370.09 241.883 370.09C214.203 370.09 189.143 378.58 171.293 392.2Z" stroke="url(#paint6_linear_862_12466)" stroke-width="2" stroke-miterlimit="10"/>
<path d="M171.154 259.3C187.153 259.3 200.124 243.791 200.124 224.66C200.124 205.529 187.153 190.02 171.154 190.02C155.154 190.02 142.184 205.529 142.184 224.66C142.184 243.791 155.154 259.3 171.154 259.3Z" fill="url(#paint7_radial_862_12466)"/>
<path d="M171.154 259.3C187.153 259.3 200.124 243.791 200.124 224.66C200.124 205.529 187.153 190.02 171.154 190.02C155.154 190.02 142.184 205.529 142.184 224.66C142.184 243.791 155.154 259.3 171.154 259.3Z" stroke="url(#paint8_linear_862_12466)" stroke-width="2.17" stroke-miterlimit="10"/>
<path d="M161.793 111.64C157.393 120.33 129.053 171.79 79.7932 163.01C78.2467 162.767 76.8297 162.003 75.7768 160.844C74.7238 159.686 74.0981 158.203 74.0032 156.64C73.9432 154.71 74.7232 152.64 77.4832 151.27C89.4032 145.27 117.353 149.05 146.173 115.93C148.658 113.017 150.995 109.979 153.173 106.83C154.763 104.59 157.513 101.57 160.343 102.6C162.753 103.48 163.143 105.8 163.003 107.68C162.87 109.068 162.458 110.415 161.793 111.64Z" fill="#42210B"/>
<path d="M312.734 258.908C328.733 258.908 341.704 243.399 341.704 224.268C341.704 205.137 328.733 189.628 312.734 189.628C296.734 189.628 283.764 205.137 283.764 224.268C283.764 243.399 296.734 258.908 312.734 258.908Z" fill="url(#paint9_radial_862_12466)"/>
<path d="M312.734 258.908C328.733 258.908 341.704 243.399 341.704 224.268C341.704 205.137 328.733 189.628 312.734 189.628C296.734 189.628 283.764 205.137 283.764 224.268C283.764 243.399 296.734 258.908 312.734 258.908Z" stroke="url(#paint10_linear_862_12466)" stroke-width="2.17" stroke-miterlimit="10"/>
<path d="M322.094 111.248C326.494 119.938 354.834 171.398 404.094 162.618C405.641 162.375 407.058 161.61 408.111 160.452C409.164 159.294 409.789 157.81 409.884 156.248C409.944 154.318 409.164 152.248 406.404 150.878C394.484 144.878 366.534 148.658 337.714 115.538C335.229 112.624 332.893 109.587 330.714 106.438C329.134 104.198 326.374 101.178 323.544 102.208C321.134 103.088 320.744 105.408 320.884 107.288C321.018 108.676 321.429 110.022 322.094 111.248Z" fill="#42210B"/>
<mask id="mask2_862_12466" style="mask-type:alpha" maskUnits="userSpaceOnUse" x="0" y="0" width="484" height="483">
<path d="M242.179 482.36C108.979 482.36 0.99939 374.38 0.99939 241.18C0.99939 107.98 108.979 0 242.179 0C375.379 0 483.359 107.98 483.359 241.18C483.359 374.38 375.379 482.36 242.179 482.36Z" fill="url(#paint11_radial_862_12466)"/>
</mask>
<g mask="url(#mask2_862_12466)">
<g style="mix-blend-mode:multiply" filter="url(#filter4_f_862_12466)">
<path d="M442.357 365.74C442.787 333.12 384.897 243.99 384.897 243.99C384.897 243.99 324.677 331.52 324.237 364.14C324.22 379.679 330.327 394.599 341.234 405.666C352.141 416.734 366.969 423.058 382.507 423.269C398.044 423.479 413.039 417.559 424.242 406.791C435.445 396.022 441.953 381.274 442.357 365.74Z" fill="#743C1C" fill-opacity="0.7"/>
</g>
</g>
<path d="M460.357 349.74C460.787 317.12 402.897 227.99 402.897 227.99C402.897 227.99 342.677 315.52 342.237 348.14C342.22 363.679 348.327 378.599 359.234 389.666C370.141 400.734 384.969 407.058 400.507 407.269C416.044 407.479 431.039 401.559 442.242 390.791C453.445 380.022 459.953 365.274 460.357 349.74Z" fill="url(#paint12_linear_862_12466)"/>
<mask id="mask3_862_12466" style="mask-type:alpha" maskUnits="userSpaceOnUse" x="342" y="227" width="119" height="181">
<path d="M460.357 349.74C460.787 317.12 402.897 227.99 402.897 227.99C402.897 227.99 342.677 315.52 342.237 348.14C342.22 363.679 348.327 378.599 359.234 389.666C370.141 400.734 384.969 407.058 400.507 407.269C416.044 407.479 431.039 401.559 442.242 390.791C453.445 380.022 459.953 365.274 460.357 349.74Z" fill="url(#paint13_linear_862_12466)"/>
</mask>
<g mask="url(#mask3_862_12466)">
<g filter="url(#filter5_f_862_12466)">
<path d="M403.361 416C474.862 416 482.859 341.5 462.359 323.5C462.359 340 454.359 394 403.361 394C358.859 394 337.859 348 340.359 323.5C315.359 341 331.859 416 403.361 416Z" fill="#7CD3FF"/>
</g>
</g>
<g filter="url(#filter6_f_862_12466)">
<path d="M425.358 336.304C425.533 317.2 402.009 265 402.009 265C402.009 265 377.538 316.263 377.359 335.367C377.353 344.468 379.834 353.206 384.266 359.688C388.698 366.17 394.724 369.874 401.038 369.997C407.352 370.12 413.445 366.653 417.997 360.346C422.549 354.04 425.194 345.402 425.358 336.304Z" fill="white"/>
</g>
<defs>
<filter id="filter0_f_862_12466" x="-25.8145" y="206.558" width="535.021" height="306.595" filterUnits="userSpaceOnUse" color-interpolation-filters="sRGB">
<feFlood flood-opacity="0" result="BackgroundImageFix"/>
<feBlend mode="normal" in="SourceGraphic" in2="BackgroundImageFix" result="shape"/>
<feGaussianBlur stdDeviation="12.5" result="effect1_foregroundBlur_862_12466"/>
</filter>
<filter id="filter1_f_862_12466" x="-40.8145" y="191.558" width="565.021" height="336.595" filterUnits="userSpaceOnUse" color-interpolation-filters="sRGB">
<feFlood flood-opacity="0" result="BackgroundImageFix"/>
<feBlend mode="normal" in="SourceGraphic" in2="BackgroundImageFix" result="shape"/>
<feGaussianBlur stdDeviation="20" result="effect1_foregroundBlur_862_12466"/>
</filter>
<filter id="filter2_f_862_12466" x="-24.8457" y="-30.7928" width="535.021" height="306.595" filterUnits="userSpaceOnUse" color-interpolation-filters="sRGB">
<feFlood flood-opacity="0" result="BackgroundImageFix"/>
<feBlend mode="normal" in="SourceGraphic" in2="BackgroundImageFix" result="shape"/>
<feGaussianBlur stdDeviation="12.5" result="effect1_foregroundBlur_862_12466"/>
</filter>
<filter id="filter3_f_862_12466" x="-39.8457" y="-45.7928" width="565.021" height="336.595" filterUnits="userSpaceOnUse" color-interpolation-filters="sRGB">
<feFlood flood-opacity="0" result="BackgroundImageFix"/>
<feBlend mode="normal" in="SourceGraphic" in2="BackgroundImageFix" result="shape"/>
<feGaussianBlur stdDeviation="20" result="effect1_foregroundBlur_862_12466"/>
</filter>
<filter id="filter4_f_862_12466" x="289.237" y="208.99" width="188.122" height="249.284" filterUnits="userSpaceOnUse" color-interpolation-filters="sRGB">
<feFlood flood-opacity="0" result="BackgroundImageFix"/>
<feBlend mode="normal" in="SourceGraphic" in2="BackgroundImageFix" result="shape"/>
<feGaussianBlur stdDeviation="17.5" result="effect1_foregroundBlur_862_12466"/>
</filter>
<filter id="filter5_f_862_12466" x="313.408" y="307.5" width="174.763" height="124.5" filterUnits="userSpaceOnUse" color-interpolation-filters="sRGB">
<feFlood flood-opacity="0" result="BackgroundImageFix"/>
<feBlend mode="normal" in="SourceGraphic" in2="BackgroundImageFix" result="shape"/>
<feGaussianBlur stdDeviation="8" result="effect1_foregroundBlur_862_12466"/>
</filter>
<filter id="filter6_f_862_12466" x="337.359" y="225" width="128" height="185" filterUnits="userSpaceOnUse" color-interpolation-filters="sRGB">
<feFlood flood-opacity="0" result="BackgroundImageFix"/>
<feBlend mode="normal" in="SourceGraphic" in2="BackgroundImageFix" result="shape"/>
<feGaussianBlur stdDeviation="20" result="effect1_foregroundBlur_862_12466"/>
</filter>
<radialGradient id="paint0_radial_862_12466" cx="0" cy="0" r="1" gradientUnits="userSpaceOnUse" gradientTransform="translate(242 0.000117531) rotate(90) scale(482)">
<stop stop-color="#FFDE43"/>
<stop offset="1" stop-color="#FFBC00"/>
</radialGradient>
<radialGradient id="paint1_radial_862_12466" cx="0" cy="0" r="1" gradientUnits="userSpaceOnUse" gradientTransform="translate(242 64.5001) rotate(90) scale(417.5)">
<stop stop-color="white" stop-opacity="0.5"/>
<stop offset="0.782278"/>
</radialGradient>
<radialGradient id="paint2_radial_862_12466" cx="0" cy="0" r="1" gradientUnits="userSpaceOnUse" gradientTransform="translate(242 64.5001) rotate(90) scale(417.5)">
<stop stop-color="white" stop-opacity="0.5"/>
<stop offset="0.782278"/>
</radialGradient>
<radialGradient id="paint3_radial_862_12466" cx="0" cy="0" r="1" gradientUnits="userSpaceOnUse" gradientTransform="translate(242 -52.4999) rotate(90) scale(534.5 722.835)">
<stop offset="0.0922635" stop-color="white"/>
<stop offset="0.670207" stop-color="white" stop-opacity="0"/>
</radialGradient>
<linearGradient id="paint4_linear_862_12466" x1="242.18" y1="482.36" x2="242.18" y2="-0.00988345" gradientUnits="userSpaceOnUse">
<stop offset="0.395833" stop-color="#0071BC" stop-opacity="0"/>
<stop offset="0.666667" stop-color="#0063CF" stop-opacity="0.28"/>
<stop offset="0.99" stop-color="#003DFF"/>
</linearGradient>
<radialGradient id="paint5_radial_862_12466" cx="0" cy="0" r="1" gradientUnits="userSpaceOnUse" gradientTransform="translate(241.883 363.631) scale(56.1278 58.621)">
<stop stop-color="#743C1C"/>
<stop offset="1" stop-color="#401C02"/>
</radialGradient>
<linearGradient id="paint6_linear_862_12466" x1="241.883" y1="394.4" x2="241.883" y2="332.862" gradientUnits="userSpaceOnUse">
<stop offset="0.265625" stop-color="#FFDE43"/>
<stop offset="1" stop-color="#F79D14"/>
</linearGradient>
<radialGradient id="paint7_radial_862_12466" cx="0" cy="0" r="1" gradientUnits="userSpaceOnUse" gradientTransform="translate(171.113 224.637) scale(36.9297 34.7001)">
<stop stop-color="#743C1C"/>
<stop offset="1" stop-color="#401C02"/>
</radialGradient>
<linearGradient id="paint8_linear_862_12466" x1="171.154" y1="261.249" x2="171.154" y2="187.791" gradientUnits="userSpaceOnUse">
<stop offset="0.265625" stop-color="#FFDE43"/>
<stop offset="1" stop-color="#F79D14"/>
</linearGradient>
<radialGradient id="paint9_radial_862_12466" cx="0" cy="0" r="1" gradientUnits="userSpaceOnUse" gradientTransform="translate(312.694 224.245) scale(36.9297 34.7001)">
<stop stop-color="#743C1C"/>
<stop offset="1" stop-color="#401C02"/>
</radialGradient>
<linearGradient id="paint10_linear_862_12466" x1="312.734" y1="260.857" x2="312.734" y2="187.398" gradientUnits="userSpaceOnUse">
<stop offset="0.265625" stop-color="#FFDE43"/>
<stop offset="1" stop-color="#F79D14"/>
</linearGradient>
<radialGradient id="paint11_radial_862_12466" cx="0" cy="0" r="1" gradientUnits="userSpaceOnUse" gradientTransform="translate(242.359 -4.53898e-06) rotate(90) scale(482)">
<stop stop-color="#FFDE43"/>
<stop offset="1" stop-color="#FFBC00"/>
</radialGradient>
<linearGradient id="paint12_linear_862_12466" x1="396.071" y1="418.445" x2="397.871" y2="238.435" gradientUnits="userSpaceOnUse">
<stop offset="0.0736292" stop-color="#0048FF"/>
<stop offset="0.223403" stop-color="#006DFF"/>
<stop offset="0.403627" stop-color="#0090FE"/>
<stop offset="0.535088" stop-color="#00ACFE"/>
<stop offset="0.65" stop-color="#00BFFE"/>
<stop offset="0.82" stop-color="#00CBFE"/>
<stop offset="1" stop-color="#00CFFE"/>
</linearGradient>
<linearGradient id="paint13_linear_862_12466" x1="396.071" y1="418.445" x2="397.871" y2="238.435" gradientUnits="userSpaceOnUse">
<stop stop-color="#0048FF"/>
<stop offset="0.14" stop-color="#006DFF"/>
<stop offset="0.31" stop-color="#0090FE"/>
<stop offset="0.48" stop-color="#00ACFE"/>
<stop offset="0.65" stop-color="#00BFFE"/>
<stop offset="0.82" stop-color="#00CBFE"/>
<stop offset="1" stop-color="#00CFFE"/>
</linearGradient>
</defs>
</svg>
