<svg width="483" height="483" viewBox="0 0 483 483" fill="none" xmlns="http://www.w3.org/2000/svg">
<path d="M241.18 482.36C374.38 482.36 482.36 374.38 482.36 241.18C482.36 107.98 374.38 0 241.18 0C107.98 0 0 107.98 0 241.18C0 374.38 107.98 482.36 241.18 482.36Z" fill="url(#paint0_radial_862_12498)"/>
<g style="mix-blend-mode:soft-light">
<path d="M241.18 482.36C374.38 482.36 482.36 374.38 482.36 241.18C482.36 107.98 374.38 0 241.18 0C107.98 0 0 107.98 0 241.18C0 374.38 107.98 482.36 241.18 482.36Z" fill="url(#paint1_radial_862_12498)"/>
</g>
<g style="mix-blend-mode:soft-light">
<path d="M241.18 482.36C374.38 482.36 482.36 374.38 482.36 241.18C482.36 107.98 374.38 0 241.18 0C107.98 0 0 107.98 0 241.18C0 374.38 107.98 482.36 241.18 482.36Z" fill="url(#paint2_radial_862_12498)"/>
</g>
<g style="mix-blend-mode:overlay">
<path d="M241.18 482.36C374.38 482.36 482.36 374.38 482.36 241.18C482.36 107.98 374.38 0 241.18 0C107.98 0 0 107.98 0 241.18C0 374.38 107.98 482.36 241.18 482.36Z" fill="url(#paint3_radial_862_12498)" fill-opacity="0.7"/>
</g>
<mask id="mask0_862_12498" style="mask-type:alpha" maskUnits="userSpaceOnUse" x="0" y="0" width="483" height="483">
<path d="M241.18 482.36C374.38 482.36 482.36 374.38 482.36 241.18C482.36 107.98 374.38 0 241.18 0C107.98 0 0 107.98 0 241.18C0 374.38 107.98 482.36 241.18 482.36Z" fill="white"/>
</mask>
<g mask="url(#mask0_862_12498)">
<g filter="url(#filter0_f_862_12498)">
<path d="M-1.37541 234.299C-1.11353 230.872 0.0141891 230.529 0.343108 234.009C0.708543 237.875 -0.00182796 245.647 0.169198 250.335C0.622042 262.748 2.5249 273.542 4.48654 282.321C10.808 310.613 19.5622 328.843 27.7273 344.289C54.5668 395.061 83.9672 420.771 112.648 440.147C154.69 468.55 197.073 477.584 239.491 479.5C240.561 479.549 240.739 486.518 239.686 487.425C237.788 489.062 235.437 487.438 233.495 487.37C227.915 487.174 222.336 486.791 216.756 486.211C200.213 484.492 183.671 480.991 167.162 475.359C122.275 460.044 73.877 433.821 31.6097 359.962C28.9507 355.316 26.3128 350.424 23.7123 345.168C21.6325 340.964 19.573 336.557 17.5498 331.844C10.895 316.342 -4.61274 276.659 -1.37541 234.299ZM239.52 487.5C238.5 487.532 238.241 481.035 239.214 479.686C240.685 477.647 242.889 479.326 244.439 479.229C250.878 478.827 257.315 478.23 263.75 477.422C281.396 475.206 299.028 471.423 316.621 465.596C360.257 451.146 407.17 429.116 448.305 361.431C450.923 357.124 453.519 352.554 456.079 347.641C463.86 332.713 483.362 293.085 481.107 243.821C480.917 239.669 482.182 237.181 482.748 240.744C483.468 245.28 483.176 254.736 482.977 259.768C482.342 275.884 479.867 289.512 477.257 300.518C468.987 335.399 457.377 355.623 446.744 372.51C412.184 427.397 374.649 449.524 338.156 465.425C305.425 479.686 272.445 486.484 239.52 487.5Z" fill="#401C02"/>
</g>
<g filter="url(#filter1_f_862_12498)">
<path d="M-1.37541 234.299C-1.11353 230.872 0.0141891 230.529 0.343108 234.009C0.708543 237.875 -0.00182796 245.647 0.169198 250.335C0.622042 262.748 2.5249 273.542 4.48654 282.321C10.808 310.613 19.5622 328.843 27.7273 344.289C54.5668 395.061 83.9672 420.771 112.648 440.147C154.69 468.55 197.073 477.584 239.491 479.5C240.561 479.549 240.739 486.518 239.686 487.425C237.788 489.062 235.437 487.438 233.495 487.37C227.915 487.174 222.336 486.791 216.756 486.211C200.213 484.492 183.671 480.991 167.162 475.359C122.275 460.044 73.877 433.821 31.6097 359.962C28.9507 355.316 26.3128 350.424 23.7123 345.168C21.6325 340.964 19.573 336.557 17.5498 331.844C10.895 316.342 -4.61274 276.659 -1.37541 234.299ZM239.52 487.5C238.5 487.532 238.241 481.035 239.214 479.686C240.685 477.647 242.889 479.326 244.439 479.229C250.878 478.827 257.315 478.23 263.75 477.422C281.396 475.206 299.028 471.423 316.621 465.596C360.257 451.146 407.17 429.116 448.305 361.431C450.923 357.124 453.519 352.554 456.079 347.641C463.86 332.713 483.362 293.085 481.107 243.821C480.917 239.669 482.182 237.181 482.748 240.744C483.468 245.28 483.176 254.736 482.977 259.768C482.342 275.884 479.867 289.512 477.257 300.518C468.987 335.399 457.377 355.623 446.744 372.51C412.184 427.397 374.649 449.524 338.156 465.425C305.425 479.686 272.445 486.484 239.52 487.5Z" fill="#401C02"/>
</g>
</g>
<path d="M166.43 220.749C183.192 220.749 196.78 204.506 196.78 184.469C196.78 164.433 183.192 148.189 166.43 148.189C149.668 148.189 136.08 164.433 136.08 184.469C136.08 204.506 149.668 220.749 166.43 220.749Z" fill="url(#paint4_radial_862_12498)"/>
<path d="M166.43 220.749C183.192 220.749 196.78 204.506 196.78 184.469C196.78 164.433 183.192 148.189 166.43 148.189C149.668 148.189 136.08 164.433 136.08 184.469C136.08 204.506 149.668 220.749 166.43 220.749Z" stroke="url(#paint5_linear_862_12498)" stroke-width="2.27" stroke-miterlimit="10"/>
<path d="M314.59 220.749C331.352 220.749 344.94 204.506 344.94 184.469C344.94 164.433 331.352 148.189 314.59 148.189C297.828 148.189 284.24 164.433 284.24 184.469C284.24 204.506 297.828 220.749 314.59 220.749Z" fill="url(#paint6_radial_862_12498)"/>
<path d="M314.59 220.749C331.352 220.749 344.94 204.506 344.94 184.469C344.94 164.433 331.352 148.189 314.59 148.189C297.828 148.189 284.24 164.433 284.24 184.469C284.24 204.506 297.828 220.749 314.59 220.749Z" stroke="url(#paint7_linear_862_12498)" stroke-width="2.27" stroke-miterlimit="10"/>
<path d="M276.65 384.86L243.14 365.66C242.341 365.198 241.434 364.955 240.51 364.955C239.587 364.955 238.68 365.198 237.88 365.66L204.33 384.86C203.263 385.469 202.017 385.689 200.806 385.481C199.595 385.273 198.493 384.65 197.69 383.72L174.49 356.72C173.853 355.977 173.022 355.426 172.089 355.128C171.157 354.83 170.161 354.796 169.21 355.03L130.81 364.55C129.6 364.849 128.323 364.713 127.204 364.164C126.085 363.616 125.195 362.69 124.69 361.55L108.45 324.55C108.169 323.912 108.017 323.224 108.001 322.527C107.986 321.83 108.108 321.137 108.361 320.487C108.613 319.837 108.991 319.243 109.473 318.739C109.955 318.235 110.532 317.831 111.17 317.55L126.39 310.88C127.028 310.595 127.716 310.439 128.414 310.422C129.112 310.404 129.807 310.525 130.458 310.778C131.109 311.031 131.704 311.411 132.207 311.895C132.71 312.38 133.113 312.959 133.39 313.6L140.39 329.6C140.893 330.741 141.783 331.668 142.903 332.217C144.023 332.766 145.3 332.901 146.51 332.6L178.92 324.6C179.87 324.364 180.866 324.397 181.798 324.693C182.73 324.99 183.562 325.539 184.2 326.28L203.7 348.99C204.506 349.915 205.608 350.53 206.818 350.731C208.028 350.932 209.269 350.705 210.33 350.09L237.87 334.3C238.672 333.843 239.578 333.603 240.5 333.603C241.423 333.603 242.329 333.843 243.13 334.3L270.67 350.09C271.735 350.711 272.983 350.941 274.199 350.74C275.415 350.539 276.522 349.92 277.33 348.99L296.8 326.36C297.439 325.619 298.271 325.07 299.203 324.773C300.135 324.477 301.131 324.444 302.08 324.68L334.49 332.68C335.7 332.981 336.978 332.846 338.098 332.297C339.218 331.748 340.108 330.821 340.61 329.68L347.61 313.68C347.89 313.041 348.294 312.463 348.797 311.98C349.301 311.498 349.895 311.119 350.546 310.866C351.196 310.613 351.89 310.492 352.587 310.508C353.285 310.524 353.972 310.678 354.61 310.96L369.82 317.64C370.461 317.918 371.041 318.32 371.525 318.823C372.009 319.327 372.389 319.921 372.642 320.572C372.895 321.223 373.016 321.918 372.999 322.616C372.981 323.314 372.826 324.002 372.54 324.64L356.31 361.64C355.808 362.781 354.918 363.708 353.798 364.257C352.678 364.806 351.4 364.941 350.19 364.64L311.79 355.12C310.839 354.887 309.841 354.922 308.907 355.22C307.974 355.518 307.141 356.068 306.5 356.81L283.3 383.81C282.486 384.73 281.377 385.338 280.164 385.529C278.951 385.721 277.708 385.484 276.65 384.86Z" fill="url(#paint8_radial_862_12498)"/>
<path d="M276.65 384.86L243.14 365.66C242.341 365.198 241.434 364.955 240.51 364.955C239.587 364.955 238.68 365.198 237.88 365.66L204.33 384.86C203.263 385.469 202.017 385.689 200.806 385.481C199.595 385.273 198.493 384.65 197.69 383.72L174.49 356.72C173.853 355.977 173.022 355.426 172.089 355.128C171.157 354.83 170.161 354.796 169.21 355.03L130.81 364.55C129.6 364.849 128.323 364.713 127.204 364.164C126.085 363.616 125.195 362.69 124.69 361.55L108.45 324.55C108.169 323.912 108.017 323.224 108.001 322.527C107.986 321.83 108.108 321.137 108.361 320.487C108.613 319.837 108.991 319.243 109.473 318.739C109.955 318.235 110.532 317.831 111.17 317.55L126.39 310.88C127.028 310.595 127.716 310.439 128.414 310.422C129.112 310.404 129.807 310.525 130.458 310.778C131.109 311.031 131.704 311.411 132.207 311.895C132.71 312.38 133.113 312.959 133.39 313.6L140.39 329.6C140.893 330.741 141.783 331.668 142.903 332.217C144.023 332.766 145.3 332.901 146.51 332.6L178.92 324.6C179.87 324.364 180.866 324.397 181.798 324.693C182.73 324.99 183.562 325.539 184.2 326.28L203.7 348.99C204.506 349.915 205.608 350.53 206.818 350.731C208.028 350.932 209.269 350.705 210.33 350.09L237.87 334.3C238.672 333.843 239.578 333.603 240.5 333.603C241.423 333.603 242.329 333.843 243.13 334.3L270.67 350.09C271.735 350.711 272.983 350.941 274.199 350.74C275.415 350.539 276.522 349.92 277.33 348.99L296.8 326.36C297.439 325.619 298.271 325.07 299.203 324.773C300.135 324.477 301.131 324.444 302.08 324.68L334.49 332.68C335.7 332.981 336.978 332.846 338.098 332.297C339.218 331.748 340.108 330.821 340.61 329.68L347.61 313.68C347.89 313.041 348.294 312.463 348.797 311.98C349.301 311.498 349.895 311.119 350.546 310.866C351.196 310.613 351.89 310.492 352.587 310.508C353.285 310.524 353.972 310.678 354.61 310.96L369.82 317.64C370.461 317.918 371.041 318.32 371.525 318.823C372.009 319.327 372.389 319.921 372.642 320.572C372.895 321.223 373.016 321.918 372.999 322.616C372.981 323.314 372.826 324.002 372.54 324.64L356.31 361.64C355.808 362.781 354.918 363.708 353.798 364.257C352.678 364.806 351.4 364.941 350.19 364.64L311.79 355.12C310.839 354.887 309.841 354.922 308.907 355.22C307.974 355.518 307.141 356.068 306.5 356.81L283.3 383.81C282.486 384.73 281.377 385.338 280.164 385.529C278.951 385.721 277.708 385.484 276.65 384.86V384.86Z" stroke="url(#paint9_linear_862_12498)" stroke-width="2.83" stroke-miterlimit="10"/>
<defs>
<filter id="filter0_f_862_12498" x="-26.8145" y="206.559" width="535.021" height="306.595" filterUnits="userSpaceOnUse" color-interpolation-filters="sRGB">
<feFlood flood-opacity="0" result="BackgroundImageFix"/>
<feBlend mode="normal" in="SourceGraphic" in2="BackgroundImageFix" result="shape"/>
<feGaussianBlur stdDeviation="12.5" result="effect1_foregroundBlur_862_12498"/>
</filter>
<filter id="filter1_f_862_12498" x="-41.8145" y="191.559" width="565.021" height="336.595" filterUnits="userSpaceOnUse" color-interpolation-filters="sRGB">
<feFlood flood-opacity="0" result="BackgroundImageFix"/>
<feBlend mode="normal" in="SourceGraphic" in2="BackgroundImageFix" result="shape"/>
<feGaussianBlur stdDeviation="20" result="effect1_foregroundBlur_862_12498"/>
</filter>
<radialGradient id="paint0_radial_862_12498" cx="0" cy="0" r="1" gradientUnits="userSpaceOnUse" gradientTransform="translate(241 -4.53898e-06) rotate(90) scale(482)">
<stop stop-color="#FFDE43"/>
<stop offset="1" stop-color="#FFBC00"/>
</radialGradient>
<radialGradient id="paint1_radial_862_12498" cx="0" cy="0" r="1" gradientUnits="userSpaceOnUse" gradientTransform="translate(241 64.5) rotate(90) scale(417.5)">
<stop stop-color="white" stop-opacity="0.5"/>
<stop offset="0.782278"/>
</radialGradient>
<radialGradient id="paint2_radial_862_12498" cx="0" cy="0" r="1" gradientUnits="userSpaceOnUse" gradientTransform="translate(241 64.5) rotate(90) scale(417.5)">
<stop stop-color="white" stop-opacity="0.5"/>
<stop offset="0.782278"/>
</radialGradient>
<radialGradient id="paint3_radial_862_12498" cx="0" cy="0" r="1" gradientUnits="userSpaceOnUse" gradientTransform="translate(241 -52.5) rotate(90) scale(534.5 722.835)">
<stop offset="0.0922635" stop-color="white"/>
<stop offset="0.670207" stop-color="white" stop-opacity="0"/>
</radialGradient>
<radialGradient id="paint4_radial_862_12498" cx="0" cy="0" r="1" gradientUnits="userSpaceOnUse" gradientTransform="translate(166.388 184.445) scale(38.6889 36.3429)">
<stop stop-color="#743C1C"/>
<stop offset="1" stop-color="#401C02"/>
</radialGradient>
<linearGradient id="paint5_linear_862_12498" x1="166.43" y1="222.791" x2="166.43" y2="145.855" gradientUnits="userSpaceOnUse">
<stop stop-color="#FFDE43"/>
<stop offset="0.22" stop-color="#FED93F"/>
<stop offset="0.51" stop-color="#FCC934"/>
<stop offset="0.82" stop-color="#F9AF21"/>
<stop offset="1" stop-color="#F79D14"/>
</linearGradient>
<radialGradient id="paint6_radial_862_12498" cx="0" cy="0" r="1" gradientUnits="userSpaceOnUse" gradientTransform="translate(314.548 184.445) scale(38.6889 36.3429)">
<stop stop-color="#743C1C"/>
<stop offset="1" stop-color="#401C02"/>
</radialGradient>
<linearGradient id="paint7_linear_862_12498" x1="314.59" y1="222.791" x2="314.59" y2="145.855" gradientUnits="userSpaceOnUse">
<stop stop-color="#FFDE43"/>
<stop offset="0.22" stop-color="#FED93F"/>
<stop offset="0.51" stop-color="#FCC934"/>
<stop offset="0.82" stop-color="#F9AF21"/>
<stop offset="1" stop-color="#F79D14"/>
</linearGradient>
<radialGradient id="paint8_radial_862_12498" cx="0" cy="0" r="1" gradientUnits="userSpaceOnUse" gradientTransform="translate(240.5 347.855) scale(100.014 75.9301)">
<stop stop-color="#743C1C"/>
<stop offset="1" stop-color="#401C02"/>
</radialGradient>
<linearGradient id="paint9_linear_862_12498" x1="240.5" y1="387.709" x2="240.5" y2="308.001" gradientUnits="userSpaceOnUse">
<stop offset="0.265625" stop-color="#FFDE43"/>
<stop offset="1" stop-color="#F79D14"/>
</linearGradient>
</defs>
</svg>
