<svg width="483" height="483" viewBox="0 0 483 483" fill="none" xmlns="http://www.w3.org/2000/svg">
<path d="M241.18 482.36C374.38 482.36 482.36 374.38 482.36 241.18C482.36 107.98 374.38 0 241.18 0C107.98 0 0 107.98 0 241.18C0 374.38 107.98 482.36 241.18 482.36Z" fill="url(#paint0_radial_862_12503)"/>
<g style="mix-blend-mode:soft-light">
<path d="M241.18 482.36C374.38 482.36 482.36 374.38 482.36 241.18C482.36 107.98 374.38 0 241.18 0C107.98 0 0 107.98 0 241.18C0 374.38 107.98 482.36 241.18 482.36Z" fill="url(#paint1_radial_862_12503)"/>
</g>
<g style="mix-blend-mode:soft-light">
<path d="M241.18 482.36C374.38 482.36 482.36 374.38 482.36 241.18C482.36 107.98 374.38 0 241.18 0C107.98 0 0 107.98 0 241.18C0 374.38 107.98 482.36 241.18 482.36Z" fill="url(#paint2_radial_862_12503)"/>
</g>
<g style="mix-blend-mode:overlay">
<path d="M241.18 482.36C374.38 482.36 482.36 374.38 482.36 241.18C482.36 107.98 374.38 0 241.18 0C107.98 0 0 107.98 0 241.18C0 374.38 107.98 482.36 241.18 482.36Z" fill="url(#paint3_radial_862_12503)" fill-opacity="0.7"/>
</g>
<mask id="mask0_862_12503" style="mask-type:alpha" maskUnits="userSpaceOnUse" x="0" y="0" width="483" height="483">
<path d="M241.18 482.36C374.38 482.36 482.36 374.38 482.36 241.18C482.36 107.98 374.38 0 241.18 0C107.98 0 0 107.98 0 241.18C0 374.38 107.98 482.36 241.18 482.36Z" fill="white"/>
</mask>
<g mask="url(#mask0_862_12503)">
<g filter="url(#filter0_f_862_12503)">
<path d="M-1.37541 234.299C-1.11353 230.872 0.0141891 230.529 0.343108 234.009C0.708543 237.875 -0.00182796 245.647 0.169198 250.335C0.622042 262.748 2.5249 273.542 4.48654 282.321C10.808 310.613 19.5622 328.843 27.7273 344.289C54.5668 395.061 83.9672 420.771 112.648 440.147C154.69 468.55 197.073 477.584 239.491 479.5C240.561 479.549 240.739 486.518 239.686 487.425C237.788 489.062 235.437 487.438 233.495 487.37C227.915 487.174 222.336 486.791 216.756 486.211C200.213 484.492 183.671 480.991 167.162 475.359C122.275 460.044 73.877 433.821 31.6097 359.962C28.9507 355.316 26.3128 350.424 23.7123 345.168C21.6325 340.964 19.573 336.557 17.5498 331.844C10.895 316.342 -4.61274 276.659 -1.37541 234.299ZM239.52 487.5C238.5 487.532 238.241 481.035 239.214 479.686C240.685 477.647 242.889 479.326 244.439 479.229C250.878 478.827 257.315 478.23 263.75 477.422C281.396 475.206 299.028 471.423 316.621 465.596C360.257 451.146 407.17 429.116 448.305 361.431C450.923 357.124 453.519 352.554 456.079 347.641C463.86 332.713 483.362 293.085 481.107 243.821C480.917 239.669 482.182 237.181 482.748 240.744C483.468 245.28 483.176 254.736 482.977 259.768C482.342 275.884 479.867 289.512 477.257 300.518C468.987 335.399 457.377 355.623 446.744 372.51C412.184 427.397 374.649 449.524 338.156 465.425C305.425 479.686 272.445 486.484 239.52 487.5Z" fill="#401C02"/>
</g>
<g filter="url(#filter1_f_862_12503)">
<path d="M-1.37541 234.299C-1.11353 230.872 0.0141891 230.529 0.343108 234.009C0.708543 237.875 -0.00182796 245.647 0.169198 250.335C0.622042 262.748 2.5249 273.542 4.48654 282.321C10.808 310.613 19.5622 328.843 27.7273 344.289C54.5668 395.061 83.9672 420.771 112.648 440.147C154.69 468.55 197.073 477.584 239.491 479.5C240.561 479.549 240.739 486.518 239.686 487.425C237.788 489.062 235.437 487.438 233.495 487.37C227.915 487.174 222.336 486.791 216.756 486.211C200.213 484.492 183.671 480.991 167.162 475.359C122.275 460.044 73.877 433.821 31.6097 359.962C28.9507 355.316 26.3128 350.424 23.7123 345.168C21.6325 340.964 19.573 336.557 17.5498 331.844C10.895 316.342 -4.61274 276.659 -1.37541 234.299ZM239.52 487.5C238.5 487.532 238.241 481.035 239.214 479.686C240.685 477.647 242.889 479.326 244.439 479.229C250.878 478.827 257.315 478.23 263.75 477.422C281.396 475.206 299.028 471.423 316.621 465.596C360.257 451.146 407.17 429.116 448.305 361.431C450.923 357.124 453.519 352.554 456.079 347.641C463.86 332.713 483.362 293.085 481.107 243.821C480.917 239.669 482.182 237.181 482.748 240.744C483.468 245.28 483.176 254.736 482.977 259.768C482.342 275.884 479.867 289.512 477.257 300.518C468.987 335.399 457.377 355.623 446.744 372.51C412.184 427.397 374.649 449.524 338.156 465.425C305.425 479.686 272.445 486.484 239.52 487.5Z" fill="#401C02"/>
</g>
</g>
<path d="M400.45 305.931C385.92 335.803 363.281 360.987 335.119 378.605C306.958 396.224 274.409 405.567 241.19 405.567C207.971 405.567 175.422 396.224 147.26 378.605C119.098 360.987 96.4597 335.803 81.9297 305.931C128.38 322.151 182.93 331.491 241.19 331.491C299.45 331.491 354 322.151 400.45 305.931Z" fill="url(#paint4_linear_862_12503)"/>
<path d="M415.51 259.551C415.33 260.551 415.14 261.551 414.94 262.601C414.74 263.651 414.58 264.441 414.38 265.351C414.38 265.531 414.31 265.701 414.27 265.871C414.08 266.801 413.87 267.721 413.66 268.641C413.45 269.561 413.26 270.311 413.05 271.141C412.93 271.641 412.81 272.141 412.67 272.641C412.62 272.861 412.56 273.091 412.5 273.311C412.37 273.831 412.23 274.311 412.09 274.861C412.09 275.061 411.99 275.261 411.93 275.461C411.737 276.167 411.537 276.877 411.33 277.591C411.06 278.591 410.77 279.511 410.48 280.471V280.531C410.2 281.431 409.92 282.341 409.62 283.241C408.97 285.241 408.29 287.241 407.62 289.241C407.27 290.241 406.91 291.151 406.55 292.091C406.19 293.031 405.93 293.691 405.61 294.491C405.13 295.691 404.61 296.881 404.13 298.061C403.8 298.841 403.46 299.621 403.13 300.391L403.08 300.491C402.75 301.241 402.41 301.981 402.08 302.721L401.54 303.881C401.21 304.581 400.88 305.281 400.54 305.971C354.09 322.191 299.54 331.531 241.28 331.531C183.02 331.531 128.47 322.191 82.02 305.971C81.68 305.281 81.35 304.581 81.02 303.881L80.48 302.721C80.14 301.981 79.8 301.241 79.48 300.491L79.43 300.391C79.09 299.621 78.75 298.841 78.43 298.061C77.92 296.881 77.43 295.691 76.95 294.491C76.63 293.691 76.32 292.891 76.01 292.091C75.7 291.291 75.29 290.201 74.94 289.241C74.22 287.241 73.54 285.291 72.89 283.241C72.59 282.341 72.31 281.431 72.03 280.531V280.471C71.74 279.471 71.45 278.551 71.18 277.591C70.9667 276.884 70.7667 276.174 70.58 275.461C70.52 275.261 70.47 275.061 70.42 274.861C70.28 274.351 70.14 273.861 70.01 273.311C69.95 273.091 69.89 272.861 69.84 272.641C69.7 272.141 69.58 271.641 69.46 271.141C69.25 270.311 69.05 269.471 68.85 268.641C68.65 267.811 68.43 266.801 68.24 265.871C68.24 265.701 68.16 265.531 68.13 265.351C67.93 264.441 67.75 263.521 67.57 262.601C67.39 261.681 67.18 260.601 67 259.551C116.54 279.201 176.6 290.711 241.32 290.711C306.04 290.711 365.97 279.201 415.51 259.551Z" fill="url(#paint5_linear_862_12503)"/>
<path d="M400.45 305.931C354 322.151 299.45 331.491 241.19 331.491C182.93 331.491 128.38 322.151 81.9297 305.931" stroke="url(#paint6_radial_862_12503)" stroke-width="6" stroke-miterlimit="10"/>
<path d="M418.76 266.391L418.762 266.383L418.763 266.375C419.05 265.006 418.964 263.586 418.512 262.262C418.061 260.939 417.262 259.761 416.199 258.853C415.136 257.945 413.848 257.34 412.47 257.101C411.095 256.862 409.681 256.998 408.376 257.493C408.374 257.494 408.371 257.495 408.369 257.496C360.473 275.625 303.02 286.201 241.189 286.201C179.356 286.201 121.902 275.624 74.0052 257.494C72.6994 256.998 71.2845 256.862 69.9084 257.101C68.5308 257.34 67.2428 257.945 66.1796 258.853C65.1164 259.761 64.3173 260.939 63.866 262.262C63.4148 263.586 63.328 265.006 63.615 266.375L63.6166 266.383L63.6183 266.391C72.2957 307.048 94.6626 343.497 126.982 369.647C159.302 395.796 199.616 410.063 241.189 410.063C282.763 410.063 323.077 395.796 355.396 369.647C387.716 343.497 410.083 307.048 418.76 266.391Z" stroke="url(#paint7_linear_862_12503)" stroke-width="9" stroke-miterlimit="10"/>
<mask id="mask1_862_12503" style="mask-type:alpha" maskUnits="userSpaceOnUse" x="67" y="260" width="348" height="145">
<path d="M409.969 260.701C410.521 260.491 411.119 260.434 411.701 260.535C412.283 260.636 412.827 260.891 413.276 261.275C413.725 261.658 414.063 262.156 414.253 262.715C414.444 263.274 414.48 263.873 414.359 264.451C405.897 304.101 384.084 339.647 352.566 365.148C321.048 390.65 281.732 404.563 241.189 404.563C200.646 404.563 161.331 390.65 129.813 365.148C98.2941 339.647 76.4815 304.101 68.0192 264.451C67.898 263.873 67.9347 263.274 68.1253 262.715C68.3158 262.156 68.6533 261.658 69.1023 261.275C69.5514 260.891 70.0953 260.636 70.6772 260.535C71.259 260.434 71.8573 260.491 72.4092 260.701C120.859 279.041 178.859 289.701 241.189 289.701C303.519 289.701 361.519 279.041 409.969 260.701Z" fill="url(#paint8_linear_862_12503)"/>
</mask>
<g mask="url(#mask1_862_12503)">
<g filter="url(#filter2_f_862_12503)">
<path d="M409.969 260.701C410.521 260.491 411.119 260.434 411.701 260.535C412.283 260.636 412.827 260.891 413.276 261.275C413.725 261.658 414.063 262.156 414.253 262.715C414.444 263.274 414.48 263.873 414.359 264.451C405.897 304.101 384.084 339.647 352.566 365.148C321.047 390.65 281.732 404.563 241.189 404.563C200.646 404.563 161.331 390.65 129.813 365.148C98.2941 339.647 76.4815 304.101 68.0192 264.451C67.898 263.873 67.9347 263.274 68.1253 262.715C68.3158 262.156 68.6533 261.658 69.1023 261.275C69.5514 260.891 70.0953 260.636 70.6772 260.535C71.259 260.434 71.8573 260.491 72.4092 260.701C120.859 279.041 178.859 289.701 241.189 289.701C303.519 289.701 361.519 279.041 409.969 260.701Z" stroke="url(#paint9_linear_862_12503)" stroke-width="12" stroke-miterlimit="10"/>
</g>
</g>
<path d="M409.969 261.701C410.521 261.491 411.119 261.434 411.701 261.535C412.283 261.636 412.827 261.891 413.276 262.275C413.725 262.658 414.063 263.156 414.253 263.715C414.444 264.274 414.48 264.873 414.359 265.451C405.897 305.101 384.084 340.647 352.566 366.148C321.047 391.65 281.732 405.563 241.189 405.563C200.646 405.563 161.331 391.65 129.813 366.148C98.2941 340.647 76.4815 305.101 68.0192 265.451C67.898 264.873 67.9347 264.274 68.1253 263.715C68.3158 263.156 68.6533 262.658 69.1023 262.275C69.5514 261.891 70.0953 261.636 70.6772 261.535C71.259 261.434 71.8573 261.491 72.4092 261.701C120.859 280.041 178.859 290.701 241.189 290.701C303.519 290.701 361.519 280.041 409.969 261.701Z" stroke="url(#paint10_linear_862_12503)" stroke-width="12" stroke-miterlimit="10"/>
<path d="M101.651 236.02C104.491 234.253 107.344 232.52 110.211 230.82C114.611 228.17 119.031 225.6 123.431 223.02L136.621 215.38L149.671 207.76C158.281 202.67 166.801 197.53 174.611 192.12C178.315 189.596 181.843 186.823 185.171 183.82C186.162 182.903 187.097 181.928 187.971 180.9C188.297 180.626 188.56 180.285 188.741 179.9C188.917 179.513 189.009 179.094 189.011 178.67C189.012 178.252 188.924 177.84 188.751 177.46C188.544 177.006 188.232 176.608 187.841 176.3C187.002 175.306 186.1 174.367 185.141 173.49C181.814 170.485 178.282 167.715 174.571 165.2C166.771 159.79 158.241 154.66 149.641 149.56L136.641 141.95L123.451 134.3C119.061 131.72 114.631 129.15 110.231 126.49C107.357 124.783 104.494 123.043 101.641 121.27C101.376 121.148 101.17 120.925 101.068 120.652C100.967 120.378 100.979 120.075 101.101 119.81C101.223 119.544 101.445 119.339 101.719 119.237C101.993 119.136 102.296 119.148 102.561 119.27C105.971 119.92 109.331 120.68 112.681 121.48C117.831 122.71 122.911 124.1 127.971 125.58C130.501 126.33 132.971 127.13 135.511 127.92C138.051 128.71 140.511 129.58 142.991 130.43C147.971 132.15 152.897 134.01 157.771 136.01C167.656 139.956 177.233 144.635 186.421 150.01C191.266 152.845 195.856 156.093 200.141 159.72C202.554 161.794 204.746 164.113 206.681 166.64C206.941 166.98 207.191 167.38 207.451 167.75C207.711 168.12 207.951 168.49 208.191 168.93L208.911 170.19C209.131 170.65 209.361 171.13 209.571 171.6C210.587 173.793 211.114 176.182 211.114 178.6C211.114 181.017 210.587 183.406 209.571 185.6C209.351 186.08 209.131 186.55 208.901 187.02L208.191 188.28C207.941 188.71 207.691 189.08 207.441 189.46C207.191 189.84 206.931 190.22 206.671 190.57C204.741 193.098 202.549 195.414 200.131 197.48C195.844 201.103 191.253 204.351 186.411 207.19C177.219 212.556 167.643 217.236 157.761 221.19C152.871 223.19 147.971 225.05 142.981 226.76C137.991 228.47 132.981 230.1 127.981 231.61C122.981 233.12 117.841 234.49 112.691 235.72C109.361 236.52 106.011 237.28 102.621 237.94C102.374 238.017 102.108 238.005 101.87 237.904C101.632 237.804 101.437 237.622 101.321 237.391C101.204 237.161 101.173 236.896 101.234 236.645C101.294 236.394 101.442 236.172 101.651 236.02Z" fill="url(#paint11_radial_862_12503)"/>
<path d="M380.511 121.229C377.671 122.996 374.817 124.729 371.951 126.429C367.551 129.079 363.121 131.649 358.731 134.229L345.511 141.869L332.511 149.509C323.891 154.599 315.371 159.739 307.571 165.149C303.865 167.676 300.334 170.449 297.001 173.449C296.013 174.366 295.081 175.341 294.211 176.369C293.882 176.643 293.616 176.984 293.431 177.369C293.251 177.754 293.158 178.174 293.161 178.599C293.159 179.015 293.244 179.428 293.411 179.809C293.62 180.261 293.932 180.658 294.321 180.969C295.162 181.961 296.063 182.899 297.021 183.779C300.35 186.782 303.881 189.552 307.591 192.069C315.401 197.479 323.921 202.609 332.531 207.709L345.531 215.319L358.711 222.969C363.111 225.549 367.541 228.119 371.931 230.779C374.811 232.486 377.677 234.226 380.531 235.999C380.796 236.122 381.001 236.346 381.102 236.621C381.202 236.896 381.189 237.199 381.066 237.464C380.942 237.729 380.719 237.935 380.444 238.035C380.169 238.135 379.866 238.122 379.601 237.999C376.201 237.349 372.841 236.589 369.491 235.789C364.341 234.559 359.261 233.169 354.201 231.689C351.671 230.939 349.201 230.139 346.651 229.349C344.101 228.559 341.651 227.689 339.171 226.839C334.191 225.119 329.264 223.259 324.391 221.259C314.506 217.311 304.929 212.632 295.741 207.259C290.91 204.407 286.333 201.145 282.061 197.509C279.651 195.434 277.462 193.115 275.531 190.589C275.271 190.249 275.021 189.849 274.761 189.479C274.491 189.1 274.244 188.706 274.021 188.299L273.301 187.039C273.071 186.579 272.851 186.099 272.641 185.629C271.624 183.436 271.098 181.047 271.098 178.629C271.098 176.211 271.624 173.823 272.641 171.629C272.861 171.149 273.071 170.629 273.301 170.209L274.021 168.949C274.261 168.519 274.511 168.149 274.771 167.769C275.031 167.389 275.281 167.009 275.531 166.659C277.466 164.133 279.661 161.817 282.081 159.749C286.366 156.124 290.956 152.875 295.801 150.039C304.992 144.673 314.569 139.993 324.451 136.039C329.331 134.039 334.241 132.179 339.231 130.469C344.221 128.759 349.231 127.129 354.231 125.619C359.231 124.109 364.391 122.719 369.511 121.509C372.851 120.709 376.201 119.949 379.591 119.289C379.838 119.221 380.101 119.242 380.334 119.349C380.567 119.456 380.755 119.641 380.865 119.873C380.975 120.105 381 120.368 380.935 120.616C380.87 120.864 380.72 121.081 380.511 121.229Z" fill="url(#paint12_radial_862_12503)"/>
<path d="M101.651 236.02C104.491 234.253 107.344 232.52 110.211 230.82C114.611 228.17 119.031 225.6 123.431 223.02L136.621 215.38L149.671 207.76C158.281 202.67 166.801 197.53 174.611 192.12C178.315 189.596 181.843 186.823 185.171 183.82C186.162 182.903 187.097 181.928 187.971 180.9C188.297 180.626 188.56 180.285 188.741 179.9V179.9C188.917 179.513 189.009 179.094 189.011 178.67C189.012 178.252 188.924 177.84 188.751 177.46C188.544 177.006 188.232 176.608 187.841 176.3C187.002 175.306 186.1 174.367 185.141 173.49C181.814 170.485 178.282 167.715 174.571 165.2C166.771 159.79 158.241 154.66 149.641 149.56L136.641 141.95L123.451 134.3C119.061 131.72 114.631 129.15 110.231 126.49C107.357 124.783 104.494 123.043 101.641 121.27C101.376 121.148 101.17 120.925 101.068 120.652C100.967 120.378 100.979 120.075 101.101 119.81C101.223 119.544 101.445 119.339 101.719 119.237C101.993 119.136 102.296 119.148 102.561 119.27C105.971 119.92 109.331 120.68 112.681 121.48C117.831 122.71 122.911 124.1 127.971 125.58C130.501 126.33 132.971 127.13 135.511 127.92C138.051 128.71 140.511 129.58 142.991 130.43C147.971 132.15 152.897 134.01 157.771 136.01C167.656 139.956 177.233 144.635 186.421 150.01C191.266 152.845 195.856 156.093 200.141 159.72C202.554 161.794 204.746 164.113 206.681 166.64C206.941 166.98 207.191 167.38 207.451 167.75C207.711 168.12 207.951 168.49 208.191 168.93L208.911 170.19C209.131 170.65 209.361 171.13 209.571 171.6C210.587 173.793 211.114 176.182 211.114 178.6C211.114 181.017 210.587 183.406 209.571 185.6C209.351 186.08 209.131 186.55 208.901 187.02L208.191 188.28C207.941 188.71 207.691 189.08 207.441 189.46C207.191 189.84 206.931 190.22 206.671 190.57C204.741 193.098 202.549 195.414 200.131 197.48C195.844 201.103 191.253 204.351 186.411 207.19C177.219 212.556 167.643 217.236 157.761 221.19C152.871 223.19 147.971 225.05 142.981 226.76C137.991 228.47 132.981 230.1 127.981 231.61C122.981 233.12 117.841 234.49 112.691 235.72C109.361 236.52 106.011 237.28 102.621 237.94C102.374 238.017 102.108 238.005 101.87 237.904C101.632 237.804 101.437 237.622 101.321 237.391C101.204 237.161 101.173 236.896 101.234 236.645C101.294 236.394 101.442 236.172 101.651 236.02Z" stroke="url(#paint13_linear_862_12503)" stroke-width="2" stroke-miterlimit="10"/>
<path d="M380.511 121.229C377.671 122.996 374.817 124.729 371.951 126.429C367.551 129.079 363.121 131.649 358.731 134.229L345.511 141.869L332.511 149.509C323.891 154.599 315.371 159.739 307.571 165.149C303.865 167.676 300.334 170.449 297.001 173.449C296.013 174.366 295.081 175.341 294.211 176.369C293.882 176.643 293.616 176.984 293.431 177.369V177.369C293.251 177.754 293.158 178.174 293.161 178.599C293.159 179.015 293.244 179.428 293.411 179.809C293.62 180.261 293.932 180.658 294.321 180.969C295.162 181.961 296.063 182.899 297.021 183.779C300.35 186.782 303.881 189.552 307.591 192.069C315.401 197.479 323.921 202.609 332.531 207.709L345.531 215.319L358.711 222.969C363.111 225.549 367.541 228.119 371.931 230.779C374.811 232.486 377.677 234.226 380.531 235.999C380.796 236.122 381.001 236.346 381.102 236.621C381.202 236.896 381.189 237.199 381.066 237.464C380.942 237.729 380.719 237.935 380.444 238.035C380.169 238.135 379.866 238.122 379.601 237.999C376.201 237.349 372.841 236.589 369.491 235.789C364.341 234.559 359.261 233.169 354.201 231.689C351.671 230.939 349.201 230.139 346.651 229.349C344.101 228.559 341.651 227.689 339.171 226.839C334.191 225.119 329.264 223.259 324.391 221.259C314.506 217.311 304.929 212.632 295.741 207.259C290.91 204.407 286.333 201.145 282.061 197.509C279.651 195.434 277.462 193.115 275.531 190.589C275.271 190.249 275.021 189.849 274.761 189.479C274.491 189.1 274.244 188.706 274.021 188.299L273.301 187.039C273.071 186.579 272.851 186.099 272.641 185.629C271.624 183.436 271.098 181.047 271.098 178.629C271.098 176.211 271.624 173.823 272.641 171.629C272.861 171.149 273.071 170.629 273.301 170.209L274.021 168.949C274.261 168.519 274.511 168.149 274.771 167.769C275.031 167.389 275.281 167.009 275.531 166.659C277.466 164.133 279.661 161.817 282.081 159.749C286.366 156.124 290.956 152.875 295.801 150.039C304.992 144.673 314.569 139.993 324.451 136.039C329.331 134.039 334.241 132.179 339.231 130.469C344.221 128.759 349.231 127.129 354.231 125.619C359.231 124.109 364.391 122.719 369.511 121.509C372.851 120.709 376.201 119.949 379.591 119.289C379.838 119.221 380.101 119.242 380.334 119.349C380.567 119.456 380.755 119.641 380.865 119.873C380.975 120.105 381 120.368 380.935 120.616C380.87 120.864 380.72 121.081 380.511 121.229Z" stroke="url(#paint14_linear_862_12503)" stroke-width="2" stroke-miterlimit="10"/>
<defs>
<filter id="filter0_f_862_12503" x="-26.8145" y="206.559" width="535.021" height="306.595" filterUnits="userSpaceOnUse" color-interpolation-filters="sRGB">
<feFlood flood-opacity="0" result="BackgroundImageFix"/>
<feBlend mode="normal" in="SourceGraphic" in2="BackgroundImageFix" result="shape"/>
<feGaussianBlur stdDeviation="12.5" result="effect1_foregroundBlur_862_12503"/>
</filter>
<filter id="filter1_f_862_12503" x="-41.8145" y="191.559" width="565.021" height="336.595" filterUnits="userSpaceOnUse" color-interpolation-filters="sRGB">
<feFlood flood-opacity="0" result="BackgroundImageFix"/>
<feBlend mode="normal" in="SourceGraphic" in2="BackgroundImageFix" result="shape"/>
<feGaussianBlur stdDeviation="20" result="effect1_foregroundBlur_862_12503"/>
</filter>
<filter id="filter2_f_862_12503" x="51.9492" y="244.486" width="378.48" height="176.076" filterUnits="userSpaceOnUse" color-interpolation-filters="sRGB">
<feFlood flood-opacity="0" result="BackgroundImageFix"/>
<feBlend mode="normal" in="SourceGraphic" in2="BackgroundImageFix" result="shape"/>
<feGaussianBlur stdDeviation="5" result="effect1_foregroundBlur_862_12503"/>
</filter>
<radialGradient id="paint0_radial_862_12503" cx="0" cy="0" r="1" gradientUnits="userSpaceOnUse" gradientTransform="translate(241 -4.53898e-06) rotate(90) scale(482)">
<stop stop-color="#FFDE43"/>
<stop offset="1" stop-color="#FFBC00"/>
</radialGradient>
<radialGradient id="paint1_radial_862_12503" cx="0" cy="0" r="1" gradientUnits="userSpaceOnUse" gradientTransform="translate(241 64.5) rotate(90) scale(417.5)">
<stop stop-color="white" stop-opacity="0.5"/>
<stop offset="0.782278"/>
</radialGradient>
<radialGradient id="paint2_radial_862_12503" cx="0" cy="0" r="1" gradientUnits="userSpaceOnUse" gradientTransform="translate(241 64.5) rotate(90) scale(417.5)">
<stop stop-color="white" stop-opacity="0.5"/>
<stop offset="0.782278"/>
</radialGradient>
<radialGradient id="paint3_radial_862_12503" cx="0" cy="0" r="1" gradientUnits="userSpaceOnUse" gradientTransform="translate(241 -52.5) rotate(90) scale(534.5 722.835)">
<stop offset="0.0922635" stop-color="white"/>
<stop offset="0.670207" stop-color="white" stop-opacity="0"/>
</radialGradient>
<linearGradient id="paint4_linear_862_12503" x1="81.8076" y1="355.767" x2="400.45" y2="355.767" gradientUnits="userSpaceOnUse">
<stop stop-color="#CCCCCC"/>
<stop offset="0.05" stop-color="#D5D5D5"/>
<stop offset="0.2" stop-color="#E9E9E9"/>
<stop offset="0.35" stop-color="#F6F6F6"/>
<stop offset="0.5" stop-color="#FAFAFA"/>
<stop offset="0.65" stop-color="#F6F6F6"/>
<stop offset="0.8" stop-color="#E9E9E9"/>
<stop offset="0.95" stop-color="#D5D5D5"/>
<stop offset="1" stop-color="#CCCCCC"/>
</linearGradient>
<linearGradient id="paint5_linear_862_12503" x1="66.8664" y1="295.554" x2="415.51" y2="295.554" gradientUnits="userSpaceOnUse">
<stop stop-color="#CCCCCC"/>
<stop offset="0.05" stop-color="#D5D5D5"/>
<stop offset="0.2" stop-color="#E9E9E9"/>
<stop offset="0.35" stop-color="#F6F6F6"/>
<stop offset="0.5" stop-color="#FAFAFA"/>
<stop offset="0.65" stop-color="#F6F6F6"/>
<stop offset="0.8" stop-color="#E9E9E9"/>
<stop offset="0.95" stop-color="#D5D5D5"/>
<stop offset="1" stop-color="#CCCCCC"/>
</linearGradient>
<radialGradient id="paint6_radial_862_12503" cx="0" cy="0" r="1" gradientUnits="userSpaceOnUse" gradientTransform="translate(241.19 318.791) scale(113.86 113.86)">
<stop stop-color="#401C02"/>
<stop offset="1" stop-color="#401C02"/>
</radialGradient>
<linearGradient id="paint7_linear_862_12503" x1="241.189" y1="409.617" x2="241.189" y2="256.85" gradientUnits="userSpaceOnUse">
<stop offset="0.265625" stop-color="#FFDE43"/>
<stop offset="1" stop-color="#F79D14"/>
</linearGradient>
<linearGradient id="paint8_linear_862_12503" x1="174103" y1="92638.1" x2="174103" y2="70149.2" gradientUnits="userSpaceOnUse">
<stop stop-color="#401C02"/>
<stop offset="1" stop-color="#401C02"/>
</linearGradient>
<linearGradient id="paint9_linear_862_12503" x1="174103" y1="92638.1" x2="174103" y2="70149.2" gradientUnits="userSpaceOnUse">
<stop stop-color="#401C02"/>
<stop offset="1" stop-color="#401C02"/>
</linearGradient>
<linearGradient id="paint10_linear_862_12503" x1="174103" y1="92639.1" x2="174103" y2="70150.2" gradientUnits="userSpaceOnUse">
<stop stop-color="#401C02"/>
<stop offset="1" stop-color="#401C02"/>
</linearGradient>
<radialGradient id="paint11_radial_862_12503" cx="0" cy="0" r="1" gradientUnits="userSpaceOnUse" gradientTransform="translate(155.981 178.54) scale(70.1841 59.5135)">
<stop stop-color="#743C1C"/>
<stop offset="1" stop-color="#401C02"/>
</radialGradient>
<radialGradient id="paint12_radial_862_12503" cx="0" cy="0" r="1" gradientUnits="userSpaceOnUse" gradientTransform="translate(326.057 178.636) scale(70.1567 59.5291)">
<stop stop-color="#743C1C"/>
<stop offset="1" stop-color="#401C02"/>
</radialGradient>
<linearGradient id="paint13_linear_862_12503" x1="156.057" y1="241.333" x2="156.057" y2="115.345" gradientUnits="userSpaceOnUse">
<stop stop-color="#FFDE43"/>
<stop offset="0.22" stop-color="#FED93F"/>
<stop offset="0.51" stop-color="#FCC934"/>
<stop offset="0.82" stop-color="#F9AF21"/>
<stop offset="1" stop-color="#F79D14"/>
</linearGradient>
<linearGradient id="paint14_linear_862_12503" x1="326.133" y1="241.446" x2="326.133" y2="115.425" gradientUnits="userSpaceOnUse">
<stop stop-color="#FFDE43"/>
<stop offset="0.22" stop-color="#FED93F"/>
<stop offset="0.51" stop-color="#FCC934"/>
<stop offset="0.82" stop-color="#F9AF21"/>
<stop offset="1" stop-color="#F79D14"/>
</linearGradient>
</defs>
</svg>
