<svg width="483" height="499" viewBox="0 0 483 499" fill="none" xmlns="http://www.w3.org/2000/svg">
<path d="M241.18 482.36C374.38 482.36 482.36 374.38 482.36 241.18C482.36 107.98 374.38 0 241.18 0C107.98 0 0 107.98 0 241.18C0 374.38 107.98 482.36 241.18 482.36Z" fill="url(#paint0_linear_862_12577)"/>
<g style="mix-blend-mode:soft-light">
<path d="M241.18 482.36C374.38 482.36 482.36 374.38 482.36 241.18C482.36 107.98 374.38 0 241.18 0C107.98 0 0 107.98 0 241.18C0 374.38 107.98 482.36 241.18 482.36Z" fill="url(#paint1_radial_862_12577)"/>
</g>
<g style="mix-blend-mode:soft-light">
<path d="M241.18 482.36C374.38 482.36 482.36 374.38 482.36 241.18C482.36 107.98 374.38 0 241.18 0C107.98 0 0 107.98 0 241.18C0 374.38 107.98 482.36 241.18 482.36Z" fill="url(#paint2_radial_862_12577)"/>
</g>
<g style="mix-blend-mode:overlay">
<path d="M241.18 482.36C374.38 482.36 482.36 374.38 482.36 241.18C482.36 107.98 374.38 0 241.18 0C107.98 0 0 107.98 0 241.18C0 374.38 107.98 482.36 241.18 482.36Z" fill="url(#paint3_radial_862_12577)" fill-opacity="0.7"/>
</g>
<mask id="mask0_862_12577" style="mask-type:alpha" maskUnits="userSpaceOnUse" x="0" y="0" width="483" height="483">
<path d="M241.18 482.36C374.38 482.36 482.36 374.38 482.36 241.18C482.36 107.98 374.38 0 241.18 0C107.98 0 0 107.98 0 241.18C0 374.38 107.98 482.36 241.18 482.36Z" fill="white"/>
</mask>
<g mask="url(#mask0_862_12577)">
<g filter="url(#filter0_f_862_12577)">
<path d="M-1.3759 234.299C-1.11402 230.872 0.0137008 230.529 0.342619 234.008C0.708055 237.874 -0.00231624 245.646 0.16871 250.335C0.621554 262.748 2.52441 273.541 4.48605 282.32C10.8075 310.612 19.5617 328.843 27.7268 344.288C54.5663 395.06 83.9667 420.77 112.648 440.147C154.689 468.549 197.072 477.584 239.49 479.5C240.56 479.548 240.738 486.518 239.686 487.425C237.788 489.061 235.436 487.437 233.494 487.369C227.915 487.174 222.335 486.791 216.756 486.211C200.213 484.492 183.67 480.991 167.162 475.358C122.275 460.044 73.8765 433.821 31.6092 359.962C28.9502 355.316 26.3124 350.424 23.7118 345.167C21.6321 340.963 19.5726 336.556 17.5493 331.843C10.8946 316.342 -4.61323 276.658 -1.3759 234.299ZM239.52 487.5C238.499 487.531 238.241 481.034 239.214 479.685C240.684 477.647 242.888 479.326 244.439 479.229C250.877 478.826 257.314 478.229 263.75 477.421C281.395 475.205 299.028 471.422 316.621 465.596C360.257 451.145 407.17 429.115 448.305 361.431C450.923 357.123 453.518 352.553 456.079 347.641C463.86 332.712 483.361 293.084 481.107 243.821C480.917 239.668 482.181 237.181 482.747 240.743C483.467 245.279 483.175 254.736 482.977 259.768C482.341 275.883 479.866 289.512 477.257 300.518C468.987 335.399 457.376 355.623 446.744 372.51C412.184 427.397 374.648 449.524 338.155 465.424C305.424 479.686 272.444 486.484 239.52 487.5Z" fill="#401C02"/>
</g>
<g filter="url(#filter1_f_862_12577)">
<path d="M-1.3759 234.299C-1.11402 230.872 0.0137008 230.529 0.342619 234.008C0.708055 237.874 -0.00231624 245.646 0.16871 250.335C0.621554 262.748 2.52441 273.541 4.48605 282.32C10.8075 310.612 19.5617 328.843 27.7268 344.288C54.5663 395.06 83.9667 420.77 112.648 440.147C154.689 468.549 197.072 477.584 239.49 479.5C240.56 479.548 240.738 486.518 239.686 487.425C237.788 489.061 235.436 487.437 233.494 487.369C227.915 487.174 222.335 486.791 216.756 486.211C200.213 484.492 183.67 480.991 167.162 475.358C122.275 460.044 73.8765 433.821 31.6092 359.962C28.9502 355.316 26.3124 350.424 23.7118 345.167C21.6321 340.963 19.5726 336.556 17.5493 331.843C10.8946 316.342 -4.61323 276.658 -1.3759 234.299ZM239.52 487.5C238.499 487.531 238.241 481.034 239.214 479.685C240.684 477.647 242.888 479.326 244.439 479.229C250.877 478.826 257.314 478.229 263.75 477.421C281.395 475.205 299.028 471.422 316.621 465.596C360.257 451.145 407.17 429.115 448.305 361.431C450.923 357.123 453.518 352.553 456.079 347.641C463.86 332.712 483.361 293.084 481.107 243.821C480.917 239.668 482.181 237.181 482.747 240.743C483.467 245.279 483.175 254.736 482.977 259.768C482.341 275.883 479.866 289.512 477.257 300.518C468.987 335.399 457.376 355.623 446.744 372.51C412.184 427.397 374.648 449.524 338.155 465.424C305.424 479.686 272.444 486.484 239.52 487.5Z" fill="#401C02"/>
</g>
</g>
<path d="M172.97 244.06C188.97 244.06 201.94 227.257 201.94 206.53C201.94 185.803 188.97 169 172.97 169C156.97 169 144 185.803 144 206.53C144 227.257 156.97 244.06 172.97 244.06Z" fill="url(#paint4_radial_862_12577)"/>
<path d="M172.97 244.06C188.97 244.06 201.94 227.257 201.94 206.53C201.94 185.803 188.97 169 172.97 169C156.97 169 144 185.803 144 206.53C144 227.257 156.97 244.06 172.97 244.06Z" stroke="url(#paint5_linear_862_12577)" stroke-width="2" stroke-miterlimit="10"/>
<path d="M310.329 244.06C326.329 244.06 339.299 227.257 339.299 206.53C339.299 185.803 326.329 169 310.329 169C294.33 169 281.359 185.803 281.359 206.53C281.359 227.257 294.33 244.06 310.329 244.06Z" fill="url(#paint6_radial_862_12577)"/>
<path d="M310.329 244.06C326.329 244.06 339.299 227.257 339.299 206.53C339.299 185.803 326.329 169 310.329 169C294.33 169 281.359 185.803 281.359 206.53C281.359 227.257 294.33 244.06 310.329 244.06Z" stroke="url(#paint7_linear_862_12577)" stroke-width="2" stroke-miterlimit="10"/>
<path d="M339.3 295.75H143.6C119.52 295.75 100 315.27 100 339.35C100 363.43 119.52 382.95 143.6 382.95H339.3C363.38 382.95 382.9 363.43 382.9 339.35C382.9 315.27 363.38 295.75 339.3 295.75Z" stroke="url(#paint8_linear_862_12577)" stroke-width="15" stroke-miterlimit="10"/>
<path d="M339.3 295.75H143.6C119.52 295.75 100 315.27 100 339.35C100 363.43 119.52 382.95 143.6 382.95H339.3C363.38 382.95 382.9 363.43 382.9 339.35C382.9 315.27 363.38 295.75 339.3 295.75Z" stroke="#013366" stroke-width="10" stroke-miterlimit="10"/>
<mask id="mask1_862_12577" style="mask-type:alpha" maskUnits="userSpaceOnUse" x="100" y="295" width="283" height="88">
<path d="M339.3 295.75H143.6C119.52 295.75 100 315.27 100 339.35C100 363.43 119.52 382.95 143.6 382.95H339.3C363.38 382.95 382.9 363.43 382.9 339.35C382.9 315.27 363.38 295.75 339.3 295.75Z" fill="url(#paint9_linear_862_12577)"/>
</mask>
<g mask="url(#mask1_862_12577)">
<path d="M143.06 294.93H93.8701V339.35H143.06V294.93Z" fill="url(#paint10_linear_862_12577)"/>
<path d="M143.06 339.35H93.8701V383.77H143.06V339.35Z" fill="url(#paint11_linear_862_12577)"/>
<path d="M192.26 294.93H143.07V339.35H192.26V294.93Z" fill="url(#paint12_linear_862_12577)"/>
<path d="M192.26 339.35H143.07V383.77H192.26V339.35Z" fill="url(#paint13_linear_862_12577)"/>
<path d="M241.45 294.93H192.26V339.35H241.45V294.93Z" fill="url(#paint14_linear_862_12577)"/>
<path d="M241.45 339.35H192.26V383.77H241.45V339.35Z" fill="url(#paint15_linear_862_12577)"/>
<path d="M290.64 294.93H241.45V339.35H290.64V294.93Z" fill="url(#paint16_linear_862_12577)"/>
<path d="M290.64 339.35H241.45V383.77H290.64V339.35Z" fill="url(#paint17_linear_862_12577)"/>
<path d="M339.83 294.93H290.64V339.35H339.83V294.93Z" fill="url(#paint18_linear_862_12577)"/>
<path d="M339.83 339.35H290.64V383.77H339.83V339.35Z" fill="url(#paint19_linear_862_12577)"/>
<path d="M389.02 294.93H339.83V339.35H389.02V294.93Z" fill="url(#paint20_linear_862_12577)"/>
<path d="M389.02 339.35H339.83V383.77H389.02V339.35Z" fill="url(#paint21_linear_862_12577)"/>
</g>
<mask id="mask2_862_12577" style="mask-type:alpha" maskUnits="userSpaceOnUse" x="95" y="290" width="293" height="98">
<path d="M339.3 295.75H143.6C119.52 295.75 100 315.27 100 339.35C100 363.43 119.52 382.95 143.6 382.95H339.3C363.38 382.95 382.9 363.43 382.9 339.35C382.9 315.27 363.38 295.75 339.3 295.75Z" fill="#013366" stroke="url(#paint22_linear_862_12577)" stroke-width="10" stroke-miterlimit="10"/>
</mask>
<g mask="url(#mask2_862_12577)">
<path fill-rule="evenodd" clip-rule="evenodd" d="M391.03 256.2V391.17H387.03V256.2H391.03Z" fill="#013366"/>
<path fill-rule="evenodd" clip-rule="evenodd" d="M341.83 256.2V391.17H337.83V256.2H341.83Z" fill="#013366"/>
<path fill-rule="evenodd" clip-rule="evenodd" d="M292.64 256.2V391.17H288.64V256.2H292.64Z" fill="#013366"/>
<path fill-rule="evenodd" clip-rule="evenodd" d="M243.45 256.2V391.17H239.45V256.2H243.45Z" fill="#013366"/>
<path fill-rule="evenodd" clip-rule="evenodd" d="M194.26 256.2V391.17H190.26V256.2H194.26Z" fill="#013366"/>
<path fill-rule="evenodd" clip-rule="evenodd" d="M145.07 256.2V391.17H141.07V256.2H145.07Z" fill="#013366"/>
<path fill-rule="evenodd" clip-rule="evenodd" d="M95.8701 256.2V391.17H91.8701V256.2H95.8701Z" fill="#013366"/>
<path fill-rule="evenodd" clip-rule="evenodd" d="M19.5898 337.35H452.35V341.35H19.5898V337.35Z" fill="#013366"/>
</g>
<mask id="mask3_862_12577" style="mask-type:alpha" maskUnits="userSpaceOnUse" x="100" y="295" width="283" height="88">
<path d="M339.3 295.75H143.6C119.52 295.75 100 315.27 100 339.35C100 363.43 119.52 382.95 143.6 382.95H339.3C363.38 382.95 382.9 363.43 382.9 339.35C382.9 315.27 363.38 295.75 339.3 295.75Z" fill="url(#paint23_linear_862_12577)"/>
</mask>
<g mask="url(#mask3_862_12577)">
<g filter="url(#filter2_f_862_12577)">
<path d="M339.3 295.75H143.6C119.52 295.75 100 315.27 100 339.35C100 363.43 119.52 382.95 143.6 382.95H339.3C363.38 382.95 382.9 363.43 382.9 339.35C382.9 315.27 363.38 295.75 339.3 295.75Z" stroke="#002A55" stroke-width="5" stroke-miterlimit="10"/>
</g>
</g>
<path d="M448.83 101.931C448.9 98.2561 448.237 94.6044 446.879 91.1891C445.521 87.7739 443.496 84.6636 440.922 82.0402C438.348 79.4168 435.277 77.3328 431.888 75.9102C428.499 74.4876 424.86 73.7549 421.185 73.7549C417.51 73.7549 413.871 74.4876 410.483 75.9102C407.094 77.3328 404.023 79.4168 401.449 82.0402C398.875 84.6636 396.849 87.7739 395.492 91.1891C394.134 94.6044 393.47 98.2561 393.54 101.931C393.54 117.191 421.18 229.501 421.18 229.501C421.18 229.501 448.83 117.191 448.83 101.931Z" fill="url(#paint24_linear_862_12577)"/>
<mask id="mask4_862_12577" style="mask-type:alpha" maskUnits="userSpaceOnUse" x="393" y="73" width="56" height="157">
<path d="M448.83 101.931C448.9 98.2561 448.237 94.6044 446.879 91.1891C445.521 87.7739 443.496 84.6636 440.922 82.0402C438.348 79.4168 435.277 77.3328 431.888 75.9102C428.499 74.4876 424.86 73.7549 421.185 73.7549C417.51 73.7549 413.871 74.4876 410.483 75.9102C407.094 77.3328 404.023 79.4168 401.449 82.0402C398.875 84.6636 396.849 87.7739 395.492 91.1891C394.134 94.6044 393.47 98.2561 393.54 101.931C393.54 117.191 421.18 229.501 421.18 229.501C421.18 229.501 448.83 117.191 448.83 101.931Z" fill="url(#paint25_linear_862_12577)"/>
</mask>
<g mask="url(#mask4_862_12577)">
<g filter="url(#filter3_f_862_12577)">
<path d="M433.998 107.025C434.031 105.327 433.719 103.639 433.08 102.06C432.442 100.481 431.49 99.043 430.279 97.8302C429.069 96.6174 427.625 95.654 426.032 94.9964C424.439 94.3387 422.728 94 421 94C419.272 94 417.561 94.3387 415.968 94.9964C414.375 95.654 412.931 96.6174 411.721 97.8302C410.51 99.043 409.558 100.481 408.92 102.06C408.281 103.639 407.969 105.327 408.002 107.025C408.002 114.08 420.998 166 420.998 166C420.998 166 433.998 114.08 433.998 107.025Z" fill="white"/>
</g>
</g>
<path d="M97.3727 82.8145C97.4194 80.3608 96.9764 77.9223 96.0697 75.6418C95.1629 73.3612 93.8106 71.2843 92.0918 69.5325C90.373 67.7807 88.3222 66.3892 86.0593 65.4392C83.7964 64.4893 81.3668 64 78.9127 64C76.4585 64 74.0289 64.4893 71.766 65.4392C69.5031 66.3892 67.4523 67.7807 65.7335 69.5325C64.0147 71.2843 62.6624 73.3612 61.7556 75.6418C60.8489 77.9223 60.4059 80.3608 60.4526 82.8145C60.4526 93.0045 78.9093 168 78.9093 168C78.9093 168 97.3727 93.0045 97.3727 82.8145Z" fill="url(#paint26_linear_862_12577)"/>
<mask id="mask5_862_12577" style="mask-type:alpha" maskUnits="userSpaceOnUse" x="60" y="64" width="38" height="104">
<path d="M97.3727 82.8145C97.4194 80.3608 96.9764 77.9223 96.0697 75.6418C95.1629 73.3612 93.8106 71.2843 92.0918 69.5325C90.373 67.7807 88.3222 66.3892 86.0593 65.4392C83.7964 64.4893 81.3668 64 78.9127 64C76.4585 64 74.0289 64.4893 71.766 65.4392C69.5031 66.3892 67.4523 67.7807 65.7335 69.5325C64.0147 71.2843 62.6624 73.3612 61.7556 75.6418C60.8489 77.9223 60.4059 80.3608 60.4526 82.8145C60.4526 93.0045 78.9093 168 78.9093 168C78.9093 168 97.3727 93.0045 97.3727 82.8145Z" fill="url(#paint27_linear_862_12577)"/>
</mask>
<g mask="url(#mask5_862_12577)">
<g filter="url(#filter4_f_862_12577)">
<path d="M87.4675 86.2165C87.4894 85.0821 87.2811 83.9549 86.8548 82.9006C86.4285 81.8463 85.7927 80.8862 84.9846 80.0763C84.1765 79.2665 83.2123 78.6232 82.1483 78.184C81.0844 77.7449 79.9421 77.5187 78.7882 77.5187C77.6344 77.5187 76.4921 77.7449 75.4281 78.184C74.3642 78.6232 73.4 79.2665 72.5919 80.0763C71.7838 80.8862 71.148 81.8463 70.7216 82.9006C70.2953 83.9549 70.087 85.0821 70.109 86.2165C70.109 90.9272 78.7867 125.597 78.7867 125.597C78.7867 125.597 87.4675 90.9272 87.4675 86.2165Z" fill="white"/>
</g>
</g>
<path d="M127.643 382.216C127.671 380.754 127.407 379.3 126.866 377.94C126.326 376.581 125.519 375.343 124.495 374.298C123.47 373.254 122.247 372.424 120.898 371.858C119.549 371.292 118.101 371 116.638 371C115.175 371 113.726 371.292 112.377 371.858C111.028 372.424 109.806 373.254 108.781 374.298C107.756 375.343 106.95 376.581 106.41 377.94C105.869 379.3 105.605 380.754 105.633 382.216C105.633 388.291 116.636 433 116.636 433C116.636 433 127.643 388.291 127.643 382.216Z" fill="url(#paint28_linear_862_12577)"/>
<mask id="mask6_862_12577" style="mask-type:alpha" maskUnits="userSpaceOnUse" x="105" y="371" width="23" height="62">
<path d="M127.643 382.216C127.671 380.754 127.407 379.3 126.866 377.94C126.326 376.581 125.519 375.343 124.495 374.298C123.47 373.254 122.247 372.424 120.898 371.858C119.549 371.292 118.101 371 116.638 371C115.175 371 113.726 371.292 112.377 371.858C111.028 372.424 109.806 373.254 108.781 374.298C107.756 375.343 106.95 376.581 106.41 377.94C105.869 379.3 105.605 380.754 105.633 382.216C105.633 388.291 116.636 433 116.636 433C116.636 433 127.643 388.291 127.643 382.216Z" fill="url(#paint29_linear_862_12577)"/>
</mask>
<g mask="url(#mask6_862_12577)">
<g filter="url(#filter5_f_862_12577)">
<path d="M121.737 384.244C121.751 383.568 121.626 382.896 121.372 382.267C121.118 381.639 120.739 381.067 120.257 380.584C119.775 380.101 119.201 379.717 118.566 379.456C117.932 379.194 117.251 379.059 116.563 379.059C115.875 379.059 115.194 379.194 114.56 379.456C113.926 379.717 113.351 380.101 112.869 380.584C112.388 381.067 112.009 381.639 111.754 382.267C111.5 382.896 111.376 383.568 111.389 384.244C111.389 387.053 116.562 407.721 116.562 407.721C116.562 407.721 121.737 387.053 121.737 384.244Z" fill="white"/>
</g>
</g>
<path d="M86.295 101.931C86.3649 98.2561 85.7015 94.6044 84.3436 91.1891C82.9857 87.7739 80.9605 84.6636 78.3865 82.0402C75.8125 79.4168 72.7413 77.3328 69.3525 75.9102C65.9637 74.4876 62.3253 73.7549 58.65 73.7549C54.9747 73.7549 51.3363 74.4876 47.9475 75.9102C44.5587 77.3328 41.4875 79.4168 38.9135 82.0402C36.3395 84.6636 34.3143 87.7739 32.9564 91.1891C31.5985 94.6044 30.9351 98.2561 31.005 101.931C31.005 117.191 58.645 229.501 58.645 229.501C58.645 229.501 86.295 117.191 86.295 101.931Z" fill="url(#paint30_linear_862_12577)"/>
<mask id="mask7_862_12577" style="mask-type:alpha" maskUnits="userSpaceOnUse" x="31" y="73" width="56" height="157">
<path d="M86.295 101.931C86.3649 98.2561 85.7015 94.6044 84.3436 91.1891C82.9857 87.7739 80.9605 84.6636 78.3865 82.0402C75.8125 79.4168 72.7413 77.3328 69.3525 75.9102C65.9637 74.4876 62.3253 73.7549 58.65 73.7549C54.9747 73.7549 51.3363 74.4876 47.9475 75.9102C44.5587 77.3328 41.4875 79.4168 38.9135 82.0402C36.3395 84.6636 34.3143 87.7739 32.9564 91.1891C31.5985 94.6044 30.9351 98.2561 31.005 101.931C31.005 117.191 58.645 229.501 58.645 229.501C58.645 229.501 86.295 117.191 86.295 101.931Z" fill="url(#paint31_linear_862_12577)"/>
</mask>
<g mask="url(#mask7_862_12577)">
<g filter="url(#filter6_f_862_12577)">
<path d="M71.4625 107.025C71.4954 105.327 71.1834 103.639 70.545 102.06C69.9066 100.481 68.9544 99.043 67.7442 97.8302C66.534 96.6174 65.0901 95.654 63.4968 94.9964C61.9035 94.3387 60.1928 94 58.4649 94C56.7369 94 55.0262 94.3387 53.4329 94.9964C51.8396 95.654 50.3957 96.6174 49.1855 97.8302C47.9753 99.043 47.0231 100.481 46.3847 102.06C45.7462 103.639 45.4343 105.327 45.4672 107.025C45.4672 114.08 58.4625 166 58.4625 166C58.4625 166 71.4625 114.08 71.4625 107.025Z" fill="white"/>
</g>
</g>
<path d="M46.2709 132.03C46.3231 129.287 45.8279 126.562 44.8144 124.013C43.8009 121.463 42.2894 119.142 40.3682 117.184C38.4471 115.226 36.1548 113.67 33.6255 112.609C31.0961 111.547 28.3805 111 25.6373 111C22.8942 111 20.1785 111.547 17.6492 112.609C15.1199 113.67 12.8276 115.226 10.9064 117.184C8.98526 119.142 7.47373 121.463 6.46022 124.013C5.44672 126.562 4.95157 129.287 5.00373 132.03C5.00373 143.42 25.6336 227.245 25.6336 227.245C25.6336 227.245 46.2709 143.42 46.2709 132.03Z" fill="url(#paint32_linear_862_12577)"/>
<mask id="mask8_862_12577" style="mask-type:alpha" maskUnits="userSpaceOnUse" x="5" y="111" width="42" height="117">
<path d="M46.2709 132.03C46.3231 129.287 45.8279 126.562 44.8144 124.013C43.8009 121.463 42.2894 119.142 40.3682 117.184C38.4471 115.226 36.1548 113.67 33.6255 112.609C31.0961 111.547 28.3805 111 25.6373 111C22.8942 111 20.1785 111.547 17.6492 112.609C15.1199 113.67 12.8276 115.226 10.9064 117.184C8.98526 119.142 7.47373 121.463 6.46022 124.013C5.44672 126.562 4.95157 129.287 5.00373 132.03C5.00373 143.42 25.6336 227.245 25.6336 227.245C25.6336 227.245 46.2709 143.42 46.2709 132.03Z" fill="url(#paint33_linear_862_12577)"/>
</mask>
<g mask="url(#mask8_862_12577)">
<g filter="url(#filter7_f_862_12577)">
<path d="M35.2002 135.832C35.2247 134.564 34.9919 133.304 34.5154 132.126C34.0389 130.948 33.3282 129.874 32.425 128.969C31.5217 128.064 30.444 127.345 29.2548 126.854C28.0656 126.363 26.7888 126.11 25.4991 126.11C24.2093 126.11 22.9325 126.363 21.7433 126.854C20.5541 127.345 19.4764 128.064 18.5731 128.969C17.6699 129.874 16.9592 130.948 16.4827 132.126C16.0062 133.304 15.7734 134.564 15.7979 135.832C15.7979 141.098 25.4973 179.85 25.4973 179.85C25.4973 179.85 35.2002 141.098 35.2002 135.832Z" fill="white"/>
</g>
</g>
<path d="M181.017 397.91C181.062 395.574 180.64 393.253 179.777 391.082C178.914 388.911 177.627 386.934 175.99 385.267C174.354 383.599 172.402 382.274 170.248 381.37C168.094 380.466 165.781 380 163.445 380C161.109 380 158.796 380.466 156.642 381.37C154.488 382.274 152.536 383.599 150.899 385.267C149.263 386.934 147.976 388.911 147.113 391.082C146.25 393.253 145.828 395.574 145.872 397.91C145.872 407.61 163.442 479 163.442 479C163.442 479 181.017 407.61 181.017 397.91Z" fill="url(#paint34_linear_862_12577)"/>
<mask id="mask9_862_12577" style="mask-type:alpha" maskUnits="userSpaceOnUse" x="145" y="380" width="37" height="99">
<path d="M181.017 397.91C181.062 395.574 180.64 393.253 179.777 391.082C178.914 388.911 177.627 386.934 175.99 385.267C174.354 383.599 172.402 382.274 170.248 381.37C168.094 380.466 165.781 380 163.445 380C161.109 380 158.796 380.466 156.642 381.37C154.488 382.274 152.536 383.599 150.899 385.267C149.263 386.934 147.976 388.911 147.113 391.082C146.25 393.253 145.828 395.574 145.872 397.91C145.872 407.61 163.442 479 163.442 479C163.442 479 181.017 407.61 181.017 397.91Z" fill="url(#paint35_linear_862_12577)"/>
</mask>
<g mask="url(#mask9_862_12577)">
<g filter="url(#filter8_f_862_12577)">
<path d="M171.588 401.148C171.609 400.068 171.411 398.995 171.005 397.992C170.599 396.988 169.994 396.074 169.225 395.303C168.456 394.532 167.538 393.92 166.525 393.502C165.512 393.084 164.425 392.868 163.326 392.868C162.228 392.868 161.141 393.084 160.128 393.502C159.115 393.92 158.197 394.532 157.428 395.303C156.659 396.074 156.054 396.988 155.648 397.992C155.242 398.995 155.044 400.068 155.064 401.148C155.064 405.632 163.325 438.635 163.325 438.635C163.325 438.635 171.588 405.632 171.588 401.148Z" fill="white"/>
</g>
</g>
<path d="M373.703 398.917C373.751 396.385 373.294 393.869 372.359 391.516C371.423 389.163 370.028 387.02 368.254 385.212C366.481 383.405 364.365 381.969 362.03 380.989C359.695 380.009 357.188 379.504 354.656 379.504C352.124 379.504 349.617 380.009 347.282 380.989C344.947 381.969 342.831 383.405 341.058 385.212C339.284 387.02 337.889 389.163 336.953 391.516C336.018 393.869 335.561 396.385 335.609 398.917C335.609 409.431 354.653 486.812 354.653 486.812C354.653 486.812 373.703 409.431 373.703 398.917Z" fill="url(#paint36_linear_862_12577)"/>
<mask id="mask10_862_12577" style="mask-type:alpha" maskUnits="userSpaceOnUse" x="335" y="379" width="39" height="108">
<path d="M373.703 398.917C373.751 396.385 373.294 393.869 372.359 391.516C371.423 389.163 370.028 387.02 368.254 385.212C366.481 383.405 364.365 381.969 362.03 380.989C359.695 380.009 357.188 379.504 354.656 379.504C352.124 379.504 349.617 380.009 347.282 380.989C344.947 381.969 342.831 383.405 341.058 385.212C339.284 387.02 337.889 389.163 336.953 391.516C336.018 393.869 335.561 396.385 335.609 398.917C335.609 409.431 354.653 486.812 354.653 486.812C354.653 486.812 373.703 409.431 373.703 398.917Z" fill="url(#paint37_linear_862_12577)"/>
</mask>
<g mask="url(#mask10_862_12577)">
<g filter="url(#filter9_f_862_12577)">
<path d="M363.484 402.426C363.506 401.256 363.291 400.092 362.852 399.005C362.412 397.917 361.756 396.926 360.922 396.091C360.088 395.255 359.093 394.591 357.995 394.138C356.898 393.685 355.719 393.452 354.528 393.452C353.338 393.452 352.159 393.685 351.061 394.138C349.964 394.591 348.969 395.255 348.135 396.091C347.301 396.926 346.645 397.917 346.205 399.005C345.765 400.092 345.551 401.256 345.573 402.426C345.573 407.287 354.527 443.059 354.527 443.059C354.527 443.059 363.484 407.287 363.484 402.426Z" fill="white"/>
</g>
</g>
<path d="M158.271 395.03C158.323 392.287 157.828 389.562 156.814 387.013C155.801 384.463 154.289 382.142 152.368 380.184C150.447 378.226 148.155 376.67 145.625 375.609C143.096 374.547 140.381 374 137.637 374C134.894 374 132.179 374.547 129.649 375.609C127.12 376.67 124.828 378.226 122.906 380.184C120.985 382.142 119.474 384.463 118.46 387.013C117.447 389.562 116.952 392.287 117.004 395.03C117.004 406.42 137.634 490.245 137.634 490.245C137.634 490.245 158.271 406.42 158.271 395.03Z" fill="url(#paint38_linear_862_12577)"/>
<mask id="mask11_862_12577" style="mask-type:alpha" maskUnits="userSpaceOnUse" x="117" y="374" width="42" height="117">
<path d="M158.271 395.03C158.323 392.287 157.828 389.562 156.814 387.013C155.801 384.463 154.289 382.142 152.368 380.184C150.447 378.226 148.155 376.67 145.625 375.609C143.096 374.547 140.381 374 137.637 374C134.894 374 132.179 374.547 129.649 375.609C127.12 376.67 124.828 378.226 122.906 380.184C120.985 382.142 119.474 384.463 118.46 387.013C117.447 389.562 116.952 392.287 117.004 395.03C117.004 406.42 137.634 490.245 137.634 490.245C137.634 490.245 158.271 406.42 158.271 395.03Z" fill="url(#paint39_linear_862_12577)"/>
</mask>
<g mask="url(#mask11_862_12577)">
<g filter="url(#filter10_f_862_12577)">
<path d="M147.2 398.832C147.225 397.564 146.992 396.304 146.515 395.126C146.039 393.948 145.328 392.874 144.425 391.969C143.522 391.064 142.444 390.345 141.255 389.854C140.066 389.363 138.789 389.11 137.499 389.11C136.209 389.11 134.933 389.363 133.743 389.854C132.554 390.345 131.476 391.064 130.573 391.969C129.67 392.874 128.959 393.948 128.483 395.126C128.006 396.304 127.773 397.564 127.798 398.832C127.798 404.098 137.497 442.85 137.497 442.85C137.497 442.85 147.2 404.098 147.2 398.832Z" fill="white"/>
</g>
</g>
<path d="M349.048 395.795C349.104 392.822 348.568 389.867 347.469 387.104C346.37 384.342 344.732 381.825 342.65 379.703C340.567 377.581 338.083 375.895 335.341 374.744C332.6 373.593 329.656 373 326.683 373C323.709 373 320.766 373.593 318.024 374.744C315.283 375.895 312.798 377.581 310.716 379.703C308.633 381.825 306.995 384.342 305.896 387.104C304.798 389.867 304.261 392.822 304.318 395.795C304.318 408.14 326.679 499 326.679 499C326.679 499 349.048 408.14 349.048 395.795Z" fill="url(#paint40_linear_862_12577)"/>
<mask id="mask12_862_12577" style="mask-type:alpha" maskUnits="userSpaceOnUse" x="304" y="373" width="46" height="126">
<path d="M349.048 395.795C349.104 392.822 348.568 389.867 347.469 387.104C346.37 384.342 344.732 381.825 342.65 379.703C340.567 377.581 338.083 375.895 335.341 374.744C332.6 373.593 329.656 373 326.683 373C323.709 373 320.766 373.593 318.024 374.744C315.283 375.895 312.798 377.581 310.716 379.703C308.633 381.825 306.995 384.342 305.896 387.104C304.798 389.867 304.261 392.822 304.318 395.795C304.318 408.14 326.679 499 326.679 499C326.679 499 349.048 408.14 349.048 395.795Z" fill="url(#paint41_linear_862_12577)"/>
</mask>
<g mask="url(#mask12_862_12577)">
<g filter="url(#filter11_f_862_12577)">
<path d="M337.048 399.916C337.075 398.542 336.822 397.176 336.306 395.899C335.789 394.622 335.019 393.458 334.04 392.477C333.061 391.496 331.893 390.717 330.604 390.185C329.315 389.652 327.931 389.378 326.533 389.378C325.135 389.378 323.751 389.652 322.462 390.185C321.173 390.717 320.005 391.496 319.026 392.477C318.047 393.458 317.276 394.622 316.76 395.899C316.243 397.176 315.991 398.542 316.018 399.916C316.018 405.623 326.531 447.627 326.531 447.627C326.531 447.627 337.048 405.623 337.048 399.916Z" fill="white"/>
</g>
</g>
<defs>
<filter id="filter0_f_862_12577" x="-26.8149" y="206.558" width="535.022" height="306.595" filterUnits="userSpaceOnUse" color-interpolation-filters="sRGB">
<feFlood flood-opacity="0" result="BackgroundImageFix"/>
<feBlend mode="normal" in="SourceGraphic" in2="BackgroundImageFix" result="shape"/>
<feGaussianBlur stdDeviation="12.5" result="effect1_foregroundBlur_862_12577"/>
</filter>
<filter id="filter1_f_862_12577" x="-41.8149" y="191.558" width="565.022" height="336.595" filterUnits="userSpaceOnUse" color-interpolation-filters="sRGB">
<feFlood flood-opacity="0" result="BackgroundImageFix"/>
<feBlend mode="normal" in="SourceGraphic" in2="BackgroundImageFix" result="shape"/>
<feGaussianBlur stdDeviation="20" result="effect1_foregroundBlur_862_12577"/>
</filter>
<filter id="filter2_f_862_12577" x="89.5" y="285.25" width="303.9" height="108.2" filterUnits="userSpaceOnUse" color-interpolation-filters="sRGB">
<feFlood flood-opacity="0" result="BackgroundImageFix"/>
<feBlend mode="normal" in="SourceGraphic" in2="BackgroundImageFix" result="shape"/>
<feGaussianBlur stdDeviation="4" result="effect1_foregroundBlur_862_12577"/>
</filter>
<filter id="filter3_f_862_12577" x="388" y="74" width="66" height="112" filterUnits="userSpaceOnUse" color-interpolation-filters="sRGB">
<feFlood flood-opacity="0" result="BackgroundImageFix"/>
<feBlend mode="normal" in="SourceGraphic" in2="BackgroundImageFix" result="shape"/>
<feGaussianBlur stdDeviation="10" result="effect1_foregroundBlur_862_12577"/>
</filter>
<filter id="filter4_f_862_12577" x="50.1074" y="57.5187" width="57.3616" height="88.0784" filterUnits="userSpaceOnUse" color-interpolation-filters="sRGB">
<feFlood flood-opacity="0" result="BackgroundImageFix"/>
<feBlend mode="normal" in="SourceGraphic" in2="BackgroundImageFix" result="shape"/>
<feGaussianBlur stdDeviation="10" result="effect1_foregroundBlur_862_12577"/>
</filter>
<filter id="filter5_f_862_12577" x="91.3882" y="359.059" width="50.3501" height="68.6621" filterUnits="userSpaceOnUse" color-interpolation-filters="sRGB">
<feFlood flood-opacity="0" result="BackgroundImageFix"/>
<feBlend mode="normal" in="SourceGraphic" in2="BackgroundImageFix" result="shape"/>
<feGaussianBlur stdDeviation="10" result="effect1_foregroundBlur_862_12577"/>
</filter>
<filter id="filter6_f_862_12577" x="25.4648" y="74" width="66" height="112" filterUnits="userSpaceOnUse" color-interpolation-filters="sRGB">
<feFlood flood-opacity="0" result="BackgroundImageFix"/>
<feBlend mode="normal" in="SourceGraphic" in2="BackgroundImageFix" result="shape"/>
<feGaussianBlur stdDeviation="10" result="effect1_foregroundBlur_862_12577"/>
</filter>
<filter id="filter7_f_862_12577" x="-4.20386" y="106.11" width="59.4058" height="93.7391" filterUnits="userSpaceOnUse" color-interpolation-filters="sRGB">
<feFlood flood-opacity="0" result="BackgroundImageFix"/>
<feBlend mode="normal" in="SourceGraphic" in2="BackgroundImageFix" result="shape"/>
<feGaussianBlur stdDeviation="10" result="effect1_foregroundBlur_862_12577"/>
</filter>
<filter id="filter8_f_862_12577" x="135.063" y="372.868" width="56.5269" height="85.7668" filterUnits="userSpaceOnUse" color-interpolation-filters="sRGB">
<feFlood flood-opacity="0" result="BackgroundImageFix"/>
<feBlend mode="normal" in="SourceGraphic" in2="BackgroundImageFix" result="shape"/>
<feGaussianBlur stdDeviation="10" result="effect1_foregroundBlur_862_12577"/>
</filter>
<filter id="filter9_f_862_12577" x="325.572" y="373.452" width="57.9138" height="89.6074" filterUnits="userSpaceOnUse" color-interpolation-filters="sRGB">
<feFlood flood-opacity="0" result="BackgroundImageFix"/>
<feBlend mode="normal" in="SourceGraphic" in2="BackgroundImageFix" result="shape"/>
<feGaussianBlur stdDeviation="10" result="effect1_foregroundBlur_862_12577"/>
</filter>
<filter id="filter10_f_862_12577" x="107.796" y="369.11" width="59.4058" height="93.7391" filterUnits="userSpaceOnUse" color-interpolation-filters="sRGB">
<feFlood flood-opacity="0" result="BackgroundImageFix"/>
<feBlend mode="normal" in="SourceGraphic" in2="BackgroundImageFix" result="shape"/>
<feGaussianBlur stdDeviation="10" result="effect1_foregroundBlur_862_12577"/>
</filter>
<filter id="filter11_f_862_12577" x="296.016" y="369.378" width="61.0342" height="98.2488" filterUnits="userSpaceOnUse" color-interpolation-filters="sRGB">
<feFlood flood-opacity="0" result="BackgroundImageFix"/>
<feBlend mode="normal" in="SourceGraphic" in2="BackgroundImageFix" result="shape"/>
<feGaussianBlur stdDeviation="10" result="effect1_foregroundBlur_862_12577"/>
</filter>
<linearGradient id="paint0_linear_862_12577" x1="120.56" y1="450.08" x2="361.79" y2="32.27" gradientUnits="userSpaceOnUse">
<stop stop-color="#0067FF"/>
<stop offset="0.3" stop-color="#008BFF"/>
<stop offset="0.97" stop-color="#00E7FF"/>
<stop offset="1" stop-color="#00EBFF"/>
</linearGradient>
<radialGradient id="paint1_radial_862_12577" cx="0" cy="0" r="1" gradientUnits="userSpaceOnUse" gradientTransform="translate(241 64.5) rotate(90) scale(417.5)">
<stop stop-color="white" stop-opacity="0.5"/>
<stop offset="0.782278"/>
</radialGradient>
<radialGradient id="paint2_radial_862_12577" cx="0" cy="0" r="1" gradientUnits="userSpaceOnUse" gradientTransform="translate(241 64.5) rotate(90) scale(417.5)">
<stop stop-color="white" stop-opacity="0.5"/>
<stop offset="0.782278"/>
</radialGradient>
<radialGradient id="paint3_radial_862_12577" cx="0" cy="0" r="1" gradientUnits="userSpaceOnUse" gradientTransform="translate(241 -52.5) rotate(90) scale(534.5 722.835)">
<stop offset="0.0922635" stop-color="white"/>
<stop offset="0.670207" stop-color="white" stop-opacity="0"/>
</radialGradient>
<radialGradient id="paint4_radial_862_12577" cx="0" cy="0" r="1" gradientUnits="userSpaceOnUse" gradientTransform="translate(172.992 209.384) scale(36.9297 37.848)">
<stop stop-color="#014A94"/>
<stop offset="1" stop-color="#013366"/>
</radialGradient>
<linearGradient id="paint5_linear_862_12577" x1="172.97" y1="169" x2="172.97" y2="244.06" gradientUnits="userSpaceOnUse">
<stop stop-color="#01CDFF"/>
<stop offset="1" stop-color="#007AFF"/>
</linearGradient>
<radialGradient id="paint6_radial_862_12577" cx="0" cy="0" r="1" gradientUnits="userSpaceOnUse" gradientTransform="translate(310.352 209.384) scale(36.9297 37.848)">
<stop stop-color="#014A94"/>
<stop offset="1" stop-color="#013366"/>
</radialGradient>
<linearGradient id="paint7_linear_862_12577" x1="310.329" y1="169" x2="310.329" y2="244.06" gradientUnits="userSpaceOnUse">
<stop stop-color="#01CDFF"/>
<stop offset="1" stop-color="#007AFF"/>
</linearGradient>
<linearGradient id="paint8_linear_862_12577" x1="241.45" y1="295.75" x2="241.45" y2="382.95" gradientUnits="userSpaceOnUse">
<stop stop-color="#01CDFF"/>
<stop offset="1" stop-color="#007AFF"/>
</linearGradient>
<linearGradient id="paint9_linear_862_12577" x1="368295" y1="29951.4" x2="450409" y2="29951.4" gradientUnits="userSpaceOnUse">
<stop stop-color="#401C02"/>
<stop offset="1" stop-color="#401C02"/>
</linearGradient>
<linearGradient id="paint10_linear_862_12577" x1="93.8513" y1="317.148" x2="143.06" y2="317.148" gradientUnits="userSpaceOnUse">
<stop stop-color="#CCCCCC"/>
<stop offset="0.05" stop-color="#D5D5D5"/>
<stop offset="0.2" stop-color="#E9E9E9"/>
<stop offset="0.35" stop-color="#F6F6F6"/>
<stop offset="0.5" stop-color="#FAFAFA"/>
<stop offset="0.65" stop-color="#F6F6F6"/>
<stop offset="0.8" stop-color="#E9E9E9"/>
<stop offset="0.95" stop-color="#D5D5D5"/>
<stop offset="1" stop-color="#CCCCCC"/>
</linearGradient>
<linearGradient id="paint11_linear_862_12577" x1="93.8513" y1="361.568" x2="143.06" y2="361.568" gradientUnits="userSpaceOnUse">
<stop stop-color="#CCCCCC"/>
<stop offset="0.05" stop-color="#D5D5D5"/>
<stop offset="0.2" stop-color="#E9E9E9"/>
<stop offset="0.35" stop-color="#F6F6F6"/>
<stop offset="0.5" stop-color="#FAFAFA"/>
<stop offset="0.65" stop-color="#F6F6F6"/>
<stop offset="0.8" stop-color="#E9E9E9"/>
<stop offset="0.95" stop-color="#D5D5D5"/>
<stop offset="1" stop-color="#CCCCCC"/>
</linearGradient>
<linearGradient id="paint12_linear_862_12577" x1="143.051" y1="317.148" x2="192.26" y2="317.148" gradientUnits="userSpaceOnUse">
<stop stop-color="#CCCCCC"/>
<stop offset="0.05" stop-color="#D5D5D5"/>
<stop offset="0.2" stop-color="#E9E9E9"/>
<stop offset="0.35" stop-color="#F6F6F6"/>
<stop offset="0.5" stop-color="#FAFAFA"/>
<stop offset="0.65" stop-color="#F6F6F6"/>
<stop offset="0.8" stop-color="#E9E9E9"/>
<stop offset="0.95" stop-color="#D5D5D5"/>
<stop offset="1" stop-color="#CCCCCC"/>
</linearGradient>
<linearGradient id="paint13_linear_862_12577" x1="143.051" y1="361.568" x2="192.26" y2="361.568" gradientUnits="userSpaceOnUse">
<stop stop-color="#CCCCCC"/>
<stop offset="0.05" stop-color="#D5D5D5"/>
<stop offset="0.2" stop-color="#E9E9E9"/>
<stop offset="0.35" stop-color="#F6F6F6"/>
<stop offset="0.5" stop-color="#FAFAFA"/>
<stop offset="0.65" stop-color="#F6F6F6"/>
<stop offset="0.8" stop-color="#E9E9E9"/>
<stop offset="0.95" stop-color="#D5D5D5"/>
<stop offset="1" stop-color="#CCCCCC"/>
</linearGradient>
<linearGradient id="paint14_linear_862_12577" x1="192.241" y1="317.148" x2="241.45" y2="317.148" gradientUnits="userSpaceOnUse">
<stop stop-color="#CCCCCC"/>
<stop offset="0.05" stop-color="#D5D5D5"/>
<stop offset="0.2" stop-color="#E9E9E9"/>
<stop offset="0.35" stop-color="#F6F6F6"/>
<stop offset="0.5" stop-color="#FAFAFA"/>
<stop offset="0.65" stop-color="#F6F6F6"/>
<stop offset="0.8" stop-color="#E9E9E9"/>
<stop offset="0.95" stop-color="#D5D5D5"/>
<stop offset="1" stop-color="#CCCCCC"/>
</linearGradient>
<linearGradient id="paint15_linear_862_12577" x1="192.241" y1="361.568" x2="241.45" y2="361.568" gradientUnits="userSpaceOnUse">
<stop stop-color="#CCCCCC"/>
<stop offset="0.05" stop-color="#D5D5D5"/>
<stop offset="0.2" stop-color="#E9E9E9"/>
<stop offset="0.35" stop-color="#F6F6F6"/>
<stop offset="0.5" stop-color="#FAFAFA"/>
<stop offset="0.65" stop-color="#F6F6F6"/>
<stop offset="0.8" stop-color="#E9E9E9"/>
<stop offset="0.95" stop-color="#D5D5D5"/>
<stop offset="1" stop-color="#CCCCCC"/>
</linearGradient>
<linearGradient id="paint16_linear_862_12577" x1="241.431" y1="317.148" x2="290.64" y2="317.148" gradientUnits="userSpaceOnUse">
<stop stop-color="#CCCCCC"/>
<stop offset="0.05" stop-color="#D5D5D5"/>
<stop offset="0.2" stop-color="#E9E9E9"/>
<stop offset="0.35" stop-color="#F6F6F6"/>
<stop offset="0.5" stop-color="#FAFAFA"/>
<stop offset="0.65" stop-color="#F6F6F6"/>
<stop offset="0.8" stop-color="#E9E9E9"/>
<stop offset="0.95" stop-color="#D5D5D5"/>
<stop offset="1" stop-color="#CCCCCC"/>
</linearGradient>
<linearGradient id="paint17_linear_862_12577" x1="241.431" y1="361.568" x2="290.64" y2="361.568" gradientUnits="userSpaceOnUse">
<stop stop-color="#CCCCCC"/>
<stop offset="0.05" stop-color="#D5D5D5"/>
<stop offset="0.2" stop-color="#E9E9E9"/>
<stop offset="0.35" stop-color="#F6F6F6"/>
<stop offset="0.5" stop-color="#FAFAFA"/>
<stop offset="0.65" stop-color="#F6F6F6"/>
<stop offset="0.8" stop-color="#E9E9E9"/>
<stop offset="0.95" stop-color="#D5D5D5"/>
<stop offset="1" stop-color="#CCCCCC"/>
</linearGradient>
<linearGradient id="paint18_linear_862_12577" x1="290.621" y1="317.148" x2="339.83" y2="317.148" gradientUnits="userSpaceOnUse">
<stop stop-color="#CCCCCC"/>
<stop offset="0.05" stop-color="#D5D5D5"/>
<stop offset="0.2" stop-color="#E9E9E9"/>
<stop offset="0.35" stop-color="#F6F6F6"/>
<stop offset="0.5" stop-color="#FAFAFA"/>
<stop offset="0.65" stop-color="#F6F6F6"/>
<stop offset="0.8" stop-color="#E9E9E9"/>
<stop offset="0.95" stop-color="#D5D5D5"/>
<stop offset="1" stop-color="#CCCCCC"/>
</linearGradient>
<linearGradient id="paint19_linear_862_12577" x1="290.621" y1="361.568" x2="339.83" y2="361.568" gradientUnits="userSpaceOnUse">
<stop stop-color="#CCCCCC"/>
<stop offset="0.05" stop-color="#D5D5D5"/>
<stop offset="0.2" stop-color="#E9E9E9"/>
<stop offset="0.35" stop-color="#F6F6F6"/>
<stop offset="0.5" stop-color="#FAFAFA"/>
<stop offset="0.65" stop-color="#F6F6F6"/>
<stop offset="0.8" stop-color="#E9E9E9"/>
<stop offset="0.95" stop-color="#D5D5D5"/>
<stop offset="1" stop-color="#CCCCCC"/>
</linearGradient>
<linearGradient id="paint20_linear_862_12577" x1="339.811" y1="317.148" x2="389.02" y2="317.148" gradientUnits="userSpaceOnUse">
<stop stop-color="#CCCCCC"/>
<stop offset="0.05" stop-color="#D5D5D5"/>
<stop offset="0.2" stop-color="#E9E9E9"/>
<stop offset="0.35" stop-color="#F6F6F6"/>
<stop offset="0.5" stop-color="#FAFAFA"/>
<stop offset="0.65" stop-color="#F6F6F6"/>
<stop offset="0.8" stop-color="#E9E9E9"/>
<stop offset="0.95" stop-color="#D5D5D5"/>
<stop offset="1" stop-color="#CCCCCC"/>
</linearGradient>
<linearGradient id="paint21_linear_862_12577" x1="339.811" y1="361.568" x2="389.02" y2="361.568" gradientUnits="userSpaceOnUse">
<stop stop-color="#CCCCCC"/>
<stop offset="0.05" stop-color="#D5D5D5"/>
<stop offset="0.2" stop-color="#E9E9E9"/>
<stop offset="0.35" stop-color="#F6F6F6"/>
<stop offset="0.5" stop-color="#FAFAFA"/>
<stop offset="0.65" stop-color="#F6F6F6"/>
<stop offset="0.8" stop-color="#E9E9E9"/>
<stop offset="0.95" stop-color="#D5D5D5"/>
<stop offset="1" stop-color="#CCCCCC"/>
</linearGradient>
<linearGradient id="paint22_linear_862_12577" x1="-nan" y1="-nan" x2="-nan" y2="-nan" gradientUnits="userSpaceOnUse">
<stop stop-color="#401C02"/>
<stop offset="1" stop-color="#401C02"/>
</linearGradient>
<linearGradient id="paint23_linear_862_12577" x1="368295" y1="29951.4" x2="450409" y2="29951.4" gradientUnits="userSpaceOnUse">
<stop stop-color="#401C02"/>
<stop offset="1" stop-color="#401C02"/>
</linearGradient>
<linearGradient id="paint24_linear_862_12577" x1="421.185" y1="73.7549" x2="421.185" y2="229.501" gradientUnits="userSpaceOnUse">
<stop stop-color="#59CFFF"/>
<stop offset="1" stop-color="#A1E4FF"/>
</linearGradient>
<linearGradient id="paint25_linear_862_12577" x1="421.185" y1="73.7549" x2="421.185" y2="229.501" gradientUnits="userSpaceOnUse">
<stop stop-color="#59CFFF"/>
<stop offset="1" stop-color="#A1E4FF"/>
</linearGradient>
<linearGradient id="paint26_linear_862_12577" x1="78.9126" y1="64" x2="78.9126" y2="168" gradientUnits="userSpaceOnUse">
<stop stop-color="#59CFFF"/>
<stop offset="1" stop-color="#A1E4FF"/>
</linearGradient>
<linearGradient id="paint27_linear_862_12577" x1="78.9126" y1="64" x2="78.9126" y2="168" gradientUnits="userSpaceOnUse">
<stop stop-color="#59CFFF"/>
<stop offset="1" stop-color="#A1E4FF"/>
</linearGradient>
<linearGradient id="paint28_linear_862_12577" x1="116.638" y1="371" x2="116.638" y2="433" gradientUnits="userSpaceOnUse">
<stop stop-color="#59CFFF"/>
<stop offset="1" stop-color="#A1E4FF"/>
</linearGradient>
<linearGradient id="paint29_linear_862_12577" x1="116.638" y1="371" x2="116.638" y2="433" gradientUnits="userSpaceOnUse">
<stop stop-color="#59CFFF"/>
<stop offset="1" stop-color="#A1E4FF"/>
</linearGradient>
<linearGradient id="paint30_linear_862_12577" x1="58.65" y1="73.7549" x2="58.65" y2="229.501" gradientUnits="userSpaceOnUse">
<stop stop-color="#59CFFF"/>
<stop offset="1" stop-color="#A1E4FF"/>
</linearGradient>
<linearGradient id="paint31_linear_862_12577" x1="58.65" y1="73.7549" x2="58.65" y2="229.501" gradientUnits="userSpaceOnUse">
<stop stop-color="#59CFFF"/>
<stop offset="1" stop-color="#A1E4FF"/>
</linearGradient>
<linearGradient id="paint32_linear_862_12577" x1="25.6373" y1="111" x2="25.6373" y2="227.245" gradientUnits="userSpaceOnUse">
<stop stop-color="#59CFFF"/>
<stop offset="1" stop-color="#A1E4FF"/>
</linearGradient>
<linearGradient id="paint33_linear_862_12577" x1="25.6373" y1="111" x2="25.6373" y2="227.245" gradientUnits="userSpaceOnUse">
<stop stop-color="#59CFFF"/>
<stop offset="1" stop-color="#A1E4FF"/>
</linearGradient>
<linearGradient id="paint34_linear_862_12577" x1="163.445" y1="380" x2="163.445" y2="479" gradientUnits="userSpaceOnUse">
<stop stop-color="#59CFFF"/>
<stop offset="1" stop-color="#A1E4FF"/>
</linearGradient>
<linearGradient id="paint35_linear_862_12577" x1="163.445" y1="380" x2="163.445" y2="479" gradientUnits="userSpaceOnUse">
<stop stop-color="#59CFFF"/>
<stop offset="1" stop-color="#A1E4FF"/>
</linearGradient>
<linearGradient id="paint36_linear_862_12577" x1="354.656" y1="379.504" x2="354.656" y2="486.812" gradientUnits="userSpaceOnUse">
<stop stop-color="#59CFFF"/>
<stop offset="1" stop-color="#A1E4FF"/>
</linearGradient>
<linearGradient id="paint37_linear_862_12577" x1="354.656" y1="379.504" x2="354.656" y2="486.812" gradientUnits="userSpaceOnUse">
<stop stop-color="#59CFFF"/>
<stop offset="1" stop-color="#A1E4FF"/>
</linearGradient>
<linearGradient id="paint38_linear_862_12577" x1="137.637" y1="374" x2="137.637" y2="490.245" gradientUnits="userSpaceOnUse">
<stop stop-color="#59CFFF"/>
<stop offset="1" stop-color="#A1E4FF"/>
</linearGradient>
<linearGradient id="paint39_linear_862_12577" x1="137.637" y1="374" x2="137.637" y2="490.245" gradientUnits="userSpaceOnUse">
<stop stop-color="#59CFFF"/>
<stop offset="1" stop-color="#A1E4FF"/>
</linearGradient>
<linearGradient id="paint40_linear_862_12577" x1="326.683" y1="373" x2="326.683" y2="499" gradientUnits="userSpaceOnUse">
<stop stop-color="#59CFFF"/>
<stop offset="1" stop-color="#A1E4FF"/>
</linearGradient>
<linearGradient id="paint41_linear_862_12577" x1="326.683" y1="373" x2="326.683" y2="499" gradientUnits="userSpaceOnUse">
<stop stop-color="#59CFFF"/>
<stop offset="1" stop-color="#A1E4FF"/>
</linearGradient>
</defs>
</svg>
