<svg width="483" height="483" viewBox="0 0 483 483" fill="none" xmlns="http://www.w3.org/2000/svg">
<path d="M241.18 482.36C374.38 482.36 482.36 374.38 482.36 241.18C482.36 107.98 374.38 0 241.18 0C107.98 0 0 107.98 0 241.18C0 374.38 107.98 482.36 241.18 482.36Z" fill="url(#paint0_radial_862_12574)"/>
<g style="mix-blend-mode:soft-light">
<path d="M241.18 482.36C374.38 482.36 482.36 374.38 482.36 241.18C482.36 107.98 374.38 0 241.18 0C107.98 0 0 107.98 0 241.18C0 374.38 107.98 482.36 241.18 482.36Z" fill="url(#paint1_radial_862_12574)"/>
</g>
<g style="mix-blend-mode:soft-light">
<path d="M241.18 482.36C374.38 482.36 482.36 374.38 482.36 241.18C482.36 107.98 374.38 0 241.18 0C107.98 0 0 107.98 0 241.18C0 374.38 107.98 482.36 241.18 482.36Z" fill="url(#paint2_radial_862_12574)"/>
</g>
<g style="mix-blend-mode:overlay">
<path d="M241.18 482.36C374.38 482.36 482.36 374.38 482.36 241.18C482.36 107.98 374.38 0 241.18 0C107.98 0 0 107.98 0 241.18C0 374.38 107.98 482.36 241.18 482.36Z" fill="url(#paint3_radial_862_12574)" fill-opacity="0.7"/>
</g>
<mask id="mask0_862_12574" style="mask-type:alpha" maskUnits="userSpaceOnUse" x="0" y="0" width="483" height="483">
<path d="M241.18 482.36C374.38 482.36 482.36 374.38 482.36 241.18C482.36 107.98 374.38 0 241.18 0C107.98 0 0 107.98 0 241.18C0 374.38 107.98 482.36 241.18 482.36Z" fill="white"/>
</mask>
<g mask="url(#mask0_862_12574)">
<g filter="url(#filter0_f_862_12574)">
<path d="M-1.3759 234.299C-1.11402 230.872 0.0137008 230.529 0.342619 234.008C0.708055 237.874 -0.00231624 245.646 0.16871 250.335C0.621554 262.748 2.52441 273.541 4.48605 282.32C10.8075 310.612 19.5617 328.843 27.7268 344.288C54.5663 395.06 83.9667 420.77 112.648 440.147C154.689 468.549 197.072 477.584 239.49 479.5C240.56 479.548 240.738 486.518 239.686 487.425C237.788 489.061 235.436 487.437 233.494 487.369C227.915 487.174 222.335 486.791 216.756 486.211C200.213 484.492 183.67 480.991 167.162 475.358C122.275 460.044 73.8765 433.821 31.6092 359.962C28.9502 355.316 26.3124 350.424 23.7118 345.167C21.6321 340.963 19.5726 336.556 17.5493 331.843C10.8946 316.342 -4.61323 276.658 -1.3759 234.299ZM239.52 487.5C238.499 487.531 238.241 481.034 239.214 479.685C240.684 477.647 242.888 479.326 244.439 479.229C250.877 478.826 257.314 478.229 263.75 477.421C281.395 475.205 299.028 471.422 316.621 465.596C360.257 451.145 407.17 429.115 448.305 361.431C450.923 357.123 453.518 352.553 456.079 347.641C463.86 332.712 483.361 293.084 481.107 243.821C480.917 239.668 482.181 237.181 482.747 240.743C483.467 245.279 483.175 254.736 482.977 259.768C482.341 275.883 479.866 289.512 477.257 300.518C468.987 335.399 457.376 355.623 446.744 372.51C412.184 427.397 374.648 449.524 338.155 465.424C305.424 479.686 272.444 486.484 239.52 487.5Z" fill="#401C02"/>
</g>
<g filter="url(#filter1_f_862_12574)">
<path d="M-1.3759 234.299C-1.11402 230.872 0.0137008 230.529 0.342619 234.008C0.708055 237.874 -0.00231624 245.646 0.16871 250.335C0.621554 262.748 2.52441 273.541 4.48605 282.32C10.8075 310.612 19.5617 328.843 27.7268 344.288C54.5663 395.06 83.9667 420.77 112.648 440.147C154.689 468.549 197.072 477.584 239.49 479.5C240.56 479.548 240.738 486.518 239.686 487.425C237.788 489.061 235.436 487.437 233.494 487.369C227.915 487.174 222.335 486.791 216.756 486.211C200.213 484.492 183.67 480.991 167.162 475.358C122.275 460.044 73.8765 433.821 31.6092 359.962C28.9502 355.316 26.3124 350.424 23.7118 345.167C21.6321 340.963 19.5726 336.556 17.5493 331.843C10.8946 316.342 -4.61323 276.658 -1.3759 234.299ZM239.52 487.5C238.499 487.531 238.241 481.034 239.214 479.685C240.684 477.647 242.888 479.326 244.439 479.229C250.877 478.826 257.314 478.229 263.75 477.421C281.395 475.205 299.028 471.422 316.621 465.596C360.257 451.145 407.17 429.115 448.305 361.431C450.923 357.123 453.518 352.553 456.079 347.641C463.86 332.712 483.361 293.084 481.107 243.821C480.917 239.668 482.181 237.181 482.747 240.743C483.467 245.279 483.175 254.736 482.977 259.768C482.341 275.883 479.866 289.512 477.257 300.518C468.987 335.399 457.376 355.623 446.744 372.51C412.184 427.397 374.648 449.524 338.155 465.424C305.424 479.686 272.444 486.484 239.52 487.5Z" fill="#401C02"/>
</g>
</g>
<path d="M112.482 287.66C126.482 278.31 142.662 268.47 156.902 259.4C169.342 251.1 182.682 243.57 192.332 232.54C194.982 229.84 191.662 227.16 189.732 225.09C166.972 204.72 137.602 190.35 112.452 172.86C109.032 167.32 134.302 176.98 136.802 177.22C160.582 185.3 184.282 194.5 203.562 211.36C234.332 238.84 186.692 263.05 164.362 272.87C147.952 280.113 130.87 285.724 113.362 289.62C113.113 289.684 112.849 289.658 112.617 289.547C112.386 289.435 112.201 289.245 112.096 289.011C111.99 288.776 111.971 288.512 112.042 288.265C112.113 288.018 112.268 287.804 112.482 287.66Z" fill="url(#paint4_radial_862_12574)"/>
<path d="M370.451 172.86C356.451 182.21 340.271 192.06 326.031 201.13C313.581 209.43 300.251 216.96 290.601 227.98C287.951 230.68 291.271 233.36 293.191 235.44C315.961 255.8 345.331 270.17 370.481 287.66C373.891 293.21 348.631 283.54 346.131 283.31C322.351 275.23 298.681 266.03 279.371 249.16C248.601 221.69 296.241 197.47 318.571 187.66C334.981 180.418 352.063 174.808 369.571 170.91C369.821 170.837 370.09 170.856 370.326 170.965C370.563 171.074 370.753 171.264 370.86 171.502C370.967 171.74 370.985 172.008 370.91 172.257C370.835 172.507 370.672 172.721 370.451 172.86Z" fill="url(#paint5_radial_862_12574)"/>
<path d="M112.482 287.66C126.482 278.31 142.662 268.47 156.902 259.4C169.342 251.1 182.682 243.57 192.332 232.54C194.982 229.84 191.662 227.16 189.732 225.09C166.972 204.72 137.602 190.35 112.452 172.86C109.032 167.32 134.302 176.98 136.802 177.22C160.582 185.3 184.282 194.5 203.562 211.36C234.332 238.84 186.692 263.05 164.362 272.87C147.952 280.113 130.87 285.724 113.362 289.62C113.113 289.684 112.849 289.658 112.617 289.547C112.386 289.435 112.201 289.245 112.096 289.011C111.99 288.776 111.971 288.512 112.042 288.265C112.113 288.018 112.268 287.804 112.482 287.66V287.66Z" stroke="url(#paint6_linear_862_12574)" stroke-width="1.92" stroke-miterlimit="10"/>
<path d="M370.451 172.86C356.451 182.21 340.271 192.06 326.031 201.13C313.581 209.43 300.251 216.96 290.601 227.98C287.951 230.68 291.271 233.36 293.191 235.44C315.961 255.8 345.331 270.17 370.481 287.66C373.891 293.21 348.631 283.54 346.131 283.31C322.351 275.23 298.681 266.03 279.371 249.16C248.601 221.69 296.241 197.47 318.571 187.66C334.981 180.418 352.063 174.808 369.571 170.91C369.821 170.837 370.09 170.856 370.326 170.965C370.563 171.074 370.753 171.264 370.86 171.502C370.967 171.74 370.985 172.008 370.91 172.257C370.835 172.507 370.672 172.721 370.451 172.86V172.86Z" stroke="url(#paint7_linear_862_12574)" stroke-width="1.92" stroke-miterlimit="10"/>
<path d="M131.004 403.38L103.464 375.83C102.527 374.892 102 373.621 102 372.295C102 370.969 102.527 369.698 103.464 368.76L110.534 361.69C111.472 360.753 112.743 360.226 114.069 360.226C115.395 360.226 116.666 360.753 117.604 361.69L131.004 375.09C131.942 376.027 133.213 376.554 134.539 376.554C135.865 376.554 137.136 376.027 138.074 375.09L185.244 327.93C186.182 326.993 187.453 326.466 188.779 326.466C190.105 326.466 191.376 326.993 192.314 327.93L238.634 374.24C239.572 375.177 240.843 375.704 242.169 375.704C243.495 375.704 244.766 375.177 245.704 374.24L292.864 327.08C293.802 326.143 295.073 325.616 296.399 325.616C297.725 325.616 298.996 326.143 299.934 327.08L346.254 373.4C347.192 374.337 348.463 374.864 349.789 374.864C351.115 374.864 352.386 374.337 353.324 373.4L365.034 361.69C365.972 360.753 367.243 360.226 368.569 360.226C369.895 360.226 371.166 360.753 372.104 361.69L379.174 368.76C380.111 369.698 380.638 370.969 380.638 372.295C380.638 373.621 380.111 374.892 379.174 375.83L353.324 401.68C352.386 402.617 351.115 403.144 349.789 403.144C348.463 403.144 347.192 402.617 346.254 401.68L299.934 355.36C298.996 354.423 297.725 353.896 296.399 353.896C295.073 353.896 293.802 354.423 292.864 355.36L245.704 402.53C244.766 403.467 243.495 403.994 242.169 403.994C240.843 403.994 239.572 403.467 238.634 402.53L192.314 356.21C191.376 355.273 190.105 354.746 188.779 354.746C187.453 354.746 186.182 355.273 185.244 356.21L138.074 403.38C137.136 404.317 135.865 404.844 134.539 404.844C133.213 404.844 131.942 404.317 131.004 403.38Z" fill="url(#paint8_radial_862_12574)"/>
<path d="M131.004 403.38L103.464 375.83C102.527 374.892 102 373.621 102 372.295C102 370.969 102.527 369.698 103.464 368.76L110.534 361.69C111.472 360.753 112.743 360.226 114.069 360.226C115.395 360.226 116.666 360.753 117.604 361.69L131.004 375.09C131.942 376.027 133.213 376.554 134.539 376.554C135.865 376.554 137.136 376.027 138.074 375.09L185.244 327.93C186.182 326.993 187.453 326.466 188.779 326.466C190.105 326.466 191.376 326.993 192.314 327.93L238.634 374.24C239.572 375.177 240.843 375.704 242.169 375.704C243.495 375.704 244.766 375.177 245.704 374.24L292.864 327.08C293.802 326.143 295.073 325.616 296.399 325.616C297.725 325.616 298.996 326.143 299.934 327.08L346.254 373.4C347.192 374.337 348.463 374.864 349.789 374.864C351.115 374.864 352.386 374.337 353.324 373.4L365.034 361.69C365.972 360.753 367.243 360.226 368.569 360.226C369.895 360.226 371.166 360.753 372.104 361.69L379.174 368.76C380.111 369.698 380.638 370.969 380.638 372.295C380.638 373.621 380.111 374.892 379.174 375.83L353.324 401.68C352.386 402.617 351.115 403.144 349.789 403.144C348.463 403.144 347.192 402.617 346.254 401.68L299.934 355.36C298.996 354.423 297.725 353.896 296.399 353.896C295.073 353.896 293.802 354.423 292.864 355.36L245.704 402.53C244.766 403.467 243.495 403.994 242.169 403.994C240.843 403.994 239.572 403.467 238.634 402.53L192.314 356.21C191.376 355.273 190.105 354.746 188.779 354.746C187.453 354.746 186.182 355.273 185.244 356.21L138.074 403.38C137.136 404.317 135.865 404.844 134.539 404.844C133.213 404.844 131.942 404.317 131.004 403.38V403.38Z" stroke="url(#paint9_linear_862_12574)" stroke-width="2" stroke-miterlimit="10"/>
<defs>
<filter id="filter0_f_862_12574" x="-26.8149" y="206.558" width="535.022" height="306.595" filterUnits="userSpaceOnUse" color-interpolation-filters="sRGB">
<feFlood flood-opacity="0" result="BackgroundImageFix"/>
<feBlend mode="normal" in="SourceGraphic" in2="BackgroundImageFix" result="shape"/>
<feGaussianBlur stdDeviation="12.5" result="effect1_foregroundBlur_862_12574"/>
</filter>
<filter id="filter1_f_862_12574" x="-41.8149" y="191.558" width="565.022" height="336.595" filterUnits="userSpaceOnUse" color-interpolation-filters="sRGB">
<feFlood flood-opacity="0" result="BackgroundImageFix"/>
<feBlend mode="normal" in="SourceGraphic" in2="BackgroundImageFix" result="shape"/>
<feGaussianBlur stdDeviation="20" result="effect1_foregroundBlur_862_12574"/>
</filter>
<radialGradient id="paint0_radial_862_12574" cx="0" cy="0" r="1" gradientUnits="userSpaceOnUse" gradientTransform="translate(241 -4.53898e-06) rotate(90) scale(482)">
<stop stop-color="#FFDE43"/>
<stop offset="1" stop-color="#FFBC00"/>
</radialGradient>
<radialGradient id="paint1_radial_862_12574" cx="0" cy="0" r="1" gradientUnits="userSpaceOnUse" gradientTransform="translate(241 64.5) rotate(90) scale(417.5)">
<stop stop-color="white" stop-opacity="0.5"/>
<stop offset="0.782278"/>
</radialGradient>
<radialGradient id="paint2_radial_862_12574" cx="0" cy="0" r="1" gradientUnits="userSpaceOnUse" gradientTransform="translate(241 64.5) rotate(90) scale(417.5)">
<stop stop-color="white" stop-opacity="0.5"/>
<stop offset="0.782278"/>
</radialGradient>
<radialGradient id="paint3_radial_862_12574" cx="0" cy="0" r="1" gradientUnits="userSpaceOnUse" gradientTransform="translate(241 -52.5) rotate(90) scale(534.5 722.835)">
<stop offset="0.0922635" stop-color="white"/>
<stop offset="0.670207" stop-color="white" stop-opacity="0"/>
</radialGradient>
<radialGradient id="paint4_radial_862_12574" cx="0" cy="0" r="1" gradientUnits="userSpaceOnUse" gradientTransform="translate(162.735 230.362) scale(64.765 59.3558)">
<stop stop-color="#743C1C"/>
<stop offset="1" stop-color="#401C02"/>
</radialGradient>
<radialGradient id="paint5_radial_862_12574" cx="0" cy="0" r="1" gradientUnits="userSpaceOnUse" gradientTransform="translate(320.068 230.082) scale(64.7795 59.3576)">
<stop stop-color="#743C1C"/>
<stop offset="1" stop-color="#401C02"/>
</radialGradient>
<linearGradient id="paint6_linear_862_12574" x1="162.806" y1="292.989" x2="162.806" y2="167.335" gradientUnits="userSpaceOnUse">
<stop stop-color="#FFDE43"/>
<stop offset="0.22" stop-color="#FED93F"/>
<stop offset="0.51" stop-color="#FCC934"/>
<stop offset="0.82" stop-color="#F9AF21"/>
<stop offset="1" stop-color="#F79D14"/>
</linearGradient>
<linearGradient id="paint7_linear_862_12574" x1="320.138" y1="292.71" x2="320.138" y2="167.053" gradientUnits="userSpaceOnUse">
<stop stop-color="#FFDE43"/>
<stop offset="0.22" stop-color="#FED93F"/>
<stop offset="0.51" stop-color="#FCC934"/>
<stop offset="0.82" stop-color="#F9AF21"/>
<stop offset="1" stop-color="#F79D14"/>
</linearGradient>
<radialGradient id="paint8_radial_862_12574" cx="0" cy="0" r="1" gradientUnits="userSpaceOnUse" gradientTransform="translate(241.319 365.07) scale(105.161 80.0245)">
<stop stop-color="#743C1C"/>
<stop offset="1" stop-color="#401C02"/>
</radialGradient>
<linearGradient id="paint9_linear_862_12574" x1="241.319" y1="407.073" x2="241.319" y2="323.067" gradientUnits="userSpaceOnUse">
<stop offset="0.265625" stop-color="#FFDE43"/>
<stop offset="1" stop-color="#F79D14"/>
</linearGradient>
</defs>
</svg>
