<svg width="483" height="483" viewBox="0 0 483 483" fill="none" xmlns="http://www.w3.org/2000/svg">
<path d="M241.18 482.36C374.38 482.36 482.36 374.38 482.36 241.18C482.36 107.98 374.38 0 241.18 0C107.98 0 0 107.98 0 241.18C0 374.38 107.98 482.36 241.18 482.36Z" fill="url(#paint0_radial_862_12458)"/>
<g style="mix-blend-mode:soft-light">
<path d="M241.18 482.36C374.38 482.36 482.36 374.38 482.36 241.18C482.36 107.98 374.38 0 241.18 0C107.98 0 0 107.98 0 241.18C0 374.38 107.98 482.36 241.18 482.36Z" fill="url(#paint1_radial_862_12458)"/>
</g>
<g style="mix-blend-mode:soft-light">
<path d="M241.18 482.36C374.38 482.36 482.36 374.38 482.36 241.18C482.36 107.98 374.38 0 241.18 0C107.98 0 0 107.98 0 241.18C0 374.38 107.98 482.36 241.18 482.36Z" fill="url(#paint2_radial_862_12458)"/>
</g>
<g style="mix-blend-mode:overlay">
<path d="M241.18 482.36C374.38 482.36 482.36 374.38 482.36 241.18C482.36 107.98 374.38 0 241.18 0C107.98 0 0 107.98 0 241.18C0 374.38 107.98 482.36 241.18 482.36Z" fill="url(#paint3_radial_862_12458)" fill-opacity="0.7"/>
</g>
<mask id="mask0_862_12458" style="mask-type:alpha" maskUnits="userSpaceOnUse" x="0" y="0" width="483" height="483">
<path d="M241.18 482.36C374.38 482.36 482.36 374.38 482.36 241.18C482.36 107.98 374.38 0 241.18 0C107.98 0 0 107.98 0 241.18C0 374.38 107.98 482.36 241.18 482.36Z" fill="white"/>
</mask>
<g mask="url(#mask0_862_12458)">
<g filter="url(#filter0_f_862_12458)">
<path d="M-1.37541 234.299C-1.11353 230.872 0.0141891 230.529 0.343108 234.008C0.708543 237.874 -0.00182796 245.646 0.169198 250.335C0.622042 262.748 2.5249 273.541 4.48654 282.32C10.808 310.612 19.5622 328.843 27.7273 344.288C54.5668 395.06 83.9672 420.77 112.648 440.147C154.69 468.549 197.073 477.584 239.491 479.5C240.561 479.548 240.739 486.518 239.686 487.425C237.788 489.061 235.437 487.437 233.495 487.369C227.915 487.174 222.336 486.791 216.756 486.211C200.213 484.492 183.671 480.991 167.162 475.358C122.275 460.044 73.877 433.821 31.6097 359.962C28.9507 355.316 26.3128 350.424 23.7123 345.167C21.6325 340.963 19.573 336.556 17.5498 331.843C10.895 316.342 -4.61274 276.658 -1.37541 234.299ZM239.52 487.5C238.5 487.531 238.241 481.034 239.214 479.685C240.685 477.647 242.889 479.326 244.439 479.229C250.878 478.826 257.315 478.229 263.75 477.421C281.396 475.205 299.028 471.422 316.621 465.596C360.257 451.145 407.17 429.115 448.305 361.431C450.923 357.123 453.519 352.553 456.079 347.641C463.86 332.712 483.362 293.084 481.107 243.821C480.917 239.668 482.182 237.181 482.748 240.743C483.468 245.279 483.176 254.736 482.977 259.768C482.342 275.883 479.867 289.512 477.257 300.518C468.987 335.399 457.377 355.623 446.744 372.51C412.184 427.397 374.649 449.524 338.156 465.424C305.425 479.686 272.445 486.484 239.52 487.5Z" fill="#401C02"/>
</g>
<g filter="url(#filter1_f_862_12458)">
<path d="M-1.37541 234.299C-1.11353 230.872 0.0141891 230.529 0.343108 234.008C0.708543 237.874 -0.00182796 245.646 0.169198 250.335C0.622042 262.748 2.5249 273.541 4.48654 282.32C10.808 310.612 19.5622 328.843 27.7273 344.288C54.5668 395.06 83.9672 420.77 112.648 440.147C154.69 468.549 197.073 477.584 239.491 479.5C240.561 479.548 240.739 486.518 239.686 487.425C237.788 489.061 235.437 487.437 233.495 487.369C227.915 487.174 222.336 486.791 216.756 486.211C200.213 484.492 183.671 480.991 167.162 475.358C122.275 460.044 73.877 433.821 31.6097 359.962C28.9507 355.316 26.3128 350.424 23.7123 345.167C21.6325 340.963 19.573 336.556 17.5498 331.843C10.895 316.342 -4.61274 276.658 -1.37541 234.299ZM239.52 487.5C238.5 487.531 238.241 481.034 239.214 479.685C240.685 477.647 242.889 479.326 244.439 479.229C250.878 478.826 257.315 478.229 263.75 477.421C281.396 475.205 299.028 471.422 316.621 465.596C360.257 451.145 407.17 429.115 448.305 361.431C450.923 357.123 453.519 352.553 456.079 347.641C463.86 332.712 483.362 293.084 481.107 243.821C480.917 239.668 482.182 237.181 482.748 240.743C483.468 245.279 483.176 254.736 482.977 259.768C482.342 275.883 479.867 289.512 477.257 300.518C468.987 335.399 457.377 355.623 446.744 372.51C412.184 427.397 374.649 449.524 338.156 465.424C305.425 479.686 272.445 486.484 239.52 487.5Z" fill="#401C02"/>
</g>
</g>
<path d="M167.35 220.75C184.112 220.75 197.7 204.507 197.7 184.47C197.7 164.433 184.112 148.19 167.35 148.19C150.588 148.19 137 164.433 137 184.47C137 204.507 150.588 220.75 167.35 220.75Z" fill="url(#paint4_radial_862_12458)"/>
<path d="M167.35 220.75C184.112 220.75 197.7 204.507 197.7 184.47C197.7 164.433 184.112 148.19 167.35 148.19C150.588 148.19 137 164.433 137 184.47C137 204.507 150.588 220.75 167.35 220.75Z" stroke="url(#paint5_linear_862_12458)" stroke-width="2.27" stroke-miterlimit="10"/>
<path d="M315.51 220.75C332.272 220.75 345.86 204.507 345.86 184.47C345.86 164.433 332.272 148.19 315.51 148.19C298.748 148.19 285.16 164.433 285.16 184.47C285.16 204.507 298.748 220.75 315.51 220.75Z" fill="url(#paint6_radial_862_12458)"/>
<path d="M315.51 220.75C332.272 220.75 345.86 204.507 345.86 184.47C345.86 164.433 332.272 148.19 315.51 148.19C298.748 148.19 285.16 164.433 285.16 184.47C285.16 204.507 298.748 220.75 315.51 220.75Z" stroke="url(#paint7_linear_862_12458)" stroke-width="2.27" stroke-miterlimit="10"/>
<path d="M168.3 344.84C165.767 347.503 163.4 350.318 161.21 353.27C160.094 354.753 159.069 356.303 158.14 357.91C157.71 358.66 157.3 359.43 156.93 360.22C156.75 360.61 156.33 362.33 156 362.5C170.49 354.69 185.21 346.93 200.61 341.07C214.395 335.775 228.721 332.016 243.33 329.86C254.782 328.213 266.359 327.607 277.92 328.05C285.18 328.33 292.36 329.44 299.55 330.42C305.65 331.26 313.96 333.57 319.65 330.23C323.25 328.11 325.16 323.9 325.65 319.76C326.061 317.023 325.715 314.225 324.65 311.67C323.12 308.27 319.96 305.82 316.53 304.36C305.33 299.62 291.19 299.86 279.26 299.69C262.618 299.411 246.042 301.839 230.18 306.88C215.201 311.794 201.036 318.909 188.15 327.99C180.982 332.923 174.331 338.568 168.3 344.84Z" fill="url(#paint8_radial_862_12458)"/>
<path d="M168.3 344.84C165.767 347.503 163.4 350.318 161.21 353.27C160.094 354.753 159.069 356.303 158.14 357.91C157.71 358.66 157.3 359.43 156.93 360.22C156.75 360.61 156.33 362.33 156 362.5C170.49 354.69 185.21 346.93 200.61 341.07C214.395 335.775 228.721 332.016 243.33 329.86C254.782 328.213 266.359 327.607 277.92 328.05C285.18 328.33 292.36 329.44 299.55 330.42C305.65 331.26 313.96 333.57 319.65 330.23C323.25 328.11 325.16 323.9 325.65 319.76C326.061 317.023 325.715 314.225 324.65 311.67C323.12 308.27 319.96 305.82 316.53 304.36C305.33 299.62 291.19 299.86 279.26 299.69C262.618 299.411 246.042 301.839 230.18 306.88C215.201 311.794 201.036 318.909 188.15 327.99C180.982 332.923 174.331 338.568 168.3 344.84V344.84Z" stroke="url(#paint9_linear_862_12458)" stroke-width="2" stroke-miterlimit="10"/>
<defs>
<filter id="filter0_f_862_12458" x="-26.8145" y="206.558" width="535.021" height="306.595" filterUnits="userSpaceOnUse" color-interpolation-filters="sRGB">
<feFlood flood-opacity="0" result="BackgroundImageFix"/>
<feBlend mode="normal" in="SourceGraphic" in2="BackgroundImageFix" result="shape"/>
<feGaussianBlur stdDeviation="12.5" result="effect1_foregroundBlur_862_12458"/>
</filter>
<filter id="filter1_f_862_12458" x="-41.8145" y="191.558" width="565.021" height="336.595" filterUnits="userSpaceOnUse" color-interpolation-filters="sRGB">
<feFlood flood-opacity="0" result="BackgroundImageFix"/>
<feBlend mode="normal" in="SourceGraphic" in2="BackgroundImageFix" result="shape"/>
<feGaussianBlur stdDeviation="20" result="effect1_foregroundBlur_862_12458"/>
</filter>
<radialGradient id="paint0_radial_862_12458" cx="0" cy="0" r="1" gradientUnits="userSpaceOnUse" gradientTransform="translate(241 -4.53898e-06) rotate(90) scale(482)">
<stop stop-color="#FFDE43"/>
<stop offset="1" stop-color="#FFBC00"/>
</radialGradient>
<radialGradient id="paint1_radial_862_12458" cx="0" cy="0" r="1" gradientUnits="userSpaceOnUse" gradientTransform="translate(241 64.5) rotate(90) scale(417.5)">
<stop stop-color="white" stop-opacity="0.5"/>
<stop offset="0.782278"/>
</radialGradient>
<radialGradient id="paint2_radial_862_12458" cx="0" cy="0" r="1" gradientUnits="userSpaceOnUse" gradientTransform="translate(241 64.5) rotate(90) scale(417.5)">
<stop stop-color="white" stop-opacity="0.5"/>
<stop offset="0.782278"/>
</radialGradient>
<radialGradient id="paint3_radial_862_12458" cx="0" cy="0" r="1" gradientUnits="userSpaceOnUse" gradientTransform="translate(241 -52.5) rotate(90) scale(534.5 722.835)">
<stop offset="0.0922635" stop-color="white"/>
<stop offset="0.670207" stop-color="white" stop-opacity="0"/>
</radialGradient>
<radialGradient id="paint4_radial_862_12458" cx="0" cy="0" r="1" gradientUnits="userSpaceOnUse" gradientTransform="translate(167.308 184.446) scale(38.6889 36.3429)">
<stop stop-color="#743C1C"/>
<stop offset="1" stop-color="#401C02"/>
</radialGradient>
<linearGradient id="paint5_linear_862_12458" x1="167.35" y1="222.792" x2="167.35" y2="145.855" gradientUnits="userSpaceOnUse">
<stop stop-color="#FFDE43"/>
<stop offset="0.22" stop-color="#FED93F"/>
<stop offset="0.51" stop-color="#FCC934"/>
<stop offset="0.82" stop-color="#F9AF21"/>
<stop offset="1" stop-color="#F79D14"/>
</linearGradient>
<radialGradient id="paint6_radial_862_12458" cx="0" cy="0" r="1" gradientUnits="userSpaceOnUse" gradientTransform="translate(315.468 184.446) scale(38.6889 36.3429)">
<stop stop-color="#743C1C"/>
<stop offset="1" stop-color="#401C02"/>
</radialGradient>
<linearGradient id="paint7_linear_862_12458" x1="315.51" y1="222.792" x2="315.51" y2="145.855" gradientUnits="userSpaceOnUse">
<stop stop-color="#FFDE43"/>
<stop offset="0.22" stop-color="#FED93F"/>
<stop offset="0.51" stop-color="#FCC934"/>
<stop offset="0.82" stop-color="#F9AF21"/>
<stop offset="1" stop-color="#F79D14"/>
</linearGradient>
<radialGradient id="paint8_radial_862_12458" cx="0" cy="0" r="1" gradientUnits="userSpaceOnUse" gradientTransform="translate(240.909 330.957) scale(64.0914 63.4634)">
<stop stop-color="#743C1C"/>
<stop offset="1" stop-color="#401C02"/>
</radialGradient>
<linearGradient id="paint9_linear_862_12458" x1="229.52" y1="305.98" x2="248.26" y2="357.47" gradientUnits="userSpaceOnUse">
<stop stop-color="#FFDE43"/>
<stop offset="0.13" stop-color="#FDD13A"/>
<stop offset="0.48" stop-color="#FAB525"/>
<stop offset="0.78" stop-color="#F8A318"/>
<stop offset="1" stop-color="#F79D14"/>
</linearGradient>
</defs>
</svg>
