<svg width="483" height="483" viewBox="0 0 483 483" fill="none" xmlns="http://www.w3.org/2000/svg">
<path d="M241.18 482.36C374.38 482.36 482.36 374.38 482.36 241.18C482.36 107.98 374.38 0 241.18 0C107.98 0 0 107.98 0 241.18C0 374.38 107.98 482.36 241.18 482.36Z" fill="url(#paint0_radial_862_12480)"/>
<g style="mix-blend-mode:soft-light">
<path d="M241.18 482.36C374.38 482.36 482.36 374.38 482.36 241.18C482.36 107.98 374.38 0 241.18 0C107.98 0 0 107.98 0 241.18C0 374.38 107.98 482.36 241.18 482.36Z" fill="url(#paint1_radial_862_12480)"/>
</g>
<g style="mix-blend-mode:soft-light">
<path d="M241.18 482.36C374.38 482.36 482.36 374.38 482.36 241.18C482.36 107.98 374.38 0 241.18 0C107.98 0 0 107.98 0 241.18C0 374.38 107.98 482.36 241.18 482.36Z" fill="url(#paint2_radial_862_12480)"/>
</g>
<g style="mix-blend-mode:overlay">
<path d="M241.18 482.36C374.38 482.36 482.36 374.38 482.36 241.18C482.36 107.98 374.38 0 241.18 0C107.98 0 0 107.98 0 241.18C0 374.38 107.98 482.36 241.18 482.36Z" fill="url(#paint3_radial_862_12480)" fill-opacity="0.7"/>
</g>
<mask id="mask0_862_12480" style="mask-type:alpha" maskUnits="userSpaceOnUse" x="0" y="0" width="483" height="483">
<path d="M241.18 482.36C374.38 482.36 482.36 374.38 482.36 241.18C482.36 107.98 374.38 0 241.18 0C107.98 0 0 107.98 0 241.18C0 374.38 107.98 482.36 241.18 482.36Z" fill="white"/>
</mask>
<g mask="url(#mask0_862_12480)">
<g filter="url(#filter0_f_862_12480)">
<path d="M-1.3759 234.299C-1.11402 230.872 0.0137008 230.529 0.342619 234.008C0.708055 237.874 -0.00231624 245.646 0.16871 250.335C0.621554 262.748 2.52441 273.541 4.48605 282.32C10.8075 310.612 19.5617 328.843 27.7268 344.288C54.5663 395.06 83.9667 420.77 112.648 440.147C154.689 468.549 197.072 477.584 239.49 479.5C240.56 479.548 240.738 486.518 239.686 487.425C237.788 489.061 235.436 487.437 233.494 487.369C227.915 487.174 222.335 486.791 216.756 486.211C200.213 484.492 183.67 480.991 167.162 475.358C122.275 460.044 73.8765 433.821 31.6092 359.962C28.9502 355.316 26.3124 350.424 23.7118 345.167C21.6321 340.963 19.5726 336.556 17.5493 331.843C10.8946 316.342 -4.61323 276.658 -1.3759 234.299ZM239.52 487.5C238.499 487.531 238.241 481.034 239.214 479.685C240.684 477.647 242.888 479.326 244.439 479.229C250.877 478.826 257.314 478.229 263.75 477.421C281.395 475.205 299.028 471.422 316.621 465.596C360.257 451.145 407.17 429.115 448.305 361.431C450.923 357.123 453.518 352.553 456.079 347.641C463.86 332.712 483.361 293.084 481.107 243.821C480.917 239.668 482.181 237.181 482.747 240.743C483.467 245.279 483.175 254.736 482.977 259.768C482.341 275.883 479.866 289.512 477.257 300.518C468.987 335.399 457.376 355.623 446.744 372.51C412.184 427.397 374.648 449.524 338.155 465.424C305.424 479.686 272.444 486.484 239.52 487.5Z" fill="#401C02"/>
</g>
<g filter="url(#filter1_f_862_12480)">
<path d="M-1.3759 234.299C-1.11402 230.872 0.0137008 230.529 0.342619 234.008C0.708055 237.874 -0.00231624 245.646 0.16871 250.335C0.621554 262.748 2.52441 273.541 4.48605 282.32C10.8075 310.612 19.5617 328.843 27.7268 344.288C54.5663 395.06 83.9667 420.77 112.648 440.147C154.689 468.549 197.072 477.584 239.49 479.5C240.56 479.548 240.738 486.518 239.686 487.425C237.788 489.061 235.436 487.437 233.494 487.369C227.915 487.174 222.335 486.791 216.756 486.211C200.213 484.492 183.67 480.991 167.162 475.358C122.275 460.044 73.8765 433.821 31.6092 359.962C28.9502 355.316 26.3124 350.424 23.7118 345.167C21.6321 340.963 19.5726 336.556 17.5493 331.843C10.8946 316.342 -4.61323 276.658 -1.3759 234.299ZM239.52 487.5C238.499 487.531 238.241 481.034 239.214 479.685C240.684 477.647 242.888 479.326 244.439 479.229C250.877 478.826 257.314 478.229 263.75 477.421C281.395 475.205 299.028 471.422 316.621 465.596C360.257 451.145 407.17 429.115 448.305 361.431C450.923 357.123 453.518 352.553 456.079 347.641C463.86 332.712 483.361 293.084 481.107 243.821C480.917 239.668 482.181 237.181 482.747 240.743C483.467 245.279 483.175 254.736 482.977 259.768C482.341 275.883 479.866 289.512 477.257 300.518C468.987 335.399 457.376 355.623 446.744 372.51C412.184 427.397 374.648 449.524 338.155 465.424C305.424 479.686 272.444 486.484 239.52 487.5Z" fill="#401C02"/>
</g>
</g>
<path d="M147.911 290.8C190.381 290.8 224.811 256.371 224.811 213.9C224.811 171.429 190.381 137 147.911 137C105.44 137 71.0107 171.429 71.0107 213.9C71.0107 256.371 105.44 290.8 147.911 290.8Z" fill="white"/>
<path d="M147.031 269.69C183.913 269.69 213.811 239.791 213.811 202.91C213.811 166.028 183.913 136.13 147.031 136.13C110.149 136.13 80.251 166.028 80.251 202.91C80.251 239.791 110.149 269.69 147.031 269.69Z" fill="black"/>
<path d="M146.881 114.66C144.613 114.365 142.328 114.215 140.041 114.21C134.733 114.009 129.421 114.479 124.231 115.61C108.231 118.69 93.7911 127.12 84.0711 140.89C78.8111 148.33 67.0711 140.41 72.3211 132.89C83.7016 116.912 100.739 105.867 119.971 102C128.861 100.12 138.681 99.1697 147.741 100.49C151.531 101.04 154.661 103.93 154.421 107.98C154.211 111.56 150.741 115.21 146.931 114.66H146.881Z" fill="#42210B"/>
<path d="M147.031 269.69C183.913 269.69 213.811 239.791 213.811 202.91C213.811 166.028 183.913 136.13 147.031 136.13C110.149 136.13 80.251 166.028 80.251 202.91C80.251 239.791 110.149 269.69 147.031 269.69Z" fill="url(#paint4_linear_862_12480)"/>
<path d="M149.365 214.013C166.35 201.546 171.469 179.655 160.799 165.118C150.129 150.582 127.71 148.905 110.725 161.373C93.7398 173.84 88.6206 195.731 99.2907 210.268C109.961 224.804 132.38 226.481 149.365 214.013Z" fill="white"/>
<path d="M169.637 241.628C174.481 238.072 175.737 231.552 172.443 227.064C169.148 222.576 162.551 221.821 157.707 225.376C152.863 228.932 151.607 235.453 154.901 239.94C158.195 244.428 164.793 245.184 169.637 241.628Z" fill="white"/>
<path d="M147.911 290.8C190.381 290.8 224.811 256.371 224.811 213.9C224.811 171.429 190.381 137 147.911 137C105.44 137 71.0107 171.429 71.0107 213.9C71.0107 256.371 105.44 290.8 147.911 290.8Z" stroke="url(#paint5_linear_862_12480)" stroke-width="2" stroke-miterlimit="10"/>
<mask id="mask1_862_12480" style="mask-type:alpha" maskUnits="userSpaceOnUse" x="71" y="136" width="155" height="156">
<path d="M148.011 291.048C105.485 291.048 71.0107 256.339 71.0107 213.524C71.0107 170.709 105.485 136 148.011 136C190.537 136 225.011 170.709 225.011 213.524C225.011 256.339 190.537 291.048 148.011 291.048Z" fill="white"/>
</mask>
<g mask="url(#mask1_862_12480)">
<g filter="url(#filter2_f_862_12480)">
<path d="M72.0107 213.524C72.0107 255.793 106.043 290.048 148.011 290.048C189.978 290.048 224.011 255.793 224.011 213.524C224.011 171.254 189.978 137 148.011 137C106.043 137 72.0107 171.254 72.0107 213.524Z" stroke="#743C1C" stroke-width="2"/>
</g>
</g>
<path d="M335.111 290.8C292.64 290.8 258.211 256.371 258.211 213.9C258.211 171.429 292.64 137 335.111 137C377.581 137 412.011 171.429 412.011 213.9C412.011 256.371 377.581 290.8 335.111 290.8Z" fill="white"/>
<path d="M335.991 269.69C299.109 269.69 269.211 239.791 269.211 202.91C269.211 166.028 299.109 136.13 335.991 136.13C372.872 136.13 402.771 166.028 402.771 202.91C402.771 239.791 372.872 269.69 335.991 269.69Z" fill="black"/>
<path d="M336.14 114.66C338.409 114.365 340.693 114.215 342.98 114.21C348.288 114.009 353.6 114.479 358.79 115.61C374.79 118.69 389.23 127.12 398.95 140.89C404.21 148.33 415.95 140.41 410.7 132.89C399.32 116.912 382.282 105.867 363.05 102C354.16 100.12 344.34 99.1697 335.28 100.49C331.49 101.04 328.36 103.93 328.6 107.98C328.81 111.56 332.28 115.21 336.09 114.66H336.14Z" fill="#42210B"/>
<path d="M335.991 269.69C299.109 269.69 269.211 239.791 269.211 202.91C269.211 166.028 299.109 136.13 335.991 136.13C372.872 136.13 402.771 166.028 402.771 202.91C402.771 239.791 372.872 269.69 335.991 269.69Z" fill="url(#paint6_linear_862_12480)"/>
<path d="M333.657 214.013C316.672 201.546 311.552 179.655 322.223 165.118C332.893 150.582 355.312 148.905 372.297 161.373C389.282 173.84 394.401 195.731 383.731 210.268C373.061 224.804 350.642 226.481 333.657 214.013Z" fill="white"/>
<path d="M313.385 241.628C308.541 238.072 307.285 231.552 310.579 227.064C313.873 222.576 320.47 221.821 325.314 225.376C330.158 228.932 331.414 235.453 328.12 239.94C324.826 244.428 318.229 245.184 313.385 241.628Z" fill="white"/>
<path d="M335.111 290.8C292.64 290.8 258.211 256.371 258.211 213.9C258.211 171.429 292.64 137 335.111 137C377.581 137 412.011 171.429 412.011 213.9C412.011 256.371 377.581 290.8 335.111 290.8Z" stroke="url(#paint7_linear_862_12480)" stroke-width="2" stroke-miterlimit="10"/>
<mask id="mask2_862_12480" style="mask-type:alpha" maskUnits="userSpaceOnUse" x="258" y="136" width="155" height="156">
<path d="M335.011 291.048C377.537 291.048 412.011 256.339 412.011 213.524C412.011 170.709 377.537 136 335.011 136C292.485 136 258.011 170.709 258.011 213.524C258.011 256.339 292.485 291.048 335.011 291.048Z" fill="white"/>
</mask>
<g mask="url(#mask2_862_12480)">
<g filter="url(#filter3_f_862_12480)">
<path d="M411.011 213.524C411.011 255.793 376.978 290.048 335.011 290.048C293.043 290.048 259.011 255.793 259.011 213.524C259.011 171.254 293.043 137 335.011 137C376.978 137 411.011 171.254 411.011 213.524Z" stroke="#743C1C" stroke-width="2"/>
</g>
</g>
<path d="M260.73 373.47H221.64C214.659 373.47 209 379.129 209 386.11V386.12C209 393.101 214.659 398.76 221.64 398.76H260.73C267.711 398.76 273.37 393.101 273.37 386.12V386.11C273.37 379.129 267.711 373.47 260.73 373.47Z" fill="url(#paint8_radial_862_12480)"/>
<path d="M260.73 373.47H221.64C214.659 373.47 209 379.129 209 386.11V386.12C209 393.101 214.659 398.76 221.64 398.76H260.73C267.711 398.76 273.37 393.101 273.37 386.12V386.11C273.37 379.129 267.711 373.47 260.73 373.47Z" stroke="url(#paint9_linear_862_12480)" stroke-width="2.5" stroke-miterlimit="10"/>
<defs>
<filter id="filter0_f_862_12480" x="-26.8149" y="206.558" width="535.022" height="306.595" filterUnits="userSpaceOnUse" color-interpolation-filters="sRGB">
<feFlood flood-opacity="0" result="BackgroundImageFix"/>
<feBlend mode="normal" in="SourceGraphic" in2="BackgroundImageFix" result="shape"/>
<feGaussianBlur stdDeviation="12.5" result="effect1_foregroundBlur_862_12480"/>
</filter>
<filter id="filter1_f_862_12480" x="-41.8149" y="191.558" width="565.022" height="336.595" filterUnits="userSpaceOnUse" color-interpolation-filters="sRGB">
<feFlood flood-opacity="0" result="BackgroundImageFix"/>
<feBlend mode="normal" in="SourceGraphic" in2="BackgroundImageFix" result="shape"/>
<feGaussianBlur stdDeviation="20" result="effect1_foregroundBlur_862_12480"/>
</filter>
<filter id="filter2_f_862_12480" x="56.0107" y="121" width="184" height="185.048" filterUnits="userSpaceOnUse" color-interpolation-filters="sRGB">
<feFlood flood-opacity="0" result="BackgroundImageFix"/>
<feBlend mode="normal" in="SourceGraphic" in2="BackgroundImageFix" result="shape"/>
<feGaussianBlur stdDeviation="7.5" result="effect1_foregroundBlur_862_12480"/>
</filter>
<filter id="filter3_f_862_12480" x="243.011" y="121" width="184" height="185.048" filterUnits="userSpaceOnUse" color-interpolation-filters="sRGB">
<feFlood flood-opacity="0" result="BackgroundImageFix"/>
<feBlend mode="normal" in="SourceGraphic" in2="BackgroundImageFix" result="shape"/>
<feGaussianBlur stdDeviation="7.5" result="effect1_foregroundBlur_862_12480"/>
</filter>
<radialGradient id="paint0_radial_862_12480" cx="0" cy="0" r="1" gradientUnits="userSpaceOnUse" gradientTransform="translate(241 -4.53898e-06) rotate(90) scale(482)">
<stop stop-color="#FFDE43"/>
<stop offset="1" stop-color="#FFBC00"/>
</radialGradient>
<radialGradient id="paint1_radial_862_12480" cx="0" cy="0" r="1" gradientUnits="userSpaceOnUse" gradientTransform="translate(241 64.5) rotate(90) scale(417.5)">
<stop stop-color="white" stop-opacity="0.5"/>
<stop offset="0.782278"/>
</radialGradient>
<radialGradient id="paint2_radial_862_12480" cx="0" cy="0" r="1" gradientUnits="userSpaceOnUse" gradientTransform="translate(241 64.5) rotate(90) scale(417.5)">
<stop stop-color="white" stop-opacity="0.5"/>
<stop offset="0.782278"/>
</radialGradient>
<radialGradient id="paint3_radial_862_12480" cx="0" cy="0" r="1" gradientUnits="userSpaceOnUse" gradientTransform="translate(241 -52.5) rotate(90) scale(534.5 722.835)">
<stop offset="0.0922635" stop-color="white"/>
<stop offset="0.670207" stop-color="white" stop-opacity="0"/>
</radialGradient>
<linearGradient id="paint4_linear_862_12480" x1="147.031" y1="269.69" x2="147.031" y2="136.13" gradientUnits="userSpaceOnUse">
<stop stop-opacity="0"/>
<stop offset="0.21" stop-color="#070707" stop-opacity="0.01"/>
<stop offset="0.39" stop-color="#1B1B1B" stop-opacity="0.05"/>
<stop offset="0.55" stop-color="#3D3D3D" stop-opacity="0.12"/>
<stop offset="0.7" stop-color="#6E6E6E" stop-opacity="0.21"/>
<stop offset="0.85" stop-color="#ACACAC" stop-opacity="0.34"/>
<stop offset="0.99" stop-color="#F7F7F7" stop-opacity="0.49"/>
<stop offset="1" stop-color="white" stop-opacity="0.5"/>
</linearGradient>
<linearGradient id="paint5_linear_862_12480" x1="147.911" y1="295.128" x2="147.911" y2="132.051" gradientUnits="userSpaceOnUse">
<stop stop-color="#FFDE43"/>
<stop offset="0.22" stop-color="#FED93F"/>
<stop offset="0.51" stop-color="#FCC934"/>
<stop offset="0.82" stop-color="#F9AF21"/>
<stop offset="1" stop-color="#F79D14"/>
</linearGradient>
<linearGradient id="paint6_linear_862_12480" x1="335.991" y1="269.69" x2="335.991" y2="136.13" gradientUnits="userSpaceOnUse">
<stop stop-opacity="0"/>
<stop offset="0.21" stop-color="#070707" stop-opacity="0.01"/>
<stop offset="0.39" stop-color="#1B1B1B" stop-opacity="0.05"/>
<stop offset="0.55" stop-color="#3D3D3D" stop-opacity="0.12"/>
<stop offset="0.7" stop-color="#6E6E6E" stop-opacity="0.21"/>
<stop offset="0.85" stop-color="#ACACAC" stop-opacity="0.34"/>
<stop offset="0.99" stop-color="#F7F7F7" stop-opacity="0.49"/>
<stop offset="1" stop-color="white" stop-opacity="0.5"/>
</linearGradient>
<linearGradient id="paint7_linear_862_12480" x1="335.111" y1="295.128" x2="335.111" y2="132.051" gradientUnits="userSpaceOnUse">
<stop stop-color="#FFDE43"/>
<stop offset="0.22" stop-color="#FED93F"/>
<stop offset="0.51" stop-color="#FCC934"/>
<stop offset="0.82" stop-color="#F9AF21"/>
<stop offset="1" stop-color="#F79D14"/>
</linearGradient>
<radialGradient id="paint8_radial_862_12480" cx="0" cy="0" r="1" gradientUnits="userSpaceOnUse" gradientTransform="translate(241.185 386.064) scale(24.294 25.5443)">
<stop stop-color="#743C1C"/>
<stop offset="1" stop-color="#401C02"/>
</radialGradient>
<linearGradient id="paint9_linear_862_12480" x1="241.185" y1="399.471" x2="241.185" y2="372.656" gradientUnits="userSpaceOnUse">
<stop offset="0.265625" stop-color="#FFDE43"/>
<stop offset="1" stop-color="#F79D14"/>
</linearGradient>
</defs>
</svg>
