<svg width="483" height="483" viewBox="0 0 483 483" fill="none" xmlns="http://www.w3.org/2000/svg">
<path d="M241.18 482.36C374.38 482.36 482.36 374.38 482.36 241.18C482.36 107.98 374.38 0 241.18 0C107.98 0 0 107.98 0 241.18C0 374.38 107.98 482.36 241.18 482.36Z" fill="url(#paint0_radial_862_12552)"/>
<g style="mix-blend-mode:soft-light">
<path d="M241.18 482.36C374.38 482.36 482.36 374.38 482.36 241.18C482.36 107.98 374.38 0 241.18 0C107.98 0 0 107.98 0 241.18C0 374.38 107.98 482.36 241.18 482.36Z" fill="url(#paint1_radial_862_12552)"/>
</g>
<g style="mix-blend-mode:soft-light">
<path d="M241.18 482.36C374.38 482.36 482.36 374.38 482.36 241.18C482.36 107.98 374.38 0 241.18 0C107.98 0 0 107.98 0 241.18C0 374.38 107.98 482.36 241.18 482.36Z" fill="url(#paint2_radial_862_12552)"/>
</g>
<g style="mix-blend-mode:overlay">
<path d="M241.18 482.36C374.38 482.36 482.36 374.38 482.36 241.18C482.36 107.98 374.38 0 241.18 0C107.98 0 0 107.98 0 241.18C0 374.38 107.98 482.36 241.18 482.36Z" fill="url(#paint3_radial_862_12552)" fill-opacity="0.7"/>
</g>
<mask id="mask0_862_12552" style="mask-type:alpha" maskUnits="userSpaceOnUse" x="0" y="0" width="483" height="483">
<path d="M241.18 482.36C374.38 482.36 482.36 374.38 482.36 241.18C482.36 107.98 374.38 0 241.18 0C107.98 0 0 107.98 0 241.18C0 374.38 107.98 482.36 241.18 482.36Z" fill="white"/>
</mask>
<g mask="url(#mask0_862_12552)">
<g filter="url(#filter0_f_862_12552)">
<path d="M-1.3759 234.299C-1.11402 230.872 0.0137008 230.529 0.342619 234.008C0.708055 237.874 -0.00231624 245.646 0.16871 250.335C0.621554 262.748 2.52441 273.541 4.48605 282.32C10.8075 310.612 19.5617 328.843 27.7268 344.288C54.5663 395.06 83.9667 420.77 112.648 440.147C154.689 468.549 197.072 477.584 239.49 479.5C240.56 479.548 240.738 486.518 239.686 487.425C237.788 489.061 235.436 487.437 233.494 487.369C227.915 487.174 222.335 486.791 216.756 486.211C200.213 484.492 183.67 480.991 167.162 475.358C122.275 460.044 73.8765 433.821 31.6092 359.962C28.9502 355.316 26.3124 350.424 23.7118 345.167C21.6321 340.963 19.5726 336.556 17.5493 331.843C10.8946 316.342 -4.61323 276.658 -1.3759 234.299ZM239.52 487.5C238.499 487.531 238.241 481.034 239.214 479.685C240.684 477.647 242.888 479.326 244.439 479.229C250.877 478.826 257.314 478.229 263.75 477.421C281.395 475.205 299.028 471.422 316.621 465.596C360.257 451.145 407.17 429.115 448.305 361.431C450.923 357.123 453.518 352.553 456.079 347.641C463.86 332.712 483.361 293.084 481.107 243.821C480.917 239.668 482.181 237.181 482.747 240.743C483.467 245.279 483.175 254.736 482.977 259.768C482.341 275.883 479.866 289.512 477.257 300.518C468.987 335.399 457.376 355.623 446.744 372.51C412.184 427.397 374.648 449.524 338.155 465.424C305.424 479.686 272.444 486.484 239.52 487.5Z" fill="#401C02"/>
</g>
<g filter="url(#filter1_f_862_12552)">
<path d="M-1.3759 234.299C-1.11402 230.872 0.0137008 230.529 0.342619 234.008C0.708055 237.874 -0.00231624 245.646 0.16871 250.335C0.621554 262.748 2.52441 273.541 4.48605 282.32C10.8075 310.612 19.5617 328.843 27.7268 344.288C54.5663 395.06 83.9667 420.77 112.648 440.147C154.689 468.549 197.072 477.584 239.49 479.5C240.56 479.548 240.738 486.518 239.686 487.425C237.788 489.061 235.436 487.437 233.494 487.369C227.915 487.174 222.335 486.791 216.756 486.211C200.213 484.492 183.67 480.991 167.162 475.358C122.275 460.044 73.8765 433.821 31.6092 359.962C28.9502 355.316 26.3124 350.424 23.7118 345.167C21.6321 340.963 19.5726 336.556 17.5493 331.843C10.8946 316.342 -4.61323 276.658 -1.3759 234.299ZM239.52 487.5C238.499 487.531 238.241 481.034 239.214 479.685C240.684 477.647 242.888 479.326 244.439 479.229C250.877 478.826 257.314 478.229 263.75 477.421C281.395 475.205 299.028 471.422 316.621 465.596C360.257 451.145 407.17 429.115 448.305 361.431C450.923 357.123 453.518 352.553 456.079 347.641C463.86 332.712 483.361 293.084 481.107 243.821C480.917 239.668 482.181 237.181 482.747 240.743C483.467 245.279 483.175 254.736 482.977 259.768C482.341 275.883 479.866 289.512 477.257 300.518C468.987 335.399 457.376 355.623 446.744 372.51C412.184 427.397 374.648 449.524 338.155 465.424C305.424 479.686 272.444 486.484 239.52 487.5Z" fill="#401C02"/>
</g>
</g>
<path d="M215.458 194.71C216.508 195.203 217.386 196 217.977 196.999C218.567 197.998 218.843 199.152 218.768 200.31C217.138 226.86 199.608 251.46 172.358 261.38C145.108 271.3 115.878 263.72 97.5575 244.43C96.7658 243.582 96.2471 242.516 96.0688 241.369C95.8905 240.223 96.0608 239.049 96.5575 238C97.1991 236.66 98.3313 235.618 99.7199 235.089C101.109 234.561 102.647 234.586 104.018 235.16C120.548 241.88 141.808 242.24 162.668 234.64C183.528 227.04 199.608 213.11 207.948 197.32C208.626 195.995 209.79 194.983 211.197 194.495C212.603 194.007 214.144 194.081 215.498 194.7L215.458 194.71Z" fill="url(#paint4_radial_862_12552)"/>
<path d="M385.498 236.63C385.986 237.683 386.146 238.858 385.957 240.003C385.768 241.148 385.238 242.21 384.438 243.05C366.128 262.34 336.878 269.93 309.628 260C282.378 250.07 264.818 225.49 263.228 198.99C263.157 197.83 263.436 196.676 264.03 195.677C264.624 194.678 265.505 193.881 266.558 193.39C267.908 192.771 269.446 192.698 270.849 193.187C272.252 193.675 273.413 194.686 274.088 196.01C282.438 211.78 298.488 225.72 319.358 233.32C340.228 240.92 361.498 240.56 378.028 233.83C379.399 233.25 380.941 233.222 382.332 233.751C383.724 234.28 384.858 235.326 385.498 236.67V236.63Z" fill="url(#paint5_radial_862_12552)"/>
<path d="M215.458 194.71C216.508 195.203 217.386 196 217.977 196.999C218.567 197.998 218.843 199.152 218.768 200.31C217.138 226.86 199.608 251.46 172.358 261.38C145.108 271.3 115.878 263.72 97.5575 244.43C96.7658 243.582 96.2471 242.516 96.0688 241.369C95.8905 240.223 96.0608 239.049 96.5575 238V238C97.1991 236.66 98.3313 235.618 99.7199 235.089C101.109 234.561 102.647 234.586 104.018 235.16C120.548 241.88 141.808 242.24 162.668 234.64C183.528 227.04 199.608 213.11 207.948 197.32C208.626 195.995 209.79 194.983 211.197 194.495C212.603 194.007 214.144 194.081 215.498 194.7L215.458 194.71Z" stroke="url(#paint6_linear_862_12552)" stroke-width="2" stroke-miterlimit="10"/>
<path d="M385.498 236.63C385.986 237.683 386.146 238.858 385.957 240.003C385.768 241.148 385.238 242.21 384.438 243.05C366.128 262.34 336.878 269.93 309.628 260C282.378 250.07 264.818 225.49 263.228 198.99C263.157 197.83 263.436 196.676 264.03 195.677C264.624 194.678 265.505 193.881 266.558 193.39V193.39C267.908 192.771 269.446 192.698 270.849 193.187C272.252 193.675 273.413 194.686 274.088 196.01C282.438 211.78 298.488 225.72 319.358 233.32C340.228 240.92 361.498 240.56 378.028 233.83C379.399 233.25 380.941 233.222 382.332 233.751C383.724 234.28 384.858 235.326 385.498 236.67V236.63Z" stroke="url(#paint7_linear_862_12552)" stroke-width="2" stroke-miterlimit="10"/>
<path d="M170.756 401.2C170.369 401.5 169.897 401.67 169.407 401.686C168.918 401.702 168.435 401.564 168.029 401.29C167.623 401.017 167.313 400.622 167.144 400.163C166.974 399.703 166.954 399.202 167.086 398.73C175.376 367.12 205.476 343.73 241.346 343.73C277.216 343.73 307.346 367.17 315.616 398.8C315.748 399.272 315.728 399.773 315.559 400.233C315.389 400.692 315.079 401.087 314.673 401.36C314.267 401.634 313.784 401.772 313.295 401.756C312.805 401.74 312.333 401.57 311.946 401.27C294.106 387.61 269.056 379.12 241.346 379.12C213.636 379.12 188.586 387.58 170.756 401.2Z" fill="url(#paint8_radial_862_12552)"/>
<path d="M170.756 401.2C170.369 401.5 169.897 401.67 169.407 401.686C168.918 401.702 168.435 401.564 168.029 401.29C167.623 401.017 167.313 400.622 167.144 400.163C166.974 399.703 166.954 399.202 167.086 398.73C175.376 367.12 205.476 343.73 241.346 343.73C277.216 343.73 307.346 367.17 315.616 398.8C315.748 399.272 315.728 399.773 315.559 400.233C315.389 400.692 315.079 401.087 314.673 401.36C314.267 401.634 313.784 401.772 313.295 401.756C312.805 401.74 312.333 401.57 311.946 401.27C294.106 387.61 269.056 379.12 241.346 379.12C213.636 379.12 188.586 387.58 170.756 401.2Z" stroke="url(#paint9_linear_862_12552)" stroke-width="2.5" stroke-miterlimit="10"/>
<defs>
<filter id="filter0_f_862_12552" x="-26.8149" y="206.558" width="535.022" height="306.595" filterUnits="userSpaceOnUse" color-interpolation-filters="sRGB">
<feFlood flood-opacity="0" result="BackgroundImageFix"/>
<feBlend mode="normal" in="SourceGraphic" in2="BackgroundImageFix" result="shape"/>
<feGaussianBlur stdDeviation="12.5" result="effect1_foregroundBlur_862_12552"/>
</filter>
<filter id="filter1_f_862_12552" x="-41.8149" y="191.558" width="565.022" height="336.595" filterUnits="userSpaceOnUse" color-interpolation-filters="sRGB">
<feFlood flood-opacity="0" result="BackgroundImageFix"/>
<feBlend mode="normal" in="SourceGraphic" in2="BackgroundImageFix" result="shape"/>
<feGaussianBlur stdDeviation="20" result="effect1_foregroundBlur_862_12552"/>
</filter>
<radialGradient id="paint0_radial_862_12552" cx="0" cy="0" r="1" gradientUnits="userSpaceOnUse" gradientTransform="translate(241 -4.53898e-06) rotate(90) scale(482)">
<stop stop-color="#FFDE43"/>
<stop offset="1" stop-color="#FFBC00"/>
</radialGradient>
<radialGradient id="paint1_radial_862_12552" cx="0" cy="0" r="1" gradientUnits="userSpaceOnUse" gradientTransform="translate(241 64.5) rotate(90) scale(417.5)">
<stop stop-color="white" stop-opacity="0.5"/>
<stop offset="0.782278"/>
</radialGradient>
<radialGradient id="paint2_radial_862_12552" cx="0" cy="0" r="1" gradientUnits="userSpaceOnUse" gradientTransform="translate(241 64.5) rotate(90) scale(417.5)">
<stop stop-color="white" stop-opacity="0.5"/>
<stop offset="0.782278"/>
</radialGradient>
<radialGradient id="paint3_radial_862_12552" cx="0" cy="0" r="1" gradientUnits="userSpaceOnUse" gradientTransform="translate(241 -52.5) rotate(90) scale(534.5 722.835)">
<stop offset="0.0922635" stop-color="white"/>
<stop offset="0.670207" stop-color="white" stop-opacity="0"/>
</radialGradient>
<radialGradient id="paint4_radial_862_12552" cx="0" cy="0" r="1" gradientUnits="userSpaceOnUse" gradientTransform="translate(157.305 229.934) scale(78.2571 35.8441)">
<stop stop-color="#743C1C"/>
<stop offset="1" stop-color="#401C02"/>
</radialGradient>
<radialGradient id="paint5_radial_862_12552" cx="0" cy="0" r="1" gradientUnits="userSpaceOnUse" gradientTransform="translate(324.54 228.591) scale(78.281 35.8106)">
<stop stop-color="#743C1C"/>
<stop offset="1" stop-color="#401C02"/>
</radialGradient>
<linearGradient id="paint6_linear_862_12552" x1="157.39" y1="267.753" x2="157.39" y2="191.873" gradientUnits="userSpaceOnUse">
<stop stop-color="#FFDE43"/>
<stop offset="0.22" stop-color="#FED93F"/>
<stop offset="0.51" stop-color="#FCC934"/>
<stop offset="0.82" stop-color="#F9AF21"/>
<stop offset="1" stop-color="#F79D14"/>
</linearGradient>
<linearGradient id="paint7_linear_862_12552" x1="324.625" y1="266.376" x2="324.625" y2="190.566" gradientUnits="userSpaceOnUse">
<stop stop-color="#FFDE43"/>
<stop offset="0.22" stop-color="#FED93F"/>
<stop offset="0.51" stop-color="#FCC934"/>
<stop offset="0.82" stop-color="#F9AF21"/>
<stop offset="1" stop-color="#F79D14"/>
</linearGradient>
<radialGradient id="paint8_radial_862_12552" cx="0" cy="0" r="1" gradientUnits="userSpaceOnUse" gradientTransform="translate(241.351 372.626) scale(56.1219 58.6108)">
<stop stop-color="#743C1C"/>
<stop offset="1" stop-color="#401C02"/>
</radialGradient>
<linearGradient id="paint9_linear_862_12552" x1="241.351" y1="403.39" x2="241.351" y2="341.863" gradientUnits="userSpaceOnUse">
<stop offset="0.265625" stop-color="#FFDE43"/>
<stop offset="1" stop-color="#F79D14"/>
</linearGradient>
</defs>
</svg>
