<svg width="483" height="483" viewBox="0 0 483 483" fill="none" xmlns="http://www.w3.org/2000/svg">
<path d="M241.18 482.36C374.38 482.36 482.36 374.38 482.36 241.18C482.36 107.98 374.38 0 241.18 0C107.98 0 0 107.98 0 241.18C0 374.38 107.98 482.36 241.18 482.36Z" fill="url(#paint0_radial_862_12509)"/>
<g style="mix-blend-mode:soft-light">
<path d="M241.18 482.36C374.38 482.36 482.36 374.38 482.36 241.18C482.36 107.98 374.38 0 241.18 0C107.98 0 0 107.98 0 241.18C0 374.38 107.98 482.36 241.18 482.36Z" fill="url(#paint1_radial_862_12509)"/>
</g>
<g style="mix-blend-mode:soft-light">
<path d="M241.18 482.36C374.38 482.36 482.36 374.38 482.36 241.18C482.36 107.98 374.38 0 241.18 0C107.98 0 0 107.98 0 241.18C0 374.38 107.98 482.36 241.18 482.36Z" fill="url(#paint2_radial_862_12509)"/>
</g>
<g style="mix-blend-mode:overlay">
<path d="M241.18 482.36C374.38 482.36 482.36 374.38 482.36 241.18C482.36 107.98 374.38 0 241.18 0C107.98 0 0 107.98 0 241.18C0 374.38 107.98 482.36 241.18 482.36Z" fill="url(#paint3_radial_862_12509)" fill-opacity="0.7"/>
</g>
<mask id="mask0_862_12509" style="mask-type:alpha" maskUnits="userSpaceOnUse" x="0" y="0" width="483" height="483">
<path d="M241.18 482.36C374.38 482.36 482.36 374.38 482.36 241.18C482.36 107.98 374.38 0 241.18 0C107.98 0 0 107.98 0 241.18C0 374.38 107.98 482.36 241.18 482.36Z" fill="white"/>
</mask>
<g mask="url(#mask0_862_12509)">
<g filter="url(#filter0_f_862_12509)">
<path d="M-1.37541 234.299C-1.11353 230.872 0.0141891 230.529 0.343108 234.008C0.708543 237.874 -0.00182796 245.646 0.169198 250.335C0.622042 262.748 2.5249 273.541 4.48654 282.32C10.808 310.612 19.5622 328.843 27.7273 344.288C54.5668 395.06 83.9672 420.77 112.648 440.147C154.69 468.549 197.073 477.584 239.491 479.5C240.561 479.548 240.739 486.518 239.686 487.425C237.788 489.061 235.437 487.437 233.495 487.369C227.915 487.174 222.336 486.791 216.756 486.211C200.213 484.492 183.671 480.991 167.162 475.358C122.275 460.044 73.877 433.821 31.6097 359.962C28.9507 355.316 26.3128 350.424 23.7123 345.167C21.6325 340.963 19.573 336.556 17.5498 331.843C10.895 316.342 -4.61274 276.658 -1.37541 234.299ZM239.52 487.5C238.5 487.531 238.241 481.034 239.214 479.685C240.685 477.647 242.889 479.326 244.439 479.229C250.878 478.826 257.315 478.229 263.75 477.421C281.396 475.205 299.028 471.422 316.621 465.596C360.257 451.145 407.17 429.115 448.305 361.431C450.923 357.123 453.519 352.553 456.079 347.641C463.86 332.712 483.362 293.084 481.107 243.821C480.917 239.668 482.182 237.181 482.748 240.743C483.468 245.279 483.176 254.736 482.977 259.768C482.342 275.883 479.867 289.512 477.257 300.518C468.987 335.399 457.377 355.623 446.744 372.51C412.184 427.397 374.649 449.524 338.156 465.424C305.425 479.686 272.445 486.484 239.52 487.5Z" fill="#401C02"/>
</g>
<g filter="url(#filter1_f_862_12509)">
<path d="M-1.37541 234.299C-1.11353 230.872 0.0141891 230.529 0.343108 234.008C0.708543 237.874 -0.00182796 245.646 0.169198 250.335C0.622042 262.748 2.5249 273.541 4.48654 282.32C10.808 310.612 19.5622 328.843 27.7273 344.288C54.5668 395.06 83.9672 420.77 112.648 440.147C154.69 468.549 197.073 477.584 239.491 479.5C240.561 479.548 240.739 486.518 239.686 487.425C237.788 489.061 235.437 487.437 233.495 487.369C227.915 487.174 222.336 486.791 216.756 486.211C200.213 484.492 183.671 480.991 167.162 475.358C122.275 460.044 73.877 433.821 31.6097 359.962C28.9507 355.316 26.3128 350.424 23.7123 345.167C21.6325 340.963 19.573 336.556 17.5498 331.843C10.895 316.342 -4.61274 276.658 -1.37541 234.299ZM239.52 487.5C238.5 487.531 238.241 481.034 239.214 479.685C240.685 477.647 242.889 479.326 244.439 479.229C250.878 478.826 257.315 478.229 263.75 477.421C281.396 475.205 299.028 471.422 316.621 465.596C360.257 451.145 407.17 429.115 448.305 361.431C450.923 357.123 453.519 352.553 456.079 347.641C463.86 332.712 483.362 293.084 481.107 243.821C480.917 239.668 482.182 237.181 482.748 240.743C483.468 245.279 483.176 254.736 482.977 259.768C482.342 275.883 479.867 289.512 477.257 300.518C468.987 335.399 457.377 355.623 446.744 372.51C412.184 427.397 374.649 449.524 338.156 465.424C305.425 479.686 272.445 486.484 239.52 487.5Z" fill="#401C02"/>
</g>
</g>
<g filter="url(#filter2_f_862_12509)">
<path d="M278.451 347.499C275.015 347.494 271.619 346.779 268.478 345.402C265.056 349.059 260.907 351.978 256.291 353.974C251.675 355.97 246.691 357 241.653 357C236.615 357 231.631 355.97 227.015 353.974C222.399 351.978 218.25 349.059 214.828 345.402C211.68 346.763 208.282 347.471 204.846 347.48C191.954 347.48 174.44 334.335 178.634 320.159C180.035 315.463 183.499 312.903 187.089 309.9C190.513 307.033 193.545 303.736 196.108 300.094C199.528 295.128 202.312 289.762 204.398 284.119C205.575 281.03 206.597 277.873 207.482 274.707C207.823 273.504 208.144 272.301 208.455 271.089C212.911 253.295 213.69 234.616 213.632 223.058C222.061 218.981 231.336 216.908 240.719 217.004C250.793 216.882 260.733 219.293 269.607 224.01C269.607 235.376 270.414 253.006 274.52 269.992C274.9 271.57 275.308 273.148 275.746 274.707C276.762 278.333 277.967 281.905 279.356 285.408C283.501 295.773 289.358 304.944 297.589 311.036C316.154 324.749 296.091 347.499 278.451 347.499Z" fill="#812F00"/>
</g>
<g filter="url(#filter3_f_862_12509)">
<path d="M358.33 380.47C349.317 390.248 337.127 396.509 323.93 398.14C321.625 398.43 319.303 398.574 316.98 398.57C310.144 398.581 303.364 397.334 296.98 394.89C300.408 399.42 304.659 403.264 309.51 406.22C298.209 410.772 285.886 412.174 273.852 410.278C261.818 408.381 250.523 403.257 241.17 395.45C231.818 403.251 220.527 408.372 208.497 410.268C196.467 412.165 184.148 410.766 172.85 406.22C177.7 403.279 181.953 399.452 185.39 394.94C179.005 397.383 172.226 398.63 165.39 398.62C163.05 398.626 160.712 398.482 158.39 398.19C145.195 396.561 133.007 390.299 124 380.52C126.851 381.064 129.747 381.338 132.65 381.34C135.671 381.339 138.685 381.048 141.65 380.47C144.034 379.997 146.376 379.328 148.65 378.47C141.862 372.704 136.924 365.066 134.452 356.51C131.979 347.953 132.083 338.858 134.75 330.36C137.081 336.597 141.261 341.974 146.732 345.77C152.202 349.566 158.702 351.6 165.36 351.6C173.533 351.564 181.397 348.476 187.41 342.94C189.071 341.438 190.567 339.762 191.87 337.94L241.04 322.53L290.47 337.94C291.767 339.764 293.259 341.44 294.92 342.94C300.948 348.449 308.815 351.509 316.98 351.52C323.639 351.519 330.14 349.485 335.612 345.689C341.084 341.893 345.266 336.517 347.6 330.28C350.268 338.779 350.372 347.875 347.898 356.432C345.424 364.989 340.482 372.627 333.69 378.39C335.965 379.247 338.306 379.916 340.69 380.39C343.655 380.967 346.669 381.259 349.69 381.26C352.588 381.266 355.481 381.002 358.33 380.47Z" fill="#653203"/>
</g>
<path d="M358.33 370.47C349.317 380.248 337.127 386.509 323.93 388.14C321.625 388.43 319.303 388.574 316.98 388.57C310.144 388.581 303.364 387.334 296.98 384.89C300.408 389.42 304.659 393.264 309.51 396.22C298.209 400.772 285.886 402.174 273.852 400.278C261.818 398.381 250.523 393.257 241.17 385.45C231.818 393.251 220.527 398.372 208.497 400.268C196.467 402.165 184.148 400.766 172.85 396.22C177.7 393.279 181.953 389.452 185.39 384.94C179.005 387.383 172.226 388.63 165.39 388.62C163.05 388.626 160.712 388.482 158.39 388.19C145.195 386.561 133.007 380.299 124 370.52C126.851 371.064 129.747 371.338 132.65 371.34C135.671 371.339 138.685 371.048 141.65 370.47C144.034 369.997 146.376 369.328 148.65 368.47C141.862 362.704 136.924 355.066 134.452 346.51C131.979 337.953 132.083 328.858 134.75 320.36C137.081 326.597 141.261 331.974 146.732 335.77C152.202 339.566 158.702 341.6 165.36 341.6C173.533 341.564 181.397 338.476 187.41 332.94C189.071 331.438 190.567 329.762 191.87 327.94L241.04 312.53L290.47 327.94C291.767 329.764 293.259 331.44 294.92 332.94C300.948 338.449 308.815 341.509 316.98 341.52C323.639 341.519 330.14 339.485 335.612 335.689C341.084 331.893 345.266 326.517 347.6 320.28C350.268 328.779 350.372 337.875 347.898 346.432C345.424 354.989 340.482 362.627 333.69 368.39C335.965 369.247 338.306 369.916 340.69 370.39C343.655 370.967 346.669 371.259 349.69 371.26C352.588 371.266 355.481 371.002 358.33 370.47Z" fill="black"/>
<path d="M279.241 338.801C275.71 338.795 272.219 338.053 268.991 336.621C265.475 340.422 261.21 343.454 256.466 345.528C251.721 347.602 246.599 348.673 241.421 348.673C236.243 348.673 231.121 347.602 226.377 345.528C221.632 343.454 217.368 340.422 213.851 336.621C210.615 338.036 207.123 338.771 203.591 338.781C190.341 338.781 172.341 325.121 176.651 310.391C178.091 305.511 181.651 302.851 185.341 299.731C188.861 296.751 191.977 293.326 194.611 289.541C198.126 284.38 200.987 278.805 203.131 272.941C204.341 269.731 205.391 266.451 206.301 263.161C206.651 261.911 206.981 260.661 207.301 259.401C211.881 240.911 212.681 221.501 212.621 209.491C221.285 205.255 230.818 203.101 240.461 203.201C250.815 203.074 261.031 205.579 270.151 210.481C270.151 222.291 270.981 240.611 275.201 258.261C275.591 259.901 276.011 261.541 276.461 263.161C277.505 266.929 278.743 270.641 280.171 274.281C284.431 285.051 290.451 294.581 298.911 300.911C317.991 315.161 297.371 338.801 279.241 338.801Z" fill="url(#paint4_linear_862_12509)"/>
<mask id="mask1_862_12509" style="mask-type:alpha" maskUnits="userSpaceOnUse" x="176" y="203" width="131" height="146">
<path d="M279.241 338.801C275.71 338.795 272.219 338.053 268.991 336.621C265.475 340.422 261.21 343.454 256.466 345.528C251.721 347.602 246.599 348.673 241.421 348.673C236.243 348.673 231.121 347.602 226.377 345.528C221.632 343.454 217.368 340.422 213.851 336.621C210.615 338.036 207.123 338.771 203.591 338.781C190.341 338.781 172.341 325.121 176.651 310.391C178.091 305.511 181.651 302.851 185.341 299.731C188.861 296.751 191.977 293.326 194.611 289.541C198.126 284.38 200.987 278.805 203.131 272.941C204.341 269.731 205.391 266.451 206.301 263.161C206.651 261.911 206.981 260.661 207.301 259.401C211.881 240.911 212.681 221.501 212.621 209.491C221.285 205.255 230.818 203.101 240.461 203.201C250.815 203.074 261.031 205.579 270.151 210.481C270.151 222.291 270.981 240.611 275.201 258.261C275.591 259.901 276.011 261.541 276.461 263.161C277.505 266.929 278.743 270.641 280.171 274.281C284.431 285.051 290.451 294.581 298.911 300.911C317.991 315.161 297.371 338.801 279.241 338.801Z" fill="url(#paint5_linear_862_12509)"/>
</mask>
<g mask="url(#mask1_862_12509)">
<g filter="url(#filter4_f_862_12509)">
<path d="M278.031 309.5C278.031 330.763 261.466 348 241.031 348C220.597 348 204.031 330.763 204.031 309.5" stroke="#743C1C" stroke-width="2"/>
</g>
</g>
<mask id="mask2_862_12509" style="mask-type:alpha" maskUnits="userSpaceOnUse" x="176" y="203" width="131" height="146">
<path d="M279.241 338.801C275.71 338.795 272.219 338.053 268.991 336.621C265.475 340.422 261.21 343.454 256.466 345.528C251.721 347.602 246.599 348.673 241.421 348.673C236.243 348.673 231.121 347.602 226.377 345.528C221.632 343.454 217.368 340.422 213.851 336.621C210.615 338.036 207.123 338.771 203.591 338.781C190.341 338.781 172.341 325.121 176.651 310.391C178.091 305.511 181.651 302.851 185.341 299.731C188.861 296.751 191.977 293.326 194.611 289.541C198.126 284.38 200.987 278.805 203.131 272.941C204.341 269.731 205.391 266.451 206.301 263.161C206.651 261.911 206.981 260.661 207.301 259.401C211.881 240.911 212.681 221.501 212.621 209.491C221.285 205.255 230.818 203.101 240.461 203.201C250.815 203.074 261.031 205.579 270.151 210.481C270.151 222.291 270.981 240.611 275.201 258.261C275.591 259.901 276.011 261.541 276.461 263.161C277.505 266.929 278.743 270.641 280.171 274.281C284.431 285.051 290.451 294.581 298.911 300.911C317.991 315.161 297.371 338.801 279.241 338.801Z" fill="url(#paint6_linear_862_12509)"/>
</mask>
<g mask="url(#mask2_862_12509)">
<g filter="url(#filter5_f_862_12509)">
<path d="M305.839 313C306.939 317.3 305.939 322.1 303.739 326.2C301.539 330.3 298.339 333.8 294.639 336.5C292.739 337.9 290.739 339.1 288.539 340.1C286.339 341.1 284.039 341.8 281.539 342.2C276.639 343 271.539 342.3 266.939 340.4L270.939 339.6C267.239 343.8 262.539 347.3 257.439 349.7C252.239 352.1 246.539 353.3 240.839 353.3C235.139 353.3 229.439 352.1 224.239 349.7C219.039 347.4 214.439 343.9 210.639 339.7L214.639 340.5C210.039 342.2 205.039 343 200.039 342.1C195.139 341.3 190.739 339.2 186.939 336.5C183.039 333.8 179.739 330.4 177.539 326.3C176.439 324.3 175.639 322 175.239 319.8C174.839 317.5 175.039 315.1 175.639 313C175.439 317.5 177.239 321.5 179.739 324.8C182.339 328.1 185.739 330.6 189.339 332.6C191.139 333.6 193.039 334.4 194.939 334.9C196.839 335.5 198.839 335.9 200.739 336C201.739 336.1 202.639 336.1 203.539 336C204.539 335.9 205.439 335.8 206.339 335.6C208.239 335.2 210.039 334.6 211.739 333.8L213.839 332.8L215.739 334.7C219.039 338 222.939 340.7 227.239 342.5C231.539 344.3 236.139 345.2 240.739 345.2C245.339 345.2 249.939 344.3 254.239 342.5C256.339 341.6 258.439 340.5 260.339 339.2C262.239 337.9 264.039 336.4 265.739 334.7L267.639 332.8L269.739 333.8C273.139 335.4 277.039 336.3 280.739 336C284.539 335.7 288.439 334.5 292.039 332.5C293.839 331.5 295.539 330.3 297.139 329C298.739 327.7 300.239 326.2 301.439 324.5C304.039 321.5 305.839 317.4 305.839 313Z" fill="#511900"/>
</g>
</g>
<mask id="mask3_862_12509" style="mask-type:alpha" maskUnits="userSpaceOnUse" x="176" y="203" width="131" height="146">
<path d="M279.241 338.801C275.71 338.795 272.219 338.053 268.991 336.621C265.475 340.422 261.21 343.454 256.466 345.528C251.721 347.602 246.599 348.673 241.421 348.673C236.243 348.673 231.121 347.602 226.377 345.528C221.632 343.454 217.368 340.422 213.851 336.621C210.615 338.036 207.123 338.771 203.591 338.781C190.341 338.781 172.341 325.121 176.651 310.391C178.091 305.511 181.651 302.851 185.341 299.731C188.861 296.751 191.977 293.326 194.611 289.541C198.126 284.38 200.987 278.805 203.131 272.941C204.341 269.731 205.391 266.451 206.301 263.161C206.651 261.911 206.981 260.661 207.301 259.401C211.881 240.911 212.681 221.501 212.621 209.491C221.285 205.255 230.818 203.101 240.461 203.201C250.815 203.074 261.031 205.579 270.151 210.481C270.151 222.291 270.981 240.611 275.201 258.261C275.591 259.901 276.011 261.541 276.461 263.161C277.505 266.929 278.743 270.641 280.171 274.281C284.431 285.051 290.451 294.581 298.911 300.911C317.991 315.161 297.371 338.801 279.241 338.801Z" fill="url(#paint7_linear_862_12509)"/>
</mask>
<g mask="url(#mask3_862_12509)">
<g filter="url(#filter6_f_862_12509)">
<path d="M305.839 313C306.939 317.3 305.939 322.1 303.739 326.2C301.539 330.3 298.339 333.8 294.639 336.5C292.739 337.9 290.739 339.1 288.539 340.1C286.339 341.1 284.039 341.8 281.539 342.2C276.639 343 271.539 342.3 266.939 340.4L270.939 339.6C267.239 343.8 262.539 347.3 257.439 349.7C252.239 352.1 246.539 353.3 240.839 353.3C235.139 353.3 229.439 352.1 224.239 349.7C219.039 347.4 214.439 343.9 210.639 339.7L214.639 340.5C210.039 342.2 205.039 343 200.039 342.1C195.139 341.3 190.739 339.2 186.939 336.5C183.039 333.8 179.739 330.4 177.539 326.3C176.439 324.3 175.639 322 175.239 319.8C174.839 317.5 175.039 315.1 175.639 313C175.439 317.5 177.239 321.5 179.739 324.8C182.339 328.1 185.739 330.6 189.339 332.6C191.139 333.6 193.039 334.4 194.939 334.9C196.839 335.5 198.839 335.9 200.739 336C201.739 336.1 202.639 336.1 203.539 336C204.539 335.9 205.439 335.8 206.339 335.6C208.239 335.2 210.039 334.6 211.739 333.8L213.839 332.8L215.739 334.7C219.039 338 222.939 340.7 227.239 342.5C231.539 344.3 236.139 345.2 240.739 345.2C245.339 345.2 249.939 344.3 254.239 342.5C256.339 341.6 258.439 340.5 260.339 339.2C262.239 337.9 264.039 336.4 265.739 334.7L267.639 332.8L269.739 333.8C273.139 335.4 277.039 336.3 280.739 336C284.539 335.7 288.439 334.5 292.039 332.5C293.839 331.5 295.539 330.3 297.139 329C298.739 327.7 300.239 326.2 301.439 324.5C304.039 321.5 305.839 317.4 305.839 313Z" fill="#511900"/>
</g>
</g>
<path d="M335.869 259C350.283 259 361.969 241.472 361.969 219.85C361.969 198.228 350.283 180.7 335.869 180.7C321.454 180.7 309.769 198.228 309.769 219.85C309.769 241.472 321.454 259 335.869 259Z" fill="url(#paint8_radial_862_12509)"/>
<path d="M335.869 259C350.283 259 361.969 241.472 361.969 219.85C361.969 198.228 350.283 180.7 335.869 180.7C321.454 180.7 309.769 198.228 309.769 219.85C309.769 241.472 321.454 259 335.869 259Z" stroke="url(#paint9_linear_862_12509)" stroke-width="2" stroke-miterlimit="10"/>
<path d="M144.928 259C159.343 259 171.028 241.472 171.028 219.85C171.028 198.228 159.343 180.7 144.928 180.7C130.513 180.7 118.828 198.228 118.828 219.85C118.828 241.472 130.513 259 144.928 259Z" fill="url(#paint10_radial_862_12509)"/>
<path d="M144.928 259C159.343 259 171.028 241.472 171.028 219.85C171.028 198.228 159.343 180.7 144.928 180.7C130.513 180.7 118.828 198.228 118.828 219.85C118.828 241.472 130.513 259 144.928 259Z" stroke="url(#paint11_linear_862_12509)" stroke-width="2" stroke-miterlimit="10"/>
<path d="M424.819 151.04C407.06 136.141 384.545 128.106 361.366 128.396C338.186 128.686 315.88 137.281 298.499 152.62C296.605 146.937 295.866 140.932 296.324 134.959C296.782 128.986 298.428 123.164 301.165 117.836C303.903 112.507 307.676 107.779 312.265 103.928C316.854 100.077 322.166 97.1812 327.889 95.4102C324.931 102.982 324.071 111.211 325.399 119.23C328.804 113.206 333.553 108.048 339.277 104.158C345 100.267 351.544 97.7497 358.399 96.8002C360.466 96.5149 362.551 96.3712 364.639 96.3702C373.59 96.3537 382.34 99.022 389.759 104.03C385.411 106.177 381.439 109.013 377.999 112.43C376.281 114.118 374.706 115.944 373.289 117.89C375.815 117.444 378.374 117.209 380.939 117.19H381.269C390.27 117.177 399.066 119.878 406.509 124.94C408.247 126.12 409.901 127.42 411.459 128.83C418.002 134.756 422.65 142.483 424.819 151.04Z" fill="black"/>
<path d="M184.599 138.41C184.602 143.24 183.825 148.038 182.299 152.62C164.917 137.284 142.612 128.689 119.433 128.398C96.255 128.106 73.7405 136.136 55.9785 151.03C58.1557 142.488 62.8027 134.776 69.3385 128.86C70.9123 127.448 72.5831 126.149 74.3385 124.97C81.7919 119.887 90.6071 117.176 99.6285 117.19H99.9585C102.524 117.209 105.083 117.444 107.609 117.89C106.191 115.944 104.616 114.118 102.899 112.43C99.4579 109.013 95.4865 106.177 91.1385 104.03C98.5573 99.022 107.308 96.3537 116.259 96.3702C118.346 96.3712 120.431 96.5149 122.499 96.8002C129.336 97.7642 135.859 100.289 141.564 104.178C147.269 108.068 152.003 113.218 155.399 119.23C156.73 111.212 155.873 102.983 152.919 95.4102C162.099 98.255 170.127 103.964 175.828 111.702C181.528 119.44 184.602 128.799 184.599 138.41Z" fill="black"/>
<path d="M464.398 205.041H457.678C453.263 183.518 441.679 164.128 424.818 150.041C411.746 139.09 396.017 131.78 379.218 128.846C362.419 125.913 345.144 127.46 329.134 133.331C313.123 139.203 298.944 149.192 288.024 162.29C277.105 175.389 269.832 191.135 266.938 207.941C259.239 202.295 249.941 199.251 240.393 199.251C230.846 199.251 221.548 202.295 213.848 207.941C213.253 204.47 212.465 201.034 211.488 197.651C205.47 176.795 192.637 158.557 175.038 145.851C157.439 133.144 136.089 126.702 114.399 127.553C92.7086 128.404 71.9293 136.499 55.3795 150.545C38.8297 164.591 27.4643 183.777 23.0984 205.041H16.3984C13.8784 205.122 11.4887 206.18 9.73471 207.991C7.98071 209.802 7 212.224 7 214.746C7 217.267 7.98071 219.689 9.73471 221.501C11.4887 223.312 13.8784 224.37 16.3984 224.451H21.1684C21.1263 245.84 28.1551 266.643 41.1611 283.624C54.1671 300.605 72.421 312.81 93.0826 318.342C113.744 323.873 135.655 322.421 155.405 314.21C175.155 305.999 191.638 291.49 202.288 272.941C202.788 272.061 203.288 271.181 203.768 270.281C211.337 256.206 215.288 240.471 215.268 224.491C215.268 223.011 215.268 221.491 215.158 220.061C218.419 216.651 222.336 213.937 226.674 212.083C231.012 210.229 235.681 209.273 240.398 209.273C245.116 209.273 249.785 210.229 254.123 212.083C258.461 213.937 262.378 216.651 265.638 220.061C265.558 221.531 265.528 223.011 265.528 224.491C265.515 236.375 267.699 248.16 271.968 259.251C273.417 263.022 275.107 266.697 277.028 270.251C277.758 271.601 278.518 272.941 279.308 274.251C290.186 292.508 306.759 306.687 326.479 314.609C346.199 322.531 367.975 323.758 388.46 318.101C408.945 312.444 427.005 300.216 439.865 283.296C452.724 266.377 459.671 245.702 459.638 224.451H464.398C465.699 224.492 466.995 224.272 468.209 223.803C469.423 223.334 470.53 222.626 471.465 221.721C472.4 220.816 473.143 219.732 473.651 218.533C474.158 217.335 474.42 216.047 474.42 214.746C474.42 213.444 474.158 212.156 473.651 210.958C473.143 209.76 472.4 208.676 471.465 207.77C470.53 206.865 469.423 206.157 468.209 205.688C466.995 205.219 465.699 204.999 464.398 205.041ZM199.238 226.041C199.024 247.322 190.393 267.653 175.23 282.588C160.068 297.523 139.61 305.847 118.328 305.74C97.0454 305.633 76.6714 297.103 61.6603 282.017C46.6493 266.93 38.2225 246.513 38.2225 225.231C38.2225 203.948 46.6493 183.532 61.6603 168.445C76.6714 153.358 97.0454 144.829 118.328 144.722C139.61 144.615 160.068 152.939 175.23 167.874C190.393 182.809 199.024 203.139 199.238 224.421C199.268 224.991 199.258 225.531 199.248 226.071L199.238 226.041ZM362.578 305.481C341.367 305.485 321 297.168 305.854 282.318C290.708 267.467 281.992 247.268 281.578 226.061C281.578 225.511 281.578 224.971 281.578 224.421C281.578 208.389 286.333 192.716 295.24 179.386C304.146 166.056 316.806 155.666 331.618 149.531C346.43 143.396 362.728 141.791 378.452 144.918C394.177 148.046 408.62 155.766 419.957 167.103C431.293 178.439 439.013 192.883 442.141 208.607C445.269 224.331 443.663 240.629 437.528 255.441C431.393 270.253 421.003 282.913 407.673 291.82C394.343 300.727 378.671 305.481 362.638 305.481H362.578Z" fill="black"/>
<path style="mix-blend-mode:screen" d="M199.269 224.45C199.269 224.99 199.269 225.53 199.269 226.07C199.055 247.351 190.423 267.682 175.261 282.617C160.099 297.552 139.64 305.876 118.358 305.769C97.0758 305.662 76.7018 297.133 61.6908 282.046C46.6797 266.959 38.2529 246.542 38.2529 225.26C38.2529 203.978 46.6797 183.561 61.6908 168.474C76.7018 153.387 97.0758 144.858 118.358 144.751C139.64 144.644 160.099 152.968 175.261 167.903C190.423 182.838 199.055 203.169 199.269 224.45Z" fill="url(#paint12_linear_862_12509)"/>
<path style="mix-blend-mode:screen" d="M444 223.68C444 224.227 444 224.773 444 225.32C443.783 246.863 435.045 267.444 419.696 282.562C404.347 297.681 383.636 306.107 362.092 305.999C340.548 305.891 319.923 297.256 304.727 281.984C289.531 266.712 281 246.044 281 224.5C281 202.956 289.531 182.288 304.727 167.016C319.923 151.744 340.548 143.109 362.092 143.001C383.636 142.893 404.347 151.319 419.696 166.438C435.045 181.556 443.783 202.137 444 223.68Z" fill="url(#paint13_linear_862_12509)"/>
<defs>
<filter id="filter0_f_862_12509" x="-26.8145" y="206.558" width="535.021" height="306.595" filterUnits="userSpaceOnUse" color-interpolation-filters="sRGB">
<feFlood flood-opacity="0" result="BackgroundImageFix"/>
<feBlend mode="normal" in="SourceGraphic" in2="BackgroundImageFix" result="shape"/>
<feGaussianBlur stdDeviation="12.5" result="effect1_foregroundBlur_862_12509"/>
</filter>
<filter id="filter1_f_862_12509" x="-41.8145" y="191.558" width="565.021" height="336.595" filterUnits="userSpaceOnUse" color-interpolation-filters="sRGB">
<feFlood flood-opacity="0" result="BackgroundImageFix"/>
<feBlend mode="normal" in="SourceGraphic" in2="BackgroundImageFix" result="shape"/>
<feGaussianBlur stdDeviation="20" result="effect1_foregroundBlur_862_12509"/>
</filter>
<filter id="filter2_f_862_12509" x="166" y="205" width="151" height="164" filterUnits="userSpaceOnUse" color-interpolation-filters="sRGB">
<feFlood flood-opacity="0" result="BackgroundImageFix"/>
<feBlend mode="normal" in="SourceGraphic" in2="BackgroundImageFix" result="shape"/>
<feGaussianBlur stdDeviation="6" result="effect1_foregroundBlur_862_12509"/>
</filter>
<filter id="filter3_f_862_12509" x="106" y="304.53" width="270.33" height="124.569" filterUnits="userSpaceOnUse" color-interpolation-filters="sRGB">
<feFlood flood-opacity="0" result="BackgroundImageFix"/>
<feBlend mode="normal" in="SourceGraphic" in2="BackgroundImageFix" result="shape"/>
<feGaussianBlur stdDeviation="9" result="effect1_foregroundBlur_862_12509"/>
</filter>
<filter id="filter4_f_862_12509" x="195.031" y="301.5" width="92" height="55.5" filterUnits="userSpaceOnUse" color-interpolation-filters="sRGB">
<feFlood flood-opacity="0" result="BackgroundImageFix"/>
<feBlend mode="normal" in="SourceGraphic" in2="BackgroundImageFix" result="shape"/>
<feGaussianBlur stdDeviation="4" result="effect1_foregroundBlur_862_12509"/>
</filter>
<filter id="filter5_f_862_12509" x="169.031" y="307" width="143.258" height="52.2998" filterUnits="userSpaceOnUse" color-interpolation-filters="sRGB">
<feFlood flood-opacity="0" result="BackgroundImageFix"/>
<feBlend mode="normal" in="SourceGraphic" in2="BackgroundImageFix" result="shape"/>
<feGaussianBlur stdDeviation="3" result="effect1_foregroundBlur_862_12509"/>
</filter>
<filter id="filter6_f_862_12509" x="169.031" y="307" width="143.258" height="52.2998" filterUnits="userSpaceOnUse" color-interpolation-filters="sRGB">
<feFlood flood-opacity="0" result="BackgroundImageFix"/>
<feBlend mode="normal" in="SourceGraphic" in2="BackgroundImageFix" result="shape"/>
<feGaussianBlur stdDeviation="3" result="effect1_foregroundBlur_862_12509"/>
</filter>
<radialGradient id="paint0_radial_862_12509" cx="0" cy="0" r="1" gradientUnits="userSpaceOnUse" gradientTransform="translate(241 -4.53898e-06) rotate(90) scale(482)">
<stop stop-color="#FFDE43"/>
<stop offset="1" stop-color="#FFBC00"/>
</radialGradient>
<radialGradient id="paint1_radial_862_12509" cx="0" cy="0" r="1" gradientUnits="userSpaceOnUse" gradientTransform="translate(241 64.5) rotate(90) scale(417.5)">
<stop stop-color="white" stop-opacity="0.5"/>
<stop offset="0.782278"/>
</radialGradient>
<radialGradient id="paint2_radial_862_12509" cx="0" cy="0" r="1" gradientUnits="userSpaceOnUse" gradientTransform="translate(241 64.5) rotate(90) scale(417.5)">
<stop stop-color="white" stop-opacity="0.5"/>
<stop offset="0.782278"/>
</radialGradient>
<radialGradient id="paint3_radial_862_12509" cx="0" cy="0" r="1" gradientUnits="userSpaceOnUse" gradientTransform="translate(241 -52.5) rotate(90) scale(534.5 722.835)">
<stop offset="0.0922635" stop-color="white"/>
<stop offset="0.670207" stop-color="white" stop-opacity="0"/>
</radialGradient>
<linearGradient id="paint4_linear_862_12509" x1="241.241" y1="348.681" x2="241.241" y2="203.161" gradientUnits="userSpaceOnUse">
<stop stop-color="#FF8A00"/>
<stop offset="0.578125" stop-color="#FFAB2C"/>
<stop offset="1" stop-color="#FFC700"/>
<stop offset="1" stop-color="#FFC700"/>
</linearGradient>
<linearGradient id="paint5_linear_862_12509" x1="241.241" y1="348.681" x2="241.241" y2="203.161" gradientUnits="userSpaceOnUse">
<stop stop-color="#FA9814"/>
<stop offset="0.47" stop-color="#FCB729"/>
<stop offset="0.99" stop-color="#FFDE43"/>
</linearGradient>
<linearGradient id="paint6_linear_862_12509" x1="241.241" y1="348.681" x2="241.241" y2="203.161" gradientUnits="userSpaceOnUse">
<stop stop-color="#FA9814"/>
<stop offset="0.47" stop-color="#FCB729"/>
<stop offset="0.99" stop-color="#FFDE43"/>
</linearGradient>
<linearGradient id="paint7_linear_862_12509" x1="241.241" y1="348.681" x2="241.241" y2="203.161" gradientUnits="userSpaceOnUse">
<stop stop-color="#FA9814"/>
<stop offset="0.47" stop-color="#FCB729"/>
<stop offset="0.99" stop-color="#FFDE43"/>
</linearGradient>
<radialGradient id="paint8_radial_862_12509" cx="0" cy="0" r="1" gradientUnits="userSpaceOnUse" gradientTransform="translate(335.832 219.824) scale(33.2712 39.2179)">
<stop stop-color="#743C1C"/>
<stop offset="1" stop-color="#401C02"/>
</radialGradient>
<linearGradient id="paint9_linear_862_12509" x1="335.869" y1="261.203" x2="335.869" y2="178.181" gradientUnits="userSpaceOnUse">
<stop stop-color="#FFDE43"/>
<stop offset="0.22" stop-color="#FED93F"/>
<stop offset="0.51" stop-color="#FCC934"/>
<stop offset="0.82" stop-color="#F9AF21"/>
<stop offset="1" stop-color="#F79D14"/>
</linearGradient>
<radialGradient id="paint10_radial_862_12509" cx="0" cy="0" r="1" gradientUnits="userSpaceOnUse" gradientTransform="translate(144.892 219.824) scale(33.2712 39.2179)">
<stop stop-color="#743C1C"/>
<stop offset="1" stop-color="#401C02"/>
</radialGradient>
<linearGradient id="paint11_linear_862_12509" x1="144.928" y1="261.203" x2="144.928" y2="178.181" gradientUnits="userSpaceOnUse">
<stop stop-color="#FFDE43"/>
<stop offset="0.22" stop-color="#FED93F"/>
<stop offset="0.51" stop-color="#FCC934"/>
<stop offset="0.82" stop-color="#F9AF21"/>
<stop offset="1" stop-color="#F79D14"/>
</linearGradient>
<linearGradient id="paint12_linear_862_12509" x1="118.209" y1="305.51" x2="118.209" y2="143.39" gradientUnits="userSpaceOnUse">
<stop offset="0.03" stop-color="white" stop-opacity="0"/>
<stop offset="0.21" stop-color="white" stop-opacity="0.11"/>
<stop offset="0.57" stop-color="white" stop-opacity="0.32"/>
<stop offset="0.85" stop-color="white" stop-opacity="0.45"/>
<stop offset="1" stop-color="white" stop-opacity="0.5"/>
</linearGradient>
<linearGradient id="paint13_linear_862_12509" x1="361.941" y1="305.737" x2="361.941" y2="141.623" gradientUnits="userSpaceOnUse">
<stop offset="0.03" stop-color="white" stop-opacity="0"/>
<stop offset="0.21" stop-color="white" stop-opacity="0.11"/>
<stop offset="0.57" stop-color="white" stop-opacity="0.32"/>
<stop offset="0.85" stop-color="white" stop-opacity="0.45"/>
<stop offset="1" stop-color="white" stop-opacity="0.5"/>
</linearGradient>
</defs>
</svg>
