<svg width="483" height="483" viewBox="0 0 483 483" fill="none" xmlns="http://www.w3.org/2000/svg">
<path d="M241.18 482.36C374.38 482.36 482.36 374.38 482.36 241.18C482.36 107.98 374.38 0 241.18 0C107.98 0 0 107.98 0 241.18C0 374.38 107.98 482.36 241.18 482.36Z" fill="url(#paint0_radial_862_12579)"/>
<g style="mix-blend-mode:soft-light">
<path d="M241.18 482.36C374.38 482.36 482.36 374.38 482.36 241.18C482.36 107.98 374.38 0 241.18 0C107.98 0 0 107.98 0 241.18C0 374.38 107.98 482.36 241.18 482.36Z" fill="url(#paint1_radial_862_12579)"/>
</g>
<g style="mix-blend-mode:soft-light">
<path d="M241.18 482.36C374.38 482.36 482.36 374.38 482.36 241.18C482.36 107.98 374.38 0 241.18 0C107.98 0 0 107.98 0 241.18C0 374.38 107.98 482.36 241.18 482.36Z" fill="url(#paint2_radial_862_12579)"/>
</g>
<g style="mix-blend-mode:overlay">
<path d="M241.18 482.36C374.38 482.36 482.36 374.38 482.36 241.18C482.36 107.98 374.38 0 241.18 0C107.98 0 0 107.98 0 241.18C0 374.38 107.98 482.36 241.18 482.36Z" fill="url(#paint3_radial_862_12579)"/>
</g>
<mask id="mask0_862_12579" style="mask-type:alpha" maskUnits="userSpaceOnUse" x="0" y="0" width="483" height="483">
<path d="M241.18 482.36C374.38 482.36 482.36 374.38 482.36 241.18C482.36 107.98 374.38 0 241.18 0C107.98 0 0 107.98 0 241.18C0 374.38 107.98 482.36 241.18 482.36Z" fill="white"/>
</mask>
<g mask="url(#mask0_862_12579)">
<g filter="url(#filter0_f_862_12579)">
<path d="M-1.3759 234.299C-1.11402 230.872 0.0137008 230.529 0.342619 234.008C0.708055 237.874 -0.00231624 245.646 0.16871 250.335C0.621554 262.748 2.52441 273.541 4.48605 282.32C10.8075 310.612 19.5617 328.843 27.7268 344.288C54.5663 395.06 83.9667 420.77 112.648 440.147C154.689 468.549 197.072 477.584 239.49 479.5C240.56 479.548 240.738 486.518 239.686 487.425C237.788 489.061 235.436 487.437 233.494 487.369C227.915 487.174 222.335 486.791 216.756 486.211C200.213 484.492 183.67 480.991 167.162 475.358C122.275 460.044 73.8765 433.821 31.6092 359.962C28.9502 355.316 26.3124 350.424 23.7118 345.167C21.6321 340.963 19.5726 336.556 17.5493 331.843C10.8946 316.342 -4.61323 276.658 -1.3759 234.299ZM239.52 487.5C238.499 487.531 238.241 481.034 239.214 479.685C240.684 477.647 242.888 479.326 244.439 479.229C250.877 478.826 257.314 478.229 263.75 477.421C281.395 475.205 299.028 471.422 316.621 465.596C360.257 451.145 407.17 429.115 448.305 361.431C450.923 357.123 453.518 352.553 456.079 347.641C463.86 332.712 483.361 293.084 481.107 243.821C480.917 239.668 482.181 237.181 482.747 240.743C483.467 245.279 483.175 254.736 482.977 259.768C482.341 275.883 479.866 289.512 477.257 300.518C468.987 335.399 457.376 355.623 446.744 372.51C412.184 427.397 374.648 449.524 338.155 465.424C305.424 479.686 272.444 486.484 239.52 487.5Z" fill="#401C02"/>
</g>
<g filter="url(#filter1_f_862_12579)">
<path d="M-1.3759 234.299C-1.11402 230.872 0.0137008 230.529 0.342619 234.008C0.708055 237.874 -0.00231624 245.646 0.16871 250.335C0.621554 262.748 2.52441 273.541 4.48605 282.32C10.8075 310.612 19.5617 328.843 27.7268 344.288C54.5663 395.06 83.9667 420.77 112.648 440.147C154.689 468.549 197.072 477.584 239.49 479.5C240.56 479.548 240.738 486.518 239.686 487.425C237.788 489.061 235.436 487.437 233.494 487.369C227.915 487.174 222.335 486.791 216.756 486.211C200.213 484.492 183.67 480.991 167.162 475.358C122.275 460.044 73.8765 433.821 31.6092 359.962C28.9502 355.316 26.3124 350.424 23.7118 345.167C21.6321 340.963 19.5726 336.556 17.5493 331.843C10.8946 316.342 -4.61323 276.658 -1.3759 234.299ZM239.52 487.5C238.499 487.531 238.241 481.034 239.214 479.685C240.684 477.647 242.888 479.326 244.439 479.229C250.877 478.826 257.314 478.229 263.75 477.421C281.395 475.205 299.028 471.422 316.621 465.596C360.257 451.145 407.17 429.115 448.305 361.431C450.923 357.123 453.518 352.553 456.079 347.641C463.86 332.712 483.361 293.084 481.107 243.821C480.917 239.668 482.181 237.181 482.747 240.743C483.467 245.279 483.175 254.736 482.977 259.768C482.341 275.883 479.866 289.512 477.257 300.518C468.987 335.399 457.376 355.623 446.744 372.51C412.184 427.397 374.648 449.524 338.155 465.424C305.424 479.686 272.444 486.484 239.52 487.5Z" fill="#401C02"/>
</g>
</g>
<path d="M241.32 431.07C272.425 431.07 297.64 405.855 297.64 374.75C297.64 343.645 272.425 318.43 241.32 318.43C210.215 318.43 185 343.645 185 374.75C185 405.855 210.215 431.07 241.32 431.07Z" fill="url(#paint4_radial_862_12579)"/>
<path d="M241.32 432.32C273.115 432.32 298.89 406.545 298.89 374.75C298.89 342.955 273.115 317.18 241.32 317.18C209.525 317.18 183.75 342.955 183.75 374.75C183.75 406.545 209.525 432.32 241.32 432.32Z" stroke="url(#paint5_linear_862_12579)" stroke-width="2.5" stroke-miterlimit="10"/>
<path d="M241.32 429.43C271.519 429.43 296 404.949 296 374.75C296 344.551 271.519 320.07 241.32 320.07C211.121 320.07 186.64 344.551 186.64 374.75C186.64 404.949 211.121 429.43 241.32 429.43Z" stroke="url(#paint6_linear_862_12579)" stroke-width="4" stroke-miterlimit="10"/>
<path d="M157.28 212.46L189.23 180.51C191.882 177.858 193.372 174.261 193.372 170.51C193.372 166.76 191.882 163.162 189.23 160.51C186.578 157.858 182.981 156.368 179.23 156.368C175.479 156.368 171.882 157.858 169.23 160.51L137.28 192.51L105.28 160.51C102.628 157.858 99.0306 156.368 95.2798 156.368C91.5291 156.368 87.932 157.858 85.2798 160.51C82.6277 163.162 81.1377 166.76 81.1377 170.51C81.1377 174.261 82.6277 177.858 85.2798 180.51L117.28 212.46L85.3698 244.41C84.054 245.722 83.0099 247.281 82.2976 248.997C81.5852 250.713 81.2185 252.552 81.2185 254.41C81.2185 256.268 81.5852 258.108 82.2976 259.824C83.0099 261.54 84.054 263.099 85.3698 264.41C86.6822 265.725 88.241 266.768 89.9569 267.48C91.6728 268.191 93.5122 268.557 95.3698 268.557C97.2274 268.557 99.0668 268.191 100.783 267.48C102.499 266.768 104.057 265.725 105.37 264.41L137.37 232.41L169.32 264.41C170.632 265.725 172.191 266.768 173.907 267.48C175.623 268.191 177.462 268.557 179.32 268.557C181.177 268.557 183.017 268.191 184.733 267.48C186.449 266.768 188.007 265.725 189.32 264.41C190.636 263.099 191.68 261.54 192.392 259.824C193.104 258.108 193.471 256.268 193.471 254.41C193.471 252.552 193.104 250.713 192.392 248.997C191.68 247.281 190.636 245.722 189.32 244.41L157.28 212.46Z" fill="url(#paint7_radial_862_12579)"/>
<path d="M365.609 212.46L397.559 180.51C400.211 177.858 401.701 174.261 401.701 170.51C401.701 166.76 400.211 163.162 397.559 160.51C394.907 157.858 391.31 156.368 387.559 156.368C383.808 156.368 380.211 157.858 377.559 160.51L345.559 192.51L313.559 160.51C310.907 157.858 307.31 156.368 303.559 156.368C299.808 156.368 296.211 157.858 293.559 160.51C290.907 163.162 289.417 166.76 289.417 170.51C289.417 174.261 290.907 177.858 293.559 180.51L325.559 212.46L293.559 244.41C292.246 245.723 291.204 247.282 290.493 248.998C289.782 250.714 289.416 252.553 289.416 254.41C289.416 256.268 289.782 258.107 290.493 259.822C291.204 261.538 292.246 263.097 293.559 264.41C294.872 265.724 296.431 266.766 298.147 267.477C299.863 268.187 301.702 268.553 303.559 268.553C305.416 268.553 307.255 268.187 308.971 267.477C310.687 266.766 312.246 265.724 313.559 264.41L345.559 232.41L377.559 264.41C378.871 265.725 380.43 266.768 382.146 267.48C383.862 268.191 385.701 268.557 387.559 268.557C389.417 268.557 391.256 268.191 392.972 267.48C394.688 266.768 396.247 265.725 397.559 264.41C398.875 263.099 399.919 261.54 400.631 259.824C401.344 258.108 401.71 256.268 401.71 254.41C401.71 252.552 401.344 250.713 400.631 248.997C399.919 247.281 398.875 245.722 397.559 244.41L365.609 212.46Z" fill="url(#paint8_radial_862_12579)"/>
<path d="M157.28 212.46L189.23 180.51C191.882 177.858 193.372 174.261 193.372 170.51C193.372 166.76 191.882 163.162 189.23 160.51C186.578 157.858 182.981 156.368 179.23 156.368C175.479 156.368 171.882 157.858 169.23 160.51L137.28 192.51L105.28 160.51C102.628 157.858 99.0306 156.368 95.2798 156.368C91.5291 156.368 87.932 157.858 85.2798 160.51C82.6277 163.162 81.1377 166.76 81.1377 170.51C81.1377 174.261 82.6277 177.858 85.2798 180.51L117.28 212.46L85.3698 244.41C84.054 245.722 83.0099 247.281 82.2976 248.997C81.5852 250.713 81.2185 252.552 81.2185 254.41C81.2185 256.268 81.5852 258.108 82.2976 259.824C83.0099 261.54 84.054 263.099 85.3698 264.41V264.41C86.6822 265.725 88.241 266.768 89.9569 267.48C91.6728 268.191 93.5122 268.557 95.3698 268.557C97.2274 268.557 99.0668 268.191 100.783 267.48C102.499 266.768 104.057 265.725 105.37 264.41L137.37 232.41L169.32 264.41C170.632 265.725 172.191 266.768 173.907 267.48C175.623 268.191 177.462 268.557 179.32 268.557C181.177 268.557 183.017 268.191 184.733 267.48C186.449 266.768 188.007 265.725 189.32 264.41C190.636 263.099 191.68 261.54 192.392 259.824C193.104 258.108 193.471 256.268 193.471 254.41C193.471 252.552 193.104 250.713 192.392 248.997C191.68 247.281 190.636 245.722 189.32 244.41L157.28 212.46Z" stroke="url(#paint9_linear_862_12579)" stroke-width="2" stroke-miterlimit="10"/>
<path d="M365.609 212.46L397.559 180.51C400.211 177.858 401.701 174.261 401.701 170.51C401.701 166.76 400.211 163.162 397.559 160.51C394.907 157.858 391.31 156.368 387.559 156.368C383.808 156.368 380.211 157.858 377.559 160.51L345.559 192.51L313.559 160.51C310.907 157.858 307.31 156.368 303.559 156.368C299.808 156.368 296.211 157.858 293.559 160.51C290.907 163.162 289.417 166.76 289.417 170.51C289.417 174.261 290.907 177.858 293.559 180.51L325.559 212.46L293.559 244.41C292.246 245.723 291.204 247.282 290.493 248.998C289.782 250.714 289.416 252.553 289.416 254.41C289.416 256.268 289.782 258.107 290.493 259.822C291.204 261.538 292.246 263.097 293.559 264.41V264.41C294.872 265.724 296.431 266.766 298.147 267.477C299.863 268.187 301.702 268.553 303.559 268.553C305.416 268.553 307.255 268.187 308.971 267.477C310.687 266.766 312.246 265.724 313.559 264.41L345.559 232.41L377.559 264.41C378.871 265.725 380.43 266.768 382.146 267.48C383.862 268.191 385.701 268.557 387.559 268.557C389.417 268.557 391.256 268.191 392.972 267.48C394.688 266.768 396.247 265.725 397.559 264.41V264.41C398.875 263.099 399.919 261.54 400.631 259.824C401.344 258.108 401.71 256.268 401.71 254.41C401.71 252.552 401.344 250.713 400.631 248.997C399.919 247.281 398.875 245.722 397.559 244.41L365.609 212.46Z" stroke="url(#paint10_linear_862_12579)" stroke-width="2" stroke-miterlimit="10"/>
<path d="M81.509 115.99C87.939 108.68 128.249 65.9901 173.779 86.7701C175.212 87.3943 176.389 88.4885 177.116 89.872C177.844 91.2556 178.077 92.8458 177.779 94.3801C177.349 96.2701 176.089 98.0501 173.069 98.7101C160.009 101.58 133.909 90.8901 97.719 115.71C94.6003 117.908 91.5963 120.264 88.719 122.77C86.619 124.55 83.199 126.77 80.719 125.08C78.599 123.62 78.809 121.28 79.409 119.49C79.8716 118.196 80.5853 117.007 81.509 115.99Z" fill="#42210B"/>
<path d="M401.419 115.99C394.989 108.68 354.679 65.9901 309.149 86.7701C307.715 87.3928 306.537 88.4868 305.809 89.8707C305.082 91.2547 304.849 92.8457 305.149 94.3801C305.579 96.2701 306.839 98.0501 309.859 98.7101C322.919 101.58 349.019 90.8901 385.209 115.71C388.326 117.911 391.33 120.267 394.209 122.77C396.299 124.55 399.729 126.77 402.209 125.08C404.319 123.62 404.119 121.28 403.519 119.49C403.057 118.196 402.343 117.007 401.419 115.99Z" fill="#42210B"/>
<defs>
<filter id="filter0_f_862_12579" x="-26.8149" y="206.558" width="535.022" height="306.595" filterUnits="userSpaceOnUse" color-interpolation-filters="sRGB">
<feFlood flood-opacity="0" result="BackgroundImageFix"/>
<feBlend mode="normal" in="SourceGraphic" in2="BackgroundImageFix" result="shape"/>
<feGaussianBlur stdDeviation="12.5" result="effect1_foregroundBlur_862_12579"/>
</filter>
<filter id="filter1_f_862_12579" x="-41.8149" y="191.558" width="565.022" height="336.595" filterUnits="userSpaceOnUse" color-interpolation-filters="sRGB">
<feFlood flood-opacity="0" result="BackgroundImageFix"/>
<feBlend mode="normal" in="SourceGraphic" in2="BackgroundImageFix" result="shape"/>
<feGaussianBlur stdDeviation="20" result="effect1_foregroundBlur_862_12579"/>
</filter>
<radialGradient id="paint0_radial_862_12579" cx="0" cy="0" r="1" gradientUnits="userSpaceOnUse" gradientTransform="translate(241 -4.53898e-06) rotate(90) scale(482)">
<stop stop-color="#FFDE43"/>
<stop offset="1" stop-color="#FFBC00"/>
</radialGradient>
<radialGradient id="paint1_radial_862_12579" cx="0" cy="0" r="1" gradientUnits="userSpaceOnUse" gradientTransform="translate(241 64.5) rotate(90) scale(417.5)">
<stop stop-color="white" stop-opacity="0.5"/>
<stop offset="0.782278"/>
</radialGradient>
<radialGradient id="paint2_radial_862_12579" cx="0" cy="0" r="1" gradientUnits="userSpaceOnUse" gradientTransform="translate(241 64.5) rotate(90) scale(417.5)">
<stop stop-color="white" stop-opacity="0.5"/>
<stop offset="0.782278"/>
</radialGradient>
<radialGradient id="paint3_radial_862_12579" cx="0" cy="0" r="1" gradientUnits="userSpaceOnUse" gradientTransform="translate(241 -52.5) rotate(90) scale(534.5 722.835)">
<stop offset="0.0922635" stop-color="white"/>
<stop offset="0.670207" stop-color="white" stop-opacity="0"/>
</radialGradient>
<radialGradient id="paint4_radial_862_12579" cx="0" cy="0" r="1" gradientUnits="userSpaceOnUse" gradientTransform="translate(241.242 374.713) scale(71.7943 56.4177)">
<stop stop-color="#743C1C"/>
<stop offset="1" stop-color="#401C02"/>
</radialGradient>
<linearGradient id="paint5_linear_862_12579" x1="241.32" y1="434.24" x2="241.32" y2="314.806" gradientUnits="userSpaceOnUse">
<stop offset="0.265625" stop-color="#FFDE43"/>
<stop offset="1" stop-color="#F79D14"/>
</linearGradient>
<linearGradient id="paint6_linear_862_12579" x1="241.32" y1="431.42" x2="241.32" y2="318.07" gradientUnits="userSpaceOnUse">
<stop stop-color="#401C02"/>
<stop offset="1" stop-color="#401C02"/>
</linearGradient>
<radialGradient id="paint7_radial_862_12579" cx="0" cy="0" r="1" gradientUnits="userSpaceOnUse" gradientTransform="translate(137.227 212.425) scale(71.5989 56.192)">
<stop stop-color="#743C1C"/>
<stop offset="1" stop-color="#401C02"/>
</radialGradient>
<radialGradient id="paint8_radial_862_12579" cx="0" cy="0" r="1" gradientUnits="userSpaceOnUse" gradientTransform="translate(345.485 212.425) scale(71.574 56.192)">
<stop stop-color="#743C1C"/>
<stop offset="1" stop-color="#401C02"/>
</radialGradient>
<linearGradient id="paint9_linear_862_12579" x1="137.304" y1="271.714" x2="137.304" y2="152.758" gradientUnits="userSpaceOnUse">
<stop stop-color="#FFDE43"/>
<stop offset="0.22" stop-color="#FED93F"/>
<stop offset="0.51" stop-color="#FCC934"/>
<stop offset="0.82" stop-color="#F9AF21"/>
<stop offset="1" stop-color="#F79D14"/>
</linearGradient>
<linearGradient id="paint10_linear_862_12579" x1="345.563" y1="271.714" x2="345.563" y2="152.758" gradientUnits="userSpaceOnUse">
<stop stop-color="#FFDE43"/>
<stop offset="0.22" stop-color="#FED93F"/>
<stop offset="0.51" stop-color="#FCC934"/>
<stop offset="0.82" stop-color="#F9AF21"/>
<stop offset="1" stop-color="#F79D14"/>
</linearGradient>
</defs>
</svg>
