<svg width="483" height="483" viewBox="0 0 483 483" fill="none" xmlns="http://www.w3.org/2000/svg">
<path d="M241.18 482.36C374.38 482.36 482.36 374.38 482.36 241.18C482.36 107.98 374.38 0 241.18 0C107.98 0 0 107.98 0 241.18C0 374.38 107.98 482.36 241.18 482.36Z" fill="url(#paint0_radial_862_12476)"/>
<g style="mix-blend-mode:soft-light">
<path d="M241.18 482.36C374.38 482.36 482.36 374.38 482.36 241.18C482.36 107.98 374.38 0 241.18 0C107.98 0 0 107.98 0 241.18C0 374.38 107.98 482.36 241.18 482.36Z" fill="url(#paint1_radial_862_12476)"/>
</g>
<g style="mix-blend-mode:soft-light">
<path d="M241.18 482.36C374.38 482.36 482.36 374.38 482.36 241.18C482.36 107.98 374.38 0 241.18 0C107.98 0 0 107.98 0 241.18C0 374.38 107.98 482.36 241.18 482.36Z" fill="url(#paint2_radial_862_12476)"/>
</g>
<g style="mix-blend-mode:overlay">
<path d="M241.18 482.36C374.38 482.36 482.36 374.38 482.36 241.18C482.36 107.98 374.38 0 241.18 0C107.98 0 0 107.98 0 241.18C0 374.38 107.98 482.36 241.18 482.36Z" fill="url(#paint3_radial_862_12476)" fill-opacity="0.7"/>
</g>
<mask id="mask0_862_12476" style="mask-type:alpha" maskUnits="userSpaceOnUse" x="0" y="0" width="483" height="483">
<path d="M241.18 482.36C374.38 482.36 482.36 374.38 482.36 241.18C482.36 107.98 374.38 0 241.18 0C107.98 0 0 107.98 0 241.18C0 374.38 107.98 482.36 241.18 482.36Z" fill="white"/>
</mask>
<g mask="url(#mask0_862_12476)">
<g filter="url(#filter0_f_862_12476)">
<path d="M-1.3759 234.299C-1.11402 230.872 0.0137008 230.529 0.342619 234.008C0.708055 237.874 -0.00231624 245.646 0.16871 250.335C0.621554 262.748 2.52441 273.541 4.48605 282.32C10.8075 310.612 19.5617 328.843 27.7268 344.288C54.5663 395.06 83.9667 420.77 112.648 440.147C154.689 468.549 197.072 477.584 239.49 479.5C240.56 479.548 240.738 486.518 239.686 487.425C237.788 489.061 235.436 487.437 233.494 487.369C227.915 487.174 222.335 486.791 216.756 486.211C200.213 484.492 183.67 480.991 167.162 475.358C122.275 460.044 73.8765 433.821 31.6092 359.962C28.9502 355.316 26.3124 350.424 23.7118 345.167C21.6321 340.963 19.5726 336.556 17.5493 331.843C10.8946 316.342 -4.61323 276.658 -1.3759 234.299ZM239.52 487.5C238.499 487.531 238.241 481.034 239.214 479.685C240.684 477.647 242.888 479.326 244.439 479.229C250.877 478.826 257.314 478.229 263.75 477.421C281.395 475.205 299.028 471.422 316.621 465.596C360.257 451.145 407.17 429.115 448.305 361.431C450.923 357.123 453.518 352.553 456.079 347.641C463.86 332.712 483.361 293.084 481.107 243.821C480.917 239.668 482.181 237.181 482.747 240.743C483.467 245.279 483.175 254.736 482.977 259.768C482.341 275.883 479.866 289.512 477.257 300.518C468.987 335.399 457.376 355.623 446.744 372.51C412.184 427.397 374.648 449.524 338.155 465.424C305.424 479.686 272.444 486.484 239.52 487.5Z" fill="#401C02"/>
</g>
<g filter="url(#filter1_f_862_12476)">
<path d="M-1.3759 234.299C-1.11402 230.872 0.0137008 230.529 0.342619 234.008C0.708055 237.874 -0.00231624 245.646 0.16871 250.335C0.621554 262.748 2.52441 273.541 4.48605 282.32C10.8075 310.612 19.5617 328.843 27.7268 344.288C54.5663 395.06 83.9667 420.77 112.648 440.147C154.689 468.549 197.072 477.584 239.49 479.5C240.56 479.548 240.738 486.518 239.686 487.425C237.788 489.061 235.436 487.437 233.494 487.369C227.915 487.174 222.335 486.791 216.756 486.211C200.213 484.492 183.67 480.991 167.162 475.358C122.275 460.044 73.8765 433.821 31.6092 359.962C28.9502 355.316 26.3124 350.424 23.7118 345.167C21.6321 340.963 19.5726 336.556 17.5493 331.843C10.8946 316.342 -4.61323 276.658 -1.3759 234.299ZM239.52 487.5C238.499 487.531 238.241 481.034 239.214 479.685C240.684 477.647 242.888 479.326 244.439 479.229C250.877 478.826 257.314 478.229 263.75 477.421C281.395 475.205 299.028 471.422 316.621 465.596C360.257 451.145 407.17 429.115 448.305 361.431C450.923 357.123 453.518 352.553 456.079 347.641C463.86 332.712 483.361 293.084 481.107 243.821C480.917 239.668 482.181 237.181 482.747 240.743C483.467 245.279 483.175 254.736 482.977 259.768C482.341 275.883 479.866 289.512 477.257 300.518C468.987 335.399 457.376 355.623 446.744 372.51C412.184 427.397 374.648 449.524 338.155 465.424C305.424 479.686 272.444 486.484 239.52 487.5Z" fill="#401C02"/>
</g>
</g>
<path d="M282.424 264.1C281.513 263.182 280.898 262.012 280.659 260.741C280.42 259.47 280.568 258.156 281.084 256.97C292.924 229.74 320.704 210.63 353.084 210.63C385.464 210.63 413.204 229.74 425.084 256.96C425.601 258.148 425.749 259.464 425.508 260.738C425.268 262.011 424.65 263.182 423.734 264.1C422.551 265.264 420.965 265.927 419.305 265.951C417.646 265.975 416.041 265.359 414.824 264.23C400.054 250.87 377.894 242.38 353.114 242.38C328.334 242.38 306.114 250.87 291.374 264.24C290.159 265.371 288.553 265.989 286.893 265.965C285.233 265.94 283.646 265.276 282.464 264.11L282.424 264.1Z" fill="url(#paint4_radial_862_12476)"/>
<path d="M57.8743 264.1C56.9645 263.185 56.3503 262.019 56.1114 260.751C55.8725 259.483 56.0198 258.173 56.5343 256.99C68.3743 229.76 96.1543 210.65 128.534 210.65C160.914 210.65 188.664 229.76 200.534 256.98C201.053 258.167 201.202 259.483 200.963 260.756C200.724 262.029 200.108 263.201 199.194 264.12C198.011 265.284 196.425 265.947 194.765 265.971C193.106 265.995 191.501 265.379 190.284 264.25C175.514 250.89 153.354 242.4 128.564 242.4C103.774 242.4 81.6143 250.89 66.8343 264.26C65.6188 265.391 64.0134 266.009 62.3532 265.985C60.6929 265.96 59.1063 265.296 57.9243 264.13L57.8743 264.1Z" fill="url(#paint5_radial_862_12476)"/>
<path d="M282.424 264.1C281.513 263.182 280.898 262.012 280.659 260.741C280.42 259.47 280.568 258.156 281.084 256.97C292.924 229.74 320.704 210.63 353.084 210.63C385.464 210.63 413.204 229.74 425.084 256.96C425.601 258.148 425.749 259.464 425.508 260.738C425.268 262.011 424.65 263.182 423.734 264.1V264.1C422.551 265.264 420.965 265.927 419.305 265.951C417.646 265.975 416.041 265.359 414.824 264.23C400.054 250.87 377.894 242.38 353.114 242.38C328.334 242.38 306.114 250.87 291.374 264.24C290.159 265.371 288.553 265.989 286.893 265.965C285.233 265.94 283.646 265.276 282.464 264.11L282.424 264.1Z" stroke="url(#paint6_linear_862_12476)" stroke-width="2" stroke-miterlimit="10"/>
<path d="M57.8743 264.1C56.9645 263.185 56.3503 262.019 56.1114 260.751C55.8725 259.483 56.0198 258.173 56.5343 256.99C68.3743 229.76 96.1543 210.65 128.534 210.65C160.914 210.65 188.664 229.76 200.534 256.98C201.053 258.167 201.202 259.483 200.963 260.756C200.724 262.029 200.108 263.201 199.194 264.12V264.12C198.011 265.284 196.425 265.947 194.765 265.971C193.106 265.995 191.501 265.379 190.284 264.25C175.514 250.89 153.354 242.4 128.564 242.4C103.774 242.4 81.6143 250.89 66.8343 264.26C65.6188 265.391 64.0134 266.009 62.3532 265.985C60.6929 265.96 59.1063 265.296 57.9243 264.13L57.8743 264.1Z" stroke="url(#paint7_linear_862_12476)" stroke-width="2" stroke-miterlimit="10"/>
<path d="M170.756 401.2C170.369 401.5 169.897 401.67 169.407 401.686C168.918 401.702 168.435 401.564 168.029 401.29C167.623 401.017 167.313 400.622 167.144 400.163C166.974 399.703 166.954 399.202 167.086 398.73C175.376 367.12 205.476 343.73 241.346 343.73C277.216 343.73 307.346 367.17 315.616 398.8C315.748 399.272 315.728 399.773 315.559 400.233C315.389 400.692 315.079 401.087 314.673 401.36C314.267 401.634 313.784 401.772 313.295 401.756C312.805 401.74 312.333 401.57 311.946 401.27C294.106 387.61 269.056 379.12 241.346 379.12C213.636 379.12 188.586 387.58 170.756 401.2Z" fill="url(#paint8_radial_862_12476)"/>
<path d="M170.756 401.2C170.369 401.5 169.897 401.67 169.407 401.686C168.918 401.702 168.435 401.564 168.029 401.29C167.623 401.017 167.313 400.622 167.144 400.163C166.974 399.703 166.954 399.202 167.086 398.73C175.376 367.12 205.476 343.73 241.346 343.73C277.216 343.73 307.346 367.17 315.616 398.8C315.748 399.272 315.728 399.773 315.559 400.233C315.389 400.692 315.079 401.087 314.673 401.36C314.267 401.634 313.784 401.772 313.295 401.756C312.805 401.74 312.333 401.57 311.946 401.27C294.106 387.61 269.056 379.12 241.346 379.12C213.636 379.12 188.586 387.58 170.756 401.2Z" stroke="url(#paint9_linear_862_12476)" stroke-width="2.5" stroke-miterlimit="10"/>
<defs>
<filter id="filter0_f_862_12476" x="-26.8149" y="206.558" width="535.022" height="306.595" filterUnits="userSpaceOnUse" color-interpolation-filters="sRGB">
<feFlood flood-opacity="0" result="BackgroundImageFix"/>
<feBlend mode="normal" in="SourceGraphic" in2="BackgroundImageFix" result="shape"/>
<feGaussianBlur stdDeviation="12.5" result="effect1_foregroundBlur_862_12476"/>
</filter>
<filter id="filter1_f_862_12476" x="-41.8149" y="191.558" width="565.022" height="336.595" filterUnits="userSpaceOnUse" color-interpolation-filters="sRGB">
<feFlood flood-opacity="0" result="BackgroundImageFix"/>
<feBlend mode="normal" in="SourceGraphic" in2="BackgroundImageFix" result="shape"/>
<feGaussianBlur stdDeviation="20" result="effect1_foregroundBlur_862_12476"/>
</filter>
<radialGradient id="paint0_radial_862_12476" cx="0" cy="0" r="1" gradientUnits="userSpaceOnUse" gradientTransform="translate(241 -4.53898e-06) rotate(90) scale(482)">
<stop stop-color="#FFDE43"/>
<stop offset="1" stop-color="#FFBC00"/>
</radialGradient>
<radialGradient id="paint1_radial_862_12476" cx="0" cy="0" r="1" gradientUnits="userSpaceOnUse" gradientTransform="translate(241 64.5) rotate(90) scale(417.5)">
<stop stop-color="white" stop-opacity="0.5"/>
<stop offset="0.782278"/>
</radialGradient>
<radialGradient id="paint2_radial_862_12476" cx="0" cy="0" r="1" gradientUnits="userSpaceOnUse" gradientTransform="translate(241 64.5) rotate(90) scale(417.5)">
<stop stop-color="white" stop-opacity="0.5"/>
<stop offset="0.782278"/>
</radialGradient>
<radialGradient id="paint3_radial_862_12476" cx="0" cy="0" r="1" gradientUnits="userSpaceOnUse" gradientTransform="translate(241 -52.5) rotate(90) scale(534.5 722.835)">
<stop offset="0.0922635" stop-color="white"/>
<stop offset="0.670207" stop-color="white" stop-opacity="0"/>
</radialGradient>
<radialGradient id="paint4_radial_862_12476" cx="0" cy="0" r="1" gradientUnits="userSpaceOnUse" gradientTransform="translate(352.984 238.279) scale(92.4665 27.7157)">
<stop stop-color="#743C1C"/>
<stop offset="1" stop-color="#401C02"/>
</radialGradient>
<radialGradient id="paint5_radial_862_12476" cx="0" cy="0" r="1" gradientUnits="userSpaceOnUse" gradientTransform="translate(128.437 238.299) scale(92.4669 27.7157)">
<stop stop-color="#743C1C"/>
<stop offset="1" stop-color="#401C02"/>
</radialGradient>
<linearGradient id="paint6_linear_862_12476" x1="353.084" y1="267.522" x2="353.084" y2="208.849" gradientUnits="userSpaceOnUse">
<stop stop-color="#FFDE43"/>
<stop offset="0.22" stop-color="#FED93F"/>
<stop offset="0.51" stop-color="#FCC934"/>
<stop offset="0.82" stop-color="#F9AF21"/>
<stop offset="1" stop-color="#F79D14"/>
</linearGradient>
<linearGradient id="paint7_linear_862_12476" x1="128.537" y1="267.542" x2="128.537" y2="208.869" gradientUnits="userSpaceOnUse">
<stop stop-color="#FFDE43"/>
<stop offset="0.22" stop-color="#FED93F"/>
<stop offset="0.51" stop-color="#FCC934"/>
<stop offset="0.82" stop-color="#F9AF21"/>
<stop offset="1" stop-color="#F79D14"/>
</linearGradient>
<radialGradient id="paint8_radial_862_12476" cx="0" cy="0" r="1" gradientUnits="userSpaceOnUse" gradientTransform="translate(241.351 372.626) scale(56.1219 58.6108)">
<stop stop-color="#743C1C"/>
<stop offset="1" stop-color="#401C02"/>
</radialGradient>
<linearGradient id="paint9_linear_862_12476" x1="241.351" y1="403.39" x2="241.351" y2="341.863" gradientUnits="userSpaceOnUse">
<stop offset="0.265625" stop-color="#FFDE43"/>
<stop offset="1" stop-color="#F79D14"/>
</linearGradient>
</defs>
</svg>
