<svg width="483" height="483" viewBox="0 0 483 483" fill="none" xmlns="http://www.w3.org/2000/svg">
<path d="M241.18 482.36C374.38 482.36 482.36 374.38 482.36 241.18C482.36 107.98 374.38 0 241.18 0C107.98 0 0 107.98 0 241.18C0 374.38 107.98 482.36 241.18 482.36Z" fill="url(#paint0_radial_862_12543)"/>
<g style="mix-blend-mode:soft-light">
<path d="M241.18 482.36C374.38 482.36 482.36 374.38 482.36 241.18C482.36 107.98 374.38 0 241.18 0C107.98 0 0 107.98 0 241.18C0 374.38 107.98 482.36 241.18 482.36Z" fill="url(#paint1_radial_862_12543)"/>
</g>
<g style="mix-blend-mode:soft-light">
<path d="M241.18 482.36C374.38 482.36 482.36 374.38 482.36 241.18C482.36 107.98 374.38 0 241.18 0C107.98 0 0 107.98 0 241.18C0 374.38 107.98 482.36 241.18 482.36Z" fill="url(#paint2_radial_862_12543)"/>
</g>
<g style="mix-blend-mode:overlay">
<path d="M241.18 482.36C374.38 482.36 482.36 374.38 482.36 241.18C482.36 107.98 374.38 0 241.18 0C107.98 0 0 107.98 0 241.18C0 374.38 107.98 482.36 241.18 482.36Z" fill="url(#paint3_radial_862_12543)" fill-opacity="0.7"/>
</g>
<mask id="mask0_862_12543" style="mask-type:alpha" maskUnits="userSpaceOnUse" x="0" y="0" width="483" height="483">
<path d="M241.18 482.36C374.38 482.36 482.36 374.38 482.36 241.18C482.36 107.98 374.38 0 241.18 0C107.98 0 0 107.98 0 241.18C0 374.38 107.98 482.36 241.18 482.36Z" fill="white"/>
</mask>
<g mask="url(#mask0_862_12543)">
<g filter="url(#filter0_f_862_12543)">
<path d="M-1.37541 234.299C-1.11353 230.872 0.0141891 230.529 0.343108 234.008C0.708543 237.874 -0.00182796 245.646 0.169198 250.335C0.622042 262.748 2.5249 273.541 4.48654 282.32C10.808 310.612 19.5622 328.843 27.7273 344.288C54.5668 395.06 83.9672 420.77 112.648 440.147C154.69 468.549 197.073 477.584 239.491 479.5C240.561 479.548 240.739 486.518 239.686 487.425C237.788 489.061 235.437 487.437 233.495 487.369C227.915 487.174 222.336 486.791 216.756 486.211C200.213 484.492 183.671 480.991 167.162 475.358C122.275 460.044 73.877 433.821 31.6097 359.962C28.9507 355.316 26.3128 350.424 23.7123 345.167C21.6325 340.963 19.573 336.556 17.5498 331.843C10.895 316.342 -4.61274 276.658 -1.37541 234.299ZM239.52 487.5C238.5 487.531 238.241 481.034 239.214 479.685C240.685 477.647 242.889 479.326 244.439 479.229C250.878 478.826 257.315 478.229 263.75 477.421C281.396 475.205 299.028 471.422 316.621 465.596C360.257 451.145 407.17 429.115 448.305 361.431C450.923 357.123 453.519 352.553 456.079 347.641C463.86 332.712 483.362 293.084 481.107 243.821C480.917 239.668 482.182 237.181 482.748 240.743C483.468 245.279 483.176 254.736 482.977 259.768C482.342 275.883 479.867 289.512 477.257 300.518C468.987 335.399 457.377 355.623 446.744 372.51C412.184 427.397 374.649 449.524 338.156 465.424C305.425 479.686 272.445 486.484 239.52 487.5Z" fill="#401C02"/>
</g>
<g filter="url(#filter1_f_862_12543)">
<path d="M-1.37541 234.299C-1.11353 230.872 0.0141891 230.529 0.343108 234.008C0.708543 237.874 -0.00182796 245.646 0.169198 250.335C0.622042 262.748 2.5249 273.541 4.48654 282.32C10.808 310.612 19.5622 328.843 27.7273 344.288C54.5668 395.06 83.9672 420.77 112.648 440.147C154.69 468.549 197.073 477.584 239.491 479.5C240.561 479.548 240.739 486.518 239.686 487.425C237.788 489.061 235.437 487.437 233.495 487.369C227.915 487.174 222.336 486.791 216.756 486.211C200.213 484.492 183.671 480.991 167.162 475.358C122.275 460.044 73.877 433.821 31.6097 359.962C28.9507 355.316 26.3128 350.424 23.7123 345.167C21.6325 340.963 19.573 336.556 17.5498 331.843C10.895 316.342 -4.61274 276.658 -1.37541 234.299ZM239.52 487.5C238.5 487.531 238.241 481.034 239.214 479.685C240.685 477.647 242.889 479.326 244.439 479.229C250.878 478.826 257.315 478.229 263.75 477.421C281.396 475.205 299.028 471.422 316.621 465.596C360.257 451.145 407.17 429.115 448.305 361.431C450.923 357.123 453.519 352.553 456.079 347.641C463.86 332.712 483.362 293.084 481.107 243.821C480.917 239.668 482.182 237.181 482.748 240.743C483.468 245.279 483.176 254.736 482.977 259.768C482.342 275.883 479.867 289.512 477.257 300.518C468.987 335.399 457.377 355.623 446.744 372.51C412.184 427.397 374.649 449.524 338.156 465.424C305.425 479.686 272.445 486.484 239.52 487.5Z" fill="#401C02"/>
</g>
</g>
<path d="M85.9588 155.8C91.6288 147.89 127.499 101.37 174.869 117.57C176.359 118.045 177.643 119.014 178.507 120.318C179.371 121.622 179.763 123.182 179.619 124.74C179.379 126.67 178.299 128.56 175.359 129.52C162.649 133.67 135.619 125.62 102.069 153.96C99.1794 156.458 96.4191 159.101 93.7988 161.88C91.8888 163.88 88.6988 166.42 86.0688 164.97C83.8188 163.73 83.7888 161.38 84.2088 159.54C84.5347 158.188 85.1299 156.916 85.9588 155.8Z" fill="#42210B"/>
<path d="M204.309 213.22C204.712 212.493 204.887 211.663 204.812 210.836C204.737 210.008 204.415 209.223 203.889 208.58C197.579 201.158 189.267 195.71 179.945 192.884C170.622 190.058 160.684 189.976 151.315 192.645C141.947 195.315 133.545 200.624 127.113 207.94C120.68 215.255 116.489 224.267 115.039 233.9C114.93 234.725 115.07 235.563 115.443 236.306C115.816 237.05 116.403 237.664 117.129 238.07C118.065 238.577 119.159 238.705 120.187 238.427C121.214 238.15 122.095 237.489 122.649 236.58C129.419 225.74 141.599 216.58 156.889 212.25C172.179 207.92 187.359 209.25 198.829 214.88C199.779 215.363 200.879 215.462 201.9 215.154C202.921 214.847 203.784 214.158 204.309 213.23V213.22Z" fill="url(#paint4_radial_862_12543)"/>
<path d="M204.309 213.22C204.712 212.493 204.887 211.663 204.812 210.836C204.737 210.008 204.415 209.223 203.889 208.58C197.579 201.158 189.267 195.71 179.945 192.884C170.622 190.058 160.684 189.976 151.315 192.645C141.947 195.315 133.545 200.624 127.113 207.94C120.68 215.255 116.489 224.267 115.039 233.9C114.93 234.725 115.07 235.563 115.443 236.306C115.816 237.05 116.403 237.664 117.129 238.07V238.07C118.065 238.577 119.159 238.705 120.187 238.427C121.214 238.15 122.095 237.489 122.649 236.58C129.419 225.74 141.599 216.58 156.889 212.25C172.179 207.92 187.359 209.25 198.829 214.88C199.779 215.363 200.879 215.462 201.9 215.154C202.921 214.847 203.784 214.158 204.309 213.23V213.22Z" stroke="url(#paint5_linear_862_12543)" stroke-width="2" stroke-miterlimit="10"/>
<path d="M396.649 155.8C390.979 147.89 355.109 101.37 307.739 117.57C306.249 118.045 304.965 119.014 304.101 120.318C303.237 121.622 302.845 123.182 302.989 124.74C303.229 126.67 304.309 128.56 307.249 129.52C319.959 133.67 346.989 125.62 380.539 153.96C383.449 156.42 386.149 159.14 388.809 161.88C390.719 163.88 393.909 166.42 396.539 164.97C398.789 163.73 398.819 161.38 398.399 159.54C398.073 158.188 397.478 156.916 396.649 155.8Z" fill="#42210B"/>
<path d="M278.299 213.219C277.894 212.494 277.717 211.662 277.792 210.834C277.867 210.007 278.19 209.221 278.719 208.579C285.027 201.157 293.339 195.707 302.661 192.881C311.983 190.055 321.922 189.971 331.29 192.641C340.658 195.311 349.059 200.621 355.491 207.938C361.922 215.254 366.112 224.266 367.559 233.899C367.674 234.723 367.536 235.562 367.165 236.307C366.794 237.051 366.206 237.665 365.479 238.069C364.543 238.576 363.449 238.704 362.421 238.427C361.394 238.149 360.513 237.488 359.959 236.579C353.189 225.739 341.009 216.579 325.719 212.249C310.429 207.919 295.249 209.249 283.779 214.879C282.829 215.363 281.729 215.461 280.708 215.154C279.687 214.846 278.824 214.157 278.299 213.229V213.219Z" fill="url(#paint6_radial_862_12543)"/>
<path d="M278.299 213.219C277.894 212.494 277.717 211.662 277.792 210.834C277.867 210.007 278.19 209.221 278.719 208.579C285.027 201.157 293.339 195.707 302.661 192.881C311.983 190.055 321.922 189.971 331.29 192.641C340.658 195.311 349.059 200.621 355.491 207.938C361.922 215.254 366.112 224.266 367.559 233.899C367.674 234.723 367.536 235.562 367.165 236.307C366.794 237.051 366.206 237.665 365.479 238.069C364.543 238.576 363.449 238.704 362.421 238.427C361.394 238.149 360.513 237.488 359.959 236.579C353.189 225.739 341.009 216.579 325.719 212.249C310.429 207.919 295.249 209.249 283.779 214.879C282.829 215.363 281.729 215.461 280.708 215.154C279.687 214.846 278.824 214.157 278.299 213.229V213.219Z" stroke="url(#paint7_linear_862_12543)" stroke-width="2" stroke-miterlimit="10"/>
<path d="M359.37 314.43V314.48C359.37 333.03 340.68 356.53 311.81 372.55C290.191 384.529 265.895 390.848 241.18 390.92C232.798 390.916 224.432 390.174 216.18 388.7C162.89 379.25 123 341.58 123 314.48C123.33 299.34 138 293.64 151.42 303.74C169.24 317.11 206.54 330.27 241.19 330.27C275.84 330.27 313.19 317.11 330.97 303.74C344.4 293.65 359 299.33 359.37 314.43Z" fill="url(#paint8_radial_862_12543)"/>
<path d="M359.37 314.49C359.37 345.7 306.46 390.92 241.18 390.92C175.9 390.92 123 345.7 123 314.49C123 314.29 123 314.69 123 314.49C123.32 299.35 137.95 293.64 151.41 303.74C169.23 317.12 206.54 330.27 241.18 330.27C275.82 330.27 313.18 317.12 330.96 303.74C344.42 293.64 359.05 299.35 359.37 314.49C359.38 314.69 359.37 314.29 359.37 314.49Z" stroke="url(#paint9_linear_862_12543)" stroke-width="2" stroke-miterlimit="10"/>
<mask id="mask1_862_12543" style="mask-type:alpha" maskUnits="userSpaceOnUse" x="123" y="298" width="237" height="93">
<path d="M359.37 314.43V314.48C359.37 333.03 340.68 356.53 311.81 372.55C290.191 384.529 265.895 390.848 241.18 390.92C232.798 390.916 224.432 390.174 216.18 388.7C162.89 379.25 123 341.58 123 314.48C123.33 299.34 138 293.64 151.42 303.74C169.24 317.11 206.54 330.27 241.19 330.27C275.84 330.27 313.19 317.11 330.97 303.74C344.4 293.65 359 299.33 359.37 314.43Z" fill="url(#paint10_radial_862_12543)"/>
</mask>
<g mask="url(#mask1_862_12543)">
<g filter="url(#filter2_f_862_12543)">
<ellipse cx="240.97" cy="296" rx="116" ry="51" fill="#371600"/>
</g>
</g>
<path d="M348.33 462.99C347.346 464.792 345.944 466.331 344.243 467.481C342.543 468.631 340.591 469.357 338.553 469.598C336.514 469.84 334.447 469.591 332.524 468.871C330.602 468.151 328.879 466.981 327.5 465.46C325.925 463.609 324.754 461.45 324.06 459.12C321.22 450.34 323.01 440.82 324.63 431.73C326.25 422.64 327.63 412.95 324 404.45C322.895 401.636 321.067 399.163 318.7 397.28C316.619 395.709 314.117 394.794 311.512 394.653C308.908 394.513 306.322 395.152 304.083 396.491C301.845 397.829 300.057 399.805 298.949 402.165C297.84 404.525 297.461 407.163 297.86 409.74C298.53 414.11 301.38 418 301.52 422.41C301.71 428.41 295.83 433.92 289.84 433.29C283.85 432.66 279.2 426.1 280.64 420.29C281.47 416.85 283.96 414.06 285.27 410.77C287.62 404.77 285.58 397.53 280.86 393.18C276.14 388.83 267.75 387.14 261.47 388.5C264.07 382.78 272.14 380.28 278.35 379.26C282.2 378.63 286.18 378.42 290.02 377.75C292.355 377.375 294.637 376.727 296.82 375.82C298.473 375.095 300.042 374.194 301.5 373.13C305.82 370.03 309.39 365.79 313.09 361.88C319.3 355.32 326.54 349.32 335.2 346.77C337.263 346.165 337.792 345.434 339.325 345.37C340.419 345.324 341.514 345.683 342.395 346.333C342.947 346.739 342.937 346.933 342.97 347C342.97 347 342.04 350.07 340.64 353.21C339.285 356.217 338.129 359.311 337.18 362.47C335.923 366.248 334.881 370.094 334.06 373.99C331.959 383.599 331.56 393.503 332.88 403.25C333.399 408.208 334.339 413.112 335.69 417.91C336.11 419.36 336.59 420.8 337.14 422.22C339.96 429.58 344.14 436.37 347.19 443.62C349.79 449.78 351.54 457.09 348.33 462.99Z" fill="url(#paint11_linear_862_12543)"/>
<mask id="mask2_862_12543" style="mask-type:alpha" maskUnits="userSpaceOnUse" x="261" y="345" width="90" height="125">
<path d="M348.33 462.99C347.346 464.792 345.944 466.331 344.243 467.481C342.543 468.631 340.591 469.357 338.553 469.598C336.514 469.84 334.447 469.591 332.524 468.871C330.602 468.151 328.879 466.981 327.5 465.46C325.925 463.609 324.754 461.45 324.06 459.12C321.22 450.34 323.01 440.82 324.63 431.73C326.25 422.64 327.63 412.95 324 404.45C322.895 401.636 321.067 399.163 318.7 397.28C316.619 395.709 314.117 394.794 311.512 394.653C308.908 394.513 306.322 395.152 304.083 396.491C301.845 397.829 300.057 399.805 298.949 402.165C297.84 404.525 297.461 407.163 297.86 409.74C298.53 414.11 301.38 418 301.52 422.41C301.71 428.41 295.83 433.92 289.84 433.29C283.85 432.66 279.2 426.1 280.64 420.29C281.47 416.85 283.96 414.06 285.27 410.77C287.62 404.77 285.58 397.53 280.86 393.18C276.14 388.83 267.75 387.14 261.47 388.5C264.07 382.78 272.14 380.28 278.35 379.26C282.2 378.63 286.18 378.42 290.02 377.75C292.355 377.375 294.637 376.727 296.82 375.82C298.473 375.095 300.042 374.194 301.5 373.13C305.82 370.03 309.39 365.79 313.09 361.88C319.3 355.32 326.54 349.32 335.2 346.77C337.263 346.165 337.792 345.434 339.325 345.37C340.419 345.324 341.514 345.683 342.395 346.333C342.947 346.739 342.937 346.933 342.97 347C342.97 347 342.04 350.07 340.64 353.21C339.285 356.217 338.129 359.311 337.18 362.47C335.923 366.248 334.881 370.094 334.06 373.99C331.959 383.599 331.56 393.503 332.88 403.25C333.399 408.208 334.339 413.112 335.69 417.91C336.11 419.36 336.59 420.8 337.14 422.22C339.96 429.58 344.14 436.37 347.19 443.62C349.79 449.78 351.54 457.09 348.33 462.99Z" fill="url(#paint12_linear_862_12543)"/>
</mask>
<g mask="url(#mask2_862_12543)">
<g filter="url(#filter3_f_862_12543)">
<path d="M261.47 388.501C267.75 387.141 276.14 388.831 280.86 393.181C285.58 397.531 287.62 404.771 285.27 410.771C283.96 414.061 281.47 416.851 280.64 420.291C279.2 426.101 283.85 432.661 289.84 433.291C295.83 433.921 301.71 428.411 301.52 422.411C301.38 418.001 298.53 414.111 297.86 409.741C297.461 407.164 297.84 404.526 298.949 402.166C300.057 399.805 301.845 397.829 304.083 396.491C306.322 395.153 308.908 394.513 311.512 394.654C314.117 394.794 316.619 395.709 318.7 397.281C321.067 399.163 322.895 401.636 324 404.451C327.63 412.951 326.25 422.641 324.63 431.731C323.01 440.821 321.22 450.341 324.06 459.121C324.754 461.45 325.925 463.609 327.5 465.461C328.879 466.982 330.602 468.151 332.524 468.871C334.447 469.591 336.514 469.841 338.553 469.599C340.591 469.357 342.543 468.631 344.243 467.482C345.944 466.332 347.346 464.792 348.33 462.991C351.54 457.091 349.79 449.781 347.19 443.621C344.14 436.371 339.96 429.581 337.14 422.221C336.59 420.801 336.11 419.361 335.69 417.911C334.339 413.113 333.399 408.208 332.88 403.251C331.56 393.503 331.959 383.6 334.06 373.991C334.881 370.095 335.923 366.248 337.18 362.471C338.129 359.311 339.285 356.218 340.64 353.211C342.04 350.071 342.97 347.001 342.97 347.001" stroke="white"/>
</g>
</g>
<mask id="mask3_862_12543" style="mask-type:alpha" maskUnits="userSpaceOnUse" x="261" y="345" width="90" height="125">
<path d="M348.33 462.99C347.346 464.792 345.944 466.331 344.243 467.481C342.543 468.631 340.591 469.357 338.553 469.598C336.514 469.84 334.447 469.591 332.524 468.871C330.602 468.151 328.879 466.981 327.5 465.46C325.925 463.609 324.754 461.45 324.06 459.12C321.22 450.34 323.01 440.82 324.63 431.73C326.25 422.64 327.63 412.95 324 404.45C322.895 401.636 321.067 399.163 318.7 397.28C316.619 395.709 314.117 394.794 311.512 394.653C308.908 394.513 306.322 395.152 304.083 396.491C301.845 397.829 300.057 399.805 298.949 402.165C297.84 404.525 297.461 407.163 297.86 409.74C298.53 414.11 301.38 418 301.52 422.41C301.71 428.41 295.83 433.92 289.84 433.29C283.85 432.66 279.2 426.1 280.64 420.29C281.47 416.85 283.96 414.06 285.27 410.77C287.62 404.77 285.58 397.53 280.86 393.18C276.14 388.83 267.75 387.14 261.47 388.5C264.07 382.78 272.14 380.28 278.35 379.26C282.2 378.63 286.18 378.42 290.02 377.75C292.355 377.375 294.637 376.727 296.82 375.82C298.473 375.095 300.042 374.194 301.5 373.13C305.82 370.03 309.39 365.79 313.09 361.88C319.3 355.32 326.54 349.32 335.2 346.77C337.263 346.165 337.792 345.434 339.325 345.37C340.419 345.324 341.514 345.683 342.395 346.333C342.947 346.739 342.937 346.933 342.97 347C342.97 347 342.04 350.07 340.64 353.21C339.285 356.217 338.129 359.311 337.18 362.47C335.923 366.248 334.881 370.094 334.06 373.99C331.959 383.599 331.56 393.503 332.88 403.25C333.399 408.208 334.339 413.112 335.69 417.91C336.11 419.36 336.59 420.8 337.14 422.22C339.96 429.58 344.14 436.37 347.19 443.62C349.79 449.78 351.54 457.09 348.33 462.99Z" fill="url(#paint13_linear_862_12543)"/>
</mask>
<g mask="url(#mask3_862_12543)">
<g opacity="0.6" filter="url(#filter4_f_862_12543)">
<path d="M330.374 457.8C329.874 454.4 333.174 434.4 333.174 434.4C333.174 434.4 342.274 452.5 342.774 455.9C343.274 459.3 340.974 462.5 337.474 463.1C334.074 463.6 330.874 461.2 330.374 457.8Z" fill="white"/>
</g>
<g opacity="0.6" filter="url(#filter5_f_862_12543)">
<path d="M285.973 423.4C286.073 420.9 291.373 407 291.373 407C291.373 407 295.273 421.3 295.173 423.8C295.073 426.3 292.873 428.3 290.373 428.2C287.873 428.1 285.873 425.9 285.973 423.4Z" fill="white"/>
</g>
</g>
<defs>
<filter id="filter0_f_862_12543" x="-26.8145" y="206.558" width="535.021" height="306.595" filterUnits="userSpaceOnUse" color-interpolation-filters="sRGB">
<feFlood flood-opacity="0" result="BackgroundImageFix"/>
<feBlend mode="normal" in="SourceGraphic" in2="BackgroundImageFix" result="shape"/>
<feGaussianBlur stdDeviation="12.5" result="effect1_foregroundBlur_862_12543"/>
</filter>
<filter id="filter1_f_862_12543" x="-41.8145" y="191.558" width="565.021" height="336.595" filterUnits="userSpaceOnUse" color-interpolation-filters="sRGB">
<feFlood flood-opacity="0" result="BackgroundImageFix"/>
<feBlend mode="normal" in="SourceGraphic" in2="BackgroundImageFix" result="shape"/>
<feGaussianBlur stdDeviation="20" result="effect1_foregroundBlur_862_12543"/>
</filter>
<filter id="filter2_f_862_12543" x="84.9697" y="205" width="312" height="182" filterUnits="userSpaceOnUse" color-interpolation-filters="sRGB">
<feFlood flood-opacity="0" result="BackgroundImageFix"/>
<feBlend mode="normal" in="SourceGraphic" in2="BackgroundImageFix" result="shape"/>
<feGaussianBlur stdDeviation="20" result="effect1_foregroundBlur_862_12543"/>
</filter>
<filter id="filter3_f_862_12543" x="257.364" y="342.856" width="97.2031" height="131.332" filterUnits="userSpaceOnUse" color-interpolation-filters="sRGB">
<feFlood flood-opacity="0" result="BackgroundImageFix"/>
<feBlend mode="normal" in="SourceGraphic" in2="BackgroundImageFix" result="shape"/>
<feGaussianBlur stdDeviation="2" result="effect1_foregroundBlur_862_12543"/>
</filter>
<filter id="filter4_f_862_12543" x="320.322" y="424.4" width="32.5195" height="48.766" filterUnits="userSpaceOnUse" color-interpolation-filters="sRGB">
<feFlood flood-opacity="0" result="BackgroundImageFix"/>
<feBlend mode="normal" in="SourceGraphic" in2="BackgroundImageFix" result="shape"/>
<feGaussianBlur stdDeviation="5" result="effect1_foregroundBlur_862_12543"/>
</filter>
<filter id="filter5_f_862_12543" x="275.97" y="397" width="29.2051" height="41.2036" filterUnits="userSpaceOnUse" color-interpolation-filters="sRGB">
<feFlood flood-opacity="0" result="BackgroundImageFix"/>
<feBlend mode="normal" in="SourceGraphic" in2="BackgroundImageFix" result="shape"/>
<feGaussianBlur stdDeviation="5" result="effect1_foregroundBlur_862_12543"/>
</filter>
<radialGradient id="paint0_radial_862_12543" cx="0" cy="0" r="1" gradientUnits="userSpaceOnUse" gradientTransform="translate(241 -4.53898e-06) rotate(90) scale(482)">
<stop stop-color="#FFDE43"/>
<stop offset="1" stop-color="#FFBC00"/>
</radialGradient>
<radialGradient id="paint1_radial_862_12543" cx="0" cy="0" r="1" gradientUnits="userSpaceOnUse" gradientTransform="translate(241 64.5) rotate(90) scale(417.5)">
<stop stop-color="white" stop-opacity="0.5"/>
<stop offset="0.782278"/>
</radialGradient>
<radialGradient id="paint2_radial_862_12543" cx="0" cy="0" r="1" gradientUnits="userSpaceOnUse" gradientTransform="translate(241 64.5) rotate(90) scale(417.5)">
<stop stop-color="white" stop-opacity="0.5"/>
<stop offset="0.782278"/>
</radialGradient>
<radialGradient id="paint3_radial_862_12543" cx="0" cy="0" r="1" gradientUnits="userSpaceOnUse" gradientTransform="translate(241 -52.5) rotate(90) scale(534.5 722.835)">
<stop offset="0.0922635" stop-color="white"/>
<stop offset="0.670207" stop-color="white" stop-opacity="0"/>
</radialGradient>
<radialGradient id="paint4_radial_862_12543" cx="0" cy="0" r="1" gradientUnits="userSpaceOnUse" gradientTransform="translate(159.854 214.62) scale(57.2529 23.9758)">
<stop stop-color="#743C1C"/>
<stop offset="1" stop-color="#401C02"/>
</radialGradient>
<linearGradient id="paint5_linear_862_12543" x1="159.916" y1="239.918" x2="159.916" y2="189.162" gradientUnits="userSpaceOnUse">
<stop stop-color="#FFDE43"/>
<stop offset="0.22" stop-color="#FED93F"/>
<stop offset="0.51" stop-color="#FCC934"/>
<stop offset="0.82" stop-color="#F9AF21"/>
<stop offset="1" stop-color="#F79D14"/>
</linearGradient>
<radialGradient id="paint6_radial_862_12543" cx="0" cy="0" r="1" gradientUnits="userSpaceOnUse" gradientTransform="translate(322.625 214.618) scale(57.2512 23.9774)">
<stop stop-color="#743C1C"/>
<stop offset="1" stop-color="#401C02"/>
</radialGradient>
<linearGradient id="paint7_linear_862_12543" x1="322.687" y1="239.917" x2="322.687" y2="189.158" gradientUnits="userSpaceOnUse">
<stop stop-color="#FFDE43"/>
<stop offset="0.22" stop-color="#FED93F"/>
<stop offset="0.51" stop-color="#FCC934"/>
<stop offset="0.82" stop-color="#F9AF21"/>
<stop offset="1" stop-color="#F79D14"/>
</linearGradient>
<radialGradient id="paint8_radial_862_12543" cx="0" cy="0" r="1" gradientUnits="userSpaceOnUse" gradientTransform="translate(241.021 344.763) scale(150.657 46.2065)">
<stop stop-color="#743C1C"/>
<stop offset="1" stop-color="#401C02"/>
</radialGradient>
<linearGradient id="paint9_linear_862_12543" x1="241.187" y1="393.516" x2="241.187" y2="295.701" gradientUnits="userSpaceOnUse">
<stop offset="0.265625" stop-color="#FFDE43"/>
<stop offset="1" stop-color="#F79D14"/>
</linearGradient>
<radialGradient id="paint10_radial_862_12543" cx="0" cy="0" r="1" gradientUnits="userSpaceOnUse" gradientTransform="translate(241.021 344.763) scale(150.657 46.2065)">
<stop stop-color="#743C1C"/>
<stop offset="1" stop-color="#401C02"/>
</radialGradient>
<linearGradient id="paint11_linear_862_12543" x1="304.68" y1="471.26" x2="304.68" y2="347.72" gradientUnits="userSpaceOnUse">
<stop stop-color="#0048FF"/>
<stop offset="0.18" stop-color="#0068FF"/>
<stop offset="0.38" stop-color="#0084FE"/>
<stop offset="0.59" stop-color="#0097FE"/>
<stop offset="0.79" stop-color="#00A3FE"/>
<stop offset="1" stop-color="#00A7FE"/>
</linearGradient>
<linearGradient id="paint12_linear_862_12543" x1="304.68" y1="471.26" x2="304.68" y2="347.72" gradientUnits="userSpaceOnUse">
<stop stop-color="#0048FF"/>
<stop offset="0.18" stop-color="#0068FF"/>
<stop offset="0.38" stop-color="#0084FE"/>
<stop offset="0.59" stop-color="#0097FE"/>
<stop offset="0.79" stop-color="#00A3FE"/>
<stop offset="1" stop-color="#00A7FE"/>
</linearGradient>
<linearGradient id="paint13_linear_862_12543" x1="304.68" y1="471.26" x2="304.68" y2="347.72" gradientUnits="userSpaceOnUse">
<stop stop-color="#0048FF"/>
<stop offset="0.18" stop-color="#0068FF"/>
<stop offset="0.38" stop-color="#0084FE"/>
<stop offset="0.59" stop-color="#0097FE"/>
<stop offset="0.79" stop-color="#00A3FE"/>
<stop offset="1" stop-color="#00A7FE"/>
</linearGradient>
</defs>
</svg>
