<svg width="507" height="483" viewBox="0 0 507 483" fill="none" xmlns="http://www.w3.org/2000/svg">
<path d="M253.18 482.36C386.38 482.36 494.36 374.38 494.36 241.18C494.36 107.98 386.38 0 253.18 0C119.98 0 12 107.98 12 241.18C12 374.38 119.98 482.36 253.18 482.36Z" fill="url(#paint0_radial_862_12452)"/>
<g style="mix-blend-mode:soft-light">
<path d="M253.18 482.36C386.38 482.36 494.36 374.38 494.36 241.18C494.36 107.98 386.38 0 253.18 0C119.98 0 12 107.98 12 241.18C12 374.38 119.98 482.36 253.18 482.36Z" fill="url(#paint1_radial_862_12452)"/>
</g>
<g style="mix-blend-mode:soft-light">
<path d="M253.18 482.36C386.38 482.36 494.36 374.38 494.36 241.18C494.36 107.98 386.38 0 253.18 0C119.98 0 12 107.98 12 241.18C12 374.38 119.98 482.36 253.18 482.36Z" fill="url(#paint2_radial_862_12452)"/>
</g>
<g style="mix-blend-mode:overlay">
<path d="M253.18 482.36C386.38 482.36 494.36 374.38 494.36 241.18C494.36 107.98 386.38 0 253.18 0C119.98 0 12 107.98 12 241.18C12 374.38 119.98 482.36 253.18 482.36Z" fill="url(#paint3_radial_862_12452)" fill-opacity="0.7"/>
</g>
<mask id="mask0_862_12452" style="mask-type:alpha" maskUnits="userSpaceOnUse" x="12" y="0" width="483" height="483">
<path d="M253.18 482.36C386.38 482.36 494.36 374.38 494.36 241.18C494.36 107.98 386.38 0 253.18 0C119.98 0 12 107.98 12 241.18C12 374.38 119.98 482.36 253.18 482.36Z" fill="white"/>
</mask>
<g mask="url(#mask0_862_12452)">
<g filter="url(#filter0_f_862_12452)">
<path d="M10.6241 234.299C10.886 230.872 12.0137 230.529 12.3426 234.009C12.7081 237.875 11.9977 245.647 12.1687 250.335C12.6216 262.748 14.5244 273.542 16.486 282.321C22.8075 310.613 31.5617 328.843 39.7268 344.289C66.5663 395.061 95.9667 420.771 124.648 440.147C166.689 468.55 209.072 477.584 251.49 479.5C252.56 479.549 252.738 486.518 251.686 487.425C249.788 489.062 247.436 487.438 245.494 487.37C239.915 487.174 234.335 486.791 228.756 486.211C212.213 484.492 195.67 480.991 179.162 475.359C134.275 460.044 85.8765 433.821 43.6092 359.962C40.9502 355.316 38.3124 350.424 35.7118 345.168C33.6321 340.964 31.5726 336.557 29.5493 331.844C22.8946 316.342 7.38677 276.659 10.6241 234.299ZM251.52 487.5C250.499 487.532 250.241 481.035 251.214 479.686C252.684 477.647 254.888 479.326 256.439 479.229C262.877 478.827 269.314 478.23 275.75 477.422C293.395 475.206 311.028 471.423 328.621 465.596C372.257 451.146 419.17 429.116 460.305 361.431C462.923 357.124 465.518 352.554 468.079 347.641C475.86 332.713 495.361 293.085 493.107 243.821C492.917 239.669 494.181 237.181 494.747 240.744C495.467 245.28 495.175 254.736 494.977 259.768C494.341 275.884 491.866 289.512 489.257 300.518C480.987 335.399 469.376 355.623 458.744 372.51C424.184 427.397 386.648 449.524 350.155 465.425C317.424 479.686 284.444 486.484 251.52 487.5Z" fill="#401C02"/>
</g>
<g filter="url(#filter1_f_862_12452)">
<path d="M10.6241 234.299C10.886 230.872 12.0137 230.529 12.3426 234.009C12.7081 237.875 11.9977 245.647 12.1687 250.335C12.6216 262.748 14.5244 273.542 16.486 282.321C22.8075 310.613 31.5617 328.843 39.7268 344.289C66.5663 395.061 95.9667 420.771 124.648 440.147C166.689 468.55 209.072 477.584 251.49 479.5C252.56 479.549 252.738 486.518 251.686 487.425C249.788 489.062 247.436 487.438 245.494 487.37C239.915 487.174 234.335 486.791 228.756 486.211C212.213 484.492 195.67 480.991 179.162 475.359C134.275 460.044 85.8765 433.821 43.6092 359.962C40.9502 355.316 38.3124 350.424 35.7118 345.168C33.6321 340.964 31.5726 336.557 29.5493 331.844C22.8946 316.342 7.38677 276.659 10.6241 234.299ZM251.52 487.5C250.499 487.532 250.241 481.035 251.214 479.686C252.684 477.647 254.888 479.326 256.439 479.229C262.877 478.827 269.314 478.23 275.75 477.422C293.395 475.206 311.028 471.423 328.621 465.596C372.257 451.146 419.17 429.116 460.305 361.431C462.923 357.124 465.518 352.554 468.079 347.641C475.86 332.713 495.361 293.085 493.107 243.821C492.917 239.669 494.181 237.181 494.747 240.744C495.467 245.28 495.175 254.736 494.977 259.768C494.341 275.884 491.866 289.512 489.257 300.518C480.987 335.399 469.376 355.623 458.744 372.51C424.184 427.397 386.648 449.524 350.155 465.425C317.424 479.686 284.444 486.484 251.52 487.5Z" fill="#401C02"/>
</g>
</g>
<g filter="url(#filter2_f_862_12452)">
<path d="M368.619 133.744C426.871 83.5673 525.265 206.956 333.247 265.754C196.355 118.825 343.26 61.1639 368.619 133.744Z" fill="#FF3D00"/>
<path d="M137.723 133.756C163.082 61.1764 309.988 118.837 173.095 265.767C-18.8161 206.94 79.4713 83.5797 137.723 133.756Z" fill="#FF3D00"/>
</g>
<g filter="url(#filter3_f_862_12452)">
<path d="M368.619 133.744C426.871 83.5673 525.265 206.956 333.247 265.754C196.355 118.825 343.26 61.1639 368.619 133.744Z" fill="#FF8A00"/>
<path d="M137.723 133.756C163.082 61.1764 309.988 118.837 173.095 265.767C-18.8161 206.94 79.4713 83.5797 137.723 133.756Z" fill="#FF8A00"/>
</g>
<path d="M137.723 123.756C163.082 51.1764 309.988 108.837 173.095 255.767C-18.8161 196.94 79.4713 73.5797 137.723 123.756Z" fill="url(#paint4_linear_862_12452)"/>
<mask id="mask1_862_12452" style="mask-type:alpha" maskUnits="userSpaceOnUse" x="60" y="92" width="171" height="164">
<path d="M137.723 123.756C163.082 51.1764 309.988 108.837 173.095 255.767C-18.8161 196.94 79.4713 73.5797 137.723 123.756Z" fill="url(#paint5_linear_862_12452)"/>
</mask>
<g mask="url(#mask1_862_12452)">
<g filter="url(#filter4_f_862_12452)">
<path d="M76.2592 184.462C71.4469 176.288 70.1714 165.571 72.7767 155.296C75.3821 145.021 81.7904 135.323 90.8908 128.438C95.4552 125.049 100.645 122.29 106.332 120.538C112.019 118.786 118.069 117.963 124.192 118.261C130.314 118.559 136.402 120.006 142.052 122.368C147.702 124.731 152.7 128.066 157.116 131.785L130.736 138.854C131.273 137.456 131.839 136.164 132.376 134.766C132.914 133.368 133.586 132.047 134.259 130.727C134.931 129.407 135.738 128.164 136.517 126.816C137.296 125.467 138.238 124.302 139.045 123.06C142.756 118.189 147.305 113.892 152.459 110.573C157.612 107.254 163.369 104.913 169.171 103.587C174.972 102.26 180.845 102.054 186.493 102.707C197.817 104.12 208.215 109.314 215.609 116.91C223.003 124.506 227.257 134.425 227.176 143.91C223.781 140.601 220.501 137.718 217.043 135.452C213.586 133.186 210.058 131.509 206.432 130.314C199.42 127.975 192.361 127.586 186.184 128.785C180.006 129.984 174.654 132.559 170.707 136.124C166.759 139.69 163.948 144.092 161.933 149.762L153.817 172.231L135.553 156.831C131.001 153.034 126.337 150.521 121.136 149.407C115.935 148.292 110.09 148.604 104.063 150.789C98.1418 152.946 92.1944 156.706 87.3206 162.344C84.8836 165.163 82.6671 168.379 80.6995 172.099C78.9446 175.762 77.41 179.821 76.2592 184.462Z" fill="#FF3E3E"/>
</g>
<g filter="url(#filter5_f_862_12452)">
<path d="M152.461 247.956C149.75 247.2 147.146 246.416 144.542 245.632C143.172 245.201 141.937 244.848 140.568 244.416C139.304 243.957 138.041 243.497 136.643 242.96L128.9 240.018C126.316 238.886 123.839 237.726 121.362 236.565C111.425 231.817 101.685 226.104 92.8875 219.226C84.09 212.349 76.1775 204.094 70.2993 194.496L68.1809 190.845C67.5198 189.654 66.9366 188.328 66.3533 187.002L65.4925 185.066C65.2151 184.457 65.0157 183.712 64.7383 183.102L63.336 179.146C61.8823 173.721 61.067 168.124 61.2945 162.591C62.1878 168.052 63.7971 173.207 65.8035 178.142L67.5743 181.772C67.8517 182.382 68.129 182.992 68.5128 183.573L69.5577 185.345C70.3252 186.508 70.8515 187.621 71.619 188.783L73.8647 192.058C80.0752 200.769 87.7881 208.279 96.2874 214.895C104.68 221.539 113.86 227.288 123.301 232.739C125.7 234.035 127.993 235.358 130.421 236.76L137.697 240.511C138.882 241.106 140.096 241.806 141.282 242.401C142.467 242.995 143.759 243.561 144.944 244.156C147.556 245.394 150.062 246.661 152.461 247.956Z" fill="#FFA216"/>
</g>
<g filter="url(#filter6_f_862_12452)">
<path d="M63.5344 167.12C61.0261 157.76 61.5172 147.253 65.3364 137.679C69.0493 128.133 76.041 119.761 84.7596 114.004C93.5846 108.219 104.406 105.206 115.268 106.172C120.618 106.562 126.011 107.968 130.936 110.182C135.862 112.397 140.399 115.285 144.517 118.742L135.688 121.108C137.42 116.084 139.904 111.313 143.063 106.933C146.222 102.552 150.218 98.7449 154.627 95.6254C163.579 89.4643 174.429 86.557 184.964 87.1544C195.5 87.7519 205.634 91.535 213.729 97.9169C221.824 104.299 227.502 113.152 230.011 122.513C229.378 121.429 228.774 120.45 228.141 119.366C227.537 118.388 226.798 117.332 226.087 116.382C224.666 114.482 223.139 112.611 221.534 110.875C218.245 107.538 214.617 104.634 210.677 102.269C202.719 97.6747 193.679 95.4226 184.868 95.7311C176.058 96.0396 167.478 98.9087 160.752 104.017C153.919 109.154 148.913 116.424 146.085 124.593L143.462 132.25L137.362 126.93C130.723 121.299 122.83 117.371 114.344 116.338C105.858 115.306 97.0996 117.082 89.2091 121.249C81.4249 125.387 74.7218 131.857 70.1274 139.815C67.8691 143.727 66.101 148.191 65.0281 152.697C64.5059 155.003 64.0901 157.281 63.8377 159.742C63.6972 160.92 63.5568 162.098 63.5512 163.354C63.5456 164.609 63.54 165.865 63.5344 167.12Z" fill="#700000"/>
</g>
<g filter="url(#filter7_f_862_12452)">
<path d="M63.5344 167.12C61.0261 157.76 61.5172 147.253 65.3364 137.679C69.0493 128.133 76.041 119.761 84.7596 114.004C93.5846 108.219 104.406 105.206 115.268 106.172C120.618 106.562 126.011 107.968 130.936 110.182C135.862 112.397 140.399 115.285 144.517 118.742L135.688 121.108C137.42 116.084 139.904 111.313 143.063 106.933C146.222 102.552 150.218 98.7449 154.627 95.6254C163.579 89.4643 174.429 86.557 184.964 87.1544C195.5 87.7519 205.634 91.535 213.729 97.9169C221.824 104.299 227.502 113.152 230.011 122.513C229.378 121.429 228.774 120.45 228.141 119.366C227.537 118.388 226.798 117.332 226.087 116.382C224.666 114.482 223.139 112.611 221.534 110.875C218.245 107.538 214.617 104.634 210.677 102.269C202.719 97.6747 193.679 95.4226 184.868 95.7311C176.058 96.0396 167.478 98.9087 160.752 104.017C153.919 109.154 148.913 116.424 146.085 124.593L143.462 132.25L137.362 126.93C130.723 121.299 122.83 117.371 114.344 116.338C105.858 115.306 97.0996 117.082 89.2091 121.249C81.4249 125.387 74.7218 131.857 70.1274 139.815C67.8691 143.727 66.101 148.191 65.0281 152.697C64.5059 155.003 64.0901 157.281 63.8377 159.742C63.6972 160.92 63.5568 162.098 63.5512 163.354C63.5456 164.609 63.54 165.865 63.5344 167.12Z" fill="#700000"/>
</g>
<g filter="url(#filter8_f_862_12452)">
<path d="M73.0669 185.316C68.2545 177.143 66.979 166.426 69.5843 156.15C72.1897 145.875 78.5981 136.177 87.6984 129.292C92.2628 125.903 97.4523 123.145 103.139 121.393C108.827 119.641 114.877 118.818 120.999 119.115C127.122 119.413 133.21 120.86 138.86 123.223C144.509 125.585 149.507 128.921 153.924 132.64L127.543 139.708C128.081 138.31 128.647 137.018 129.184 135.62C129.722 134.222 130.394 132.902 131.066 131.582C131.739 130.261 132.546 129.019 133.324 127.67C134.103 126.321 135.045 125.157 135.853 123.914C139.564 119.044 144.113 114.746 149.266 111.427C154.42 108.108 160.177 105.767 165.978 104.441C171.78 103.115 177.653 102.909 183.301 103.562C194.624 104.974 205.023 110.169 212.417 117.765C219.811 125.36 224.065 135.28 223.984 144.764C220.589 141.456 217.308 138.572 213.851 136.306C210.393 134.04 206.866 132.363 203.239 131.169C196.228 128.829 189.169 128.44 182.991 129.64C176.814 130.839 171.461 133.413 167.514 136.979C163.567 140.545 160.756 144.946 158.741 150.617L150.624 173.086L132.467 157.657C127.915 153.86 123.251 151.347 118.05 150.233C112.849 149.118 107.004 149.43 100.977 151.615C95.0557 153.772 89.1084 157.532 84.2346 163.17C81.7976 165.989 79.5811 169.205 77.6134 172.925C75.7521 176.616 74.2176 180.676 73.0669 185.316Z" fill="#FF9797"/>
</g>
<g filter="url(#filter9_f_862_12452)">
<path d="M187.565 238.55C188.996 236.229 190.532 233.879 192.097 231.635C192.827 230.528 193.662 229.392 194.392 228.284C195.121 227.177 195.822 225.963 196.551 224.855L200.977 217.969C202.272 215.569 203.702 213.248 205.132 210.927C210.583 201.485 215.552 191.945 219.605 181.966C223.551 172.016 226.582 161.627 227.605 150.977L227.912 147.019C227.996 145.628 227.895 144.401 227.979 143.011L227.997 140.953C228.039 140.258 227.868 139.62 227.91 138.925L227.628 134.896C227.005 129.59 225.686 124.243 223.757 119.173C226.828 123.823 228.813 129.106 230.267 134.531L231.031 138.658C231.095 139.325 231.295 140.07 231.36 140.736L231.582 142.843C231.74 144.283 231.869 145.616 231.921 147.085L231.911 151.306C231.62 162.557 228.895 173.662 224.715 184.017C220.535 194.372 215.063 204.161 208.725 213.27C207.16 215.514 205.594 217.758 203.923 220.03L198.688 226.449C197.824 227.478 196.988 228.614 196.018 229.673C195.047 230.731 194.183 231.76 193.184 232.712C191.398 234.559 189.564 236.647 187.565 238.55Z" fill="#FFA216"/>
</g>
</g>
<g style="mix-blend-mode:soft-light">
<path d="M137.769 123.744C163.128 51.1639 310.034 108.825 173.142 255.754C-18.8758 196.956 79.518 73.5672 137.769 123.744Z" fill="url(#paint6_linear_862_12452)"/>
</g>
<g style="mix-blend-mode:soft-light">
<path d="M137.769 123.744C79.518 73.5672 -18.8758 196.956 173.142 255.754C310.034 108.825 163.128 51.1639 137.769 123.744Z" fill="url(#paint7_linear_862_12452)"/>
</g>
<mask id="mask2_862_12452" style="mask-type:alpha" maskUnits="userSpaceOnUse" x="60" y="92" width="171" height="164">
<path d="M137.723 123.756C163.082 51.1764 309.988 108.837 173.095 255.767C-18.8161 196.94 79.4713 73.5797 137.723 123.756Z" fill="url(#paint8_linear_862_12452)"/>
</mask>
<g mask="url(#mask2_862_12452)">
<g filter="url(#filter10_f_862_12452)">
<path d="M103.535 112.166C106.628 111.793 109.699 111.768 112.856 112.063C115.907 112.385 119.043 113.027 122.053 114.045C125.033 114.957 127.915 116.351 130.612 117.908C133.31 119.465 135.852 121.293 138.238 123.39L137.387 123.618C138.433 120.715 139.721 117.862 141.25 115.058C142.807 112.36 144.606 109.712 146.731 107.432C148.828 105.046 151.117 102.951 153.704 101.117C156.291 99.2842 158.964 97.77 161.828 96.5464C156.185 99.3127 151.309 103.241 147.328 107.957C145.337 110.314 143.617 112.827 142.059 115.525C140.608 118.194 139.32 121.047 138.274 123.95L138.019 124.702L137.529 124.15C135.172 122.159 132.736 120.303 130.039 118.746C127.448 117.16 124.594 115.872 121.692 114.826C115.993 112.704 109.699 111.768 103.535 112.166Z" fill="#820010"/>
</g>
<g filter="url(#filter11_f_862_12452)">
<path d="M103.535 112.166C106.628 111.793 109.699 111.768 112.856 112.063C115.907 112.385 119.043 113.027 122.053 114.045C125.033 114.957 127.915 116.351 130.612 117.908C133.31 119.465 135.852 121.293 138.238 123.39L137.387 123.618C138.433 120.715 139.721 117.862 141.25 115.058C142.807 112.36 144.606 109.712 146.731 107.432C148.828 105.046 151.117 102.951 153.704 101.117C156.291 99.2842 158.964 97.77 161.828 96.5464C156.185 99.3127 151.309 103.241 147.328 107.957C145.337 110.314 143.617 112.827 142.059 115.525C140.608 118.194 139.32 121.047 138.274 123.95L138.019 124.702L137.529 124.15C135.172 122.159 132.736 120.303 130.039 118.746C127.448 117.16 124.594 115.872 121.692 114.826C115.993 112.704 109.699 111.768 103.535 112.166Z" fill="#820010"/>
</g>
<g filter="url(#filter12_f_862_12452)">
<path d="M103.535 112.166C106.628 111.793 109.699 111.768 112.856 112.063C115.907 112.385 119.043 113.027 122.053 114.045C125.033 114.957 127.915 116.351 130.612 117.908C133.31 119.465 135.852 121.293 138.238 123.39L137.387 123.618C138.433 120.715 139.721 117.862 141.25 115.058C142.807 112.36 144.606 109.712 146.731 107.432C148.828 105.046 151.117 102.951 153.704 101.117C156.291 99.2842 158.964 97.77 161.828 96.5464C156.185 99.3127 151.309 103.241 147.328 107.957C145.337 110.314 143.617 112.827 142.059 115.525C140.608 118.194 139.32 121.047 138.274 123.95L138.019 124.702L137.529 124.15C135.172 122.159 132.736 120.303 130.039 118.746C127.448 117.16 124.594 115.872 121.692 114.826C115.993 112.704 109.699 111.768 103.535 112.166Z" fill="#820010"/>
</g>
</g>
<path d="M368.573 123.73C426.824 73.5538 525.218 196.942 333.201 255.741C196.414 108.84 343.214 51.1504 368.573 123.73Z" fill="url(#paint9_linear_862_12452)"/>
<mask id="mask3_862_12452" style="mask-type:alpha" maskUnits="userSpaceOnUse" x="275" y="92" width="172" height="164">
<path d="M368.573 123.73C426.825 73.5538 525.218 196.942 333.201 255.741C196.415 108.84 343.214 51.1504 368.573 123.73Z" fill="url(#paint10_linear_862_12452)"/>
</mask>
<g mask="url(#mask3_862_12452)">
<g filter="url(#filter13_f_862_12452)">
<path d="M284.99 145.57C284.909 136.086 289.163 126.167 296.557 118.571C303.951 110.975 314.35 105.78 325.673 104.368C331.321 103.715 337.194 103.921 342.996 105.247C348.797 106.574 354.448 108.886 359.601 112.205C364.755 115.524 369.304 119.821 373.015 124.692C376.727 129.563 379.387 134.95 381.353 140.38L354.972 133.311C356.137 132.369 357.273 131.533 358.437 130.591C359.602 129.649 360.844 128.842 362.086 128.034C363.329 127.227 364.649 126.555 365.998 125.776C367.347 124.997 368.745 124.46 370.065 123.788C375.715 121.425 381.803 119.978 387.925 119.68C394.048 119.383 400.204 120.234 405.892 121.986C411.579 123.738 416.768 126.497 421.333 129.886C430.433 136.771 436.841 146.469 439.447 156.744C442.052 167.019 440.776 177.736 435.964 185.91C434.679 181.347 433.279 177.209 431.418 173.518C429.556 169.827 427.34 166.611 424.796 163.763C419.894 158.231 413.975 154.365 408.026 152.315C402.077 150.265 396.154 149.818 390.953 150.933C385.751 152.047 381.116 154.454 376.536 158.357L358.272 173.757L350.155 151.288C348.112 145.724 345.329 141.216 341.382 137.65C337.435 134.084 332.217 131.432 325.905 130.311C319.699 129.218 312.669 129.5 305.628 131.946C302.108 133.17 298.581 134.847 295.017 137.084C291.666 139.378 288.307 142.127 284.99 145.57Z" fill="#FF3E3E"/>
</g>
<g filter="url(#filter14_f_862_12452)">
<path d="M319.237 238.66C317.268 236.65 315.404 234.669 313.541 232.688C312.57 231.629 311.678 230.706 310.707 229.648C309.843 228.618 308.979 227.589 308.036 226.424L302.802 220.005C301.13 217.733 299.565 215.489 298 213.246C291.768 204.165 286.19 194.348 282.01 183.993C277.83 173.638 275.105 162.532 274.813 151.281L274.804 147.06C274.827 145.698 274.985 144.258 275.143 142.818L275.365 140.712C275.43 140.045 275.629 139.3 275.694 138.634L276.458 134.506C277.912 129.081 280.004 123.827 282.967 119.148C281.01 124.325 279.826 129.594 279.096 134.871L278.815 138.9C278.75 139.567 278.686 140.233 278.727 140.929L278.746 142.986C278.83 144.376 278.729 145.604 278.812 146.994L279.12 150.953C280.143 161.602 283.067 171.963 287.12 181.942C291.067 191.892 296.141 201.461 301.592 210.902C303.023 213.223 304.347 215.516 305.748 217.944L310.174 224.831C310.903 225.938 311.604 227.152 312.333 228.259C313.062 229.367 313.898 230.503 314.628 231.611C316.271 233.989 317.807 236.339 319.237 238.66Z" fill="#FFA216"/>
</g>
<g filter="url(#filter15_f_862_12452)">
<path d="M282.642 124.191C285.15 114.83 290.829 105.976 298.923 99.5944C306.912 93.184 317.153 89.4294 327.582 88.8034C338.117 88.2059 348.996 91.0069 357.919 97.2744C362.356 100.288 366.324 104.201 369.483 108.582C372.642 112.962 375.126 117.733 376.964 122.786L368.135 120.42C372.147 116.934 376.684 114.046 381.61 111.831C386.535 109.617 391.9 108.318 397.278 107.82C408.111 106.961 418.961 109.868 427.786 115.653C436.611 121.438 443.497 129.782 447.316 139.356C451.135 148.93 451.626 159.437 449.118 168.798C449.112 167.542 449.078 166.393 449.073 165.137C449.039 163.988 448.927 162.704 448.786 161.526C448.505 159.171 448.118 156.787 447.596 154.481C446.417 149.946 444.726 145.617 442.496 141.599C437.902 133.641 431.199 127.171 423.415 123.033C415.631 118.895 406.765 117.089 398.386 118.151C389.901 119.183 381.93 122.976 375.397 128.636L369.297 133.956L366.674 126.299C363.74 118.102 358.868 110.754 352.035 105.617C345.203 100.48 336.729 97.6392 327.813 97.3022C319.002 96.9937 309.962 99.2458 302.004 103.84C298.093 106.099 294.329 109.081 291.147 112.446C289.542 114.182 288.043 115.947 286.594 117.953C285.883 118.903 285.173 119.852 284.54 120.937C283.907 122.022 283.275 123.106 282.642 124.191Z" fill="#700000"/>
</g>
<g filter="url(#filter16_f_862_12452)">
<path d="M282.642 124.191C285.15 114.83 290.829 105.976 298.923 99.5944C306.912 93.184 317.153 89.4294 327.582 88.8034C338.117 88.2059 348.996 91.0069 357.919 97.2744C362.356 100.288 366.324 104.201 369.483 108.582C372.642 112.962 375.126 117.733 376.964 122.786L368.135 120.42C372.147 116.934 376.684 114.046 381.61 111.831C386.535 109.617 391.9 108.318 397.278 107.82C408.111 106.961 418.961 109.868 427.786 115.653C436.611 121.438 443.497 129.782 447.316 139.356C451.135 148.93 451.626 159.437 449.118 168.798C449.112 167.542 449.078 166.393 449.073 165.137C449.039 163.988 448.927 162.704 448.786 161.526C448.505 159.171 448.118 156.787 447.596 154.481C446.417 149.946 444.726 145.617 442.496 141.599C437.902 133.641 431.199 127.171 423.415 123.033C415.631 118.895 406.765 117.089 398.386 118.151C389.901 119.183 381.93 122.976 375.397 128.636L369.297 133.956L366.674 126.299C363.74 118.102 358.868 110.754 352.035 105.617C345.203 100.48 336.729 97.6392 327.813 97.3022C319.002 96.9937 309.962 99.2458 302.004 103.84C298.093 106.099 294.329 109.081 291.147 112.446C289.542 114.182 288.043 115.947 286.594 117.953C285.883 118.903 285.173 119.852 284.54 120.937C283.907 122.022 283.275 123.106 282.642 124.191Z" fill="#700000"/>
</g>
<g filter="url(#filter17_f_862_12452)">
<path d="M281.799 144.716C281.718 135.231 285.972 125.312 293.366 117.716C300.76 110.12 311.159 104.926 322.482 103.514C328.13 102.861 334.004 103.066 339.805 104.393C345.606 105.719 351.257 108.031 356.41 111.35C361.564 114.669 366.113 118.967 369.824 123.838C373.536 128.708 376.196 134.096 378.162 139.525L351.781 132.456C352.946 131.514 354.082 130.679 355.246 129.736C356.411 128.794 357.653 127.987 358.896 127.18C360.138 126.373 361.458 125.7 362.807 124.922C364.156 124.143 365.554 123.605 366.874 122.933C372.524 120.57 378.612 119.124 384.734 118.826C390.857 118.528 397.013 119.38 402.701 121.132C408.388 122.883 413.577 125.642 418.142 129.031C427.242 135.916 433.65 145.614 436.256 155.889C438.861 166.164 437.586 176.882 432.773 185.055C431.488 180.492 430.088 176.355 428.227 172.664C426.365 168.973 424.149 165.757 421.606 162.909C416.703 157.377 410.784 153.511 404.835 151.461C398.886 149.41 392.963 148.963 387.762 150.078C382.56 151.193 377.925 153.599 373.345 157.502L355.081 172.903L347.071 150.462C345.027 144.898 342.245 140.39 338.297 136.824C334.35 133.258 329.133 130.606 322.82 129.485C316.614 128.392 309.584 128.674 302.544 131.12C299.024 132.344 295.496 134.021 291.932 136.258C288.475 138.524 285.116 141.272 281.799 144.716Z" fill="#FF9797"/>
</g>
<g filter="url(#filter18_f_862_12452)">
<path d="M354.341 248.066C356.741 246.77 359.246 245.504 361.724 244.343C362.909 243.749 364.201 243.183 365.386 242.588C366.571 241.994 367.785 241.293 368.971 240.698L376.246 236.947C378.568 235.517 380.967 234.222 383.366 232.927C392.808 227.476 401.881 221.698 410.38 215.082C418.773 208.438 426.592 200.956 432.803 192.245L435.049 188.971C435.816 187.808 436.342 186.695 437.11 185.533L438.155 183.76C438.539 183.179 438.71 182.541 439.093 181.96L440.864 178.33C442.977 173.423 444.508 168.133 445.373 162.778C445.707 168.34 444.785 173.908 443.332 179.333L441.929 183.29C441.652 183.899 441.452 184.644 441.175 185.254L440.314 187.189C439.731 188.515 439.176 189.735 438.487 191.032L436.368 194.683C430.49 204.281 422.578 212.536 413.78 219.414C404.982 226.291 395.349 232.033 385.306 236.753C382.829 237.913 380.351 239.073 377.768 240.205L370.025 243.147C368.762 243.607 367.47 244.173 366.1 244.604C364.731 245.035 363.467 245.494 362.126 245.819C359.657 246.526 357.024 247.416 354.341 248.066Z" fill="#FFA216"/>
</g>
</g>
<g style="mix-blend-mode:soft-light">
<path d="M368.619 123.743C426.871 73.5663 525.265 196.955 333.247 255.754C196.355 108.824 343.26 51.1629 368.619 123.743Z" fill="url(#paint11_linear_862_12452)"/>
</g>
<g style="mix-blend-mode:soft-light">
<path d="M368.619 123.743C343.26 51.1629 196.355 108.824 333.247 255.754C525.265 196.955 426.871 73.5663 368.619 123.743Z" fill="url(#paint12_linear_862_12452)"/>
</g>
<mask id="mask4_862_12452" style="mask-type:alpha" maskUnits="userSpaceOnUse" x="275" y="92" width="172" height="164">
<path d="M368.573 123.73C426.824 73.5538 525.218 196.942 333.201 255.741C196.414 108.84 343.214 51.1504 368.573 123.73Z" fill="url(#paint13_linear_862_12452)"/>
</mask>
<g mask="url(#mask4_862_12452)">
<g filter="url(#filter19_f_862_12452)">
<path d="M344.761 96.5996C347.626 97.8232 350.298 99.3374 352.885 101.171C355.366 102.976 357.761 105.099 359.858 107.486C361.984 109.765 363.782 112.413 365.34 115.111C366.897 117.809 368.185 120.662 369.203 123.671L368.352 123.443C370.709 121.452 373.251 119.625 375.977 117.961C378.675 116.404 381.557 115.01 384.537 114.098C387.546 113.08 390.576 112.41 393.733 112.116C396.89 111.822 399.962 111.847 403.054 112.219C396.784 111.793 390.597 112.758 384.792 114.85C381.889 115.897 379.142 117.213 376.444 118.771C373.853 120.356 371.311 122.184 368.954 124.174L368.357 124.698L368.209 123.975C367.163 121.072 365.982 118.247 364.424 115.55C362.973 112.881 361.146 110.339 359.155 107.981C355.281 103.295 350.298 99.3374 344.761 96.5996Z" fill="#820010"/>
</g>
<g filter="url(#filter20_f_862_12452)">
<path d="M344.761 96.5996C347.626 97.8232 350.298 99.3374 352.885 101.171C355.366 102.976 357.761 105.099 359.858 107.486C361.984 109.765 363.782 112.413 365.34 115.111C366.897 117.809 368.185 120.662 369.203 123.671L368.352 123.443C370.709 121.452 373.251 119.625 375.977 117.961C378.675 116.404 381.557 115.01 384.537 114.098C387.546 113.08 390.576 112.41 393.733 112.116C396.89 111.822 399.962 111.847 403.054 112.219C396.784 111.793 390.597 112.758 384.792 114.85C381.889 115.897 379.142 117.213 376.444 118.771C373.853 120.356 371.311 122.184 368.954 124.174L368.357 124.698L368.209 123.975C367.163 121.072 365.982 118.247 364.424 115.55C362.973 112.881 361.146 110.339 359.155 107.981C355.281 103.295 350.298 99.3374 344.761 96.5996Z" fill="#820010"/>
</g>
<g filter="url(#filter21_f_862_12452)">
<path d="M344.761 96.5996C347.626 97.8232 350.298 99.3374 352.885 101.171C355.366 102.976 357.761 105.099 359.858 107.486C361.984 109.765 363.782 112.413 365.34 115.111C366.897 117.809 368.185 120.662 369.203 123.671L368.352 123.443C370.709 121.452 373.251 119.625 375.977 117.961C378.675 116.404 381.557 115.01 384.537 114.098C387.546 113.08 390.576 112.41 393.733 112.116C396.89 111.822 399.962 111.847 403.054 112.219C396.784 111.793 390.597 112.758 384.792 114.85C381.889 115.897 379.142 117.213 376.444 118.771C373.853 120.356 371.311 122.184 368.954 124.174L368.357 124.698L368.209 123.975C367.163 121.072 365.982 118.247 364.424 115.55C362.973 112.881 361.146 110.339 359.155 107.981C355.281 103.295 350.298 99.3374 344.761 96.5996Z" fill="#820010"/>
</g>
</g>
<path d="M368.37 314.43V314.48C368.37 333.03 349.68 356.53 320.81 372.55C299.191 384.529 274.895 390.848 250.18 390.92C241.798 390.916 233.432 390.174 225.18 388.7C171.89 379.25 132 341.58 132 314.48C132.33 299.34 147 293.64 160.42 303.74C178.24 317.11 215.54 330.27 250.19 330.27C284.84 330.27 322.19 317.11 339.97 303.74C353.4 293.65 368 299.33 368.37 314.43Z" fill="url(#paint14_radial_862_12452)"/>
<path d="M368.37 314.49C368.37 345.7 315.46 390.92 250.18 390.92C184.9 390.92 132 345.7 132 314.49C132 314.29 132 314.69 132 314.49C132.32 299.35 146.95 293.64 160.41 303.74C178.23 317.12 215.54 330.27 250.18 330.27C284.82 330.27 322.18 317.12 339.96 303.74C353.42 293.64 368.05 299.35 368.37 314.49C368.38 314.69 368.37 314.29 368.37 314.49Z" stroke="url(#paint15_linear_862_12452)" stroke-width="2" stroke-miterlimit="10"/>
<mask id="mask5_862_12452" style="mask-type:alpha" maskUnits="userSpaceOnUse" x="132" y="298" width="237" height="93">
<path d="M368.37 314.43V314.48C368.37 333.03 349.68 356.53 320.81 372.55C299.191 384.529 274.895 390.848 250.18 390.92C241.798 390.916 233.432 390.174 225.18 388.7C171.89 379.25 132 341.58 132 314.48C132.33 299.34 147 293.64 160.42 303.74C178.24 317.11 215.54 330.27 250.19 330.27C284.84 330.27 322.19 317.11 339.97 303.74C353.4 293.65 368 299.33 368.37 314.43Z" fill="url(#paint16_radial_862_12452)"/>
</mask>
<g mask="url(#mask5_862_12452)">
<g filter="url(#filter22_f_862_12452)">
<ellipse cx="249.97" cy="296" rx="116" ry="51" fill="#371600"/>
</g>
</g>
<path d="M357.33 462.99C356.346 464.792 354.944 466.331 353.243 467.481C351.543 468.631 349.591 469.357 347.553 469.598C345.514 469.84 343.447 469.591 341.524 468.871C339.602 468.151 337.879 466.981 336.5 465.46C334.925 463.609 333.754 461.45 333.06 459.12C330.22 450.34 332.01 440.82 333.63 431.73C335.25 422.64 336.63 412.95 333 404.45C331.895 401.636 330.067 399.163 327.7 397.28C325.619 395.709 323.117 394.794 320.512 394.653C317.908 394.513 315.322 395.152 313.083 396.491C310.845 397.829 309.057 399.805 307.949 402.165C306.84 404.525 306.461 407.163 306.86 409.74C307.53 414.11 310.38 418 310.52 422.41C310.71 428.41 304.83 433.92 298.84 433.29C292.85 432.66 288.2 426.1 289.64 420.29C290.47 416.85 292.96 414.06 294.27 410.77C296.62 404.77 294.58 397.53 289.86 393.18C285.14 388.83 276.75 387.14 270.47 388.5C273.07 382.78 281.14 380.28 287.35 379.26C291.2 378.63 295.18 378.42 299.02 377.75C301.355 377.375 303.637 376.727 305.82 375.82C307.473 375.095 309.042 374.194 310.5 373.13C314.82 370.03 318.39 365.79 322.09 361.88C328.3 355.32 335.54 349.32 344.2 346.77C346.263 346.165 346.792 345.434 348.325 345.37C349.419 345.324 350.514 345.683 351.395 346.333C351.947 346.739 351.937 346.933 351.97 347C351.97 347 351.04 350.07 349.64 353.21C348.285 356.217 347.129 359.311 346.18 362.47C344.923 366.248 343.881 370.094 343.06 373.99C340.959 383.599 340.56 393.503 341.88 403.25C342.399 408.208 343.339 413.112 344.69 417.91C345.11 419.36 345.59 420.8 346.14 422.22C348.96 429.58 353.14 436.37 356.19 443.62C358.79 449.78 360.54 457.09 357.33 462.99Z" fill="url(#paint17_linear_862_12452)"/>
<mask id="mask6_862_12452" style="mask-type:alpha" maskUnits="userSpaceOnUse" x="270" y="345" width="90" height="125">
<path d="M357.33 462.99C356.346 464.792 354.944 466.331 353.243 467.481C351.543 468.631 349.591 469.357 347.553 469.598C345.514 469.84 343.447 469.591 341.524 468.871C339.602 468.151 337.879 466.981 336.5 465.46C334.925 463.609 333.754 461.45 333.06 459.12C330.22 450.34 332.01 440.82 333.63 431.73C335.25 422.64 336.63 412.95 333 404.45C331.895 401.636 330.067 399.163 327.7 397.28C325.619 395.709 323.117 394.794 320.512 394.653C317.908 394.513 315.322 395.152 313.083 396.491C310.845 397.829 309.057 399.805 307.949 402.165C306.84 404.525 306.461 407.163 306.86 409.74C307.53 414.11 310.38 418 310.52 422.41C310.71 428.41 304.83 433.92 298.84 433.29C292.85 432.66 288.2 426.1 289.64 420.29C290.47 416.85 292.96 414.06 294.27 410.77C296.62 404.77 294.58 397.53 289.86 393.18C285.14 388.83 276.75 387.14 270.47 388.5C273.07 382.78 281.14 380.28 287.35 379.26C291.2 378.63 295.18 378.42 299.02 377.75C301.355 377.375 303.637 376.727 305.82 375.82C307.473 375.095 309.042 374.194 310.5 373.13C314.82 370.03 318.39 365.79 322.09 361.88C328.3 355.32 335.54 349.32 344.2 346.77C346.263 346.165 346.792 345.434 348.325 345.37C349.419 345.324 350.514 345.683 351.395 346.333C351.947 346.739 351.937 346.933 351.97 347C351.97 347 351.04 350.07 349.64 353.21C348.285 356.217 347.129 359.311 346.18 362.47C344.923 366.248 343.881 370.094 343.06 373.99C340.959 383.599 340.56 393.503 341.88 403.25C342.399 408.208 343.339 413.112 344.69 417.91C345.11 419.36 345.59 420.8 346.14 422.22C348.96 429.58 353.14 436.37 356.19 443.62C358.79 449.78 360.54 457.09 357.33 462.99Z" fill="url(#paint18_linear_862_12452)"/>
</mask>
<g mask="url(#mask6_862_12452)">
<g filter="url(#filter23_f_862_12452)">
<path d="M270.47 388.501C276.75 387.141 285.14 388.831 289.86 393.181C294.58 397.531 296.62 404.771 294.27 410.771C292.96 414.061 290.47 416.851 289.64 420.291C288.2 426.101 292.85 432.661 298.84 433.291C304.83 433.921 310.71 428.411 310.52 422.411C310.38 418.001 307.53 414.111 306.86 409.741C306.461 407.164 306.84 404.526 307.949 402.166C309.057 399.805 310.845 397.829 313.083 396.491C315.322 395.153 317.908 394.513 320.512 394.654C323.117 394.794 325.619 395.709 327.7 397.281C330.067 399.163 331.895 401.636 333 404.451C336.63 412.951 335.25 422.641 333.63 431.731C332.01 440.821 330.22 450.341 333.06 459.121C333.754 461.45 334.925 463.609 336.5 465.461C337.879 466.982 339.602 468.151 341.524 468.871C343.447 469.591 345.514 469.841 347.553 469.599C349.591 469.357 351.543 468.631 353.243 467.482C354.944 466.332 356.346 464.792 357.33 462.991C360.54 457.091 358.79 449.781 356.19 443.621C353.14 436.371 348.96 429.581 346.14 422.221C345.59 420.801 345.11 419.361 344.69 417.911C343.339 413.113 342.399 408.208 341.88 403.251C340.56 393.503 340.959 383.6 343.06 373.991C343.881 370.095 344.923 366.248 346.18 362.471C347.129 359.311 348.285 356.218 349.64 353.211C351.04 350.071 351.97 347.001 351.97 347.001" stroke="white"/>
</g>
</g>
<mask id="mask7_862_12452" style="mask-type:alpha" maskUnits="userSpaceOnUse" x="270" y="345" width="90" height="125">
<path d="M357.33 462.99C356.346 464.792 354.944 466.331 353.243 467.481C351.543 468.631 349.591 469.357 347.553 469.598C345.514 469.84 343.447 469.591 341.524 468.871C339.602 468.151 337.879 466.981 336.5 465.46C334.925 463.609 333.754 461.45 333.06 459.12C330.22 450.34 332.01 440.82 333.63 431.73C335.25 422.64 336.63 412.95 333 404.45C331.895 401.636 330.067 399.163 327.7 397.28C325.619 395.709 323.117 394.794 320.512 394.653C317.908 394.513 315.322 395.152 313.083 396.491C310.845 397.829 309.057 399.805 307.949 402.165C306.84 404.525 306.461 407.163 306.86 409.74C307.53 414.11 310.38 418 310.52 422.41C310.71 428.41 304.83 433.92 298.84 433.29C292.85 432.66 288.2 426.1 289.64 420.29C290.47 416.85 292.96 414.06 294.27 410.77C296.62 404.77 294.58 397.53 289.86 393.18C285.14 388.83 276.75 387.14 270.47 388.5C273.07 382.78 281.14 380.28 287.35 379.26C291.2 378.63 295.18 378.42 299.02 377.75C301.355 377.375 303.637 376.727 305.82 375.82C307.473 375.095 309.042 374.194 310.5 373.13C314.82 370.03 318.39 365.79 322.09 361.88C328.3 355.32 335.54 349.32 344.2 346.77C346.263 346.165 346.792 345.434 348.325 345.37C349.419 345.324 350.514 345.683 351.395 346.333C351.947 346.739 351.937 346.933 351.97 347C351.97 347 351.04 350.07 349.64 353.21C348.285 356.217 347.129 359.311 346.18 362.47C344.923 366.248 343.881 370.094 343.06 373.99C340.959 383.599 340.56 393.503 341.88 403.25C342.399 408.208 343.339 413.112 344.69 417.91C345.11 419.36 345.59 420.8 346.14 422.22C348.96 429.58 353.14 436.37 356.19 443.62C358.79 449.78 360.54 457.09 357.33 462.99Z" fill="url(#paint19_linear_862_12452)"/>
</mask>
<g mask="url(#mask7_862_12452)">
<g opacity="0.6" filter="url(#filter24_f_862_12452)">
<path d="M339.374 457.8C338.874 454.4 342.174 434.4 342.174 434.4C342.174 434.4 351.274 452.5 351.774 455.9C352.274 459.3 349.974 462.5 346.474 463.1C343.074 463.6 339.874 461.2 339.374 457.8Z" fill="white"/>
</g>
<g opacity="0.6" filter="url(#filter25_f_862_12452)">
<path d="M294.973 423.4C295.073 420.9 300.373 407 300.373 407C300.373 407 304.273 421.3 304.173 423.8C304.073 426.3 301.873 428.3 299.373 428.2C296.873 428.1 294.873 425.9 294.973 423.4Z" fill="white"/>
</g>
</g>
<defs>
<filter id="filter0_f_862_12452" x="-14.8149" y="206.559" width="535.022" height="306.595" filterUnits="userSpaceOnUse" color-interpolation-filters="sRGB">
<feFlood flood-opacity="0" result="BackgroundImageFix"/>
<feBlend mode="normal" in="SourceGraphic" in2="BackgroundImageFix" result="shape"/>
<feGaussianBlur stdDeviation="12.5" result="effect1_foregroundBlur_862_12452"/>
</filter>
<filter id="filter1_f_862_12452" x="-29.8149" y="191.559" width="565.022" height="336.595" filterUnits="userSpaceOnUse" color-interpolation-filters="sRGB">
<feFlood flood-opacity="0" result="BackgroundImageFix"/>
<feBlend mode="normal" in="SourceGraphic" in2="BackgroundImageFix" result="shape"/>
<feGaussianBlur stdDeviation="20" result="effect1_foregroundBlur_862_12452"/>
</filter>
<filter id="filter2_f_862_12452" x="0.187988" y="42.458" width="506.01" height="283.309" filterUnits="userSpaceOnUse" color-interpolation-filters="sRGB">
<feFlood flood-opacity="0" result="BackgroundImageFix"/>
<feBlend mode="normal" in="SourceGraphic" in2="BackgroundImageFix" result="shape"/>
<feGaussianBlur stdDeviation="30" result="effect1_foregroundBlur_862_12452"/>
</filter>
<filter id="filter3_f_862_12452" x="20.188" y="62.458" width="466.01" height="243.309" filterUnits="userSpaceOnUse" color-interpolation-filters="sRGB">
<feFlood flood-opacity="0" result="BackgroundImageFix"/>
<feBlend mode="normal" in="SourceGraphic" in2="BackgroundImageFix" result="shape"/>
<feGaussianBlur stdDeviation="20" result="effect1_foregroundBlur_862_12452"/>
</filter>
<filter id="filter4_f_862_12452" x="51.4517" y="82.3486" width="195.726" height="122.113" filterUnits="userSpaceOnUse" color-interpolation-filters="sRGB">
<feFlood flood-opacity="0" result="BackgroundImageFix"/>
<feBlend mode="normal" in="SourceGraphic" in2="BackgroundImageFix" result="shape"/>
<feGaussianBlur stdDeviation="10" result="effect1_foregroundBlur_862_12452"/>
</filter>
<filter id="filter5_f_862_12452" x="51.2568" y="152.591" width="111.204" height="105.365" filterUnits="userSpaceOnUse" color-interpolation-filters="sRGB">
<feFlood flood-opacity="0" result="BackgroundImageFix"/>
<feBlend mode="normal" in="SourceGraphic" in2="BackgroundImageFix" result="shape"/>
<feGaussianBlur stdDeviation="5" result="effect1_foregroundBlur_862_12452"/>
</filter>
<filter id="filter6_f_862_12452" x="41.9844" y="67.0781" width="208.026" height="120.042" filterUnits="userSpaceOnUse" color-interpolation-filters="sRGB">
<feFlood flood-opacity="0" result="BackgroundImageFix"/>
<feBlend mode="normal" in="SourceGraphic" in2="BackgroundImageFix" result="shape"/>
<feGaussianBlur stdDeviation="10" result="effect1_foregroundBlur_862_12452"/>
</filter>
<filter id="filter7_f_862_12452" x="41.9844" y="67.0781" width="208.026" height="120.042" filterUnits="userSpaceOnUse" color-interpolation-filters="sRGB">
<feFlood flood-opacity="0" result="BackgroundImageFix"/>
<feBlend mode="normal" in="SourceGraphic" in2="BackgroundImageFix" result="shape"/>
<feGaussianBlur stdDeviation="10" result="effect1_foregroundBlur_862_12452"/>
</filter>
<filter id="filter8_f_862_12452" x="28.2593" y="63.2031" width="235.726" height="162.113" filterUnits="userSpaceOnUse" color-interpolation-filters="sRGB">
<feFlood flood-opacity="0" result="BackgroundImageFix"/>
<feBlend mode="normal" in="SourceGraphic" in2="BackgroundImageFix" result="shape"/>
<feGaussianBlur stdDeviation="20" result="effect1_foregroundBlur_862_12452"/>
</filter>
<filter id="filter9_f_862_12452" x="177.565" y="109.173" width="64.355" height="139.377" filterUnits="userSpaceOnUse" color-interpolation-filters="sRGB">
<feFlood flood-opacity="0" result="BackgroundImageFix"/>
<feBlend mode="normal" in="SourceGraphic" in2="BackgroundImageFix" result="shape"/>
<feGaussianBlur stdDeviation="5" result="effect1_foregroundBlur_862_12452"/>
</filter>
<filter id="filter10_f_862_12452" x="97.5352" y="90.5469" width="70.2935" height="40.1553" filterUnits="userSpaceOnUse" color-interpolation-filters="sRGB">
<feFlood flood-opacity="0" result="BackgroundImageFix"/>
<feBlend mode="normal" in="SourceGraphic" in2="BackgroundImageFix" result="shape"/>
<feGaussianBlur stdDeviation="3" result="effect1_foregroundBlur_862_12452"/>
</filter>
<filter id="filter11_f_862_12452" x="99.5352" y="92.5469" width="66.2935" height="36.1553" filterUnits="userSpaceOnUse" color-interpolation-filters="sRGB">
<feFlood flood-opacity="0" result="BackgroundImageFix"/>
<feBlend mode="normal" in="SourceGraphic" in2="BackgroundImageFix" result="shape"/>
<feGaussianBlur stdDeviation="2" result="effect1_foregroundBlur_862_12452"/>
</filter>
<filter id="filter12_f_862_12452" x="95.5352" y="88.5469" width="74.2935" height="44.1553" filterUnits="userSpaceOnUse" color-interpolation-filters="sRGB">
<feFlood flood-opacity="0" result="BackgroundImageFix"/>
<feBlend mode="normal" in="SourceGraphic" in2="BackgroundImageFix" result="shape"/>
<feGaussianBlur stdDeviation="4" result="effect1_foregroundBlur_862_12452"/>
</filter>
<filter id="filter13_f_862_12452" x="264.989" y="84.0088" width="195.783" height="121.901" filterUnits="userSpaceOnUse" color-interpolation-filters="sRGB">
<feFlood flood-opacity="0" result="BackgroundImageFix"/>
<feBlend mode="normal" in="SourceGraphic" in2="BackgroundImageFix" result="shape"/>
<feGaussianBlur stdDeviation="10" result="effect1_foregroundBlur_862_12452"/>
</filter>
<filter id="filter14_f_862_12452" x="264.804" y="109.148" width="64.4331" height="139.512" filterUnits="userSpaceOnUse" color-interpolation-filters="sRGB">
<feFlood flood-opacity="0" result="BackgroundImageFix"/>
<feBlend mode="normal" in="SourceGraphic" in2="BackgroundImageFix" result="shape"/>
<feGaussianBlur stdDeviation="5" result="effect1_foregroundBlur_862_12452"/>
</filter>
<filter id="filter15_f_862_12452" x="262.642" y="68.7246" width="208.026" height="120.073" filterUnits="userSpaceOnUse" color-interpolation-filters="sRGB">
<feFlood flood-opacity="0" result="BackgroundImageFix"/>
<feBlend mode="normal" in="SourceGraphic" in2="BackgroundImageFix" result="shape"/>
<feGaussianBlur stdDeviation="10" result="effect1_foregroundBlur_862_12452"/>
</filter>
<filter id="filter16_f_862_12452" x="262.642" y="68.7246" width="208.026" height="120.073" filterUnits="userSpaceOnUse" color-interpolation-filters="sRGB">
<feFlood flood-opacity="0" result="BackgroundImageFix"/>
<feBlend mode="normal" in="SourceGraphic" in2="BackgroundImageFix" result="shape"/>
<feGaussianBlur stdDeviation="10" result="effect1_foregroundBlur_862_12452"/>
</filter>
<filter id="filter17_f_862_12452" x="241.798" y="63.1543" width="235.783" height="161.901" filterUnits="userSpaceOnUse" color-interpolation-filters="sRGB">
<feFlood flood-opacity="0" result="BackgroundImageFix"/>
<feBlend mode="normal" in="SourceGraphic" in2="BackgroundImageFix" result="shape"/>
<feGaussianBlur stdDeviation="20" result="effect1_foregroundBlur_862_12452"/>
</filter>
<filter id="filter18_f_862_12452" x="344.341" y="152.778" width="111.1" height="105.287" filterUnits="userSpaceOnUse" color-interpolation-filters="sRGB">
<feFlood flood-opacity="0" result="BackgroundImageFix"/>
<feBlend mode="normal" in="SourceGraphic" in2="BackgroundImageFix" result="shape"/>
<feGaussianBlur stdDeviation="5" result="effect1_foregroundBlur_862_12452"/>
</filter>
<filter id="filter19_f_862_12452" x="338.761" y="90.5996" width="70.2935" height="40.0986" filterUnits="userSpaceOnUse" color-interpolation-filters="sRGB">
<feFlood flood-opacity="0" result="BackgroundImageFix"/>
<feBlend mode="normal" in="SourceGraphic" in2="BackgroundImageFix" result="shape"/>
<feGaussianBlur stdDeviation="3" result="effect1_foregroundBlur_862_12452"/>
</filter>
<filter id="filter20_f_862_12452" x="340.761" y="92.5996" width="66.2935" height="36.0986" filterUnits="userSpaceOnUse" color-interpolation-filters="sRGB">
<feFlood flood-opacity="0" result="BackgroundImageFix"/>
<feBlend mode="normal" in="SourceGraphic" in2="BackgroundImageFix" result="shape"/>
<feGaussianBlur stdDeviation="2" result="effect1_foregroundBlur_862_12452"/>
</filter>
<filter id="filter21_f_862_12452" x="336.761" y="88.5996" width="74.2935" height="44.0986" filterUnits="userSpaceOnUse" color-interpolation-filters="sRGB">
<feFlood flood-opacity="0" result="BackgroundImageFix"/>
<feBlend mode="normal" in="SourceGraphic" in2="BackgroundImageFix" result="shape"/>
<feGaussianBlur stdDeviation="4" result="effect1_foregroundBlur_862_12452"/>
</filter>
<filter id="filter22_f_862_12452" x="93.9697" y="205" width="312" height="182" filterUnits="userSpaceOnUse" color-interpolation-filters="sRGB">
<feFlood flood-opacity="0" result="BackgroundImageFix"/>
<feBlend mode="normal" in="SourceGraphic" in2="BackgroundImageFix" result="shape"/>
<feGaussianBlur stdDeviation="20" result="effect1_foregroundBlur_862_12452"/>
</filter>
<filter id="filter23_f_862_12452" x="266.364" y="342.856" width="97.2031" height="131.332" filterUnits="userSpaceOnUse" color-interpolation-filters="sRGB">
<feFlood flood-opacity="0" result="BackgroundImageFix"/>
<feBlend mode="normal" in="SourceGraphic" in2="BackgroundImageFix" result="shape"/>
<feGaussianBlur stdDeviation="2" result="effect1_foregroundBlur_862_12452"/>
</filter>
<filter id="filter24_f_862_12452" x="329.322" y="424.4" width="32.5195" height="48.7656" filterUnits="userSpaceOnUse" color-interpolation-filters="sRGB">
<feFlood flood-opacity="0" result="BackgroundImageFix"/>
<feBlend mode="normal" in="SourceGraphic" in2="BackgroundImageFix" result="shape"/>
<feGaussianBlur stdDeviation="5" result="effect1_foregroundBlur_862_12452"/>
</filter>
<filter id="filter25_f_862_12452" x="284.97" y="397" width="29.2056" height="41.2031" filterUnits="userSpaceOnUse" color-interpolation-filters="sRGB">
<feFlood flood-opacity="0" result="BackgroundImageFix"/>
<feBlend mode="normal" in="SourceGraphic" in2="BackgroundImageFix" result="shape"/>
<feGaussianBlur stdDeviation="5" result="effect1_foregroundBlur_862_12452"/>
</filter>
<radialGradient id="paint0_radial_862_12452" cx="0" cy="0" r="1" gradientUnits="userSpaceOnUse" gradientTransform="translate(253 -4.53898e-06) rotate(90) scale(482)">
<stop stop-color="#FFDE43"/>
<stop offset="1" stop-color="#FFBC00"/>
</radialGradient>
<radialGradient id="paint1_radial_862_12452" cx="0" cy="0" r="1" gradientUnits="userSpaceOnUse" gradientTransform="translate(253 64.5) rotate(90) scale(417.5)">
<stop stop-color="white" stop-opacity="0.5"/>
<stop offset="0.782278"/>
</radialGradient>
<radialGradient id="paint2_radial_862_12452" cx="0" cy="0" r="1" gradientUnits="userSpaceOnUse" gradientTransform="translate(253 64.5) rotate(90) scale(417.5)">
<stop stop-color="white" stop-opacity="0.5"/>
<stop offset="0.782278"/>
</radialGradient>
<radialGradient id="paint3_radial_862_12452" cx="0" cy="0" r="1" gradientUnits="userSpaceOnUse" gradientTransform="translate(253 -52.5) rotate(90) scale(534.5 722.835)">
<stop offset="0.0922635" stop-color="white"/>
<stop offset="0.670207" stop-color="white" stop-opacity="0"/>
</radialGradient>
<linearGradient id="paint4_linear_862_12452" x1="132.411" y1="103.794" x2="173.129" y2="255.755" gradientUnits="userSpaceOnUse">
<stop stop-color="#FF0000"/>
<stop offset="1" stop-color="#610003"/>
</linearGradient>
<linearGradient id="paint5_linear_862_12452" x1="132.411" y1="103.794" x2="173.129" y2="255.755" gradientUnits="userSpaceOnUse">
<stop stop-color="#FF0000"/>
<stop offset="1" stop-color="#610003"/>
</linearGradient>
<linearGradient id="paint6_linear_862_12452" x1="236.06" y1="157.457" x2="69.5008" y2="202.086" gradientUnits="userSpaceOnUse">
<stop stop-color="#FF8F00"/>
<stop offset="0.0143476" stop-color="#FF9001" stop-opacity="0.9857"/>
<stop offset="0.2987" stop-color="#FF9912" stop-opacity="0.7013"/>
<stop offset="0.6103" stop-color="#FF9F1C" stop-opacity="0.3897"/>
<stop offset="1" stop-color="#FFA11F" stop-opacity="0"/>
</linearGradient>
<linearGradient id="paint7_linear_862_12452" x1="69.546" y1="202.074" x2="236.105" y2="157.444" gradientUnits="userSpaceOnUse">
<stop stop-color="#FF8F00"/>
<stop offset="0.0143476" stop-color="#FF9001" stop-opacity="0.9857"/>
<stop offset="0.2987" stop-color="#FF9912" stop-opacity="0.7013"/>
<stop offset="0.6103" stop-color="#FF9F1C" stop-opacity="0.3897"/>
<stop offset="1" stop-color="#FFA11F" stop-opacity="0"/>
</linearGradient>
<linearGradient id="paint8_linear_862_12452" x1="132.411" y1="103.794" x2="173.129" y2="255.755" gradientUnits="userSpaceOnUse">
<stop stop-color="#FF0000"/>
<stop offset="1" stop-color="#610003"/>
</linearGradient>
<linearGradient id="paint9_linear_862_12452" x1="373.954" y1="103.786" x2="333.236" y2="255.747" gradientUnits="userSpaceOnUse">
<stop stop-color="#FF0000"/>
<stop offset="1" stop-color="#610003"/>
</linearGradient>
<linearGradient id="paint10_linear_862_12452" x1="373.954" y1="103.786" x2="333.237" y2="255.747" gradientUnits="userSpaceOnUse">
<stop stop-color="#FF0000"/>
<stop offset="1" stop-color="#610003"/>
</linearGradient>
<linearGradient id="paint11_linear_862_12452" x1="436.885" y1="202.084" x2="270.326" y2="157.455" gradientUnits="userSpaceOnUse">
<stop stop-color="#FF8F00"/>
<stop offset="0.0143476" stop-color="#FF9001" stop-opacity="0.9857"/>
<stop offset="0.2987" stop-color="#FF9912" stop-opacity="0.7013"/>
<stop offset="0.6103" stop-color="#FF9F1C" stop-opacity="0.3897"/>
<stop offset="1" stop-color="#FFA11F" stop-opacity="0"/>
</linearGradient>
<linearGradient id="paint12_linear_862_12452" x1="270.371" y1="157.467" x2="436.93" y2="202.096" gradientUnits="userSpaceOnUse">
<stop stop-color="#FF8F00"/>
<stop offset="0.0143476" stop-color="#FF9001" stop-opacity="0.9857"/>
<stop offset="0.2987" stop-color="#FF9912" stop-opacity="0.7013"/>
<stop offset="0.6103" stop-color="#FF9F1C" stop-opacity="0.3897"/>
<stop offset="1" stop-color="#FFA11F" stop-opacity="0"/>
</linearGradient>
<linearGradient id="paint13_linear_862_12452" x1="373.954" y1="103.786" x2="333.236" y2="255.747" gradientUnits="userSpaceOnUse">
<stop stop-color="#FF0000"/>
<stop offset="1" stop-color="#610003"/>
</linearGradient>
<radialGradient id="paint14_radial_862_12452" cx="0" cy="0" r="1" gradientUnits="userSpaceOnUse" gradientTransform="translate(250.021 344.763) scale(150.657 46.2065)">
<stop stop-color="#743C1C"/>
<stop offset="1" stop-color="#401C02"/>
</radialGradient>
<linearGradient id="paint15_linear_862_12452" x1="250.187" y1="393.516" x2="250.187" y2="295.701" gradientUnits="userSpaceOnUse">
<stop offset="0.265625" stop-color="#FFDE43"/>
<stop offset="1" stop-color="#F79D14"/>
</linearGradient>
<radialGradient id="paint16_radial_862_12452" cx="0" cy="0" r="1" gradientUnits="userSpaceOnUse" gradientTransform="translate(250.021 344.763) scale(150.657 46.2065)">
<stop stop-color="#743C1C"/>
<stop offset="1" stop-color="#401C02"/>
</radialGradient>
<linearGradient id="paint17_linear_862_12452" x1="313.68" y1="471.26" x2="313.68" y2="347.72" gradientUnits="userSpaceOnUse">
<stop stop-color="#0048FF"/>
<stop offset="0.18" stop-color="#0068FF"/>
<stop offset="0.38" stop-color="#0084FE"/>
<stop offset="0.59" stop-color="#0097FE"/>
<stop offset="0.79" stop-color="#00A3FE"/>
<stop offset="1" stop-color="#00A7FE"/>
</linearGradient>
<linearGradient id="paint18_linear_862_12452" x1="313.68" y1="471.26" x2="313.68" y2="347.72" gradientUnits="userSpaceOnUse">
<stop stop-color="#0048FF"/>
<stop offset="0.18" stop-color="#0068FF"/>
<stop offset="0.38" stop-color="#0084FE"/>
<stop offset="0.59" stop-color="#0097FE"/>
<stop offset="0.79" stop-color="#00A3FE"/>
<stop offset="1" stop-color="#00A7FE"/>
</linearGradient>
<linearGradient id="paint19_linear_862_12452" x1="313.68" y1="471.26" x2="313.68" y2="347.72" gradientUnits="userSpaceOnUse">
<stop stop-color="#0048FF"/>
<stop offset="0.18" stop-color="#0068FF"/>
<stop offset="0.38" stop-color="#0084FE"/>
<stop offset="0.59" stop-color="#0097FE"/>
<stop offset="0.79" stop-color="#00A3FE"/>
<stop offset="1" stop-color="#00A7FE"/>
</linearGradient>
</defs>
</svg>
