<svg width="483" height="483" viewBox="0 0 483 483" fill="none" xmlns="http://www.w3.org/2000/svg">
<path d="M241.18 482.36C374.38 482.36 482.36 374.38 482.36 241.18C482.36 107.98 374.38 0 241.18 0C107.98 0 0 107.98 0 241.18C0 374.38 107.98 482.36 241.18 482.36Z" fill="url(#paint0_radial_862_12561)"/>
<g style="mix-blend-mode:soft-light">
<path d="M241.18 482.36C374.38 482.36 482.36 374.38 482.36 241.18C482.36 107.98 374.38 0 241.18 0C107.98 0 0 107.98 0 241.18C0 374.38 107.98 482.36 241.18 482.36Z" fill="url(#paint1_radial_862_12561)"/>
</g>
<g style="mix-blend-mode:soft-light">
<path d="M241.18 482.36C374.38 482.36 482.36 374.38 482.36 241.18C482.36 107.98 374.38 0 241.18 0C107.98 0 0 107.98 0 241.18C0 374.38 107.98 482.36 241.18 482.36Z" fill="url(#paint2_radial_862_12561)"/>
</g>
<g style="mix-blend-mode:overlay">
<path d="M241.18 482.36C374.38 482.36 482.36 374.38 482.36 241.18C482.36 107.98 374.38 0 241.18 0C107.98 0 0 107.98 0 241.18C0 374.38 107.98 482.36 241.18 482.36Z" fill="url(#paint3_radial_862_12561)" fill-opacity="0.7"/>
</g>
<mask id="mask0_862_12561" style="mask-type:alpha" maskUnits="userSpaceOnUse" x="0" y="0" width="483" height="483">
<path d="M241.18 482.36C374.38 482.36 482.36 374.38 482.36 241.18C482.36 107.98 374.38 0 241.18 0C107.98 0 0 107.98 0 241.18C0 374.38 107.98 482.36 241.18 482.36Z" fill="white"/>
</mask>
<g mask="url(#mask0_862_12561)">
<g filter="url(#filter0_f_862_12561)">
<path d="M-1.3759 234.299C-1.11402 230.872 0.0137008 230.529 0.342619 234.009C0.708055 237.875 -0.00231624 245.647 0.16871 250.335C0.621554 262.748 2.52441 273.542 4.48605 282.321C10.8075 310.613 19.5617 328.843 27.7268 344.289C54.5663 395.061 83.9667 420.771 112.648 440.147C154.689 468.55 197.072 477.584 239.49 479.5C240.56 479.549 240.738 486.518 239.686 487.425C237.788 489.062 235.436 487.438 233.494 487.37C227.915 487.174 222.335 486.791 216.756 486.211C200.213 484.492 183.67 480.991 167.162 475.359C122.275 460.044 73.8765 433.821 31.6092 359.962C28.9502 355.316 26.3124 350.424 23.7118 345.168C21.6321 340.964 19.5726 336.557 17.5493 331.844C10.8946 316.342 -4.61323 276.659 -1.3759 234.299ZM239.52 487.5C238.499 487.532 238.241 481.035 239.214 479.686C240.684 477.647 242.888 479.326 244.439 479.229C250.877 478.827 257.314 478.23 263.75 477.422C281.395 475.206 299.028 471.423 316.621 465.596C360.257 451.146 407.17 429.116 448.305 361.431C450.923 357.124 453.518 352.554 456.079 347.641C463.86 332.713 483.361 293.085 481.107 243.821C480.917 239.669 482.181 237.181 482.747 240.744C483.467 245.28 483.175 254.736 482.977 259.768C482.341 275.884 479.866 289.512 477.257 300.518C468.987 335.399 457.376 355.623 446.744 372.51C412.184 427.397 374.648 449.524 338.155 465.425C305.424 479.686 272.444 486.484 239.52 487.5Z" fill="#401C02"/>
</g>
<g filter="url(#filter1_f_862_12561)">
<path d="M-1.3759 234.299C-1.11402 230.872 0.0137008 230.529 0.342619 234.009C0.708055 237.875 -0.00231624 245.647 0.16871 250.335C0.621554 262.748 2.52441 273.542 4.48605 282.321C10.8075 310.613 19.5617 328.843 27.7268 344.289C54.5663 395.061 83.9667 420.771 112.648 440.147C154.689 468.55 197.072 477.584 239.49 479.5C240.56 479.549 240.738 486.518 239.686 487.425C237.788 489.062 235.436 487.438 233.494 487.37C227.915 487.174 222.335 486.791 216.756 486.211C200.213 484.492 183.67 480.991 167.162 475.359C122.275 460.044 73.8765 433.821 31.6092 359.962C28.9502 355.316 26.3124 350.424 23.7118 345.168C21.6321 340.964 19.5726 336.557 17.5493 331.844C10.8946 316.342 -4.61323 276.659 -1.3759 234.299ZM239.52 487.5C238.499 487.532 238.241 481.035 239.214 479.686C240.684 477.647 242.888 479.326 244.439 479.229C250.877 478.827 257.314 478.23 263.75 477.422C281.395 475.206 299.028 471.423 316.621 465.596C360.257 451.146 407.17 429.116 448.305 361.431C450.923 357.124 453.518 352.554 456.079 347.641C463.86 332.713 483.361 293.085 481.107 243.821C480.917 239.669 482.181 237.181 482.747 240.744C483.467 245.28 483.175 254.736 482.977 259.768C482.341 275.884 479.866 289.512 477.257 300.518C468.987 335.399 457.376 355.623 446.744 372.51C412.184 427.397 374.648 449.524 338.155 465.425C305.424 479.686 272.444 486.484 239.52 487.5Z" fill="#401C02"/>
</g>
</g>
<path d="M171.286 203.69C109.016 202.54 72.8156 224.45 60.2856 233.69C59.2505 234.452 58.5082 235.545 58.1828 236.788C57.8575 238.032 57.9687 239.349 58.498 240.52C59.0272 241.691 59.9424 242.644 61.0905 243.221C62.2387 243.798 63.5501 243.964 64.8056 243.69C95.8056 237.31 118.246 236.57 134.336 238.23C134.276 239.043 134.246 239.863 134.246 240.69C134.246 248.008 136.416 255.162 140.481 261.246C144.547 267.331 150.325 272.073 157.086 274.874C163.847 277.674 171.287 278.407 178.464 276.979C185.641 275.551 192.234 272.028 197.409 266.853C202.583 261.678 206.107 255.086 207.535 247.908C208.962 240.731 208.23 233.292 205.429 226.531C202.629 219.77 197.886 213.991 191.802 209.926C185.717 205.86 178.563 203.69 171.246 203.69H171.286Z" fill="url(#paint4_radial_862_12561)"/>
<path d="M171.286 203.69C109.016 202.54 72.8156 224.45 60.2856 233.69C59.2505 234.452 58.5082 235.545 58.1828 236.788C57.8575 238.032 57.9687 239.349 58.498 240.52C59.0272 241.691 59.9424 242.644 61.0905 243.221C62.2387 243.798 63.5501 243.964 64.8056 243.69C95.8056 237.31 118.246 236.57 134.336 238.23C134.276 239.043 134.246 239.863 134.246 240.69C134.246 248.008 136.416 255.162 140.481 261.246C144.547 267.331 150.325 272.073 157.086 274.874C163.847 277.674 171.287 278.407 178.464 276.979C185.641 275.551 192.234 272.028 197.409 266.853C202.583 261.678 206.107 255.086 207.535 247.908C208.962 240.731 208.23 233.292 205.429 226.531C202.629 219.77 197.886 213.991 191.802 209.926C185.717 205.86 178.563 203.69 171.246 203.69H171.286Z" stroke="url(#paint5_linear_862_12561)" stroke-width="2" stroke-miterlimit="10"/>
<path d="M387.216 203.69C324.946 202.54 288.746 224.45 276.216 233.69C275.181 234.452 274.439 235.545 274.113 236.788C273.788 238.032 273.899 239.349 274.429 240.52C274.958 241.691 275.873 242.644 277.021 243.221C278.169 243.798 279.481 243.964 280.736 243.69C311.736 237.31 334.176 236.57 350.266 238.23C350.206 239.043 350.176 239.863 350.176 240.69C350.176 248.008 352.346 255.162 356.412 261.246C360.477 267.331 366.256 272.073 373.017 274.874C379.778 277.674 387.217 278.407 394.395 276.979C401.572 275.551 408.165 272.028 413.339 266.853C418.514 261.678 422.038 255.086 423.465 247.908C424.893 240.731 424.16 233.292 421.36 226.531C418.559 219.77 413.817 213.991 407.732 209.926C401.648 205.86 394.494 203.69 387.176 203.69H387.216Z" fill="url(#paint6_radial_862_12561)"/>
<path d="M387.216 203.69C324.946 202.54 288.746 224.45 276.216 233.69C275.181 234.452 274.439 235.545 274.113 236.788C273.788 238.032 273.899 239.349 274.429 240.52C274.958 241.691 275.873 242.644 277.021 243.221C278.169 243.798 279.481 243.964 280.736 243.69C311.736 237.31 334.176 236.57 350.266 238.23C350.206 239.043 350.176 239.863 350.176 240.69C350.176 248.008 352.346 255.162 356.412 261.246C360.477 267.331 366.256 272.073 373.017 274.874C379.778 277.674 387.217 278.407 394.395 276.979C401.572 275.551 408.165 272.028 413.339 266.853C418.514 261.678 422.038 255.086 423.465 247.908C424.893 240.731 424.16 233.292 421.36 226.531C418.559 219.77 413.817 213.991 407.732 209.926C401.648 205.86 394.494 203.69 387.176 203.69H387.216Z" stroke="url(#paint7_linear_862_12561)" stroke-width="2" stroke-miterlimit="10"/>
<path d="M332.836 356.81C335.593 354.38 338.198 351.781 340.636 349.03C341.874 347.647 343.03 346.191 344.096 344.67C344.586 343.95 345.096 343.22 345.496 342.47C345.706 342.1 346.286 340.42 346.626 340.28C331.516 346.81 316.176 353.28 300.326 357.78C286.145 361.843 271.561 364.331 256.836 365.2C245.283 365.854 233.696 365.456 222.216 364.01C215.016 363.1 207.956 361.38 200.886 359.78C194.886 358.41 186.796 355.4 180.836 358.24C177.066 360.03 174.836 364.07 173.916 368.14C173.02 371.308 173.31 374.693 174.731 377.662C176.152 380.632 178.607 382.981 181.636 384.27C192.376 389.96 206.486 390.95 218.356 392.15C234.899 393.862 251.61 392.873 267.836 389.22C283.22 385.625 297.982 379.757 311.636 371.81C319.192 367.54 326.295 362.515 332.836 356.81Z" fill="url(#paint8_radial_862_12561)"/>
<path d="M332.836 356.81C335.593 354.38 338.198 351.781 340.636 349.03C341.874 347.647 343.03 346.191 344.096 344.67C344.586 343.95 345.096 343.22 345.496 342.47C345.706 342.1 346.286 340.42 346.626 340.28C331.516 346.81 316.176 353.28 300.326 357.78C286.145 361.843 271.561 364.331 256.836 365.2C245.283 365.854 233.696 365.456 222.216 364.01C215.016 363.1 207.956 361.38 200.886 359.78C194.886 358.41 186.796 355.4 180.836 358.24C177.066 360.03 174.836 364.07 173.916 368.14C173.02 371.308 173.31 374.693 174.731 377.662C176.152 380.632 178.607 382.981 181.636 384.27C192.376 389.96 206.486 390.95 218.356 392.15C234.899 393.862 251.61 392.873 267.836 389.22C283.22 385.625 297.982 379.757 311.636 371.81C319.192 367.54 326.295 362.515 332.836 356.81V356.81Z" stroke="url(#paint9_linear_862_12561)" stroke-width="2.5" stroke-miterlimit="10"/>
<defs>
<filter id="filter0_f_862_12561" x="-26.8149" y="206.559" width="535.022" height="306.595" filterUnits="userSpaceOnUse" color-interpolation-filters="sRGB">
<feFlood flood-opacity="0" result="BackgroundImageFix"/>
<feBlend mode="normal" in="SourceGraphic" in2="BackgroundImageFix" result="shape"/>
<feGaussianBlur stdDeviation="12.5" result="effect1_foregroundBlur_862_12561"/>
</filter>
<filter id="filter1_f_862_12561" x="-41.8149" y="191.559" width="565.022" height="336.595" filterUnits="userSpaceOnUse" color-interpolation-filters="sRGB">
<feFlood flood-opacity="0" result="BackgroundImageFix"/>
<feBlend mode="normal" in="SourceGraphic" in2="BackgroundImageFix" result="shape"/>
<feGaussianBlur stdDeviation="20" result="effect1_foregroundBlur_862_12561"/>
</filter>
<radialGradient id="paint0_radial_862_12561" cx="0" cy="0" r="1" gradientUnits="userSpaceOnUse" gradientTransform="translate(241 -4.53898e-06) rotate(90) scale(482)">
<stop stop-color="#FFDE43"/>
<stop offset="1" stop-color="#FFBC00"/>
</radialGradient>
<radialGradient id="paint1_radial_862_12561" cx="0" cy="0" r="1" gradientUnits="userSpaceOnUse" gradientTransform="translate(241 64.5) rotate(90) scale(417.5)">
<stop stop-color="white" stop-opacity="0.5"/>
<stop offset="0.782278"/>
</radialGradient>
<radialGradient id="paint2_radial_862_12561" cx="0" cy="0" r="1" gradientUnits="userSpaceOnUse" gradientTransform="translate(241 64.5) rotate(90) scale(417.5)">
<stop stop-color="white" stop-opacity="0.5"/>
<stop offset="0.782278"/>
</radialGradient>
<radialGradient id="paint3_radial_862_12561" cx="0" cy="0" r="1" gradientUnits="userSpaceOnUse" gradientTransform="translate(241 -52.5) rotate(90) scale(534.5 722.835)">
<stop offset="0.0922635" stop-color="white"/>
<stop offset="0.670207" stop-color="white" stop-opacity="0"/>
</radialGradient>
<radialGradient id="paint4_radial_862_12561" cx="0" cy="0" r="1" gradientUnits="userSpaceOnUse" gradientTransform="translate(133.019 240.644) scale(95.7633 37.086)">
<stop stop-color="#743C1C"/>
<stop offset="1" stop-color="#401C02"/>
</radialGradient>
<linearGradient id="paint5_linear_862_12561" x1="133.123" y1="279.774" x2="133.123" y2="201.264" gradientUnits="userSpaceOnUse">
<stop stop-color="#FFDE43"/>
<stop offset="0.22" stop-color="#FED93F"/>
<stop offset="0.51" stop-color="#FCC934"/>
<stop offset="0.82" stop-color="#F9AF21"/>
<stop offset="1" stop-color="#F79D14"/>
</linearGradient>
<radialGradient id="paint6_radial_862_12561" cx="0" cy="0" r="1" gradientUnits="userSpaceOnUse" gradientTransform="translate(348.949 240.644) scale(95.7633 37.086)">
<stop stop-color="#743C1C"/>
<stop offset="1" stop-color="#401C02"/>
</radialGradient>
<linearGradient id="paint7_linear_862_12561" x1="349.053" y1="279.774" x2="349.053" y2="201.264" gradientUnits="userSpaceOnUse">
<stop stop-color="#FFDE43"/>
<stop offset="0.22" stop-color="#FED93F"/>
<stop offset="0.51" stop-color="#FCC934"/>
<stop offset="0.82" stop-color="#F9AF21"/>
<stop offset="1" stop-color="#F79D14"/>
</linearGradient>
<radialGradient id="paint8_radial_862_12561" cx="0" cy="0" r="1" gradientUnits="userSpaceOnUse" gradientTransform="translate(260.015 366.516) scale(65.3754 53.2146)">
<stop stop-color="#743C1C"/>
<stop offset="1" stop-color="#401C02"/>
</radialGradient>
<linearGradient id="paint9_linear_862_12561" x1="260.015" y1="394.448" x2="260.015" y2="338.585" gradientUnits="userSpaceOnUse">
<stop offset="0.265625" stop-color="#FFDE43"/>
<stop offset="1" stop-color="#F79D14"/>
</linearGradient>
</defs>
</svg>
