<svg width="483" height="483" viewBox="0 0 483 483" fill="none" xmlns="http://www.w3.org/2000/svg">
<path d="M241.18 482.36C374.38 482.36 482.36 374.38 482.36 241.18C482.36 107.98 374.38 0 241.18 0C107.98 0 0 107.98 0 241.18C0 374.38 107.98 482.36 241.18 482.36Z" fill="url(#paint0_radial_862_12551)"/>
<g style="mix-blend-mode:soft-light">
<path d="M241.18 482.54C374.38 482.54 482.36 374.56 482.36 241.36C482.36 108.16 374.38 0.179932 241.18 0.179932C107.98 0.179932 0 108.16 0 241.36C0 374.56 107.98 482.54 241.18 482.54Z" fill="url(#paint1_radial_862_12551)"/>
</g>
<g style="mix-blend-mode:soft-light">
<path d="M241.18 482.54C374.38 482.54 482.36 374.56 482.36 241.36C482.36 108.16 374.38 0.179932 241.18 0.179932C107.98 0.179932 0 108.16 0 241.36C0 374.56 107.98 482.54 241.18 482.54Z" fill="url(#paint2_radial_862_12551)"/>
</g>
<g style="mix-blend-mode:soft-light">
<path d="M241.18 482.54C374.38 482.54 482.36 374.56 482.36 241.36C482.36 108.16 374.38 0.179932 241.18 0.179932C107.98 0.179932 0 108.16 0 241.36C0 374.56 107.98 482.54 241.18 482.54Z" fill="url(#paint3_radial_862_12551)" fill-opacity="0.7"/>
</g>
<mask id="mask0_862_12551" style="mask-type:alpha" maskUnits="userSpaceOnUse" x="0" y="0" width="483" height="483">
<path d="M241.18 482.54C374.38 482.54 482.36 374.56 482.36 241.36C482.36 108.16 374.38 0.179932 241.18 0.179932C107.98 0.179932 0 108.16 0 241.36C0 374.56 107.98 482.54 241.18 482.54Z" fill="white"/>
</mask>
<g mask="url(#mask0_862_12551)">
<g filter="url(#filter0_f_862_12551)">
<path d="M-1.3759 234.479C-1.11402 231.052 0.0137008 230.709 0.342619 234.188C0.708055 238.054 -0.00231624 245.826 0.16871 250.514C0.621554 262.928 2.52441 273.721 4.48605 282.5C10.8075 310.792 19.5617 329.022 27.7268 344.468C54.5663 395.24 83.9667 420.95 112.648 440.327C154.689 468.729 197.072 477.764 239.49 479.68C240.56 479.728 240.738 486.698 239.686 487.605C237.788 489.241 235.436 487.617 233.494 487.549C227.915 487.354 222.335 486.971 216.756 486.391C200.213 484.672 183.67 481.171 167.162 475.538C122.275 460.224 73.8765 434.001 31.6092 360.142C28.9502 355.496 26.3124 350.604 23.7118 345.347C21.6321 341.143 19.5726 336.736 17.5493 332.023C10.8946 316.521 -4.61323 276.838 -1.3759 234.479ZM239.52 487.68C238.499 487.711 238.241 481.214 239.214 479.865C240.684 477.827 242.888 479.505 244.439 479.409C250.877 479.006 257.314 478.409 263.75 477.601C281.395 475.385 299.028 471.602 316.621 465.776C360.257 451.325 407.17 429.295 448.305 361.611C450.923 357.303 453.518 352.733 456.079 347.821C463.86 332.892 483.361 293.264 481.107 244.001C480.917 239.848 482.181 237.361 482.747 240.923C483.467 245.459 483.175 254.916 482.977 259.948C482.341 276.063 479.866 289.691 477.257 300.698C468.987 335.579 457.376 355.803 446.744 372.689C412.184 427.577 374.648 449.704 338.155 465.604C305.424 479.865 272.444 486.663 239.52 487.68Z" fill="#401C02"/>
</g>
<g filter="url(#filter1_f_862_12551)">
<path d="M-1.3759 234.479C-1.11402 231.052 0.0137008 230.709 0.342619 234.188C0.708055 238.054 -0.00231624 245.826 0.16871 250.514C0.621554 262.928 2.52441 273.721 4.48605 282.5C10.8075 310.792 19.5617 329.022 27.7268 344.468C54.5663 395.24 83.9667 420.95 112.648 440.327C154.689 468.729 197.072 477.764 239.49 479.68C240.56 479.728 240.738 486.698 239.686 487.605C237.788 489.241 235.436 487.617 233.494 487.549C227.915 487.354 222.335 486.971 216.756 486.391C200.213 484.672 183.67 481.171 167.162 475.538C122.275 460.224 73.8765 434.001 31.6092 360.142C28.9502 355.496 26.3124 350.604 23.7118 345.347C21.6321 341.143 19.5726 336.736 17.5493 332.023C10.8946 316.521 -4.61323 276.838 -1.3759 234.479ZM239.52 487.68C238.499 487.711 238.241 481.214 239.214 479.865C240.684 477.827 242.888 479.505 244.439 479.409C250.877 479.006 257.314 478.409 263.75 477.601C281.395 475.385 299.028 471.602 316.621 465.776C360.257 451.325 407.17 429.295 448.305 361.611C450.923 357.303 453.518 352.733 456.079 347.821C463.86 332.892 483.361 293.264 481.107 244.001C480.917 239.848 482.181 237.361 482.747 240.923C483.467 245.459 483.175 254.916 482.977 259.948C482.341 276.063 479.866 289.691 477.257 300.698C468.987 335.579 457.376 355.803 446.744 372.689C412.184 427.577 374.648 449.704 338.155 465.604C305.424 479.865 272.444 486.663 239.52 487.68Z" fill="#401C02"/>
</g>
</g>
<path d="M209.479 199.72C208.7 200.238 207.764 200.466 206.834 200.366C205.904 200.265 205.039 199.842 204.389 199.17L203.969 198.74C203.079 197.82 202.169 196.9 201.249 196L198.589 193.4C197.729 192.57 196.849 191.76 195.959 190.95C195.069 190.14 194.249 189.4 193.389 188.64C192.529 187.88 191.709 187.18 190.849 186.47C189.989 185.76 189.199 185.1 188.369 184.47C187.539 183.84 186.749 183.19 185.919 182.56C185.089 181.93 184.329 181.36 183.529 180.77C182.729 180.18 181.979 179.66 181.179 179.12C180.379 178.58 179.649 178.12 178.879 177.58C178.109 177.04 177.379 176.58 176.619 176.15C175.859 175.72 175.159 175.27 174.409 174.83C173.659 174.39 172.979 174.01 172.249 173.62C171.519 173.23 170.839 172.87 170.139 172.51L168.059 171.51C167.389 171.19 166.709 170.89 166.059 170.59C165.409 170.29 164.739 170.04 164.059 169.77C163.379 169.5 162.789 169.27 162.139 169.04C161.489 168.81 160.889 168.6 160.259 168.39C159.629 168.18 159.029 167.99 158.419 167.81C157.809 167.63 157.239 167.47 156.639 167.32C156.039 167.17 155.489 167.03 154.899 166.9C154.309 166.77 153.779 166.65 153.219 166.54C152.659 166.43 152.119 166.34 151.579 166.25C151.039 166.16 150.509 166.08 149.979 166.01L148.439 165.84C147.949 165.79 147.439 165.76 146.949 165.72L145.509 165.64C145.039 165.64 144.579 165.64 144.109 165.64H142.759H141.469L140.269 165.71L139.059 165.82L137.919 165.99L137.399 166.07C131.269 166.93 128.569 164.69 127.479 161.83C125.779 157.36 128.799 152.51 133.479 151.5C169.739 143.63 196.479 172.95 210.599 194.25C211.162 195.128 211.36 196.191 211.151 197.213C210.942 198.235 210.342 199.134 209.479 199.72Z" fill="#42210B"/>
<path d="M173.519 262.2C189.519 262.2 202.489 245.397 202.489 224.67C202.489 203.943 189.519 187.14 173.519 187.14C157.519 187.14 144.549 203.943 144.549 224.67C144.549 245.397 157.519 262.2 173.519 262.2Z" fill="url(#paint4_radial_862_12551)"/>
<path d="M173.519 262.2C189.519 262.2 202.489 245.397 202.489 224.67C202.489 203.943 189.519 187.14 173.519 187.14C157.519 187.14 144.549 203.943 144.549 224.67C144.549 245.397 157.519 262.2 173.519 262.2Z" stroke="url(#paint5_radial_862_12551)" stroke-width="2" stroke-miterlimit="10"/>
<path d="M272.719 199.72C273.499 200.24 274.437 200.471 275.369 200.37C276.301 200.27 277.168 199.845 277.819 199.17L278.239 198.74C279.129 197.82 280.039 196.9 280.949 196C281.859 195.1 282.719 194.26 283.619 193.4C284.519 192.54 285.359 191.76 286.239 190.95C287.119 190.14 287.949 189.4 288.819 188.64C289.689 187.88 290.499 187.18 291.359 186.47C292.219 185.76 293.009 185.1 293.839 184.47C294.669 183.84 295.459 183.19 296.279 182.56L298.669 180.77C299.449 180.22 300.229 179.66 301.029 179.12C301.829 178.58 302.549 178.12 303.329 177.58C304.109 177.04 304.829 176.58 305.589 176.15C306.349 175.72 307.049 175.27 307.799 174.83C308.549 174.39 309.229 174.01 309.959 173.62C310.689 173.23 311.369 172.87 312.069 172.51L314.139 171.51C314.809 171.19 315.489 170.89 316.139 170.59C316.789 170.29 317.449 170.04 318.139 169.77C318.829 169.5 319.409 169.27 320.059 169.04C320.709 168.81 321.309 168.6 321.939 168.39C322.569 168.18 323.159 167.99 323.779 167.81C324.399 167.63 324.959 167.47 325.549 167.32C326.139 167.17 326.709 167.03 327.299 166.9C327.889 166.77 328.419 166.65 328.979 166.54C329.539 166.43 330.079 166.34 330.619 166.25L332.209 166.01L333.749 165.84C334.249 165.79 334.749 165.76 335.249 165.72L336.689 165.64H338.079H339.429H340.729L341.929 165.71L343.139 165.82L344.309 165.96L344.819 166.04C350.949 166.9 353.659 164.66 354.749 161.8C356.449 157.33 353.429 152.48 348.749 151.47C312.489 143.6 285.749 172.92 271.629 194.22C271.053 195.097 270.845 196.164 271.049 197.193C271.253 198.222 271.853 199.129 272.719 199.72Z" fill="#42210B"/>
<path d="M308.679 262.2C324.679 262.2 337.649 245.397 337.649 224.67C337.649 203.943 324.679 187.14 308.679 187.14C292.679 187.14 279.709 203.943 279.709 224.67C279.709 245.397 292.679 262.2 308.679 262.2Z" fill="url(#paint6_radial_862_12551)"/>
<path d="M308.679 262.2C324.679 262.2 337.649 245.397 337.649 224.67C337.649 203.943 324.679 187.14 308.679 187.14C292.679 187.14 279.709 203.943 279.709 224.67C279.709 245.397 292.679 262.2 308.679 262.2Z" stroke="url(#paint7_radial_862_12551)" stroke-width="2" stroke-miterlimit="10"/>
<path d="M170.743 389.14C170.361 389.437 169.895 389.607 169.412 389.626C168.928 389.645 168.451 389.513 168.047 389.247C167.642 388.981 167.331 388.596 167.156 388.145C166.982 387.693 166.953 387.199 167.073 386.73C175.363 355.8 205.463 332.88 241.333 332.88C277.203 332.88 307.333 355.82 315.603 386.77C315.726 387.24 315.698 387.737 315.524 388.191C315.349 388.645 315.036 389.032 314.63 389.298C314.223 389.565 313.743 389.697 313.257 389.675C312.772 389.654 312.305 389.481 311.923 389.18C294.083 375.82 269.043 367.5 241.333 367.5C213.623 367.5 188.603 375.82 170.743 389.14Z" fill="url(#paint8_radial_862_12551)"/>
<path d="M170.743 389.14C170.361 389.437 169.895 389.607 169.412 389.626C168.928 389.645 168.451 389.513 168.047 389.247C167.642 388.981 167.331 388.596 167.156 388.145C166.982 387.693 166.953 387.199 167.073 386.73C175.363 355.8 205.463 332.88 241.333 332.88C277.203 332.88 307.333 355.82 315.603 386.77C315.726 387.24 315.698 387.737 315.524 388.191C315.349 388.645 315.036 389.032 314.63 389.298C314.223 389.565 313.743 389.697 313.257 389.675C312.772 389.654 312.305 389.481 311.923 389.18C294.083 375.82 269.043 367.5 241.333 367.5C213.623 367.5 188.603 375.82 170.743 389.14Z" stroke="url(#paint9_linear_862_12551)" stroke-width="2" stroke-miterlimit="10"/>
<mask id="mask1_862_12551" style="mask-type:alpha" maskUnits="userSpaceOnUse" x="0" y="0" width="483" height="483">
<path d="M241.18 482.36C374.38 482.36 482.36 374.38 482.36 241.18C482.36 107.98 374.38 0 241.18 0C107.98 0 0 107.98 0 241.18C0 374.38 107.98 482.36 241.18 482.36Z" fill="url(#paint10_radial_862_12551)"/>
</mask>
<g mask="url(#mask1_862_12551)">
<g style="mix-blend-mode:multiply" filter="url(#filter2_f_862_12551)">
<path fill-rule="evenodd" clip-rule="evenodd" d="M434.095 353.131H48.7546V401.392L48.0498 401.017L-51.9502 512.696L153.079 456.857L153.078 456.857H329.771L329.771 456.857L534.8 512.696L434.8 401.017L434.095 401.392V353.131Z" fill="#42210B"/>
</g>
</g>
<path d="M446.46 280.84H36V437.93H446.46V280.84Z" fill="black"/>
<path d="M98.4295 402.07V415.42H88.6495V402.19C76.9695 401.47 65.6495 397.66 59.4395 392.29L64.8095 380.29C70.6495 385.06 79.5895 388.52 88.6495 389.35V365.47C75.4195 362.25 61.2295 357.99 61.2295 341.39C61.2295 329.22 70.0495 318.61 88.6495 316.83V303.35H98.4295V316.59C107.249 317.07 116.189 319.69 122.629 323.86L117.739 335.86C111.818 332.4 105.242 330.207 98.4295 329.42V353.51C111.659 356.72 126.079 360.9 126.079 377.51C126.049 389.67 117.139 400.16 98.4295 402.07ZM88.6495 351.07V329.82C80.1795 331.13 76.6495 335.42 76.6495 340.67C76.6095 346.39 81.7295 348.99 88.6495 351.04V351.07ZM110.819 378.61C110.819 372.77 105.579 370.03 98.4295 368V389.1C107.129 387.76 110.819 383.71 110.819 378.58V378.61Z" fill="white"/>
<path d="M192.24 369.99H208.34V380.84H190.93L188.43 401.1H177.58L180.08 380.84H159.94L157.43 401.1H146.58L149.05 380.85H132.95V369.99H150.36L153.1 348.77H137.05V337.93H154.45L156.96 317.66H167.8L165.3 337.93H185.3L187.8 317.66H198.65L196.15 337.93H212.15L212.27 348.78H194.87L192.24 369.99ZM181.4 369.99L184.05 348.78H164.05L161.25 369.99H181.4Z" fill="white"/>
<path d="M288.8 402.43L278.31 392.29C270.501 398.913 260.548 402.467 250.31 402.29C232.67 402.29 219.91 393.11 219.91 379.99C219.91 369.62 225.64 362.35 239.23 354.72C232.43 347.92 229.93 342.44 229.93 336.36C229.93 324.68 239.47 316.69 254.13 316.69C267.6 316.69 276.42 323.69 276.42 335.05C276.42 343.63 271.42 349.83 259.42 356.63L277.42 373.79C279.599 369.34 281.157 364.613 282.05 359.74L294.05 363.68C292.722 370.438 290.177 376.9 286.54 382.75L297.03 392.75L288.8 402.43ZM269.49 383.83L247.43 362.73C237.78 368.09 234.43 372.5 234.43 378.46C234.43 385.38 241.11 390.15 251.36 390.15C257.959 390.246 264.381 388.007 269.49 383.83ZM243.49 336.14C243.49 339.84 245.04 342.58 251 348.54C260.66 343.29 263.76 339.84 263.76 335.31C263.76 330.54 260.3 327.31 254.1 327.31C247.43 327.32 243.5 330.99 243.5 336.14H243.49Z" fill="white"/>
<path d="M298.33 339.72C298.33 326.01 306.33 316.83 318.24 316.83C330.15 316.83 338.24 325.89 338.24 339.72C338.24 353.55 330.13 362.61 318.24 362.61C306.35 362.61 298.33 353.43 298.33 339.72ZM328.5 339.72C328.5 330.42 324.68 325.17 318.24 325.17C312.04 325.17 307.99 330.54 307.99 339.72C307.99 348.9 312.04 354.26 318.24 354.26C324.68 354.26 328.5 348.99 328.5 339.72ZM368.31 317.66H380.05L323.05 401.11H311.33L368.31 317.66ZM353.05 379.06C353.05 365.35 361.05 356.17 372.96 356.17C384.87 356.17 392.96 365.35 392.96 379.06C392.96 392.77 384.86 401.95 372.96 401.95C361.06 401.95 353.05 392.77 353.05 379.06ZM383.22 379.06C383.22 369.88 379.28 364.51 372.96 364.51C366.64 364.51 362.71 369.76 362.71 379.06C362.71 388.36 366.65 393.6 372.96 393.6C379.27 393.6 383.22 388.24 383.22 379.06Z" fill="white"/>
<path d="M403.95 392.65C403.95 387.52 408 383.47 413.61 383.47C414.839 383.425 416.064 383.63 417.211 384.072C418.359 384.515 419.404 385.185 420.285 386.044C421.165 386.902 421.863 387.93 422.335 389.065C422.807 390.201 423.043 391.42 423.03 392.65C423.045 393.885 422.811 395.111 422.342 396.254C421.872 397.398 421.177 398.434 420.297 399.302C419.418 400.171 418.373 400.853 417.224 401.307C416.075 401.762 414.846 401.981 413.61 401.95C412.36 401.995 411.113 401.789 409.944 401.342C408.775 400.895 407.708 400.218 406.806 399.35C405.905 398.482 405.187 397.442 404.697 396.29C404.206 395.139 403.952 393.901 403.95 392.65ZM404.78 317.65H422.43L419.43 373.45H407.65L404.78 317.65Z" fill="white"/>
<defs>
<filter id="filter0_f_862_12551" x="-26.8149" y="206.738" width="535.022" height="306.595" filterUnits="userSpaceOnUse" color-interpolation-filters="sRGB">
<feFlood flood-opacity="0" result="BackgroundImageFix"/>
<feBlend mode="normal" in="SourceGraphic" in2="BackgroundImageFix" result="shape"/>
<feGaussianBlur stdDeviation="12.5" result="effect1_foregroundBlur_862_12551"/>
</filter>
<filter id="filter1_f_862_12551" x="-41.8149" y="191.738" width="565.022" height="336.595" filterUnits="userSpaceOnUse" color-interpolation-filters="sRGB">
<feFlood flood-opacity="0" result="BackgroundImageFix"/>
<feBlend mode="normal" in="SourceGraphic" in2="BackgroundImageFix" result="shape"/>
<feGaussianBlur stdDeviation="20" result="effect1_foregroundBlur_862_12551"/>
</filter>
<filter id="filter2_f_862_12551" x="-86.9502" y="318.131" width="656.75" height="229.565" filterUnits="userSpaceOnUse" color-interpolation-filters="sRGB">
<feFlood flood-opacity="0" result="BackgroundImageFix"/>
<feBlend mode="normal" in="SourceGraphic" in2="BackgroundImageFix" result="shape"/>
<feGaussianBlur stdDeviation="17.5" result="effect1_foregroundBlur_862_12551"/>
</filter>
<radialGradient id="paint0_radial_862_12551" cx="0" cy="0" r="1" gradientUnits="userSpaceOnUse" gradientTransform="translate(241.18 241.17) scale(241.18)">
<stop stop-color="#FF8229"/>
<stop offset="0.31" stop-color="#FF8025"/>
<stop offset="0.63" stop-color="#FF7818"/>
<stop offset="0.95" stop-color="#FF6C04"/>
<stop offset="1" stop-color="#FF6A00"/>
</radialGradient>
<radialGradient id="paint1_radial_862_12551" cx="0" cy="0" r="1" gradientUnits="userSpaceOnUse" gradientTransform="translate(241 64.6799) rotate(90) scale(417.5)">
<stop stop-color="white" stop-opacity="0.5"/>
<stop offset="0.782278"/>
</radialGradient>
<radialGradient id="paint2_radial_862_12551" cx="0" cy="0" r="1" gradientUnits="userSpaceOnUse" gradientTransform="translate(241 64.6799) rotate(90) scale(417.5)">
<stop stop-color="white" stop-opacity="0.5"/>
<stop offset="0.782278"/>
</radialGradient>
<radialGradient id="paint3_radial_862_12551" cx="0" cy="0" r="1" gradientUnits="userSpaceOnUse" gradientTransform="translate(241 -52.3201) rotate(90) scale(534.5 722.835)">
<stop offset="0.0922635" stop-color="#FF0000"/>
<stop offset="0.670207" stop-color="white" stop-opacity="0"/>
</radialGradient>
<radialGradient id="paint4_radial_862_12551" cx="0" cy="0" r="1" gradientUnits="userSpaceOnUse" gradientTransform="translate(173.479 224.645) scale(36.9297 37.5951)">
<stop stop-color="#6A2700"/>
<stop offset="1" stop-color="#391800"/>
</radialGradient>
<radialGradient id="paint5_radial_862_12551" cx="0" cy="0" r="1" gradientUnits="userSpaceOnUse" gradientTransform="translate(1.12745e+06 17084.9) rotate(180) scale(2000.09 2591.07)">
<stop stop-color="#FF9143"/>
<stop offset="0.24" stop-color="#FF8F3F"/>
<stop offset="0.49" stop-color="#FF8732"/>
<stop offset="0.74" stop-color="#FF7B1E"/>
<stop offset="0.99" stop-color="#FF6A01"/>
<stop offset="1" stop-color="#FF6A00"/>
</radialGradient>
<radialGradient id="paint6_radial_862_12551" cx="0" cy="0" r="1" gradientUnits="userSpaceOnUse" gradientTransform="translate(308.639 224.645) scale(36.9297 37.5951)">
<stop stop-color="#6A2700"/>
<stop offset="1" stop-color="#391800"/>
</radialGradient>
<radialGradient id="paint7_radial_862_12551" cx="0" cy="0" r="1" gradientUnits="userSpaceOnUse" gradientTransform="translate(1.12758e+06 17084.9) rotate(180) scale(2000.09 2591.07)">
<stop stop-color="#FF9143"/>
<stop offset="0.24" stop-color="#FF8F3F"/>
<stop offset="0.49" stop-color="#FF8732"/>
<stop offset="0.74" stop-color="#FF7B1E"/>
<stop offset="0.99" stop-color="#FF6A01"/>
<stop offset="1" stop-color="#FF6A00"/>
</radialGradient>
<radialGradient id="paint8_radial_862_12551" cx="0" cy="0" r="1" gradientUnits="userSpaceOnUse" gradientTransform="translate(998378 -634556) rotate(180) scale(8391.43 3141.54)">
<stop stop-color="#522A14"/>
<stop offset="1" stop-color="#401C02"/>
</radialGradient>
<linearGradient id="paint9_linear_862_12551" x1="2.89805e+06" y1="13119.4" x2="2.88778e+06" y2="13119.4" gradientUnits="userSpaceOnUse">
<stop stop-color="#B41010"/>
<stop offset="1" stop-color="#FF3D00"/>
</linearGradient>
<radialGradient id="paint10_radial_862_12551" cx="0" cy="0" r="1" gradientUnits="userSpaceOnUse" gradientTransform="translate(241.18 241.17) scale(241.18)">
<stop stop-color="#FF8229"/>
<stop offset="0.31" stop-color="#FF8025"/>
<stop offset="0.63" stop-color="#FF7818"/>
<stop offset="0.95" stop-color="#FF6C04"/>
<stop offset="1" stop-color="#FF6A00"/>
</radialGradient>
</defs>
</svg>
