<svg width="483" height="483" viewBox="0 0 483 483" fill="none" xmlns="http://www.w3.org/2000/svg">
<path d="M241.18 482.36C374.38 482.36 482.36 374.38 482.36 241.18C482.36 107.98 374.38 0 241.18 0C107.98 0 0 107.98 0 241.18C0 374.38 107.98 482.36 241.18 482.36Z" fill="url(#paint0_radial_862_12497)"/>
<g style="mix-blend-mode:soft-light">
<path d="M241.18 482.36C374.38 482.36 482.36 374.38 482.36 241.18C482.36 107.98 374.38 0 241.18 0C107.98 0 0 107.98 0 241.18C0 374.38 107.98 482.36 241.18 482.36Z" fill="url(#paint1_radial_862_12497)"/>
</g>
<g style="mix-blend-mode:soft-light">
<path d="M241.18 482.36C374.38 482.36 482.36 374.38 482.36 241.18C482.36 107.98 374.38 0 241.18 0C107.98 0 0 107.98 0 241.18C0 374.38 107.98 482.36 241.18 482.36Z" fill="url(#paint2_radial_862_12497)"/>
</g>
<g style="mix-blend-mode:overlay">
<path d="M241.18 482.36C374.38 482.36 482.36 374.38 482.36 241.18C482.36 107.98 374.38 0 241.18 0C107.98 0 0 107.98 0 241.18C0 374.38 107.98 482.36 241.18 482.36Z" fill="url(#paint3_radial_862_12497)" fill-opacity="0.7"/>
</g>
<mask id="mask0_862_12497" style="mask-type:alpha" maskUnits="userSpaceOnUse" x="0" y="0" width="483" height="483">
<path d="M241.18 482.36C374.38 482.36 482.36 374.38 482.36 241.18C482.36 107.98 374.38 0 241.18 0C107.98 0 0 107.98 0 241.18C0 374.38 107.98 482.36 241.18 482.36Z" fill="white"/>
</mask>
<g mask="url(#mask0_862_12497)">
<g filter="url(#filter0_f_862_12497)">
<path d="M-1.3759 234.299C-1.11402 230.872 0.0137008 230.529 0.342619 234.008C0.708055 237.874 -0.00231624 245.646 0.16871 250.335C0.621554 262.748 2.52441 273.541 4.48605 282.32C10.8075 310.612 19.5617 328.843 27.7268 344.288C54.5663 395.06 83.9667 420.77 112.648 440.147C154.689 468.549 197.072 477.584 239.49 479.5C240.56 479.548 240.738 486.518 239.686 487.425C237.788 489.061 235.436 487.437 233.494 487.369C227.915 487.174 222.335 486.791 216.756 486.211C200.213 484.492 183.67 480.991 167.162 475.358C122.275 460.044 73.8765 433.821 31.6092 359.962C28.9502 355.316 26.3124 350.424 23.7118 345.167C21.6321 340.963 19.5726 336.556 17.5493 331.843C10.8946 316.342 -4.61323 276.658 -1.3759 234.299ZM239.52 487.5C238.499 487.531 238.241 481.034 239.214 479.685C240.684 477.647 242.888 479.326 244.439 479.229C250.877 478.826 257.314 478.229 263.75 477.421C281.395 475.205 299.028 471.422 316.621 465.596C360.257 451.145 407.17 429.115 448.305 361.431C450.923 357.123 453.518 352.553 456.079 347.641C463.86 332.712 483.361 293.084 481.107 243.821C480.917 239.668 482.181 237.181 482.747 240.743C483.467 245.279 483.175 254.736 482.977 259.768C482.341 275.883 479.866 289.512 477.257 300.518C468.987 335.399 457.376 355.623 446.744 372.51C412.184 427.397 374.648 449.524 338.155 465.424C305.424 479.686 272.444 486.484 239.52 487.5Z" fill="#401C02"/>
</g>
<g filter="url(#filter1_f_862_12497)">
<path d="M-1.3759 234.299C-1.11402 230.872 0.0137008 230.529 0.342619 234.008C0.708055 237.874 -0.00231624 245.646 0.16871 250.335C0.621554 262.748 2.52441 273.541 4.48605 282.32C10.8075 310.612 19.5617 328.843 27.7268 344.288C54.5663 395.06 83.9667 420.77 112.648 440.147C154.689 468.549 197.072 477.584 239.49 479.5C240.56 479.548 240.738 486.518 239.686 487.425C237.788 489.061 235.436 487.437 233.494 487.369C227.915 487.174 222.335 486.791 216.756 486.211C200.213 484.492 183.67 480.991 167.162 475.358C122.275 460.044 73.8765 433.821 31.6092 359.962C28.9502 355.316 26.3124 350.424 23.7118 345.167C21.6321 340.963 19.5726 336.556 17.5493 331.843C10.8946 316.342 -4.61323 276.658 -1.3759 234.299ZM239.52 487.5C238.499 487.531 238.241 481.034 239.214 479.685C240.684 477.647 242.888 479.326 244.439 479.229C250.877 478.826 257.314 478.229 263.75 477.421C281.395 475.205 299.028 471.422 316.621 465.596C360.257 451.145 407.17 429.115 448.305 361.431C450.923 357.123 453.518 352.553 456.079 347.641C463.86 332.712 483.361 293.084 481.107 243.821C480.917 239.668 482.181 237.181 482.747 240.743C483.467 245.279 483.175 254.736 482.977 259.768C482.341 275.883 479.866 289.512 477.257 300.518C468.987 335.399 457.376 355.623 446.744 372.51C412.184 427.397 374.648 449.524 338.155 465.424C305.424 479.686 272.444 486.484 239.52 487.5Z" fill="#401C02"/>
</g>
</g>
<path d="M351.56 363.78C338.19 363.78 331 358.87 325.22 354.93C320.11 351.45 316.08 348.7 307.34 348.7C298.6 348.7 294.57 351.45 289.46 354.93C283.68 358.87 276.46 363.78 263.12 363.78C249.78 363.78 242.57 358.87 236.79 354.93C231.69 351.45 227.65 348.7 218.91 348.7C210.17 348.7 206.15 351.45 201.04 354.93C195.26 358.87 188.04 363.78 174.71 363.78C161.38 363.78 154.15 358.87 148.38 354.93C143.27 351.45 139.24 348.7 130.5 348.7C128.511 348.7 126.603 347.91 125.197 346.503C123.79 345.096 123 343.189 123 341.2C123 339.211 123.79 337.303 125.197 335.896C126.603 334.49 128.511 333.7 130.5 333.7C143.87 333.7 151.05 338.6 156.83 342.54C161.94 346.03 165.97 348.78 174.71 348.78C183.45 348.78 187.48 346.03 192.58 342.54C198.36 338.6 205.58 333.7 218.91 333.7C232.24 333.7 239.47 338.6 245.25 342.54C250.35 346.03 254.39 348.78 263.12 348.78C271.85 348.78 275.9 346.03 281.01 342.54C286.78 338.6 294.01 333.7 307.34 333.7C320.67 333.7 327.9 338.6 333.68 342.54C338.78 346.03 342.82 348.78 351.56 348.78C353.549 348.78 355.457 349.57 356.863 350.976C358.27 352.383 359.06 354.291 359.06 356.28C359.06 358.269 358.27 360.176 356.863 361.583C355.457 362.99 353.549 363.78 351.56 363.78V363.78Z" stroke="url(#paint4_linear_862_12497)" stroke-width="2.5" stroke-miterlimit="10"/>
<path d="M351.56 363.78C338.19 363.78 331 358.87 325.22 354.93C320.11 351.45 316.08 348.7 307.34 348.7C298.6 348.7 294.57 351.45 289.46 354.93C283.68 358.87 276.46 363.78 263.12 363.78C249.78 363.78 242.57 358.87 236.79 354.93C231.69 351.45 227.65 348.7 218.91 348.7C210.17 348.7 206.15 351.45 201.04 354.93C195.26 358.87 188.04 363.78 174.71 363.78C161.38 363.78 154.15 358.87 148.38 354.93C143.27 351.45 139.24 348.7 130.5 348.7C128.511 348.7 126.603 347.91 125.197 346.503C123.79 345.096 123 343.189 123 341.2C123 339.211 123.79 337.303 125.197 335.896C126.603 334.49 128.511 333.7 130.5 333.7C143.87 333.7 151.05 338.6 156.83 342.54C161.94 346.03 165.97 348.78 174.71 348.78C183.45 348.78 187.48 346.03 192.58 342.54C198.36 338.6 205.58 333.7 218.91 333.7C232.24 333.7 239.47 338.6 245.25 342.54C250.35 346.03 254.39 348.78 263.12 348.78C271.85 348.78 275.9 346.03 281.01 342.54C286.78 338.6 294.01 333.7 307.34 333.7C320.67 333.7 327.9 338.6 333.68 342.54C338.78 346.03 342.82 348.78 351.56 348.78C353.549 348.78 355.457 349.57 356.863 350.976C358.27 352.383 359.06 354.291 359.06 356.28C359.06 358.269 358.27 360.176 356.863 361.583C355.457 362.99 353.549 363.78 351.56 363.78Z" fill="url(#paint5_radial_862_12497)"/>
<path d="M340.1 288.2C339.9 288.2 339.7 288.2 339.5 288.2C327.5 288.2 315.7 285.9 304.6 281.3C293.4 276.7 283.4 269.9 274.8 261.3C259.1 245.6 250.4 224.6 250.4 202.3C250.4 180 259.1 159.1 274.8 143.3C289.1 129 308.1 121.1 328.4 121.1C348.7 121.1 367.6 129 382 143.3C395 156.3 402.1 173.6 402.1 192C402.1 210.4 395 227.7 382 240.7C370.2 252.5 354.4 259.1 337.7 259.1C321 259.1 305.2 252.6 293.4 240.7C282.6 229.9 276.7 215.6 276.7 200.3C276.7 185 282.6 170.7 293.4 159.9C303.2 150.1 316.3 144.6 330.2 144.6C344.1 144.6 357.2 150 367 159.9C376 168.9 380.9 180.8 380.9 193.6C380.9 206.4 376 218.3 367 227.2C363 231.3 358.2 234.5 352.9 236.7C347.6 238.9 342 240 336.2 240H336.1C336.1 240 336.1 240 336 240C330.3 240 324.7 238.9 319.5 236.7C314.2 234.5 309.5 231.3 305.5 227.3C302 223.8 299.2 219.6 297.3 215C295.4 210.4 294.4 205.5 294.4 200.5C294.4 195.5 295.4 190.6 297.3 186C299.2 181.4 302 177.2 305.5 173.7C308.5 170.7 311.9 168.4 315.8 166.8C319.7 165.2 323.8 164.4 328 164.4C332.2 164.4 336.3 165.2 340.2 166.8C344.1 168.4 347.6 170.7 350.5 173.7C355.6 178.8 358.4 185.5 358.4 192.7C358.4 199.9 355.6 206.6 350.5 211.7C346.2 216 340.4 218.4 334.3 218.4C328.2 218.4 322.4 216 318.1 211.7C316.3 209.9 314.8 207.7 313.8 205.3C312.8 202.9 312.3 200.4 312.3 197.8C312.3 195.2 312.8 192.7 313.8 190.3C314.8 187.9 316.2 185.7 318.1 183.9C321.3 180.7 325.7 178.9 330.2 178.9C330.8 178.9 331.4 178.9 332 179C330.7 178.7 329.3 178.5 327.9 178.5C323.1 178.5 318.7 180.3 315.3 183.7C313.1 185.9 311.3 188.5 310.1 191.5C308.9 194.4 308.3 197.5 308.3 200.7C308.3 203.9 308.9 207 310.1 209.9C311.3 212.8 313.1 215.4 315.3 217.7C318 220.5 321.2 222.6 324.8 224.1C328.4 225.6 332.2 226.3 336 226.3C340 226.3 343.8 225.5 347.4 224C351 222.5 354.2 220.3 357 217.6C363.3 211.3 366.8 202.8 366.8 193.8C366.8 184.8 363.3 176.4 357 170.1C353.4 166.5 349.3 163.8 344.6 161.8C340 159.9 335 158.9 330 158.9C325 158.9 320.1 159.9 315.4 161.8C310.8 163.7 306.6 166.5 303 170.1C294.9 178.2 290.4 189.1 290.4 200.6C290.4 212.1 294.9 222.9 303 231.1C307.5 235.6 312.9 239.2 318.8 241.7C324.7 244.2 331 245.4 337.4 245.4C343.8 245.4 350.1 244.2 356 241.7C361.9 239.2 367.2 235.7 371.8 231.1C376.9 226 380.9 220 383.7 213.3C386.5 206.6 387.9 199.5 387.9 192.3C387.9 185.1 386.5 178 383.7 171.3C380.9 164.6 376.9 158.6 371.8 153.5C360.1 141.8 344.6 135.4 328.1 135.4C311.6 135.4 296.1 141.8 284.4 153.5C271.3 166.6 264.1 184 264.1 202.5C264.1 221 271.3 238.4 284.4 251.5C291.7 258.8 300.2 264.4 309.7 268.4C319.2 272.3 329.2 274.3 339.5 274.3C349.8 274.3 359.8 272.3 369.3 268.4C378.8 264.5 387.3 258.8 394.6 251.5C411.1 235 420.1 213.1 420.1 189.8C420.1 166.5 411 144.6 394.6 128.1C393.3 126.8 392.6 125 392.6 123.1C392.6 121.2 393.3 119.5 394.7 118.1C396 116.8 397.8 116.1 399.6 116.1C401.5 116.1 403.2 116.8 404.5 118.2C423.6 137.3 434.1 162.8 434.1 189.8C434.1 216.8 423.6 242.3 404.5 261.4C395.9 270 385.9 276.7 374.7 281.4C363.8 285.8 352.1 288.2 340.1 288.2ZM339.8 284.2C339.9 284.2 340 284.2 340.1 284.2C351.6 284.2 362.8 282 373.5 277.6C384.2 273.2 393.8 266.7 402 258.5C420.3 240.1 430.4 215.7 430.4 189.7C430.4 163.7 420.3 139.3 402 120.9C401.4 120.3 400.7 120 399.9 120C399.1 120 398.3 120.3 397.8 120.9C397.3 121.5 396.9 122.2 396.9 123C396.9 123.8 397.2 124.6 397.8 125.1C415 142.3 424.5 165.3 424.5 189.6C424.5 214 415 236.9 397.8 254.1C390.2 261.7 381.2 267.7 371.2 271.8C361.2 275.9 350.7 278 339.9 278C329.1 278 318.6 275.9 308.6 271.8C298.6 267.7 289.7 261.7 282 254.1C268.1 240.2 260.5 221.8 260.5 202.2C260.5 182.6 268.1 164.2 282 150.3C294.4 137.9 310.9 131.1 328.5 131.1C346.1 131.1 362.6 137.9 375 150.3C380.5 155.8 384.8 162.2 387.8 169.4C390.8 176.6 392.3 184.2 392.3 191.9C392.3 199.7 390.8 207.2 387.8 214.4C384.8 221.6 380.5 228 375 233.5C370.1 238.4 364.3 242.3 357.9 244.9C351.5 247.6 344.7 248.9 337.7 248.9C330.7 248.9 324 247.6 317.5 244.9C311.1 242.2 305.3 238.4 300.4 233.5C291.5 224.6 286.6 212.8 286.6 200.2C286.6 187.6 291.5 175.8 300.4 166.9C304.3 163 308.9 159.9 314.1 157.8C319.2 155.7 324.7 154.6 330.2 154.6C335.7 154.6 341.2 155.7 346.3 157.8C351.4 159.9 356 163 360 166.9C367.1 174 371 183.4 371 193.5C371 203.5 367.1 213 360 220.1C356.9 223.2 353.2 225.7 349.1 227.4C345 229.1 340.7 230 336.3 230H336.2C331.8 230 327.5 229.2 323.4 227.5C319.3 225.8 315.7 223.4 312.6 220.2C310 217.6 307.9 214.5 306.5 211.1C305.1 207.7 304.4 204.1 304.4 200.4C304.4 196.7 305.1 193.1 306.6 189.7C308 186.3 310.1 183.2 312.7 180.6C316.8 176.5 322.3 174.2 328.1 174.2C333.9 174.2 339.4 176.5 343.5 180.6C346.7 183.8 348.4 188 348.4 192.5C348.4 197 346.7 201.2 343.5 204.4C341.1 206.8 337.8 208.2 334.4 208.2C331 208.2 327.7 206.9 325.3 204.4C324.4 203.5 323.7 202.4 323.2 201.2C322.7 200 322.5 198.8 322.5 197.5C322.5 196.2 322.7 195 323.2 193.8C323.7 192.6 324.4 191.6 325.3 190.6C326.6 189.3 328.5 188.5 330.4 188.5C332.3 188.5 334.1 189.2 335.5 190.6C336 191.1 336.8 191.4 337.6 191.4C338.4 191.4 339.1 191.1 339.7 190.5C340.3 189.9 340.6 189.2 340.6 188.4C340.6 187.6 340.3 186.9 339.8 186.3C337.3 183.8 334 182.5 330.5 182.5C327 182.5 323.7 183.9 321.2 186.4C319.7 187.9 318.6 189.6 317.8 191.5C317 193.4 316.6 195.4 316.6 197.5C316.6 199.6 317 201.6 317.8 203.5C318.6 205.4 319.7 207.1 321.2 208.6C324.8 212.2 329.5 214.1 334.6 214.1C339.6 214.1 344.4 212.1 348 208.6C352.3 204.3 354.7 198.5 354.7 192.4C354.7 186.3 352.3 180.6 348 176.2C345.4 173.6 342.4 171.6 339 170.2C332.2 167.4 324.5 167.4 317.7 170.2C314.3 171.6 311.3 173.6 308.7 176.2C305.5 179.4 303 183.1 301.3 187.2C299.6 191.3 298.7 195.7 298.7 200.2C298.7 204.7 299.6 209.1 301.3 213.2C303 217.3 305.5 221.1 308.7 224.2C312.4 227.9 316.6 230.8 321.4 232.7C326.2 234.7 331.2 235.7 336.4 235.7C336.4 235.7 336.4 235.7 336.5 235.7H336.6C341.8 235.7 346.9 234.7 351.7 232.7C356.5 230.7 360.8 227.8 364.5 224.1C372.7 215.9 377.3 204.9 377.3 193.3C377.3 181.7 372.8 170.7 364.5 162.5C355.4 153.4 343.3 148.4 330.5 148.4C317.7 148.4 305.6 153.4 296.5 162.5C286.5 172.5 280.9 185.9 280.9 200.1C280.9 214.3 286.4 227.6 296.5 237.7C307.6 248.8 322.3 254.9 338 254.9C353.7 254.9 368.4 248.8 379.5 237.7C391.7 225.4 398.4 209.1 398.4 191.8C398.4 174.5 391.7 158.2 379.5 145.9C366 132.4 347.9 124.9 328.8 124.9C309.6 124.9 291.6 132.4 278.1 145.9C263.1 160.9 254.9 180.8 254.9 202C254.9 223.2 263.2 243.1 278.1 258.1C286.3 266.3 295.9 272.7 306.6 277.2C316.8 282 328.2 284.2 339.8 284.2ZM330.3 192.8C329.5 192.8 328.6 193.1 328.1 193.7C327.6 194.2 327.2 194.9 326.9 195.6C326.6 196.3 326.5 197 326.5 197.8C326.5 198.6 326.6 199.3 326.9 200C327.2 200.7 327.6 201.3 328.1 201.9C329.8 203.6 332 204.5 334.4 204.5C336.8 204.5 339 203.6 340.7 201.9C343.1 199.5 344.5 196.2 344.5 192.8C344.5 192.1 344.4 191.3 344.3 190.6C344 191.8 343.4 192.9 342.5 193.8C341.2 195.1 339.5 195.8 337.6 195.8C335.8 195.8 334 195.1 332.7 193.8C331.9 193.1 331.1 192.8 330.3 192.8Z" fill="url(#paint6_linear_862_12497)"/>
<path d="M81.4 288.2L81.3 288.1C80.8 288 80.4 287.9 79.9 287.7C79 287.3 78.3 286.8 77.6 286.2C68.2 276.8 60.8 265.7 55.6 253.3C50.6 240.9 48 227.9 48 214.5C48 201.1 50.6 188.1 55.7 175.7C60.8 163.3 68.2 152.3 77.7 142.8C95 125.6 118.1 116 142.6 116C167.1 116 190.2 125.6 207.5 142.9C223.2 158.6 231.9 179.6 231.9 201.9C231.9 224.2 223.2 245.1 207.5 260.9C193.3 275.1 174.3 283 154 283C133.8 283 114.8 275.1 100.5 260.8C87.5 247.8 80.4 230.5 80.4 212.1C80.4 193.7 87.6 176.4 100.5 163.4C112.3 151.6 128.1 145 144.8 145C161.5 145 177.3 151.5 189.1 163.4C199.9 174.2 205.8 188.5 205.8 203.8C205.8 219 199.9 233.4 189.1 244.2C179.3 254 166.2 259.4 152.3 259.4C138.4 259.4 125.3 254 115.5 244.2C106.5 235.2 101.6 223.3 101.6 210.6C101.6 197.9 106.5 185.9 115.5 177C119.5 172.9 124.3 169.7 129.6 167.5C134.9 165.3 140.5 164.2 146.2 164.2H146.3C152 164.2 157.6 165.3 162.9 167.5C168.2 169.7 172.9 172.9 177 176.9C180.5 180.4 183.3 184.6 185.2 189.2C187.1 193.8 188.1 198.7 188.1 203.7C188.1 208.7 187.1 213.6 185.2 218.2C183.3 222.8 180.5 227 176.9 230.5C170.9 236.5 162.9 239.8 154.4 239.8C145.9 239.8 137.9 236.5 131.9 230.5C126.8 225.4 124 218.7 124 211.5C124 204.3 126.8 197.6 131.9 192.5C134 190.4 136.5 188.7 139.3 187.5C144.9 185.2 151.2 185.2 156.8 187.5C159.6 188.7 162.1 190.3 164.2 192.5C166 194.3 167.5 196.5 168.5 198.9C169.5 201.3 170 203.8 170 206.4C170 209 169.5 211.5 168.5 213.9C167.5 216.3 166.1 218.5 164.2 220.3C161 223.5 156.6 225.3 152.1 225.3C151.5 225.3 150.9 225.3 150.3 225.2C151.6 225.5 153 225.7 154.4 225.7C159.2 225.7 163.6 223.9 167 220.5C171.5 216 174 210 174 203.6C174 197.2 171.5 191.2 167 186.6C164.3 183.8 161.1 181.7 157.5 180.2C153.9 178.7 150.2 178 146.3 178C146.3 178 146.3 178 146.2 178C142.2 178 138.4 178.8 134.8 180.3C131.2 181.8 128 184 125.3 186.7C119 193.1 115.5 201.5 115.5 210.5C115.5 219.5 119 227.9 125.3 234.2C132.5 241.4 142.1 245.3 152.2 245.3C162.4 245.3 171.9 241.3 179.1 234.2C187.2 226.1 191.7 215.2 191.7 203.7C191.7 192.2 187.2 181.4 179.1 173.2C174.6 168.7 169.2 165.1 163.3 162.7C157.4 160.2 151.1 159 144.7 159C138.3 159 132 160.2 126.1 162.7C120.2 165.2 114.9 168.7 110.3 173.3C100 183.7 94.3 197.4 94.3 212.1C94.3 226.8 100 240.5 110.3 250.9C116.1 256.7 122.8 261.2 130.3 264.3C137.8 267.4 145.8 269 153.9 269C162 269 170 267.4 177.5 264.3C185 261.2 191.8 256.7 197.5 250.9C210.6 237.8 217.8 220.4 217.8 201.8C217.8 183.3 210.6 165.9 197.5 152.7C183 138.1 163.4 130 142.6 130C121.8 130 102.3 138.1 87.5 152.8C71.1 169.3 62 191.2 62 214.5C62 237.8 71.1 259.7 87.6 276.2C88.6 277.2 89.2 278.4 89.5 279.8C89.8 281.2 89.6 282.6 89.1 283.8C88.6 285.1 87.7 286.2 86.5 286.9C85.3 287.7 84 288.1 82.6 288.1L81.4 288.2ZM142.6 120C119.1 120 97.1 129.1 80.5 145.7C71.4 154.8 64.3 165.4 59.4 177.3C54.5 189.1 52 201.7 52 214.5C52 227.3 54.5 239.9 59.4 251.7C64.3 263.6 71.4 274.2 80.5 283.3C80.8 283.6 81.1 283.8 81.5 284C81.9 284.1 82.2 284.2 82.6 284.2H83C83.5 284.1 83.9 284 84.3 283.7C84.8 283.4 85.2 282.9 85.4 282.4C85.6 281.8 85.7 281.3 85.6 280.7C85.5 280.1 85.2 279.6 84.8 279.2C67.5 261.8 58 238.9 58 214.5C58 190.1 67.5 167.2 84.7 150C100.2 134.5 120.7 126 142.6 126C164.5 126 185 134.5 200.5 150C214.4 163.8 222 182.3 222 201.9C222 221.5 214.4 239.9 200.5 253.8C194.4 259.9 187.2 264.7 179.2 268.1C171.2 271.4 162.7 273.1 154 273.1C145.3 273.1 136.9 271.4 128.8 268.1C120.8 264.8 113.6 260 107.5 253.8C96.4 242.7 90.3 227.9 90.3 212.2C90.3 196.5 96.4 181.7 107.5 170.6C112.4 165.7 118.2 161.8 124.6 159.2C131 156.5 137.8 155.2 144.8 155.2C151.8 155.2 158.5 156.5 165 159.2C171.4 161.9 177.2 165.7 182.1 170.6C191 179.5 195.9 191.3 195.9 203.9C195.9 216.5 191 228.3 182.1 237.2C174.1 245.1 163.6 249.5 152.3 249.5C141.1 249.5 130.5 245.1 122.5 237.2C115.4 230.1 111.5 220.7 111.5 210.6C111.5 200.5 115.4 191.1 122.5 184C125.6 180.9 129.3 178.4 133.3 176.7C137.4 175 141.7 174.1 146.1 174.1C150.6 174.1 154.9 174.9 159 176.6C163.1 178.3 166.7 180.7 169.8 183.9C175.1 189.2 178 196.2 178 203.7C178 211.2 175.1 218.2 169.8 223.5C165.7 227.6 160.2 229.9 154.4 229.9C148.6 229.9 143.1 227.6 139 223.5C135.8 220.3 134.1 216.1 134.1 211.6C134.1 207.1 135.8 202.9 139 199.7C141.4 197.3 144.7 195.9 148.1 195.9C151.5 195.9 154.8 197.2 157.2 199.7C158.1 200.6 158.8 201.7 159.3 202.8C159.8 204 160 205.2 160 206.5C160 207.8 159.8 209 159.3 210.2C158.8 211.4 158.1 212.4 157.2 213.3C155.8 214.7 154 215.4 152.1 215.4C150.2 215.4 148.4 214.7 147 213.3C146.4 212.7 145.7 212.4 144.9 212.4C144.1 212.4 143.3 212.7 142.8 213.3C142.2 213.9 141.9 214.6 141.9 215.4C141.9 216.2 142.2 217 142.8 217.5C145.3 220 148.6 221.3 152.1 221.3C155.6 221.3 158.9 219.9 161.4 217.5C162.9 216 164 214.3 164.8 212.4C165.6 210.5 166 208.5 166 206.4C166 204.3 165.6 202.3 164.8 200.4C164 198.5 162.9 196.8 161.4 195.3C159.6 193.5 157.6 192.2 155.3 191.2C150.7 189.3 145.4 189.3 140.8 191.2C138.5 192.2 136.4 193.5 134.7 195.3C130.4 199.7 128 205.4 128 211.5C128 217.6 130.4 223.3 134.7 227.7C140 233 146.9 235.8 154.4 235.8C161.8 235.8 168.8 232.9 174.1 227.7C177.3 224.5 179.8 220.8 181.5 216.7C183.2 212.6 184.1 208.2 184.1 203.7C184.1 199.2 183.2 194.8 181.5 190.7C179.8 186.6 177.3 182.8 174.1 179.7C170.4 176 166.1 173.1 161.3 171.1C156.5 169.1 151.5 168.1 146.3 168.1H146.2H146.1C140.9 168.1 135.8 169.1 131 171.1C126.2 173.1 121.9 176 118.2 179.7C110 187.9 105.4 198.9 105.4 210.5C105.4 222.1 109.9 233.1 118.1 241.3C127.2 250.4 139.3 255.4 152.1 255.4C164.9 255.4 177 250.4 186.1 241.3C196.1 231.3 201.6 217.9 201.6 203.8C201.6 189.7 196.1 176.3 186.1 166.2C175 155.1 160.3 149 144.6 149C128.9 149 114.2 155.1 103.1 166.2C90.9 178.5 84.1 194.7 84.1 212.1C84.1 229.5 90.8 245.7 103.1 258C116.6 271.5 134.7 279 153.8 279C172.9 279 191 271.5 204.5 258C219.5 243 227.7 223.1 227.7 201.9C227.7 180.7 219.4 160.8 204.5 145.8C188.1 129.1 166.1 120 142.6 120ZM148.1 199.8C145.7 199.8 143.5 200.7 141.8 202.4C139.4 204.8 138 208.1 138 211.5C138 212.2 138.1 212.9 138.2 213.5C138.5 212.4 139.1 211.3 140 210.5C141.3 209.2 143.1 208.4 145 208.4C146.9 208.4 148.6 209.1 149.9 210.4C151.1 211.6 153.2 211.6 154.4 210.4C154.9 209.9 155.4 209.2 155.6 208.5C155.9 207.8 156 207.1 156 206.3C156 205.5 155.9 204.8 155.6 204.1C155.3 203.4 154.9 202.8 154.4 202.2C152.7 200.7 150.5 199.8 148.1 199.8Z" fill="url(#paint7_linear_862_12497)"/>
<path d="M339.8 286.2C328 286.2 316.3 283.9 305.4 279.4C294.5 274.9 284.6 268.2 276.3 259.9C261 244.6 252.5 223.9 252.5 202.4C252.5 180.8 261.1 160.1 276.3 144.9C290.1 131 308.8 123.2 328.4 123.2C348 123.2 366.7 131 380.5 144.8C393 157.3 400 174.3 400 192.1C400 209.9 393 226.8 380.5 239.4C369.1 250.8 353.7 257.2 337.6 257.2C321.5 257.2 306.1 250.8 294.7 239.4C284.4 229.1 278.6 215 278.6 200.4C278.6 185.8 284.4 171.8 294.7 161.4C304.1 152 316.8 146.7 330.1 146.7C343.4 146.7 356.1 152 365.5 161.4C374 169.9 378.9 181.5 378.9 193.6C378.9 205.7 374.1 217.3 365.5 225.8C361.7 229.7 357.1 232.7 352.1 234.8C347.1 236.9 341.7 238 336.2 238H336.1C330.7 238 325.3 236.9 320.3 234.9C315.3 232.8 310.7 229.8 306.9 225.9C303.6 222.6 300.9 218.6 299.1 214.2C297.3 209.8 296.4 205.2 296.4 200.4C296.4 195.6 297.3 191 299.1 186.6C300.9 182.2 303.6 178.3 306.9 174.9C309.7 172.1 313 169.9 316.6 168.4C320.2 166.9 324.1 166.1 328 166.1C331.9 166.1 335.8 166.9 339.4 168.4C343 169.9 346.3 172.1 349.1 174.9C353.8 179.6 356.4 185.9 356.4 192.5C356.4 199.1 353.8 205.4 349.1 210.1C345.2 214 339.9 216.2 334.3 216.2C328.7 216.2 323.4 214 319.5 210.1C317.9 208.5 316.5 206.5 315.7 204.4C314.8 202.3 314.4 199.9 314.4 197.6C314.4 195.3 314.9 193 315.7 190.8C316.6 188.7 317.9 186.7 319.5 185.1C322.3 182.3 326.2 180.7 330.2 180.7C334.2 180.7 338.1 182.3 340.9 185.1C341.8 186 342.3 187.3 342.3 188.6C342.3 189.9 341.8 191.2 340.8 192.1C339.9 193 338.6 193.6 337.3 193.6C336 193.6 334.7 193.1 333.8 192.2C332.8 191.2 331.5 190.7 330.1 190.7C328.7 190.7 327.4 191.2 326.4 192.2C325.7 192.9 325.1 193.8 324.7 194.7C324.3 195.6 324.1 196.6 324.1 197.7C324.1 198.7 324.3 199.7 324.7 200.7C325.1 201.6 325.7 202.5 326.4 203.2C328.4 205.2 331.2 206.4 334.1 206.4C337 206.4 339.8 205.3 341.8 203.2C344.6 200.4 346.1 196.6 346.1 192.7C346.1 188.8 344.5 185 341.8 182.2C338.1 178.5 333 176.4 327.8 176.4C322.6 176.4 317.5 178.5 313.8 182.2C311.4 184.6 309.5 187.5 308.1 190.6C306.7 193.7 306.1 197.1 306.1 200.5C306.1 203.9 306.8 207.3 308.1 210.4C309.4 213.6 311.3 216.4 313.7 218.8C316.6 221.7 320.1 224 323.9 225.6C327.7 227.2 331.8 228 335.9 228H336C340.1 228 344.2 227.2 348.1 225.6C351.9 224 355.4 221.7 358.3 218.7C365 212 368.7 203 368.7 193.5C368.7 184 365 175 358.3 168.3C354.6 164.6 350.2 161.6 345.3 159.6C340.4 157.6 335.2 156.5 330 156.5C324.7 156.5 319.5 157.5 314.7 159.6C309.8 161.6 305.4 164.6 301.7 168.3C293.2 176.8 288.5 188.2 288.5 200.2C288.5 212.2 293.3 223.6 301.7 232.1C306.4 236.8 312 240.5 318.1 243.1C324.2 245.6 330.8 247 337.5 247C344.2 247 350.7 245.7 356.9 243.1C363 240.6 368.6 236.8 373.3 232.1C378.6 226.8 382.8 220.6 385.6 213.7C388.5 206.8 389.9 199.4 389.9 191.9C389.9 184.4 388.4 177 385.6 170.1C382.7 163.2 378.6 156.9 373.3 151.7C361.3 139.8 345.1 133 328.2 133C311.3 133 295.1 139.7 283.1 151.7C269.7 165.1 262.2 183.2 262.2 202.2C262.2 221.1 269.7 239.3 283.1 252.7C290.5 260.1 299.3 266 309 270C318.7 274 329.1 276.1 339.6 276.1C350.1 276.1 360.5 274 370.2 270C379.9 266 388.7 260.1 396.1 252.7C412.8 235.9 422.2 213.2 422.2 189.6C422.2 166 412.8 143.2 396.1 126.5C395.2 125.6 394.6 124.3 394.6 123C394.6 121.7 395.1 120.4 396.1 119.5C397 118.6 398.3 118 399.6 118C400.9 118 402.2 118.5 403.1 119.5C421.7 138.1 432.1 163.4 432.1 189.7C432.1 216 421.7 241.3 403.1 259.9C394.8 268.3 384.9 274.9 373.9 279.4C363.3 283.9 351.6 286.2 339.8 286.2Z" fill="url(#paint8_radial_862_12497)"/>
<path d="M82.6 286.2C81.9 286.2 81.3 286.1 80.7 285.8C80.1 285.5 79.5 285.2 79.1 284.7C69.9 275.5 62.6 264.5 57.6 252.5C52.6 240.5 50 227.5 50 214.5C50 201.5 52.6 188.6 57.6 176.5C62.6 164.5 69.9 153.5 79.1 144.3C95.9 127.5 118.8 118 142.6 118C166.4 118 189.3 127.5 206.1 144.3C221.4 159.6 229.9 180.3 229.9 201.8C229.9 223.4 221.3 244.1 206.1 259.3C192.3 273.2 173.6 281 154 281C134.5 281 115.7 273.2 101.9 259.4C89.4 246.8 82.3 229.8 82.3 212.1C82.3 194.4 89.3 177.4 101.9 164.8C113.3 153.4 128.7 147 144.8 147C160.9 147 176.3 153.4 187.7 164.8C198 175.1 203.8 189.2 203.8 203.8C203.8 218.4 198 232.4 187.7 242.8C178.3 252.2 165.6 257.5 152.3 257.5C139 257.5 126.3 252.2 116.9 242.8C108.4 234.2 103.6 222.7 103.6 210.6C103.6 198.5 108.4 186.9 116.9 178.4C120.7 174.5 125.3 171.5 130.3 169.4C135.3 167.3 140.7 166.2 146.2 166.2H146.3C151.7 166.2 157.1 167.2 162.1 169.3C167.1 171.4 171.7 174.4 175.5 178.3C178.8 181.6 181.5 185.6 183.3 190C185.1 194.4 186 199 186 203.8C186 208.5 185.1 213.2 183.2 217.6C181.4 222 178.7 225.9 175.4 229.3C169.8 234.9 162.2 238 154.3 238C146.4 238 138.8 234.9 133.2 229.3C128.5 224.6 125.9 218.3 125.9 211.7C125.9 205.1 128.5 198.8 133.2 194.1C135.1 192.2 137.4 190.6 140 189.6C142.6 188.6 145.3 188 148 188C150.7 188 153.5 188.5 156 189.6C158.5 190.7 160.8 192.2 162.8 194.1C164.4 195.7 165.8 197.7 166.6 199.8C167.5 201.9 167.9 204.3 167.9 206.6C167.9 208.9 167.4 211.2 166.6 213.4C165.7 215.5 164.4 217.5 162.8 219.1C160 221.9 156.1 223.5 152.1 223.5C148.1 223.5 144.2 221.9 141.4 219.1C140.5 218.2 139.9 216.9 139.9 215.6C139.9 214.3 140.4 213 141.4 212.1C142.3 211.2 143.6 210.6 144.9 210.6C146.2 210.6 147.5 211.1 148.4 212.1C149.4 213.1 150.7 213.6 152.1 213.6C153.5 213.6 154.8 213.1 155.8 212.1C156.5 211.4 157.1 210.5 157.5 209.6C157.9 208.7 158.1 207.7 158.1 206.6C158.1 205.6 157.9 204.6 157.5 203.6C157.1 202.7 156.5 201.8 155.8 201.1C153.8 199.1 151 197.9 148.1 197.9C145.2 197.9 142.4 199 140.4 201.1C137.6 203.9 136.1 207.7 136.1 211.6C136.1 215.5 137.7 219.3 140.4 222.1C144.1 225.8 149.2 227.9 154.4 227.9C159.6 227.9 164.7 225.8 168.4 222.1C173.3 217.2 176 210.6 176 203.7C176 196.8 173.3 190.2 168.4 185.3C165.5 182.4 162 180.1 158.2 178.5C154.4 176.9 150.3 176.1 146.2 176.1H146.1C142 176.1 137.9 176.9 134 178.5C130.2 180.1 126.7 182.4 123.8 185.4C117.1 192.1 113.4 201.1 113.4 210.6C113.4 220 117.1 229.1 123.8 235.8C131.3 243.3 141.5 247.5 152.2 247.5C162.8 247.5 173 243.3 180.5 235.8C188.9 227.3 193.7 215.9 193.7 203.9C193.7 191.9 189 180.5 180.5 172C175.8 167.3 170.2 163.6 164.1 161C158 158.5 151.4 157.1 144.7 157.1C138 157.1 131.5 158.4 125.3 161C119.2 163.5 113.6 167.3 108.9 172C98.3 182.6 92.3 197 92.3 212.1C92.3 227.2 98.3 241.6 108.9 252.3C114.8 258.2 121.8 262.9 129.6 266.1C137.3 269.3 145.6 271 154 271C162.4 271 170.7 269.4 178.4 266.1C186.1 262.9 193.2 258.2 199.1 252.3C212.5 238.9 220 220.8 220 201.8C220 182.9 212.5 164.7 199.1 151.3C184.1 136.3 163.8 127.9 142.6 127.9C121.4 127.9 101.1 136.3 86.1 151.3C69.4 168.1 60 190.9 60 214.5C60 238.2 69.4 260.9 86.1 277.6C86.8 278.3 87.3 279.2 87.5 280.2C87.7 281.2 87.6 282.2 87.2 283.1C86.8 284 86.2 284.8 85.4 285.3C84.6 285.9 83.6 286.2 82.6 286.2Z" fill="url(#paint9_radial_862_12497)"/>
<defs>
<filter id="filter0_f_862_12497" x="-26.8149" y="206.558" width="535.022" height="306.595" filterUnits="userSpaceOnUse" color-interpolation-filters="sRGB">
<feFlood flood-opacity="0" result="BackgroundImageFix"/>
<feBlend mode="normal" in="SourceGraphic" in2="BackgroundImageFix" result="shape"/>
<feGaussianBlur stdDeviation="12.5" result="effect1_foregroundBlur_862_12497"/>
</filter>
<filter id="filter1_f_862_12497" x="-41.8149" y="191.558" width="565.022" height="336.595" filterUnits="userSpaceOnUse" color-interpolation-filters="sRGB">
<feFlood flood-opacity="0" result="BackgroundImageFix"/>
<feBlend mode="normal" in="SourceGraphic" in2="BackgroundImageFix" result="shape"/>
<feGaussianBlur stdDeviation="20" result="effect1_foregroundBlur_862_12497"/>
</filter>
<radialGradient id="paint0_radial_862_12497" cx="0" cy="0" r="1" gradientUnits="userSpaceOnUse" gradientTransform="translate(241 -4.53898e-06) rotate(90) scale(482)">
<stop stop-color="#FFDE43"/>
<stop offset="1" stop-color="#FFBC00"/>
</radialGradient>
<radialGradient id="paint1_radial_862_12497" cx="0" cy="0" r="1" gradientUnits="userSpaceOnUse" gradientTransform="translate(241 64.5) rotate(90) scale(417.5)">
<stop stop-color="white" stop-opacity="0.5"/>
<stop offset="0.782278"/>
</radialGradient>
<radialGradient id="paint2_radial_862_12497" cx="0" cy="0" r="1" gradientUnits="userSpaceOnUse" gradientTransform="translate(241 64.5) rotate(90) scale(417.5)">
<stop stop-color="white" stop-opacity="0.5"/>
<stop offset="0.782278"/>
</radialGradient>
<radialGradient id="paint3_radial_862_12497" cx="0" cy="0" r="1" gradientUnits="userSpaceOnUse" gradientTransform="translate(241 -52.5) rotate(90) scale(534.5 722.835)">
<stop offset="0.0922635" stop-color="white"/>
<stop offset="0.670207" stop-color="white" stop-opacity="0"/>
</radialGradient>
<linearGradient id="paint4_linear_862_12497" x1="241.03" y1="364.626" x2="241.03" y2="332.732" gradientUnits="userSpaceOnUse">
<stop offset="0.265625" stop-color="#FFDE43"/>
<stop offset="1" stop-color="#F79D14"/>
</linearGradient>
<radialGradient id="paint5_radial_862_12497" cx="0" cy="0" r="1" gradientUnits="userSpaceOnUse" gradientTransform="translate(241.03 348.679) scale(89.0918 30.3825)">
<stop stop-color="#743C1C"/>
<stop offset="1" stop-color="#401C02"/>
</radialGradient>
<linearGradient id="paint6_linear_862_12497" x1="342.25" y1="293.043" x2="342.25" y2="110.562" gradientUnits="userSpaceOnUse">
<stop stop-color="#FFDE43"/>
<stop offset="0.22" stop-color="#FED93F"/>
<stop offset="0.51" stop-color="#FCC934"/>
<stop offset="0.82" stop-color="#F9AF21"/>
<stop offset="1" stop-color="#F79D14"/>
</linearGradient>
<linearGradient id="paint7_linear_862_12497" x1="139.95" y1="293.045" x2="139.95" y2="110.459" gradientUnits="userSpaceOnUse">
<stop stop-color="#FFDE43"/>
<stop offset="0.22" stop-color="#FED93F"/>
<stop offset="0.51" stop-color="#FCC934"/>
<stop offset="0.82" stop-color="#F9AF21"/>
<stop offset="1" stop-color="#F79D14"/>
</linearGradient>
<radialGradient id="paint8_radial_862_12497" cx="0" cy="0" r="1" gradientUnits="userSpaceOnUse" gradientTransform="translate(342.389 202.094) scale(114.7 84.2216)">
<stop stop-color="#743C1C"/>
<stop offset="1" stop-color="#401C02"/>
</radialGradient>
<radialGradient id="paint9_radial_862_12497" cx="0" cy="0" r="1" gradientUnits="userSpaceOnUse" gradientTransform="translate(139.993 202.098) scale(114.706 84.2373)">
<stop stop-color="#743C1C"/>
<stop offset="1" stop-color="#401C02"/>
</radialGradient>
</defs>
</svg>
