<svg width="483" height="501" viewBox="0 0 483 501" fill="none" xmlns="http://www.w3.org/2000/svg">
<path d="M241.18 482.36C374.38 482.36 482.36 374.38 482.36 241.18C482.36 107.98 374.38 0 241.18 0C107.98 0 0 107.98 0 241.18C0 374.38 107.98 482.36 241.18 482.36Z" fill="url(#paint0_radial_862_12477)"/>
<g style="mix-blend-mode:soft-light">
<path d="M241.18 482.36C374.38 482.36 482.36 374.38 482.36 241.18C482.36 107.98 374.38 0 241.18 0C107.98 0 0 107.98 0 241.18C0 374.38 107.98 482.36 241.18 482.36Z" fill="url(#paint1_radial_862_12477)"/>
</g>
<g style="mix-blend-mode:soft-light">
<path d="M241.18 482.36C374.38 482.36 482.36 374.38 482.36 241.18C482.36 107.98 374.38 0 241.18 0C107.98 0 0 107.98 0 241.18C0 374.38 107.98 482.36 241.18 482.36Z" fill="url(#paint2_radial_862_12477)"/>
</g>
<g style="mix-blend-mode:overlay">
<path d="M241.18 482.36C374.38 482.36 482.36 374.38 482.36 241.18C482.36 107.98 374.38 0 241.18 0C107.98 0 0 107.98 0 241.18C0 374.38 107.98 482.36 241.18 482.36Z" fill="url(#paint3_radial_862_12477)" fill-opacity="0.7"/>
</g>
<path d="M241.18 482.36C374.38 482.36 482.36 374.38 482.36 241.18C482.36 107.98 374.38 0 241.18 0C107.98 0 0 107.98 0 241.18C0 374.38 107.98 482.36 241.18 482.36Z" fill="url(#paint4_linear_862_12477)"/>
<mask id="mask0_862_12477" style="mask-type:alpha" maskUnits="userSpaceOnUse" x="0" y="0" width="483" height="483">
<path d="M241.18 482.36C374.38 482.36 482.36 374.38 482.36 241.18C482.36 107.98 374.38 0 241.18 0C107.98 0 0 107.98 0 241.18C0 374.38 107.98 482.36 241.18 482.36Z" fill="white"/>
</mask>
<g mask="url(#mask0_862_12477)">
<g filter="url(#filter0_f_862_12477)">
<path d="M-1.3759 234.299C-1.11402 230.872 0.0137008 230.529 0.342619 234.008C0.708055 237.874 -0.00231624 245.646 0.16871 250.335C0.621554 262.748 2.52441 273.541 4.48605 282.32C10.8075 310.612 19.5617 328.843 27.7268 344.288C54.5663 395.06 83.9667 420.77 112.648 440.147C154.689 468.549 197.072 477.584 239.49 479.5C240.56 479.548 240.738 486.518 239.686 487.425C237.788 489.061 235.436 487.437 233.494 487.369C227.915 487.174 222.335 486.791 216.756 486.211C200.213 484.492 183.67 480.991 167.162 475.358C122.275 460.044 73.8765 433.821 31.6092 359.962C28.9502 355.316 26.3124 350.424 23.7118 345.167C21.6321 340.963 19.5726 336.556 17.5493 331.843C10.8946 316.342 -4.61323 276.658 -1.3759 234.299ZM239.52 487.5C238.499 487.531 238.241 481.034 239.214 479.685C240.684 477.647 242.888 479.326 244.439 479.229C250.877 478.826 257.314 478.229 263.75 477.421C281.395 475.205 299.028 471.422 316.621 465.596C360.257 451.145 407.17 429.115 448.305 361.431C450.923 357.123 453.518 352.553 456.079 347.641C463.86 332.712 483.361 293.084 481.107 243.821C480.917 239.668 482.181 237.181 482.747 240.743C483.467 245.279 483.175 254.736 482.977 259.768C482.341 275.883 479.866 289.512 477.257 300.518C468.987 335.399 457.376 355.623 446.744 372.51C412.184 427.397 374.648 449.524 338.155 465.424C305.424 479.686 272.444 486.484 239.52 487.5Z" fill="#401C02"/>
</g>
<g filter="url(#filter1_f_862_12477)">
<path d="M-1.3759 234.299C-1.11402 230.872 0.0137008 230.529 0.342619 234.008C0.708055 237.874 -0.00231624 245.646 0.16871 250.335C0.621554 262.748 2.52441 273.541 4.48605 282.32C10.8075 310.612 19.5617 328.843 27.7268 344.288C54.5663 395.06 83.9667 420.77 112.648 440.147C154.689 468.549 197.072 477.584 239.49 479.5C240.56 479.548 240.738 486.518 239.686 487.425C237.788 489.061 235.436 487.437 233.494 487.369C227.915 487.174 222.335 486.791 216.756 486.211C200.213 484.492 183.67 480.991 167.162 475.358C122.275 460.044 73.8765 433.821 31.6092 359.962C28.9502 355.316 26.3124 350.424 23.7118 345.167C21.6321 340.963 19.5726 336.556 17.5493 331.843C10.8946 316.342 -4.61323 276.658 -1.3759 234.299ZM239.52 487.5C238.499 487.531 238.241 481.034 239.214 479.685C240.684 477.647 242.888 479.326 244.439 479.229C250.877 478.826 257.314 478.229 263.75 477.421C281.395 475.205 299.028 471.422 316.621 465.596C360.257 451.145 407.17 429.115 448.305 361.431C450.923 357.123 453.518 352.553 456.079 347.641C463.86 332.712 483.361 293.084 481.107 243.821C480.917 239.668 482.181 237.181 482.747 240.743C483.467 245.279 483.175 254.736 482.977 259.768C482.341 275.883 479.866 289.512 477.257 300.518C468.987 335.399 457.376 355.623 446.744 372.51C412.184 427.397 374.648 449.524 338.155 465.424C305.424 479.686 272.444 486.484 239.52 487.5Z" fill="#401C02"/>
</g>
</g>
<path d="M216.818 189.557C223.727 140.824 197.248 96.7705 157.675 91.1595C118.102 85.5486 80.4205 120.505 73.5109 169.238C66.6013 217.97 93.0803 262.024 132.653 267.634C172.226 273.245 209.908 238.289 216.818 189.557Z" fill="url(#paint5_linear_862_12477)"/>
<path d="M216.818 189.557C223.727 140.824 197.248 96.7705 157.675 91.1595C118.102 85.5486 80.4205 120.505 73.5109 169.238C66.6013 217.97 93.0803 262.024 132.653 267.634C172.226 273.245 209.908 238.289 216.818 189.557Z" stroke="url(#paint6_linear_862_12477)" stroke-width="2.5" stroke-miterlimit="10"/>
<path d="M265.387 189.557C258.478 140.824 284.957 96.7705 324.53 91.1595C364.103 85.5486 401.785 120.505 408.694 169.238C415.604 217.97 389.125 262.024 349.552 267.634C309.979 273.245 272.297 238.289 265.387 189.557Z" fill="url(#paint7_linear_862_12477)"/>
<path d="M265.387 189.557C258.478 140.824 284.957 96.7705 324.53 91.1595C364.103 85.5486 401.785 120.505 408.694 169.238C415.604 217.97 389.125 262.024 349.552 267.634C309.979 273.245 272.297 238.289 265.387 189.557Z" stroke="url(#paint8_linear_862_12477)" stroke-width="2.5" stroke-miterlimit="10"/>
<path d="M305.85 345.32C305.85 298.15 276.62 254.89 240.56 254.89C204.5 254.89 175.27 298.15 175.27 345.32C175.27 392.49 204.5 421.58 240.56 421.58C276.62 421.58 305.85 392.49 305.85 345.32Z" fill="url(#paint9_radial_862_12477)"/>
<path style="mix-blend-mode:multiply" d="M306.69 345.41C306.69 297.63 277.08 253.81 240.56 253.81C204.04 253.81 174.43 297.63 174.43 345.41C174.43 393.19 204.04 422.65 240.56 422.65C277.08 422.65 306.69 393.19 306.69 345.41Z" fill="url(#paint10_linear_862_12477)"/>
<mask id="mask1_862_12477" style="mask-type:alpha" maskUnits="userSpaceOnUse" x="174" y="253" width="133" height="170">
<path d="M306.69 345.41C306.69 297.63 277.08 253.81 240.56 253.81C204.04 253.81 174.43 297.63 174.43 345.41C174.43 393.19 204.04 422.65 240.56 422.65C277.08 422.65 306.69 393.19 306.69 345.41Z" fill="url(#paint11_linear_862_12477)"/>
</mask>
<g mask="url(#mask1_862_12477)">
<path d="M249.93 382.29H231.19C193.839 382.29 163.56 412.569 163.56 449.92C163.56 487.271 193.839 517.55 231.19 517.55H249.93C287.281 517.55 317.56 487.271 317.56 449.92C317.56 412.569 287.281 382.29 249.93 382.29Z" fill="url(#paint12_radial_862_12477)"/>
</g>
<path d="M306.69 345.41C306.69 297.63 277.08 253.81 240.56 253.81C204.04 253.81 174.43 297.63 174.43 345.41C174.43 393.19 204.04 422.65 240.56 422.65C277.08 422.65 306.69 393.19 306.69 345.41Z" stroke="url(#paint13_linear_862_12477)" stroke-width="2.5" stroke-miterlimit="10"/>
<mask id="mask2_862_12477" style="mask-type:alpha" maskUnits="userSpaceOnUse" x="0" y="0" width="483" height="483">
<path d="M241.18 482.36C374.38 482.36 482.36 374.38 482.36 241.18C482.36 107.98 374.38 0 241.18 0C107.98 0 0 107.98 0 241.18C0 374.38 107.98 482.36 241.18 482.36Z" fill="black"/>
</mask>
<g mask="url(#mask2_862_12477)">
<g filter="url(#filter2_f_862_12477)">
<path d="M453.521 235.3C453.521 235.3 492.401 231.87 464.961 347.38C453.651 395.69 428.961 428.76 404.551 446.17C401.995 448.016 399.916 450.445 398.486 453.256C397.057 456.066 396.318 459.177 396.331 462.33V476.13C396.324 481.063 395.013 485.907 392.532 490.17C390.05 494.434 386.487 497.966 382.201 500.41C368.781 508.05 346.891 515.98 321.311 507.82C314.99 505.798 309.403 501.963 305.244 496.79C301.086 491.618 298.539 485.338 297.921 478.73C296.321 461.85 297.081 436.32 310.111 411.26C315.615 400.831 324.02 392.217 334.311 386.46C360.091 371.82 417.361 335.23 416.921 299.32C416.351 253.02 429.501 237.01 453.521 235.3Z" fill="#743C1C"/>
</g>
<g filter="url(#filter3_f_862_12477)">
<path d="M28.2428 235.3C28.2428 235.3 -10.6373 231.87 16.8027 347.38C28.1127 395.69 52.8027 428.76 77.2127 446.17C79.769 448.016 81.8482 450.445 83.2777 453.256C84.7073 456.066 85.4461 459.177 85.4327 462.33V476.13C85.4404 481.063 86.7512 485.907 89.2325 490.17C91.7137 494.434 95.2774 497.966 99.5628 500.41C112.983 508.05 134.873 515.98 160.453 507.82C166.774 505.798 172.361 501.963 176.52 496.79C180.679 491.618 183.225 485.338 183.843 478.73C185.443 461.85 184.683 436.32 171.653 411.26C166.149 400.831 157.744 392.217 147.453 386.46C121.673 371.82 64.4027 335.23 64.8428 299.32C65.4128 253.02 52.2628 237.01 28.2428 235.3Z" fill="#743C1C"/>
</g>
</g>
<path d="M455.521 224.3C455.521 224.3 494.401 220.87 466.961 336.38C455.651 384.69 430.961 417.76 406.551 435.17C403.995 437.016 401.916 439.445 400.486 442.256C399.056 445.066 398.318 448.177 398.331 451.33V465.13C398.323 470.063 397.012 474.907 394.531 479.17C392.05 483.434 388.486 486.966 384.201 489.41C370.781 497.05 348.891 504.98 323.311 496.82C316.99 494.798 311.402 490.963 307.244 485.79C303.085 480.618 300.539 474.338 299.921 467.73C298.321 450.85 299.081 425.32 312.111 400.26C317.614 389.831 326.019 381.217 336.311 375.46C362.091 360.82 419.361 324.23 418.921 288.32C418.351 242.02 431.501 226.01 455.521 224.3Z" fill="url(#paint14_radial_862_12477)"/>
<path d="M26.2428 224.3C26.2428 224.3 -12.6373 220.87 14.8027 336.38C26.1127 384.69 50.8027 417.76 75.2127 435.17C77.769 437.016 79.8482 439.445 81.2777 442.256C82.7073 445.066 83.4461 448.177 83.4327 451.33V465.13C83.4404 470.063 84.7512 474.907 87.2325 479.17C89.7137 483.434 93.2774 486.966 97.5628 489.41C110.983 497.05 132.873 504.98 158.453 496.82C164.774 494.798 170.361 490.963 174.52 485.79C178.679 480.618 181.225 474.338 181.843 467.73C183.443 450.85 182.683 425.32 169.653 400.26C164.149 389.831 155.744 381.217 145.453 375.46C119.673 360.82 62.4027 324.23 62.8428 288.32C63.4128 242.02 50.2628 226.01 26.2428 224.3Z" fill="url(#paint15_radial_862_12477)"/>
<mask id="mask3_862_12477" style="mask-type:alpha" maskUnits="userSpaceOnUse" x="5" y="224" width="472" height="277">
<path d="M455.521 224.3C455.521 224.3 494.401 220.87 466.961 336.38C455.651 384.69 430.961 417.76 406.551 435.17C403.995 437.016 401.916 439.445 400.486 442.256C399.056 445.066 398.318 448.177 398.331 451.33V465.13C398.323 470.063 397.012 474.907 394.531 479.17C392.05 483.434 388.486 486.966 384.201 489.41C370.781 497.05 348.891 504.98 323.311 496.82C316.99 494.798 311.402 490.963 307.244 485.79C303.085 480.618 300.539 474.338 299.921 467.73C298.321 450.85 299.081 425.32 312.111 400.26C317.614 389.831 326.019 381.217 336.311 375.46C362.091 360.82 419.361 324.23 418.921 288.32C418.351 242.02 431.501 226.01 455.521 224.3Z" fill="url(#paint16_radial_862_12477)"/>
<path d="M26.2428 224.3C26.2428 224.3 -12.6373 220.87 14.8027 336.38C26.1127 384.69 50.8027 417.76 75.2127 435.17C77.769 437.016 79.8482 439.445 81.2777 442.256C82.7073 445.066 83.4461 448.177 83.4327 451.33V465.13C83.4404 470.063 84.7512 474.907 87.2325 479.17C89.7137 483.434 93.2774 486.966 97.5628 489.41C110.983 497.05 132.873 504.98 158.453 496.82C164.774 494.798 170.361 490.963 174.52 485.79C178.679 480.618 181.225 474.338 181.843 467.73C183.443 450.85 182.683 425.32 169.653 400.26C164.149 389.831 155.744 381.217 145.453 375.46C119.673 360.82 62.4027 324.23 62.8428 288.32C63.4128 242.02 50.2628 226.01 26.2428 224.3Z" fill="url(#paint17_radial_862_12477)"/>
</mask>
<g mask="url(#mask3_862_12477)">
<g filter="url(#filter4_f_862_12477)">
<path d="M455.734 227.293L455.744 227.292C455.739 227.292 455.742 227.292 455.754 227.291C455.777 227.29 455.833 227.289 455.918 227.29C456.088 227.291 456.373 227.304 456.75 227.353C457.503 227.451 458.615 227.696 459.911 228.293C462.442 229.46 465.945 232.101 468.809 238.285C474.647 250.891 477.736 278.043 464.042 335.687L464.04 335.696C452.879 383.371 428.566 415.783 404.809 432.728L404.802 432.733L404.795 432.738C401.852 434.863 399.458 437.66 397.812 440.896C396.167 444.129 395.317 447.708 395.331 451.335V465.125C395.324 469.53 394.154 473.855 391.938 477.661C389.723 481.468 386.541 484.622 382.715 486.804C369.697 494.214 348.705 501.772 324.223 493.962C318.463 492.119 313.371 488.624 309.582 483.911C305.792 479.197 303.471 473.473 302.908 467.451L302.908 467.447C301.339 450.899 302.104 426.015 314.768 401.653C320.001 391.739 327.992 383.551 337.776 378.078L337.784 378.074L337.792 378.069C350.753 370.709 371.723 357.782 389.436 342.113C398.293 334.279 406.425 325.682 412.333 316.671C418.233 307.672 422.041 298.066 421.921 288.283V288.283C421.638 265.305 424.789 250.436 430.548 241.173C436.144 232.17 444.443 228.096 455.734 227.293Z" stroke="#F79D14" stroke-width="6"/>
<path d="M26.0297 227.293L26.0201 227.292C26.025 227.292 26.0215 227.292 26.0099 227.291C25.9865 227.29 25.9309 227.289 25.846 227.29C25.676 227.291 25.3909 227.304 25.0141 227.353C24.2608 227.451 23.1483 227.696 21.8529 228.293C19.322 229.46 15.8189 232.101 12.955 238.285C7.11653 250.891 4.02791 278.043 17.7215 335.687L17.7238 335.696C28.885 383.371 53.1979 415.783 76.9548 432.728L76.962 432.733L76.9691 432.738C79.9121 434.863 82.3058 437.66 83.9517 440.896C85.5964 444.129 86.4469 447.708 86.4327 451.335V465.125C86.4396 469.53 87.6099 473.855 89.8253 477.661C92.0408 481.468 95.2226 484.622 99.0488 486.804C112.066 494.214 133.059 501.772 157.541 493.962C163.301 492.119 168.392 488.624 172.182 483.911C175.972 479.197 178.293 473.473 178.856 467.451L178.856 467.447C180.425 450.899 179.66 426.015 166.995 401.653C161.762 391.739 153.772 383.551 143.988 378.078L143.98 378.074L143.971 378.069C131.011 370.709 110.041 357.782 92.3276 342.113C83.4706 334.279 75.3384 325.682 69.4308 316.671C63.5305 307.672 59.7231 298.066 59.843 288.283V288.283C60.1259 265.305 56.9746 250.436 51.2162 241.173C45.62 232.17 37.3209 228.096 26.0297 227.293Z" stroke="#F79D14" stroke-width="6"/>
</g>
</g>
<defs>
<filter id="filter0_f_862_12477" x="-26.8149" y="206.558" width="535.022" height="306.595" filterUnits="userSpaceOnUse" color-interpolation-filters="sRGB">
<feFlood flood-opacity="0" result="BackgroundImageFix"/>
<feBlend mode="normal" in="SourceGraphic" in2="BackgroundImageFix" result="shape"/>
<feGaussianBlur stdDeviation="12.5" result="effect1_foregroundBlur_862_12477"/>
</filter>
<filter id="filter1_f_862_12477" x="-41.8149" y="191.558" width="565.022" height="336.595" filterUnits="userSpaceOnUse" color-interpolation-filters="sRGB">
<feFlood flood-opacity="0" result="BackgroundImageFix"/>
<feBlend mode="normal" in="SourceGraphic" in2="BackgroundImageFix" result="shape"/>
<feGaussianBlur stdDeviation="20" result="effect1_foregroundBlur_862_12477"/>
</filter>
<filter id="filter2_f_862_12477" x="267.312" y="205.289" width="237.452" height="335.973" filterUnits="userSpaceOnUse" color-interpolation-filters="sRGB">
<feFlood flood-opacity="0" result="BackgroundImageFix"/>
<feBlend mode="normal" in="SourceGraphic" in2="BackgroundImageFix" result="shape"/>
<feGaussianBlur stdDeviation="15" result="effect1_foregroundBlur_862_12477"/>
</filter>
<filter id="filter3_f_862_12477" x="-23" y="205.289" width="237.452" height="335.973" filterUnits="userSpaceOnUse" color-interpolation-filters="sRGB">
<feFlood flood-opacity="0" result="BackgroundImageFix"/>
<feBlend mode="normal" in="SourceGraphic" in2="BackgroundImageFix" result="shape"/>
<feGaussianBlur stdDeviation="15" result="effect1_foregroundBlur_862_12477"/>
</filter>
<filter id="filter4_f_862_12477" x="-11" y="208.289" width="503.764" height="307.973" filterUnits="userSpaceOnUse" color-interpolation-filters="sRGB">
<feFlood flood-opacity="0" result="BackgroundImageFix"/>
<feBlend mode="normal" in="SourceGraphic" in2="BackgroundImageFix" result="shape"/>
<feGaussianBlur stdDeviation="8" result="effect1_foregroundBlur_862_12477"/>
</filter>
<radialGradient id="paint0_radial_862_12477" cx="0" cy="0" r="1" gradientUnits="userSpaceOnUse" gradientTransform="translate(241 -4.53898e-06) rotate(90) scale(482)">
<stop stop-color="#FFDE43"/>
<stop offset="1" stop-color="#FFBC00"/>
</radialGradient>
<radialGradient id="paint1_radial_862_12477" cx="0" cy="0" r="1" gradientUnits="userSpaceOnUse" gradientTransform="translate(241 64.5) rotate(90) scale(417.5)">
<stop stop-color="white" stop-opacity="0.5"/>
<stop offset="0.782278"/>
</radialGradient>
<radialGradient id="paint2_radial_862_12477" cx="0" cy="0" r="1" gradientUnits="userSpaceOnUse" gradientTransform="translate(241 64.5) rotate(90) scale(417.5)">
<stop stop-color="white" stop-opacity="0.5"/>
<stop offset="0.782278"/>
</radialGradient>
<radialGradient id="paint3_radial_862_12477" cx="0" cy="0" r="1" gradientUnits="userSpaceOnUse" gradientTransform="translate(241 -52.5) rotate(90) scale(534.5 722.835)">
<stop offset="0.0922635" stop-color="white"/>
<stop offset="0.670207" stop-color="white" stop-opacity="0"/>
</radialGradient>
<linearGradient id="paint4_linear_862_12477" x1="241.18" y1="482.36" x2="241.18" y2="-0.0100055" gradientUnits="userSpaceOnUse">
<stop offset="0.395833" stop-color="#0071BC" stop-opacity="0"/>
<stop offset="0.666667" stop-color="#0063CF" stop-opacity="0.28"/>
<stop offset="0.99" stop-color="#003DFF"/>
</linearGradient>
<linearGradient id="paint5_linear_862_12477" x1="73.5109" y1="169.237" x2="216.818" y2="189.556" gradientUnits="userSpaceOnUse">
<stop stop-color="#CCCCCC"/>
<stop offset="0.05" stop-color="#D5D5D5"/>
<stop offset="0.2" stop-color="#E9E9E9"/>
<stop offset="0.35" stop-color="#F6F6F6"/>
<stop offset="0.5" stop-color="#FAFAFA"/>
<stop offset="0.65" stop-color="#F6F6F6"/>
<stop offset="0.8" stop-color="#E9E9E9"/>
<stop offset="0.95" stop-color="#D5D5D5"/>
<stop offset="1" stop-color="#CCCCCC"/>
</linearGradient>
<linearGradient id="paint6_linear_862_12477" x1="220.85" y1="190.128" x2="68.8995" y2="168.584" gradientUnits="userSpaceOnUse">
<stop stop-color="#FFDE43"/>
<stop offset="0.22" stop-color="#FED93F"/>
<stop offset="0.51" stop-color="#FCC934"/>
<stop offset="0.82" stop-color="#F9AF21"/>
<stop offset="1" stop-color="#F79D14"/>
</linearGradient>
<linearGradient id="paint7_linear_862_12477" x1="408.694" y1="169.237" x2="265.387" y2="189.556" gradientUnits="userSpaceOnUse">
<stop stop-color="#CCCCCC"/>
<stop offset="0.05" stop-color="#D5D5D5"/>
<stop offset="0.2" stop-color="#E9E9E9"/>
<stop offset="0.35" stop-color="#F6F6F6"/>
<stop offset="0.5" stop-color="#FAFAFA"/>
<stop offset="0.65" stop-color="#F6F6F6"/>
<stop offset="0.8" stop-color="#E9E9E9"/>
<stop offset="0.95" stop-color="#D5D5D5"/>
<stop offset="1" stop-color="#CCCCCC"/>
</linearGradient>
<linearGradient id="paint8_linear_862_12477" x1="261.355" y1="190.128" x2="413.306" y2="168.584" gradientUnits="userSpaceOnUse">
<stop stop-color="#FFDE43"/>
<stop offset="0.22" stop-color="#FED93F"/>
<stop offset="0.51" stop-color="#FCC934"/>
<stop offset="0.82" stop-color="#F9AF21"/>
<stop offset="1" stop-color="#F79D14"/>
</linearGradient>
<radialGradient id="paint9_radial_862_12477" cx="0" cy="0" r="1" gradientUnits="userSpaceOnUse" gradientTransform="translate(240.56 337.898) scale(49.2824 168.366)">
<stop stop-color="#743C1C"/>
<stop offset="1" stop-color="#401C02"/>
</radialGradient>
<linearGradient id="paint10_linear_862_12477" x1="240.56" y1="422.65" x2="240.56" y2="253.81" gradientUnits="userSpaceOnUse">
<stop stop-color="#8E5613" stop-opacity="0"/>
<stop offset="0.43" stop-color="#824A17" stop-opacity="0.48"/>
<stop offset="0.81" stop-color="#78401B" stop-opacity="0.86"/>
<stop offset="1" stop-color="#743C1C"/>
</linearGradient>
<linearGradient id="paint11_linear_862_12477" x1="172.43" y1="338.23" x2="308.69" y2="338.23" gradientUnits="userSpaceOnUse">
<stop offset="0.16" stop-color="#FFDE43"/>
<stop offset="1" stop-color="#FFA216"/>
</linearGradient>
<radialGradient id="paint12_radial_862_12477" cx="0" cy="0" r="1" gradientUnits="userSpaceOnUse" gradientTransform="translate(248.044 370.57) scale(189.886 160.92)">
<stop stop-color="#ED68A4"/>
<stop offset="0.04" stop-color="#E35F9B"/>
<stop offset="0.19" stop-color="#C2427B"/>
<stop offset="0.27" stop-color="#B93B73"/>
<stop offset="0.53" stop-color="#9E285C"/>
</radialGradient>
<linearGradient id="paint13_linear_862_12477" x1="172.43" y1="338.23" x2="308.69" y2="338.23" gradientUnits="userSpaceOnUse">
<stop offset="0.16" stop-color="#FFDE43"/>
<stop offset="1" stop-color="#FFA216"/>
</linearGradient>
<radialGradient id="paint14_radial_862_12477" cx="0" cy="0" r="1" gradientUnits="userSpaceOnUse" gradientTransform="translate(256.141 205.91) scale(294.77 294.77)">
<stop offset="0.39" stop-color="#FFDE43"/>
<stop offset="1" stop-color="#FFA216"/>
</radialGradient>
<radialGradient id="paint15_radial_862_12477" cx="0" cy="0" r="1" gradientUnits="userSpaceOnUse" gradientTransform="translate(225.623 205.91) rotate(180) scale(294.77 294.77)">
<stop offset="0.39" stop-color="#FFDE43"/>
<stop offset="1" stop-color="#FFA216"/>
</radialGradient>
<radialGradient id="paint16_radial_862_12477" cx="0" cy="0" r="1" gradientUnits="userSpaceOnUse" gradientTransform="translate(256.141 205.91) scale(294.77 294.77)">
<stop offset="0.39" stop-color="#FFDE43"/>
<stop offset="1" stop-color="#FFA216"/>
</radialGradient>
<radialGradient id="paint17_radial_862_12477" cx="0" cy="0" r="1" gradientUnits="userSpaceOnUse" gradientTransform="translate(225.623 205.91) rotate(180) scale(294.77 294.77)">
<stop offset="0.39" stop-color="#FFDE43"/>
<stop offset="1" stop-color="#FFA216"/>
</radialGradient>
</defs>
</svg>
