<svg width="483" height="560" viewBox="0 0 483 560" fill="none" xmlns="http://www.w3.org/2000/svg">
<path d="M241.18 482.36C374.38 482.36 482.36 374.38 482.36 241.18C482.36 107.98 374.38 0 241.18 0C107.98 0 0 107.98 0 241.18C0 374.38 107.98 482.36 241.18 482.36Z" fill="url(#paint0_radial_862_12531)"/>
<g style="mix-blend-mode:soft-light">
<path d="M241.18 482.36C374.38 482.36 482.36 374.38 482.36 241.18C482.36 107.98 374.38 0 241.18 0C107.98 0 0 107.98 0 241.18C0 374.38 107.98 482.36 241.18 482.36Z" fill="url(#paint1_radial_862_12531)"/>
</g>
<g style="mix-blend-mode:soft-light">
<path d="M241.18 482.36C374.38 482.36 482.36 374.38 482.36 241.18C482.36 107.98 374.38 0 241.18 0C107.98 0 0 107.98 0 241.18C0 374.38 107.98 482.36 241.18 482.36Z" fill="url(#paint2_radial_862_12531)"/>
</g>
<g style="mix-blend-mode:overlay">
<path d="M241.18 482.36C374.38 482.36 482.36 374.38 482.36 241.18C482.36 107.98 374.38 0 241.18 0C107.98 0 0 107.98 0 241.18C0 374.38 107.98 482.36 241.18 482.36Z" fill="url(#paint3_radial_862_12531)" fill-opacity="0.7"/>
</g>
<mask id="mask0_862_12531" style="mask-type:alpha" maskUnits="userSpaceOnUse" x="0" y="0" width="483" height="483">
<path d="M241.18 482.36C374.38 482.36 482.36 374.38 482.36 241.18C482.36 107.98 374.38 0 241.18 0C107.98 0 0 107.98 0 241.18C0 374.38 107.98 482.36 241.18 482.36Z" fill="white"/>
</mask>
<g mask="url(#mask0_862_12531)">
<g filter="url(#filter0_f_862_12531)">
<path d="M-1.3759 234.299C-1.11402 230.872 0.0137008 230.529 0.342619 234.008C0.708055 237.874 -0.00231624 245.646 0.16871 250.335C0.621554 262.748 2.52441 273.541 4.48605 282.32C10.8075 310.612 19.5617 328.843 27.7268 344.288C54.5663 395.06 83.9667 420.77 112.648 440.147C154.689 468.549 197.072 477.584 239.49 479.5C240.56 479.548 240.738 486.518 239.686 487.425C237.788 489.061 235.436 487.437 233.494 487.369C227.915 487.174 222.335 486.791 216.756 486.211C200.213 484.492 183.67 480.991 167.162 475.358C122.275 460.044 73.8765 433.821 31.6092 359.962C28.9502 355.316 26.3124 350.424 23.7118 345.167C21.6321 340.963 19.5726 336.556 17.5493 331.843C10.8946 316.342 -4.61323 276.658 -1.3759 234.299ZM239.52 487.5C238.499 487.531 238.241 481.034 239.214 479.685C240.684 477.647 242.888 479.326 244.439 479.229C250.877 478.826 257.314 478.229 263.75 477.421C281.395 475.205 299.028 471.422 316.621 465.596C360.257 451.145 407.17 429.115 448.305 361.431C450.923 357.123 453.518 352.553 456.079 347.641C463.86 332.712 483.361 293.084 481.107 243.821C480.917 239.668 482.181 237.181 482.747 240.743C483.467 245.279 483.175 254.736 482.977 259.768C482.341 275.883 479.866 289.512 477.257 300.518C468.987 335.399 457.376 355.623 446.744 372.51C412.184 427.397 374.648 449.524 338.155 465.424C305.424 479.686 272.444 486.484 239.52 487.5Z" fill="#401C02"/>
</g>
<g filter="url(#filter1_f_862_12531)">
<path d="M-1.3759 234.299C-1.11402 230.872 0.0137008 230.529 0.342619 234.008C0.708055 237.874 -0.00231624 245.646 0.16871 250.335C0.621554 262.748 2.52441 273.541 4.48605 282.32C10.8075 310.612 19.5617 328.843 27.7268 344.288C54.5663 395.06 83.9667 420.77 112.648 440.147C154.689 468.549 197.072 477.584 239.49 479.5C240.56 479.548 240.738 486.518 239.686 487.425C237.788 489.061 235.436 487.437 233.494 487.369C227.915 487.174 222.335 486.791 216.756 486.211C200.213 484.492 183.67 480.991 167.162 475.358C122.275 460.044 73.8765 433.821 31.6092 359.962C28.9502 355.316 26.3124 350.424 23.7118 345.167C21.6321 340.963 19.5726 336.556 17.5493 331.843C10.8946 316.342 -4.61323 276.658 -1.3759 234.299ZM239.52 487.5C238.499 487.531 238.241 481.034 239.214 479.685C240.684 477.647 242.888 479.326 244.439 479.229C250.877 478.826 257.314 478.229 263.75 477.421C281.395 475.205 299.028 471.422 316.621 465.596C360.257 451.145 407.17 429.115 448.305 361.431C450.923 357.123 453.518 352.553 456.079 347.641C463.86 332.712 483.361 293.084 481.107 243.821C480.917 239.668 482.181 237.181 482.747 240.743C483.467 245.279 483.175 254.736 482.977 259.768C482.341 275.883 479.866 289.512 477.257 300.518C468.987 335.399 457.376 355.623 446.744 372.51C412.184 427.397 374.648 449.524 338.155 465.424C305.424 479.686 272.444 486.484 239.52 487.5Z" fill="#401C02"/>
</g>
</g>
<path d="M276.717 80.71C278.857 90.22 293.717 147.05 343.637 150.64C345.188 150.784 346.741 150.397 348.043 149.541C349.344 148.685 350.315 147.411 350.797 145.93C351.327 144.07 351.077 141.93 348.747 139.88C338.677 131.05 310.647 127.93 290.797 88.71C289.114 85.2781 287.606 81.7636 286.277 78.18C285.277 75.62 283.357 72.01 280.367 72.32C277.807 72.58 276.867 74.73 276.537 76.59C276.326 77.9618 276.387 79.3617 276.717 80.71Z" fill="#42210B"/>
<path d="M387.137 182.32C387.76 183.233 388.094 184.314 388.094 185.42C388.094 186.526 387.76 187.606 387.137 188.52C372.957 209.52 346.667 221.24 319.487 216.2C292.307 211.16 271.997 190.79 266.297 166.1C266.045 165.021 266.124 163.892 266.524 162.859C266.924 161.827 267.625 160.938 268.537 160.31C269.71 159.516 271.144 159.206 272.539 159.445C273.935 159.683 275.185 160.452 276.027 161.59C286.357 175.1 303.637 185.68 324.437 189.59C345.237 193.5 365.177 189.78 379.657 180.86C380.856 180.1 382.301 179.831 383.693 180.111C385.085 180.39 386.315 181.196 387.127 182.36L387.137 182.32Z" fill="url(#paint4_radial_862_12531)"/>
<path d="M387.137 182.32C387.76 183.233 388.094 184.314 388.094 185.42C388.094 186.526 387.76 187.606 387.137 188.52C372.957 209.52 346.667 221.24 319.487 216.2C292.307 211.16 271.997 190.79 266.297 166.1C266.045 165.021 266.124 163.892 266.524 162.859C266.924 161.827 267.625 160.938 268.537 160.31V160.31C269.71 159.516 271.144 159.206 272.539 159.445C273.935 159.683 275.185 160.452 276.027 161.59C286.357 175.1 303.637 185.68 324.437 189.59C345.237 193.5 365.177 189.78 379.657 180.86C380.856 180.1 382.301 179.831 383.693 180.111C385.085 180.39 386.315 181.196 387.127 182.36L387.137 182.32Z" stroke="url(#paint5_linear_862_12531)" stroke-width="2" stroke-miterlimit="10"/>
<path d="M205.367 80.71C203.227 90.22 188.367 147.05 138.457 150.64C136.898 150.785 135.336 150.393 134.031 149.529C132.725 148.665 131.753 147.381 131.277 145.89C130.747 144.03 131.007 141.89 133.337 139.84C143.407 131.05 171.437 127.9 191.247 88.71C192.944 85.2806 194.462 81.7659 195.797 78.18C196.797 75.62 198.717 72.01 201.707 72.32C204.267 72.58 205.207 74.73 205.537 76.59C205.761 77.9606 205.703 79.3625 205.367 80.71Z" fill="#42210B"/>
<path d="M94.9569 182.32C94.3335 183.233 94 184.314 94 185.42C94 186.526 94.3335 187.606 94.9569 188.52C109.137 209.52 135.437 221.24 162.607 216.2C189.777 211.16 210.107 190.79 215.807 166.1C216.058 165.02 215.977 163.89 215.576 162.858C215.174 161.825 214.471 160.937 213.557 160.31C212.384 159.516 210.95 159.206 209.555 159.445C208.159 159.683 206.909 160.452 206.067 161.59C195.747 175.1 178.467 185.68 157.667 189.59C136.867 193.5 116.927 189.78 102.437 180.86C101.24 180.1 99.7956 179.832 98.4056 180.112C97.0156 180.391 95.7873 181.196 94.9769 182.36L94.9569 182.32Z" fill="url(#paint6_radial_862_12531)"/>
<path d="M94.9569 182.32C94.3335 183.233 94 184.314 94 185.42C94 186.526 94.3335 187.606 94.9569 188.52C109.137 209.52 135.437 221.24 162.607 216.2C189.777 211.16 210.107 190.79 215.807 166.1C216.058 165.02 215.977 163.89 215.576 162.858C215.174 161.825 214.471 160.937 213.557 160.31V160.31C212.384 159.516 210.95 159.206 209.555 159.445C208.159 159.683 206.909 160.452 206.067 161.59C195.747 175.1 178.467 185.68 157.667 189.59C136.867 193.5 116.927 189.78 102.437 180.86C101.24 180.1 99.7956 179.832 98.4056 180.112C97.0156 180.391 95.7873 181.196 94.9769 182.36L94.9569 182.32Z" stroke="url(#paint7_linear_862_12531)" stroke-width="2" stroke-miterlimit="10"/>
<path d="M238.696 391.07C269.801 391.07 295.016 365.855 295.016 334.75C295.016 303.645 269.801 278.43 238.696 278.43C207.592 278.43 182.376 303.645 182.376 334.75C182.376 365.855 207.592 391.07 238.696 391.07Z" fill="url(#paint8_radial_862_12531)"/>
<path d="M238.696 392.32C270.492 392.32 296.266 366.545 296.266 334.75C296.266 302.955 270.492 277.18 238.696 277.18C206.901 277.18 181.126 302.955 181.126 334.75C181.126 366.545 206.901 392.32 238.696 392.32Z" stroke="url(#paint9_linear_862_12531)" stroke-width="2.5" stroke-miterlimit="10"/>
<path d="M238.697 389.43C268.896 389.43 293.377 364.949 293.377 334.75C293.377 304.551 268.896 280.07 238.697 280.07C208.498 280.07 184.017 304.551 184.017 334.75C184.017 364.949 208.498 389.43 238.697 389.43Z" stroke="url(#paint10_linear_862_12531)" stroke-width="4" stroke-miterlimit="10"/>
<mask id="mask1_862_12531" style="mask-type:alpha" maskUnits="userSpaceOnUse" x="149" y="278" width="184" height="282">
<path fill-rule="evenodd" clip-rule="evenodd" d="M266.699 383.626C283.62 373.911 295.016 355.661 295.016 334.75C295.016 303.645 269.801 278.43 238.696 278.43C207.592 278.43 182.376 303.645 182.376 334.75C182.376 356.297 194.476 375.017 212.252 384.488L211.134 391.904C206.893 392.599 203.003 394.684 200.077 397.832C197.151 400.98 195.354 405.011 194.97 409.291C190.813 407.928 186.339 407.875 182.152 409.139C177.964 410.404 174.267 412.924 171.559 416.359C168.852 419.795 167.265 423.979 167.015 428.346C166.764 432.713 167.862 437.051 170.158 440.773C164.05 443.917 158.88 448.617 155.172 454.4C151.463 460.183 149.348 466.843 149.04 473.705C148.732 480.568 150.241 487.39 153.416 493.482C156.591 499.574 161.319 504.72 167.121 508.398C165.53 512.624 165.32 517.245 166.521 521.598C167.722 525.951 170.272 529.811 173.804 532.623C177.336 535.436 181.67 537.056 186.181 537.251C190.692 537.446 195.149 536.206 198.911 533.709C203.696 544.239 212.466 552.439 223.293 556.509C234.121 560.578 246.121 560.183 256.657 555.411C257.338 555.843 258.041 556.241 258.763 556.601C262.212 558.303 266.057 559.041 269.891 558.737C273.725 558.432 277.406 557.098 280.543 554.874C283.681 552.649 286.16 549.619 287.717 546.102C289.273 542.585 289.851 538.712 289.388 534.894L289.377 534.889C295.979 535.941 302.745 534.999 308.809 532.184C314.873 529.368 319.958 524.806 323.414 519.083C326.87 513.36 328.539 506.736 328.208 500.059C327.877 493.381 325.561 486.955 321.556 481.602C327.053 476.058 330.761 468.993 332.201 461.32C333.641 453.646 332.746 445.718 329.633 438.558C326.52 431.399 321.331 425.337 314.737 421.158C308.143 416.978 300.447 414.872 292.643 415.112C291.698 409.751 288.738 404.955 284.37 401.707C280.001 398.459 274.556 397.005 269.15 397.644L266.699 383.626Z" fill="#C4C4C4"/>
</mask>
<g mask="url(#mask1_862_12531)">
<mask id="mask2_862_12531" style="mask-type:alpha" maskUnits="userSpaceOnUse" x="149" y="216" width="184" height="344">
<path d="M289.388 534.894C289.851 538.712 289.273 542.585 287.717 546.102C286.16 549.619 283.681 552.649 280.544 554.873C277.406 557.098 273.725 558.432 269.891 558.736C266.057 559.041 262.212 558.303 258.763 556.601C258.041 556.24 257.338 555.843 256.657 555.411C246.121 560.183 234.121 560.578 223.293 556.509C212.466 552.439 203.696 544.239 198.911 533.708C195.149 536.206 190.692 537.446 186.181 537.251C181.67 537.056 177.337 535.435 173.804 532.623C170.272 529.811 167.722 525.951 166.521 521.598C165.32 517.245 165.53 512.624 167.121 508.398C161.319 504.72 156.591 499.574 153.416 493.482C150.241 487.39 148.732 480.568 149.04 473.705C149.348 466.842 151.463 460.183 155.172 454.4C158.88 448.617 164.05 443.916 170.158 440.773C167.862 437.051 166.764 432.712 167.015 428.346C167.265 423.979 168.852 419.794 171.559 416.359C174.267 412.924 177.964 410.403 182.152 409.139C186.339 407.875 190.814 407.928 194.97 409.291C195.354 405.011 197.151 400.979 200.077 397.832C203.003 394.684 206.893 392.599 211.134 391.904L237.523 216.805L269.15 397.643C274.556 397.005 280.002 398.459 284.37 401.707C288.738 404.955 291.698 409.751 292.643 415.112C300.447 414.872 308.143 416.978 314.737 421.158C321.331 425.337 326.52 431.399 329.633 438.558C332.747 445.718 333.641 453.646 332.201 461.32C330.761 468.993 327.053 476.058 321.556 481.602C325.561 486.955 327.877 493.381 328.208 500.059C328.539 506.736 326.87 513.36 323.414 519.083C319.958 524.806 314.873 529.368 308.809 532.183C302.746 534.999 295.98 535.941 289.377 534.889L289.388 534.894Z" fill="url(#paint11_linear_862_12531)"/>
</mask>
<g mask="url(#mask2_862_12531)">
<mask id="mask3_862_12531" style="mask-type:alpha" maskUnits="userSpaceOnUse" x="149" y="216" width="184" height="344">
<path d="M289.388 534.894C289.851 538.712 289.273 542.585 287.717 546.102C286.16 549.619 283.681 552.649 280.544 554.873C277.406 557.098 273.725 558.432 269.891 558.736C266.057 559.041 262.212 558.303 258.763 556.601C258.041 556.24 257.338 555.843 256.657 555.411C246.121 560.183 234.121 560.578 223.293 556.509C212.466 552.439 203.696 544.239 198.911 533.708C195.149 536.206 190.692 537.446 186.181 537.251C181.67 537.056 177.337 535.435 173.804 532.623C170.272 529.811 167.722 525.951 166.521 521.598C165.32 517.245 165.53 512.624 167.121 508.398C161.319 504.72 156.591 499.574 153.416 493.482C150.241 487.39 148.732 480.568 149.04 473.705C149.348 466.842 151.463 460.183 155.172 454.4C158.88 448.617 164.05 443.916 170.158 440.773C167.862 437.051 166.764 432.712 167.015 428.346C167.265 423.979 168.852 419.794 171.559 416.359C174.267 412.924 177.964 410.403 182.152 409.139C186.339 407.875 190.814 407.928 194.97 409.291C195.354 405.011 197.151 400.979 200.077 397.832C203.003 394.684 206.893 392.599 211.134 391.904L237.523 216.805L269.15 397.643C274.556 397.005 280.002 398.459 284.37 401.707C288.738 404.955 291.698 409.751 292.643 415.112C300.447 414.872 308.143 416.978 314.737 421.158C321.331 425.337 326.52 431.399 329.633 438.558C332.747 445.718 333.641 453.646 332.201 461.32C330.761 468.993 327.053 476.058 321.556 481.602C325.561 486.955 327.877 493.381 328.208 500.059C328.539 506.736 326.87 513.36 323.414 519.083C319.958 524.806 314.873 529.368 308.809 532.183C302.746 534.999 295.98 535.941 289.377 534.889L289.388 534.894Z" fill="url(#paint12_radial_862_12531)"/>
</mask>
<g mask="url(#mask3_862_12531)">
<path d="M289.388 534.893C289.851 538.712 289.274 542.584 287.717 546.101C286.16 549.618 283.682 552.649 280.544 554.873C277.406 557.097 273.726 558.432 269.892 558.736C266.057 559.04 262.212 558.302 258.763 556.601C258.042 556.24 257.339 555.842 256.658 555.41C246.121 560.182 234.121 560.577 223.294 556.508C212.466 552.439 203.697 544.238 198.911 533.708C195.149 536.205 190.692 537.445 186.181 537.25C181.67 537.055 177.337 535.435 173.805 532.622C170.272 529.81 167.722 525.95 166.521 521.597C165.321 517.244 165.531 512.623 167.121 508.397C161.319 504.719 156.592 499.573 153.417 493.482C150.242 487.39 148.732 480.567 149.04 473.704C149.349 466.842 151.464 460.182 155.172 454.399C158.881 448.616 164.051 443.916 170.159 440.772C167.862 437.05 166.765 432.712 167.015 428.345C167.266 423.978 168.852 419.794 171.56 416.358C174.267 412.923 177.965 410.403 182.152 409.138C186.339 407.874 190.814 407.927 194.97 409.29C195.355 405.01 197.151 400.979 200.077 397.831C203.004 394.683 206.893 392.598 211.135 391.903L237.524 216.804L269.151 397.643C274.557 397.004 280.002 398.458 284.37 401.706C288.739 404.954 291.699 409.751 292.644 415.111C300.447 414.871 308.143 416.977 314.737 421.157C321.331 425.337 326.52 431.398 329.634 438.557C332.747 445.717 333.642 453.646 332.202 461.319C330.762 468.992 327.054 476.057 321.557 481.601C325.562 486.954 327.878 493.381 328.209 500.058C328.54 506.735 326.871 513.359 323.415 519.082C319.959 524.805 314.873 529.367 308.81 532.183C302.746 534.998 295.98 535.941 289.378 534.888L289.388 534.893Z" fill="url(#paint13_radial_862_12531)"/>
<mask id="mask4_862_12531" style="mask-type:alpha" maskUnits="userSpaceOnUse" x="195" y="472" width="88" height="88">
<path d="M219.766 555.21C241.408 565.858 267.584 556.945 278.232 535.303C288.88 513.661 279.967 487.484 258.325 476.837C236.683 466.189 210.507 475.102 199.859 496.744C189.211 518.386 198.124 544.562 219.766 555.21Z" fill="white"/>
</mask>
<g mask="url(#mask4_862_12531)">
<g filter="url(#filter2_f_862_12531)">
<path d="M277.815 534.582C267.167 556.224 240.991 565.136 219.349 554.489C197.707 543.841 188.794 517.665 199.442 496.022" stroke="#00ACFE" stroke-width="3" stroke-miterlimit="10"/>
</g>
</g>
<mask id="mask5_862_12531" style="mask-type:alpha" maskUnits="userSpaceOnUse" x="254" y="414" width="79" height="79">
<path d="M276.642 488.811C295.994 498.332 319.4 490.363 328.921 471.011C338.442 451.659 330.472 428.252 311.12 418.731C291.768 409.21 268.362 417.18 258.841 436.532C249.32 455.884 257.29 479.29 276.642 488.811Z" fill="#B2D8EB"/>
</mask>
<g mask="url(#mask5_862_12531)">
<g filter="url(#filter3_f_862_12531)">
<path d="M328.921 471.01C338.442 451.658 330.472 428.252 311.12 418.731" stroke="#00ACFE" stroke-width="5" stroke-miterlimit="10"/>
</g>
</g>
<mask id="mask6_862_12531" style="mask-type:alpha" maskUnits="userSpaceOnUse" x="148" y="436" width="79" height="79">
<path d="M170.7 510.21C190.052 519.731 213.458 511.762 222.979 492.41C232.5 473.058 224.53 449.652 205.178 440.131C185.827 430.61 162.42 438.579 152.899 457.931C143.378 477.283 151.348 500.689 170.7 510.21Z" fill="white"/>
</mask>
<g mask="url(#mask6_862_12531)">
<g filter="url(#filter4_f_862_12531)">
<path d="M222.979 492.41C213.458 511.762 190.052 519.731 170.7 510.21C151.348 500.689 143.378 477.283 152.899 457.931" stroke="#00ACFE" stroke-width="4" stroke-miterlimit="10"/>
</g>
</g>
<mask id="mask7_862_12531" style="mask-type:alpha" maskUnits="userSpaceOnUse" x="194" y="391" width="40" height="40">
<path d="M205.721 428.293C215.397 433.054 227.101 429.069 231.861 419.393C236.622 409.717 232.637 398.014 222.961 393.253C213.285 388.493 201.582 392.478 196.821 402.154C192.061 411.83 196.045 423.533 205.721 428.293Z" fill="white"/>
</mask>
<g mask="url(#mask7_862_12531)">
<g filter="url(#filter5_f_862_12531)">
<path d="M196.821 402.154C201.582 392.478 213.285 388.493 222.961 393.253" stroke="#00ACFE" stroke-width="1.34" stroke-miterlimit="10"/>
</g>
</g>
<mask id="mask8_862_12531" style="mask-type:alpha" maskUnits="userSpaceOnUse" x="261" y="467" width="68" height="69">
<path d="M279.809 531.573C296.47 539.77 316.622 532.908 324.819 516.247C333.016 499.586 326.155 479.435 309.494 471.238C292.833 463.041 272.681 469.902 264.484 486.563C256.287 503.224 263.148 523.375 279.809 531.573Z" fill="white"/>
</mask>
<g mask="url(#mask8_862_12531)">
<g filter="url(#filter6_f_862_12531)">
<path d="M279.81 531.573C296.471 539.77 316.622 532.909 324.819 516.248C333.017 499.587 326.155 479.435 309.494 471.238" stroke="#00ACFE" stroke-width="5" stroke-miterlimit="10"/>
</g>
</g>
<mask id="mask9_862_12531" style="mask-type:alpha" maskUnits="userSpaceOnUse" x="246" y="516" width="43" height="43">
<path d="M258.113 556.565C268.705 561.776 281.516 557.414 286.728 546.822C291.939 536.23 287.577 523.419 276.985 518.208C266.393 512.997 253.582 517.359 248.37 527.951C243.159 538.543 247.521 551.354 258.113 556.565Z" fill="white"/>
</mask>
<g mask="url(#mask9_862_12531)">
<g filter="url(#filter7_f_862_12531)">
<path d="M263.867 552.304C272.981 556.788 284.004 553.035 288.488 543.92C292.972 534.806 289.219 523.783 280.105 519.299" stroke="#00ACFE" stroke-width="4" stroke-miterlimit="10"/>
</g>
</g>
<mask id="mask10_862_12531" style="mask-type:alpha" maskUnits="userSpaceOnUse" x="166" y="407" width="44" height="44">
<path d="M178.828 448.412C189.42 453.623 202.231 449.261 207.442 438.669C212.653 428.077 208.291 415.266 197.699 410.054C187.107 404.843 174.296 409.205 169.085 419.797C163.874 430.389 168.236 443.2 178.828 448.412Z" fill="white"/>
</mask>
<g mask="url(#mask10_862_12531)">
<g filter="url(#filter8_f_862_12531)">
<path d="M178.828 448.412C168.236 443.2 163.874 430.389 169.085 419.797C174.296 409.205 187.107 404.843 197.699 410.054" stroke="#00ACFE" stroke-width="1.4678" stroke-miterlimit="10"/>
</g>
</g>
<mask id="mask11_862_12531" style="mask-type:alpha" maskUnits="userSpaceOnUse" x="165" y="494" width="44" height="43">
<path d="M177.678 534.76C188.27 539.972 201.081 535.61 206.292 525.018C211.503 514.426 207.141 501.615 196.549 496.403C185.957 491.192 173.146 495.554 167.935 506.146C162.724 516.738 167.086 529.549 177.678 534.76Z" fill="white"/>
</mask>
<g mask="url(#mask11_862_12531)">
<g filter="url(#filter9_f_862_12531)">
<path d="M206.292 525.018C201.081 535.61 188.27 539.972 177.678 534.761C167.086 529.549 162.724 516.738 167.935 506.146" stroke="#00ACFE" stroke-width="3" stroke-miterlimit="10"/>
</g>
</g>
<mask id="mask12_862_12531" style="mask-type:alpha" maskUnits="userSpaceOnUse" x="250" y="397" width="43" height="43">
<path d="M262.155 437.645C272.747 442.856 285.558 438.494 290.769 427.902C295.98 417.31 291.618 404.499 281.026 399.288C270.434 394.077 257.623 398.439 252.412 409.031C247.201 419.623 251.563 432.434 262.155 437.645Z" fill="white"/>
</mask>
<g mask="url(#mask12_862_12531)">
<g filter="url(#filter10_f_862_12531)">
<path d="M290.769 427.902C295.98 417.31 291.618 404.499 281.026 399.288" stroke="#00ACFE" stroke-width="1.4678" stroke-miterlimit="10"/>
</g>
</g>
<mask id="mask13_862_12531" style="mask-type:alpha" maskUnits="userSpaceOnUse" x="209" y="216" width="61" height="184">
<path d="M237.43 216.501L209.825 399.539L269.186 398.228L237.43 216.501Z" fill="white"/>
</mask>
<g mask="url(#mask13_862_12531)">
<g filter="url(#filter11_f_862_12531)">
<path d="M209.825 399.539L237.43 216.501L269.186 398.228" stroke="#006DFF" stroke-width="4" stroke-miterlimit="10"/>
</g>
</g>
<g filter="url(#filter12_f_862_12531)">
<ellipse rx="50.8357" ry="44.4812" transform="matrix(-0.897282 -0.441457 -0.441457 0.897282 226.927 487.786)" fill="white"/>
</g>
</g>
</g>
</g>
<defs>
<filter id="filter0_f_862_12531" x="-26.8149" y="206.558" width="535.022" height="306.595" filterUnits="userSpaceOnUse" color-interpolation-filters="sRGB">
<feFlood flood-opacity="0" result="BackgroundImageFix"/>
<feBlend mode="normal" in="SourceGraphic" in2="BackgroundImageFix" result="shape"/>
<feGaussianBlur stdDeviation="12.5" result="effect1_foregroundBlur_862_12531"/>
</filter>
<filter id="filter1_f_862_12531" x="-41.8149" y="191.558" width="565.022" height="336.595" filterUnits="userSpaceOnUse" color-interpolation-filters="sRGB">
<feFlood flood-opacity="0" result="BackgroundImageFix"/>
<feBlend mode="normal" in="SourceGraphic" in2="BackgroundImageFix" result="shape"/>
<feGaussianBlur stdDeviation="20" result="effect1_foregroundBlur_862_12531"/>
</filter>
<filter id="filter2_f_862_12531" x="173.446" y="475.36" width="125.715" height="105.124" filterUnits="userSpaceOnUse" color-interpolation-filters="sRGB">
<feFlood flood-opacity="0" result="BackgroundImageFix"/>
<feBlend mode="normal" in="SourceGraphic" in2="BackgroundImageFix" result="shape"/>
<feGaussianBlur stdDeviation="10" result="effect1_foregroundBlur_862_12531"/>
</filter>
<filter id="filter3_f_862_12531" x="295.017" y="401.488" width="55.4243" height="85.626" filterUnits="userSpaceOnUse" color-interpolation-filters="sRGB">
<feFlood flood-opacity="0" result="BackgroundImageFix"/>
<feBlend mode="normal" in="SourceGraphic" in2="BackgroundImageFix" result="shape"/>
<feGaussianBlur stdDeviation="7.5" result="effect1_foregroundBlur_862_12531"/>
</filter>
<filter id="filter4_f_862_12531" x="126.879" y="437.048" width="117.895" height="99.1824" filterUnits="userSpaceOnUse" color-interpolation-filters="sRGB">
<feFlood flood-opacity="0" result="BackgroundImageFix"/>
<feBlend mode="normal" in="SourceGraphic" in2="BackgroundImageFix" result="shape"/>
<feGaussianBlur stdDeviation="10" result="effect1_foregroundBlur_862_12531"/>
</filter>
<filter id="filter5_f_862_12531" x="176.22" y="370.573" width="67.0366" height="51.8762" filterUnits="userSpaceOnUse" color-interpolation-filters="sRGB">
<feFlood flood-opacity="0" result="BackgroundImageFix"/>
<feBlend mode="normal" in="SourceGraphic" in2="BackgroundImageFix" result="shape"/>
<feGaussianBlur stdDeviation="10" result="effect1_foregroundBlur_862_12531"/>
</filter>
<filter id="filter6_f_862_12531" x="258.706" y="448.995" width="92.0747" height="108.54" filterUnits="userSpaceOnUse" color-interpolation-filters="sRGB">
<feFlood flood-opacity="0" result="BackgroundImageFix"/>
<feBlend mode="normal" in="SourceGraphic" in2="BackgroundImageFix" result="shape"/>
<feGaussianBlur stdDeviation="10" result="effect1_foregroundBlur_862_12531"/>
</filter>
<filter id="filter7_f_862_12531" x="242.984" y="497.504" width="69.3979" height="78.6934" filterUnits="userSpaceOnUse" color-interpolation-filters="sRGB">
<feFlood flood-opacity="0" result="BackgroundImageFix"/>
<feBlend mode="normal" in="SourceGraphic" in2="BackgroundImageFix" result="shape"/>
<feGaussianBlur stdDeviation="10" result="effect1_foregroundBlur_862_12531"/>
</filter>
<filter id="filter8_f_862_12531" x="151.15" y="392.12" width="61.8726" height="71.95" filterUnits="userSpaceOnUse" color-interpolation-filters="sRGB">
<feFlood flood-opacity="0" result="BackgroundImageFix"/>
<feBlend mode="normal" in="SourceGraphic" in2="BackgroundImageFix" result="shape"/>
<feGaussianBlur stdDeviation="7.5" result="effect1_foregroundBlur_862_12531"/>
</filter>
<filter id="filter9_f_862_12531" x="144.234" y="485.484" width="83.4038" height="72.9771" filterUnits="userSpaceOnUse" color-interpolation-filters="sRGB">
<feFlood flood-opacity="0" result="BackgroundImageFix"/>
<feBlend mode="normal" in="SourceGraphic" in2="BackgroundImageFix" result="shape"/>
<feGaussianBlur stdDeviation="10" result="effect1_foregroundBlur_862_12531"/>
</filter>
<filter id="filter10_f_862_12531" x="268.702" y="386.63" width="37.0015" height="53.5967" filterUnits="userSpaceOnUse" color-interpolation-filters="sRGB">
<feFlood flood-opacity="0" result="BackgroundImageFix"/>
<feBlend mode="normal" in="SourceGraphic" in2="BackgroundImageFix" result="shape"/>
<feGaussianBlur stdDeviation="6" result="effect1_foregroundBlur_862_12531"/>
</filter>
<filter id="filter11_f_862_12531" x="187.848" y="184.052" width="103.309" height="235.786" filterUnits="userSpaceOnUse" color-interpolation-filters="sRGB">
<feFlood flood-opacity="0" result="BackgroundImageFix"/>
<feBlend mode="normal" in="SourceGraphic" in2="BackgroundImageFix" result="shape"/>
<feGaussianBlur stdDeviation="10" result="effect1_foregroundBlur_862_12531"/>
</filter>
<filter id="filter12_f_862_12531" x="137.253" y="401.989" width="179.348" height="171.594" filterUnits="userSpaceOnUse" color-interpolation-filters="sRGB">
<feFlood flood-opacity="0" result="BackgroundImageFix"/>
<feBlend mode="normal" in="SourceGraphic" in2="BackgroundImageFix" result="shape"/>
<feGaussianBlur stdDeviation="20" result="effect1_foregroundBlur_862_12531"/>
</filter>
<radialGradient id="paint0_radial_862_12531" cx="0" cy="0" r="1" gradientUnits="userSpaceOnUse" gradientTransform="translate(241 -4.53898e-06) rotate(90) scale(482)">
<stop stop-color="#FFDE43"/>
<stop offset="1" stop-color="#FFBC00"/>
</radialGradient>
<radialGradient id="paint1_radial_862_12531" cx="0" cy="0" r="1" gradientUnits="userSpaceOnUse" gradientTransform="translate(241 64.5) rotate(90) scale(417.5)">
<stop stop-color="white" stop-opacity="0.5"/>
<stop offset="0.782278"/>
</radialGradient>
<radialGradient id="paint2_radial_862_12531" cx="0" cy="0" r="1" gradientUnits="userSpaceOnUse" gradientTransform="translate(241 64.5) rotate(90) scale(417.5)">
<stop stop-color="white" stop-opacity="0.5"/>
<stop offset="0.782278"/>
</radialGradient>
<radialGradient id="paint3_radial_862_12531" cx="0" cy="0" r="1" gradientUnits="userSpaceOnUse" gradientTransform="translate(241 -52.5) rotate(90) scale(534.5 722.835)">
<stop offset="0.0922635" stop-color="white"/>
<stop offset="0.670207" stop-color="white" stop-opacity="0"/>
</radialGradient>
<radialGradient id="paint4_radial_862_12531" cx="0" cy="0" r="1" gradientUnits="userSpaceOnUse" gradientTransform="translate(327.039 188.345) scale(77.7226 29.0489)">
<stop stop-color="#743C1C"/>
<stop offset="1" stop-color="#401C02"/>
</radialGradient>
<linearGradient id="paint5_linear_862_12531" x1="327.123" y1="218.995" x2="327.123" y2="157.5" gradientUnits="userSpaceOnUse">
<stop stop-color="#FFDE43"/>
<stop offset="0.22" stop-color="#FED93F"/>
<stop offset="0.51" stop-color="#FCC934"/>
<stop offset="0.82" stop-color="#F9AF21"/>
<stop offset="1" stop-color="#F79D14"/>
</linearGradient>
<radialGradient id="paint6_radial_862_12531" cx="0" cy="0" r="1" gradientUnits="userSpaceOnUse" gradientTransform="translate(154.89 188.345) scale(77.7281 29.0489)">
<stop stop-color="#743C1C"/>
<stop offset="1" stop-color="#401C02"/>
</radialGradient>
<linearGradient id="paint7_linear_862_12531" x1="154.975" y1="218.995" x2="154.975" y2="157.5" gradientUnits="userSpaceOnUse">
<stop stop-color="#FFDE43"/>
<stop offset="0.22" stop-color="#FED93F"/>
<stop offset="0.51" stop-color="#FCC934"/>
<stop offset="0.82" stop-color="#F9AF21"/>
<stop offset="1" stop-color="#F79D14"/>
</linearGradient>
<radialGradient id="paint8_radial_862_12531" cx="0" cy="0" r="1" gradientUnits="userSpaceOnUse" gradientTransform="translate(238.619 334.712) scale(71.7943 56.4177)">
<stop stop-color="#743C1C"/>
<stop offset="1" stop-color="#401C02"/>
</radialGradient>
<linearGradient id="paint9_linear_862_12531" x1="238.696" y1="394.239" x2="238.696" y2="274.805" gradientUnits="userSpaceOnUse">
<stop offset="0.265625" stop-color="#FFDE43"/>
<stop offset="1" stop-color="#F79D14"/>
</linearGradient>
<linearGradient id="paint10_linear_862_12531" x1="238.697" y1="391.42" x2="238.697" y2="278.07" gradientUnits="userSpaceOnUse">
<stop stop-color="#401C02"/>
<stop offset="1" stop-color="#401C02"/>
</linearGradient>
<linearGradient id="paint11_linear_862_12531" x1="236.987" y1="296.5" x2="236.987" y2="545.5" gradientUnits="userSpaceOnUse">
<stop offset="0.0579897" stop-color="white" stop-opacity="0"/>
<stop offset="0.468906" stop-color="#6E6E6E" stop-opacity="0.92"/>
<stop offset="0.780995"/>
</linearGradient>
<radialGradient id="paint12_radial_862_12531" cx="0" cy="0" r="1" gradientUnits="userSpaceOnUse" gradientTransform="translate(250.068 430.283) rotate(116.279) scale(125.988 419.059)">
<stop stop-color="white"/>
<stop offset="1" stop-color="#9BBAE8"/>
</radialGradient>
<radialGradient id="paint13_radial_862_12531" cx="0" cy="0" r="1" gradientUnits="userSpaceOnUse" gradientTransform="translate(250.069 430.282) rotate(116.279) scale(125.988 419.059)">
<stop stop-color="white"/>
<stop offset="1" stop-color="#9BBAE8"/>
</radialGradient>
</defs>
</svg>
