<svg width="483" height="543" viewBox="0 0 483 543" fill="none" xmlns="http://www.w3.org/2000/svg">
<path d="M241.18 482.36C374.38 482.36 482.36 374.38 482.36 241.18C482.36 107.98 374.38 0 241.18 0C107.98 0 0 107.98 0 241.18C0 374.38 107.98 482.36 241.18 482.36Z" fill="url(#paint0_radial_862_12459)"/>
<g style="mix-blend-mode:soft-light">
<path d="M241.18 482.36C374.38 482.36 482.36 374.38 482.36 241.18C482.36 107.98 374.38 0 241.18 0C107.98 0 0 107.98 0 241.18C0 374.38 107.98 482.36 241.18 482.36Z" fill="url(#paint1_radial_862_12459)"/>
</g>
<g style="mix-blend-mode:soft-light">
<path d="M241.18 482.36C374.38 482.36 482.36 374.38 482.36 241.18C482.36 107.98 374.38 0 241.18 0C107.98 0 0 107.98 0 241.18C0 374.38 107.98 482.36 241.18 482.36Z" fill="url(#paint2_radial_862_12459)"/>
</g>
<g style="mix-blend-mode:overlay">
<path d="M241.18 482.36C374.38 482.36 482.36 374.38 482.36 241.18C482.36 107.98 374.38 0 241.18 0C107.98 0 0 107.98 0 241.18C0 374.38 107.98 482.36 241.18 482.36Z" fill="url(#paint3_radial_862_12459)" fill-opacity="0.7"/>
</g>
<mask id="mask0_862_12459" style="mask-type:alpha" maskUnits="userSpaceOnUse" x="0" y="0" width="483" height="483">
<path d="M241.18 482.36C374.38 482.36 482.36 374.38 482.36 241.18C482.36 107.98 374.38 0 241.18 0C107.98 0 0 107.98 0 241.18C0 374.38 107.98 482.36 241.18 482.36Z" fill="white"/>
</mask>
<g mask="url(#mask0_862_12459)">
<g filter="url(#filter0_f_862_12459)">
<path d="M-1.37541 234.299C-1.11353 230.872 0.0141891 230.529 0.343108 234.008C0.708543 237.874 -0.00182796 245.646 0.169198 250.335C0.622042 262.748 2.5249 273.541 4.48654 282.32C10.808 310.612 19.5622 328.843 27.7273 344.288C54.5668 395.06 83.9672 420.77 112.648 440.147C154.69 468.549 197.073 477.584 239.491 479.5C240.561 479.548 240.739 486.518 239.686 487.425C237.788 489.061 235.437 487.437 233.495 487.369C227.915 487.174 222.336 486.791 216.756 486.211C200.213 484.492 183.671 480.991 167.162 475.358C122.275 460.044 73.877 433.821 31.6097 359.962C28.9507 355.316 26.3128 350.424 23.7123 345.167C21.6325 340.963 19.573 336.556 17.5498 331.843C10.895 316.342 -4.61274 276.658 -1.37541 234.299ZM239.52 487.5C238.5 487.531 238.241 481.034 239.214 479.685C240.685 477.647 242.889 479.326 244.439 479.229C250.878 478.826 257.315 478.229 263.75 477.421C281.396 475.205 299.028 471.422 316.621 465.596C360.257 451.145 407.17 429.115 448.305 361.431C450.923 357.123 453.519 352.553 456.079 347.641C463.86 332.712 483.362 293.084 481.107 243.821C480.917 239.668 482.182 237.181 482.748 240.743C483.468 245.279 483.176 254.736 482.977 259.768C482.342 275.883 479.867 289.512 477.257 300.518C468.987 335.399 457.377 355.623 446.744 372.51C412.184 427.397 374.649 449.524 338.156 465.424C305.425 479.686 272.445 486.484 239.52 487.5Z" fill="#401C02"/>
</g>
<g filter="url(#filter1_f_862_12459)">
<path d="M-1.37541 234.299C-1.11353 230.872 0.0141891 230.529 0.343108 234.008C0.708543 237.874 -0.00182796 245.646 0.169198 250.335C0.622042 262.748 2.5249 273.541 4.48654 282.32C10.808 310.612 19.5622 328.843 27.7273 344.288C54.5668 395.06 83.9672 420.77 112.648 440.147C154.69 468.549 197.073 477.584 239.491 479.5C240.561 479.548 240.739 486.518 239.686 487.425C237.788 489.061 235.437 487.437 233.495 487.369C227.915 487.174 222.336 486.791 216.756 486.211C200.213 484.492 183.671 480.991 167.162 475.358C122.275 460.044 73.877 433.821 31.6097 359.962C28.9507 355.316 26.3128 350.424 23.7123 345.167C21.6325 340.963 19.573 336.556 17.5498 331.843C10.895 316.342 -4.61274 276.658 -1.37541 234.299ZM239.52 487.5C238.5 487.531 238.241 481.034 239.214 479.685C240.685 477.647 242.889 479.326 244.439 479.229C250.878 478.826 257.315 478.229 263.75 477.421C281.396 475.205 299.028 471.422 316.621 465.596C360.257 451.145 407.17 429.115 448.305 361.431C450.923 357.123 453.519 352.553 456.079 347.641C463.86 332.712 483.362 293.084 481.107 243.821C480.917 239.668 482.182 237.181 482.748 240.743C483.468 245.279 483.176 254.736 482.977 259.768C482.342 275.883 479.867 289.512 477.257 300.518C468.987 335.399 457.377 355.623 446.744 372.51C412.184 427.397 374.649 449.524 338.156 465.424C305.425 479.686 272.445 486.484 239.52 487.5Z" fill="#401C02"/>
</g>
</g>
<path d="M354.399 82.39C344.719 83.46 286.589 91.88 277.459 141.11C277.144 142.642 277.361 144.236 278.074 145.628C278.786 147.021 279.952 148.129 281.379 148.77C283.179 149.5 285.379 149.49 287.629 147.4C297.489 138.4 303.739 110.86 344.889 95.53C348.469 94.2 352.159 93.18 355.889 92.21C358.549 91.52 362.349 90 362.379 86.99C362.379 84.42 360.379 83.24 358.559 82.71C357.208 82.3234 355.793 82.2145 354.399 82.39Z" fill="#42210B"/>
<path d="M389.058 166.28C389.904 166.998 390.512 167.957 390.801 169.028C391.09 170.099 391.048 171.233 390.678 172.28C382.428 196.28 360.068 214.38 332.508 216.55C304.948 218.72 280.058 204.29 268.158 181.93C267.635 180.954 267.417 179.844 267.535 178.743C267.653 177.642 268.1 176.602 268.818 175.76C269.747 174.691 271.053 174.022 272.463 173.891C273.873 173.761 275.279 174.18 276.388 175.06C289.858 185.44 309.288 191.18 330.388 189.52C351.488 187.86 369.778 179.15 381.458 166.78C382.418 165.735 383.744 165.102 385.16 165.01C386.576 164.919 387.972 165.377 389.058 166.29V166.28Z" fill="url(#paint4_radial_862_12459)"/>
<path d="M389.058 166.28C389.904 166.998 390.512 167.957 390.801 169.028C391.09 170.099 391.048 171.233 390.678 172.28C382.428 196.28 360.068 214.38 332.508 216.55C304.948 218.72 280.058 204.29 268.158 181.93C267.635 180.954 267.417 179.844 267.535 178.743C267.653 177.642 268.1 176.602 268.818 175.76V175.76C269.747 174.691 271.053 174.022 272.463 173.891C273.873 173.761 275.279 174.18 276.388 175.06C289.858 185.44 309.288 191.18 330.388 189.52C351.488 187.86 369.778 179.15 381.458 166.78C382.418 165.735 383.744 165.102 385.16 165.01C386.576 164.919 387.972 165.377 389.058 166.29V166.28Z" stroke="url(#paint5_linear_862_12459)" stroke-width="2" stroke-miterlimit="10"/>
<path d="M128.589 82.3896C138.269 83.4596 196.409 91.8796 205.529 141.11C205.845 142.642 205.63 144.236 204.917 145.629C204.204 147.022 203.037 148.13 201.609 148.77C199.819 149.5 197.609 149.49 195.359 147.4C185.509 138.4 179.259 110.86 138.109 95.5296C134.529 94.1996 130.839 93.1796 127.109 92.2096C124.449 91.5196 120.649 89.9996 120.629 86.9896C120.629 84.4196 122.629 83.2396 124.439 82.7096C125.787 82.3251 127.198 82.2163 128.589 82.3896Z" fill="#42210B"/>
<path d="M93.9288 166.279C93.0853 167 92.4792 167.958 92.1901 169.029C91.901 170.099 91.9424 171.233 92.3088 172.279C100.569 196.279 122.929 214.379 150.479 216.549C178.029 218.719 202.939 204.309 214.839 181.929C215.361 180.953 215.577 179.842 215.457 178.741C215.338 177.64 214.889 176.601 214.169 175.759C213.24 174.691 211.934 174.021 210.524 173.891C209.114 173.761 207.708 174.179 206.599 175.059C193.129 185.439 173.699 191.179 152.599 189.519C131.499 187.859 113.249 179.129 101.529 166.759C100.57 165.716 99.2462 165.082 97.8322 164.991C96.4182 164.9 95.0235 165.358 93.9388 166.269L93.9288 166.279Z" fill="url(#paint6_radial_862_12459)"/>
<path d="M93.9288 166.279C93.0853 167 92.4792 167.958 92.1901 169.029C91.901 170.099 91.9424 171.233 92.3088 172.279C100.569 196.279 122.929 214.379 150.479 216.549C178.029 218.719 202.939 204.309 214.839 181.929C215.361 180.953 215.577 179.842 215.457 178.741C215.338 177.64 214.889 176.601 214.169 175.759V175.759C213.24 174.691 211.934 174.021 210.524 173.891C209.114 173.761 207.708 174.179 206.599 175.059C193.129 185.439 173.699 191.179 152.599 189.519C131.499 187.859 113.249 179.129 101.529 166.759C100.57 165.716 99.2462 165.082 97.8322 164.991C96.4182 164.9 95.0235 165.358 93.9388 166.269L93.9288 166.279Z" stroke="url(#paint7_linear_862_12459)" stroke-width="2" stroke-miterlimit="10"/>
<path d="M129.543 347.182L129.545 347.182C157.648 332.147 197.087 322.719 240.875 322.719C284.664 322.719 324.162 332.148 352.234 347.221C354.031 348.186 356.133 348.084 357.67 347.362C358.445 346.998 359.161 346.437 359.604 345.673C360.066 344.873 360.187 343.915 359.827 342.945L359.827 342.944C353.15 324.98 337.662 309.458 316.783 298.443C295.892 287.42 269.519 280.859 240.895 280.859C212.271 280.859 185.915 287.415 165.033 298.429C144.163 309.436 128.677 324.944 121.965 342.891C121.602 343.859 121.716 344.817 122.175 345.618C122.613 346.385 123.327 346.949 124.1 347.316C125.637 348.042 127.738 348.145 129.543 347.182Z" stroke="url(#paint8_linear_862_12459)" stroke-width="2.5" stroke-miterlimit="10"/>
<path d="M128.955 346.079C126.105 347.599 122.225 345.759 123.135 343.329C136.285 308.169 184.015 282.109 240.895 282.109C297.775 282.109 345.575 308.189 358.655 343.379C359.555 345.809 355.655 347.639 352.825 346.119C324.535 330.929 284.825 321.469 240.875 321.469C196.925 321.469 157.275 330.929 128.955 346.079Z" fill="url(#paint9_radial_862_12459)"/>
<mask id="mask1_862_12459" style="mask-type:alpha" maskUnits="userSpaceOnUse" x="0" y="0" width="483" height="483">
<path d="M241.18 482.36C374.38 482.36 482.36 374.38 482.36 241.18C482.36 107.98 374.38 0 241.18 0C107.98 0 0 107.98 0 241.18C0 374.38 107.98 482.36 241.18 482.36Z" fill="url(#paint10_radial_862_12459)"/>
</mask>
<g mask="url(#mask1_862_12459)">
<g filter="url(#filter2_f_862_12459)">
<path d="M62.2289 496.692C60.2638 499.707 59.1496 503.197 59.004 506.794C58.8584 510.391 59.6869 513.96 61.4019 517.124C63.1168 520.288 65.6545 522.93 68.7465 524.769C71.8384 526.609 75.3697 527.578 78.9669 527.574C79.7214 527.569 80.4751 527.526 81.2253 527.444C88.0972 535.805 98.0045 541.094 108.771 542.15C119.537 543.207 130.283 539.944 138.646 533.078C140.773 536.729 144.001 539.612 147.867 541.312C151.733 543.012 156.038 543.441 160.164 542.539C164.29 541.637 168.023 539.449 170.828 536.29C173.633 533.131 175.365 529.163 175.775 524.957C182.162 524.265 188.254 521.898 193.434 518.094C198.613 514.29 202.697 509.184 205.272 503.294C207.847 497.403 208.821 490.937 208.097 484.548C207.372 478.16 204.975 472.076 201.146 466.913C204.611 464.736 207.323 461.546 208.916 457.776C210.508 454.005 210.905 449.836 210.051 445.832C209.197 441.829 207.135 438.185 204.143 435.393C201.151 432.601 197.374 430.797 193.323 430.225C194.768 426.471 194.925 422.344 193.768 418.491C192.612 414.639 190.209 411.281 186.937 408.945L237.086 251L135.88 389.795C131.607 387.025 126.437 385.996 121.43 386.919C116.423 387.842 111.959 390.647 108.953 394.758C102.503 391.333 95.175 389.921 87.9156 390.707C80.6561 391.492 73.799 394.439 68.2303 399.165C62.6616 403.891 58.6373 410.179 56.6775 417.218C54.7177 424.256 54.9125 431.721 57.2367 438.648C51.6655 441.489 47.0683 445.929 44.0336 451.399C40.9989 456.87 39.6648 463.122 40.2022 469.356C40.7395 475.59 43.1237 481.522 47.0497 486.391C50.9757 491.261 56.2647 494.848 62.2397 496.692H62.2289Z" fill="#933500"/>
</g>
<g filter="url(#filter3_f_862_12459)">
<path d="M419.831 496.692C421.806 499.707 422.926 503.197 423.072 506.794C423.218 510.391 422.385 513.96 420.662 517.124C418.938 520.288 416.388 522.93 413.28 524.769C410.172 526.609 406.623 527.578 403.008 527.574C402.249 527.569 401.492 527.526 400.738 527.444C393.831 535.805 383.873 541.094 373.052 542.15C362.231 543.207 351.431 539.944 343.025 533.078C340.888 536.729 337.644 539.612 333.758 541.312C329.872 543.012 325.545 543.441 321.398 542.539C317.252 541.637 313.499 539.449 310.68 536.29C307.861 533.131 306.12 529.163 305.708 524.957C299.288 524.265 293.166 521.898 287.96 518.094C282.754 514.29 278.649 509.184 276.061 503.294C273.473 497.403 272.494 490.937 273.222 484.548C273.95 478.16 276.36 472.076 280.208 466.913C276.726 464.736 274 461.546 272.399 457.776C270.799 454.005 270.4 449.836 271.258 445.832C272.116 441.829 274.189 438.185 277.196 435.393C280.204 432.601 284 430.797 288.071 430.225C286.619 426.471 286.461 422.344 287.623 418.491C288.785 414.639 291.201 411.281 294.49 408.945L244.086 251L345.805 389.795C350.1 387.025 355.296 385.996 360.329 386.919C365.361 387.842 369.848 390.647 372.87 394.758C379.352 391.333 386.717 389.921 394.014 390.707C401.31 391.492 408.202 394.439 413.799 399.165C419.396 403.891 423.44 410.179 425.41 417.218C427.38 424.256 427.184 431.721 424.848 438.648C430.448 441.489 435.068 445.929 438.118 451.399C441.168 456.87 442.509 463.122 441.969 469.356C441.429 475.59 439.033 481.522 435.087 486.391C431.141 491.261 425.825 494.848 419.82 496.692H419.831Z" fill="#933500"/>
</g>
</g>
<mask id="mask2_862_12459" style="mask-type:alpha" maskUnits="userSpaceOnUse" x="27" y="231" width="211" height="312">
<path d="M50.6756 493.52C48.5745 496.742 47.3832 500.471 47.2275 504.314C47.0718 508.157 47.9577 511.971 49.7913 515.352C51.625 518.732 54.3383 521.555 57.6443 523.52C60.9503 525.486 64.726 526.521 68.5721 526.517C69.3788 526.512 70.1848 526.466 70.9868 526.379C78.3344 535.312 88.9275 540.964 100.439 542.092C111.951 543.221 123.44 539.734 132.382 532.398C134.656 536.299 138.107 539.38 142.241 541.196C146.375 543.013 150.978 543.472 155.389 542.508C159.801 541.543 163.793 539.206 166.792 535.83C169.791 532.455 171.642 528.215 172.081 523.721C178.91 522.982 185.424 520.452 190.962 516.388C196.5 512.323 200.867 506.868 203.62 500.574C206.373 494.28 207.415 487.371 206.64 480.545C205.865 473.719 203.302 467.219 199.208 461.702C202.913 459.376 205.812 455.967 207.515 451.938C209.218 447.91 209.642 443.455 208.729 439.177C207.816 434.899 205.611 431.005 202.412 428.023C199.213 425.04 195.175 423.112 190.844 422.5C192.388 418.49 192.556 414.08 191.32 409.963C190.084 405.847 187.514 402.259 184.015 399.763L237.636 231L129.425 379.302C124.856 376.342 119.328 375.243 113.975 376.229C108.621 377.215 103.848 380.212 100.633 384.605C93.7373 380.945 85.9021 379.437 78.1402 380.276C70.3783 381.115 63.0465 384.263 57.0924 389.313C51.1382 394.363 46.8354 401.082 44.74 408.603C42.6445 416.123 42.8528 424.1 45.3379 431.501C39.3811 434.536 34.4657 439.28 31.2209 445.125C27.9762 450.971 26.5498 457.651 27.1243 464.312C27.6988 470.973 30.2481 477.311 34.4458 482.514C38.6435 487.718 44.2986 491.55 50.6872 493.52H50.6756Z" fill="url(#paint11_radial_862_12459)"/>
</mask>
<g mask="url(#mask2_862_12459)">
<path d="M50.6756 493.52C48.5745 496.742 47.3832 500.471 47.2275 504.314C47.0718 508.157 47.9577 511.971 49.7913 515.352C51.625 518.733 54.3383 521.555 57.6443 523.521C60.9503 525.486 64.726 526.522 68.5721 526.517C69.3788 526.512 70.1848 526.466 70.9868 526.379C78.3344 535.312 88.9275 540.964 100.439 542.092C111.951 543.221 123.44 539.734 132.382 532.398C134.656 536.3 138.107 539.38 142.241 541.196C146.375 543.013 150.978 543.472 155.389 542.508C159.801 541.544 163.793 539.206 166.792 535.83C169.791 532.455 171.642 528.216 172.081 523.722C178.91 522.982 185.424 520.452 190.962 516.388C196.5 512.323 200.867 506.868 203.62 500.574C206.373 494.28 207.415 487.371 206.64 480.545C205.865 473.719 203.302 467.219 199.208 461.702C202.913 459.376 205.812 455.968 207.515 451.939C209.218 447.91 209.642 443.455 208.729 439.177C207.816 434.9 205.611 431.006 202.412 428.023C199.213 425.04 195.175 423.112 190.844 422.501C192.388 418.49 192.556 414.08 191.32 409.964C190.084 405.848 187.514 402.259 184.015 399.763L237.636 231L129.425 379.302C124.856 376.342 119.328 375.243 113.975 376.229C108.621 377.215 103.848 380.212 100.633 384.605C93.7373 380.945 85.9021 379.437 78.1402 380.276C70.3783 381.115 63.0465 384.263 57.0924 389.313C51.1382 394.363 46.8354 401.082 44.74 408.603C42.6445 416.124 42.8528 424.1 45.3379 431.501C39.3811 434.536 34.4657 439.28 31.2209 445.125C27.9762 450.971 26.5498 457.652 27.1243 464.312C27.6988 470.973 30.2481 477.311 34.4458 482.514C38.6435 487.718 44.2986 491.55 50.6872 493.52H50.6756Z" fill="url(#paint12_radial_862_12459)"/>
<mask id="mask3_862_12459" style="mask-type:alpha" maskUnits="userSpaceOnUse" x="60" y="455" width="88" height="88">
<path d="M104.177 542.484C80.0574 542.484 60.5046 522.931 60.5046 498.812C60.5046 474.692 80.0574 455.139 104.177 455.139C128.297 455.139 147.85 474.692 147.85 498.812C147.85 522.931 128.297 542.484 104.177 542.484Z" fill="white"/>
</mask>
<g mask="url(#mask3_862_12459)">
<g filter="url(#filter4_f_862_12459)">
<path d="M61.198 498.349C61.198 522.469 80.7508 542.021 104.87 542.021C128.99 542.021 148.543 522.469 148.543 498.349" stroke="#00ACFE" stroke-width="3" stroke-miterlimit="10"/>
</g>
</g>
<mask id="mask4_862_12459" style="mask-type:alpha" maskUnits="userSpaceOnUse" x="43" y="379" width="79" height="79">
<path d="M82.4558 457.797C60.8885 457.797 43.4047 440.314 43.4047 418.746C43.4047 397.179 60.8885 379.695 82.4558 379.695C104.023 379.695 121.507 397.179 121.507 418.746C121.507 440.314 104.023 457.797 82.4558 457.797Z" fill="#B2D8EB"/>
</mask>
<g mask="url(#mask4_862_12459)">
<g filter="url(#filter5_f_862_12459)">
<path d="M43.405 418.746C43.405 397.179 60.8887 379.695 82.4561 379.695" stroke="#00ACFE" stroke-width="5" stroke-miterlimit="10"/>
</g>
</g>
<mask id="mask5_862_12459" style="mask-type:alpha" maskUnits="userSpaceOnUse" x="129" y="445" width="79" height="79">
<path d="M168.069 523.767C146.502 523.767 129.018 506.284 129.018 484.716C129.018 463.149 146.502 445.665 168.069 445.665C189.636 445.665 207.12 463.149 207.12 484.716C207.12 506.284 189.636 523.767 168.069 523.767Z" fill="white"/>
</mask>
<g mask="url(#mask5_862_12459)">
<g filter="url(#filter6_f_862_12459)">
<path d="M129.018 484.716C129.018 506.283 146.502 523.767 168.069 523.767C189.636 523.767 207.12 506.283 207.12 484.716" stroke="#00ACFE" stroke-width="4" stroke-miterlimit="10"/>
</g>
</g>
<mask id="mask6_862_12459" style="mask-type:alpha" maskUnits="userSpaceOnUse" x="153" y="395" width="40" height="40">
<path d="M172.806 434.804C162.023 434.804 153.281 426.062 153.281 415.279C153.281 404.495 162.023 395.753 172.806 395.753C183.59 395.753 192.332 404.495 192.332 415.279C192.332 426.062 183.59 434.804 172.806 434.804Z" fill="white"/>
</mask>
<g mask="url(#mask6_862_12459)">
<g filter="url(#filter7_f_862_12459)">
<path d="M192.332 415.279C192.332 404.495 183.59 395.753 172.806 395.753" stroke="#00ACFE" stroke-width="1.34" stroke-miterlimit="10"/>
</g>
</g>
<mask id="mask7_862_12459" style="mask-type:alpha" maskUnits="userSpaceOnUse" x="27" y="427" width="68" height="68">
<path d="M60.7365 494.768C42.1682 494.768 27.1156 479.716 27.1156 461.147C27.1156 442.579 42.1682 427.526 60.7365 427.526C79.3048 427.526 94.3574 442.579 94.3574 461.147C94.3574 479.716 79.3048 494.768 60.7365 494.768Z" fill="white"/>
</mask>
<g mask="url(#mask7_862_12459)">
<g filter="url(#filter8_f_862_12459)">
<path d="M60.7354 494.768C42.167 494.768 27.1145 479.716 27.1145 461.147C27.1145 442.579 42.167 427.526 60.7354 427.526" stroke="#00ACFE" stroke-width="5" stroke-miterlimit="10"/>
</g>
</g>
<mask id="mask8_862_12459" style="mask-type:alpha" maskUnits="userSpaceOnUse" x="47" y="484" width="44" height="43">
<path d="M69.1698 526.771C57.3652 526.771 47.7957 517.202 47.7957 505.397C47.7957 493.593 57.3652 484.023 69.1698 484.023C80.9744 484.023 90.5439 493.593 90.5439 505.397C90.5439 517.202 80.9744 526.771 69.1698 526.771Z" fill="white"/>
</mask>
<g mask="url(#mask8_862_12459)">
<g filter="url(#filter9_f_862_12459)">
<path d="M65.8887 520.408C55.7312 520.408 47.497 512.174 47.497 502.017C47.497 491.859 55.7312 483.625 65.8887 483.625" stroke="#00ACFE" stroke-width="4" stroke-miterlimit="10"/>
</g>
</g>
<mask id="mask9_862_12459" style="mask-type:alpha" maskUnits="userSpaceOnUse" x="166" y="421" width="44" height="44">
<path d="M188.057 464.728C176.252 464.728 166.682 455.159 166.682 443.354C166.682 431.55 176.252 421.98 188.057 421.98C199.861 421.98 209.431 431.55 209.431 443.354C209.431 455.159 199.861 464.728 188.057 464.728Z" fill="white"/>
</mask>
<g mask="url(#mask9_862_12459)">
<g filter="url(#filter10_f_862_12459)">
<path d="M188.057 464.728C199.861 464.728 209.431 455.159 209.431 443.354C209.431 431.55 199.861 421.98 188.057 421.98" stroke="#00ACFE" stroke-width="1.4678" stroke-miterlimit="10"/>
</g>
</g>
<mask id="mask10_862_12459" style="mask-type:alpha" maskUnits="userSpaceOnUse" x="129" y="499" width="44" height="44">
<path d="M150.97 542.715C139.165 542.715 129.596 533.146 129.596 521.341C129.596 509.537 139.165 499.967 150.97 499.967C162.774 499.967 172.344 509.537 172.344 521.341C172.344 533.146 162.774 542.715 150.97 542.715Z" fill="white"/>
</mask>
<g mask="url(#mask10_862_12459)">
<g filter="url(#filter11_f_862_12459)">
<path d="M129.596 521.341C129.596 533.146 139.165 542.715 150.97 542.715C162.774 542.715 172.344 533.146 172.344 521.341" stroke="#00ACFE" stroke-width="3" stroke-miterlimit="10"/>
</g>
</g>
<mask id="mask11_862_12459" style="mask-type:alpha" maskUnits="userSpaceOnUse" x="96" y="375" width="44" height="44">
<path d="M118.042 418.283C106.237 418.283 96.6678 408.713 96.6678 396.909C96.6678 385.104 106.237 375.534 118.042 375.534C129.847 375.534 139.416 385.104 139.416 396.909C139.416 408.713 129.847 418.283 118.042 418.283Z" fill="white"/>
</mask>
<g mask="url(#mask11_862_12459)">
<g filter="url(#filter12_f_862_12459)">
<path d="M96.6679 396.909C96.6679 385.104 106.237 375.534 118.042 375.534" stroke="#00ACFE" stroke-width="1.4678" stroke-miterlimit="10"/>
</g>
</g>
<mask id="mask12_862_12459" style="mask-type:alpha" maskUnits="userSpaceOnUse" x="129" y="230" width="109" height="178">
<path d="M237.853 230.769L181.818 407.192L129.133 379.81L237.853 230.769Z" fill="white"/>
</mask>
<g mask="url(#mask12_862_12459)">
<g filter="url(#filter13_f_862_12459)">
<path d="M181.818 407.192L237.853 230.769L129.133 379.81" stroke="#006DFF" stroke-width="4" stroke-miterlimit="10"/>
</g>
</g>
<g filter="url(#filter14_f_862_12459)">
<ellipse cx="127.516" cy="478.824" rx="50.8357" ry="44.4812" fill="white"/>
</g>
</g>
<mask id="mask13_862_12459" style="mask-type:alpha" maskUnits="userSpaceOnUse" x="243" y="231" width="212" height="312">
<path d="M430.809 493.52C432.91 496.742 434.101 500.471 434.257 504.314C434.413 508.157 433.527 511.971 431.693 515.352C429.859 518.732 427.146 521.555 423.84 523.52C420.534 525.486 416.758 526.521 412.912 526.517C412.106 526.512 411.3 526.466 410.498 526.379C403.15 535.312 392.557 540.964 381.045 542.092C369.534 543.221 358.045 539.734 349.102 532.398C346.829 536.299 343.377 539.38 339.243 541.196C335.109 543.013 330.506 543.472 326.095 542.508C321.684 541.543 317.692 539.206 314.693 535.83C311.694 532.455 309.842 528.215 309.404 523.721C302.574 522.982 296.061 520.452 290.522 516.388C284.984 512.323 280.618 506.868 277.865 500.574C275.112 494.28 274.07 487.371 274.844 480.545C275.619 473.719 278.183 467.219 282.276 461.702C278.572 459.376 275.672 455.967 273.969 451.938C272.266 447.91 271.842 443.455 272.755 439.177C273.668 434.899 275.873 431.005 279.072 428.023C282.271 425.04 286.31 423.112 290.641 422.5C289.096 418.49 288.928 414.08 290.165 409.963C291.401 405.847 293.97 402.259 297.469 399.763L243.849 231L352.06 379.302C356.628 376.342 362.156 375.243 367.51 376.229C372.863 377.215 377.637 380.212 380.851 384.605C387.747 380.945 395.582 379.437 403.344 380.276C411.106 381.115 418.438 384.263 424.392 389.313C430.346 394.363 434.649 401.082 436.744 408.603C438.84 416.123 438.632 424.1 436.146 431.501C442.103 434.536 447.019 439.28 450.263 445.125C453.508 450.971 454.935 457.651 454.36 464.312C453.786 470.973 451.236 477.311 447.039 482.514C442.841 487.718 437.186 491.55 430.797 493.52H430.809Z" fill="url(#paint13_radial_862_12459)"/>
</mask>
<g mask="url(#mask13_862_12459)">
<path d="M430.809 493.52C432.91 496.741 434.101 500.47 434.257 504.313C434.413 508.156 433.527 511.97 431.693 515.351C429.859 518.732 427.146 521.554 423.84 523.52C420.534 525.485 416.758 526.521 412.912 526.516C412.106 526.511 411.3 526.465 410.498 526.378C403.15 535.311 392.557 540.963 381.045 542.092C369.534 543.22 358.045 539.733 349.102 532.397C346.829 536.299 343.377 539.379 339.243 541.195C335.109 543.012 330.506 543.471 326.095 542.507C321.684 541.543 317.692 539.205 314.693 535.829C311.694 532.454 309.842 528.215 309.404 523.721C302.574 522.981 296.061 520.452 290.522 516.387C284.984 512.322 280.618 506.867 277.865 500.573C275.112 494.279 274.07 487.37 274.844 480.544C275.619 473.718 278.183 467.218 282.276 461.701C278.572 459.375 275.672 455.967 273.969 451.938C272.266 447.909 271.842 443.454 272.755 439.176C273.668 434.899 275.873 431.005 279.072 428.022C282.271 425.039 286.31 423.111 290.641 422.5C289.096 418.489 288.928 414.079 290.165 409.963C291.401 405.847 293.97 402.258 297.469 399.762L243.849 230.999L352.06 379.301C356.628 376.341 362.156 375.242 367.51 376.228C372.863 377.214 377.637 380.211 380.851 384.604C387.747 380.944 395.582 379.436 403.344 380.275C411.106 381.115 418.438 384.262 424.392 389.312C430.346 394.362 434.649 401.081 436.744 408.602C438.84 416.123 438.632 424.099 436.146 431.5C442.103 434.535 447.019 439.279 450.263 445.125C453.508 450.97 454.935 457.651 454.36 464.311C453.786 470.972 451.236 477.31 447.039 482.513C442.841 487.717 437.186 491.549 430.797 493.52H430.809Z" fill="url(#paint14_radial_862_12459)"/>
<mask id="mask14_862_12459" style="mask-type:alpha" maskUnits="userSpaceOnUse" x="333" y="455" width="88" height="88">
<path d="M377.307 542.484C401.427 542.484 420.98 522.931 420.98 498.812C420.98 474.692 401.427 455.139 377.307 455.139C353.188 455.139 333.635 474.692 333.635 498.812C333.635 522.931 353.188 542.484 377.307 542.484Z" fill="white"/>
</mask>
<g mask="url(#mask14_862_12459)">
<g filter="url(#filter15_f_862_12459)">
<path d="M420.286 498.349C420.286 522.469 400.734 542.021 376.614 542.021C352.494 542.021 332.941 522.469 332.941 498.349" stroke="#00ACFE" stroke-width="3" stroke-miterlimit="10"/>
</g>
</g>
<mask id="mask15_862_12459" style="mask-type:alpha" maskUnits="userSpaceOnUse" x="359" y="379" width="80" height="79">
<path d="M399.029 457.797C420.596 457.797 438.08 440.314 438.08 418.746C438.08 397.179 420.596 379.695 399.029 379.695C377.461 379.695 359.978 397.179 359.978 418.746C359.978 440.314 377.461 457.797 399.029 457.797Z" fill="#B2D8EB"/>
</mask>
<g mask="url(#mask15_862_12459)">
<g filter="url(#filter16_f_862_12459)">
<path d="M438.079 418.746C438.079 397.179 420.596 379.695 399.028 379.695" stroke="#00ACFE" stroke-width="5" stroke-miterlimit="10"/>
</g>
</g>
<mask id="mask16_862_12459" style="mask-type:alpha" maskUnits="userSpaceOnUse" x="274" y="445" width="79" height="79">
<path d="M313.415 523.767C334.983 523.767 352.466 506.284 352.466 484.716C352.466 463.149 334.983 445.665 313.415 445.665C291.848 445.665 274.364 463.149 274.364 484.716C274.364 506.284 291.848 523.767 313.415 523.767Z" fill="white"/>
</mask>
<g mask="url(#mask16_862_12459)">
<g filter="url(#filter17_f_862_12459)">
<path d="M352.466 484.716C352.466 506.283 334.983 523.767 313.415 523.767C291.848 523.767 274.364 506.283 274.364 484.716" stroke="#00ACFE" stroke-width="4" stroke-miterlimit="10"/>
</g>
</g>
<mask id="mask17_862_12459" style="mask-type:alpha" maskUnits="userSpaceOnUse" x="289" y="395" width="40" height="40">
<path d="M308.678 434.804C319.462 434.804 328.203 426.062 328.203 415.279C328.203 404.495 319.462 395.753 308.678 395.753C297.894 395.753 289.152 404.495 289.152 415.279C289.152 426.062 297.894 434.804 308.678 434.804Z" fill="white"/>
</mask>
<g mask="url(#mask17_862_12459)">
<g filter="url(#filter18_f_862_12459)">
<path d="M289.152 415.279C289.152 404.495 297.894 395.753 308.678 395.753" stroke="#00ACFE" stroke-width="1.34" stroke-miterlimit="10"/>
</g>
</g>
<mask id="mask18_862_12459" style="mask-type:alpha" maskUnits="userSpaceOnUse" x="387" y="427" width="68" height="68">
<path d="M420.748 494.768C439.316 494.768 454.369 479.716 454.369 461.147C454.369 442.579 439.316 427.526 420.748 427.526C402.18 427.526 387.127 442.579 387.127 461.147C387.127 479.716 402.18 494.768 420.748 494.768Z" fill="white"/>
</mask>
<g mask="url(#mask18_862_12459)">
<g filter="url(#filter19_f_862_12459)">
<path d="M420.749 494.768C439.317 494.768 454.37 479.716 454.37 461.147C454.37 442.579 439.317 427.526 420.749 427.526" stroke="#00ACFE" stroke-width="5" stroke-miterlimit="10"/>
</g>
</g>
<mask id="mask19_862_12459" style="mask-type:alpha" maskUnits="userSpaceOnUse" x="390" y="484" width="44" height="43">
<path d="M412.315 526.771C424.119 526.771 433.689 517.202 433.689 505.397C433.689 493.593 424.119 484.023 412.315 484.023C400.51 484.023 390.94 493.593 390.94 505.397C390.94 517.202 400.51 526.771 412.315 526.771Z" fill="white"/>
</mask>
<g mask="url(#mask19_862_12459)">
<g filter="url(#filter20_f_862_12459)">
<path d="M415.596 520.408C425.753 520.408 433.987 512.174 433.987 502.017C433.987 491.859 425.753 483.625 415.596 483.625" stroke="#00ACFE" stroke-width="4" stroke-miterlimit="10"/>
</g>
</g>
<mask id="mask20_862_12459" style="mask-type:alpha" maskUnits="userSpaceOnUse" x="272" y="421" width="43" height="44">
<path d="M293.428 464.728C305.232 464.728 314.802 455.159 314.802 443.354C314.802 431.55 305.232 421.98 293.428 421.98C281.623 421.98 272.054 431.55 272.054 443.354C272.054 455.159 281.623 464.728 293.428 464.728Z" fill="white"/>
</mask>
<g mask="url(#mask20_862_12459)">
<g filter="url(#filter21_f_862_12459)">
<path d="M293.428 464.728C281.623 464.728 272.054 455.159 272.054 443.354C272.054 431.55 281.623 421.98 293.428 421.98" stroke="#00ACFE" stroke-width="1.4678" stroke-miterlimit="10"/>
</g>
</g>
<mask id="mask21_862_12459" style="mask-type:alpha" maskUnits="userSpaceOnUse" x="309" y="499" width="43" height="44">
<path d="M330.515 542.715C342.319 542.715 351.889 533.146 351.889 521.341C351.889 509.537 342.319 499.967 330.515 499.967C318.71 499.967 309.141 509.537 309.141 521.341C309.141 533.146 318.71 542.715 330.515 542.715Z" fill="white"/>
</mask>
<g mask="url(#mask21_862_12459)">
<g filter="url(#filter22_f_862_12459)">
<path d="M351.889 521.341C351.889 533.146 342.319 542.715 330.515 542.715C318.71 542.715 309.141 533.146 309.141 521.341" stroke="#00ACFE" stroke-width="3" stroke-miterlimit="10"/>
</g>
</g>
<mask id="mask22_862_12459" style="mask-type:alpha" maskUnits="userSpaceOnUse" x="342" y="375" width="43" height="44">
<path d="M363.442 418.283C375.247 418.283 384.817 408.713 384.817 396.909C384.817 385.104 375.247 375.534 363.442 375.534C351.638 375.534 342.068 385.104 342.068 396.909C342.068 408.713 351.638 418.283 363.442 418.283Z" fill="white"/>
</mask>
<g mask="url(#mask22_862_12459)">
<g filter="url(#filter23_f_862_12459)">
<path d="M384.816 396.909C384.816 385.104 375.247 375.534 363.442 375.534" stroke="#00ACFE" stroke-width="1.4678" stroke-miterlimit="10"/>
</g>
</g>
<mask id="mask23_862_12459" style="mask-type:alpha" maskUnits="userSpaceOnUse" x="243" y="230" width="110" height="178">
<path d="M243.632 230.769L299.667 407.192L352.351 379.81L243.632 230.769Z" fill="white"/>
</mask>
<g mask="url(#mask23_862_12459)">
<g filter="url(#filter24_f_862_12459)">
<path d="M299.667 407.192L243.632 230.769L352.351 379.81" stroke="#006DFF" stroke-width="4" stroke-miterlimit="10"/>
</g>
</g>
<g filter="url(#filter25_f_862_12459)">
<ellipse rx="50.8357" ry="44.4812" transform="matrix(-1 0 0 1 353.968 478.824)" fill="white"/>
</g>
</g>
<defs>
<filter id="filter0_f_862_12459" x="-26.8145" y="206.558" width="535.021" height="306.595" filterUnits="userSpaceOnUse" color-interpolation-filters="sRGB">
<feFlood flood-opacity="0" result="BackgroundImageFix"/>
<feBlend mode="normal" in="SourceGraphic" in2="BackgroundImageFix" result="shape"/>
<feGaussianBlur stdDeviation="12.5" result="effect1_foregroundBlur_862_12459"/>
</filter>
<filter id="filter1_f_862_12459" x="-41.8145" y="191.558" width="565.021" height="336.595" filterUnits="userSpaceOnUse" color-interpolation-filters="sRGB">
<feFlood flood-opacity="0" result="BackgroundImageFix"/>
<feBlend mode="normal" in="SourceGraphic" in2="BackgroundImageFix" result="shape"/>
<feGaussianBlur stdDeviation="20" result="effect1_foregroundBlur_862_12459"/>
</filter>
<filter id="filter2_f_862_12459" x="10.0859" y="221" width="257" height="352" filterUnits="userSpaceOnUse" color-interpolation-filters="sRGB">
<feFlood flood-opacity="0" result="BackgroundImageFix"/>
<feBlend mode="normal" in="SourceGraphic" in2="BackgroundImageFix" result="shape"/>
<feGaussianBlur stdDeviation="15" result="effect1_foregroundBlur_862_12459"/>
</filter>
<filter id="filter3_f_862_12459" x="214.086" y="221" width="258" height="352" filterUnits="userSpaceOnUse" color-interpolation-filters="sRGB">
<feFlood flood-opacity="0" result="BackgroundImageFix"/>
<feBlend mode="normal" in="SourceGraphic" in2="BackgroundImageFix" result="shape"/>
<feGaussianBlur stdDeviation="15" result="effect1_foregroundBlur_862_12459"/>
</filter>
<filter id="filter4_f_862_12459" x="39.6982" y="478.349" width="130.345" height="85.1726" filterUnits="userSpaceOnUse" color-interpolation-filters="sRGB">
<feFlood flood-opacity="0" result="BackgroundImageFix"/>
<feBlend mode="normal" in="SourceGraphic" in2="BackgroundImageFix" result="shape"/>
<feGaussianBlur stdDeviation="10" result="effect1_foregroundBlur_862_12459"/>
</filter>
<filter id="filter5_f_862_12459" x="25.9053" y="362.195" width="71.5508" height="71.551" filterUnits="userSpaceOnUse" color-interpolation-filters="sRGB">
<feFlood flood-opacity="0" result="BackgroundImageFix"/>
<feBlend mode="normal" in="SourceGraphic" in2="BackgroundImageFix" result="shape"/>
<feGaussianBlur stdDeviation="7.5" result="effect1_foregroundBlur_862_12459"/>
</filter>
<filter id="filter6_f_862_12459" x="107.018" y="464.716" width="122.103" height="81.051" filterUnits="userSpaceOnUse" color-interpolation-filters="sRGB">
<feFlood flood-opacity="0" result="BackgroundImageFix"/>
<feBlend mode="normal" in="SourceGraphic" in2="BackgroundImageFix" result="shape"/>
<feGaussianBlur stdDeviation="10" result="effect1_foregroundBlur_862_12459"/>
</filter>
<filter id="filter7_f_862_12459" x="152.807" y="375.083" width="60.1953" height="60.1956" filterUnits="userSpaceOnUse" color-interpolation-filters="sRGB">
<feFlood flood-opacity="0" result="BackgroundImageFix"/>
<feBlend mode="normal" in="SourceGraphic" in2="BackgroundImageFix" result="shape"/>
<feGaussianBlur stdDeviation="10" result="effect1_foregroundBlur_862_12459"/>
</filter>
<filter id="filter8_f_862_12459" x="4.61426" y="405.026" width="76.1211" height="112.242" filterUnits="userSpaceOnUse" color-interpolation-filters="sRGB">
<feFlood flood-opacity="0" result="BackgroundImageFix"/>
<feBlend mode="normal" in="SourceGraphic" in2="BackgroundImageFix" result="shape"/>
<feGaussianBlur stdDeviation="10" result="effect1_foregroundBlur_862_12459"/>
</filter>
<filter id="filter9_f_862_12459" x="25.4971" y="461.625" width="60.3916" height="80.7834" filterUnits="userSpaceOnUse" color-interpolation-filters="sRGB">
<feFlood flood-opacity="0" result="BackgroundImageFix"/>
<feBlend mode="normal" in="SourceGraphic" in2="BackgroundImageFix" result="shape"/>
<feGaussianBlur stdDeviation="10" result="effect1_foregroundBlur_862_12459"/>
</filter>
<filter id="filter10_f_862_12459" x="173.057" y="406.246" width="52.1084" height="74.2161" filterUnits="userSpaceOnUse" color-interpolation-filters="sRGB">
<feFlood flood-opacity="0" result="BackgroundImageFix"/>
<feBlend mode="normal" in="SourceGraphic" in2="BackgroundImageFix" result="shape"/>
<feGaussianBlur stdDeviation="7.5" result="effect1_foregroundBlur_862_12459"/>
</filter>
<filter id="filter11_f_862_12459" x="108.096" y="501.341" width="85.748" height="62.874" filterUnits="userSpaceOnUse" color-interpolation-filters="sRGB">
<feFlood flood-opacity="0" result="BackgroundImageFix"/>
<feBlend mode="normal" in="SourceGraphic" in2="BackgroundImageFix" result="shape"/>
<feGaussianBlur stdDeviation="10" result="effect1_foregroundBlur_862_12459"/>
</filter>
<filter id="filter12_f_862_12459" x="83.9336" y="362.801" width="46.1084" height="46.1079" filterUnits="userSpaceOnUse" color-interpolation-filters="sRGB">
<feFlood flood-opacity="0" result="BackgroundImageFix"/>
<feBlend mode="normal" in="SourceGraphic" in2="BackgroundImageFix" result="shape"/>
<feGaussianBlur stdDeviation="6" result="effect1_foregroundBlur_862_12459"/>
</filter>
<filter id="filter13_f_862_12459" x="107.518" y="199.663" width="155.961" height="228.135" filterUnits="userSpaceOnUse" color-interpolation-filters="sRGB">
<feFlood flood-opacity="0" result="BackgroundImageFix"/>
<feBlend mode="normal" in="SourceGraphic" in2="BackgroundImageFix" result="shape"/>
<feGaussianBlur stdDeviation="10" result="effect1_foregroundBlur_862_12459"/>
</filter>
<filter id="filter14_f_862_12459" x="36.6807" y="394.343" width="181.672" height="168.962" filterUnits="userSpaceOnUse" color-interpolation-filters="sRGB">
<feFlood flood-opacity="0" result="BackgroundImageFix"/>
<feBlend mode="normal" in="SourceGraphic" in2="BackgroundImageFix" result="shape"/>
<feGaussianBlur stdDeviation="20" result="effect1_foregroundBlur_862_12459"/>
</filter>
<filter id="filter15_f_862_12459" x="311.441" y="478.349" width="130.345" height="85.1726" filterUnits="userSpaceOnUse" color-interpolation-filters="sRGB">
<feFlood flood-opacity="0" result="BackgroundImageFix"/>
<feBlend mode="normal" in="SourceGraphic" in2="BackgroundImageFix" result="shape"/>
<feGaussianBlur stdDeviation="10" result="effect1_foregroundBlur_862_12459"/>
</filter>
<filter id="filter16_f_862_12459" x="384.028" y="362.195" width="71.5508" height="71.551" filterUnits="userSpaceOnUse" color-interpolation-filters="sRGB">
<feFlood flood-opacity="0" result="BackgroundImageFix"/>
<feBlend mode="normal" in="SourceGraphic" in2="BackgroundImageFix" result="shape"/>
<feGaussianBlur stdDeviation="7.5" result="effect1_foregroundBlur_862_12459"/>
</filter>
<filter id="filter17_f_862_12459" x="252.364" y="464.716" width="122.103" height="81.051" filterUnits="userSpaceOnUse" color-interpolation-filters="sRGB">
<feFlood flood-opacity="0" result="BackgroundImageFix"/>
<feBlend mode="normal" in="SourceGraphic" in2="BackgroundImageFix" result="shape"/>
<feGaussianBlur stdDeviation="10" result="effect1_foregroundBlur_862_12459"/>
</filter>
<filter id="filter18_f_862_12459" x="268.482" y="375.083" width="60.1953" height="60.1956" filterUnits="userSpaceOnUse" color-interpolation-filters="sRGB">
<feFlood flood-opacity="0" result="BackgroundImageFix"/>
<feBlend mode="normal" in="SourceGraphic" in2="BackgroundImageFix" result="shape"/>
<feGaussianBlur stdDeviation="10" result="effect1_foregroundBlur_862_12459"/>
</filter>
<filter id="filter19_f_862_12459" x="400.749" y="405.026" width="76.1211" height="112.242" filterUnits="userSpaceOnUse" color-interpolation-filters="sRGB">
<feFlood flood-opacity="0" result="BackgroundImageFix"/>
<feBlend mode="normal" in="SourceGraphic" in2="BackgroundImageFix" result="shape"/>
<feGaussianBlur stdDeviation="10" result="effect1_foregroundBlur_862_12459"/>
</filter>
<filter id="filter20_f_862_12459" x="395.596" y="461.625" width="60.3916" height="80.7834" filterUnits="userSpaceOnUse" color-interpolation-filters="sRGB">
<feFlood flood-opacity="0" result="BackgroundImageFix"/>
<feBlend mode="normal" in="SourceGraphic" in2="BackgroundImageFix" result="shape"/>
<feGaussianBlur stdDeviation="10" result="effect1_foregroundBlur_862_12459"/>
</filter>
<filter id="filter21_f_862_12459" x="256.319" y="406.246" width="52.1084" height="74.2161" filterUnits="userSpaceOnUse" color-interpolation-filters="sRGB">
<feFlood flood-opacity="0" result="BackgroundImageFix"/>
<feBlend mode="normal" in="SourceGraphic" in2="BackgroundImageFix" result="shape"/>
<feGaussianBlur stdDeviation="7.5" result="effect1_foregroundBlur_862_12459"/>
</filter>
<filter id="filter22_f_862_12459" x="287.641" y="501.341" width="85.748" height="62.874" filterUnits="userSpaceOnUse" color-interpolation-filters="sRGB">
<feFlood flood-opacity="0" result="BackgroundImageFix"/>
<feBlend mode="normal" in="SourceGraphic" in2="BackgroundImageFix" result="shape"/>
<feGaussianBlur stdDeviation="10" result="effect1_foregroundBlur_862_12459"/>
</filter>
<filter id="filter23_f_862_12459" x="351.442" y="362.801" width="46.1084" height="46.1079" filterUnits="userSpaceOnUse" color-interpolation-filters="sRGB">
<feFlood flood-opacity="0" result="BackgroundImageFix"/>
<feBlend mode="normal" in="SourceGraphic" in2="BackgroundImageFix" result="shape"/>
<feGaussianBlur stdDeviation="6" result="effect1_foregroundBlur_862_12459"/>
</filter>
<filter id="filter24_f_862_12459" x="218.006" y="199.663" width="155.961" height="228.135" filterUnits="userSpaceOnUse" color-interpolation-filters="sRGB">
<feFlood flood-opacity="0" result="BackgroundImageFix"/>
<feBlend mode="normal" in="SourceGraphic" in2="BackgroundImageFix" result="shape"/>
<feGaussianBlur stdDeviation="10" result="effect1_foregroundBlur_862_12459"/>
</filter>
<filter id="filter25_f_862_12459" x="263.132" y="394.343" width="181.672" height="168.962" filterUnits="userSpaceOnUse" color-interpolation-filters="sRGB">
<feFlood flood-opacity="0" result="BackgroundImageFix"/>
<feBlend mode="normal" in="SourceGraphic" in2="BackgroundImageFix" result="shape"/>
<feGaussianBlur stdDeviation="20" result="effect1_foregroundBlur_862_12459"/>
</filter>
<radialGradient id="paint0_radial_862_12459" cx="0" cy="0" r="1" gradientUnits="userSpaceOnUse" gradientTransform="translate(241 -4.53898e-06) rotate(90) scale(482)">
<stop stop-color="#FFDE43"/>
<stop offset="1" stop-color="#FFBC00"/>
</radialGradient>
<radialGradient id="paint1_radial_862_12459" cx="0" cy="0" r="1" gradientUnits="userSpaceOnUse" gradientTransform="translate(241 64.5) rotate(90) scale(417.5)">
<stop stop-color="white" stop-opacity="0.5"/>
<stop offset="0.782278"/>
</radialGradient>
<radialGradient id="paint2_radial_862_12459" cx="0" cy="0" r="1" gradientUnits="userSpaceOnUse" gradientTransform="translate(241 64.5) rotate(90) scale(417.5)">
<stop stop-color="white" stop-opacity="0.5"/>
<stop offset="0.782278"/>
</radialGradient>
<radialGradient id="paint3_radial_862_12459" cx="0" cy="0" r="1" gradientUnits="userSpaceOnUse" gradientTransform="translate(241 -52.5) rotate(90) scale(534.5 722.835)">
<stop offset="0.0922635" stop-color="white"/>
<stop offset="0.670207" stop-color="white" stop-opacity="0"/>
</radialGradient>
<radialGradient id="paint4_radial_862_12459" cx="0" cy="0" r="1" gradientUnits="userSpaceOnUse" gradientTransform="translate(329.162 190.865) scale(78.7077 25.9279)">
<stop stop-color="#743C1C"/>
<stop offset="1" stop-color="#401C02"/>
</radialGradient>
<linearGradient id="paint5_linear_862_12459" x1="329.247" y1="218.222" x2="329.247" y2="163.333" gradientUnits="userSpaceOnUse">
<stop stop-color="#FFDE43"/>
<stop offset="0.22" stop-color="#FED93F"/>
<stop offset="0.51" stop-color="#FCC934"/>
<stop offset="0.82" stop-color="#F9AF21"/>
<stop offset="1" stop-color="#F79D14"/>
</linearGradient>
<radialGradient id="paint6_radial_862_12459" cx="0" cy="0" r="1" gradientUnits="userSpaceOnUse" gradientTransform="translate(153.659 190.855) scale(78.7095 25.9376)">
<stop stop-color="#743C1C"/>
<stop offset="1" stop-color="#401C02"/>
</radialGradient>
<linearGradient id="paint7_linear_862_12459" x1="153.745" y1="218.222" x2="153.745" y2="163.313" gradientUnits="userSpaceOnUse">
<stop stop-color="#FFDE43"/>
<stop offset="0.22" stop-color="#FED93F"/>
<stop offset="0.51" stop-color="#FCC934"/>
<stop offset="0.82" stop-color="#F9AF21"/>
<stop offset="1" stop-color="#F79D14"/>
</linearGradient>
<linearGradient id="paint8_linear_862_12459" x1="240.894" y1="348.491" x2="240.894" y2="280.032" gradientUnits="userSpaceOnUse">
<stop offset="0.265625" stop-color="#FFDE43"/>
<stop offset="1" stop-color="#F79D14"/>
</linearGradient>
<radialGradient id="paint9_radial_862_12459" cx="0" cy="0" r="1" gradientUnits="userSpaceOnUse" gradientTransform="translate(240.894 314.261) scale(88.9888 65.2141)">
<stop stop-color="#743C1C"/>
<stop offset="1" stop-color="#401C02"/>
</radialGradient>
<radialGradient id="paint10_radial_862_12459" cx="0" cy="0" r="1" gradientUnits="userSpaceOnUse" gradientTransform="translate(241 -4.53898e-06) rotate(90) scale(482)">
<stop stop-color="#FFDE43"/>
<stop offset="1" stop-color="#FFBC00"/>
</radialGradient>
<radialGradient id="paint11_radial_862_12459" cx="0" cy="0" r="1" gradientUnits="userSpaceOnUse" gradientTransform="translate(132.137 417.012) rotate(89.918) scale(125.988 419.059)">
<stop stop-color="white"/>
<stop offset="1" stop-color="#9BBAE8"/>
</radialGradient>
<radialGradient id="paint12_radial_862_12459" cx="0" cy="0" r="1" gradientUnits="userSpaceOnUse" gradientTransform="translate(132.137 417.013) rotate(89.918) scale(125.988 419.059)">
<stop stop-color="white"/>
<stop offset="1" stop-color="#9BBAE8"/>
</radialGradient>
<radialGradient id="paint13_radial_862_12459" cx="0" cy="0" r="1" gradientUnits="userSpaceOnUse" gradientTransform="translate(349.347 417.012) rotate(90.082) scale(125.988 419.059)">
<stop stop-color="white"/>
<stop offset="1" stop-color="#9BBAE8"/>
</radialGradient>
<radialGradient id="paint14_radial_862_12459" cx="0" cy="0" r="1" gradientUnits="userSpaceOnUse" gradientTransform="translate(349.347 417.012) rotate(90.082) scale(125.988 419.059)">
<stop stop-color="white"/>
<stop offset="1" stop-color="#9BBAE8"/>
</radialGradient>
</defs>
</svg>
