<svg width="649" height="483" viewBox="0 0 649 483" fill="none" xmlns="http://www.w3.org/2000/svg">
<path d="M324.18 482.36C457.38 482.36 565.36 374.38 565.36 241.18C565.36 107.98 457.38 0 324.18 0C190.98 0 83 107.98 83 241.18C83 374.38 190.98 482.36 324.18 482.36Z" fill="url(#paint0_radial_862_12540)"/>
<g style="mix-blend-mode:soft-light">
<path d="M324.18 482.36C457.38 482.36 565.36 374.38 565.36 241.18C565.36 107.98 457.38 0 324.18 0C190.98 0 83 107.98 83 241.18C83 374.38 190.98 482.36 324.18 482.36Z" fill="url(#paint1_radial_862_12540)"/>
</g>
<g style="mix-blend-mode:soft-light">
<path d="M324.18 482.36C457.38 482.36 565.36 374.38 565.36 241.18C565.36 107.98 457.38 0 324.18 0C190.98 0 83 107.98 83 241.18C83 374.38 190.98 482.36 324.18 482.36Z" fill="url(#paint2_radial_862_12540)"/>
</g>
<g style="mix-blend-mode:overlay">
<path d="M324.18 482.36C457.38 482.36 565.36 374.38 565.36 241.18C565.36 107.98 457.38 0 324.18 0C190.98 0 83 107.98 83 241.18C83 374.38 190.98 482.36 324.18 482.36Z" fill="url(#paint3_radial_862_12540)" fill-opacity="0.7"/>
</g>
<mask id="mask0_862_12540" style="mask-type:alpha" maskUnits="userSpaceOnUse" x="83" y="0" width="483" height="483">
<path d="M324.18 482.36C457.38 482.36 565.36 374.38 565.36 241.18C565.36 107.98 457.38 0 324.18 0C190.98 0 83 107.98 83 241.18C83 374.38 190.98 482.36 324.18 482.36Z" fill="white"/>
</mask>
<g mask="url(#mask0_862_12540)">
<g filter="url(#filter0_f_862_12540)">
<path d="M81.6241 234.299C81.886 230.872 83.0137 230.529 83.3426 234.009C83.7081 237.875 82.9977 245.647 83.1687 250.335C83.6216 262.748 85.5244 273.542 87.486 282.321C93.8075 310.613 102.562 328.843 110.727 344.289C137.566 395.061 166.967 420.771 195.648 440.147C237.689 468.55 280.072 477.584 322.49 479.5C323.56 479.549 323.738 486.518 322.686 487.425C320.788 489.062 318.436 487.438 316.494 487.37C310.915 487.174 305.335 486.791 299.756 486.211C283.213 484.492 266.67 480.991 250.162 475.359C205.275 460.044 156.877 433.821 114.609 359.962C111.95 355.316 109.312 350.424 106.712 345.168C104.632 340.964 102.573 336.557 100.549 331.844C93.8946 316.342 78.3868 276.659 81.6241 234.299ZM322.52 487.5C321.499 487.532 321.241 481.035 322.214 479.686C323.684 477.647 325.888 479.326 327.439 479.229C333.877 478.827 340.314 478.23 346.75 477.422C364.395 475.206 382.028 471.423 399.621 465.596C443.257 451.146 490.17 429.116 531.305 361.431C533.923 357.124 536.518 352.554 539.079 347.641C546.86 332.713 566.361 293.085 564.107 243.821C563.917 239.669 565.181 237.181 565.747 240.744C566.467 245.28 566.175 254.736 565.977 259.768C565.341 275.884 562.866 289.512 560.257 300.518C551.987 335.399 540.376 355.623 529.744 372.51C495.184 427.397 457.648 449.524 421.155 465.425C388.424 479.686 355.444 486.484 322.52 487.5Z" fill="#401C02"/>
</g>
<g filter="url(#filter1_f_862_12540)">
<path d="M81.6241 234.299C81.886 230.872 83.0137 230.529 83.3426 234.009C83.7081 237.875 82.9977 245.647 83.1687 250.335C83.6216 262.748 85.5244 273.542 87.486 282.321C93.8075 310.613 102.562 328.843 110.727 344.289C137.566 395.061 166.967 420.771 195.648 440.147C237.689 468.55 280.072 477.584 322.49 479.5C323.56 479.549 323.738 486.518 322.686 487.425C320.788 489.062 318.436 487.438 316.494 487.37C310.915 487.174 305.335 486.791 299.756 486.211C283.213 484.492 266.67 480.991 250.162 475.359C205.275 460.044 156.877 433.821 114.609 359.962C111.95 355.316 109.312 350.424 106.712 345.168C104.632 340.964 102.573 336.557 100.549 331.844C93.8946 316.342 78.3868 276.659 81.6241 234.299ZM322.52 487.5C321.499 487.532 321.241 481.035 322.214 479.686C323.684 477.647 325.888 479.326 327.439 479.229C333.877 478.827 340.314 478.23 346.75 477.422C364.395 475.206 382.028 471.423 399.621 465.596C443.257 451.146 490.17 429.116 531.305 361.431C533.923 357.124 536.518 352.554 539.079 347.641C546.86 332.713 566.361 293.085 564.107 243.821C563.917 239.669 565.181 237.181 565.747 240.744C566.467 245.28 566.175 254.736 565.977 259.768C565.341 275.884 562.866 289.512 560.257 300.518C551.987 335.399 540.376 355.623 529.744 372.51C495.184 427.397 457.648 449.524 421.155 465.425C388.424 479.686 355.444 486.484 322.52 487.5Z" fill="#401C02"/>
</g>
</g>
<path d="M157.752 216.169C165.692 205.519 204.642 161.169 278.332 200.719C280.785 201.994 282.693 204.116 283.701 206.69C284.709 209.265 284.748 212.118 283.812 214.719C282.542 218.019 279.692 220.359 273.612 218.389C259.432 213.809 214.612 199.339 166.952 221.749C166.952 221.749 160.502 226.219 157.552 222.279C156.922 221.375 156.601 220.292 156.638 219.191C156.674 218.09 157.064 217.03 157.752 216.169Z" fill="url(#paint4_radial_862_12540)"/>
<path d="M148.612 204.94C148.742 204.69 148.872 204.43 149.012 204.18C149.422 203.44 149.832 202.7 150.252 201.96C151.059 200.526 151.879 199.1 152.712 197.68C153.522 196.31 154.332 194.94 155.162 193.58C155.992 192.22 156.772 190.96 157.592 189.67C158.412 188.38 159.192 187.17 160.012 185.94C160.832 184.71 161.602 183.56 162.412 182.38C163.222 181.2 163.992 180.12 164.792 179C165.592 177.88 166.362 176.85 167.162 175.78C167.962 174.71 168.712 173.78 169.502 172.73C170.292 171.68 171.032 170.8 171.822 169.84C172.612 168.88 173.342 168.01 174.122 167.11C174.902 166.21 175.622 165.37 176.392 164.52C177.162 163.67 177.882 162.89 178.642 162.08C179.402 161.27 180.122 160.55 180.872 159.79C181.622 159.03 182.332 158.34 183.072 157.64C183.812 156.94 184.512 156.28 185.242 155.64C185.972 155 186.662 154.37 187.392 153.75C188.122 153.13 188.792 152.57 189.502 151.99C190.212 151.41 190.882 150.88 191.592 150.35C192.302 149.82 192.952 149.35 193.642 148.82C194.332 148.29 194.982 147.87 195.642 147.41C196.302 146.95 196.962 146.53 197.642 146.11C198.322 145.69 198.942 145.3 199.642 144.91C200.342 144.52 200.912 144.17 201.562 143.82C202.212 143.47 202.812 143.14 203.442 142.82C204.072 142.5 204.672 142.2 205.292 141.91C205.912 141.62 206.492 141.35 207.102 141.09C207.712 140.83 208.282 140.59 208.872 140.36C209.462 140.13 210.022 139.91 210.602 139.7L212.292 139.12L213.962 138.55C214.492 138.39 215.022 138.24 215.562 138.11C216.102 137.98 216.562 137.85 217.122 137.73C217.682 137.61 218.122 137.51 218.642 137.41L220.112 137.15L221.532 136.93L222.912 136.77L224.242 136.64L225.512 136.55H226.092C232.962 136.24 235.452 133.23 236.092 129.88C237.032 124.66 232.742 119.98 227.432 119.83C169.882 118.19 147.552 191.97 144.072 204.96C143.931 205.482 143.999 206.038 144.26 206.512C144.521 206.986 144.955 207.34 145.472 207.5C145.96 207.649 146.486 207.617 146.953 207.409C147.42 207.202 147.796 206.832 148.012 206.37C148.152 205.9 148.372 205.42 148.612 204.94Z" fill="#42210B"/>
<path d="M491.143 216.169C483.203 205.519 444.253 161.169 370.563 200.719C368.109 201.994 366.202 204.116 365.194 206.69C364.186 209.265 364.147 212.118 365.083 214.719C366.353 218.019 369.203 220.359 375.283 218.389C389.463 213.809 434.283 199.339 481.943 221.749C481.943 221.749 488.383 226.219 491.343 222.279C491.972 221.375 492.293 220.292 492.257 219.191C492.221 218.09 491.83 217.03 491.143 216.169Z" fill="url(#paint5_radial_862_12540)"/>
<path d="M157.752 216.169C165.692 205.519 204.642 161.169 278.332 200.719C280.785 201.994 282.693 204.116 283.701 206.69C284.709 209.265 284.748 212.118 283.812 214.719C282.542 218.019 279.692 220.359 273.612 218.389C259.432 213.809 214.612 199.339 166.952 221.749C166.952 221.749 160.502 226.219 157.552 222.279C156.922 221.376 156.601 220.292 156.638 219.191C156.674 218.09 157.064 217.03 157.752 216.169V216.169Z" stroke="url(#paint6_linear_862_12540)" stroke-width="2" stroke-miterlimit="10"/>
<path d="M491.143 216.169C483.203 205.519 444.253 161.169 370.563 200.719C368.109 201.994 366.202 204.116 365.194 206.69C364.186 209.265 364.147 212.118 365.083 214.719C366.353 218.019 369.203 220.359 375.283 218.389C389.463 213.809 434.283 199.339 481.943 221.749C481.943 221.749 488.383 226.219 491.343 222.279C491.972 221.376 492.293 220.292 492.257 219.191C492.221 218.09 491.83 217.03 491.143 216.169V216.169Z" stroke="url(#paint7_linear_862_12540)" stroke-width="2" stroke-miterlimit="10"/>
<path d="M500.282 204.94C500.152 204.69 500.022 204.43 499.882 204.18C499.472 203.44 499.062 202.7 498.642 201.96C497.835 200.526 497.015 199.1 496.182 197.68C495.372 196.31 494.562 194.94 493.732 193.58C492.902 192.22 492.122 190.96 491.292 189.67C490.462 188.38 489.702 187.17 488.882 185.94C488.062 184.71 487.292 183.56 486.482 182.38C485.672 181.2 484.902 180.12 484.102 179C483.302 177.88 482.532 176.85 481.732 175.78C480.932 174.71 480.182 173.78 479.392 172.73C478.602 171.68 477.852 170.8 477.072 169.84C476.292 168.88 475.552 168.01 474.772 167.11C473.992 166.21 473.262 165.37 472.502 164.52C471.742 163.67 471.012 162.89 470.252 162.08C469.492 161.27 468.772 160.55 468.022 159.79C467.272 159.03 466.562 158.34 465.822 157.64C465.082 156.94 464.382 156.28 463.652 155.64C462.922 155 462.232 154.37 461.502 153.75C460.772 153.13 460.102 152.57 459.392 151.99C458.682 151.41 458.002 150.88 457.302 150.35C456.602 149.82 455.942 149.35 455.252 148.82C454.562 148.29 453.912 147.87 453.252 147.41C452.592 146.95 451.932 146.53 451.252 146.11C450.572 145.69 449.952 145.3 449.252 144.91C448.552 144.52 447.982 144.17 447.332 143.82C446.682 143.47 446.082 143.14 445.452 142.82C444.822 142.5 444.222 142.2 443.602 141.91C442.982 141.62 442.402 141.35 441.792 141.09C441.182 140.83 440.612 140.59 440.022 140.36C439.432 140.13 438.872 139.91 438.292 139.7L436.602 139.12L434.962 138.55C434.432 138.39 433.892 138.24 433.362 138.11C432.832 137.98 432.362 137.85 431.802 137.73C431.242 137.61 430.802 137.51 430.282 137.41L428.812 137.15L427.392 136.93L426.012 136.77L424.682 136.64L423.412 136.55H422.832C415.962 136.24 413.472 133.23 412.832 129.88C411.892 124.66 416.182 119.98 421.482 119.83C479.042 118.19 501.372 191.97 504.852 204.96C504.993 205.482 504.925 206.038 504.664 206.512C504.403 206.986 503.969 207.34 503.452 207.5C502.964 207.649 502.438 207.617 501.971 207.409C501.504 207.202 501.128 206.832 500.912 206.37C500.742 205.9 500.522 205.42 500.282 204.94Z" fill="#42210B"/>
<path d="M483.45 305.931C468.92 335.803 446.281 360.987 418.119 378.605C389.958 396.224 357.409 405.567 324.19 405.567C290.971 405.567 258.422 396.224 230.26 378.605C202.098 360.987 179.46 335.803 164.93 305.931C211.38 322.151 265.93 331.491 324.19 331.491C382.45 331.491 437 322.151 483.45 305.931Z" fill="url(#paint8_radial_862_12540)"/>
<path d="M498.51 259.551C498.33 260.551 498.14 261.551 497.94 262.601C497.74 263.651 497.58 264.441 497.38 265.351C497.38 265.531 497.31 265.701 497.27 265.871C497.08 266.801 496.87 267.721 496.66 268.641C496.45 269.561 496.26 270.311 496.05 271.141C495.93 271.641 495.81 272.141 495.67 272.641C495.62 272.861 495.56 273.091 495.5 273.311C495.37 273.831 495.23 274.311 495.09 274.861C495.09 275.061 494.99 275.261 494.93 275.461C494.737 276.167 494.537 276.877 494.33 277.591C494.06 278.591 493.77 279.511 493.48 280.471V280.531C493.2 281.431 492.92 282.341 492.62 283.241C491.97 285.241 491.29 287.241 490.62 289.241C490.27 290.241 489.91 291.151 489.55 292.091C489.19 293.031 488.93 293.691 488.61 294.491C488.13 295.691 487.61 296.881 487.13 298.061C486.8 298.841 486.46 299.621 486.13 300.391L486.08 300.491C485.75 301.241 485.41 301.981 485.08 302.721L484.54 303.881C484.21 304.581 483.88 305.281 483.54 305.971C437.09 322.191 382.54 331.531 324.28 331.531C266.02 331.531 211.47 322.191 165.02 305.971C164.68 305.281 164.35 304.581 164.02 303.881L163.48 302.721C163.14 301.981 162.8 301.241 162.48 300.491L162.43 300.391C162.09 299.621 161.75 298.841 161.43 298.061C160.92 296.881 160.43 295.691 159.95 294.491C159.63 293.691 159.32 292.891 159.01 292.091C158.7 291.291 158.29 290.201 157.94 289.241C157.22 287.241 156.54 285.291 155.89 283.241C155.59 282.341 155.31 281.431 155.03 280.531V280.471C154.74 279.471 154.45 278.551 154.18 277.591C153.967 276.884 153.767 276.174 153.58 275.461C153.52 275.261 153.47 275.061 153.42 274.861C153.28 274.351 153.14 273.861 153.01 273.311C152.95 273.091 152.89 272.861 152.84 272.641C152.7 272.141 152.58 271.641 152.46 271.141C152.25 270.311 152.05 269.471 151.85 268.641C151.65 267.811 151.43 266.801 151.24 265.871C151.24 265.701 151.16 265.531 151.13 265.351C150.93 264.441 150.75 263.521 150.57 262.601C150.39 261.681 150.18 260.601 150 259.551C199.54 279.201 259.6 290.711 324.32 290.711C389.04 290.711 448.97 279.201 498.51 259.551Z" fill="url(#paint9_linear_862_12540)"/>
<path d="M483.45 305.931C437 322.151 382.45 331.491 324.19 331.491C265.93 331.491 211.38 322.151 164.93 305.931" stroke="url(#paint10_radial_862_12540)" stroke-width="6" stroke-miterlimit="10"/>
<mask id="mask1_862_12540" style="mask-type:alpha" maskUnits="userSpaceOnUse" x="150" y="260" width="348" height="145">
<path d="M492.969 260.701C493.521 260.491 494.119 260.434 494.701 260.535C495.283 260.636 495.827 260.891 496.276 261.275C496.725 261.658 497.063 262.156 497.253 262.715C497.444 263.274 497.48 263.873 497.359 264.451C488.897 304.101 467.084 339.647 435.566 365.148C404.048 390.65 364.732 404.563 324.189 404.563C283.646 404.563 244.331 390.65 212.813 365.148C181.294 339.647 159.481 304.101 151.019 264.451C150.898 263.873 150.935 263.274 151.125 262.715C151.316 262.156 151.653 261.658 152.102 261.275C152.551 260.891 153.095 260.636 153.677 260.535C154.259 260.434 154.857 260.491 155.409 260.701C203.859 279.041 261.859 289.701 324.189 289.701C386.519 289.701 444.519 279.041 492.969 260.701Z" fill="url(#paint11_linear_862_12540)"/>
</mask>
<g mask="url(#mask1_862_12540)">
<g filter="url(#filter2_f_862_12540)">
<path d="M492.969 260.701C493.521 260.491 494.119 260.434 494.701 260.535C495.283 260.636 495.827 260.891 496.276 261.275C496.725 261.658 497.063 262.156 497.253 262.715C497.444 263.274 497.48 263.873 497.359 264.451C488.897 304.101 467.084 339.647 435.566 365.148C404.047 390.65 364.732 404.563 324.189 404.563C283.646 404.563 244.331 390.65 212.813 365.148C181.294 339.647 159.481 304.101 151.019 264.451C150.898 263.873 150.935 263.274 151.125 262.715C151.316 262.156 151.653 261.658 152.102 261.275C152.551 260.891 153.095 260.636 153.677 260.535C154.259 260.434 154.857 260.491 155.409 260.701C203.859 279.041 261.859 289.701 324.189 289.701C386.519 289.701 444.519 279.041 492.969 260.701Z" stroke="url(#paint12_linear_862_12540)" stroke-width="12" stroke-miterlimit="10"/>
</g>
</g>
<path d="M502.006 266.434L502.005 266.443C493.315 307.157 470.918 343.655 438.554 369.841C406.19 396.027 365.82 410.313 324.189 410.313C282.559 410.313 242.189 396.027 209.825 369.841C177.461 343.655 155.063 307.157 146.374 266.443L146.372 266.434L146.37 266.426C146.074 265.014 146.164 263.547 146.629 262.182M502.006 266.434L146.629 262.182M502.006 266.434L502.008 266.426M502.006 266.434L502.008 266.426M146.629 262.182C147.095 260.816 147.92 259.6 149.017 258.663C150.115 257.726 151.444 257.101 152.866 256.855C154.286 256.608 155.746 256.748 157.094 257.26M146.629 262.182L157.094 257.26M502.008 266.426C502.304 265.014 502.215 263.548 501.749 262.182C501.283 260.816 500.458 259.6 499.361 258.663C498.264 257.726 496.935 257.101 495.513 256.855C494.091 256.608 492.629 256.749 491.28 257.262C443.415 275.379 385.993 285.951 324.189 285.951C262.384 285.951 204.96 275.379 157.094 257.26M502.008 266.426L157.094 257.26" stroke="url(#paint13_linear_862_12540)" stroke-width="9.5" stroke-miterlimit="10"/>
<path d="M492.969 261.701C493.521 261.491 494.119 261.434 494.701 261.535C495.283 261.636 495.827 261.891 496.276 262.275C496.725 262.658 497.063 263.156 497.253 263.715C497.444 264.274 497.48 264.873 497.359 265.451C488.897 305.101 467.084 340.647 435.566 366.148C404.047 391.65 364.732 405.563 324.189 405.563C283.646 405.563 244.331 391.65 212.813 366.148C181.294 340.647 159.481 305.101 151.019 265.451C150.898 264.873 150.935 264.274 151.125 263.715C151.316 263.156 151.653 262.658 152.102 262.275C152.551 261.891 153.095 261.636 153.677 261.535C154.259 261.434 154.857 261.491 155.409 261.701C203.859 280.041 261.859 290.701 324.189 290.701C386.519 290.701 444.519 280.041 492.969 261.701Z" stroke="url(#paint14_linear_862_12540)" stroke-width="12" stroke-miterlimit="10"/>
<mask id="mask2_862_12540" style="mask-type:alpha" maskUnits="userSpaceOnUse" x="83" y="0" width="483" height="483">
<path d="M324.18 482.36C457.38 482.36 565.36 374.38 565.36 241.18C565.36 107.98 457.38 0 324.18 0C190.98 0 83 107.98 83 241.18C83 374.38 190.98 482.36 324.18 482.36Z" fill="url(#paint15_radial_862_12540)"/>
</mask>
<g mask="url(#mask2_862_12540)">
<g opacity="0.8" filter="url(#filter3_f_862_12540)">
<path d="M597.614 303.092C574.852 279.722 470.893 257.632 470.893 257.632C470.893 257.632 490.204 362.107 512.959 385.484C523.935 396.484 538.803 402.715 554.341 402.829C569.88 402.943 584.837 396.929 595.973 386.091C607.108 375.254 613.525 360.464 613.832 344.929C614.139 329.393 608.312 314.362 597.614 303.092Z" fill="#42210B"/>
</g>
<g opacity="0.8" filter="url(#filter4_f_862_12540)">
<path d="M50.6844 303.092C73.4461 279.722 177.405 257.632 177.405 257.632C177.405 257.632 158.094 362.107 135.339 385.484C124.364 396.484 109.496 402.715 93.9572 402.829C78.4187 402.943 63.4612 396.929 52.3257 386.091C41.1902 375.254 34.7737 360.464 34.4665 344.929C34.1593 329.393 39.9861 314.362 50.6844 303.092Z" fill="#42210B"/>
</g>
</g>
<path d="M40.6844 293.092C63.4461 269.722 167.405 247.632 167.405 247.632C167.405 247.632 148.094 352.107 125.339 375.484C114.364 386.484 99.4956 392.715 83.9572 392.829C68.4187 392.943 53.4612 386.929 42.3257 376.091C31.1902 365.254 24.7737 350.464 24.4665 334.929C24.1593 319.393 29.9861 304.362 40.6844 293.092Z" fill="url(#paint16_linear_862_12540)"/>
<mask id="mask3_862_12540" style="mask-type:alpha" maskUnits="userSpaceOnUse" x="24" y="247" width="144" height="146">
<path d="M40.6844 293.092C63.4461 269.722 167.405 247.632 167.405 247.632C167.405 247.632 148.094 352.107 125.339 375.484C114.364 386.484 99.4956 392.715 83.9572 392.829C68.4187 392.943 53.4612 386.929 42.3257 376.091C31.1902 365.254 24.7737 350.464 24.4665 334.929C24.1593 319.393 29.9861 304.362 40.6844 293.092Z" fill="url(#paint17_linear_862_12540)"/>
</mask>
<g mask="url(#mask3_862_12540)">
<g filter="url(#filter5_f_862_12540)">
<path d="M34.1338 380.247C-16.4253 329.688 30.5998 271.354 57.8232 273.122C46.156 284.789 13.6291 328.63 49.6902 364.691C81.1578 396.158 128.534 378.48 144.09 359.389C149.393 389.441 84.6932 430.806 34.1338 380.247Z" fill="#7CD3FF"/>
</g>
</g>
<g filter="url(#filter6_f_862_12540)">
<path d="M74.9325 308.339C88.3177 294.707 141.863 274.43 141.863 274.43C141.863 274.43 122.918 327.982 109.536 341.617C103.105 348.057 95.172 352.481 87.4546 353.931C79.7371 355.38 72.8572 353.738 68.3055 349.361C63.7539 344.983 61.8971 338.223 63.1375 330.545C64.3779 322.866 68.6157 314.888 74.9325 308.339Z" fill="white"/>
</g>
<path d="M607.614 293.092C584.852 269.722 480.893 247.632 480.893 247.632C480.893 247.632 500.204 352.107 522.959 375.484C533.935 386.484 548.803 392.715 564.341 392.829C579.88 392.943 594.837 386.929 605.973 376.091C617.108 365.254 623.525 350.464 623.832 334.929C624.139 319.393 618.312 304.362 607.614 293.092Z" fill="url(#paint18_linear_862_12540)"/>
<mask id="mask4_862_12540" style="mask-type:alpha" maskUnits="userSpaceOnUse" x="480" y="247" width="144" height="146">
<path d="M607.614 293.092C584.852 269.722 480.893 247.632 480.893 247.632C480.893 247.632 500.204 352.107 522.959 375.484C533.935 386.484 548.803 392.715 564.341 392.829C579.88 392.943 594.837 386.929 605.973 376.091C617.108 365.254 623.525 350.464 623.832 334.929C624.139 319.393 618.312 304.362 607.614 293.092Z" fill="url(#paint19_linear_862_12540)"/>
</mask>
<g mask="url(#mask4_862_12540)">
<g filter="url(#filter7_f_862_12540)">
<path d="M614.165 380.247C664.724 329.688 617.699 271.354 590.475 273.122C602.142 284.789 634.669 328.63 598.608 364.691C567.141 396.158 519.765 378.48 504.208 359.389C498.905 389.441 563.605 430.806 614.165 380.247Z" fill="#7CD3FF"/>
</g>
</g>
<g filter="url(#filter8_f_862_12540)">
<path d="M573.366 308.339C559.981 294.707 506.436 274.43 506.436 274.43C506.436 274.43 525.38 327.982 538.763 341.617C545.193 348.057 553.126 352.481 560.844 353.931C568.561 355.38 575.441 353.738 579.993 349.361C584.544 344.983 586.401 338.223 585.161 330.545C583.92 322.866 579.683 314.888 573.366 308.339Z" fill="white"/>
</g>
<defs>
<filter id="filter0_f_862_12540" x="56.1851" y="206.559" width="535.022" height="306.595" filterUnits="userSpaceOnUse" color-interpolation-filters="sRGB">
<feFlood flood-opacity="0" result="BackgroundImageFix"/>
<feBlend mode="normal" in="SourceGraphic" in2="BackgroundImageFix" result="shape"/>
<feGaussianBlur stdDeviation="12.5" result="effect1_foregroundBlur_862_12540"/>
</filter>
<filter id="filter1_f_862_12540" x="41.1851" y="191.559" width="565.022" height="336.595" filterUnits="userSpaceOnUse" color-interpolation-filters="sRGB">
<feFlood flood-opacity="0" result="BackgroundImageFix"/>
<feBlend mode="normal" in="SourceGraphic" in2="BackgroundImageFix" result="shape"/>
<feGaussianBlur stdDeviation="20" result="effect1_foregroundBlur_862_12540"/>
</filter>
<filter id="filter2_f_862_12540" x="134.949" y="244.486" width="378.48" height="176.076" filterUnits="userSpaceOnUse" color-interpolation-filters="sRGB">
<feFlood flood-opacity="0" result="BackgroundImageFix"/>
<feBlend mode="normal" in="SourceGraphic" in2="BackgroundImageFix" result="shape"/>
<feGaussianBlur stdDeviation="5" result="effect1_foregroundBlur_862_12540"/>
</filter>
<filter id="filter3_f_862_12540" x="440.894" y="227.632" width="202.95" height="205.199" filterUnits="userSpaceOnUse" color-interpolation-filters="sRGB">
<feFlood flood-opacity="0" result="BackgroundImageFix"/>
<feBlend mode="normal" in="SourceGraphic" in2="BackgroundImageFix" result="shape"/>
<feGaussianBlur stdDeviation="15" result="effect1_foregroundBlur_862_12540"/>
</filter>
<filter id="filter4_f_862_12540" x="4.45508" y="227.632" width="202.95" height="205.199" filterUnits="userSpaceOnUse" color-interpolation-filters="sRGB">
<feFlood flood-opacity="0" result="BackgroundImageFix"/>
<feBlend mode="normal" in="SourceGraphic" in2="BackgroundImageFix" result="shape"/>
<feGaussianBlur stdDeviation="15" result="effect1_foregroundBlur_862_12540"/>
</filter>
<filter id="filter5_f_862_12540" x="-4.27197" y="257.082" width="164.668" height="162.913" filterUnits="userSpaceOnUse" color-interpolation-filters="sRGB">
<feFlood flood-opacity="0" result="BackgroundImageFix"/>
<feBlend mode="normal" in="SourceGraphic" in2="BackgroundImageFix" result="shape"/>
<feGaussianBlur stdDeviation="8" result="effect1_foregroundBlur_862_12540"/>
</filter>
<filter id="filter6_f_862_12540" x="22.7617" y="234.43" width="159.101" height="160.016" filterUnits="userSpaceOnUse" color-interpolation-filters="sRGB">
<feFlood flood-opacity="0" result="BackgroundImageFix"/>
<feBlend mode="normal" in="SourceGraphic" in2="BackgroundImageFix" result="shape"/>
<feGaussianBlur stdDeviation="20" result="effect1_foregroundBlur_862_12540"/>
</filter>
<filter id="filter7_f_862_12540" x="487.902" y="257.082" width="164.668" height="162.913" filterUnits="userSpaceOnUse" color-interpolation-filters="sRGB">
<feFlood flood-opacity="0" result="BackgroundImageFix"/>
<feBlend mode="normal" in="SourceGraphic" in2="BackgroundImageFix" result="shape"/>
<feGaussianBlur stdDeviation="8" result="effect1_foregroundBlur_862_12540"/>
</filter>
<filter id="filter8_f_862_12540" x="466.436" y="234.43" width="159.101" height="160.016" filterUnits="userSpaceOnUse" color-interpolation-filters="sRGB">
<feFlood flood-opacity="0" result="BackgroundImageFix"/>
<feBlend mode="normal" in="SourceGraphic" in2="BackgroundImageFix" result="shape"/>
<feGaussianBlur stdDeviation="20" result="effect1_foregroundBlur_862_12540"/>
</filter>
<radialGradient id="paint0_radial_862_12540" cx="0" cy="0" r="1" gradientUnits="userSpaceOnUse" gradientTransform="translate(324 -4.53898e-06) rotate(90) scale(482)">
<stop stop-color="#FFDE43"/>
<stop offset="1" stop-color="#FFBC00"/>
</radialGradient>
<radialGradient id="paint1_radial_862_12540" cx="0" cy="0" r="1" gradientUnits="userSpaceOnUse" gradientTransform="translate(324 64.5) rotate(90) scale(417.5)">
<stop stop-color="white" stop-opacity="0.5"/>
<stop offset="0.782278"/>
</radialGradient>
<radialGradient id="paint2_radial_862_12540" cx="0" cy="0" r="1" gradientUnits="userSpaceOnUse" gradientTransform="translate(324 64.5) rotate(90) scale(417.5)">
<stop stop-color="white" stop-opacity="0.5"/>
<stop offset="0.782278"/>
</radialGradient>
<radialGradient id="paint3_radial_862_12540" cx="0" cy="0" r="1" gradientUnits="userSpaceOnUse" gradientTransform="translate(324 -52.5) rotate(90) scale(534.5 722.835)">
<stop offset="0.0922635" stop-color="white"/>
<stop offset="0.670207" stop-color="white" stop-opacity="0"/>
</radialGradient>
<radialGradient id="paint4_radial_862_12540" cx="0" cy="0" r="1" gradientUnits="userSpaceOnUse" gradientTransform="translate(220.472 204.239) scale(81.4899 19.6848)">
<stop stop-color="#743C1C"/>
<stop offset="1" stop-color="#401C02"/>
</radialGradient>
<radialGradient id="paint5_radial_862_12540" cx="0" cy="0" r="1" gradientUnits="userSpaceOnUse" gradientTransform="translate(428.246 204.239) scale(81.4898 19.6848)">
<stop stop-color="#743C1C"/>
<stop offset="1" stop-color="#401C02"/>
</radialGradient>
<linearGradient id="paint6_linear_862_12540" x1="220.561" y1="225.009" x2="220.561" y2="183.337" gradientUnits="userSpaceOnUse">
<stop stop-color="#FFDE43"/>
<stop offset="0.22" stop-color="#FED93F"/>
<stop offset="0.51" stop-color="#FCC934"/>
<stop offset="0.82" stop-color="#F9AF21"/>
<stop offset="1" stop-color="#F79D14"/>
</linearGradient>
<linearGradient id="paint7_linear_862_12540" x1="428.334" y1="225.009" x2="428.334" y2="183.337" gradientUnits="userSpaceOnUse">
<stop stop-color="#FFDE43"/>
<stop offset="0.22" stop-color="#FED93F"/>
<stop offset="0.51" stop-color="#FCC934"/>
<stop offset="0.82" stop-color="#F9AF21"/>
<stop offset="1" stop-color="#F79D14"/>
</linearGradient>
<radialGradient id="paint8_radial_862_12540" cx="0" cy="0" r="1" gradientUnits="userSpaceOnUse" gradientTransform="translate(324.19 355.547) scale(120.213 100.638)">
<stop stop-color="#743C1C"/>
<stop offset="1" stop-color="#401C02"/>
</radialGradient>
<linearGradient id="paint9_linear_862_12540" x1="149.866" y1="295.554" x2="498.51" y2="295.554" gradientUnits="userSpaceOnUse">
<stop stop-color="#CCCCCC"/>
<stop offset="0.05" stop-color="#D5D5D5"/>
<stop offset="0.2" stop-color="#E9E9E9"/>
<stop offset="0.35" stop-color="#F6F6F6"/>
<stop offset="0.5" stop-color="#FAFAFA"/>
<stop offset="0.65" stop-color="#F6F6F6"/>
<stop offset="0.8" stop-color="#E9E9E9"/>
<stop offset="0.95" stop-color="#D5D5D5"/>
<stop offset="1" stop-color="#CCCCCC"/>
</linearGradient>
<radialGradient id="paint10_radial_862_12540" cx="0" cy="0" r="1" gradientUnits="userSpaceOnUse" gradientTransform="translate(324.19 318.791) scale(113.86 113.86)">
<stop stop-color="#401C02"/>
<stop offset="1" stop-color="#401C02"/>
</radialGradient>
<linearGradient id="paint11_linear_862_12540" x1="174186" y1="92638.1" x2="174186" y2="70149.2" gradientUnits="userSpaceOnUse">
<stop stop-color="#401C02"/>
<stop offset="1" stop-color="#401C02"/>
</linearGradient>
<linearGradient id="paint12_linear_862_12540" x1="174186" y1="92638.1" x2="174186" y2="70149.2" gradientUnits="userSpaceOnUse">
<stop stop-color="#401C02"/>
<stop offset="1" stop-color="#401C02"/>
</linearGradient>
<linearGradient id="paint13_linear_862_12540" x1="324.189" y1="409.617" x2="324.189" y2="256.85" gradientUnits="userSpaceOnUse">
<stop offset="0.265625" stop-color="#FFDE43"/>
<stop offset="1" stop-color="#F79D14"/>
</linearGradient>
<linearGradient id="paint14_linear_862_12540" x1="174186" y1="92639.1" x2="174186" y2="70150.2" gradientUnits="userSpaceOnUse">
<stop stop-color="#401C02"/>
<stop offset="1" stop-color="#401C02"/>
</linearGradient>
<radialGradient id="paint15_radial_862_12540" cx="0" cy="0" r="1" gradientUnits="userSpaceOnUse" gradientTransform="translate(324 -4.53898e-06) rotate(90) scale(482)">
<stop stop-color="#FFDE43"/>
<stop offset="1" stop-color="#FFBC00"/>
</radialGradient>
<linearGradient id="paint16_linear_862_12540" x1="37.5594" y1="387.131" x2="163.573" y2="258.571" gradientUnits="userSpaceOnUse">
<stop offset="0.0736292" stop-color="#0048FF"/>
<stop offset="0.223403" stop-color="#006DFF"/>
<stop offset="0.403627" stop-color="#0090FE"/>
<stop offset="0.535088" stop-color="#00ACFE"/>
<stop offset="0.65" stop-color="#00BFFE"/>
<stop offset="0.82" stop-color="#00CBFE"/>
<stop offset="1" stop-color="#00CFFE"/>
</linearGradient>
<linearGradient id="paint17_linear_862_12540" x1="37.5594" y1="387.131" x2="163.573" y2="258.571" gradientUnits="userSpaceOnUse">
<stop stop-color="#0048FF"/>
<stop offset="0.14" stop-color="#006DFF"/>
<stop offset="0.31" stop-color="#0090FE"/>
<stop offset="0.48" stop-color="#00ACFE"/>
<stop offset="0.65" stop-color="#00BFFE"/>
<stop offset="0.82" stop-color="#00CBFE"/>
<stop offset="1" stop-color="#00CFFE"/>
</linearGradient>
<linearGradient id="paint18_linear_862_12540" x1="610.739" y1="387.131" x2="484.725" y2="258.571" gradientUnits="userSpaceOnUse">
<stop offset="0.0736292" stop-color="#0048FF"/>
<stop offset="0.223403" stop-color="#006DFF"/>
<stop offset="0.403627" stop-color="#0090FE"/>
<stop offset="0.535088" stop-color="#00ACFE"/>
<stop offset="0.65" stop-color="#00BFFE"/>
<stop offset="0.82" stop-color="#00CBFE"/>
<stop offset="1" stop-color="#00CFFE"/>
</linearGradient>
<linearGradient id="paint19_linear_862_12540" x1="610.739" y1="387.131" x2="484.725" y2="258.571" gradientUnits="userSpaceOnUse">
<stop stop-color="#0048FF"/>
<stop offset="0.14" stop-color="#006DFF"/>
<stop offset="0.31" stop-color="#0090FE"/>
<stop offset="0.48" stop-color="#00ACFE"/>
<stop offset="0.65" stop-color="#00BFFE"/>
<stop offset="0.82" stop-color="#00CBFE"/>
<stop offset="1" stop-color="#00CFFE"/>
</linearGradient>
</defs>
</svg>
