<svg width="483" height="483" viewBox="0 0 483 483" fill="none" xmlns="http://www.w3.org/2000/svg">
<path d="M241.18 482.36C374.38 482.36 482.36 374.38 482.36 241.18C482.36 107.98 374.38 0 241.18 0C107.98 0 0 107.98 0 241.18C0 374.38 107.98 482.36 241.18 482.36Z" fill="url(#paint0_radial_862_12510)"/>
<g style="mix-blend-mode:soft-light">
<path d="M241.18 482.36C374.38 482.36 482.36 374.38 482.36 241.18C482.36 107.98 374.38 0 241.18 0C107.98 0 0 107.98 0 241.18C0 374.38 107.98 482.36 241.18 482.36Z" fill="url(#paint1_radial_862_12510)"/>
</g>
<g style="mix-blend-mode:soft-light">
<path d="M241.18 482.36C374.38 482.36 482.36 374.38 482.36 241.18C482.36 107.98 374.38 0 241.18 0C107.98 0 0 107.98 0 241.18C0 374.38 107.98 482.36 241.18 482.36Z" fill="url(#paint2_radial_862_12510)"/>
</g>
<g style="mix-blend-mode:overlay">
<path d="M241.18 482.36C374.38 482.36 482.36 374.38 482.36 241.18C482.36 107.98 374.38 0 241.18 0C107.98 0 0 107.98 0 241.18C0 374.38 107.98 482.36 241.18 482.36Z" fill="url(#paint3_radial_862_12510)" fill-opacity="0.7"/>
</g>
<mask id="mask0_862_12510" style="mask-type:alpha" maskUnits="userSpaceOnUse" x="0" y="0" width="483" height="483">
<path d="M241.18 482.36C374.38 482.36 482.36 374.38 482.36 241.18C482.36 107.98 374.38 0 241.18 0C107.98 0 0 107.98 0 241.18C0 374.38 107.98 482.36 241.18 482.36Z" fill="white"/>
</mask>
<g mask="url(#mask0_862_12510)">
<g filter="url(#filter0_f_862_12510)">
<path d="M-1.3759 234.299C-1.11402 230.872 0.0137008 230.529 0.342619 234.008C0.708055 237.874 -0.00231624 245.646 0.16871 250.335C0.621554 262.748 2.52441 273.541 4.48605 282.32C10.8075 310.612 19.5617 328.843 27.7268 344.288C54.5663 395.06 83.9667 420.77 112.648 440.147C154.689 468.549 197.072 477.584 239.49 479.5C240.56 479.548 240.738 486.518 239.686 487.425C237.788 489.061 235.436 487.437 233.494 487.369C227.915 487.174 222.335 486.791 216.756 486.211C200.213 484.492 183.67 480.991 167.162 475.358C122.275 460.044 73.8765 433.821 31.6092 359.962C28.9502 355.316 26.3124 350.424 23.7118 345.167C21.6321 340.963 19.5726 336.556 17.5493 331.843C10.8946 316.342 -4.61323 276.658 -1.3759 234.299ZM239.52 487.5C238.499 487.531 238.241 481.034 239.214 479.685C240.684 477.647 242.888 479.326 244.439 479.229C250.877 478.826 257.314 478.229 263.75 477.421C281.395 475.205 299.028 471.422 316.621 465.596C360.257 451.145 407.17 429.115 448.305 361.431C450.923 357.123 453.518 352.553 456.079 347.641C463.86 332.712 483.361 293.084 481.107 243.821C480.917 239.668 482.181 237.181 482.747 240.743C483.467 245.279 483.175 254.736 482.977 259.768C482.341 275.883 479.866 289.512 477.257 300.518C468.987 335.399 457.376 355.623 446.744 372.51C412.184 427.397 374.648 449.524 338.155 465.424C305.424 479.686 272.444 486.484 239.52 487.5Z" fill="#401C02"/>
</g>
<g filter="url(#filter1_f_862_12510)">
<path d="M-1.3759 234.299C-1.11402 230.872 0.0137008 230.529 0.342619 234.008C0.708055 237.874 -0.00231624 245.646 0.16871 250.335C0.621554 262.748 2.52441 273.541 4.48605 282.32C10.8075 310.612 19.5617 328.843 27.7268 344.288C54.5663 395.06 83.9667 420.77 112.648 440.147C154.689 468.549 197.072 477.584 239.49 479.5C240.56 479.548 240.738 486.518 239.686 487.425C237.788 489.061 235.436 487.437 233.494 487.369C227.915 487.174 222.335 486.791 216.756 486.211C200.213 484.492 183.67 480.991 167.162 475.358C122.275 460.044 73.8765 433.821 31.6092 359.962C28.9502 355.316 26.3124 350.424 23.7118 345.167C21.6321 340.963 19.5726 336.556 17.5493 331.843C10.8946 316.342 -4.61323 276.658 -1.3759 234.299ZM239.52 487.5C238.499 487.531 238.241 481.034 239.214 479.685C240.684 477.647 242.888 479.326 244.439 479.229C250.877 478.826 257.314 478.229 263.75 477.421C281.395 475.205 299.028 471.422 316.621 465.596C360.257 451.145 407.17 429.115 448.305 361.431C450.923 357.123 453.518 352.553 456.079 347.641C463.86 332.712 483.361 293.084 481.107 243.821C480.917 239.668 482.181 237.181 482.747 240.743C483.467 245.279 483.175 254.736 482.977 259.768C482.341 275.883 479.866 289.512 477.257 300.518C468.987 335.399 457.376 355.623 446.744 372.51C412.184 427.397 374.648 449.524 338.155 465.424C305.424 479.686 272.444 486.484 239.52 487.5Z" fill="#401C02"/>
</g>
</g>
<path d="M198.21 224.15C198.243 231.96 197.024 239.726 194.6 247.15C194.347 247.986 193.837 248.72 193.142 249.248C192.447 249.776 191.602 250.071 190.73 250.09V250.09C189.74 250.051 188.795 249.664 188.063 248.996C187.331 248.328 186.859 247.423 186.73 246.44C183.98 229.98 173.29 217.71 160.52 217.71C147.75 217.71 137.07 229.98 134.32 246.44C134.191 247.423 133.718 248.328 132.987 248.996C132.255 249.664 131.31 250.051 130.32 250.09C129.447 250.071 128.603 249.776 127.908 249.248C127.213 248.72 126.703 247.986 126.45 247.15C124.02 239.727 122.801 231.961 122.84 224.15C122.84 194.5 139.73 170.45 160.56 170.45C181.39 170.45 198.21 194.5 198.21 224.15Z" stroke="url(#paint4_linear_862_12510)" stroke-width="2"/>
<path d="M356.321 224.15C356.359 231.961 355.14 239.727 352.711 247.15C352.46 247.985 351.951 248.719 351.258 249.247C350.565 249.775 349.722 250.07 348.851 250.09C347.861 250.049 346.918 249.661 346.186 248.994C345.454 248.326 344.982 247.422 344.851 246.44C342.111 229.98 331.421 217.71 318.651 217.71C305.881 217.71 295.191 229.98 292.451 246.44C292.32 247.422 291.847 248.326 291.115 248.994C290.384 249.661 289.44 250.049 288.451 250.09V250.09C287.578 250.071 286.734 249.776 286.039 249.248C285.344 248.72 284.833 247.986 284.581 247.15C282.151 239.727 280.932 231.961 280.971 224.15C280.971 194.5 297.851 170.45 318.691 170.45C339.531 170.45 356.321 194.5 356.321 224.15Z" stroke="url(#paint5_linear_862_12510)" stroke-width="2"/>
<path d="M198.21 224.15C198.243 231.96 197.024 239.726 194.6 247.15C194.347 247.986 193.837 248.72 193.142 249.248C192.447 249.776 191.602 250.071 190.73 250.09C189.74 250.051 188.795 249.664 188.063 248.996C187.331 248.328 186.859 247.423 186.73 246.44C183.98 229.98 173.29 217.71 160.52 217.71C147.75 217.71 137.07 229.98 134.32 246.44C134.191 247.423 133.719 248.328 132.987 248.996C132.255 249.664 131.31 250.051 130.32 250.09C129.447 250.071 128.603 249.776 127.908 249.248C127.213 248.72 126.703 247.986 126.45 247.15C124.02 239.727 122.801 231.961 122.84 224.15C122.84 194.5 139.73 170.45 160.56 170.45C181.39 170.45 198.21 194.5 198.21 224.15Z" fill="url(#paint6_radial_862_12510)"/>
<path d="M356.321 224.15C356.359 231.961 355.14 239.727 352.711 247.15C352.46 247.985 351.951 248.719 351.258 249.247C350.565 249.775 349.722 250.07 348.851 250.09C347.861 250.049 346.918 249.661 346.186 248.994C345.454 248.326 344.982 247.422 344.851 246.44C342.111 229.98 331.421 217.71 318.651 217.71C305.881 217.71 295.191 229.98 292.451 246.44C292.32 247.422 291.847 248.326 291.115 248.994C290.384 249.661 289.44 250.049 288.451 250.09C287.578 250.071 286.734 249.776 286.039 249.248C285.344 248.72 284.833 247.986 284.581 247.15C282.151 239.727 280.932 231.961 280.971 224.15C280.971 194.5 297.851 170.45 318.691 170.45C339.531 170.45 356.321 194.5 356.321 224.15Z" fill="url(#paint7_radial_862_12510)"/>
<path d="M239.55 411.23C168.46 411.23 105.03 363.12 81.6999 291.51C81.066 289.56 81.233 287.437 82.1641 285.61C83.0952 283.782 84.7142 282.399 86.6649 281.765C88.6155 281.131 90.7381 281.298 92.5656 282.23C94.3932 283.161 95.776 284.78 96.4099 286.73C117.65 351.95 175.21 395.82 239.55 395.82C303.89 395.82 361.45 352 382.7 286.82C383.36 284.904 384.747 283.324 386.561 282.42C388.375 281.516 390.471 281.361 392.398 281.988C394.326 282.615 395.93 283.973 396.865 285.771C397.801 287.569 397.993 289.662 397.4 291.6C374.08 363.12 310.64 411.23 239.55 411.23Z" stroke="url(#paint8_linear_862_12510)" stroke-width="2" stroke-miterlimit="10"/>
<path d="M239.55 411.23C168.46 411.23 105.03 363.12 81.6999 291.51C81.066 289.56 81.233 287.437 82.1641 285.61C83.0952 283.782 84.7142 282.399 86.6649 281.765C88.6155 281.131 90.7381 281.298 92.5656 282.23C94.3932 283.161 95.776 284.78 96.4099 286.73C117.65 351.95 175.21 395.82 239.55 395.82C303.89 395.82 361.45 352 382.7 286.82C383.36 284.904 384.747 283.324 386.561 282.42C388.375 281.516 390.471 281.361 392.398 281.988C394.326 282.615 395.93 283.973 396.865 285.771C397.801 287.569 397.993 289.662 397.4 291.6C374.08 363.12 310.64 411.23 239.55 411.23Z" fill="url(#paint9_radial_862_12510)"/>
<mask id="mask1_862_12510" style="mask-type:alpha" maskUnits="userSpaceOnUse" x="81" y="255" width="399" height="205">
<path fill-rule="evenodd" clip-rule="evenodd" d="M479.18 280.838L405 255L396.069 284.541C395.13 283.355 393.857 282.462 392.398 281.988C390.471 281.361 388.375 281.516 386.561 282.42C384.747 283.324 383.36 284.904 382.7 286.82C361.45 352 303.89 395.82 239.55 395.82C175.21 395.82 117.65 351.95 96.4099 286.73C95.776 284.78 94.3932 283.161 92.5656 282.23C90.7381 281.298 88.6155 281.131 86.6649 281.765C84.7142 282.399 83.0952 283.782 82.1641 285.61C81.233 287.437 81.066 289.56 81.6999 291.51C105.03 363.12 168.46 411.23 239.55 411.23C259.225 411.23 278.314 407.545 296.129 400.699L342.901 460C413.822 426.981 466.015 360.494 479.18 280.838Z" fill="black"/>
</mask>
<g mask="url(#mask1_862_12510)">
<g style="mix-blend-mode:multiply" filter="url(#filter2_f_862_12510)">
<path d="M459.552 417.849C443.025 439.133 410.939 441.778 387.746 423.768L317.329 369.087L377.04 292.192L447.457 346.873C470.65 364.883 476.034 396.624 459.552 417.849Z" fill="#42210B"/>
</g>
</g>
<mask id="mask2_862_12510" style="mask-type:alpha" maskUnits="userSpaceOnUse" x="81" y="281" width="398" height="164">
<path fill-rule="evenodd" clip-rule="evenodd" d="M81.6999 291.51C105.03 363.12 168.46 411.23 239.55 411.23C272.076 411.23 303.001 401.159 329.214 383.382L406 445L460 432L479 405L468 352L395.555 296.979C396.195 295.201 396.81 293.408 397.4 291.6C397.993 289.662 397.801 287.569 396.865 285.771C395.93 283.973 394.326 282.615 392.398 281.988C390.471 281.361 388.375 281.516 386.561 282.42C384.747 283.324 383.36 284.904 382.7 286.82C361.45 352 303.89 395.82 239.55 395.82C175.21 395.82 117.65 351.95 96.4099 286.73C95.776 284.78 94.3932 283.161 92.5656 282.23C90.7381 281.298 88.6155 281.131 86.6649 281.765C84.7142 282.399 83.0952 283.782 82.1641 285.61C81.233 287.437 81.066 289.56 81.6999 291.51Z" fill="black"/>
</mask>
<g mask="url(#mask2_862_12510)">
<mask id="mask3_862_12510" style="mask-type:alpha" maskUnits="userSpaceOnUse" x="272" y="238" width="208" height="208">
<path d="M351.379 333.545C328.18 363.419 301.648 387.465 274.94 404.388C274.22 404.814 273.65 405.436 273.293 406.186C272.936 406.936 272.807 407.785 272.918 408.641C273.03 409.496 273.378 410.325 273.925 411.035C274.472 411.745 275.197 412.31 276.019 412.668C320.894 432.108 437.91 467.189 470.1 425.735C502.29 384.282 439.303 279.623 409.363 240.949C408.814 240.241 408.087 239.679 407.263 239.325C406.44 238.97 405.551 238.838 404.694 238.942C403.838 239.046 403.047 239.382 402.408 239.913C401.77 240.445 401.309 241.151 401.075 241.954C391.298 272.015 374.572 303.676 351.379 333.545Z" fill="black"/>
</mask>
<g mask="url(#mask3_862_12510)">
<path d="M459.552 417.849C443.025 439.133 410.874 441.728 387.746 423.768L317.329 369.087L377.04 292.192L447.457 346.873C470.585 364.833 476.034 396.624 459.552 417.849Z" fill="url(#paint10_radial_862_12510)"/>
<g style="mix-blend-mode:multiply">
<path d="M459.552 417.849C443.025 439.133 410.939 441.778 387.746 423.768L317.329 369.087L377.04 292.192L447.457 346.873C470.65 364.883 476.034 396.624 459.552 417.849Z" fill="url(#paint11_radial_862_12510)"/>
</g>
<g style="mix-blend-mode:multiply" opacity="0.5" filter="url(#filter3_f_862_12510)">
<path d="M386.653 354.493L380.208 362.793L420.908 394.398L427.353 386.098L386.653 354.493Z" fill="#CF4F87"/>
</g>
</g>
</g>
<mask id="mask4_862_12510" style="mask-type:alpha" maskUnits="userSpaceOnUse" x="81" y="281" width="317" height="131">
<path d="M239.55 411.23C168.46 411.23 105.03 363.12 81.6999 291.51C81.066 289.56 81.233 287.437 82.1641 285.61C83.0952 283.782 84.7142 282.399 86.6649 281.765C88.6155 281.131 90.7381 281.298 92.5656 282.23C94.3932 283.161 95.776 284.78 96.4099 286.73C117.65 351.95 175.21 395.82 239.55 395.82C303.89 395.82 361.45 352 382.7 286.82C383.36 284.904 384.747 283.324 386.561 282.42C388.375 281.516 390.471 281.361 392.398 281.988C394.326 282.615 395.93 283.973 396.865 285.771C397.801 287.569 397.993 289.662 397.4 291.6C374.08 363.12 310.64 411.23 239.55 411.23Z" fill="url(#paint12_radial_862_12510)"/>
</mask>
<g mask="url(#mask4_862_12510)">
<g filter="url(#filter4_f_862_12510)">
<path d="M320.5 371C341.5 356 372 321 381 293" stroke="#42210B" stroke-width="5"/>
</g>
</g>
<defs>
<filter id="filter0_f_862_12510" x="-26.8149" y="206.558" width="535.022" height="306.595" filterUnits="userSpaceOnUse" color-interpolation-filters="sRGB">
<feFlood flood-opacity="0" result="BackgroundImageFix"/>
<feBlend mode="normal" in="SourceGraphic" in2="BackgroundImageFix" result="shape"/>
<feGaussianBlur stdDeviation="12.5" result="effect1_foregroundBlur_862_12510"/>
</filter>
<filter id="filter1_f_862_12510" x="-41.8149" y="191.558" width="565.022" height="336.595" filterUnits="userSpaceOnUse" color-interpolation-filters="sRGB">
<feFlood flood-opacity="0" result="BackgroundImageFix"/>
<feBlend mode="normal" in="SourceGraphic" in2="BackgroundImageFix" result="shape"/>
<feGaussianBlur stdDeviation="20" result="effect1_foregroundBlur_862_12510"/>
</filter>
<filter id="filter2_f_862_12510" x="297.329" y="272.192" width="191.771" height="183.526" filterUnits="userSpaceOnUse" color-interpolation-filters="sRGB">
<feFlood flood-opacity="0" result="BackgroundImageFix"/>
<feBlend mode="normal" in="SourceGraphic" in2="BackgroundImageFix" result="shape"/>
<feGaussianBlur stdDeviation="10" result="effect1_foregroundBlur_862_12510"/>
</filter>
<filter id="filter3_f_862_12510" x="360.208" y="334.493" width="87.1455" height="79.9053" filterUnits="userSpaceOnUse" color-interpolation-filters="sRGB">
<feFlood flood-opacity="0" result="BackgroundImageFix"/>
<feBlend mode="normal" in="SourceGraphic" in2="BackgroundImageFix" result="shape"/>
<feGaussianBlur stdDeviation="10" result="effect1_foregroundBlur_862_12510"/>
</filter>
<filter id="filter4_f_862_12510" x="307.047" y="280.235" width="88.333" height="104.799" filterUnits="userSpaceOnUse" color-interpolation-filters="sRGB">
<feFlood flood-opacity="0" result="BackgroundImageFix"/>
<feBlend mode="normal" in="SourceGraphic" in2="BackgroundImageFix" result="shape"/>
<feGaussianBlur stdDeviation="6" result="effect1_foregroundBlur_862_12510"/>
</filter>
<radialGradient id="paint0_radial_862_12510" cx="0" cy="0" r="1" gradientUnits="userSpaceOnUse" gradientTransform="translate(241 -4.53898e-06) rotate(90) scale(482)">
<stop stop-color="#FFDE43"/>
<stop offset="1" stop-color="#FFBC00"/>
</radialGradient>
<radialGradient id="paint1_radial_862_12510" cx="0" cy="0" r="1" gradientUnits="userSpaceOnUse" gradientTransform="translate(241 64.5) rotate(90) scale(417.5)">
<stop stop-color="white" stop-opacity="0.5"/>
<stop offset="0.782278"/>
</radialGradient>
<radialGradient id="paint2_radial_862_12510" cx="0" cy="0" r="1" gradientUnits="userSpaceOnUse" gradientTransform="translate(241 64.5) rotate(90) scale(417.5)">
<stop stop-color="white" stop-opacity="0.5"/>
<stop offset="0.782278"/>
</radialGradient>
<radialGradient id="paint3_radial_862_12510" cx="0" cy="0" r="1" gradientUnits="userSpaceOnUse" gradientTransform="translate(241 -52.5) rotate(90) scale(534.5 722.835)">
<stop offset="0.0922635" stop-color="white"/>
<stop offset="0.670207" stop-color="white" stop-opacity="0"/>
</radialGradient>
<linearGradient id="paint4_linear_862_12510" x1="160.525" y1="252.331" x2="160.525" y2="167.887" gradientUnits="userSpaceOnUse">
<stop stop-color="#FFDE43"/>
<stop offset="0.22" stop-color="#FED93F"/>
<stop offset="0.51" stop-color="#FCC934"/>
<stop offset="0.82" stop-color="#F9AF21"/>
<stop offset="1" stop-color="#F79D14"/>
</linearGradient>
<linearGradient id="paint5_linear_862_12510" x1="318.646" y1="252.331" x2="318.646" y2="167.887" gradientUnits="userSpaceOnUse">
<stop stop-color="#FFDE43"/>
<stop offset="0.22" stop-color="#FED93F"/>
<stop offset="0.51" stop-color="#FCC934"/>
<stop offset="0.82" stop-color="#F9AF21"/>
<stop offset="1" stop-color="#F79D14"/>
</linearGradient>
<radialGradient id="paint6_radial_862_12510" cx="0" cy="0" r="1" gradientUnits="userSpaceOnUse" gradientTransform="translate(160.472 210.244) scale(48.0402 39.8891)">
<stop stop-color="#743C1C"/>
<stop offset="1" stop-color="#401C02"/>
</radialGradient>
<radialGradient id="paint7_radial_862_12510" cx="0" cy="0" r="1" gradientUnits="userSpaceOnUse" gradientTransform="translate(318.593 210.244) scale(48.0276 39.8891)">
<stop stop-color="#743C1C"/>
<stop offset="1" stop-color="#401C02"/>
</radialGradient>
<linearGradient id="paint8_linear_862_12510" x1="239.53" y1="414.884" x2="239.53" y2="277.209" gradientUnits="userSpaceOnUse">
<stop offset="0.265625" stop-color="#FFDE43"/>
<stop offset="1" stop-color="#F79D14"/>
</linearGradient>
<radialGradient id="paint9_radial_862_12510" cx="0" cy="0" r="1" gradientUnits="userSpaceOnUse" gradientTransform="translate(239.53 346.046) scale(119.419 131.149)">
<stop stop-color="#743C1C"/>
<stop offset="1" stop-color="#401C02"/>
</radialGradient>
<radialGradient id="paint10_radial_862_12510" cx="0" cy="0" r="1" gradientUnits="userSpaceOnUse" gradientTransform="translate(395.961 367.302) rotate(-52.1696) scale(60.7539 79.846)">
<stop offset="0.3" stop-color="#F076AC"/>
<stop offset="0.4761" stop-color="#ED73A9"/>
<stop offset="0.6236" stop-color="#E2699F"/>
<stop offset="0.7609" stop-color="#D1588E"/>
<stop offset="1" stop-color="#B94176"/>
</radialGradient>
<radialGradient id="paint11_radial_862_12510" cx="0" cy="0" r="1" gradientUnits="userSpaceOnUse" gradientTransform="translate(403.362 374.262) rotate(-52.1696) scale(55.5927 185.088)">
<stop offset="0.2933" stop-color="#D86B9B" stop-opacity="0"/>
<stop offset="0.4603" stop-color="#D46998" stop-opacity="0.2363"/>
<stop offset="0.6135" stop-color="#C96491" stop-opacity="0.4531"/>
<stop offset="0.7614" stop-color="#B75B84" stop-opacity="0.6623"/>
<stop offset="0.905" stop-color="#9D4E71" stop-opacity="0.8656"/>
<stop offset="1" stop-color="#874462"/>
</radialGradient>
<radialGradient id="paint12_radial_862_12510" cx="0" cy="0" r="1" gradientUnits="userSpaceOnUse" gradientTransform="translate(157764 74615.5) scale(38267.4 15703.3)">
<stop stop-color="#743C1C"/>
<stop offset="1" stop-color="#401C02"/>
</radialGradient>
</defs>
</svg>
