<svg width="484" height="519" viewBox="0 0 484 519" fill="none" xmlns="http://www.w3.org/2000/svg">
<path d="M242.18 482.36C375.38 482.36 483.36 374.38 483.36 241.18C483.36 107.98 375.38 0 242.18 0C108.98 0 1 107.98 1 241.18C1 374.38 108.98 482.36 242.18 482.36Z" fill="url(#paint0_radial_862_12500)"/>
<g style="mix-blend-mode:soft-light">
<path d="M242.18 482.36C375.38 482.36 483.36 374.38 483.36 241.18C483.36 107.98 375.38 0 242.18 0C108.98 0 1 107.98 1 241.18C1 374.38 108.98 482.36 242.18 482.36Z" fill="url(#paint1_radial_862_12500)"/>
</g>
<g style="mix-blend-mode:soft-light">
<path d="M242.18 482.36C375.38 482.36 483.36 374.38 483.36 241.18C483.36 107.98 375.38 0 242.18 0C108.98 0 1 107.98 1 241.18C1 374.38 108.98 482.36 242.18 482.36Z" fill="url(#paint2_radial_862_12500)"/>
</g>
<g style="mix-blend-mode:overlay">
<path d="M242.18 482.36C375.38 482.36 483.36 374.38 483.36 241.18C483.36 107.98 375.38 0 242.18 0C108.98 0 1 107.98 1 241.18C1 374.38 108.98 482.36 242.18 482.36Z" fill="url(#paint3_radial_862_12500)" fill-opacity="0.7"/>
</g>
<mask id="mask0_862_12500" style="mask-type:alpha" maskUnits="userSpaceOnUse" x="1" y="0" width="483" height="483">
<path d="M242.18 482.36C375.38 482.36 483.36 374.38 483.36 241.18C483.36 107.98 375.38 0 242.18 0C108.98 0 1 107.98 1 241.18C1 374.38 108.98 482.36 242.18 482.36Z" fill="white"/>
</mask>
<g mask="url(#mask0_862_12500)">
<g filter="url(#filter0_f_862_12500)">
<path d="M-0.375902 234.299C-0.114017 230.872 1.0137 230.529 1.34262 234.008C1.70805 237.874 0.997684 245.646 1.16871 250.335C1.62155 262.748 3.52441 273.541 5.48605 282.32C11.8075 310.612 20.5617 328.843 28.7268 344.288C55.5663 395.06 84.9667 420.77 113.648 440.147C155.689 468.549 198.072 477.584 240.49 479.5C241.56 479.548 241.738 486.518 240.686 487.425C238.788 489.061 236.436 487.437 234.494 487.369C228.915 487.174 223.335 486.791 217.756 486.211C201.213 484.492 184.67 480.991 168.162 475.358C123.275 460.044 74.8765 433.821 32.6092 359.962C29.9502 355.316 27.3124 350.424 24.7118 345.167C22.6321 340.963 20.5726 336.556 18.5493 331.843C11.8946 316.342 -3.61323 276.658 -0.375902 234.299ZM240.52 487.5C239.499 487.531 239.241 481.034 240.214 479.685C241.684 477.647 243.888 479.326 245.439 479.229C251.877 478.826 258.314 478.229 264.75 477.421C282.395 475.205 300.028 471.422 317.621 465.596C361.257 451.145 408.17 429.115 449.305 361.431C451.923 357.123 454.518 352.553 457.079 347.641C464.86 332.712 484.361 293.084 482.107 243.821C481.917 239.668 483.181 237.181 483.747 240.743C484.467 245.279 484.175 254.736 483.977 259.768C483.341 275.883 480.866 289.512 478.257 300.518C469.987 335.399 458.376 355.623 447.744 372.51C413.184 427.397 375.648 449.524 339.155 465.424C306.424 479.686 273.444 486.484 240.52 487.5Z" fill="#401C02"/>
</g>
<g filter="url(#filter1_f_862_12500)">
<path d="M-0.375902 234.299C-0.114017 230.872 1.0137 230.529 1.34262 234.008C1.70805 237.874 0.997684 245.646 1.16871 250.335C1.62155 262.748 3.52441 273.541 5.48605 282.32C11.8075 310.612 20.5617 328.843 28.7268 344.288C55.5663 395.06 84.9667 420.77 113.648 440.147C155.689 468.549 198.072 477.584 240.49 479.5C241.56 479.548 241.738 486.518 240.686 487.425C238.788 489.061 236.436 487.437 234.494 487.369C228.915 487.174 223.335 486.791 217.756 486.211C201.213 484.492 184.67 480.991 168.162 475.358C123.275 460.044 74.8765 433.821 32.6092 359.962C29.9502 355.316 27.3124 350.424 24.7118 345.167C22.6321 340.963 20.5726 336.556 18.5493 331.843C11.8946 316.342 -3.61323 276.658 -0.375902 234.299ZM240.52 487.5C239.499 487.531 239.241 481.034 240.214 479.685C241.684 477.647 243.888 479.326 245.439 479.229C251.877 478.826 258.314 478.229 264.75 477.421C282.395 475.205 300.028 471.422 317.621 465.596C361.257 451.145 408.17 429.115 449.305 361.431C451.923 357.123 454.518 352.553 457.079 347.641C464.86 332.712 484.361 293.084 482.107 243.821C481.917 239.668 483.181 237.181 483.747 240.743C484.467 245.279 484.175 254.736 483.977 259.768C483.341 275.883 480.866 289.512 478.257 300.518C469.987 335.399 458.376 355.623 447.744 372.51C413.184 427.397 375.648 449.524 339.155 465.424C306.424 479.686 273.444 486.484 240.52 487.5Z" fill="#401C02"/>
</g>
</g>
<path d="M159.74 254.14C177.822 254.14 192.48 235.153 192.48 211.73C192.48 188.308 177.822 169.32 159.74 169.32C141.658 169.32 127 188.308 127 211.73C127 235.153 141.658 254.14 159.74 254.14Z" fill="url(#paint4_radial_862_12500)"/>
<path d="M159.74 254.14C177.822 254.14 192.48 235.153 192.48 211.73C192.48 188.308 177.822 169.32 159.74 169.32C141.658 169.32 127 188.308 127 211.73C127 235.153 141.658 254.14 159.74 254.14Z" stroke="url(#paint5_linear_862_12500)" stroke-width="2" stroke-miterlimit="10"/>
<path d="M323.37 254.14C341.452 254.14 356.11 235.153 356.11 211.73C356.11 188.308 341.452 169.32 323.37 169.32C305.288 169.32 290.63 188.308 290.63 211.73C290.63 235.153 305.288 254.14 323.37 254.14Z" fill="url(#paint6_radial_862_12500)"/>
<path d="M323.37 254.14C341.452 254.14 356.11 235.153 356.11 211.73C356.11 188.308 341.452 169.32 323.37 169.32C305.288 169.32 290.63 188.308 290.63 211.73C290.63 235.153 305.288 254.14 323.37 254.14Z" stroke="url(#paint7_linear_862_12500)" stroke-width="2" stroke-miterlimit="10"/>
<path d="M241.333 335.23C190.943 335.23 143.963 327.64 104.333 314.54C103.296 314.163 102.176 314.079 101.096 314.297C100.015 314.515 99.0148 315.027 98.2058 315.776C97.3967 316.525 96.8097 317.483 96.5093 318.544C96.2088 319.605 96.2065 320.728 96.5026 321.79C112.713 379.7 171.383 422.6 241.303 422.6C311.223 422.6 369.913 379.7 386.143 321.79C386.439 320.728 386.436 319.605 386.136 318.544C385.835 317.483 385.248 316.525 384.439 315.776C383.63 315.027 382.631 314.515 381.55 314.297C380.469 314.079 379.349 314.163 378.313 314.54C338.693 327.64 291.713 335.23 241.333 335.23Z" fill="url(#paint8_radial_862_12500)"/>
<path d="M95.2985 322.126L95.2989 322.127C111.679 380.644 170.895 423.85 241.303 423.85C311.71 423.85 370.946 380.644 387.346 322.127L387.347 322.126C387.704 320.842 387.702 319.485 387.339 318.203C386.976 316.921 386.266 315.764 385.289 314.859C384.311 313.954 383.103 313.335 381.797 313.072C380.497 312.81 379.151 312.909 377.904 313.359C338.425 326.41 291.585 333.98 241.333 333.98C191.071 333.98 144.23 326.41 104.742 313.359C103.495 312.909 102.148 312.81 100.848 313.072C99.5423 313.335 98.3341 313.954 97.3565 314.859C96.3789 315.764 95.6696 316.921 95.3066 318.203C94.9435 319.485 94.9407 320.842 95.2985 322.126Z" stroke="url(#paint9_linear_862_12500)" stroke-width="2.5"/>
<mask id="mask1_862_12500" style="mask-type:alpha" maskUnits="userSpaceOnUse" x="0" y="0" width="483" height="483">
<path d="M241.18 482.36C374.38 482.36 482.36 374.38 482.36 241.18C482.36 107.98 374.38 0 241.18 0C107.98 0 0 107.98 0 241.18C0 374.38 107.98 482.36 241.18 482.36Z" fill="url(#paint10_radial_862_12500)"/>
</mask>
<g mask="url(#mask1_862_12500)">
<mask id="mask2_862_12500" style="mask-type:alpha" maskUnits="userSpaceOnUse" x="96" y="314" width="291" height="205">
<path d="M241.333 335.23C190.943 335.23 143.963 327.64 104.333 314.54C103.296 314.163 102.176 314.079 101.096 314.297C100.015 314.515 99.0148 315.027 98.2058 315.776C97.3967 316.525 96.8097 317.483 96.5093 318.544C96.2088 319.605 96.2065 320.728 96.5026 321.79C112.713 379.7 171.413 519 241.333 519C311.253 519 369.913 379.7 386.143 321.79C386.439 320.728 386.436 319.605 386.136 318.544C385.835 317.483 385.248 316.525 384.439 315.776C383.63 315.027 382.631 314.515 381.55 314.297C380.469 314.079 379.349 314.163 378.313 314.54C338.693 327.64 291.713 335.23 241.333 335.23Z" fill="black"/>
</mask>
<g mask="url(#mask2_862_12500)">
<g filter="url(#filter2_f_862_12500)">
<path d="M241.012 502.9C205.112 502.9 176.112 473.8 176.112 438V329H305.812V438C305.812 473.8 276.812 502.9 241.012 502.9Z" fill="#672500"/>
</g>
</g>
</g>
<mask id="mask3_862_12500" style="mask-type:alpha" maskUnits="userSpaceOnUse" x="96" y="314" width="291" height="205">
<path d="M241.333 335.23C190.943 335.23 143.963 327.64 104.333 314.54C103.296 314.163 102.176 314.079 101.096 314.297C100.015 314.515 99.0148 315.027 98.2058 315.776C97.3967 316.525 96.8097 317.483 96.5093 318.544C96.2088 319.605 96.2065 320.728 96.5026 321.79C112.713 379.7 171.413 519 241.333 519C311.253 519 369.913 379.7 386.143 321.79C386.439 320.728 386.436 319.605 386.136 318.544C385.835 317.483 385.248 316.525 384.439 315.776C383.63 315.027 382.631 314.515 381.55 314.297C380.469 314.079 379.349 314.163 378.313 314.54C338.693 327.64 291.713 335.23 241.333 335.23Z" fill="black"/>
</mask>
<g mask="url(#mask3_862_12500)">
<path d="M241.012 502.9C205.112 502.9 176.112 473.8 176.112 438V329H305.812V438C305.812 473.8 276.812 502.9 241.012 502.9Z" fill="url(#paint11_radial_862_12500)"/>
<g style="mix-blend-mode:multiply">
<path d="M241.012 502.9C205.112 502.9 176.112 473.9 176.112 438V329H305.812V438C305.812 473.9 276.812 502.9 241.012 502.9Z" fill="url(#paint12_radial_862_12500)"/>
</g>
<g style="mix-blend-mode:multiply" opacity="0.5" filter="url(#filter3_f_862_12500)">
<path d="M248.112 385H234.112V448H248.112V385Z" fill="#CF4F87"/>
</g>
</g>
<mask id="mask4_862_12500" style="mask-type:alpha" maskUnits="userSpaceOnUse" x="96" y="314" width="291" height="109">
<path d="M241.333 335.23C190.943 335.23 143.963 327.64 104.333 314.54C103.296 314.163 102.176 314.079 101.096 314.297C100.015 314.515 99.0148 315.027 98.2058 315.776C97.3967 316.525 96.8097 317.483 96.5093 318.544C96.2088 319.605 96.2065 320.728 96.5026 321.79C112.713 379.7 171.383 422.6 241.303 422.6C311.223 422.6 369.913 379.7 386.143 321.79C386.439 320.728 386.436 319.605 386.136 318.544C385.835 317.483 385.248 316.525 384.439 315.776C383.63 315.027 382.631 314.515 381.55 314.297C380.469 314.079 379.349 314.163 378.313 314.54C338.693 327.64 291.713 335.23 241.333 335.23Z" fill="url(#paint13_linear_862_12500)"/>
</mask>
<g mask="url(#mask4_862_12500)">
<g filter="url(#filter4_f_862_12500)">
<ellipse cx="241.112" cy="237" rx="203" ry="142" fill="#401C02"/>
</g>
</g>
<defs>
<filter id="filter0_f_862_12500" x="-25.8149" y="206.558" width="535.022" height="306.595" filterUnits="userSpaceOnUse" color-interpolation-filters="sRGB">
<feFlood flood-opacity="0" result="BackgroundImageFix"/>
<feBlend mode="normal" in="SourceGraphic" in2="BackgroundImageFix" result="shape"/>
<feGaussianBlur stdDeviation="12.5" result="effect1_foregroundBlur_862_12500"/>
</filter>
<filter id="filter1_f_862_12500" x="-40.8149" y="191.558" width="565.022" height="336.595" filterUnits="userSpaceOnUse" color-interpolation-filters="sRGB">
<feFlood flood-opacity="0" result="BackgroundImageFix"/>
<feBlend mode="normal" in="SourceGraphic" in2="BackgroundImageFix" result="shape"/>
<feGaussianBlur stdDeviation="20" result="effect1_foregroundBlur_862_12500"/>
</filter>
<filter id="filter2_f_862_12500" x="156.112" y="309" width="169.7" height="213.9" filterUnits="userSpaceOnUse" color-interpolation-filters="sRGB">
<feFlood flood-opacity="0" result="BackgroundImageFix"/>
<feBlend mode="normal" in="SourceGraphic" in2="BackgroundImageFix" result="shape"/>
<feGaussianBlur stdDeviation="10" result="effect1_foregroundBlur_862_12500"/>
</filter>
<filter id="filter3_f_862_12500" x="214.112" y="365" width="54" height="103" filterUnits="userSpaceOnUse" color-interpolation-filters="sRGB">
<feFlood flood-opacity="0" result="BackgroundImageFix"/>
<feBlend mode="normal" in="SourceGraphic" in2="BackgroundImageFix" result="shape"/>
<feGaussianBlur stdDeviation="10" result="effect1_foregroundBlur_862_12500"/>
</filter>
<filter id="filter4_f_862_12500" x="-16.8877" y="40" width="516" height="394" filterUnits="userSpaceOnUse" color-interpolation-filters="sRGB">
<feFlood flood-opacity="0" result="BackgroundImageFix"/>
<feBlend mode="normal" in="SourceGraphic" in2="BackgroundImageFix" result="shape"/>
<feGaussianBlur stdDeviation="27.5" result="effect1_foregroundBlur_862_12500"/>
</filter>
<radialGradient id="paint0_radial_862_12500" cx="0" cy="0" r="1" gradientUnits="userSpaceOnUse" gradientTransform="translate(242 -4.53898e-06) rotate(90) scale(482)">
<stop stop-color="#FFDE43"/>
<stop offset="1" stop-color="#FFBC00"/>
</radialGradient>
<radialGradient id="paint1_radial_862_12500" cx="0" cy="0" r="1" gradientUnits="userSpaceOnUse" gradientTransform="translate(242 64.5) rotate(90) scale(417.5)">
<stop stop-color="white" stop-opacity="0.5"/>
<stop offset="0.782278"/>
</radialGradient>
<radialGradient id="paint2_radial_862_12500" cx="0" cy="0" r="1" gradientUnits="userSpaceOnUse" gradientTransform="translate(242 64.5) rotate(90) scale(417.5)">
<stop stop-color="white" stop-opacity="0.5"/>
<stop offset="0.782278"/>
</radialGradient>
<radialGradient id="paint3_radial_862_12500" cx="0" cy="0" r="1" gradientUnits="userSpaceOnUse" gradientTransform="translate(242 -52.5) rotate(90) scale(534.5 722.835)">
<stop offset="0.0922635" stop-color="white"/>
<stop offset="0.670207" stop-color="white" stop-opacity="0"/>
</radialGradient>
<radialGradient id="paint4_radial_862_12500" cx="0" cy="0" r="1" gradientUnits="userSpaceOnUse" gradientTransform="translate(159.695 211.702) scale(41.7355 42.4836)">
<stop stop-color="#743C1C"/>
<stop offset="1" stop-color="#401C02"/>
</radialGradient>
<linearGradient id="paint5_linear_862_12500" x1="159.74" y1="256.527" x2="159.74" y2="166.591" gradientUnits="userSpaceOnUse">
<stop stop-color="#FFDE43"/>
<stop offset="0.22" stop-color="#FED93F"/>
<stop offset="0.51" stop-color="#FCC934"/>
<stop offset="0.82" stop-color="#F9AF21"/>
<stop offset="1" stop-color="#F79D14"/>
</linearGradient>
<radialGradient id="paint6_radial_862_12500" cx="0" cy="0" r="1" gradientUnits="userSpaceOnUse" gradientTransform="translate(323.325 211.702) scale(41.7355 42.4836)">
<stop stop-color="#743C1C"/>
<stop offset="1" stop-color="#401C02"/>
</radialGradient>
<linearGradient id="paint7_linear_862_12500" x1="323.37" y1="256.527" x2="323.37" y2="166.591" gradientUnits="userSpaceOnUse">
<stop stop-color="#FFDE43"/>
<stop offset="0.22" stop-color="#FED93F"/>
<stop offset="0.51" stop-color="#FCC934"/>
<stop offset="0.82" stop-color="#F9AF21"/>
<stop offset="1" stop-color="#F79D14"/>
</linearGradient>
<radialGradient id="paint8_radial_862_12500" cx="0" cy="0" r="1" gradientUnits="userSpaceOnUse" gradientTransform="translate(241.323 368.17) scale(109.48 109.511)">
<stop stop-color="#743C1C"/>
<stop offset="1" stop-color="#401C02"/>
</radialGradient>
<linearGradient id="paint9_linear_862_12500" x1="241.323" y1="425.651" x2="241.323" y2="310.69" gradientUnits="userSpaceOnUse">
<stop offset="0.265625" stop-color="#FFDE43"/>
<stop offset="1" stop-color="#F79D14"/>
</linearGradient>
<radialGradient id="paint10_radial_862_12500" cx="0" cy="0" r="1" gradientUnits="userSpaceOnUse" gradientTransform="translate(241 -4.53898e-06) rotate(90) scale(482)">
<stop stop-color="#FFDE43"/>
<stop offset="1" stop-color="#FFBC00"/>
</radialGradient>
<radialGradient id="paint11_radial_862_12500" cx="0" cy="0" r="1" gradientUnits="userSpaceOnUse" gradientTransform="translate(242.24 403.591) scale(80.9374 97.6186)">
<stop offset="0.3" stop-color="#F076AC"/>
<stop offset="0.4761" stop-color="#ED73A9"/>
<stop offset="0.6236" stop-color="#E2699F"/>
<stop offset="0.7609" stop-color="#D1588E"/>
<stop offset="1" stop-color="#B94176"/>
</radialGradient>
<radialGradient id="paint12_radial_862_12500" cx="0" cy="0" r="1" gradientUnits="userSpaceOnUse" gradientTransform="translate(240.964 415.958) scale(74.0615 226.286)">
<stop offset="0.2933" stop-color="#D86B9B" stop-opacity="0"/>
<stop offset="0.4603" stop-color="#D46998" stop-opacity="0.2363"/>
<stop offset="0.6135" stop-color="#C96491" stop-opacity="0.4531"/>
<stop offset="0.7614" stop-color="#B75B84" stop-opacity="0.6623"/>
<stop offset="0.905" stop-color="#9D4E71" stop-opacity="0.8656"/>
<stop offset="1" stop-color="#874462"/>
</radialGradient>
<linearGradient id="paint13_linear_862_12500" x1="241" y1="423" x2="241" y2="336.5" gradientUnits="userSpaceOnUse">
<stop offset="0.152957" stop-color="#743C1C" stop-opacity="0.53"/>
<stop offset="1" stop-color="#401C02"/>
</linearGradient>
</defs>
</svg>
