<svg width="497" height="483" viewBox="0 0 497 483" fill="none" xmlns="http://www.w3.org/2000/svg">
<path d="M248.18 482.36C381.38 482.36 489.36 374.38 489.36 241.18C489.36 107.98 381.38 0 248.18 0C114.98 0 7 107.98 7 241.18C7 374.38 114.98 482.36 248.18 482.36Z" fill="url(#paint0_radial_862_12554)"/>
<g style="mix-blend-mode:soft-light">
<path d="M248.18 482.36C381.38 482.36 489.36 374.38 489.36 241.18C489.36 107.98 381.38 0 248.18 0C114.98 0 7 107.98 7 241.18C7 374.38 114.98 482.36 248.18 482.36Z" fill="url(#paint1_radial_862_12554)"/>
</g>
<g style="mix-blend-mode:soft-light">
<path d="M248.18 482.36C381.38 482.36 489.36 374.38 489.36 241.18C489.36 107.98 381.38 0 248.18 0C114.98 0 7 107.98 7 241.18C7 374.38 114.98 482.36 248.18 482.36Z" fill="url(#paint2_radial_862_12554)"/>
</g>
<g style="mix-blend-mode:overlay">
<path d="M248.18 482.36C381.38 482.36 489.36 374.38 489.36 241.18C489.36 107.98 381.38 0 248.18 0C114.98 0 7 107.98 7 241.18C7 374.38 114.98 482.36 248.18 482.36Z" fill="url(#paint3_radial_862_12554)" fill-opacity="0.7"/>
</g>
<mask id="mask0_862_12554" style="mask-type:alpha" maskUnits="userSpaceOnUse" x="7" y="0" width="483" height="483">
<path d="M248.18 482.36C381.38 482.36 489.36 374.38 489.36 241.18C489.36 107.98 381.38 0 248.18 0C114.98 0 7 107.98 7 241.18C7 374.38 114.98 482.36 248.18 482.36Z" fill="white"/>
</mask>
<g mask="url(#mask0_862_12554)">
<g filter="url(#filter0_f_862_12554)">
<path d="M5.62459 234.299C5.88647 230.872 7.01419 230.529 7.34311 234.008C7.70854 237.874 6.99817 245.646 7.1692 250.335C7.62204 262.748 9.5249 273.541 11.4865 282.32C17.808 310.612 26.5622 328.843 34.7273 344.288C61.5668 395.06 90.9672 420.77 119.648 440.147C161.69 468.549 204.073 477.584 246.491 479.5C247.561 479.548 247.739 486.518 246.686 487.425C244.788 489.061 242.437 487.437 240.495 487.369C234.915 487.174 229.336 486.791 223.756 486.211C207.213 484.492 190.671 480.991 174.162 475.358C129.275 460.044 80.877 433.821 38.6097 359.962C35.9507 355.316 33.3128 350.424 30.7123 345.167C28.6325 340.963 26.573 336.556 24.5498 331.843C17.895 316.342 2.38726 276.658 5.62459 234.299ZM246.52 487.5C245.5 487.531 245.241 481.034 246.214 479.685C247.685 477.647 249.889 479.326 251.439 479.229C257.878 478.826 264.315 478.229 270.75 477.421C288.396 475.205 306.028 471.422 323.621 465.596C367.257 451.145 414.17 429.115 455.305 361.431C457.923 357.123 460.519 352.553 463.079 347.641C470.86 332.712 490.362 293.084 488.107 243.821C487.917 239.668 489.182 237.181 489.748 240.743C490.468 245.279 490.176 254.736 489.977 259.768C489.342 275.883 486.867 289.512 484.257 300.518C475.987 335.399 464.377 355.623 453.744 372.51C419.184 427.397 381.649 449.524 345.156 465.424C312.425 479.686 279.445 486.484 246.52 487.5Z" fill="#401C02"/>
</g>
<g filter="url(#filter1_f_862_12554)">
<path d="M5.62459 234.299C5.88647 230.872 7.01419 230.529 7.34311 234.008C7.70854 237.874 6.99817 245.646 7.1692 250.335C7.62204 262.748 9.5249 273.541 11.4865 282.32C17.808 310.612 26.5622 328.843 34.7273 344.288C61.5668 395.06 90.9672 420.77 119.648 440.147C161.69 468.549 204.073 477.584 246.491 479.5C247.561 479.548 247.739 486.518 246.686 487.425C244.788 489.061 242.437 487.437 240.495 487.369C234.915 487.174 229.336 486.791 223.756 486.211C207.213 484.492 190.671 480.991 174.162 475.358C129.275 460.044 80.877 433.821 38.6097 359.962C35.9507 355.316 33.3128 350.424 30.7123 345.167C28.6325 340.963 26.573 336.556 24.5498 331.843C17.895 316.342 2.38726 276.658 5.62459 234.299ZM246.52 487.5C245.5 487.531 245.241 481.034 246.214 479.685C247.685 477.647 249.889 479.326 251.439 479.229C257.878 478.826 264.315 478.229 270.75 477.421C288.396 475.205 306.028 471.422 323.621 465.596C367.257 451.145 414.17 429.115 455.305 361.431C457.923 357.123 460.519 352.553 463.079 347.641C470.86 332.712 490.362 293.084 488.107 243.821C487.917 239.668 489.182 237.181 489.748 240.743C490.468 245.279 490.176 254.736 489.977 259.768C489.342 275.883 486.867 289.512 484.257 300.518C475.987 335.399 464.377 355.623 453.744 372.51C419.184 427.397 381.649 449.524 345.156 465.424C312.425 479.686 279.445 486.484 246.52 487.5Z" fill="#401C02"/>
</g>
</g>
<mask id="mask1_862_12554" style="mask-type:alpha" maskUnits="userSpaceOnUse" x="7" y="0" width="483" height="483">
<path d="M248.18 482.36C381.38 482.36 489.36 374.38 489.36 241.18C489.36 107.98 381.38 0 248.18 0C114.98 0 7 107.98 7 241.18C7 374.38 114.98 482.36 248.18 482.36Z" fill="url(#paint4_radial_862_12554)"/>
</mask>
<g mask="url(#mask1_862_12554)">
<g filter="url(#filter2_f_862_12554)">
<path d="M496.9 248.17C496.9 250.73 496.863 253.28 496.79 255.82C496.759 256.648 496.463 257.444 495.947 258.092C495.43 258.739 494.72 259.205 493.92 259.42L400 284.58C399.427 284.731 398.826 284.749 398.245 284.632C397.664 284.515 397.117 284.267 396.647 283.906C396.176 283.545 395.795 283.08 395.532 282.549C395.269 282.018 395.132 281.433 395.13 280.84V270.55H394.42L492 244.4C492.572 244.247 493.171 244.227 493.752 244.342C494.332 244.457 494.879 244.704 495.349 245.063C495.82 245.422 496.201 245.885 496.465 246.415C496.728 246.945 496.867 247.528 496.87 248.12L496.9 248.17Z" fill="#8B3300" fill-opacity="0.5"/>
<path d="M102.47 270.55H101.75V285.88L3 259.42C2.19732 259.208 1.48403 258.744 0.965435 258.096C0.446843 257.447 0.150443 256.65 0.12 255.82C0.04 253.267 0 250.717 0 248.17V248.12C0.00283829 247.528 0.141409 246.945 0.405053 246.415C0.668698 245.885 1.05039 245.422 1.52076 245.063C1.99114 244.704 2.53767 244.457 3.1183 244.342C3.69893 244.227 4.2982 244.247 4.87 244.4L102.47 270.55Z" fill="#8B3300" fill-opacity="0.5"/>
<path d="M411.78 435.39C410.153 436.81 408.503 438.21 406.83 439.59C405.845 440.413 404.677 440.987 403.424 441.264C402.171 441.541 400.869 441.512 399.63 441.18L355.31 429.31C360.099 425.776 364.51 421.754 368.47 417.31L410.21 428.49C410.913 428.678 411.552 429.055 412.057 429.58C412.562 430.104 412.914 430.757 413.076 431.467C413.237 432.177 413.202 432.917 412.973 433.609C412.745 434.3 412.332 434.916 411.78 435.39Z" fill="#8B3300" fill-opacity="0.5"/>
<path d="M141.579 429.32L97.2793 441.19C96.0396 441.522 94.7383 441.551 93.4852 441.274C92.232 440.997 91.0639 440.423 90.0793 439.6C88.3993 438.22 86.7493 436.81 85.0793 435.39C84.5266 434.916 84.1138 434.3 83.8854 433.609C83.6571 432.917 83.6217 432.177 83.7833 431.467C83.9448 430.757 84.2971 430.104 84.8022 429.58C85.3072 429.055 85.9459 428.678 86.6493 428.49L128.379 417.31C132.357 421.754 136.78 425.779 141.579 429.32Z" fill="#8B3300" fill-opacity="0.5"/>
<path d="M397.42 276.94V359.24C397.42 382.359 388.236 404.531 371.888 420.878C355.541 437.226 333.369 446.41 310.25 446.41H186.66C163.541 446.41 141.369 437.226 125.021 420.878C108.674 404.531 99.4899 382.359 99.4899 359.24V276.94C99.4899 271.636 101.597 266.549 105.348 262.798C109.099 259.047 114.186 256.94 119.49 256.94H377.42C382.724 256.94 387.811 259.047 391.562 262.798C395.313 266.549 397.42 271.636 397.42 276.94Z" fill="#8B3300" fill-opacity="0.5"/>
</g>
</g>
<path d="M179.77 219.11C195.769 219.11 208.74 202.308 208.74 181.58C208.74 160.853 195.769 144.05 179.77 144.05C163.77 144.05 150.8 160.853 150.8 181.58C150.8 202.308 163.77 219.11 179.77 219.11Z" fill="url(#paint5_radial_862_12554)"/>
<path d="M179.77 219.11C195.769 219.11 208.74 202.308 208.74 181.58C208.74 160.853 195.769 144.05 179.77 144.05C163.77 144.05 150.8 160.853 150.8 181.58C150.8 202.308 163.77 219.11 179.77 219.11Z" stroke="url(#paint6_linear_862_12554)" stroke-width="2" stroke-miterlimit="10"/>
<path d="M317.129 219.11C333.129 219.11 346.099 202.308 346.099 181.58C346.099 160.853 333.129 144.05 317.129 144.05C301.129 144.05 288.159 160.853 288.159 181.58C288.159 202.308 301.129 219.11 317.129 219.11Z" fill="url(#paint7_radial_862_12554)"/>
<path d="M317.129 219.11C333.129 219.11 346.099 202.308 346.099 181.58C346.099 160.853 333.129 144.05 317.129 144.05C301.129 144.05 288.159 160.853 288.159 181.58C288.159 202.308 301.129 219.11 317.129 219.11Z" stroke="url(#paint8_linear_862_12554)" stroke-width="2" stroke-miterlimit="10"/>
<path d="M496.9 241.17C496.9 243.73 496.863 246.28 496.79 248.82C496.759 249.648 496.463 250.444 495.947 251.092C495.43 251.739 494.72 252.205 493.92 252.42L400 277.58C399.427 277.731 398.826 277.749 398.245 277.632C397.664 277.515 397.117 277.267 396.647 276.906C396.176 276.545 395.795 276.08 395.532 275.549C395.269 275.018 395.132 274.433 395.13 273.84V263.55H394.42L492 237.4C492.572 237.247 493.171 237.227 493.752 237.342C494.332 237.457 494.879 237.704 495.349 238.063C495.82 238.422 496.201 238.885 496.465 239.415C496.728 239.945 496.867 240.528 496.87 241.12L496.9 241.17Z" fill="url(#paint9_linear_862_12554)"/>
<path d="M102.47 263.55H101.75V278.88L3 252.42C2.19732 252.208 1.48403 251.744 0.965435 251.096C0.446843 250.447 0.150443 249.65 0.12 248.82C0.04 246.267 0 243.717 0 241.17V241.12C0.00283829 240.528 0.141409 239.945 0.405053 239.415C0.668698 238.885 1.05039 238.422 1.52076 238.063C1.99114 237.704 2.53767 237.457 3.1183 237.342C3.69893 237.227 4.2982 237.247 4.87 237.4L102.47 263.55Z" fill="url(#paint10_linear_862_12554)"/>
<path d="M411.78 428.39C410.153 429.81 408.503 431.21 406.83 432.59C405.845 433.413 404.677 433.987 403.424 434.264C402.171 434.541 400.869 434.512 399.63 434.18L355.31 422.31C360.099 418.776 364.51 414.754 368.47 410.31L410.21 421.49C410.913 421.678 411.552 422.055 412.057 422.58C412.562 423.104 412.914 423.757 413.076 424.467C413.237 425.177 413.202 425.917 412.973 426.609C412.745 427.3 412.332 427.916 411.78 428.39Z" fill="url(#paint11_linear_862_12554)"/>
<path d="M141.579 422.32L97.2793 434.19C96.0396 434.522 94.7383 434.551 93.4852 434.274C92.232 433.997 91.0639 433.423 90.0793 432.6C88.3993 431.22 86.7493 429.81 85.0793 428.39C84.5266 427.916 84.1138 427.3 83.8854 426.609C83.6571 425.917 83.6217 425.177 83.7833 424.467C83.9448 423.757 84.2971 423.104 84.8022 422.58C85.3072 422.055 85.9459 421.678 86.6493 421.49L128.379 410.31C132.357 414.754 136.78 418.779 141.579 422.32Z" fill="url(#paint12_linear_862_12554)"/>
<path d="M397.42 269.94V352.24C397.42 375.359 388.236 397.531 371.888 413.878C355.541 430.226 333.369 439.41 310.25 439.41H186.66C163.541 439.41 141.369 430.226 125.021 413.878C108.674 397.531 99.4899 375.359 99.4899 352.24V269.94C99.4899 264.636 101.597 259.549 105.348 255.798C109.099 252.047 114.186 249.94 119.49 249.94L377.42 249.94C382.724 249.94 387.811 252.047 391.562 255.798C395.313 259.549 397.42 264.636 397.42 269.94Z" fill="url(#paint13_linear_862_12554)"/>
<path d="M124.97 263.59H371.89C374.542 263.59 377.085 264.644 378.961 266.519C380.836 268.395 381.89 270.938 381.89 273.59V353.16C381.89 372.426 374.237 390.902 360.614 404.525C346.991 418.147 328.515 425.8 309.25 425.8H187.61C168.344 425.8 149.868 418.147 136.245 404.525C122.623 390.902 114.97 372.426 114.97 353.16V273.59C114.97 270.938 116.023 268.395 117.899 266.519C119.774 264.644 122.318 263.59 124.97 263.59Z" fill="#DAEFFF"/>
<path opacity="0.3" d="M115 282.35C126.12 282.13 137.24 282.03 148.36 281.86L181.73 281.59C203.98 281.42 226.22 281.44 248.47 281.35C270.72 281.43 292.96 281.42 315.21 281.58L348.58 281.86C359.7 282.03 370.82 282.13 381.94 282.35C370.82 282.58 359.7 282.68 348.58 282.84L315.21 283.12C292.96 283.28 270.72 283.27 248.47 283.35C226.22 283.27 203.98 283.28 181.73 283.12L148.36 282.84C137.22 282.67 126.1 282.58 115 282.35Z" fill="#50B2EE"/>
<path opacity="0.3" d="M115 313.7C126.12 313.47 137.24 313.38 148.36 313.21L181.73 312.93C203.98 312.77 226.22 312.78 248.47 312.7C270.72 312.78 292.96 312.77 315.21 312.93L348.58 313.21C359.7 313.38 370.82 313.47 381.94 313.7C370.82 313.93 359.7 314.02 348.58 314.19L315.21 314.47C292.96 314.63 270.72 314.62 248.47 314.7C226.22 314.62 203.98 314.63 181.73 314.47L148.36 314.19C137.22 313.99 126.1 313.93 115 313.7Z" fill="#50B2EE"/>
<path opacity="0.3" d="M115 345.05C126.12 344.82 137.24 344.73 148.36 344.56L181.73 344.28C203.98 344.12 226.22 344.13 248.47 344.05C270.72 344.13 292.96 344.12 315.21 344.28L348.58 344.56C359.7 344.72 370.82 344.82 381.94 345.05C370.82 345.27 359.7 345.37 348.58 345.54L315.21 345.82C292.96 345.98 270.72 345.97 248.47 346.05C226.22 345.96 203.98 345.98 181.73 345.81L148.36 345.54C137.22 345.37 126.1 345.27 115 345.05Z" fill="#50B2EE"/>
<path opacity="0.3" d="M115 376.4C126.12 376.17 137.24 376.07 148.36 375.91L181.73 375.63C203.98 375.47 226.22 375.48 248.47 375.4C270.72 375.48 292.96 375.47 315.21 375.63L348.58 375.91C359.7 376.07 370.82 376.17 381.94 376.4C370.82 376.62 359.7 376.72 348.58 376.89L315.21 377.17C292.96 377.32 270.72 377.32 248.47 377.39C226.22 377.46 203.98 377.33 181.73 377.16L148.36 376.88C137.22 376.72 126.1 376.62 115 376.4Z" fill="#50B2EE"/>
<path opacity="0.3" d="M115 407.74C126.12 407.52 137.24 407.42 148.36 407.26L181.73 406.98C203.98 406.81 226.22 406.83 248.47 406.75C270.72 406.67 292.96 406.82 315.21 406.97L348.58 407.25C359.7 407.42 370.82 407.52 381.94 407.74C370.82 407.97 359.7 408.07 348.58 408.23L315.21 408.51C292.96 408.67 270.72 408.66 248.47 408.74C226.22 408.66 203.98 408.67 181.73 408.51L148.36 408.23C137.22 408.07 126.1 407.99 115 407.74Z" fill="#50B2EE"/>
<defs>
<filter id="filter0_f_862_12554" x="-19.8145" y="206.558" width="535.021" height="306.595" filterUnits="userSpaceOnUse" color-interpolation-filters="sRGB">
<feFlood flood-opacity="0" result="BackgroundImageFix"/>
<feBlend mode="normal" in="SourceGraphic" in2="BackgroundImageFix" result="shape"/>
<feGaussianBlur stdDeviation="12.5" result="effect1_foregroundBlur_862_12554"/>
</filter>
<filter id="filter1_f_862_12554" x="-34.8145" y="191.558" width="565.021" height="336.595" filterUnits="userSpaceOnUse" color-interpolation-filters="sRGB">
<feFlood flood-opacity="0" result="BackgroundImageFix"/>
<feBlend mode="normal" in="SourceGraphic" in2="BackgroundImageFix" result="shape"/>
<feGaussianBlur stdDeviation="20" result="effect1_foregroundBlur_862_12554"/>
</filter>
<filter id="filter2_f_862_12554" x="-10" y="234.269" width="516.9" height="222.141" filterUnits="userSpaceOnUse" color-interpolation-filters="sRGB">
<feFlood flood-opacity="0" result="BackgroundImageFix"/>
<feBlend mode="normal" in="SourceGraphic" in2="BackgroundImageFix" result="shape"/>
<feGaussianBlur stdDeviation="5" result="effect1_foregroundBlur_862_12554"/>
</filter>
<radialGradient id="paint0_radial_862_12554" cx="0" cy="0" r="1" gradientUnits="userSpaceOnUse" gradientTransform="translate(248 -4.53898e-06) rotate(90) scale(482)">
<stop stop-color="#FFDE43"/>
<stop offset="1" stop-color="#FFBC00"/>
</radialGradient>
<radialGradient id="paint1_radial_862_12554" cx="0" cy="0" r="1" gradientUnits="userSpaceOnUse" gradientTransform="translate(248 64.5) rotate(90) scale(417.5)">
<stop stop-color="white" stop-opacity="0.5"/>
<stop offset="0.782278"/>
</radialGradient>
<radialGradient id="paint2_radial_862_12554" cx="0" cy="0" r="1" gradientUnits="userSpaceOnUse" gradientTransform="translate(248 64.5) rotate(90) scale(417.5)">
<stop stop-color="white" stop-opacity="0.5"/>
<stop offset="0.782278"/>
</radialGradient>
<radialGradient id="paint3_radial_862_12554" cx="0" cy="0" r="1" gradientUnits="userSpaceOnUse" gradientTransform="translate(248 -52.5) rotate(90) scale(534.5 722.835)">
<stop offset="0.0922635" stop-color="white"/>
<stop offset="0.670207" stop-color="white" stop-opacity="0"/>
</radialGradient>
<radialGradient id="paint4_radial_862_12554" cx="0" cy="0" r="1" gradientUnits="userSpaceOnUse" gradientTransform="translate(248 -4.53898e-06) rotate(90) scale(482)">
<stop stop-color="#FFDE43"/>
<stop offset="1" stop-color="#FFBC00"/>
</radialGradient>
<radialGradient id="paint5_radial_862_12554" cx="0" cy="0" r="1" gradientUnits="userSpaceOnUse" gradientTransform="translate(179.73 181.555) scale(36.9297 37.5951)">
<stop stop-color="#743C1C"/>
<stop offset="1" stop-color="#401C02"/>
</radialGradient>
<linearGradient id="paint6_linear_862_12554" x1="179.77" y1="220.2" x2="179.77" y2="142.97" gradientUnits="userSpaceOnUse">
<stop stop-color="#FFDE43"/>
<stop offset="0.22" stop-color="#FED93F"/>
<stop offset="0.51" stop-color="#FCC934"/>
<stop offset="0.82" stop-color="#F9AF21"/>
<stop offset="1" stop-color="#F79D14"/>
</linearGradient>
<radialGradient id="paint7_radial_862_12554" cx="0" cy="0" r="1" gradientUnits="userSpaceOnUse" gradientTransform="translate(317.089 181.555) scale(36.9297 37.5951)">
<stop stop-color="#743C1C"/>
<stop offset="1" stop-color="#401C02"/>
</radialGradient>
<linearGradient id="paint8_linear_862_12554" x1="317.129" y1="221.222" x2="317.129" y2="141.635" gradientUnits="userSpaceOnUse">
<stop stop-color="#FFDE43"/>
<stop offset="0.22" stop-color="#FED93F"/>
<stop offset="0.51" stop-color="#FCC934"/>
<stop offset="0.82" stop-color="#F9AF21"/>
<stop offset="1" stop-color="#F79D14"/>
</linearGradient>
<linearGradient id="paint9_linear_862_12554" x1="394.381" y1="257.496" x2="496.9" y2="257.496" gradientUnits="userSpaceOnUse">
<stop stop-color="#E9E9E9"/>
<stop offset="0.35" stop-color="#F6F6F6"/>
<stop offset="0.5" stop-color="#FAFAFA"/>
<stop offset="0.65" stop-color="#F6F6F6"/>
<stop offset="1" stop-color="#E9E9E9"/>
</linearGradient>
<linearGradient id="paint10_linear_862_12554" x1="-0.0392681" y1="258.082" x2="102.47" y2="258.082" gradientUnits="userSpaceOnUse">
<stop stop-color="#E9E9E9"/>
<stop offset="0.35" stop-color="#F6F6F6"/>
<stop offset="0.5" stop-color="#FAFAFA"/>
<stop offset="0.65" stop-color="#F6F6F6"/>
<stop offset="1" stop-color="#E9E9E9"/>
</linearGradient>
<linearGradient id="paint11_linear_862_12554" x1="355.287" y1="422.386" x2="413.175" y2="422.386" gradientUnits="userSpaceOnUse">
<stop stop-color="#E9E9E9"/>
<stop offset="0.35" stop-color="#F6F6F6"/>
<stop offset="0.5" stop-color="#FAFAFA"/>
<stop offset="0.65" stop-color="#F6F6F6"/>
<stop offset="1" stop-color="#E9E9E9"/>
</linearGradient>
<linearGradient id="paint12_linear_862_12554" x1="83.6614" y1="422.391" x2="141.579" y2="422.391" gradientUnits="userSpaceOnUse">
<stop stop-color="#E9E9E9"/>
<stop offset="0.35" stop-color="#F6F6F6"/>
<stop offset="0.5" stop-color="#FAFAFA"/>
<stop offset="0.65" stop-color="#F6F6F6"/>
<stop offset="1" stop-color="#E9E9E9"/>
</linearGradient>
<linearGradient id="paint13_linear_862_12554" x1="248.4" y1="249.867" x2="248.4" y2="439.41" gradientUnits="userSpaceOnUse">
<stop stop-color="#E9E9E9"/>
<stop offset="0.35" stop-color="#F6F6F6"/>
<stop offset="0.5" stop-color="#FAFAFA"/>
<stop offset="0.65" stop-color="#F6F6F6"/>
<stop offset="1" stop-color="#E9E9E9"/>
</linearGradient>
</defs>
</svg>
