<svg width="561" height="483" viewBox="0 0 561 483" fill="none" xmlns="http://www.w3.org/2000/svg">
<path d="M241.18 482.36C374.38 482.36 482.36 374.38 482.36 241.18C482.36 107.98 374.38 0 241.18 0C107.98 0 0 107.98 0 241.18C0 374.38 107.98 482.36 241.18 482.36Z" fill="url(#paint0_radial_862_12454)"/>
<g style="mix-blend-mode:soft-light">
<path d="M241.18 482.36C374.38 482.36 482.36 374.38 482.36 241.18C482.36 107.98 374.38 0 241.18 0C107.98 0 0 107.98 0 241.18C0 374.38 107.98 482.36 241.18 482.36Z" fill="url(#paint1_radial_862_12454)"/>
</g>
<g style="mix-blend-mode:soft-light">
<path d="M241.18 482.36C374.38 482.36 482.36 374.38 482.36 241.18C482.36 107.98 374.38 0 241.18 0C107.98 0 0 107.98 0 241.18C0 374.38 107.98 482.36 241.18 482.36Z" fill="url(#paint2_radial_862_12454)"/>
</g>
<g style="mix-blend-mode:overlay">
<path d="M241.18 482.36C374.38 482.36 482.36 374.38 482.36 241.18C482.36 107.98 374.38 0 241.18 0C107.98 0 0 107.98 0 241.18C0 374.38 107.98 482.36 241.18 482.36Z" fill="url(#paint3_radial_862_12454)" fill-opacity="0.7"/>
</g>
<mask id="mask0_862_12454" style="mask-type:alpha" maskUnits="userSpaceOnUse" x="0" y="0" width="483" height="483">
<path d="M241.18 482.36C374.38 482.36 482.36 374.38 482.36 241.18C482.36 107.98 374.38 0 241.18 0C107.98 0 0 107.98 0 241.18C0 374.38 107.98 482.36 241.18 482.36Z" fill="white"/>
</mask>
<g mask="url(#mask0_862_12454)">
<g filter="url(#filter0_f_862_12454)">
<path d="M-1.37541 234.299C-1.11353 230.872 0.0141891 230.529 0.343108 234.009C0.708543 237.875 -0.00182796 245.647 0.169198 250.335C0.622042 262.748 2.5249 273.542 4.48654 282.321C10.808 310.613 19.5622 328.843 27.7273 344.289C54.5668 395.061 83.9672 420.771 112.648 440.147C154.69 468.55 197.073 477.584 239.491 479.5C240.561 479.549 240.739 486.518 239.686 487.425C237.788 489.062 235.437 487.438 233.495 487.37C227.915 487.174 222.336 486.791 216.756 486.211C200.213 484.492 183.671 480.991 167.162 475.359C122.275 460.044 73.877 433.821 31.6097 359.962C28.9507 355.316 26.3128 350.424 23.7123 345.168C21.6325 340.964 19.573 336.557 17.5498 331.844C10.895 316.342 -4.61274 276.659 -1.37541 234.299ZM239.52 487.5C238.5 487.532 238.241 481.035 239.214 479.686C240.685 477.647 242.889 479.326 244.439 479.229C250.878 478.827 257.315 478.23 263.75 477.422C281.396 475.206 299.028 471.423 316.621 465.596C360.257 451.146 407.17 429.116 448.305 361.431C450.923 357.124 453.519 352.554 456.079 347.641C463.86 332.713 483.362 293.085 481.107 243.821C480.917 239.669 482.182 237.181 482.748 240.744C483.468 245.28 483.176 254.736 482.977 259.768C482.342 275.884 479.867 289.512 477.257 300.518C468.987 335.399 457.377 355.623 446.744 372.51C412.184 427.397 374.649 449.524 338.156 465.425C305.425 479.686 272.445 486.484 239.52 487.5Z" fill="#401C02"/>
</g>
<g filter="url(#filter1_f_862_12454)">
<path d="M-1.37541 234.299C-1.11353 230.872 0.0141891 230.529 0.343108 234.009C0.708543 237.875 -0.00182796 245.647 0.169198 250.335C0.622042 262.748 2.5249 273.542 4.48654 282.321C10.808 310.613 19.5622 328.843 27.7273 344.289C54.5668 395.061 83.9672 420.771 112.648 440.147C154.69 468.55 197.073 477.584 239.491 479.5C240.561 479.549 240.739 486.518 239.686 487.425C237.788 489.062 235.437 487.438 233.495 487.37C227.915 487.174 222.336 486.791 216.756 486.211C200.213 484.492 183.671 480.991 167.162 475.359C122.275 460.044 73.877 433.821 31.6097 359.962C28.9507 355.316 26.3128 350.424 23.7123 345.168C21.6325 340.964 19.573 336.557 17.5498 331.844C10.895 316.342 -4.61274 276.659 -1.37541 234.299ZM239.52 487.5C238.5 487.532 238.241 481.035 239.214 479.686C240.685 477.647 242.889 479.326 244.439 479.229C250.878 478.827 257.315 478.23 263.75 477.422C281.396 475.206 299.028 471.423 316.621 465.596C360.257 451.146 407.17 429.116 448.305 361.431C450.923 357.124 453.519 352.554 456.079 347.641C463.86 332.713 483.362 293.085 481.107 243.821C480.917 239.669 482.182 237.181 482.748 240.744C483.468 245.28 483.176 254.736 482.977 259.768C482.342 275.884 479.867 289.512 477.257 300.518C468.987 335.399 457.377 355.623 446.744 372.51C412.184 427.397 374.649 449.524 338.156 465.425C305.425 479.686 272.445 486.484 239.52 487.5Z" fill="#401C02"/>
</g>
</g>
<g filter="url(#filter2_f_862_12454)">
<path d="M348 364C348 385.539 330.539 403 309 403C287.461 403 270 385.539 270 364C270 342.461 287.461 325 309 325C330.539 325 348 342.461 348 364Z" fill="#E66200"/>
</g>
<path d="M306.539 325.6C306.439 325.3 306.239 325 306.139 324.7L305.739 324C305.539 323.7 305.439 323.4 305.239 323.2L305.139 323.1C305.039 322.9 304.839 322.7 304.739 322.5C303.539 321 302.239 319.6 300.839 318.3C298.339 316.2 295.639 314.3 292.839 312.6C287.639 309.5 282.139 306.8 276.539 304.5C273.739 303.4 270.939 302.3 268.139 301.3L267.239 301C266.139 300.6 265.039 300.2 263.939 299.9C262.539 299.4 261.139 299 259.639 298.6C256.339 297.6 253.539 296.9 250.939 296.3C248.639 295.8 246.839 295.4 245.139 295C244.539 294.9 243.939 295 243.439 295.3C242.939 295.6 242.539 296 242.239 296.6C242.039 297.1 242.039 297.7 242.139 298.3C242.339 298.9 242.739 299.3 243.239 299.6C244.839 300.6 246.439 301.6 248.139 302.6C250.339 303.9 252.539 305.2 254.739 306.5L270.339 315.6C275.139 318.5 279.939 321.3 284.239 324.3C286.239 325.7 288.139 327.2 289.939 328.8C290.439 329.2 290.839 329.7 291.339 330.2L291.439 330.4L291.339 330.5C290.939 331 290.439 331.5 289.939 332C288.139 333.6 286.239 335.1 284.239 336.5C279.739 339.6 274.939 342.5 270.339 345.2L253.839 354.8C253.339 355.1 252.939 355.5 252.639 356C252.339 356.5 252.239 357.1 252.239 357.7C252.239 358.3 252.439 358.9 252.639 359.4C252.939 359.9 253.339 360.3 253.839 360.6L256.739 362.3L270.839 370.5C275.039 373 279.139 375.5 282.939 378.1C284.739 379.3 286.339 380.6 287.939 382C288.339 382.4 288.739 382.8 289.139 383.2C288.739 383.6 288.339 384 287.939 384.4C286.339 385.8 284.739 387.1 282.939 388.3C279.039 391 274.839 393.5 270.839 395.9L257.139 403.9C255.239 405 253.339 406.1 251.439 407.3C250.039 408.1 248.639 409 247.239 409.9C246.739 410.2 246.339 410.6 246.239 411.2C246.039 411.7 246.039 412.3 246.239 412.8C246.439 413.3 246.739 413.6 247.139 413.9C247.539 414.2 248.039 414.3 248.539 414.3C248.739 414.3 248.839 414.3 249.039 414.2C250.539 413.9 252.139 413.5 254.039 413.1C256.339 412.6 258.739 411.9 261.639 411.1C264.539 410.3 266.839 409.5 269.139 408.7C271.339 407.9 273.839 407 276.539 405.9C281.539 403.9 286.239 401.6 290.839 398.9C293.339 397.4 295.639 395.8 297.839 393.9C299.139 392.8 300.239 391.6 301.339 390.2C301.539 390 301.639 389.8 301.839 389.5C302.039 389.2 302.139 389.1 302.239 388.9L302.639 388.2C302.739 388 302.839 387.7 303.039 387.4C303.639 386.1 303.939 384.7 303.939 383.2C303.939 381.8 303.639 380.3 303.039 379C302.939 378.8 302.839 378.5 302.639 378.2L302.239 377.5C301.839 377.2 301.739 377 301.539 376.7L301.439 376.5C301.339 376.3 301.239 376.2 301.139 376C300.139 374.7 298.939 373.4 297.639 372.3C295.439 370.4 293.139 368.8 290.639 367.3C286.039 364.6 281.239 362.3 276.339 360.3C274.439 359.5 272.539 358.8 270.739 358.1C272.539 357.4 274.439 356.7 276.539 355.9C282.139 353.6 287.639 351 292.939 347.9C295.739 346.3 298.439 344.4 300.939 342.2C302.439 341 303.739 339.6 304.839 338C304.939 337.8 305.039 337.7 305.239 337.5L305.339 337.3C305.339 337.2 305.539 337 305.639 336.7L306.139 335.9C306.239 335.6 306.439 335.3 306.539 335C307.139 333.5 307.539 331.9 307.539 330.3C307.539 328.7 307.239 327.1 306.539 325.6Z" fill="url(#paint4_radial_862_12454)"/>
<path d="M248.339 415.2C248.539 415.2 248.839 415.2 249.039 415.1C250.739 414.8 252.339 414.4 254.139 414C256.439 413.5 258.739 412.8 261.839 412C264.439 411.3 266.639 410.5 268.639 409.8L269.339 409.5C272.039 408.6 274.439 407.6 276.739 406.7C281.739 404.7 286.639 402.3 291.239 399.6C293.739 398.1 296.139 396.4 298.339 394.5C299.639 393.4 300.939 392.1 301.939 390.7C302.139 390.5 302.239 390.2 302.439 389.9L302.539 389.7C302.639 389.5 302.739 389.4 302.839 389.2L303.239 388.5C303.339 388.3 303.539 388 303.639 387.7C304.339 386.2 304.639 384.7 304.639 383.1C304.639 381.5 304.339 379.9 303.639 378.5L303.539 378.2C303.439 378 303.339 377.9 303.339 377.7L302.839 377C302.639 376.7 302.539 376.5 302.339 376.2L302.239 376C302.139 375.8 302.039 375.6 301.839 375.5C300.739 374.1 299.539 372.8 298.239 371.7C296.039 369.8 293.639 368.1 291.139 366.6C286.539 363.9 281.639 361.5 276.639 359.5C275.539 359 274.539 358.6 273.539 358.2C274.539 357.8 275.639 357.4 276.839 356.9C282.539 354.6 288.039 351.9 293.339 348.8C296.239 347.1 298.939 345.2 301.439 343.1C302.939 341.8 304.339 340.4 305.539 338.8C305.639 338.7 305.739 338.6 305.839 338.4L306.039 338C306.239 337.7 306.439 337.4 306.539 337.2L307.039 336.4C307.239 336.1 307.339 335.8 307.539 335.4C308.139 333.8 308.539 332.1 308.539 330.3C308.539 328.5 308.139 326.8 307.439 325.2C307.339 324.9 307.139 324.6 307.039 324.3L306.639 323.5C306.439 323.2 306.239 322.9 306.039 322.6L305.939 322.5C305.839 322.4 305.739 322.2 305.639 322L305.539 321.9C304.339 320.3 302.939 318.8 301.439 317.5C298.939 315.4 296.139 313.4 293.339 311.7C288.039 308.6 282.539 305.9 276.839 303.6C274.039 302.5 271.239 301.4 268.339 300.4L267.439 300.1C266.339 299.7 265.239 299.3 264.039 299C262.639 298.5 261.239 298.1 259.739 297.7C256.639 296.8 253.939 296 251.039 295.4C248.739 294.9 246.939 294.5 245.239 294.1C244.439 293.9 243.639 294.1 242.839 294.5C242.139 294.9 241.539 295.5 241.239 296.3C240.939 297.1 240.939 297.9 241.139 298.7C241.439 299.5 241.939 300.1 242.639 300.6C244.239 301.6 245.839 302.6 247.539 303.5C249.739 304.8 251.939 306.1 254.139 307.4L269.739 316.5C274.339 319.2 279.239 322.1 283.539 325.2C285.539 326.5 287.439 328 289.139 329.6C289.439 329.9 289.739 330.1 289.939 330.4C289.639 330.7 289.439 331 289.139 331.2C287.339 332.8 285.439 334.3 283.539 335.6C279.139 338.6 274.539 341.4 269.639 344.3L253.139 353.9C252.439 354.3 251.939 354.8 251.539 355.5C251.139 356.2 250.939 356.9 250.939 357.7C250.939 358.5 251.139 359.2 251.539 359.9C251.939 360.6 252.439 361.1 253.139 361.5L256.139 363L270.239 371.2C273.939 373.4 278.339 376 282.339 378.8C284.039 380 285.739 381.2 287.239 382.6C287.439 382.7 287.539 382.9 287.739 383.1C287.539 383.3 287.439 383.4 287.239 383.6C285.739 385 284.039 386.3 282.339 387.4C278.539 390 274.439 392.5 270.239 395L256.539 403C254.639 404.1 252.739 405.2 250.839 406.4L250.139 406.8C248.939 407.5 247.839 408.2 246.639 408.9C245.939 409.3 245.439 409.9 245.139 410.7C244.839 411.5 244.939 412.3 245.239 413C245.539 413.6 245.939 414.2 246.539 414.6C246.939 415 247.639 415.2 248.339 415.2ZM305.639 326C306.239 327.4 306.539 328.8 306.539 330.3C306.539 331.8 306.239 333.2 305.639 334.6C305.539 334.9 305.339 335.2 305.239 335.4L304.839 336.2C304.739 336.5 304.539 336.7 304.439 336.9L304.139 337.3C304.039 337.4 304.039 337.5 303.939 337.6C302.839 339.1 301.539 340.4 300.139 341.6C297.739 343.7 295.039 345.5 292.239 347.1C287.039 350.1 281.639 352.8 276.039 355C273.939 355.8 272.139 356.6 270.339 357.2L267.739 358.1L270.339 359C272.139 359.6 274.039 360.4 275.939 361.2C280.839 363.1 285.639 365.5 290.139 368.1C292.539 369.5 294.839 371.2 297.039 373C298.239 374.1 299.439 375.2 300.339 376.5C300.439 376.6 300.539 376.8 300.639 376.9L300.739 377.1C300.939 377.4 301.039 377.6 301.139 377.8L301.539 378.6C301.539 378.7 301.639 378.9 301.739 379L301.839 379.3C302.339 380.5 302.639 381.7 302.639 383.1C302.639 384.5 302.339 385.7 301.839 386.9C301.739 387.2 301.639 387.4 301.439 387.7L301.039 388.4C300.939 388.5 300.939 388.6 300.839 388.7L300.639 389C300.439 389.3 300.339 389.5 300.239 389.6C299.239 390.9 298.139 392.1 296.939 393.1C294.839 394.9 292.539 396.6 290.039 398C285.539 400.7 280.739 403 275.839 404.9C273.539 405.8 271.139 406.7 268.539 407.7L267.839 408C265.839 408.7 263.739 409.4 261.239 410.1C258.239 410.9 255.839 411.6 253.639 412.1C251.839 412.5 250.339 412.9 248.639 413.2C248.539 413.2 248.439 413.2 248.339 413.2C248.039 413.2 247.739 413.1 247.539 413C247.339 412.8 247.139 412.6 247.039 412.3C246.939 412 246.939 411.7 247.039 411.4C247.139 411.1 247.339 410.8 247.639 410.7C248.839 410 249.939 409.3 251.139 408.6L251.839 408.2C253.739 407.1 255.639 405.9 257.539 404.8L271.239 396.8C275.439 394.3 279.639 391.8 283.439 389.1C285.239 387.9 286.939 386.6 288.539 385.1C288.939 384.7 289.439 384.3 289.739 383.8L290.339 383.2L289.739 382.5C289.339 382 288.939 381.6 288.439 381.2C286.839 379.8 285.139 378.4 283.339 377.2C279.339 374.4 274.939 371.8 271.139 369.5L254.139 359.6C253.739 359.4 253.539 359.1 253.339 358.7C253.139 358.3 253.039 357.9 253.039 357.5C253.039 357.1 253.139 356.7 253.339 356.3C253.539 355.9 253.839 355.7 254.139 355.4L270.639 345.8C275.539 342.9 280.239 340.1 284.639 337C286.639 335.6 288.639 334.1 290.439 332.4C290.939 331.9 291.439 331.4 291.939 330.8L292.539 330.1L291.839 329.3C291.439 328.8 290.939 328.3 290.439 327.8C288.639 326.1 286.639 324.6 284.639 323.2C280.239 320.1 275.339 317.2 270.639 314.5L255.039 305.4C252.839 304.1 250.639 302.8 248.439 301.5C246.839 300.5 245.239 299.6 243.539 298.6C243.239 298.4 243.039 298.1 242.939 297.8C242.839 297.5 242.839 297.1 242.939 296.8C243.039 296.5 243.339 296.2 243.639 296C244.139 296 244.439 296 244.839 296C246.539 296.4 248.339 296.7 250.539 297.3C253.439 298 256.139 298.7 259.139 299.6C260.539 300 261.939 300.5 263.439 300.9C264.539 301.3 265.639 301.7 266.739 302L267.639 302.3C270.439 303.3 273.239 304.3 276.039 305.5C281.639 307.7 287.039 310.4 292.239 313.5C295.039 315.1 297.639 317 300.139 319.1C301.539 320.3 302.839 321.7 303.939 323.1L304.039 323.2C304.139 323.3 304.239 323.5 304.339 323.6L304.439 323.8C304.539 324 304.739 324.2 304.839 324.5L305.239 325.3C305.439 325.5 305.539 325.7 305.639 326Z" fill="url(#paint5_linear_862_12454)"/>
<path d="M72.8803 174.51C75.8803 163.6 95.8803 98.7705 152.31 105.28C154.192 105.552 155.946 106.391 157.339 107.684C158.733 108.977 159.699 110.664 160.11 112.52C160.439 113.793 160.357 115.137 159.876 116.36C159.394 117.584 158.538 118.623 157.43 119.33C145.58 127.66 113.84 125.33 89.2403 168C87.1338 171.771 85.2278 175.649 83.5303 179.62C82.2703 182.48 79.8903 186.38 76.5303 185.36C73.6703 184.49 72.7303 181.72 72.4703 179.42C72.2928 177.773 72.4319 176.106 72.8803 174.51Z" fill="#42210B"/>
<path d="M409.5 188.65C401.56 180.59 352.28 133.94 306.32 167.29C304.81 168.447 303.689 170.039 303.11 171.852C302.531 173.665 302.521 175.611 303.08 177.43C303.415 178.701 304.144 179.833 305.163 180.663C306.182 181.494 307.438 181.979 308.75 182.05C323.17 183.49 349.69 165.93 392.04 191C395.731 193.248 399.296 195.695 402.72 198.33C405.22 200.19 409.21 202.42 411.63 199.89C413.7 197.73 413.15 194.89 412.26 192.73C411.609 191.207 410.672 189.822 409.5 188.65Z" fill="#42210B"/>
<path d="M160.28 267.11C174.568 267.11 186.15 249.734 186.15 228.3C186.15 206.866 174.568 189.49 160.28 189.49C145.993 189.49 134.41 206.866 134.41 228.3C134.41 249.734 145.993 267.11 160.28 267.11Z" fill="url(#paint6_radial_862_12454)"/>
<path d="M160.28 267.11C174.568 267.11 186.15 249.734 186.15 228.3C186.15 206.866 174.568 189.49 160.28 189.49C145.993 189.49 134.41 206.866 134.41 228.3C134.41 249.734 145.993 267.11 160.28 267.11Z" stroke="url(#paint7_linear_862_12454)" stroke-width="2" stroke-miterlimit="10"/>
<path d="M349.785 247.561C346.252 245.552 342.469 244.019 338.535 243.001C323.455 239.001 308.855 243.311 295.695 250.951C280.995 259.491 267.695 236.711 282.385 228.181C309.775 212.281 345.215 209.431 370.945 230.241C383.815 240.641 366.325 258.531 353.305 249.641C352.168 248.879 350.993 248.175 349.785 247.531V247.561Z" fill="url(#paint8_radial_862_12454)"/>
<path d="M349.785 247.561C346.252 245.552 342.469 244.019 338.535 243.001C323.455 239.001 308.855 243.311 295.695 250.951C280.995 259.491 267.695 236.711 282.385 228.181C309.775 212.281 345.215 209.431 370.945 230.241C383.815 240.641 366.325 258.531 353.305 249.641C352.168 248.879 350.993 248.175 349.785 247.531V247.561Z" stroke="url(#paint9_linear_862_12454)" stroke-width="2" stroke-miterlimit="10"/>
<mask id="mask1_862_12454" style="mask-type:alpha" maskUnits="userSpaceOnUse" x="0" y="0" width="483" height="483">
<path d="M241.18 482.36C374.38 482.36 482.36 374.38 482.36 241.18C482.36 107.98 374.38 0 241.18 0C107.98 0 0 107.98 0 241.18C0 374.38 107.98 482.36 241.18 482.36Z" fill="url(#paint10_radial_862_12454)"/>
</mask>
<g mask="url(#mask1_862_12454)">
<g filter="url(#filter3_f_862_12454)">
<path d="M453.024 331.532C502.633 288.799 586.43 393.882 422.899 443.958C306.406 318.85 431.427 269.719 453.024 331.532Z" fill="#752B00"/>
</g>
</g>
<path d="M471.623 309.257C529.874 259.08 628.268 382.469 436.25 441.267C299.464 294.366 446.264 236.677 471.623 309.257Z" fill="url(#paint11_linear_862_12454)"/>
<mask id="mask2_862_12454" style="mask-type:alpha" maskUnits="userSpaceOnUse" x="378" y="277" width="172" height="165">
<path d="M471.624 309.257C529.875 259.08 628.269 382.469 436.251 441.267C299.465 294.366 446.265 236.677 471.624 309.257Z" fill="url(#paint12_linear_862_12454)"/>
</mask>
<g mask="url(#mask2_862_12454)">
<g filter="url(#filter4_f_862_12454)">
<path d="M388.041 331.097C387.96 321.612 392.214 311.693 399.608 304.097C407.002 296.501 417.401 291.307 428.724 289.894C434.372 289.241 440.245 289.447 446.046 290.774C451.848 292.1 457.499 294.412 462.652 297.731C467.805 301.05 472.355 305.348 476.066 310.218C479.777 315.089 482.438 320.477 484.404 325.906L458.023 318.837C459.187 317.895 460.323 317.059 461.488 316.117C462.652 315.175 463.895 314.368 465.137 313.561C466.38 312.754 467.7 312.081 469.049 311.302C470.398 310.524 471.796 309.986 473.116 309.314C478.765 306.951 484.854 305.504 490.976 305.207C497.099 304.909 503.255 305.76 508.942 307.512C514.63 309.264 519.819 312.023 524.383 315.412C533.484 322.297 539.892 331.995 542.498 342.27C545.103 352.545 543.827 363.263 539.015 371.436C537.729 366.873 536.33 362.736 534.468 359.045C532.607 355.354 530.391 352.137 527.847 349.29C522.945 343.758 517.026 339.892 511.077 337.841C505.127 335.791 499.205 335.344 494.003 336.459C488.802 337.574 484.167 339.98 479.587 343.883L461.323 359.284L453.206 336.814C451.162 331.25 448.38 326.742 444.433 323.177C440.486 319.611 435.268 316.958 428.956 315.837C422.75 314.744 415.719 315.027 408.679 317.473C405.159 318.696 401.632 320.373 398.068 322.61C394.717 324.905 391.358 327.653 388.041 331.097Z" fill="#FF3E3E"/>
</g>
<g filter="url(#filter5_f_862_12454)">
<path d="M422.288 424.187C420.318 422.177 418.455 420.195 416.592 418.214C415.621 417.156 414.728 416.232 413.758 415.174C412.894 414.145 412.029 413.115 411.087 411.95L405.853 405.531C404.181 403.259 402.616 401.016 401.051 398.772C394.819 389.692 389.241 379.874 385.061 369.519C380.881 359.164 378.156 348.059 377.864 336.807L377.855 332.587C377.878 331.225 378.036 329.785 378.194 328.345L378.416 326.238C378.481 325.571 378.68 324.827 378.745 324.16L379.509 320.032C380.962 314.607 383.054 309.353 386.018 304.675C384.061 309.851 382.877 315.12 382.147 320.397L381.866 324.426C381.801 325.093 381.736 325.76 381.778 326.455L381.797 328.512C381.88 329.903 381.78 331.13 381.863 332.52L382.171 336.479C383.194 347.128 386.118 357.489 390.171 367.468C394.117 377.418 399.192 386.987 404.643 396.428C406.073 398.75 407.397 401.043 408.799 403.471L413.224 410.357C413.954 411.464 414.655 412.678 415.384 413.786C416.113 414.893 416.949 416.029 417.678 417.137C419.321 419.515 420.858 421.865 422.288 424.187Z" fill="#FFBF5F"/>
</g>
<g filter="url(#filter6_f_862_12454)">
<path d="M385.692 309.717C388.2 300.356 393.879 291.503 401.973 285.121C409.962 278.71 420.203 274.956 430.631 274.33C441.167 273.732 452.045 276.533 460.969 282.801C465.406 285.814 469.374 289.727 472.533 294.108C475.691 298.489 478.176 303.259 480.014 308.312L471.185 305.946C475.197 302.461 479.734 299.572 484.659 297.357C489.585 295.143 494.95 293.844 500.328 293.347C511.161 292.487 522.011 295.395 530.836 301.18C539.661 306.965 546.547 315.308 550.366 324.882C554.185 334.457 554.676 344.963 552.168 354.324C552.162 353.069 552.128 351.919 552.123 350.664C552.088 349.515 551.977 348.23 551.836 347.053C551.555 344.697 551.168 342.313 550.646 340.007C549.466 335.473 547.776 331.143 545.546 327.125C540.952 319.168 534.249 312.697 526.465 308.559C518.68 304.421 509.815 302.616 501.436 303.677C492.951 304.71 484.98 308.502 478.446 314.163L472.346 319.483L469.724 311.825C466.789 303.628 461.918 296.28 455.085 291.143C448.253 286.006 439.779 283.166 430.862 282.829C422.052 282.52 413.012 284.772 405.054 289.367C401.143 291.625 397.379 294.607 394.197 297.973C392.592 299.709 391.093 301.473 389.643 303.479C388.933 304.429 388.222 305.379 387.59 306.463C386.957 307.548 386.324 308.633 385.692 309.717Z" fill="#700000"/>
</g>
<g filter="url(#filter7_f_862_12454)">
<path d="M385.692 309.717C388.2 300.356 393.879 291.503 401.973 285.121C409.962 278.71 420.203 274.956 430.631 274.33C441.167 273.732 452.045 276.533 460.969 282.801C465.406 285.814 469.374 289.727 472.533 294.108C475.691 298.489 478.176 303.259 480.014 308.312L471.185 305.946C475.197 302.461 479.734 299.572 484.659 297.357C489.585 295.143 494.95 293.844 500.328 293.347C511.161 292.487 522.011 295.395 530.836 301.18C539.661 306.965 546.547 315.308 550.366 324.882C554.185 334.457 554.676 344.963 552.168 354.324C552.162 353.069 552.128 351.919 552.123 350.664C552.088 349.515 551.977 348.23 551.836 347.053C551.555 344.697 551.168 342.313 550.646 340.007C549.466 335.473 547.776 331.143 545.546 327.125C540.952 319.168 534.249 312.697 526.465 308.559C518.68 304.421 509.815 302.616 501.436 303.677C492.951 304.71 484.98 308.502 478.446 314.163L472.346 319.483L469.724 311.825C466.789 303.628 461.918 296.28 455.085 291.143C448.253 286.006 439.779 283.166 430.862 282.829C422.052 282.52 413.012 284.772 405.054 289.367C401.143 291.625 397.379 294.607 394.197 297.973C392.592 299.709 391.093 301.473 389.643 303.479C388.933 304.429 388.222 305.379 387.59 306.463C386.957 307.548 386.324 308.633 385.692 309.717Z" fill="#700000"/>
</g>
<g filter="url(#filter8_f_862_12454)">
<path d="M384.85 330.242C384.769 320.758 389.023 310.838 396.417 303.243C403.81 295.647 414.209 290.452 425.533 289.04C431.18 288.387 437.054 288.593 442.855 289.919C448.656 291.245 454.307 293.558 459.461 296.877C464.614 300.196 469.163 304.493 472.874 309.364C476.586 314.235 479.247 319.622 481.212 325.051L454.831 317.983C455.996 317.041 457.132 316.205 458.297 315.263C459.461 314.321 460.703 313.513 461.946 312.706C463.188 311.899 464.509 311.227 465.857 310.448C467.206 309.669 468.604 309.132 469.924 308.459C475.574 306.097 481.662 304.65 487.785 304.352C493.907 304.054 500.064 304.906 505.751 306.658C511.438 308.41 516.628 311.168 521.192 314.558C530.292 321.443 536.701 331.141 539.306 341.416C541.911 351.691 540.636 362.408 535.824 370.582C534.538 366.019 533.138 361.881 531.277 358.19C529.416 354.499 527.199 351.283 524.656 348.435C519.753 342.903 513.835 339.037 507.885 336.987C501.936 334.937 496.013 334.49 490.812 335.604C485.611 336.719 480.976 339.125 476.395 343.029L458.131 358.429L450.121 335.988C448.077 330.424 445.295 325.916 441.348 322.351C437.401 318.785 432.183 316.132 425.871 315.011C419.665 313.918 412.634 314.201 405.594 316.647C402.074 317.87 398.546 319.547 394.983 321.784C391.525 324.05 388.167 326.799 384.85 330.242Z" fill="#FF9797"/>
</g>
<g filter="url(#filter9_f_862_12454)">
<path d="M457.392 433.592C459.791 432.297 462.297 431.03 464.774 429.87C465.959 429.275 467.251 428.709 468.436 428.115C469.622 427.52 470.836 426.819 472.021 426.225L479.297 422.474C481.618 421.044 484.017 419.748 486.417 418.453C495.858 413.002 504.931 407.224 513.43 400.609C521.823 393.965 529.643 386.483 535.853 377.772L538.099 374.497C538.866 373.335 539.393 372.221 540.16 371.059L541.205 369.287C541.589 368.706 541.76 368.067 542.144 367.486L543.914 363.856C546.027 358.95 547.559 353.659 548.424 348.305C548.757 353.867 547.836 359.434 546.382 364.859L544.98 368.816C544.702 369.426 544.503 370.17 544.225 370.78L543.365 372.716C542.781 374.042 542.227 375.261 541.537 376.558L539.419 380.209C533.54 389.807 525.628 398.062 516.83 404.94C508.033 411.818 498.4 417.559 488.356 422.279C485.879 423.439 483.402 424.6 480.818 425.732L473.075 428.673C471.812 429.133 470.52 429.699 469.15 430.13C467.781 430.561 466.518 431.021 465.176 431.346C462.707 432.052 460.074 432.943 457.392 433.592Z" fill="white"/>
</g>
</g>
<g style="mix-blend-mode:soft-light">
<path d="M471.669 309.269C529.921 259.093 628.314 382.481 436.297 441.28C299.404 294.35 446.31 236.689 471.669 309.269Z" fill="url(#paint13_linear_862_12454)"/>
</g>
<g style="mix-blend-mode:soft-light">
<path d="M471.669 309.269C446.31 236.689 299.404 294.35 436.297 441.28C628.314 382.481 529.921 259.093 471.669 309.269Z" fill="url(#paint14_linear_862_12454)"/>
</g>
<mask id="mask3_862_12454" style="mask-type:alpha" maskUnits="userSpaceOnUse" x="378" y="277" width="172" height="165">
<path d="M471.623 309.257C529.874 259.08 628.268 382.469 436.25 441.267C299.464 294.366 446.264 236.677 471.623 309.257Z" fill="url(#paint15_linear_862_12454)"/>
</mask>
<g mask="url(#mask3_862_12454)">
<g filter="url(#filter10_f_862_12454)">
<path d="M447.812 282.126C450.676 283.35 453.349 284.864 455.936 286.697C458.416 288.502 460.812 290.626 462.909 293.012C465.034 295.292 466.833 297.94 468.39 300.637C469.948 303.335 471.235 306.188 472.253 309.197L471.402 308.969C473.76 306.979 476.301 305.151 479.028 303.488C481.725 301.93 484.607 300.536 487.587 299.625C490.596 298.607 493.626 297.936 496.783 297.642C499.941 297.348 503.012 297.373 506.105 297.746C499.834 297.32 493.647 298.284 487.842 300.377C484.939 301.423 482.192 302.739 479.495 304.297C476.904 305.883 474.362 307.71 472.004 309.701L471.408 310.225L471.26 309.501C470.213 306.598 469.032 303.774 467.474 301.076C466.023 298.407 464.196 295.865 462.206 293.508C458.331 288.821 453.349 284.864 447.812 282.126Z" fill="#820010"/>
</g>
<g filter="url(#filter11_f_862_12454)">
<path d="M447.812 282.126C450.676 283.35 453.349 284.864 455.936 286.697C458.416 288.502 460.812 290.626 462.909 293.012C465.034 295.292 466.833 297.94 468.39 300.637C469.948 303.335 471.235 306.188 472.253 309.197L471.402 308.969C473.76 306.979 476.301 305.151 479.028 303.488C481.725 301.93 484.607 300.536 487.587 299.625C490.596 298.607 493.626 297.936 496.783 297.642C499.941 297.348 503.012 297.373 506.105 297.746C499.834 297.32 493.647 298.284 487.842 300.377C484.939 301.423 482.192 302.739 479.495 304.297C476.904 305.883 474.362 307.71 472.004 309.701L471.408 310.225L471.26 309.501C470.213 306.598 469.032 303.774 467.474 301.076C466.023 298.407 464.196 295.865 462.206 293.508C458.331 288.821 453.349 284.864 447.812 282.126Z" fill="#820010"/>
</g>
<g filter="url(#filter12_f_862_12454)">
<path d="M447.812 282.126C450.676 283.35 453.349 284.864 455.936 286.697C458.416 288.502 460.812 290.626 462.909 293.012C465.034 295.292 466.833 297.94 468.39 300.637C469.948 303.335 471.235 306.188 472.253 309.197L471.402 308.969C473.76 306.979 476.301 305.151 479.028 303.488C481.725 301.93 484.607 300.536 487.587 299.625C490.596 298.607 493.626 297.936 496.783 297.642C499.941 297.348 503.012 297.373 506.105 297.746C499.834 297.32 493.647 298.284 487.842 300.377C484.939 301.423 482.192 302.739 479.495 304.297C476.904 305.883 474.362 307.71 472.004 309.701L471.408 310.225L471.26 309.501C470.213 306.598 469.032 303.774 467.474 301.076C466.023 298.407 464.196 295.865 462.206 293.508C458.331 288.821 453.349 284.864 447.812 282.126Z" fill="#820010"/>
</g>
</g>
<defs>
<filter id="filter0_f_862_12454" x="-26.8145" y="206.559" width="535.021" height="306.595" filterUnits="userSpaceOnUse" color-interpolation-filters="sRGB">
<feFlood flood-opacity="0" result="BackgroundImageFix"/>
<feBlend mode="normal" in="SourceGraphic" in2="BackgroundImageFix" result="shape"/>
<feGaussianBlur stdDeviation="12.5" result="effect1_foregroundBlur_862_12454"/>
</filter>
<filter id="filter1_f_862_12454" x="-41.8145" y="191.559" width="565.021" height="336.595" filterUnits="userSpaceOnUse" color-interpolation-filters="sRGB">
<feFlood flood-opacity="0" result="BackgroundImageFix"/>
<feBlend mode="normal" in="SourceGraphic" in2="BackgroundImageFix" result="shape"/>
<feGaussianBlur stdDeviation="20" result="effect1_foregroundBlur_862_12454"/>
</filter>
<filter id="filter2_f_862_12454" x="235" y="290" width="148" height="148" filterUnits="userSpaceOnUse" color-interpolation-filters="sRGB">
<feFlood flood-opacity="0" result="BackgroundImageFix"/>
<feBlend mode="normal" in="SourceGraphic" in2="BackgroundImageFix" result="shape"/>
<feGaussianBlur stdDeviation="17.5" result="effect1_foregroundBlur_862_12454"/>
</filter>
<filter id="filter3_f_862_12454" x="343.913" y="274.892" width="205.181" height="199.066" filterUnits="userSpaceOnUse" color-interpolation-filters="sRGB">
<feFlood flood-opacity="0" result="BackgroundImageFix"/>
<feBlend mode="normal" in="SourceGraphic" in2="BackgroundImageFix" result="shape"/>
<feGaussianBlur stdDeviation="15" result="effect1_foregroundBlur_862_12454"/>
</filter>
<filter id="filter4_f_862_12454" x="368.04" y="269.535" width="195.782" height="121.901" filterUnits="userSpaceOnUse" color-interpolation-filters="sRGB">
<feFlood flood-opacity="0" result="BackgroundImageFix"/>
<feBlend mode="normal" in="SourceGraphic" in2="BackgroundImageFix" result="shape"/>
<feGaussianBlur stdDeviation="10" result="effect1_foregroundBlur_862_12454"/>
</filter>
<filter id="filter5_f_862_12454" x="367.855" y="294.675" width="64.4326" height="139.512" filterUnits="userSpaceOnUse" color-interpolation-filters="sRGB">
<feFlood flood-opacity="0" result="BackgroundImageFix"/>
<feBlend mode="normal" in="SourceGraphic" in2="BackgroundImageFix" result="shape"/>
<feGaussianBlur stdDeviation="5" result="effect1_foregroundBlur_862_12454"/>
</filter>
<filter id="filter6_f_862_12454" x="365.691" y="254.251" width="208.026" height="120.073" filterUnits="userSpaceOnUse" color-interpolation-filters="sRGB">
<feFlood flood-opacity="0" result="BackgroundImageFix"/>
<feBlend mode="normal" in="SourceGraphic" in2="BackgroundImageFix" result="shape"/>
<feGaussianBlur stdDeviation="10" result="effect1_foregroundBlur_862_12454"/>
</filter>
<filter id="filter7_f_862_12454" x="365.691" y="254.251" width="208.026" height="120.073" filterUnits="userSpaceOnUse" color-interpolation-filters="sRGB">
<feFlood flood-opacity="0" result="BackgroundImageFix"/>
<feBlend mode="normal" in="SourceGraphic" in2="BackgroundImageFix" result="shape"/>
<feGaussianBlur stdDeviation="10" result="effect1_foregroundBlur_862_12454"/>
</filter>
<filter id="filter8_f_862_12454" x="344.849" y="248.681" width="235.782" height="161.901" filterUnits="userSpaceOnUse" color-interpolation-filters="sRGB">
<feFlood flood-opacity="0" result="BackgroundImageFix"/>
<feBlend mode="normal" in="SourceGraphic" in2="BackgroundImageFix" result="shape"/>
<feGaussianBlur stdDeviation="20" result="effect1_foregroundBlur_862_12454"/>
</filter>
<filter id="filter9_f_862_12454" x="447.392" y="338.305" width="111.101" height="105.287" filterUnits="userSpaceOnUse" color-interpolation-filters="sRGB">
<feFlood flood-opacity="0" result="BackgroundImageFix"/>
<feBlend mode="normal" in="SourceGraphic" in2="BackgroundImageFix" result="shape"/>
<feGaussianBlur stdDeviation="5" result="effect1_foregroundBlur_862_12454"/>
</filter>
<filter id="filter10_f_862_12454" x="441.812" y="276.126" width="70.293" height="40.0986" filterUnits="userSpaceOnUse" color-interpolation-filters="sRGB">
<feFlood flood-opacity="0" result="BackgroundImageFix"/>
<feBlend mode="normal" in="SourceGraphic" in2="BackgroundImageFix" result="shape"/>
<feGaussianBlur stdDeviation="3" result="effect1_foregroundBlur_862_12454"/>
</filter>
<filter id="filter11_f_862_12454" x="443.812" y="278.126" width="66.293" height="36.0986" filterUnits="userSpaceOnUse" color-interpolation-filters="sRGB">
<feFlood flood-opacity="0" result="BackgroundImageFix"/>
<feBlend mode="normal" in="SourceGraphic" in2="BackgroundImageFix" result="shape"/>
<feGaussianBlur stdDeviation="2" result="effect1_foregroundBlur_862_12454"/>
</filter>
<filter id="filter12_f_862_12454" x="439.812" y="274.126" width="74.293" height="44.0986" filterUnits="userSpaceOnUse" color-interpolation-filters="sRGB">
<feFlood flood-opacity="0" result="BackgroundImageFix"/>
<feBlend mode="normal" in="SourceGraphic" in2="BackgroundImageFix" result="shape"/>
<feGaussianBlur stdDeviation="4" result="effect1_foregroundBlur_862_12454"/>
</filter>
<radialGradient id="paint0_radial_862_12454" cx="0" cy="0" r="1" gradientUnits="userSpaceOnUse" gradientTransform="translate(241 -4.53898e-06) rotate(90) scale(482)">
<stop stop-color="#FFDE43"/>
<stop offset="1" stop-color="#FFBC00"/>
</radialGradient>
<radialGradient id="paint1_radial_862_12454" cx="0" cy="0" r="1" gradientUnits="userSpaceOnUse" gradientTransform="translate(241 64.5) rotate(90) scale(417.5)">
<stop stop-color="white" stop-opacity="0.5"/>
<stop offset="0.782278"/>
</radialGradient>
<radialGradient id="paint2_radial_862_12454" cx="0" cy="0" r="1" gradientUnits="userSpaceOnUse" gradientTransform="translate(241 64.5) rotate(90) scale(417.5)">
<stop stop-color="white" stop-opacity="0.5"/>
<stop offset="0.782278"/>
</radialGradient>
<radialGradient id="paint3_radial_862_12454" cx="0" cy="0" r="1" gradientUnits="userSpaceOnUse" gradientTransform="translate(241 -52.5) rotate(90) scale(534.5 722.835)">
<stop offset="0.0922635" stop-color="white"/>
<stop offset="0.670207" stop-color="white" stop-opacity="0"/>
</radialGradient>
<radialGradient id="paint4_radial_862_12454" cx="0" cy="0" r="1" gradientUnits="userSpaceOnUse" gradientTransform="translate(274.762 354.336) scale(24.7525 120.419)">
<stop stop-color="#743C1C"/>
<stop offset="1" stop-color="#401C02"/>
</radialGradient>
<linearGradient id="paint5_linear_862_12454" x1="308.539" y1="354.581" x2="240.987" y2="354.581" gradientUnits="userSpaceOnUse">
<stop stop-color="#FFDE43"/>
<stop offset="0.22" stop-color="#FED93F"/>
<stop offset="0.51" stop-color="#FCC934"/>
<stop offset="0.82" stop-color="#F9AF21"/>
<stop offset="1" stop-color="#F79D14"/>
</linearGradient>
<radialGradient id="paint6_radial_862_12454" cx="0" cy="0" r="1" gradientUnits="userSpaceOnUse" gradientTransform="translate(160.244 228.274) scale(32.9779 38.8773)">
<stop stop-color="#743C1C"/>
<stop offset="1" stop-color="#401C02"/>
</radialGradient>
<linearGradient id="paint7_linear_862_12454" x1="160.28" y1="269.294" x2="160.28" y2="186.993" gradientUnits="userSpaceOnUse">
<stop stop-color="#FFDE43"/>
<stop offset="0.22" stop-color="#FED93F"/>
<stop offset="0.51" stop-color="#FCC934"/>
<stop offset="0.82" stop-color="#F9AF21"/>
<stop offset="1" stop-color="#F79D14"/>
</linearGradient>
<radialGradient id="paint8_radial_862_12454" cx="0" cy="0" r="1" gradientUnits="userSpaceOnUse" gradientTransform="translate(325.656 234.127) scale(63.387 18.7281)">
<stop stop-color="#743C1C"/>
<stop offset="1" stop-color="#401C02"/>
</radialGradient>
<linearGradient id="paint9_linear_862_12454" x1="325.725" y1="253.887" x2="325.725" y2="214.24" gradientUnits="userSpaceOnUse">
<stop stop-color="#FFDE43"/>
<stop offset="0.22" stop-color="#FED93F"/>
<stop offset="0.51" stop-color="#FCC934"/>
<stop offset="0.82" stop-color="#F9AF21"/>
<stop offset="1" stop-color="#F79D14"/>
</linearGradient>
<radialGradient id="paint10_radial_862_12454" cx="0" cy="0" r="1" gradientUnits="userSpaceOnUse" gradientTransform="translate(241 -4.53898e-06) rotate(90) scale(482)">
<stop stop-color="#FFDE43"/>
<stop offset="1" stop-color="#FFBC00"/>
</radialGradient>
<linearGradient id="paint11_linear_862_12454" x1="477.004" y1="289.313" x2="436.286" y2="441.274" gradientUnits="userSpaceOnUse">
<stop stop-color="#FF0000"/>
<stop offset="1" stop-color="#610003"/>
</linearGradient>
<linearGradient id="paint12_linear_862_12454" x1="477.005" y1="289.313" x2="436.287" y2="441.274" gradientUnits="userSpaceOnUse">
<stop stop-color="#FF0000"/>
<stop offset="1" stop-color="#610003"/>
</linearGradient>
<linearGradient id="paint13_linear_862_12454" x1="539.935" y1="387.611" x2="373.376" y2="342.981" gradientUnits="userSpaceOnUse">
<stop stop-color="#FF8F00"/>
<stop offset="0.0143476" stop-color="#FF9001" stop-opacity="0.9857"/>
<stop offset="0.2987" stop-color="#FF9912" stop-opacity="0.7013"/>
<stop offset="0.6103" stop-color="#FF9F1C" stop-opacity="0.3897"/>
<stop offset="1" stop-color="#FFA11F" stop-opacity="0"/>
</linearGradient>
<linearGradient id="paint14_linear_862_12454" x1="373.421" y1="342.993" x2="539.98" y2="387.623" gradientUnits="userSpaceOnUse">
<stop stop-color="#FF8F00"/>
<stop offset="0.0143476" stop-color="#FF9001" stop-opacity="0.9857"/>
<stop offset="0.2987" stop-color="#FF9912" stop-opacity="0.7013"/>
<stop offset="0.6103" stop-color="#FF9F1C" stop-opacity="0.3897"/>
<stop offset="1" stop-color="#FFA11F" stop-opacity="0"/>
</linearGradient>
<linearGradient id="paint15_linear_862_12454" x1="477.004" y1="289.313" x2="436.286" y2="441.274" gradientUnits="userSpaceOnUse">
<stop stop-color="#FF0000"/>
<stop offset="1" stop-color="#610003"/>
</linearGradient>
</defs>
</svg>
