<svg width="483" height="551" viewBox="0 0 483 551" fill="none" xmlns="http://www.w3.org/2000/svg">
<path d="M150.2 447.33L338.61 448.67C339.25 448.41 339.9 448.17 340.61 447.93C349.86 444.57 361.46 442.58 374.04 442.58C404.36 442.58 428.95 454.16 428.95 468.43C428.846 472.002 427.454 475.415 425.03 478.04C423.752 479.545 423.051 481.456 423.051 483.43C423.051 485.404 423.752 487.315 425.03 488.82C427.455 491.444 428.848 494.858 428.95 498.43C428.95 511.26 409.1 521.9 383.09 523.93C380.044 524.184 377.097 525.128 374.47 526.69C371.666 528.371 369.217 530.582 367.26 533.2C365.073 535.88 362.429 538.151 359.45 539.91C355.1 542.637 350.233 544.436 345.155 545.195C340.077 545.954 334.897 545.656 329.94 544.32H329.89C325.303 543.116 320.852 541.441 316.61 539.32C302.73 532.38 283.12 527.67 260.98 526.67C257.873 526.517 254.717 526.44 251.51 526.44C225.28 526.44 201.78 531.54 185.99 539.58C182.383 541.457 178.627 543.033 174.76 544.29L170.35 545.67C161.149 548.614 151.55 550.121 141.89 550.14H141.67C111.35 550.14 86.76 538.56 86.76 524.28V524.22C86.76 520.68 84.76 517.62 82 516.88C65.27 512.46 54 504.02 54 494.35C54.0211 492.14 54.5879 489.969 55.65 488.03C57.0855 485.358 57.8368 482.373 57.8368 479.34C57.8368 476.307 57.0855 473.322 55.65 470.65C54.5848 468.72 54.0177 466.555 54 464.35C54 450.06 78.58 438.5 108.91 438.5C124.4 438.5 138.38 441.5 148.36 446.37C149.01 446.68 149.64 447.01 150.26 447.37" fill="url(#paint0_linear_862_12472)"/>
<mask id="mask0_862_12472" style="mask-type:alpha" maskUnits="userSpaceOnUse" x="54" y="438" width="375" height="113">
<path d="M150.2 447.33L338.61 448.67C339.25 448.41 339.9 448.17 340.61 447.93C349.86 444.57 361.46 442.58 374.04 442.58C404.36 442.58 428.95 454.16 428.95 468.43C428.846 472.002 427.454 475.415 425.03 478.04C423.752 479.545 423.051 481.456 423.051 483.43C423.051 485.404 423.752 487.315 425.03 488.82C427.455 491.444 428.848 494.858 428.95 498.43C428.95 511.26 409.1 521.9 383.09 523.93C380.044 524.184 377.097 525.128 374.47 526.69C371.666 528.371 369.217 530.582 367.26 533.2C365.073 535.88 362.429 538.151 359.45 539.91C355.1 542.637 350.233 544.436 345.155 545.195C340.077 545.954 334.897 545.656 329.94 544.32H329.89C325.303 543.116 320.852 541.441 316.61 539.32C302.73 532.38 283.12 527.67 260.98 526.67C257.873 526.517 254.717 526.44 251.51 526.44C225.28 526.44 201.78 531.54 185.99 539.58C182.383 541.457 178.627 543.033 174.76 544.29L170.35 545.67C161.149 548.614 151.55 550.121 141.89 550.14H141.67C111.35 550.14 86.76 538.56 86.76 524.28V524.22C86.76 520.68 84.76 517.62 82 516.88C65.27 512.46 54 504.02 54 494.35C54.0211 492.14 54.5879 489.969 55.65 488.03C57.0855 485.358 57.8368 482.373 57.8368 479.34C57.8368 476.307 57.0855 473.322 55.65 470.65C54.5848 468.72 54.0177 466.555 54 464.35C54 450.06 78.58 438.5 108.91 438.5C124.4 438.5 138.38 441.5 148.36 446.37C149.01 446.68 149.64 447.01 150.26 447.37" fill="url(#paint1_linear_862_12472)"/>
</mask>
<g mask="url(#mask0_862_12472)">
<g filter="url(#filter0_f_862_12472)">
<mask id="path-3-inside-1_862_12472" fill="white">
<path d="M150.2 447.33L338.61 448.67C339.25 448.41 339.9 448.17 340.61 447.93C349.86 444.57 361.46 442.58 374.04 442.58C404.36 442.58 428.95 454.16 428.95 468.43C428.846 472.002 427.454 475.415 425.03 478.04C423.752 479.545 423.051 481.456 423.051 483.43C423.051 485.404 423.752 487.315 425.03 488.82C427.455 491.444 428.848 494.858 428.95 498.43C428.95 511.26 409.1 521.9 383.09 523.93C380.044 524.184 377.097 525.128 374.47 526.69C371.666 528.371 369.217 530.582 367.26 533.2C365.073 535.88 362.429 538.151 359.45 539.91C355.1 542.637 350.233 544.436 345.155 545.195C340.077 545.954 334.897 545.656 329.94 544.32H329.89C325.303 543.116 320.852 541.441 316.61 539.32C302.73 532.38 283.12 527.67 260.98 526.67C257.873 526.517 254.717 526.44 251.51 526.44C225.28 526.44 201.78 531.54 185.99 539.58C182.383 541.457 178.627 543.033 174.76 544.29L170.35 545.67C161.149 548.614 151.55 550.121 141.89 550.14H141.67C111.35 550.14 86.76 538.56 86.76 524.28V524.22C86.76 520.68 84.76 517.62 82 516.88C65.27 512.46 54 504.02 54 494.35C54.0211 492.14 54.5879 489.969 55.65 488.03C57.0855 485.358 57.8368 482.373 57.8368 479.34C57.8368 476.307 57.0855 473.322 55.65 470.65C54.5848 468.72 54.0177 466.555 54 464.35C54 450.06 78.58 438.5 108.91 438.5C124.4 438.5 138.38 441.5 148.36 446.37C149.01 446.68 149.64 447.01 150.26 447.37"/>
</mask>
<path d="M338.61 448.67L338.589 451.67L339.186 451.674L339.739 451.449L338.61 448.67ZM340.61 447.93L341.571 450.772L341.603 450.761L341.634 450.75L340.61 447.93ZM428.95 468.43L431.949 468.517L431.95 468.474V468.43H428.95ZM425.03 478.04L422.826 476.005L422.783 476.051L422.743 476.099L425.03 478.04ZM423.051 483.43H420.051H423.051ZM425.03 488.82L422.743 490.761L422.784 490.81L422.827 490.856L425.03 488.82ZM428.95 498.43H431.95V498.387L431.949 498.344L428.95 498.43ZM383.09 523.93L382.857 520.939L382.849 520.94L382.841 520.94L383.09 523.93ZM374.47 526.69L372.936 524.112L372.928 524.117L374.47 526.69ZM367.26 533.2L369.584 535.097L369.625 535.048L369.663 534.996L367.26 533.2ZM359.45 539.91L357.925 537.327L357.89 537.347L357.857 537.368L359.45 539.91ZM329.94 544.32L330.721 541.423L330.337 541.32H329.94V544.32ZM329.89 544.32L329.129 547.222L329.503 547.32H329.89V544.32ZM316.61 539.32L315.268 542.003L315.269 542.003L316.61 539.32ZM260.98 526.67L260.832 529.666L260.845 529.667L260.98 526.67ZM185.99 539.58L184.629 536.907L184.617 536.913L184.605 536.919L185.99 539.58ZM174.76 544.29L175.656 547.153L175.672 547.148L175.688 547.143L174.76 544.29ZM170.35 545.67L169.454 542.807L169.445 542.81L169.436 542.813L170.35 545.67ZM141.89 550.14V553.14L141.896 553.14L141.89 550.14ZM82 516.88L82.7769 513.982L82.7663 513.98L82 516.88ZM54 494.35L51.0001 494.321L51 494.336V494.35H54ZM55.65 488.03L58.281 489.471L58.2869 489.461L58.2927 489.45L55.65 488.03ZM57.8368 479.34H60.8368H57.8368ZM55.65 470.65L58.2927 469.23L58.2847 469.215L58.2766 469.201L55.65 470.65ZM54 464.35H51V464.362L51.0001 464.374L54 464.35ZM148.36 446.37L147.044 449.066L147.056 449.072L147.069 449.078L148.36 446.37ZM150.179 450.33L338.589 451.67L338.631 445.67L150.221 444.33L150.179 450.33ZM339.739 451.449C340.317 451.214 340.911 450.995 341.571 450.772L339.649 445.088C338.889 445.345 338.183 445.606 337.481 445.891L339.739 451.449ZM341.634 450.75C350.509 447.526 361.756 445.58 374.04 445.58V439.58C361.164 439.58 349.211 441.614 339.586 445.11L341.634 450.75ZM374.04 445.58C388.859 445.58 402.132 448.416 411.587 452.868C421.278 457.431 425.95 463.139 425.95 468.43H431.95C431.95 459.451 424.327 452.234 414.143 447.44C403.724 442.534 389.541 439.58 374.04 439.58V445.58ZM425.951 468.343C425.868 471.19 424.758 473.912 422.826 476.005L427.234 480.075C430.149 476.918 431.824 472.813 431.949 468.517L425.951 468.343ZM422.743 476.099C421.005 478.146 420.051 480.745 420.051 483.43H426.051C426.051 482.167 426.5 480.944 427.317 479.981L422.743 476.099ZM420.051 483.43C420.051 486.115 421.005 488.714 422.743 490.761L427.317 486.879C426.5 485.916 426.051 484.693 426.051 483.43H420.051ZM422.827 490.856C424.76 492.948 425.87 495.669 425.951 498.516L431.949 498.344C431.826 494.047 430.151 489.941 427.233 486.784L422.827 490.856ZM425.95 498.43C425.95 503.176 422.223 508.259 414.328 512.601C406.581 516.862 395.557 519.948 382.857 520.939L383.323 526.921C396.633 525.882 408.539 522.633 417.22 517.859C425.752 513.166 431.95 506.514 431.95 498.43H425.95ZM382.841 520.94C379.341 521.232 375.954 522.316 372.936 524.112L376.004 529.268C378.239 527.939 380.747 527.136 383.339 526.92L382.841 520.94ZM372.928 524.117C369.789 525.998 367.048 528.473 364.857 531.404L369.663 534.996C371.386 532.691 373.543 530.743 376.012 529.263L372.928 524.117ZM364.936 531.303C362.972 533.709 360.599 535.748 357.925 537.327L360.975 542.493C364.259 540.555 367.173 538.051 369.584 535.097L364.936 531.303ZM357.857 537.368C353.856 539.876 349.381 541.53 344.712 542.228L345.599 548.162C351.085 547.342 356.343 545.398 361.043 542.452L357.857 537.368ZM344.712 542.228C340.042 542.926 335.279 542.652 330.721 541.423L329.159 547.217C334.516 548.66 340.112 548.982 345.599 548.162L344.712 542.228ZM329.94 541.32H329.89V547.32H329.94V541.32ZM330.651 541.418C326.264 540.267 322.008 538.665 317.952 536.637L315.269 542.003C319.696 544.217 324.341 545.966 329.129 547.222L330.651 541.418ZM317.952 536.637C303.601 529.462 283.555 524.687 261.115 523.673L260.845 529.667C282.685 530.653 301.859 535.298 315.268 542.003L317.952 536.637ZM261.128 523.674C257.97 523.518 254.764 523.44 251.51 523.44V529.44C254.669 529.44 257.776 529.516 260.832 529.666L261.128 523.674ZM251.51 523.44C224.954 523.44 200.954 528.594 184.629 536.907L187.351 542.253C202.606 534.486 225.606 529.44 251.51 529.44V523.44ZM184.605 536.919C181.145 538.72 177.542 540.231 173.832 541.437L175.688 547.143C179.712 545.834 183.621 544.195 187.375 542.241L184.605 536.919ZM173.864 541.427L169.454 542.807L171.246 548.533L175.656 547.153L173.864 541.427ZM169.436 542.813C160.529 545.662 151.236 547.122 141.884 547.14L141.896 553.14C151.864 553.121 161.77 551.565 171.264 548.527L169.436 542.813ZM141.89 547.14H141.67V553.14H141.89V547.14ZM141.67 547.14C126.851 547.14 113.579 544.304 104.123 539.851C94.4329 535.287 89.76 529.576 89.76 524.28H83.76C83.76 533.264 91.3821 540.483 101.567 545.279C111.986 550.186 126.169 553.14 141.67 553.14V547.14ZM89.76 524.28V524.22H83.76V524.28H89.76ZM89.76 524.22C89.76 519.735 87.2086 515.171 82.7769 513.982L81.2231 519.778C82.3114 520.069 83.76 521.625 83.76 524.22H89.76ZM82.7663 513.98C74.6582 511.837 68.0728 508.768 63.584 505.228C59.0774 501.674 57 497.925 57 494.35H51C51 500.445 54.5576 505.751 59.8685 509.939C65.1972 514.142 72.6119 517.503 81.2337 519.781L82.7663 513.98ZM56.9999 494.379C57.0162 492.662 57.4563 490.977 58.281 489.471L53.019 486.589C51.7194 488.961 51.026 491.617 51.0001 494.321L56.9999 494.379ZM58.2927 489.45C59.9627 486.342 60.8368 482.868 60.8368 479.34H54.8368C54.8368 481.877 54.2082 484.375 53.0073 486.61L58.2927 489.45ZM60.8368 479.34C60.8368 475.812 59.9627 472.338 58.2927 469.23L53.0073 472.07C54.2082 474.305 54.8368 476.803 54.8368 479.34H60.8368ZM58.2766 469.201C57.4524 467.707 57.0136 466.032 56.9999 464.326L51.0001 464.374C51.0218 467.077 51.7173 469.733 53.0234 472.099L58.2766 469.201ZM57 464.35C57 459.048 61.671 453.34 71.3587 448.781C80.8126 444.331 94.0851 441.5 108.91 441.5V435.5C93.4049 435.5 79.2224 438.449 68.8038 443.352C58.619 448.145 51 455.362 51 464.35H57ZM108.91 441.5C124.058 441.5 137.566 444.441 147.044 449.066L149.676 443.674C139.194 438.559 124.742 435.5 108.91 435.5V441.5ZM147.069 449.078C147.651 449.356 148.209 449.648 148.754 449.964L151.766 444.776C151.071 444.372 150.369 444.004 149.651 443.662L147.069 449.078Z" fill="url(#paint2_linear_862_12472)" mask="url(#path-3-inside-1_862_12472)"/>
</g>
</g>
<path d="M122.74 521.32C134.404 521.32 143.86 511.864 143.86 500.2C143.86 488.536 134.404 479.08 122.74 479.08C111.076 479.08 101.62 488.536 101.62 500.2C101.62 511.864 111.076 521.32 122.74 521.32Z" fill="url(#paint3_linear_862_12472)"/>
<path d="M369.381 513.299C382.216 513.299 392.621 502.894 392.621 490.059C392.621 477.224 382.216 466.819 369.381 466.819C356.546 466.819 346.141 477.224 346.141 490.059C346.141 502.894 356.546 513.299 369.381 513.299Z" fill="url(#paint4_linear_862_12472)"/>
<path d="M109.09 469.68C112.321 469.68 114.94 467.06 114.94 463.829C114.94 460.599 112.321 457.979 109.09 457.979C105.859 457.979 103.24 460.599 103.24 463.829C103.24 467.06 105.859 469.68 109.09 469.68Z" fill="url(#paint5_linear_862_12472)"/>
<path d="M79.5 467.42C81.317 467.42 82.79 465.947 82.79 464.13C82.79 462.313 81.317 460.84 79.5 460.84C77.683 460.84 76.21 462.313 76.21 464.13C76.21 465.947 77.683 467.42 79.5 467.42Z" fill="url(#paint6_linear_862_12472)"/>
<path d="M404.94 488.479C406.757 488.479 408.23 487.006 408.23 485.189C408.23 483.372 406.757 481.899 404.94 481.899C403.123 481.899 401.65 483.372 401.65 485.189C401.65 487.006 403.123 488.479 404.94 488.479Z" fill="#A6E638"/>
<path opacity="0.2" d="M82.8004 502.71C86.4731 502.71 89.4504 499.733 89.4504 496.06C89.4504 492.387 86.4731 489.41 82.8004 489.41C79.1277 489.41 76.1504 492.387 76.1504 496.06C76.1504 499.733 79.1277 502.71 82.8004 502.71Z" fill="black"/>
<path opacity="0.2" d="M387.57 460.55C389.387 460.55 390.86 459.077 390.86 457.26C390.86 455.443 389.387 453.97 387.57 453.97C385.753 453.97 384.28 455.443 384.28 457.26C384.28 459.077 385.753 460.55 387.57 460.55Z" fill="black"/>
<path opacity="0.2" d="M344 528.92C345.817 528.92 347.29 527.447 347.29 525.63C347.29 523.813 345.817 522.34 344 522.34C342.183 522.34 340.71 523.813 340.71 525.63C340.71 527.447 342.183 528.92 344 528.92Z" fill="black"/>
<mask id="mask1_862_12472" style="mask-type:alpha" maskUnits="userSpaceOnUse" x="54" y="438" width="375" height="113">
<path d="M150.2 447.33L338.61 448.67C339.25 448.41 339.9 448.17 340.61 447.93C349.86 444.57 361.46 442.58 374.04 442.58C404.36 442.58 428.95 454.16 428.95 468.43C428.846 472.002 427.454 475.415 425.03 478.04C423.752 479.545 423.051 481.456 423.051 483.43C423.051 485.404 423.752 487.315 425.03 488.82C427.455 491.444 428.848 494.858 428.95 498.43C428.95 511.26 409.1 521.9 383.09 523.93C380.044 524.184 377.097 525.128 374.47 526.69C371.666 528.371 369.217 530.582 367.26 533.2C365.073 535.88 362.429 538.151 359.45 539.91C355.1 542.637 350.233 544.436 345.155 545.195C340.077 545.954 334.897 545.656 329.94 544.32H329.89C325.303 543.116 320.852 541.441 316.61 539.32C302.73 532.38 283.12 527.67 260.98 526.67C257.873 526.517 254.717 526.44 251.51 526.44C225.28 526.44 201.78 531.54 185.99 539.58C182.383 541.457 178.627 543.033 174.76 544.29L170.35 545.67C161.149 548.614 151.55 550.121 141.89 550.14H141.67C111.35 550.14 86.76 538.56 86.76 524.28V524.22C86.76 520.68 84.76 517.62 82 516.88C65.27 512.46 54 504.02 54 494.35C54.0211 492.14 54.5879 489.969 55.65 488.03C57.0855 485.358 57.8368 482.373 57.8368 479.34C57.8368 476.307 57.0855 473.322 55.65 470.65C54.5848 468.72 54.0177 466.555 54 464.35C54 450.06 78.58 438.5 108.91 438.5C124.4 438.5 138.38 441.5 148.36 446.37C149.01 446.68 149.64 447.01 150.26 447.37" fill="url(#paint7_linear_862_12472)"/>
</mask>
<g mask="url(#mask1_862_12472)">
<g filter="url(#filter1_f_862_12472)">
<ellipse cx="237" cy="463" rx="139" ry="16" fill="#075C00"/>
</g>
</g>
<path d="M241.18 482.36C374.38 482.36 482.36 374.38 482.36 241.18C482.36 107.98 374.38 0 241.18 0C107.98 0 0 107.98 0 241.18C0 374.38 107.98 482.36 241.18 482.36Z" fill="url(#paint8_radial_862_12472)"/>
<g style="mix-blend-mode:soft-light">
<path d="M241.18 482.36C374.38 482.36 482.36 374.38 482.36 241.18C482.36 107.98 374.38 0 241.18 0C107.98 0 0 107.98 0 241.18C0 374.38 107.98 482.36 241.18 482.36Z" fill="url(#paint9_radial_862_12472)"/>
</g>
<g style="mix-blend-mode:soft-light">
<path d="M241.18 482.36C374.38 482.36 482.36 374.38 482.36 241.18C482.36 107.98 374.38 0 241.18 0C107.98 0 0 107.98 0 241.18C0 374.38 107.98 482.36 241.18 482.36Z" fill="url(#paint10_radial_862_12472)"/>
</g>
<g style="mix-blend-mode:overlay">
<path d="M241.18 482.36C374.38 482.36 482.36 374.38 482.36 241.18C482.36 107.98 374.38 0 241.18 0C107.98 0 0 107.98 0 241.18C0 374.38 107.98 482.36 241.18 482.36Z" fill="url(#paint11_radial_862_12472)" fill-opacity="0.7"/>
</g>
<mask id="mask2_862_12472" style="mask-type:alpha" maskUnits="userSpaceOnUse" x="0" y="0" width="483" height="483">
<path d="M241.18 482.36C374.38 482.36 482.36 374.38 482.36 241.18C482.36 107.98 374.38 0 241.18 0C107.98 0 0 107.98 0 241.18C0 374.38 107.98 482.36 241.18 482.36Z" fill="white"/>
</mask>
<g mask="url(#mask2_862_12472)">
<g filter="url(#filter2_f_862_12472)">
<path d="M-1.3759 234.299C-1.11402 230.872 0.0137008 230.529 0.342619 234.008C0.708055 237.874 -0.00231624 245.646 0.16871 250.335C0.621554 262.748 2.52441 273.541 4.48605 282.32C10.8075 310.612 19.5617 328.843 27.7268 344.288C54.5663 395.06 83.9667 420.77 112.648 440.147C154.689 468.549 197.072 477.584 239.49 479.5C240.56 479.548 240.738 486.518 239.686 487.425C237.788 489.061 235.436 487.437 233.494 487.369C227.915 487.174 222.335 486.791 216.756 486.211C200.213 484.492 183.67 480.991 167.162 475.358C122.275 460.044 73.8765 433.821 31.6092 359.962C28.9502 355.316 26.3124 350.424 23.7118 345.167C21.6321 340.963 19.5726 336.556 17.5493 331.843C10.8946 316.342 -4.61323 276.658 -1.3759 234.299ZM239.52 487.5C238.499 487.531 238.241 481.034 239.214 479.685C240.684 477.647 242.888 479.326 244.439 479.229C250.877 478.826 257.314 478.229 263.75 477.421C281.395 475.205 299.028 471.422 316.621 465.596C360.257 451.145 407.17 429.115 448.305 361.431C450.923 357.123 453.518 352.553 456.079 347.641C463.86 332.712 483.361 293.084 481.107 243.821C480.917 239.668 482.181 237.181 482.747 240.743C483.467 245.279 483.175 254.736 482.977 259.768C482.341 275.883 479.866 289.512 477.257 300.518C468.987 335.399 457.376 355.623 446.744 372.51C412.184 427.397 374.648 449.524 338.155 465.424C305.424 479.686 272.444 486.484 239.52 487.5Z" fill="#401C02"/>
</g>
<g filter="url(#filter3_f_862_12472)">
<path d="M-1.3759 234.299C-1.11402 230.872 0.0137008 230.529 0.342619 234.008C0.708055 237.874 -0.00231624 245.646 0.16871 250.335C0.621554 262.748 2.52441 273.541 4.48605 282.32C10.8075 310.612 19.5617 328.843 27.7268 344.288C54.5663 395.06 83.9667 420.77 112.648 440.147C154.689 468.549 197.072 477.584 239.49 479.5C240.56 479.548 240.738 486.518 239.686 487.425C237.788 489.061 235.436 487.437 233.494 487.369C227.915 487.174 222.335 486.791 216.756 486.211C200.213 484.492 183.67 480.991 167.162 475.358C122.275 460.044 73.8765 433.821 31.6092 359.962C28.9502 355.316 26.3124 350.424 23.7118 345.167C21.6321 340.963 19.5726 336.556 17.5493 331.843C10.8946 316.342 -4.61323 276.658 -1.3759 234.299ZM239.52 487.5C238.499 487.531 238.241 481.034 239.214 479.685C240.684 477.647 242.888 479.326 244.439 479.229C250.877 478.826 257.314 478.229 263.75 477.421C281.395 475.205 299.028 471.422 316.621 465.596C360.257 451.145 407.17 429.115 448.305 361.431C450.923 357.123 453.518 352.553 456.079 347.641C463.86 332.712 483.361 293.084 481.107 243.821C480.917 239.668 482.181 237.181 482.747 240.743C483.467 245.279 483.175 254.736 482.977 259.768C482.341 275.883 479.866 289.512 477.257 300.518C468.987 335.399 457.376 355.623 446.744 372.51C412.184 427.397 374.648 449.524 338.155 465.424C305.424 479.686 272.444 486.484 239.52 487.5Z" fill="#401C02"/>
</g>
</g>
<mask id="mask3_862_12472" style="mask-type:alpha" maskUnits="userSpaceOnUse" x="0" y="0" width="483" height="483">
<path d="M241.18 482.36C374.38 482.36 482.36 374.38 482.36 241.18C482.36 107.98 374.38 0 241.18 0C107.98 0 0 107.98 0 241.18C0 374.38 107.98 482.36 241.18 482.36Z" fill="url(#paint12_radial_862_12472)"/>
</mask>
<g mask="url(#mask3_862_12472)">
<g filter="url(#filter4_f_862_12472)">
<path d="M147 523.33C146 512.33 145.32 433.93 145 422.33C145.504 402.287 147.173 382.29 150 362.44C150.25 360.72 150.5 359.01 150.77 357.31C151.29 353.977 151.84 350.677 152.42 347.41C153.287 342.55 154.223 337.777 155.23 333.09C156.035 325.617 157.824 318.284 160.55 311.28C166.876 294.954 178.012 280.933 192.482 271.076C206.953 261.218 224.077 255.988 241.586 256.078C259.095 256.168 276.164 261.574 290.532 271.58C304.901 281.586 315.892 295.719 322.05 312.11C324.51 318.613 326.163 325.394 326.97 332.3C328.54 339.55 329.97 347.04 331.18 354.72C331.58 357.2 331.97 359.72 332.33 362.25C332.33 362.49 332.41 362.73 332.44 362.97C335.245 382.644 336.914 402.464 337.44 422.33C337.13 434.38 336.44 513.17 335.35 524.64" fill="#803308"/>
</g>
</g>
<path d="M241.25 435.1C292.375 435.1 333.82 393.655 333.82 342.53C333.82 291.405 292.375 249.96 241.25 249.96C190.125 249.96 148.68 291.405 148.68 342.53C148.68 393.655 190.125 435.1 241.25 435.1Z" stroke="url(#paint13_linear_862_12472)" stroke-width="8" stroke-miterlimit="10"/>
<mask id="mask4_862_12472" style="mask-type:alpha" maskUnits="userSpaceOnUse" x="145" y="256" width="193" height="269">
<path d="M147 523.33C146 512.33 145.32 433.93 145 422.33C145.504 402.287 147.173 382.29 150 362.44C150.25 360.72 150.5 359.01 150.77 357.31C151.29 353.977 151.84 350.677 152.42 347.41C153.287 342.55 154.223 337.777 155.23 333.09C156.035 325.617 157.824 318.284 160.55 311.28C166.876 294.954 178.012 280.933 192.482 271.076C206.953 261.218 224.077 255.988 241.586 256.078C259.095 256.168 276.164 261.574 290.532 271.58C304.901 281.586 315.892 295.719 322.05 312.11C324.51 318.613 326.163 325.394 326.97 332.3C328.54 339.55 329.97 347.04 331.18 354.72C331.58 357.2 331.97 359.72 332.33 362.25C332.33 362.49 332.41 362.73 332.44 362.97C335.245 382.644 336.914 402.464 337.44 422.33C337.13 434.38 336.44 513.17 335.35 524.64" fill="url(#paint14_linear_862_12472)"/>
</mask>
<g mask="url(#mask4_862_12472)">
<path d="M147 523.33C146 512.33 145.32 433.93 145 422.33C145.504 402.287 147.173 382.29 150 362.44C150.25 360.72 150.5 359.01 150.77 357.31C151.29 353.977 151.84 350.677 152.42 347.41C153.287 342.55 154.223 337.777 155.23 333.09C156.035 325.617 157.824 318.284 160.55 311.28C166.876 294.954 178.012 280.933 192.482 271.076C206.953 261.218 224.077 255.988 241.586 256.078C259.095 256.168 276.164 261.574 290.532 271.58C304.901 281.586 315.892 295.719 322.05 312.11C324.51 318.613 326.163 325.394 326.97 332.3C328.54 339.55 329.97 347.04 331.18 354.72C331.58 357.2 331.97 359.72 332.33 362.25C332.33 362.49 332.41 362.73 332.44 362.97C335.245 382.644 336.914 402.464 337.44 422.33C337.13 434.38 336.44 513.17 335.35 524.64" fill="url(#paint15_linear_862_12472)"/>
</g>
<mask id="mask5_862_12472" style="mask-type:alpha" maskUnits="userSpaceOnUse" x="145" y="256" width="193" height="269">
<path d="M147 523.33C146 512.33 145.32 433.93 145 422.33C145.504 402.287 147.173 382.29 150 362.44C150.25 360.72 150.5 359.01 150.77 357.31C151.29 353.977 151.84 350.677 152.42 347.41C153.287 342.55 154.223 337.777 155.23 333.09C156.035 325.617 157.824 318.284 160.55 311.28C166.876 294.954 178.012 280.933 192.482 271.076C206.953 261.218 224.077 255.988 241.586 256.078C259.095 256.168 276.164 261.574 290.532 271.58C304.901 281.586 315.892 295.719 322.05 312.11C324.51 318.613 326.163 325.394 326.97 332.3C328.54 339.55 329.97 347.04 331.18 354.72C331.58 357.2 331.97 359.72 332.33 362.25C332.33 362.49 332.41 362.73 332.44 362.97C335.245 382.644 336.914 402.464 337.44 422.33C337.13 434.38 336.44 513.17 335.35 524.64" fill="url(#paint16_linear_862_12472)"/>
</mask>
<g mask="url(#mask5_862_12472)">
<mask id="mask6_862_12472" style="mask-type:alpha" maskUnits="userSpaceOnUse" x="145" y="256" width="193" height="269">
<path d="M147 523.33C146 512.33 145.32 433.93 145 422.33C145.504 402.287 147.173 382.29 150 362.44C150.25 360.72 150.5 359.01 150.77 357.31C151.29 353.977 151.84 350.677 152.42 347.41C153.287 342.55 154.223 337.777 155.23 333.09C156.035 325.617 157.824 318.284 160.55 311.28C166.876 294.954 178.012 280.933 192.482 271.076C206.953 261.218 224.077 255.988 241.586 256.078C259.095 256.168 276.164 261.574 290.532 271.58C304.901 281.586 315.892 295.719 322.05 312.11C324.51 318.613 326.163 325.394 326.97 332.3C328.54 339.55 329.97 347.04 331.18 354.72C331.58 357.2 331.97 359.72 332.33 362.25C332.33 362.49 332.41 362.73 332.44 362.97C335.245 382.644 336.914 402.464 337.44 422.33C337.13 434.38 336.44 513.17 335.35 524.64" fill="url(#paint17_linear_862_12472)"/>
</mask>
<g mask="url(#mask6_862_12472)">
<g filter="url(#filter5_f_862_12472)">
<mask id="path-29-inside-2_862_12472" fill="white">
<path d="M147 523.33C146 512.33 145.32 433.93 145 422.33C145.504 402.287 147.173 382.29 150 362.44C150.25 360.72 150.5 359.01 150.77 357.31C151.29 353.977 151.84 350.677 152.42 347.41C153.287 342.55 154.223 337.777 155.23 333.09C156.035 325.617 157.824 318.284 160.55 311.28C166.876 294.954 178.012 280.933 192.482 271.076C206.953 261.218 224.077 255.988 241.586 256.078C259.095 256.168 276.164 261.574 290.532 271.58C304.901 281.586 315.892 295.719 322.05 312.11C324.51 318.613 326.163 325.394 326.97 332.3C328.54 339.55 329.97 347.04 331.18 354.72C331.58 357.2 331.97 359.72 332.33 362.25C332.33 362.49 332.41 362.73 332.44 362.97C335.245 382.644 336.914 402.464 337.44 422.33C337.13 434.38 336.44 513.17 335.35 524.64"/>
</mask>
<path d="M145 422.33L142.001 422.255L141.999 422.334L142.001 422.413L145 422.33ZM150 362.44L147.031 362.009L147.03 362.017L150 362.44ZM150.77 357.31L153.733 357.781L153.734 357.772L150.77 357.31ZM152.42 347.41L149.467 346.883L149.466 346.886L152.42 347.41ZM155.23 333.09L158.163 333.72L158.196 333.567L158.213 333.411L155.23 333.09ZM160.55 311.28L163.346 312.368L163.347 312.364L160.55 311.28ZM322.05 312.11L319.242 313.165L319.244 313.172L322.05 312.11ZM326.97 332.3L323.99 332.648L324.007 332.793L324.038 332.935L326.97 332.3ZM331.18 354.72L328.217 355.187L328.218 355.198L331.18 354.72ZM332.33 362.25H335.33V362.038L335.3 361.827L332.33 362.25ZM332.44 362.97L329.463 363.342L329.466 363.368L329.47 363.393L332.44 362.97ZM337.44 422.33L340.439 422.407L340.441 422.329L340.439 422.251L337.44 422.33ZM149.988 523.058C149.501 517.706 149.081 495.525 148.745 473.01C148.41 450.622 148.16 428.072 147.999 422.247L142.001 422.413C142.16 428.188 142.41 450.638 142.745 473.1C143.079 495.435 143.499 517.954 144.012 523.602L149.988 523.058ZM147.999 422.405C148.5 402.478 150.16 382.597 152.97 362.863L147.03 362.017C144.187 381.982 142.508 402.095 142.001 422.255L147.999 422.405ZM152.969 362.872C153.219 361.151 153.466 359.459 153.733 357.781L147.807 356.84C147.534 358.561 147.281 360.289 147.031 362.009L152.969 362.872ZM153.734 357.772C154.251 354.46 154.798 351.18 155.374 347.935L149.466 346.886C148.882 350.173 148.329 353.494 147.806 356.848L153.734 357.772ZM155.373 347.937C156.234 343.11 157.164 338.371 158.163 333.72L152.297 332.46C151.283 337.182 150.339 341.99 149.467 346.883L155.373 347.937ZM158.213 333.411C158.989 326.202 160.715 319.126 163.346 312.368L157.754 310.192C154.932 317.442 153.08 325.033 152.247 332.769L158.213 333.411ZM163.347 312.364C169.454 296.604 180.203 283.071 194.171 273.555L190.794 268.596C175.82 278.796 164.298 293.303 157.753 310.196L163.347 312.364ZM194.171 273.555C208.14 264.04 224.669 258.991 241.57 259.078L241.601 253.078C223.484 252.985 205.767 258.397 190.794 268.596L194.171 273.555ZM241.57 259.078C258.472 259.165 274.948 264.383 288.818 274.042L292.247 269.118C277.379 258.765 259.718 253.171 241.601 253.078L241.57 259.078ZM288.818 274.042C302.688 283.7 313.297 297.343 319.242 313.165L324.858 311.055C318.487 294.095 307.114 279.471 292.247 269.118L288.818 274.042ZM319.244 313.172C321.618 319.445 323.212 325.986 323.99 332.648L329.95 331.952C329.114 324.802 327.403 317.781 324.856 311.048L319.244 313.172ZM324.038 332.935C325.597 340.136 327.016 347.569 328.217 355.187L334.143 354.253C332.924 346.511 331.483 338.964 329.902 331.665L324.038 332.935ZM328.218 355.198C328.616 357.665 329.003 360.166 329.36 362.673L335.3 361.827C334.937 359.274 334.544 356.735 334.142 354.242L328.218 355.198ZM329.33 362.25C329.33 362.679 329.401 363.04 329.431 363.193C329.439 363.235 329.448 363.276 329.453 363.303C329.459 363.333 329.463 363.351 329.466 363.365C329.472 363.395 329.468 363.38 329.463 363.342L335.417 362.598C335.397 362.441 335.372 362.305 335.355 362.215C335.346 362.169 335.337 362.127 335.331 362.097C335.324 362.064 335.32 362.045 335.317 362.028C335.31 361.992 335.313 362.003 335.317 362.035C335.321 362.069 335.33 362.145 335.33 362.25H329.33ZM329.47 363.393C332.259 382.954 333.918 402.658 334.441 422.409L340.439 422.251C339.91 402.269 338.231 382.335 335.41 362.547L329.47 363.393ZM334.441 422.253C334.285 428.297 334.035 451.056 333.688 473.656C333.339 496.386 332.894 518.775 332.363 524.356L338.337 524.924C338.896 519.035 339.341 496.294 339.687 473.749C340.035 451.075 340.285 428.413 340.439 422.407L334.441 422.253Z" fill="url(#paint18_linear_862_12472)" mask="url(#path-29-inside-2_862_12472)"/>
</g>
</g>
</g>
<path d="M334.54 342.53C334.543 349.166 333.836 355.784 332.43 362.27C332.07 359.73 331.68 357.22 331.28 354.74C330.04 347.06 328.64 339.57 327.07 332.32C326.263 325.414 324.611 318.633 322.15 312.13C315.992 295.739 305.002 281.605 290.633 271.6C276.264 261.594 259.195 256.188 241.686 256.098C224.177 256.008 207.054 261.238 192.583 271.096C178.112 280.953 166.977 294.973 160.65 311.3C157.924 318.304 156.135 325.637 155.33 333.11C154.33 337.777 153.394 342.55 152.52 347.43C151.94 350.69 151.39 353.99 150.87 357.33C150.6 359.03 150.35 360.74 150.1 362.46C147.298 349.663 147.222 336.419 149.877 323.59C152.532 310.762 157.859 298.636 165.511 288.003C173.163 277.37 182.969 268.467 194.289 261.875C205.61 255.282 218.192 251.148 231.217 249.74C244.242 248.333 257.417 249.684 269.884 253.706C282.352 257.728 293.833 264.33 303.58 273.084C313.327 281.837 321.121 292.545 326.456 304.51C331.79 316.475 334.545 329.429 334.54 342.53Z" fill="#42210B"/>
<path opacity="0.1" d="M200.18 435.56C200.18 422.39 191.13 300.56 179.96 300.56C168.79 300.56 159.73 422.42 159.73 435.56C159.73 448.7 168.79 459.41 179.96 459.41C191.13 459.41 200.18 448.73 200.18 435.56Z" fill="black"/>
<path opacity="0.1" d="M278.7 435.56C278.7 422.39 269.64 300.56 258.47 300.56C247.3 300.56 238.25 422.42 238.25 435.56C238.25 448.7 247.3 459.41 258.47 459.41C269.64 459.41 278.7 448.73 278.7 435.56Z" fill="black"/>
<path opacity="0.1" d="M233.8 390.78C233.8 379.58 227.42 276.01 219.54 276.01C211.66 276.01 205.29 379.58 205.29 390.78C205.29 401.98 211.67 411.05 219.54 411.05C227.41 411.05 233.8 401.97 233.8 390.78Z" fill="black"/>
<path opacity="0.1" d="M312.54 390.78C312.54 379.58 306.16 276.01 298.29 276.01C290.42 276.01 284 379.58 284 390.78C284 401.98 290.38 411.05 298.25 411.05C306.12 411.05 312.54 401.97 312.54 390.78Z" fill="black"/>
<path d="M202.74 513.3C215.321 513.3 225.52 503.101 225.52 490.52C225.52 477.939 215.321 467.74 202.74 467.74C190.159 467.74 179.96 477.939 179.96 490.52C179.96 503.101 190.159 513.3 202.74 513.3Z" fill="url(#paint19_linear_862_12472)"/>
<path d="M254.02 512.23C265.193 512.23 274.25 503.172 274.25 492C274.25 480.827 265.193 471.77 254.02 471.77C242.847 471.77 233.79 480.827 233.79 492C233.79 503.172 242.847 512.23 254.02 512.23Z" fill="url(#paint20_linear_862_12472)"/>
<path d="M299.14 525.63C306.547 525.63 312.55 519.626 312.55 512.22C312.55 504.813 306.547 498.81 299.14 498.81C291.734 498.81 285.73 504.813 285.73 512.22C285.73 519.626 291.734 525.63 299.14 525.63Z" fill="url(#paint21_linear_862_12472)"/>
<path d="M302.64 475.93C314.846 475.93 324.74 466.035 324.74 453.829C324.74 441.624 314.846 431.729 302.64 431.729C290.435 431.729 280.54 441.624 280.54 453.829C280.54 466.035 290.435 475.93 302.64 475.93Z" fill="url(#paint22_linear_862_12472)"/>
<path d="M225.52 466.31C233.749 466.31 240.42 459.639 240.42 451.41C240.42 443.181 233.749 436.51 225.52 436.51C217.291 436.51 210.62 443.181 210.62 451.41C210.62 459.639 217.291 466.31 225.52 466.31Z" fill="url(#paint23_linear_862_12472)"/>
<path d="M322.7 420.23C326.362 420.23 329.33 417.261 329.33 413.6C329.33 409.938 326.362 406.97 322.7 406.97C319.039 406.97 316.07 409.938 316.07 413.6C316.07 417.261 319.039 420.23 322.7 420.23Z" fill="url(#paint24_linear_862_12472)"/>
<path d="M214.09 425.64C215.907 425.64 217.38 424.167 217.38 422.35C217.38 420.533 215.907 419.06 214.09 419.06C212.273 419.06 210.8 420.533 210.8 422.35C210.8 424.167 212.273 425.64 214.09 425.64Z" fill="url(#paint25_linear_862_12472)"/>
<path d="M287.33 494.54C289.147 494.54 290.62 493.067 290.62 491.25C290.62 489.433 289.147 487.96 287.33 487.96C285.513 487.96 284.04 489.433 284.04 491.25C284.04 493.067 285.513 494.54 287.33 494.54Z" fill="#3F7407"/>
<path opacity="0.2" d="M152.17 435.939C153.987 435.939 155.46 434.466 155.46 432.649C155.46 430.832 153.987 429.359 152.17 429.359C150.353 429.359 148.88 430.832 148.88 432.649C148.88 434.466 150.353 435.939 152.17 435.939Z" fill="black"/>
<path opacity="0.2" d="M179.96 528.01C183.632 528.01 186.61 525.033 186.61 521.36C186.61 517.687 183.632 514.71 179.96 514.71C176.287 514.71 173.31 517.687 173.31 521.36C173.31 525.033 176.287 528.01 179.96 528.01Z" fill="black"/>
<path opacity="0.2" d="M320.74 377.57C322.557 377.57 324.03 376.097 324.03 374.28C324.03 372.463 322.557 370.99 320.74 370.99C318.923 370.99 317.45 372.463 317.45 374.28C317.45 376.097 318.923 377.57 320.74 377.57Z" fill="black"/>
<path opacity="0.2" d="M200.18 347.88C201.997 347.88 203.47 346.407 203.47 344.59C203.47 342.773 201.997 341.3 200.18 341.3C198.363 341.3 196.89 342.773 196.89 344.59C196.89 346.407 198.363 347.88 200.18 347.88Z" fill="black"/>
<path d="M145.06 422.35C145.564 402.306 147.233 382.309 150.06 362.46C150.31 360.74 150.56 359.03 150.83 357.33C151.35 353.996 151.9 350.696 152.48 347.43C153.346 342.57 154.283 337.796 155.29 333.11C156.094 325.637 157.883 318.304 160.61 311.3C166.936 294.973 178.071 280.953 192.542 271.095C207.013 261.238 224.136 256.008 241.645 256.098C259.154 256.188 276.223 261.594 290.592 271.599C304.961 281.605 315.952 295.739 322.11 312.13C324.57 318.633 326.222 325.414 327.03 332.32C328.6 339.57 330.03 347.06 331.24 354.74C331.64 357.22 332.03 359.74 332.39 362.27C332.39 362.51 332.47 362.75 332.5 362.99C335.304 382.664 336.974 402.483 337.5 422.35" fill="url(#paint26_linear_862_12472)"/>
<path d="M200.521 62.9501C195.461 71.2801 163.261 120.41 114.791 107.88C113.267 107.518 111.912 106.647 110.95 105.411C109.988 104.174 109.477 102.646 109.501 101.08C109.601 99.1501 110.501 97.1801 113.391 96.0001C125.741 90.8901 153.311 96.8401 184.591 66.0001C187.281 63.2886 189.831 60.4415 192.231 57.4701C193.981 55.3601 196.971 52.5501 199.701 53.8001C202.041 54.8601 202.251 57.2001 201.971 59.0701C201.754 60.448 201.261 61.7678 200.521 62.9501Z" fill="#42210B"/>
<path d="M107.711 133.06C110.564 134.833 113.421 136.567 116.281 138.26C120.671 140.91 125.101 143.48 129.501 146.06L142.691 153.67L155.691 161.29C164.301 166.38 172.821 171.52 180.621 176.93C184.328 179.454 187.859 182.227 191.191 185.23C192.178 186.146 193.11 187.121 193.981 188.15C194.308 188.425 194.574 188.766 194.761 189.15C194.939 189.532 195.031 189.948 195.031 190.37C195.031 190.791 194.939 191.208 194.761 191.59C194.554 192.044 194.242 192.441 193.851 192.75C193.012 193.744 192.11 194.682 191.151 195.56C187.824 198.565 184.292 201.335 180.581 203.85C172.781 209.27 164.251 214.39 155.641 219.49L142.641 227.1L129.451 234.75C125.051 237.33 120.631 239.9 116.231 242.56C113.364 244.273 110.501 246.013 107.641 247.78C107.509 247.84 107.391 247.926 107.293 248.032C107.195 248.138 107.118 248.262 107.068 248.398C107.018 248.534 106.995 248.678 107.001 248.822C107.006 248.967 107.04 249.109 107.101 249.24C107.161 249.371 107.247 249.489 107.353 249.588C107.459 249.686 107.583 249.762 107.719 249.812C107.854 249.862 107.999 249.885 108.143 249.88C108.287 249.874 108.429 249.84 108.561 249.78C111.961 249.13 115.331 248.37 118.681 247.57C123.821 246.35 128.901 244.95 133.971 243.47C136.501 242.72 138.971 241.93 141.511 241.13C144.051 240.33 146.511 239.47 148.991 238.62C153.971 236.9 158.897 235.04 163.771 233.04C173.655 229.092 183.232 224.412 192.421 219.04C197.268 216.208 201.859 212.96 206.141 209.33C208.552 207.253 210.743 204.934 212.681 202.41C212.931 202.07 213.191 201.67 213.441 201.3C213.713 200.921 213.964 200.527 214.191 200.12L214.911 198.86C215.131 198.4 215.351 197.92 215.561 197.45C216.577 195.256 217.104 192.868 217.104 190.45C217.104 188.032 216.577 185.644 215.561 183.45C215.351 182.97 215.131 182.45 214.901 182.03L214.191 180.77C213.941 180.34 213.691 179.97 213.441 179.59C213.191 179.21 212.931 178.83 212.671 178.48C210.735 175.954 208.54 173.638 206.121 171.57C201.839 167.947 197.252 164.701 192.411 161.87C183.22 156.501 173.644 151.822 163.761 147.87C158.871 145.87 153.961 144.01 148.981 142.3C144.001 140.59 138.981 138.96 133.981 137.45C128.981 135.94 123.831 134.57 118.691 133.34C115.351 132.54 112.011 131.78 108.611 131.12C108.366 131.06 108.107 131.087 107.88 131.197C107.652 131.306 107.47 131.491 107.364 131.72C107.258 131.949 107.234 132.208 107.297 132.452C107.361 132.696 107.507 132.911 107.711 133.06Z" fill="url(#paint27_radial_862_12472)"/>
<path d="M107.711 133.06C110.564 134.833 113.421 136.567 116.281 138.26C120.671 140.91 125.101 143.48 129.501 146.06L142.691 153.67L155.691 161.29C164.301 166.38 172.821 171.52 180.621 176.93C184.328 179.454 187.859 182.227 191.191 185.23C192.178 186.146 193.11 187.121 193.981 188.15C194.308 188.425 194.574 188.766 194.761 189.15C194.761 189.15 194.761 189.15 194.761 189.15C194.939 189.532 195.031 189.948 195.031 190.37C195.031 190.791 194.939 191.208 194.761 191.59C194.554 192.044 194.242 192.441 193.851 192.75C193.012 193.744 192.11 194.682 191.151 195.56C187.824 198.565 184.292 201.335 180.581 203.85C172.781 209.27 164.251 214.39 155.641 219.49L142.641 227.1L129.451 234.75C125.051 237.33 120.631 239.9 116.231 242.56C113.364 244.273 110.501 246.013 107.641 247.78C107.509 247.84 107.391 247.926 107.293 248.032C107.195 248.138 107.118 248.262 107.068 248.398C107.018 248.534 106.995 248.678 107.001 248.822C107.006 248.967 107.04 249.109 107.101 249.24C107.161 249.371 107.247 249.489 107.353 249.588C107.459 249.686 107.583 249.762 107.719 249.812C107.854 249.862 107.999 249.885 108.143 249.88C108.287 249.874 108.429 249.84 108.561 249.78C111.961 249.13 115.331 248.37 118.681 247.57C123.821 246.35 128.901 244.95 133.971 243.47C136.501 242.72 138.971 241.93 141.511 241.13C144.051 240.33 146.511 239.47 148.991 238.62C153.971 236.9 158.897 235.04 163.771 233.04C173.655 229.092 183.232 224.412 192.421 219.04C197.268 216.208 201.859 212.959 206.141 209.33C208.552 207.253 210.743 204.934 212.681 202.41C212.931 202.07 213.191 201.67 213.441 201.3C213.713 200.921 213.964 200.527 214.191 200.12L214.911 198.86C215.131 198.4 215.351 197.92 215.561 197.45C216.577 195.256 217.104 192.868 217.104 190.45C217.104 188.032 216.577 185.644 215.561 183.45C215.351 182.97 215.131 182.45 214.901 182.03L214.191 180.77C213.941 180.34 213.691 179.97 213.441 179.59C213.191 179.21 212.931 178.83 212.671 178.48C210.735 175.954 208.54 173.638 206.121 171.57C201.839 167.947 197.252 164.701 192.411 161.87C183.22 156.501 173.644 151.822 163.761 147.87C158.871 145.87 153.961 144.01 148.981 142.3C144.001 140.59 138.981 138.96 133.981 137.45C128.981 135.94 123.831 134.57 118.691 133.34C115.351 132.54 112.011 131.78 108.611 131.12C108.366 131.06 108.107 131.087 107.88 131.197C107.652 131.306 107.47 131.491 107.364 131.72C107.258 131.949 107.234 132.208 107.297 132.452C107.361 132.696 107.507 132.911 107.711 133.06Z" stroke="url(#paint28_linear_862_12472)" stroke-width="2" stroke-miterlimit="10"/>
<path d="M282.233 62.9501C287.293 71.2801 319.493 120.41 367.963 107.88C369.487 107.518 370.842 106.647 371.804 105.411C372.766 104.174 373.277 102.646 373.253 101.08C373.153 99.1501 372.253 97.1801 369.363 96.0001C357.013 90.8901 329.443 96.8401 298.163 66.0001C295.473 63.2886 292.923 60.4415 290.523 57.4701C288.773 55.3601 285.783 52.5501 283.053 53.8001C280.713 54.8601 280.503 57.2001 280.783 59.0701C281 60.448 281.493 61.7678 282.233 62.9501Z" fill="#42210B"/>
<path d="M375.043 133.06C372.19 134.833 369.333 136.567 366.473 138.26C362.083 140.91 357.653 143.48 353.253 146.06L340.063 153.67L327.063 161.29C318.453 166.38 309.933 171.52 302.133 176.93C298.426 179.454 294.894 182.227 291.563 185.23C290.575 186.146 289.644 187.121 288.773 188.15C288.446 188.425 288.18 188.766 287.993 189.15C287.815 189.532 287.723 189.948 287.723 190.37C287.723 190.791 287.815 191.208 287.993 191.59C288.199 192.044 288.512 192.441 288.903 192.75C289.742 193.744 290.643 194.682 291.603 195.56C294.93 198.565 298.462 201.335 302.173 203.85C309.973 209.27 318.503 214.39 327.113 219.49L340.113 227.1L353.303 234.75C357.703 237.33 362.123 239.9 366.523 242.56C369.39 244.273 372.253 246.013 375.113 247.78C375.244 247.84 375.363 247.926 375.461 248.032C375.559 248.138 375.635 248.262 375.686 248.398C375.736 248.534 375.759 248.678 375.753 248.822C375.748 248.967 375.714 249.109 375.653 249.24C375.593 249.371 375.507 249.489 375.401 249.588C375.295 249.686 375.171 249.762 375.035 249.812C374.899 249.862 374.755 249.885 374.611 249.88C374.466 249.874 374.325 249.84 374.193 249.78C370.793 249.13 367.423 248.37 364.073 247.57C358.933 246.35 353.853 244.95 348.783 243.47C346.253 242.72 343.783 241.93 341.243 241.13C338.703 240.33 336.243 239.47 333.763 238.62C328.783 236.9 323.857 235.04 318.983 233.04C309.098 229.092 299.522 224.412 290.333 219.04C285.486 216.208 280.895 212.96 276.613 209.33C274.202 207.253 272.011 204.934 270.073 202.41C269.823 202.07 269.563 201.67 269.313 201.3C269.04 200.921 268.79 200.527 268.563 200.12L267.843 198.86C267.623 198.4 267.403 197.92 267.193 197.45C266.177 195.256 265.65 192.868 265.65 190.45C265.65 188.032 266.177 185.644 267.193 183.45C267.403 182.97 267.623 182.45 267.853 182.03L268.563 180.77C268.813 180.34 269.063 179.97 269.313 179.59C269.563 179.21 269.823 178.83 270.083 178.48C272.019 175.954 274.214 173.638 276.633 171.57C280.915 167.947 285.502 164.701 290.343 161.87C299.534 156.501 309.11 151.822 318.993 147.87C323.883 145.87 328.793 144.01 333.773 142.3C338.753 140.59 343.773 138.96 348.773 137.45C353.773 135.94 358.923 134.57 364.063 133.34C367.403 132.54 370.743 131.78 374.143 131.12C374.388 131.06 374.647 131.087 374.874 131.197C375.102 131.306 375.284 131.491 375.39 131.72C375.496 131.949 375.52 132.208 375.457 132.452C375.393 132.696 375.247 132.911 375.043 133.06Z" fill="url(#paint29_radial_862_12472)"/>
<path d="M375.043 133.06C372.19 134.833 369.333 136.567 366.473 138.26C362.083 140.91 357.653 143.48 353.253 146.06L340.063 153.67L327.063 161.29C318.453 166.38 309.933 171.52 302.133 176.93C298.426 179.454 294.894 182.227 291.563 185.23C290.575 186.146 289.644 187.121 288.773 188.15C288.446 188.425 288.18 188.766 287.993 189.15C287.993 189.15 287.993 189.15 287.993 189.15C287.815 189.532 287.723 189.948 287.723 190.37C287.723 190.791 287.815 191.208 287.993 191.59C288.199 192.044 288.512 192.441 288.903 192.75C289.742 193.744 290.643 194.682 291.603 195.56C294.93 198.565 298.462 201.335 302.173 203.85C309.973 209.27 318.503 214.39 327.113 219.49L340.113 227.1L353.303 234.75C357.703 237.33 362.123 239.9 366.523 242.56C369.39 244.273 372.253 246.013 375.113 247.78C375.244 247.84 375.363 247.926 375.461 248.032C375.559 248.138 375.635 248.262 375.686 248.398C375.736 248.534 375.759 248.678 375.753 248.822C375.748 248.967 375.714 249.109 375.653 249.24C375.593 249.371 375.507 249.489 375.401 249.588C375.295 249.686 375.171 249.762 375.035 249.812C374.899 249.862 374.755 249.885 374.611 249.88C374.466 249.874 374.325 249.84 374.193 249.78C370.793 249.13 367.423 248.37 364.073 247.57C358.933 246.35 353.853 244.95 348.783 243.47C346.253 242.72 343.783 241.93 341.243 241.13C338.703 240.33 336.243 239.47 333.763 238.62C328.783 236.9 323.857 235.04 318.983 233.04C309.098 229.092 299.522 224.412 290.333 219.04C285.486 216.208 280.895 212.959 276.613 209.33C274.202 207.253 272.011 204.934 270.073 202.41C269.823 202.07 269.563 201.67 269.313 201.3C269.04 200.921 268.79 200.527 268.563 200.12L267.843 198.86C267.623 198.4 267.403 197.92 267.193 197.45C266.177 195.256 265.65 192.868 265.65 190.45C265.65 188.032 266.177 185.644 267.193 183.45C267.403 182.97 267.623 182.45 267.853 182.03L268.563 180.77C268.813 180.34 269.063 179.97 269.313 179.59C269.563 179.21 269.823 178.83 270.083 178.48C272.019 175.954 274.214 173.638 276.633 171.57C280.915 167.947 285.502 164.701 290.343 161.87C299.534 156.501 309.11 151.822 318.993 147.87C323.883 145.87 328.793 144.01 333.773 142.3C338.753 140.59 343.773 138.96 348.773 137.45C353.773 135.94 358.923 134.57 364.063 133.34C367.403 132.54 370.743 131.78 374.143 131.12C374.388 131.06 374.647 131.087 374.874 131.197C375.102 131.306 375.284 131.491 375.39 131.72C375.496 131.949 375.52 132.208 375.457 132.452C375.393 132.696 375.247 132.911 375.043 133.06Z" stroke="url(#paint30_linear_862_12472)" stroke-width="2" stroke-miterlimit="10"/>
<defs>
<filter id="filter0_f_862_12472" x="46" y="430.5" width="390.95" height="127.64" filterUnits="userSpaceOnUse" color-interpolation-filters="sRGB">
<feFlood flood-opacity="0" result="BackgroundImageFix"/>
<feBlend mode="normal" in="SourceGraphic" in2="BackgroundImageFix" result="shape"/>
<feGaussianBlur stdDeviation="4" result="effect1_foregroundBlur_862_12472"/>
</filter>
<filter id="filter1_f_862_12472" x="78" y="427" width="318" height="72" filterUnits="userSpaceOnUse" color-interpolation-filters="sRGB">
<feFlood flood-opacity="0" result="BackgroundImageFix"/>
<feBlend mode="normal" in="SourceGraphic" in2="BackgroundImageFix" result="shape"/>
<feGaussianBlur stdDeviation="10" result="effect1_foregroundBlur_862_12472"/>
</filter>
<filter id="filter2_f_862_12472" x="-26.8149" y="206.558" width="535.022" height="306.595" filterUnits="userSpaceOnUse" color-interpolation-filters="sRGB">
<feFlood flood-opacity="0" result="BackgroundImageFix"/>
<feBlend mode="normal" in="SourceGraphic" in2="BackgroundImageFix" result="shape"/>
<feGaussianBlur stdDeviation="12.5" result="effect1_foregroundBlur_862_12472"/>
</filter>
<filter id="filter3_f_862_12472" x="-41.8149" y="191.558" width="565.022" height="336.595" filterUnits="userSpaceOnUse" color-interpolation-filters="sRGB">
<feFlood flood-opacity="0" result="BackgroundImageFix"/>
<feBlend mode="normal" in="SourceGraphic" in2="BackgroundImageFix" result="shape"/>
<feGaussianBlur stdDeviation="20" result="effect1_foregroundBlur_862_12472"/>
</filter>
<filter id="filter4_f_862_12472" x="125" y="236.077" width="232.44" height="308.563" filterUnits="userSpaceOnUse" color-interpolation-filters="sRGB">
<feFlood flood-opacity="0" result="BackgroundImageFix"/>
<feBlend mode="normal" in="SourceGraphic" in2="BackgroundImageFix" result="shape"/>
<feGaussianBlur stdDeviation="10" result="effect1_foregroundBlur_862_12472"/>
</filter>
<filter id="filter5_f_862_12472" x="137" y="248.077" width="208.44" height="284.563" filterUnits="userSpaceOnUse" color-interpolation-filters="sRGB">
<feFlood flood-opacity="0" result="BackgroundImageFix"/>
<feBlend mode="normal" in="SourceGraphic" in2="BackgroundImageFix" result="shape"/>
<feGaussianBlur stdDeviation="4" result="effect1_foregroundBlur_862_12472"/>
</filter>
<linearGradient id="paint0_linear_862_12472" x1="241.45" y1="550.13" x2="241.45" y2="438.49" gradientUnits="userSpaceOnUse">
<stop stop-color="#76DD0A"/>
<stop offset="1" stop-color="#216700"/>
</linearGradient>
<linearGradient id="paint1_linear_862_12472" x1="241.45" y1="550.13" x2="241.45" y2="438.49" gradientUnits="userSpaceOnUse">
<stop stop-color="#76DD0A"/>
<stop offset="1" stop-color="#216700"/>
</linearGradient>
<linearGradient id="paint2_linear_862_12472" x1="241.45" y1="550.13" x2="241.45" y2="438.49" gradientUnits="userSpaceOnUse">
<stop offset="1" stop-color="#216700"/>
</linearGradient>
<linearGradient id="paint3_linear_862_12472" x1="122.74" y1="521.33" x2="122.74" y2="479.08" gradientUnits="userSpaceOnUse">
<stop stop-color="#449806" stop-opacity="0"/>
<stop offset="0.01" stop-color="#449806" stop-opacity="0.01"/>
<stop offset="0.7" stop-color="#5AC108" stop-opacity="0.72"/>
<stop offset="1" stop-color="#63D109"/>
</linearGradient>
<linearGradient id="paint4_linear_862_12472" x1="369.381" y1="466.819" x2="369.381" y2="513.299" gradientUnits="userSpaceOnUse">
<stop stop-color="#DDFF0C"/>
<stop offset="1" stop-color="#6BCE09" stop-opacity="0"/>
</linearGradient>
<linearGradient id="paint5_linear_862_12472" x1="109.09" y1="457.979" x2="109.09" y2="469.68" gradientUnits="userSpaceOnUse">
<stop stop-color="#DDFF0C"/>
<stop offset="1" stop-color="#6BCE09" stop-opacity="0"/>
</linearGradient>
<linearGradient id="paint6_linear_862_12472" x1="79.5" y1="460.84" x2="79.5" y2="467.42" gradientUnits="userSpaceOnUse">
<stop stop-color="#DDFF0C"/>
<stop offset="1" stop-color="#6BCE09" stop-opacity="0"/>
</linearGradient>
<linearGradient id="paint7_linear_862_12472" x1="241.45" y1="550.13" x2="241.45" y2="438.49" gradientUnits="userSpaceOnUse">
<stop stop-color="#76DD0A"/>
<stop offset="1" stop-color="#216700"/>
</linearGradient>
<radialGradient id="paint8_radial_862_12472" cx="0" cy="0" r="1" gradientUnits="userSpaceOnUse" gradientTransform="translate(241 -4.53898e-06) rotate(90) scale(482)">
<stop stop-color="#FFDE43"/>
<stop offset="1" stop-color="#FFBC00"/>
</radialGradient>
<radialGradient id="paint9_radial_862_12472" cx="0" cy="0" r="1" gradientUnits="userSpaceOnUse" gradientTransform="translate(241 64.5) rotate(90) scale(417.5)">
<stop stop-color="white" stop-opacity="0.5"/>
<stop offset="0.782278"/>
</radialGradient>
<radialGradient id="paint10_radial_862_12472" cx="0" cy="0" r="1" gradientUnits="userSpaceOnUse" gradientTransform="translate(241 64.5) rotate(90) scale(417.5)">
<stop stop-color="white" stop-opacity="0.5"/>
<stop offset="0.782278"/>
</radialGradient>
<radialGradient id="paint11_radial_862_12472" cx="0" cy="0" r="1" gradientUnits="userSpaceOnUse" gradientTransform="translate(241 -52.5) rotate(90) scale(534.5 722.835)">
<stop offset="0.0922635" stop-color="white"/>
<stop offset="0.670207" stop-color="white" stop-opacity="0"/>
</radialGradient>
<radialGradient id="paint12_radial_862_12472" cx="0" cy="0" r="1" gradientUnits="userSpaceOnUse" gradientTransform="translate(241 -4.53898e-06) rotate(90) scale(482)">
<stop stop-color="#FFDE43"/>
<stop offset="1" stop-color="#FFBC00"/>
</radialGradient>
<linearGradient id="paint13_linear_862_12472" x1="241.25" y1="440.309" x2="241.25" y2="244.002" gradientUnits="userSpaceOnUse">
<stop offset="0.265625" stop-color="#FFDE43"/>
<stop offset="1" stop-color="#F79D14"/>
</linearGradient>
<linearGradient id="paint14_linear_862_12472" x1="241.28" y1="524.66" x2="241.28" y2="256.1" gradientUnits="userSpaceOnUse">
<stop stop-color="white" stop-opacity="0"/>
<stop offset="0.178215"/>
</linearGradient>
<linearGradient id="paint15_linear_862_12472" x1="241.28" y1="524.66" x2="241.28" y2="256.1" gradientUnits="userSpaceOnUse">
<stop stop-color="#1F5E00"/>
<stop offset="0.27" stop-color="#4F9407"/>
<stop offset="0.43" stop-color="#458707"/>
<stop offset="0.78" stop-color="#336F07"/>
<stop offset="1" stop-color="#2C6607"/>
</linearGradient>
<linearGradient id="paint16_linear_862_12472" x1="241.28" y1="522.5" x2="241.28" y2="256.1" gradientUnits="userSpaceOnUse">
<stop offset="0.0727569" stop-opacity="0"/>
<stop offset="0.26376"/>
</linearGradient>
<linearGradient id="paint17_linear_862_12472" x1="241.28" y1="524.66" x2="241.28" y2="256.1" gradientUnits="userSpaceOnUse">
<stop stop-color="#1F5E00"/>
<stop offset="0.27" stop-color="#4F9407"/>
<stop offset="0.43" stop-color="#458707"/>
<stop offset="0.78" stop-color="#336F07"/>
<stop offset="1" stop-color="#2C6607"/>
</linearGradient>
<linearGradient id="paint18_linear_862_12472" x1="241.28" y1="524.66" x2="241.28" y2="256.1" gradientUnits="userSpaceOnUse">
<stop stop-color="#1F5E00"/>
<stop offset="1" stop-color="#2C6607"/>
</linearGradient>
<linearGradient id="paint19_linear_862_12472" x1="202.74" y1="467.74" x2="202.74" y2="513.3" gradientUnits="userSpaceOnUse">
<stop stop-color="#DDFF0C"/>
<stop offset="1" stop-color="#6BCE09" stop-opacity="0"/>
</linearGradient>
<linearGradient id="paint20_linear_862_12472" x1="254.02" y1="471.77" x2="254.02" y2="512.23" gradientUnits="userSpaceOnUse">
<stop stop-color="#DDFF0C"/>
<stop offset="1" stop-color="#6BCE09" stop-opacity="0"/>
</linearGradient>
<linearGradient id="paint21_linear_862_12472" x1="299.14" y1="525.63" x2="299.14" y2="498.82" gradientUnits="userSpaceOnUse">
<stop stop-color="#449806" stop-opacity="0"/>
<stop offset="0.09" stop-color="#479A08" stop-opacity="0.03"/>
<stop offset="0.23" stop-color="#50A10C" stop-opacity="0.12"/>
<stop offset="0.4" stop-color="#5EAD13" stop-opacity="0.27"/>
<stop offset="0.59" stop-color="#72BC1D" stop-opacity="0.47"/>
<stop offset="0.8" stop-color="#8BD02A" stop-opacity="0.72"/>
<stop offset="1" stop-color="#A6E638"/>
</linearGradient>
<linearGradient id="paint22_linear_862_12472" x1="302.64" y1="431.729" x2="302.64" y2="475.93" gradientUnits="userSpaceOnUse">
<stop stop-color="#DDFF0C"/>
<stop offset="1" stop-color="#6BCE09" stop-opacity="0"/>
</linearGradient>
<linearGradient id="paint23_linear_862_12472" x1="225.52" y1="436.51" x2="225.52" y2="466.31" gradientUnits="userSpaceOnUse">
<stop stop-color="#DDFF0C"/>
<stop offset="1" stop-color="#6BCE09" stop-opacity="0"/>
</linearGradient>
<linearGradient id="paint24_linear_862_12472" x1="322.7" y1="406.97" x2="322.7" y2="420.23" gradientUnits="userSpaceOnUse">
<stop stop-color="#DDFF0C"/>
<stop offset="1" stop-color="#6BCE09" stop-opacity="0"/>
</linearGradient>
<linearGradient id="paint25_linear_862_12472" x1="214.09" y1="419.06" x2="214.09" y2="425.64" gradientUnits="userSpaceOnUse">
<stop stop-color="#DDFF0C"/>
<stop offset="1" stop-color="#6BCE09" stop-opacity="0"/>
</linearGradient>
<linearGradient id="paint26_linear_862_12472" x1="241.28" y1="422.35" x2="241.28" y2="256.1" gradientUnits="userSpaceOnUse">
<stop stop-color="#42210B" stop-opacity="0"/>
<stop offset="1"/>
</linearGradient>
<radialGradient id="paint27_radial_862_12472" cx="0" cy="0" r="1" gradientUnits="userSpaceOnUse" gradientTransform="translate(161.976 190.445) scale(70.1777 59.4989)">
<stop stop-color="#743C1C"/>
<stop offset="1" stop-color="#401C02"/>
</radialGradient>
<linearGradient id="paint28_linear_862_12472" x1="162.052" y1="253.223" x2="162.052" y2="127.266" gradientUnits="userSpaceOnUse">
<stop stop-color="#FFDE43"/>
<stop offset="0.22" stop-color="#FED93F"/>
<stop offset="0.51" stop-color="#FCC934"/>
<stop offset="0.82" stop-color="#F9AF21"/>
<stop offset="1" stop-color="#F79D14"/>
</linearGradient>
<radialGradient id="paint29_radial_862_12472" cx="0" cy="0" r="1" gradientUnits="userSpaceOnUse" gradientTransform="translate(320.778 190.445) rotate(180) scale(70.1777 59.4989)">
<stop stop-color="#743C1C"/>
<stop offset="1" stop-color="#401C02"/>
</radialGradient>
<linearGradient id="paint30_linear_862_12472" x1="320.702" y1="253.223" x2="320.702" y2="127.266" gradientUnits="userSpaceOnUse">
<stop stop-color="#FFDE43"/>
<stop offset="0.22" stop-color="#FED93F"/>
<stop offset="0.51" stop-color="#FCC934"/>
<stop offset="0.82" stop-color="#F9AF21"/>
<stop offset="1" stop-color="#F79D14"/>
</linearGradient>
</defs>
</svg>
