<svg width="563" height="483" viewBox="0 0 563 483" fill="none" xmlns="http://www.w3.org/2000/svg">
<path d="M243.18 482.36C376.38 482.36 484.36 374.38 484.36 241.18C484.36 107.98 376.38 0 243.18 0C109.98 0 2 107.98 2 241.18C2 374.38 109.98 482.36 243.18 482.36Z" fill="url(#paint0_radial_862_12548)"/>
<g style="mix-blend-mode:soft-light">
<path d="M243.18 482.36C376.38 482.36 484.36 374.38 484.36 241.18C484.36 107.98 376.38 0 243.18 0C109.98 0 2 107.98 2 241.18C2 374.38 109.98 482.36 243.18 482.36Z" fill="url(#paint1_radial_862_12548)"/>
</g>
<g style="mix-blend-mode:soft-light">
<path d="M243.18 482.36C376.38 482.36 484.36 374.38 484.36 241.18C484.36 107.98 376.38 0 243.18 0C109.98 0 2 107.98 2 241.18C2 374.38 109.98 482.36 243.18 482.36Z" fill="url(#paint2_radial_862_12548)"/>
</g>
<g style="mix-blend-mode:overlay">
<path d="M243.18 482.36C376.38 482.36 484.36 374.38 484.36 241.18C484.36 107.98 376.38 0 243.18 0C109.98 0 2 107.98 2 241.18C2 374.38 109.98 482.36 243.18 482.36Z" fill="url(#paint3_radial_862_12548)" fill-opacity="0.7"/>
</g>
<mask id="mask0_862_12548" style="mask-type:alpha" maskUnits="userSpaceOnUse" x="2" y="0" width="483" height="483">
<path d="M243.18 482.36C376.38 482.36 484.36 374.38 484.36 241.18C484.36 107.98 376.38 0 243.18 0C109.98 0 2 107.98 2 241.18C2 374.38 109.98 482.36 243.18 482.36Z" fill="white"/>
</mask>
<g mask="url(#mask0_862_12548)">
<g filter="url(#filter0_f_862_12548)">
<path d="M0.624098 234.299C0.885983 230.872 2.0137 230.529 2.34262 234.008C2.70805 237.874 1.99768 245.646 2.16871 250.335C2.62155 262.748 4.52441 273.541 6.48605 282.32C12.8075 310.612 21.5617 328.843 29.7268 344.288C56.5663 395.06 85.9667 420.77 114.648 440.147C156.689 468.549 199.072 477.584 241.49 479.5C242.56 479.548 242.738 486.518 241.686 487.425C239.788 489.061 237.436 487.437 235.494 487.369C229.915 487.174 224.335 486.791 218.756 486.211C202.213 484.492 185.67 480.991 169.162 475.358C124.275 460.044 75.8765 433.821 33.6092 359.962C30.9502 355.316 28.3124 350.424 25.7118 345.167C23.6321 340.963 21.5726 336.556 19.5493 331.843C12.8946 316.342 -2.61323 276.658 0.624098 234.299ZM241.52 487.5C240.499 487.531 240.241 481.034 241.214 479.685C242.684 477.647 244.888 479.326 246.439 479.229C252.877 478.826 259.314 478.229 265.75 477.421C283.395 475.205 301.028 471.422 318.621 465.596C362.257 451.145 409.17 429.115 450.305 361.431C452.923 357.123 455.518 352.553 458.079 347.641C465.86 332.712 485.361 293.084 483.107 243.821C482.917 239.668 484.181 237.181 484.747 240.743C485.467 245.279 485.175 254.736 484.977 259.768C484.341 275.883 481.866 289.512 479.257 300.518C470.987 335.399 459.376 355.623 448.744 372.51C414.184 427.397 376.648 449.524 340.155 465.424C307.424 479.686 274.444 486.484 241.52 487.5Z" fill="#401C02"/>
</g>
<g filter="url(#filter1_f_862_12548)">
<path d="M0.624098 234.299C0.885983 230.872 2.0137 230.529 2.34262 234.008C2.70805 237.874 1.99768 245.646 2.16871 250.335C2.62155 262.748 4.52441 273.541 6.48605 282.32C12.8075 310.612 21.5617 328.843 29.7268 344.288C56.5663 395.06 85.9667 420.77 114.648 440.147C156.689 468.549 199.072 477.584 241.49 479.5C242.56 479.548 242.738 486.518 241.686 487.425C239.788 489.061 237.436 487.437 235.494 487.369C229.915 487.174 224.335 486.791 218.756 486.211C202.213 484.492 185.67 480.991 169.162 475.358C124.275 460.044 75.8765 433.821 33.6092 359.962C30.9502 355.316 28.3124 350.424 25.7118 345.167C23.6321 340.963 21.5726 336.556 19.5493 331.843C12.8946 316.342 -2.61323 276.658 0.624098 234.299ZM241.52 487.5C240.499 487.531 240.241 481.034 241.214 479.685C242.684 477.647 244.888 479.326 246.439 479.229C252.877 478.826 259.314 478.229 265.75 477.421C283.395 475.205 301.028 471.422 318.621 465.596C362.257 451.145 409.17 429.115 450.305 361.431C452.923 357.123 455.518 352.553 458.079 347.641C465.86 332.712 485.361 293.084 483.107 243.821C482.917 239.668 484.181 237.181 484.747 240.743C485.467 245.279 485.175 254.736 484.977 259.768C484.341 275.883 481.866 289.512 479.257 300.518C470.987 335.399 459.376 355.623 448.744 372.51C414.184 427.397 376.648 449.524 340.155 465.424C307.424 479.686 274.444 486.484 241.52 487.5Z" fill="#401C02"/>
</g>
</g>
<g filter="url(#filter2_f_862_12548)">
<circle cx="308.021" cy="353" r="50" fill="#E66200" fill-opacity="0.75"/>
</g>
<path d="M305.539 324.6C305.439 324.3 305.239 324 305.139 323.7L304.739 323C304.539 322.7 304.439 322.4 304.239 322.2L304.139 322.1C304.039 321.9 303.839 321.7 303.739 321.5C302.539 320 301.239 318.6 299.839 317.3C297.339 315.2 294.639 313.3 291.839 311.6C286.639 308.5 281.139 305.8 275.539 303.5C272.739 302.4 269.939 301.3 267.139 300.3L266.239 300C265.139 299.6 264.039 299.2 262.939 298.9C261.539 298.4 260.139 298 258.639 297.6C255.339 296.6 252.539 295.9 249.939 295.3C247.639 294.8 245.839 294.4 244.139 294C243.539 293.9 242.939 294 242.439 294.3C241.939 294.6 241.539 295 241.239 295.6C241.039 296.1 241.039 296.7 241.139 297.3C241.339 297.9 241.739 298.3 242.239 298.6C243.839 299.6 245.439 300.6 247.139 301.6C249.339 302.9 251.539 304.2 253.739 305.5L269.339 314.6C274.139 317.5 278.939 320.3 283.239 323.3C285.239 324.7 287.139 326.2 288.939 327.8C289.439 328.2 289.839 328.7 290.339 329.2L290.439 329.4L290.339 329.5C289.939 330 289.439 330.5 288.939 331C287.139 332.6 285.239 334.1 283.239 335.5C278.739 338.6 273.939 341.5 269.339 344.2L252.839 353.8C252.339 354.1 251.939 354.5 251.639 355C251.339 355.5 251.239 356.1 251.239 356.7C251.239 357.3 251.439 357.9 251.639 358.4C251.939 358.9 252.339 359.3 252.839 359.6L255.739 361.3L269.839 369.5C274.039 372 278.139 374.5 281.939 377.1C283.739 378.3 285.339 379.6 286.939 381C287.339 381.4 287.739 381.8 288.139 382.2C287.739 382.6 287.339 383 286.939 383.4C285.339 384.8 283.739 386.1 281.939 387.3C278.039 390 273.839 392.5 269.839 394.9L256.139 402.9C254.239 404 252.339 405.1 250.439 406.3C249.039 407.1 247.639 408 246.239 408.9C245.739 409.2 245.339 409.6 245.239 410.2C245.039 410.7 245.039 411.3 245.239 411.8C245.439 412.3 245.739 412.6 246.139 412.9C246.539 413.2 247.039 413.3 247.539 413.3C247.739 413.3 247.839 413.3 248.039 413.2C249.539 412.9 251.139 412.5 253.039 412.1C255.339 411.6 257.739 410.9 260.639 410.1C263.539 409.3 265.839 408.5 268.139 407.7C270.339 406.9 272.839 406 275.539 404.9C280.539 402.9 285.239 400.6 289.839 397.9C292.339 396.4 294.639 394.8 296.839 392.9C298.139 391.8 299.239 390.6 300.339 389.2C300.539 389 300.639 388.8 300.839 388.5C301.039 388.2 301.139 388.1 301.239 387.9L301.639 387.2C301.739 387 301.839 386.7 302.039 386.4C302.639 385.1 302.939 383.7 302.939 382.2C302.939 380.8 302.639 379.3 302.039 378C301.939 377.8 301.839 377.5 301.639 377.2L301.239 376.5C300.839 376.2 300.739 376 300.539 375.7L300.439 375.5C300.339 375.3 300.239 375.2 300.139 375C299.139 373.7 297.939 372.4 296.639 371.3C294.439 369.4 292.139 367.8 289.639 366.3C285.039 363.6 280.239 361.3 275.339 359.3C273.439 358.5 271.539 357.8 269.739 357.1C271.539 356.4 273.439 355.7 275.539 354.9C281.139 352.6 286.639 350 291.939 346.9C294.739 345.3 297.439 343.4 299.939 341.2C301.439 340 302.739 338.6 303.839 337C303.939 336.8 304.039 336.7 304.239 336.5L304.339 336.3C304.339 336.2 304.539 336 304.639 335.7L305.139 334.9C305.239 334.6 305.439 334.3 305.539 334C306.139 332.5 306.539 330.9 306.539 329.3C306.539 327.7 306.239 326.1 305.539 324.6Z" fill="url(#paint4_radial_862_12548)"/>
<path d="M247.339 414.2C247.539 414.2 247.839 414.2 248.039 414.1C249.739 413.8 251.339 413.4 253.139 413C255.439 412.5 257.739 411.8 260.839 411C263.439 410.3 265.639 409.5 267.639 408.8L268.339 408.5C271.039 407.6 273.439 406.6 275.739 405.7C280.739 403.7 285.639 401.3 290.239 398.6C292.739 397.1 295.139 395.4 297.339 393.5C298.639 392.4 299.939 391.1 300.939 389.7C301.139 389.5 301.239 389.2 301.439 388.9L301.539 388.7C301.639 388.5 301.739 388.4 301.839 388.2L302.239 387.5C302.339 387.3 302.539 387 302.639 386.7C303.339 385.2 303.639 383.7 303.639 382.1C303.639 380.5 303.339 378.9 302.639 377.5L302.539 377.2C302.439 377 302.339 376.9 302.339 376.7L301.839 376C301.639 375.7 301.539 375.5 301.339 375.2L301.239 375C301.139 374.8 301.039 374.6 300.839 374.5C299.739 373.1 298.539 371.8 297.239 370.7C295.039 368.8 292.639 367.1 290.139 365.6C285.539 362.9 280.639 360.5 275.639 358.5C274.539 358 273.539 357.6 272.539 357.2C273.539 356.8 274.639 356.4 275.839 355.9C281.539 353.6 287.039 350.9 292.339 347.8C295.239 346.1 297.939 344.2 300.439 342.1C301.939 340.8 303.339 339.4 304.539 337.8C304.639 337.7 304.739 337.6 304.839 337.4L305.039 337C305.239 336.7 305.439 336.4 305.539 336.2L306.039 335.4C306.239 335.1 306.339 334.8 306.539 334.4C307.139 332.8 307.539 331.1 307.539 329.3C307.539 327.5 307.139 325.8 306.439 324.2C306.339 323.9 306.139 323.6 306.039 323.3L305.639 322.5C305.439 322.2 305.239 321.9 305.039 321.6L304.939 321.5C304.839 321.4 304.739 321.2 304.639 321L304.539 320.9C303.339 319.3 301.939 317.8 300.439 316.5C297.939 314.4 295.139 312.4 292.339 310.7C287.039 307.6 281.539 304.9 275.839 302.6C273.039 301.5 270.239 300.4 267.339 299.4L266.439 299.1C265.339 298.7 264.239 298.3 263.039 298C261.639 297.5 260.239 297.1 258.739 296.7C255.639 295.8 252.939 295 250.039 294.4C247.739 293.9 245.939 293.5 244.239 293.1C243.439 292.9 242.639 293.1 241.839 293.5C241.139 293.9 240.539 294.5 240.239 295.3C239.939 296.1 239.939 296.9 240.139 297.7C240.439 298.5 240.939 299.1 241.639 299.6C243.239 300.6 244.839 301.6 246.539 302.5C248.739 303.8 250.939 305.1 253.139 306.4L268.739 315.5C273.339 318.2 278.239 321.1 282.539 324.2C284.539 325.5 286.439 327 288.139 328.6C288.439 328.9 288.739 329.1 288.939 329.4C288.639 329.7 288.439 330 288.139 330.2C286.339 331.8 284.439 333.3 282.539 334.6C278.139 337.6 273.539 340.4 268.639 343.3L252.139 352.9C251.439 353.3 250.939 353.8 250.539 354.5C250.139 355.2 249.939 355.9 249.939 356.7C249.939 357.5 250.139 358.2 250.539 358.9C250.939 359.6 251.439 360.1 252.139 360.5L255.139 362L269.239 370.2C272.939 372.4 277.339 375 281.339 377.8C283.039 379 284.739 380.2 286.239 381.6C286.439 381.7 286.539 381.9 286.739 382.1C286.539 382.3 286.439 382.4 286.239 382.6C284.739 384 283.039 385.3 281.339 386.4C277.539 389 273.439 391.5 269.239 394L255.539 402C253.639 403.1 251.739 404.2 249.839 405.4L249.139 405.8C247.939 406.5 246.839 407.2 245.639 407.9C244.939 408.3 244.439 408.9 244.139 409.7C243.839 410.5 243.939 411.3 244.239 412C244.539 412.6 244.939 413.2 245.539 413.6C245.939 414 246.639 414.2 247.339 414.2ZM304.639 325C305.239 326.4 305.539 327.8 305.539 329.3C305.539 330.8 305.239 332.2 304.639 333.6C304.539 333.9 304.339 334.2 304.239 334.4L303.839 335.2C303.739 335.5 303.539 335.7 303.439 335.9L303.139 336.3C303.039 336.4 303.039 336.5 302.939 336.6C301.839 338.1 300.539 339.4 299.139 340.6C296.739 342.7 294.039 344.5 291.239 346.1C286.039 349.1 280.639 351.8 275.039 354C272.939 354.8 271.139 355.6 269.339 356.2L266.739 357.1L269.339 358C271.139 358.6 273.039 359.4 274.939 360.2C279.839 362.1 284.639 364.5 289.139 367.1C291.539 368.5 293.839 370.2 296.039 372C297.239 373.1 298.439 374.2 299.339 375.5C299.439 375.6 299.539 375.8 299.639 375.9L299.739 376.1C299.939 376.4 300.039 376.6 300.139 376.8L300.539 377.6C300.539 377.7 300.639 377.9 300.739 378L300.839 378.3C301.339 379.5 301.639 380.7 301.639 382.1C301.639 383.5 301.339 384.7 300.839 385.9C300.739 386.2 300.639 386.4 300.439 386.7L300.039 387.4C299.939 387.5 299.939 387.6 299.839 387.7L299.639 388C299.439 388.3 299.339 388.5 299.239 388.6C298.239 389.9 297.139 391.1 295.939 392.1C293.839 393.9 291.539 395.6 289.039 397C284.539 399.7 279.739 402 274.839 403.9C272.539 404.8 270.139 405.7 267.539 406.7L266.839 407C264.839 407.7 262.739 408.4 260.239 409.1C257.239 409.9 254.839 410.6 252.639 411.1C250.839 411.5 249.339 411.9 247.639 412.2C247.539 412.2 247.439 412.2 247.339 412.2C247.039 412.2 246.739 412.1 246.539 412C246.339 411.8 246.139 411.6 246.039 411.3C245.939 411 245.939 410.7 246.039 410.4C246.139 410.1 246.339 409.8 246.639 409.7C247.839 409 248.939 408.3 250.139 407.6L250.839 407.2C252.739 406.1 254.639 404.9 256.539 403.8L270.239 395.8C274.439 393.3 278.639 390.8 282.439 388.1C284.239 386.9 285.939 385.6 287.539 384.1C287.939 383.7 288.439 383.3 288.739 382.8L289.339 382.2L288.739 381.5C288.339 381 287.939 380.6 287.439 380.2C285.839 378.8 284.139 377.4 282.339 376.2C278.339 373.4 273.939 370.8 270.139 368.5L253.139 358.6C252.739 358.4 252.539 358.1 252.339 357.7C252.139 357.3 252.039 356.9 252.039 356.5C252.039 356.1 252.139 355.7 252.339 355.3C252.539 354.9 252.839 354.7 253.139 354.4L269.639 344.8C274.539 341.9 279.239 339.1 283.639 336C285.639 334.6 287.639 333.1 289.439 331.4C289.939 330.9 290.439 330.4 290.939 329.8L291.539 329.1L290.839 328.3C290.439 327.8 289.939 327.3 289.439 326.8C287.639 325.1 285.639 323.6 283.639 322.2C279.239 319.1 274.339 316.2 269.639 313.5L254.039 304.4C251.839 303.1 249.639 301.8 247.439 300.5C245.839 299.5 244.239 298.6 242.539 297.6C242.239 297.4 242.039 297.1 241.939 296.8C241.839 296.5 241.839 296.1 241.939 295.8C242.039 295.5 242.339 295.2 242.639 295C243.139 295 243.439 295 243.839 295C245.539 295.4 247.339 295.7 249.539 296.3C252.439 297 255.139 297.7 258.139 298.6C259.539 299 260.939 299.5 262.439 299.9C263.539 300.3 264.639 300.7 265.739 301L266.639 301.3C269.439 302.3 272.239 303.3 275.039 304.5C280.639 306.7 286.039 309.4 291.239 312.5C294.039 314.1 296.639 316 299.139 318.1C300.539 319.3 301.839 320.7 302.939 322.1L303.039 322.2C303.139 322.3 303.239 322.5 303.339 322.6L303.439 322.8C303.539 323 303.739 323.2 303.839 323.5L304.239 324.3C304.439 324.5 304.539 324.7 304.639 325Z" fill="url(#paint5_linear_862_12548)"/>
<g opacity="0.7">
<g filter="url(#filter3_f_862_12548)">
<circle cx="377" cy="253" r="50" fill="#E66200"/>
</g>
<g filter="url(#filter4_f_862_12548)">
<circle cx="110" cy="253" r="50" fill="#E66200"/>
</g>
</g>
<path d="M63.5652 161.22C71.4952 153.16 120.775 106.51 166.745 139.86C168.253 141.02 169.37 142.612 169.949 144.424C170.528 146.236 170.541 148.181 169.985 150C169.648 151.27 168.918 152.4 167.9 153.23C166.881 154.059 165.627 154.546 164.315 154.62C149.885 156.06 123.365 138.5 81.0152 163.57C77.3248 165.814 73.7595 168.258 70.3352 170.89C67.8352 172.76 63.8452 174.99 61.4252 172.46C59.3552 170.3 59.9052 167.46 60.7952 165.3C61.4498 163.776 62.39 162.391 63.5652 161.22Z" fill="#42210B"/>
<path d="M422.585 161.22C414.645 153.16 365.365 106.51 319.405 139.86C317.895 141.018 316.776 142.61 316.197 144.423C315.617 146.235 315.606 148.181 316.165 150C316.501 151.27 317.23 152.401 318.249 153.231C319.267 154.061 320.523 154.548 321.835 154.62C336.255 156.06 362.785 138.5 405.135 163.57C408.822 165.819 412.387 168.262 415.815 170.89C418.315 172.76 422.305 174.99 424.725 172.46C426.795 170.3 426.245 167.46 425.345 165.3C424.693 163.777 423.756 162.392 422.585 161.22Z" fill="#42210B"/>
<path d="M183.585 247.56C180.054 245.548 176.271 244.014 172.335 243C157.255 239 142.655 243.31 129.505 250.95C114.795 259.49 101.505 236.71 116.195 228.18C143.575 212.28 179.025 209.43 204.755 230.24C217.615 240.64 200.125 258.53 187.115 249.64C185.976 248.876 184.798 248.171 183.585 247.53V247.56Z" fill="url(#paint6_radial_862_12548)"/>
<path d="M183.585 247.56C180.054 245.548 176.271 244.014 172.335 243C157.255 239 142.655 243.31 129.505 250.95C114.795 259.49 101.505 236.71 116.195 228.18C143.575 212.28 179.025 209.43 204.755 230.24C217.615 240.64 200.125 258.53 187.115 249.64C185.976 248.876 184.798 248.171 183.585 247.53V247.56Z" stroke="url(#paint7_linear_862_12548)" stroke-width="2" stroke-miterlimit="10"/>
<path d="M350.674 247.56C347.142 245.551 343.359 244.018 339.424 243C324.344 239 309.744 243.31 296.584 250.95C281.884 259.49 268.584 236.71 283.274 228.18C310.664 212.28 346.104 209.43 371.834 230.24C384.704 240.64 367.214 258.53 354.194 249.64C353.058 248.878 351.883 248.174 350.674 247.53V247.56Z" fill="url(#paint8_radial_862_12548)"/>
<path d="M350.674 247.56C347.142 245.551 343.359 244.018 339.424 243C324.344 239 309.744 243.31 296.584 250.95C281.884 259.49 268.584 236.71 283.274 228.18C310.664 212.28 346.104 209.43 371.834 230.24C384.704 240.64 367.214 258.53 354.194 249.64C353.058 248.878 351.883 248.174 350.674 247.53V247.56Z" stroke="url(#paint9_linear_862_12548)" stroke-width="2" stroke-miterlimit="10"/>
<mask id="mask1_862_12548" style="mask-type:alpha" maskUnits="userSpaceOnUse" x="2" y="0" width="483" height="483">
<path d="M243.18 482.36C376.38 482.36 484.36 374.38 484.36 241.18C484.36 107.98 376.38 0 243.18 0C109.98 0 2 107.98 2 241.18C2 374.38 109.98 482.36 243.18 482.36Z" fill="url(#paint10_radial_862_12548)"/>
</mask>
<g mask="url(#mask1_862_12548)">
<g filter="url(#filter5_f_862_12548)">
<path d="M455.024 331.532C504.633 288.799 588.43 393.882 424.899 443.958C308.406 318.85 433.427 269.719 455.024 331.532Z" fill="#752B00"/>
</g>
</g>
<path d="M473.623 309.257C531.874 259.08 630.268 382.469 438.25 441.267C301.464 294.366 448.264 236.677 473.623 309.257Z" fill="url(#paint11_linear_862_12548)"/>
<mask id="mask2_862_12548" style="mask-type:alpha" maskUnits="userSpaceOnUse" x="380" y="277" width="172" height="165">
<path d="M473.623 309.257C531.874 259.08 630.268 382.469 438.251 441.267C301.465 294.366 448.264 236.677 473.623 309.257Z" fill="url(#paint12_linear_862_12548)"/>
</mask>
<g mask="url(#mask2_862_12548)">
<g filter="url(#filter6_f_862_12548)">
<path d="M390.04 331.097C389.959 321.613 394.213 311.693 401.607 304.098C409.001 296.502 419.4 291.307 430.723 289.895C436.371 289.242 442.244 289.448 448.045 290.774C453.847 292.1 459.498 294.413 464.651 297.732C469.804 301.051 474.354 305.348 478.065 310.219C481.776 315.09 484.437 320.477 486.403 325.906L460.022 318.838C461.186 317.896 462.322 317.06 463.487 316.118C464.651 315.176 465.894 314.368 467.136 313.561C468.379 312.754 469.699 312.082 471.048 311.303C472.397 310.524 473.795 309.987 475.115 309.314C480.764 306.952 486.853 305.505 492.975 305.207C499.098 304.909 505.254 305.761 510.941 307.513C516.629 309.265 521.818 312.023 526.382 315.413C535.483 322.298 541.891 331.996 544.497 342.271C547.102 352.546 545.826 363.263 541.014 371.437C539.728 366.874 538.329 362.736 536.467 359.045C534.606 355.354 532.39 352.138 529.846 349.29C524.944 343.758 519.025 339.892 513.076 337.842C507.126 335.792 501.204 335.345 496.002 336.459C490.801 337.574 486.166 339.98 481.586 343.884L463.322 359.284L455.205 336.815C453.161 331.251 450.379 326.743 446.432 323.177C442.485 319.611 437.267 316.959 430.955 315.838C424.749 314.745 417.718 315.027 410.678 317.473C407.158 318.696 403.631 320.373 400.067 322.611C396.716 324.905 393.357 327.654 390.04 331.097Z" fill="#FF3E3E"/>
</g>
<g filter="url(#filter7_f_862_12548)">
<path d="M424.287 424.186C422.317 422.176 420.454 420.195 418.591 418.213C417.62 417.155 416.727 416.232 415.757 415.174C414.893 414.144 414.028 413.115 413.086 411.95L407.852 405.531C406.18 403.259 404.615 401.015 403.05 398.772C396.818 389.691 391.24 379.874 387.06 369.519C382.88 359.164 380.155 348.058 379.863 336.807L379.854 332.586C379.877 331.224 380.035 329.784 380.193 328.344L380.415 326.238C380.48 325.571 380.679 324.826 380.744 324.16L381.508 320.032C382.961 314.607 385.053 309.353 388.017 304.674C386.06 309.85 384.876 315.12 384.146 320.397L383.865 324.426C383.8 325.093 383.735 325.759 383.777 326.455L383.796 328.512C383.879 329.902 383.779 331.129 383.862 332.52L384.17 336.479C385.193 347.128 388.117 357.489 392.17 367.467C396.116 377.418 401.191 386.986 406.642 396.428C408.072 398.749 409.396 401.042 410.798 403.47L415.223 410.356C415.953 411.464 416.654 412.678 417.383 413.785C418.112 414.893 418.948 416.029 419.677 417.136C421.32 419.515 422.857 421.865 424.287 424.186Z" fill="#FFBF5F"/>
</g>
<g filter="url(#filter8_f_862_12548)">
<path d="M387.692 309.718C390.2 300.357 395.879 291.503 403.973 285.121C411.962 278.711 422.203 274.956 432.631 274.33C443.167 273.733 454.045 276.534 462.969 282.801C467.406 285.814 471.374 289.728 474.533 294.109C477.691 298.489 480.176 303.259 482.014 308.312L473.185 305.947C477.197 302.461 481.734 299.572 486.659 297.358C491.585 295.143 496.95 293.845 502.328 293.347C513.161 292.488 524.011 295.395 532.836 301.18C541.661 306.965 548.547 315.309 552.366 324.883C556.185 334.457 556.676 344.964 554.168 354.325C554.162 353.069 554.128 351.92 554.123 350.664C554.088 349.515 553.977 348.231 553.836 347.053C553.555 344.698 553.168 342.314 552.646 340.007C551.466 335.473 549.776 331.144 547.546 327.126C542.952 319.168 536.249 312.698 528.465 308.56C520.68 304.422 511.815 302.616 503.436 303.677C494.951 304.71 486.98 308.503 480.446 314.163L474.346 319.483L471.724 311.826C468.789 303.629 463.918 296.281 457.085 291.144C450.253 286.007 441.779 283.166 432.862 282.829C424.052 282.521 415.012 284.773 407.054 289.367C403.143 291.625 399.379 294.607 396.197 297.973C394.592 299.709 393.093 301.474 391.643 303.48C390.933 304.429 390.222 305.379 389.59 306.464C388.957 307.548 388.324 308.633 387.692 309.718Z" fill="#700000"/>
</g>
<g filter="url(#filter9_f_862_12548)">
<path d="M387.692 309.718C390.2 300.357 395.879 291.503 403.973 285.121C411.962 278.711 422.203 274.956 432.631 274.33C443.167 273.733 454.045 276.534 462.969 282.801C467.406 285.814 471.374 289.728 474.533 294.109C477.691 298.489 480.176 303.259 482.014 308.312L473.185 305.947C477.197 302.461 481.734 299.572 486.659 297.358C491.585 295.143 496.95 293.845 502.328 293.347C513.161 292.488 524.011 295.395 532.836 301.18C541.661 306.965 548.547 315.309 552.366 324.883C556.185 334.457 556.676 344.964 554.168 354.325C554.162 353.069 554.128 351.92 554.123 350.664C554.088 349.515 553.977 348.231 553.836 347.053C553.555 344.698 553.168 342.314 552.646 340.007C551.466 335.473 549.776 331.144 547.546 327.126C542.952 319.168 536.249 312.698 528.465 308.56C520.68 304.422 511.815 302.616 503.436 303.677C494.951 304.71 486.98 308.503 480.446 314.163L474.346 319.483L471.724 311.826C468.789 303.629 463.918 296.281 457.085 291.144C450.253 286.007 441.779 283.166 432.862 282.829C424.052 282.521 415.012 284.773 407.054 289.367C403.143 291.625 399.379 294.607 396.197 297.973C394.592 299.709 393.093 301.474 391.643 303.48C390.933 304.429 390.222 305.379 389.59 306.464C388.957 307.548 388.324 308.633 387.692 309.718Z" fill="#700000"/>
</g>
<g filter="url(#filter10_f_862_12548)">
<path d="M386.849 330.242C386.768 320.758 391.022 310.838 398.416 303.243C405.81 295.647 416.209 290.452 427.532 289.04C433.18 288.387 439.053 288.593 444.855 289.919C450.656 291.245 456.307 293.558 461.46 296.877C466.613 300.196 471.163 304.493 474.874 309.364C478.585 314.235 481.246 319.622 483.212 325.051L456.831 317.983C457.995 317.041 459.132 316.205 460.296 315.263C461.461 314.321 462.703 313.513 463.945 312.706C465.188 311.899 466.508 311.227 467.857 310.448C469.206 309.669 470.604 309.132 471.924 308.459C477.574 306.097 483.662 304.65 489.784 304.352C495.907 304.054 502.063 304.906 507.75 306.658C513.438 308.41 518.627 311.168 523.191 314.558C532.292 321.443 538.7 331.141 541.306 341.416C543.911 351.691 542.635 362.408 537.823 370.582C536.537 366.019 535.138 361.881 533.276 358.19C531.415 354.499 529.199 351.283 526.655 348.435C521.753 342.903 515.834 339.037 509.885 336.987C503.936 334.937 498.013 334.49 492.811 335.604C487.61 336.719 482.975 339.125 478.395 343.029L460.131 358.429L452.12 335.988C450.077 330.424 447.294 325.916 443.347 322.351C439.4 318.785 434.182 316.132 427.87 315.011C421.664 313.918 414.634 314.201 407.594 316.647C404.074 317.87 400.546 319.547 396.982 321.784C393.525 324.05 390.166 326.799 386.849 330.242Z" fill="#FF9797"/>
</g>
<g filter="url(#filter11_f_862_12548)">
<path d="M459.391 433.593C461.79 432.297 464.296 431.03 466.773 429.87C467.959 429.276 469.25 428.71 470.436 428.115C471.621 427.521 472.835 426.82 474.021 426.225L481.296 422.474C483.618 421.044 486.017 419.749 488.416 418.453C497.858 413.002 506.931 407.225 515.43 400.609C523.823 393.965 531.642 386.483 537.853 377.772L540.098 374.498C540.866 373.335 541.392 372.222 542.16 371.059L543.205 369.287C543.588 368.706 543.759 368.068 544.143 367.487L545.914 363.857C548.027 358.95 549.558 353.66 550.423 348.305C550.757 353.867 549.835 359.435 548.381 364.86L546.979 368.816C546.702 369.426 546.502 370.171 546.225 370.781L545.364 372.716C544.781 374.042 544.226 375.262 543.536 376.559L541.418 380.21C535.54 389.808 527.627 398.063 518.83 404.94C510.032 411.818 500.399 417.56 490.355 422.279C487.878 423.44 485.401 424.6 482.818 425.732L475.075 428.674C473.811 429.134 472.52 429.7 471.15 430.131C469.78 430.562 468.517 431.021 467.176 431.346C464.706 432.052 462.073 432.943 459.391 433.593Z" fill="white"/>
</g>
</g>
<g style="mix-blend-mode:soft-light">
<path d="M473.669 309.269C531.921 259.093 630.314 382.481 438.297 441.28C301.404 294.35 448.31 236.689 473.669 309.269Z" fill="url(#paint13_linear_862_12548)"/>
</g>
<g style="mix-blend-mode:soft-light">
<path d="M473.669 309.269C448.31 236.689 301.404 294.35 438.297 441.28C630.314 382.481 531.921 259.093 473.669 309.269Z" fill="url(#paint14_linear_862_12548)"/>
</g>
<mask id="mask3_862_12548" style="mask-type:alpha" maskUnits="userSpaceOnUse" x="380" y="277" width="172" height="165">
<path d="M473.623 309.257C531.874 259.08 630.268 382.469 438.25 441.267C301.464 294.366 448.264 236.677 473.623 309.257Z" fill="url(#paint15_linear_862_12548)"/>
</mask>
<g mask="url(#mask3_862_12548)">
<g filter="url(#filter12_f_862_12548)">
<path d="M449.811 282.126C452.676 283.35 455.348 284.864 457.935 286.697C460.416 288.502 462.811 290.626 464.908 293.012C467.033 295.292 468.832 297.94 470.39 300.637C471.947 303.335 473.235 306.188 474.253 309.197L473.402 308.969C475.759 306.979 478.301 305.151 481.027 303.488C483.725 301.93 486.606 300.536 489.587 299.625C492.596 298.607 495.626 297.936 498.783 297.642C501.94 297.348 505.012 297.373 508.104 297.746C501.834 297.32 495.647 298.284 489.841 300.377C486.939 301.423 484.192 302.739 481.494 304.297C478.903 305.883 476.361 307.71 474.004 309.701L473.407 310.225L473.259 309.501C472.213 306.598 471.031 303.774 469.474 301.076C468.023 298.407 466.196 295.865 464.205 293.508C460.33 288.821 455.348 284.864 449.811 282.126Z" fill="#820010"/>
</g>
<g filter="url(#filter13_f_862_12548)">
<path d="M449.811 282.126C452.676 283.35 455.348 284.864 457.935 286.697C460.416 288.502 462.811 290.626 464.908 293.012C467.033 295.292 468.832 297.94 470.39 300.637C471.947 303.335 473.235 306.188 474.253 309.197L473.402 308.969C475.759 306.979 478.301 305.151 481.027 303.488C483.725 301.93 486.606 300.536 489.587 299.625C492.596 298.607 495.626 297.936 498.783 297.642C501.94 297.348 505.012 297.373 508.104 297.746C501.834 297.32 495.647 298.284 489.841 300.377C486.939 301.423 484.192 302.739 481.494 304.297C478.903 305.883 476.361 307.71 474.004 309.701L473.407 310.225L473.259 309.501C472.213 306.598 471.031 303.774 469.474 301.076C468.023 298.407 466.196 295.865 464.205 293.508C460.33 288.821 455.348 284.864 449.811 282.126Z" fill="#820010"/>
</g>
<g filter="url(#filter14_f_862_12548)">
<path d="M449.811 282.126C452.676 283.35 455.348 284.864 457.935 286.697C460.416 288.502 462.811 290.626 464.908 293.012C467.033 295.292 468.832 297.94 470.39 300.637C471.947 303.335 473.235 306.188 474.253 309.197L473.402 308.969C475.759 306.979 478.301 305.151 481.027 303.488C483.725 301.93 486.606 300.536 489.587 299.625C492.596 298.607 495.626 297.936 498.783 297.642C501.94 297.348 505.012 297.373 508.104 297.746C501.834 297.32 495.647 298.284 489.841 300.377C486.939 301.423 484.192 302.739 481.494 304.297C478.903 305.883 476.361 307.71 474.004 309.701L473.407 310.225L473.259 309.501C472.213 306.598 471.031 303.774 469.474 301.076C468.023 298.407 466.196 295.865 464.205 293.508C460.33 288.821 455.348 284.864 449.811 282.126Z" fill="#820010"/>
</g>
</g>
<defs>
<filter id="filter0_f_862_12548" x="-24.8149" y="206.558" width="535.022" height="306.595" filterUnits="userSpaceOnUse" color-interpolation-filters="sRGB">
<feFlood flood-opacity="0" result="BackgroundImageFix"/>
<feBlend mode="normal" in="SourceGraphic" in2="BackgroundImageFix" result="shape"/>
<feGaussianBlur stdDeviation="12.5" result="effect1_foregroundBlur_862_12548"/>
</filter>
<filter id="filter1_f_862_12548" x="-39.8149" y="191.558" width="565.022" height="336.595" filterUnits="userSpaceOnUse" color-interpolation-filters="sRGB">
<feFlood flood-opacity="0" result="BackgroundImageFix"/>
<feBlend mode="normal" in="SourceGraphic" in2="BackgroundImageFix" result="shape"/>
<feGaussianBlur stdDeviation="20" result="effect1_foregroundBlur_862_12548"/>
</filter>
<filter id="filter2_f_862_12548" x="198.021" y="243" width="220" height="220" filterUnits="userSpaceOnUse" color-interpolation-filters="sRGB">
<feFlood flood-opacity="0" result="BackgroundImageFix"/>
<feBlend mode="normal" in="SourceGraphic" in2="BackgroundImageFix" result="shape"/>
<feGaussianBlur stdDeviation="30" result="effect1_foregroundBlur_862_12548"/>
</filter>
<filter id="filter3_f_862_12548" x="267" y="143" width="220" height="220" filterUnits="userSpaceOnUse" color-interpolation-filters="sRGB">
<feFlood flood-opacity="0" result="BackgroundImageFix"/>
<feBlend mode="normal" in="SourceGraphic" in2="BackgroundImageFix" result="shape"/>
<feGaussianBlur stdDeviation="30" result="effect1_foregroundBlur_862_12548"/>
</filter>
<filter id="filter4_f_862_12548" x="0" y="143" width="220" height="220" filterUnits="userSpaceOnUse" color-interpolation-filters="sRGB">
<feFlood flood-opacity="0" result="BackgroundImageFix"/>
<feBlend mode="normal" in="SourceGraphic" in2="BackgroundImageFix" result="shape"/>
<feGaussianBlur stdDeviation="30" result="effect1_foregroundBlur_862_12548"/>
</filter>
<filter id="filter5_f_862_12548" x="345.913" y="274.892" width="205.181" height="199.066" filterUnits="userSpaceOnUse" color-interpolation-filters="sRGB">
<feFlood flood-opacity="0" result="BackgroundImageFix"/>
<feBlend mode="normal" in="SourceGraphic" in2="BackgroundImageFix" result="shape"/>
<feGaussianBlur stdDeviation="15" result="effect1_foregroundBlur_862_12548"/>
</filter>
<filter id="filter6_f_862_12548" x="370.039" y="269.536" width="195.783" height="121.901" filterUnits="userSpaceOnUse" color-interpolation-filters="sRGB">
<feFlood flood-opacity="0" result="BackgroundImageFix"/>
<feBlend mode="normal" in="SourceGraphic" in2="BackgroundImageFix" result="shape"/>
<feGaussianBlur stdDeviation="10" result="effect1_foregroundBlur_862_12548"/>
</filter>
<filter id="filter7_f_862_12548" x="369.854" y="294.674" width="64.4331" height="139.512" filterUnits="userSpaceOnUse" color-interpolation-filters="sRGB">
<feFlood flood-opacity="0" result="BackgroundImageFix"/>
<feBlend mode="normal" in="SourceGraphic" in2="BackgroundImageFix" result="shape"/>
<feGaussianBlur stdDeviation="5" result="effect1_foregroundBlur_862_12548"/>
</filter>
<filter id="filter8_f_862_12548" x="367.692" y="254.251" width="208.026" height="120.073" filterUnits="userSpaceOnUse" color-interpolation-filters="sRGB">
<feFlood flood-opacity="0" result="BackgroundImageFix"/>
<feBlend mode="normal" in="SourceGraphic" in2="BackgroundImageFix" result="shape"/>
<feGaussianBlur stdDeviation="10" result="effect1_foregroundBlur_862_12548"/>
</filter>
<filter id="filter9_f_862_12548" x="367.692" y="254.251" width="208.026" height="120.073" filterUnits="userSpaceOnUse" color-interpolation-filters="sRGB">
<feFlood flood-opacity="0" result="BackgroundImageFix"/>
<feBlend mode="normal" in="SourceGraphic" in2="BackgroundImageFix" result="shape"/>
<feGaussianBlur stdDeviation="10" result="effect1_foregroundBlur_862_12548"/>
</filter>
<filter id="filter10_f_862_12548" x="346.848" y="248.681" width="235.783" height="161.901" filterUnits="userSpaceOnUse" color-interpolation-filters="sRGB">
<feFlood flood-opacity="0" result="BackgroundImageFix"/>
<feBlend mode="normal" in="SourceGraphic" in2="BackgroundImageFix" result="shape"/>
<feGaussianBlur stdDeviation="20" result="effect1_foregroundBlur_862_12548"/>
</filter>
<filter id="filter11_f_862_12548" x="449.391" y="338.305" width="111.1" height="105.288" filterUnits="userSpaceOnUse" color-interpolation-filters="sRGB">
<feFlood flood-opacity="0" result="BackgroundImageFix"/>
<feBlend mode="normal" in="SourceGraphic" in2="BackgroundImageFix" result="shape"/>
<feGaussianBlur stdDeviation="5" result="effect1_foregroundBlur_862_12548"/>
</filter>
<filter id="filter12_f_862_12548" x="443.811" y="276.126" width="70.2935" height="40.0986" filterUnits="userSpaceOnUse" color-interpolation-filters="sRGB">
<feFlood flood-opacity="0" result="BackgroundImageFix"/>
<feBlend mode="normal" in="SourceGraphic" in2="BackgroundImageFix" result="shape"/>
<feGaussianBlur stdDeviation="3" result="effect1_foregroundBlur_862_12548"/>
</filter>
<filter id="filter13_f_862_12548" x="445.811" y="278.126" width="66.2935" height="36.0986" filterUnits="userSpaceOnUse" color-interpolation-filters="sRGB">
<feFlood flood-opacity="0" result="BackgroundImageFix"/>
<feBlend mode="normal" in="SourceGraphic" in2="BackgroundImageFix" result="shape"/>
<feGaussianBlur stdDeviation="2" result="effect1_foregroundBlur_862_12548"/>
</filter>
<filter id="filter14_f_862_12548" x="441.811" y="274.126" width="74.2935" height="44.0986" filterUnits="userSpaceOnUse" color-interpolation-filters="sRGB">
<feFlood flood-opacity="0" result="BackgroundImageFix"/>
<feBlend mode="normal" in="SourceGraphic" in2="BackgroundImageFix" result="shape"/>
<feGaussianBlur stdDeviation="4" result="effect1_foregroundBlur_862_12548"/>
</filter>
<radialGradient id="paint0_radial_862_12548" cx="0" cy="0" r="1" gradientUnits="userSpaceOnUse" gradientTransform="translate(243 -4.53898e-06) rotate(90) scale(482)">
<stop stop-color="#FFDE43"/>
<stop offset="1" stop-color="#FFBC00"/>
</radialGradient>
<radialGradient id="paint1_radial_862_12548" cx="0" cy="0" r="1" gradientUnits="userSpaceOnUse" gradientTransform="translate(243 64.5) rotate(90) scale(417.5)">
<stop stop-color="white" stop-opacity="0.5"/>
<stop offset="0.782278"/>
</radialGradient>
<radialGradient id="paint2_radial_862_12548" cx="0" cy="0" r="1" gradientUnits="userSpaceOnUse" gradientTransform="translate(243 64.5) rotate(90) scale(417.5)">
<stop stop-color="white" stop-opacity="0.5"/>
<stop offset="0.782278"/>
</radialGradient>
<radialGradient id="paint3_radial_862_12548" cx="0" cy="0" r="1" gradientUnits="userSpaceOnUse" gradientTransform="translate(243 -52.5) rotate(90) scale(534.5 722.835)">
<stop offset="0.0922635" stop-color="white"/>
<stop offset="0.670207" stop-color="white" stop-opacity="0"/>
</radialGradient>
<radialGradient id="paint4_radial_862_12548" cx="0" cy="0" r="1" gradientUnits="userSpaceOnUse" gradientTransform="translate(273.762 353.336) scale(24.7525 120.419)">
<stop stop-color="#743C1C"/>
<stop offset="1" stop-color="#401C02"/>
</radialGradient>
<linearGradient id="paint5_linear_862_12548" x1="307.539" y1="353.581" x2="239.987" y2="353.581" gradientUnits="userSpaceOnUse">
<stop stop-color="#FFDE43"/>
<stop offset="0.22" stop-color="#FED93F"/>
<stop offset="0.51" stop-color="#FCC934"/>
<stop offset="0.82" stop-color="#F9AF21"/>
<stop offset="1" stop-color="#F79D14"/>
</linearGradient>
<radialGradient id="paint6_radial_862_12548" cx="0" cy="0" r="1" gradientUnits="userSpaceOnUse" gradientTransform="translate(159.463 234.126) scale(63.3847 18.7281)">
<stop stop-color="#743C1C"/>
<stop offset="1" stop-color="#401C02"/>
</radialGradient>
<linearGradient id="paint7_linear_862_12548" x1="159.532" y1="253.886" x2="159.532" y2="214.239" gradientUnits="userSpaceOnUse">
<stop stop-color="#FFDE43"/>
<stop offset="0.22" stop-color="#FED93F"/>
<stop offset="0.51" stop-color="#FCC934"/>
<stop offset="0.82" stop-color="#F9AF21"/>
<stop offset="1" stop-color="#F79D14"/>
</linearGradient>
<radialGradient id="paint8_radial_862_12548" cx="0" cy="0" r="1" gradientUnits="userSpaceOnUse" gradientTransform="translate(326.546 234.126) scale(63.387 18.7281)">
<stop stop-color="#743C1C"/>
<stop offset="1" stop-color="#401C02"/>
</radialGradient>
<linearGradient id="paint9_linear_862_12548" x1="326.614" y1="253.886" x2="326.614" y2="214.239" gradientUnits="userSpaceOnUse">
<stop stop-color="#FFDE43"/>
<stop offset="0.22" stop-color="#FED93F"/>
<stop offset="0.51" stop-color="#FCC934"/>
<stop offset="0.82" stop-color="#F9AF21"/>
<stop offset="1" stop-color="#F79D14"/>
</linearGradient>
<radialGradient id="paint10_radial_862_12548" cx="0" cy="0" r="1" gradientUnits="userSpaceOnUse" gradientTransform="translate(243 -4.53898e-06) rotate(90) scale(482)">
<stop stop-color="#FFDE43"/>
<stop offset="1" stop-color="#FFBC00"/>
</radialGradient>
<linearGradient id="paint11_linear_862_12548" x1="479.004" y1="289.313" x2="438.286" y2="441.274" gradientUnits="userSpaceOnUse">
<stop stop-color="#FF0000"/>
<stop offset="1" stop-color="#610003"/>
</linearGradient>
<linearGradient id="paint12_linear_862_12548" x1="479.004" y1="289.313" x2="438.286" y2="441.274" gradientUnits="userSpaceOnUse">
<stop stop-color="#FF0000"/>
<stop offset="1" stop-color="#610003"/>
</linearGradient>
<linearGradient id="paint13_linear_862_12548" x1="541.935" y1="387.611" x2="375.376" y2="342.981" gradientUnits="userSpaceOnUse">
<stop stop-color="#FF8F00"/>
<stop offset="0.0143476" stop-color="#FF9001" stop-opacity="0.9857"/>
<stop offset="0.2987" stop-color="#FF9912" stop-opacity="0.7013"/>
<stop offset="0.6103" stop-color="#FF9F1C" stop-opacity="0.3897"/>
<stop offset="1" stop-color="#FFA11F" stop-opacity="0"/>
</linearGradient>
<linearGradient id="paint14_linear_862_12548" x1="375.421" y1="342.993" x2="541.98" y2="387.623" gradientUnits="userSpaceOnUse">
<stop stop-color="#FF8F00"/>
<stop offset="0.0143476" stop-color="#FF9001" stop-opacity="0.9857"/>
<stop offset="0.2987" stop-color="#FF9912" stop-opacity="0.7013"/>
<stop offset="0.6103" stop-color="#FF9F1C" stop-opacity="0.3897"/>
<stop offset="1" stop-color="#FFA11F" stop-opacity="0"/>
</linearGradient>
<linearGradient id="paint15_linear_862_12548" x1="479.004" y1="289.313" x2="438.286" y2="441.274" gradientUnits="userSpaceOnUse">
<stop stop-color="#FF0000"/>
<stop offset="1" stop-color="#610003"/>
</linearGradient>
</defs>
</svg>
