<svg width="483" height="483" viewBox="0 0 483 483" fill="none" xmlns="http://www.w3.org/2000/svg">
<path d="M241.18 482.36C374.38 482.36 482.36 374.38 482.36 241.18C482.36 107.98 374.38 0 241.18 0C107.98 0 0 107.98 0 241.18C0 374.38 107.98 482.36 241.18 482.36Z" fill="url(#paint0_radial_862_12465)"/>
<g style="mix-blend-mode:soft-light">
<path d="M241.18 482.36C374.38 482.36 482.36 374.38 482.36 241.18C482.36 107.98 374.38 0 241.18 0C107.98 0 0 107.98 0 241.18C0 374.38 107.98 482.36 241.18 482.36Z" fill="url(#paint1_radial_862_12465)"/>
</g>
<g style="mix-blend-mode:soft-light">
<path d="M241.18 482.36C374.38 482.36 482.36 374.38 482.36 241.18C482.36 107.98 374.38 0 241.18 0C107.98 0 0 107.98 0 241.18C0 374.38 107.98 482.36 241.18 482.36Z" fill="url(#paint2_radial_862_12465)"/>
</g>
<g style="mix-blend-mode:overlay">
<path d="M241.18 482.36C374.38 482.36 482.36 374.38 482.36 241.18C482.36 107.98 374.38 0 241.18 0C107.98 0 0 107.98 0 241.18C0 374.38 107.98 482.36 241.18 482.36Z" fill="url(#paint3_radial_862_12465)" fill-opacity="0.7"/>
</g>
<path d="M241.18 482.36C374.38 482.36 482.36 374.38 482.36 241.18C482.36 107.98 374.38 0 241.18 0C107.98 0 0 107.98 0 241.18C0 374.38 107.98 482.36 241.18 482.36Z" fill="url(#paint4_linear_862_12465)"/>
<mask id="mask0_862_12465" style="mask-type:alpha" maskUnits="userSpaceOnUse" x="0" y="0" width="483" height="483">
<path d="M241.18 482.36C374.38 482.36 482.36 374.38 482.36 241.18C482.36 107.98 374.38 0 241.18 0C107.98 0 0 107.98 0 241.18C0 374.38 107.98 482.36 241.18 482.36Z" fill="white"/>
</mask>
<g mask="url(#mask0_862_12465)">
<g filter="url(#filter0_f_862_12465)">
<path d="M-1.37541 234.299C-1.11353 230.872 0.0141891 230.529 0.343108 234.008C0.708543 237.874 -0.00182796 245.646 0.169198 250.335C0.622042 262.748 2.5249 273.541 4.48654 282.32C10.808 310.612 19.5622 328.843 27.7273 344.288C54.5668 395.06 83.9672 420.77 112.648 440.147C154.69 468.549 197.073 477.584 239.491 479.5C240.561 479.548 240.739 486.518 239.686 487.425C237.788 489.061 235.437 487.437 233.495 487.369C227.915 487.174 222.336 486.791 216.756 486.211C200.213 484.492 183.671 480.991 167.162 475.358C122.275 460.044 73.877 433.821 31.6097 359.962C28.9507 355.316 26.3128 350.424 23.7123 345.167C21.6325 340.963 19.573 336.556 17.5498 331.843C10.895 316.342 -4.61274 276.658 -1.37541 234.299ZM239.52 487.5C238.5 487.531 238.241 481.034 239.214 479.685C240.685 477.647 242.889 479.326 244.439 479.229C250.878 478.826 257.315 478.229 263.75 477.421C281.396 475.205 299.028 471.422 316.621 465.596C360.257 451.145 407.17 429.115 448.305 361.431C450.923 357.123 453.519 352.553 456.079 347.641C463.86 332.712 483.362 293.084 481.107 243.821C480.917 239.668 482.182 237.181 482.748 240.743C483.468 245.279 483.176 254.736 482.977 259.768C482.342 275.883 479.867 289.512 477.257 300.518C468.987 335.399 457.377 355.623 446.744 372.51C412.184 427.397 374.649 449.524 338.156 465.424C305.425 479.686 272.445 486.484 239.52 487.5Z" fill="#401C02"/>
</g>
<g filter="url(#filter1_f_862_12465)">
<path d="M-1.37541 234.299C-1.11353 230.872 0.0141891 230.529 0.343108 234.008C0.708543 237.874 -0.00182796 245.646 0.169198 250.335C0.622042 262.748 2.5249 273.541 4.48654 282.32C10.808 310.612 19.5622 328.843 27.7273 344.288C54.5668 395.06 83.9672 420.77 112.648 440.147C154.69 468.549 197.073 477.584 239.491 479.5C240.561 479.548 240.739 486.518 239.686 487.425C237.788 489.061 235.437 487.437 233.495 487.369C227.915 487.174 222.336 486.791 216.756 486.211C200.213 484.492 183.671 480.991 167.162 475.358C122.275 460.044 73.877 433.821 31.6097 359.962C28.9507 355.316 26.3128 350.424 23.7123 345.167C21.6325 340.963 19.573 336.556 17.5498 331.843C10.895 316.342 -4.61274 276.658 -1.37541 234.299ZM239.52 487.5C238.5 487.531 238.241 481.034 239.214 479.685C240.685 477.647 242.889 479.326 244.439 479.229C250.878 478.826 257.315 478.229 263.75 477.421C281.396 475.205 299.028 471.422 316.621 465.596C360.257 451.145 407.17 429.115 448.305 361.431C450.923 357.123 453.519 352.553 456.079 347.641C463.86 332.712 483.362 293.084 481.107 243.821C480.917 239.668 482.182 237.181 482.748 240.743C483.468 245.279 483.176 254.736 482.977 259.768C482.342 275.883 479.867 289.512 477.257 300.518C468.987 335.399 457.377 355.623 446.744 372.51C412.184 427.397 374.649 449.524 338.156 465.424C305.425 479.686 272.445 486.484 239.52 487.5Z" fill="#401C02"/>
</g>
</g>
<path d="M331.887 278.08C347.887 278.08 360.857 261.277 360.857 240.55C360.857 219.823 347.887 203.02 331.887 203.02C315.887 203.02 302.917 219.823 302.917 240.55C302.917 261.277 315.887 278.08 331.887 278.08Z" fill="url(#paint5_radial_862_12465)"/>
<path d="M331.887 278.08C347.887 278.08 360.857 261.277 360.857 240.55C360.857 219.823 347.887 203.02 331.887 203.02C315.887 203.02 302.917 219.823 302.917 240.55C302.917 261.277 315.887 278.08 331.887 278.08Z" stroke="url(#paint6_linear_862_12465)" stroke-width="2.17" stroke-miterlimit="10"/>
<path d="M391.987 158.95C386.147 151.15 349.337 105.37 302.307 122.54C300.825 123.044 299.561 124.04 298.724 125.363C297.887 126.686 297.528 128.255 297.707 129.81C297.987 131.72 299.107 133.59 302.057 134.49C314.847 138.38 341.717 129.79 375.827 157.43C378.827 159.84 381.557 162.5 384.267 165.19C386.217 167.12 389.457 169.62 392.057 168.12C394.277 166.83 394.257 164.49 393.807 162.66C393.454 161.315 392.835 160.053 391.987 158.95Z" fill="#42210B"/>
<path d="M151.161 278.08C135.161 278.08 122.191 261.277 122.191 240.55C122.191 219.823 135.161 203.02 151.161 203.02C167.161 203.02 180.131 219.823 180.131 240.55C180.131 261.277 167.161 278.08 151.161 278.08Z" fill="url(#paint7_radial_862_12465)"/>
<path d="M151.161 278.08C135.161 278.08 122.191 261.277 122.191 240.55C122.191 219.823 135.161 203.02 151.161 203.02C167.161 203.02 180.131 219.823 180.131 240.55C180.131 261.277 167.161 278.08 151.161 278.08Z" stroke="url(#paint8_linear_862_12465)" stroke-width="2.17" stroke-miterlimit="10"/>
<path d="M91.0607 158.95C96.9007 151.15 133.711 105.37 180.741 122.54C182.223 123.044 183.487 124.04 184.324 125.363C185.161 126.686 185.52 128.255 185.341 129.81C185.061 131.72 183.941 133.59 180.991 134.49C168.201 138.38 141.331 129.79 107.221 157.43C104.221 159.84 101.491 162.5 98.7807 165.19C96.8307 167.12 93.5906 169.62 90.9906 168.12C88.7706 166.83 88.7906 164.49 89.2406 162.66C89.5943 161.315 90.2131 160.053 91.0607 158.95Z" fill="#42210B"/>
<path d="M305.071 374.13C319.511 392.92 303.771 419.65 280.301 416.32C254.444 412.694 228.207 412.694 202.351 416.32C178.861 419.65 163.071 392.95 177.561 374.13C192.681 354.46 215.621 341.95 241.301 341.95C266.981 341.95 289.911 354.46 305.071 374.13Z" fill="url(#paint9_radial_862_12465)"/>
<path d="M305.071 374.13C319.511 392.92 303.771 419.65 280.301 416.32C254.444 412.694 228.207 412.694 202.351 416.32C178.861 419.65 163.071 392.95 177.561 374.13C192.681 354.46 215.621 341.95 241.301 341.95C266.981 341.95 289.911 354.46 305.071 374.13Z" stroke="url(#paint10_linear_862_12465)" stroke-width="1.66" stroke-miterlimit="10"/>
<defs>
<filter id="filter0_f_862_12465" x="-26.8145" y="206.558" width="535.021" height="306.595" filterUnits="userSpaceOnUse" color-interpolation-filters="sRGB">
<feFlood flood-opacity="0" result="BackgroundImageFix"/>
<feBlend mode="normal" in="SourceGraphic" in2="BackgroundImageFix" result="shape"/>
<feGaussianBlur stdDeviation="12.5" result="effect1_foregroundBlur_862_12465"/>
</filter>
<filter id="filter1_f_862_12465" x="-41.8145" y="191.558" width="565.021" height="336.595" filterUnits="userSpaceOnUse" color-interpolation-filters="sRGB">
<feFlood flood-opacity="0" result="BackgroundImageFix"/>
<feBlend mode="normal" in="SourceGraphic" in2="BackgroundImageFix" result="shape"/>
<feGaussianBlur stdDeviation="20" result="effect1_foregroundBlur_862_12465"/>
</filter>
<radialGradient id="paint0_radial_862_12465" cx="0" cy="0" r="1" gradientUnits="userSpaceOnUse" gradientTransform="translate(241 -4.53898e-06) rotate(90) scale(482)">
<stop stop-color="#FFDE43"/>
<stop offset="1" stop-color="#FFBC00"/>
</radialGradient>
<radialGradient id="paint1_radial_862_12465" cx="0" cy="0" r="1" gradientUnits="userSpaceOnUse" gradientTransform="translate(241 64.5) rotate(90) scale(417.5)">
<stop stop-color="white" stop-opacity="0.5"/>
<stop offset="0.782278"/>
</radialGradient>
<radialGradient id="paint2_radial_862_12465" cx="0" cy="0" r="1" gradientUnits="userSpaceOnUse" gradientTransform="translate(241 64.5) rotate(90) scale(417.5)">
<stop stop-color="white" stop-opacity="0.5"/>
<stop offset="0.782278"/>
</radialGradient>
<radialGradient id="paint3_radial_862_12465" cx="0" cy="0" r="1" gradientUnits="userSpaceOnUse" gradientTransform="translate(241 -52.5) rotate(90) scale(534.5 722.835)">
<stop offset="0.0922635" stop-color="white"/>
<stop offset="0.670207" stop-color="white" stop-opacity="0"/>
</radialGradient>
<linearGradient id="paint4_linear_862_12465" x1="241.18" y1="482.36" x2="241.18" y2="-0.0100055" gradientUnits="userSpaceOnUse">
<stop offset="0.395833" stop-color="#0071BC" stop-opacity="0"/>
<stop offset="0.666667" stop-color="#0063CF" stop-opacity="0.28"/>
<stop offset="0.99" stop-color="#003DFF"/>
</linearGradient>
<radialGradient id="paint5_radial_862_12465" cx="0" cy="0" r="1" gradientUnits="userSpaceOnUse" gradientTransform="translate(331.847 240.525) scale(36.9297 37.5951)">
<stop stop-color="#743C1C"/>
<stop offset="1" stop-color="#401C02"/>
</radialGradient>
<linearGradient id="paint6_linear_862_12465" x1="331.887" y1="280.192" x2="331.887" y2="200.605" gradientUnits="userSpaceOnUse">
<stop stop-color="#FFDE43"/>
<stop offset="0.22" stop-color="#FED93F"/>
<stop offset="0.51" stop-color="#FCC934"/>
<stop offset="0.82" stop-color="#F9AF21"/>
<stop offset="1" stop-color="#F79D14"/>
</linearGradient>
<radialGradient id="paint7_radial_862_12465" cx="0" cy="0" r="1" gradientUnits="userSpaceOnUse" gradientTransform="translate(151.201 240.525) rotate(180) scale(36.9297 37.5951)">
<stop stop-color="#743C1C"/>
<stop offset="1" stop-color="#401C02"/>
</radialGradient>
<linearGradient id="paint8_linear_862_12465" x1="151.161" y1="280.192" x2="151.161" y2="200.605" gradientUnits="userSpaceOnUse">
<stop stop-color="#FFDE43"/>
<stop offset="0.22" stop-color="#FED93F"/>
<stop offset="0.51" stop-color="#FCC934"/>
<stop offset="0.82" stop-color="#F9AF21"/>
<stop offset="1" stop-color="#F79D14"/>
</linearGradient>
<radialGradient id="paint9_radial_862_12465" cx="0" cy="0" r="1" gradientUnits="userSpaceOnUse" gradientTransform="translate(241.305 379.126) scale(52.313 75.4044)">
<stop stop-color="#743C1C"/>
<stop offset="1" stop-color="#401C02"/>
</radialGradient>
<linearGradient id="paint10_linear_862_12465" x1="241.305" y1="418.705" x2="241.305" y2="339.548" gradientUnits="userSpaceOnUse">
<stop offset="0.265625" stop-color="#FFDE43"/>
<stop offset="1" stop-color="#F79D14"/>
</linearGradient>
</defs>
</svg>
