<svg width="483" height="483" viewBox="0 0 483 483" fill="none" xmlns="http://www.w3.org/2000/svg">
<path d="M241.18 482.36C374.38 482.36 482.36 374.38 482.36 241.18C482.36 107.98 374.38 0 241.18 0C107.98 0 0 107.98 0 241.18C0 374.38 107.98 482.36 241.18 482.36Z" fill="url(#paint0_radial_862_12517)"/>
<g style="mix-blend-mode:soft-light">
<path d="M241.18 482.36C374.38 482.36 482.36 374.38 482.36 241.18C482.36 107.98 374.38 0 241.18 0C107.98 0 0 107.98 0 241.18C0 374.38 107.98 482.36 241.18 482.36Z" fill="url(#paint1_radial_862_12517)"/>
</g>
<g style="mix-blend-mode:soft-light">
<path d="M241.18 482.36C374.38 482.36 482.36 374.38 482.36 241.18C482.36 107.98 374.38 0 241.18 0C107.98 0 0 107.98 0 241.18C0 374.38 107.98 482.36 241.18 482.36Z" fill="url(#paint2_radial_862_12517)"/>
</g>
<g style="mix-blend-mode:overlay">
<path d="M241.18 482.36C374.38 482.36 482.36 374.38 482.36 241.18C482.36 107.98 374.38 0 241.18 0C107.98 0 0 107.98 0 241.18C0 374.38 107.98 482.36 241.18 482.36Z" fill="url(#paint3_radial_862_12517)" fill-opacity="0.7"/>
</g>
<mask id="mask0_862_12517" style="mask-type:alpha" maskUnits="userSpaceOnUse" x="0" y="0" width="483" height="483">
<path d="M241.18 482.36C374.38 482.36 482.36 374.38 482.36 241.18C482.36 107.98 374.38 0 241.18 0C107.98 0 0 107.98 0 241.18C0 374.38 107.98 482.36 241.18 482.36Z" fill="white"/>
</mask>
<g mask="url(#mask0_862_12517)">
<g filter="url(#filter0_f_862_12517)">
<path d="M-1.37541 234.299C-1.11353 230.872 0.0141891 230.529 0.343108 234.008C0.708543 237.874 -0.00182796 245.646 0.169198 250.335C0.622042 262.748 2.5249 273.541 4.48654 282.32C10.808 310.612 19.5622 328.843 27.7273 344.288C54.5668 395.06 83.9672 420.77 112.648 440.147C154.69 468.549 197.073 477.584 239.491 479.5C240.561 479.548 240.739 486.518 239.686 487.425C237.788 489.061 235.437 487.437 233.495 487.369C227.915 487.174 222.336 486.791 216.756 486.211C200.213 484.492 183.671 480.991 167.162 475.358C122.275 460.044 73.877 433.821 31.6097 359.962C28.9507 355.316 26.3128 350.424 23.7123 345.167C21.6325 340.963 19.573 336.556 17.5498 331.843C10.895 316.342 -4.61274 276.658 -1.37541 234.299ZM239.52 487.5C238.5 487.531 238.241 481.034 239.214 479.685C240.685 477.647 242.889 479.326 244.439 479.229C250.878 478.826 257.315 478.229 263.75 477.421C281.396 475.205 299.028 471.422 316.621 465.596C360.257 451.145 407.17 429.115 448.305 361.431C450.923 357.123 453.519 352.553 456.079 347.641C463.86 332.712 483.362 293.084 481.107 243.821C480.917 239.668 482.182 237.181 482.748 240.743C483.468 245.279 483.176 254.736 482.977 259.768C482.342 275.883 479.867 289.512 477.257 300.518C468.987 335.399 457.377 355.623 446.744 372.51C412.184 427.397 374.649 449.524 338.156 465.424C305.425 479.686 272.445 486.484 239.52 487.5Z" fill="#401C02"/>
</g>
<g filter="url(#filter1_f_862_12517)">
<path d="M-1.37541 234.299C-1.11353 230.872 0.0141891 230.529 0.343108 234.008C0.708543 237.874 -0.00182796 245.646 0.169198 250.335C0.622042 262.748 2.5249 273.541 4.48654 282.32C10.808 310.612 19.5622 328.843 27.7273 344.288C54.5668 395.06 83.9672 420.77 112.648 440.147C154.69 468.549 197.073 477.584 239.491 479.5C240.561 479.548 240.739 486.518 239.686 487.425C237.788 489.061 235.437 487.437 233.495 487.369C227.915 487.174 222.336 486.791 216.756 486.211C200.213 484.492 183.671 480.991 167.162 475.358C122.275 460.044 73.877 433.821 31.6097 359.962C28.9507 355.316 26.3128 350.424 23.7123 345.167C21.6325 340.963 19.573 336.556 17.5498 331.843C10.895 316.342 -4.61274 276.658 -1.37541 234.299ZM239.52 487.5C238.5 487.531 238.241 481.034 239.214 479.685C240.685 477.647 242.889 479.326 244.439 479.229C250.878 478.826 257.315 478.229 263.75 477.421C281.396 475.205 299.028 471.422 316.621 465.596C360.257 451.145 407.17 429.115 448.305 361.431C450.923 357.123 453.519 352.553 456.079 347.641C463.86 332.712 483.362 293.084 481.107 243.821C480.917 239.668 482.182 237.181 482.748 240.743C483.468 245.279 483.176 254.736 482.977 259.768C482.342 275.883 479.867 289.512 477.257 300.518C468.987 335.399 457.377 355.623 446.744 372.51C412.184 427.397 374.649 449.524 338.156 465.424C305.425 479.686 272.445 486.484 239.52 487.5Z" fill="#401C02"/>
</g>
</g>
<path d="M164.23 219.84C179.269 219.84 191.46 204.801 191.46 186.25C191.46 167.699 179.269 152.66 164.23 152.66C149.191 152.66 137 167.699 137 186.25C137 204.801 149.191 219.84 164.23 219.84Z" fill="url(#paint4_radial_862_12517)"/>
<path d="M164.23 219.84C179.269 219.84 191.46 204.801 191.46 186.25C191.46 167.699 179.269 152.66 164.23 152.66C149.191 152.66 137 167.699 137 186.25C137 204.801 149.191 219.84 164.23 219.84Z" stroke="url(#paint5_linear_862_12517)" stroke-width="2" stroke-miterlimit="10"/>
<path d="M317.61 219.84C332.649 219.84 344.84 204.801 344.84 186.25C344.84 167.699 332.649 152.66 317.61 152.66C302.571 152.66 290.38 167.699 290.38 186.25C290.38 204.801 302.571 219.84 317.61 219.84Z" fill="url(#paint6_radial_862_12517)"/>
<path d="M317.61 219.84C332.649 219.84 344.84 204.801 344.84 186.25C344.84 167.699 332.649 152.66 317.61 152.66C302.571 152.66 290.38 167.699 290.38 186.25C290.38 204.801 302.571 219.84 317.61 219.84Z" stroke="url(#paint7_linear_862_12517)" stroke-width="2" stroke-miterlimit="10"/>
<path d="M358.276 385.587L358.275 385.587C335.565 338.874 291.44 302.7 240.91 302.7C190.378 302.7 146.224 338.845 123.514 385.586L123.512 385.589C123.135 386.36 122.552 387.011 121.827 387.47C121.102 387.929 120.264 388.179 119.406 388.19L119.398 388.19H119.389C118.638 388.19 117.899 388.008 117.234 387.659C116.569 387.31 115.999 386.805 115.572 386.187C115.145 385.569 114.875 384.857 114.784 384.112C114.693 383.367 114.785 382.611 115.05 381.909C115.05 381.909 115.05 381.908 115.05 381.908L116.219 382.35C136.419 328.58 184.639 284.35 240.91 284.35C297.18 284.35 345.41 328.62 365.61 382.35L358.276 385.587ZM358.276 385.587C358.652 386.36 359.235 387.012 359.961 387.472C360.687 387.931 361.526 388.18 362.385 388.19C363.14 388.199 363.887 388.023 364.559 387.678C365.231 387.333 365.808 386.829 366.241 386.21C366.674 385.59 366.95 384.875 367.043 384.125C367.137 383.375 367.046 382.614 366.779 381.908L358.276 385.587Z" stroke="url(#paint8_linear_862_12517)" stroke-width="2.5" stroke-miterlimit="10"/>
<path d="M362.399 386.94C361.772 386.933 361.16 386.751 360.63 386.416C360.1 386.08 359.674 385.604 359.399 385.04C336.549 338.04 292.06 301.45 240.91 301.45C189.759 301.45 145.239 338.01 122.389 385.04C122.114 385.603 121.688 386.079 121.158 386.414C120.629 386.75 120.016 386.932 119.389 386.94C118.841 386.94 118.301 386.807 117.815 386.552C117.329 386.297 116.912 385.928 116.601 385.477C116.289 385.025 116.091 384.505 116.025 383.96C115.959 383.416 116.025 382.863 116.219 382.35C136.419 328.58 184.639 284.35 240.91 284.35C297.18 284.35 345.41 328.62 365.61 382.35C365.805 382.866 365.871 383.422 365.803 383.97C365.735 384.518 365.533 385.041 365.217 385.493C364.901 385.945 364.479 386.314 363.988 386.566C363.497 386.818 362.951 386.947 362.399 386.94Z" fill="url(#paint9_radial_862_12517)"/>
<defs>
<filter id="filter0_f_862_12517" x="-26.8145" y="206.558" width="535.021" height="306.595" filterUnits="userSpaceOnUse" color-interpolation-filters="sRGB">
<feFlood flood-opacity="0" result="BackgroundImageFix"/>
<feBlend mode="normal" in="SourceGraphic" in2="BackgroundImageFix" result="shape"/>
<feGaussianBlur stdDeviation="12.5" result="effect1_foregroundBlur_862_12517"/>
</filter>
<filter id="filter1_f_862_12517" x="-41.8145" y="191.558" width="565.021" height="336.595" filterUnits="userSpaceOnUse" color-interpolation-filters="sRGB">
<feFlood flood-opacity="0" result="BackgroundImageFix"/>
<feBlend mode="normal" in="SourceGraphic" in2="BackgroundImageFix" result="shape"/>
<feGaussianBlur stdDeviation="20" result="effect1_foregroundBlur_862_12517"/>
</filter>
<radialGradient id="paint0_radial_862_12517" cx="0" cy="0" r="1" gradientUnits="userSpaceOnUse" gradientTransform="translate(241 -4.53898e-06) rotate(90) scale(482)">
<stop stop-color="#FFDE43"/>
<stop offset="1" stop-color="#FFBC00"/>
</radialGradient>
<radialGradient id="paint1_radial_862_12517" cx="0" cy="0" r="1" gradientUnits="userSpaceOnUse" gradientTransform="translate(241 64.5) rotate(90) scale(417.5)">
<stop stop-color="white" stop-opacity="0.5"/>
<stop offset="0.782278"/>
</radialGradient>
<radialGradient id="paint2_radial_862_12517" cx="0" cy="0" r="1" gradientUnits="userSpaceOnUse" gradientTransform="translate(241 64.5) rotate(90) scale(417.5)">
<stop stop-color="white" stop-opacity="0.5"/>
<stop offset="0.782278"/>
</radialGradient>
<radialGradient id="paint3_radial_862_12517" cx="0" cy="0" r="1" gradientUnits="userSpaceOnUse" gradientTransform="translate(241 -52.5) rotate(90) scale(534.5 722.835)">
<stop offset="0.0922635" stop-color="white"/>
<stop offset="0.670207" stop-color="white" stop-opacity="0"/>
</radialGradient>
<radialGradient id="paint4_radial_862_12517" cx="0" cy="0" r="1" gradientUnits="userSpaceOnUse" gradientTransform="translate(164.192 186.228) scale(34.7116 33.6483)">
<stop stop-color="#743C1C"/>
<stop offset="1" stop-color="#401C02"/>
</radialGradient>
<linearGradient id="paint5_linear_862_12517" x1="164.23" y1="221.73" x2="164.23" y2="150.498" gradientUnits="userSpaceOnUse">
<stop stop-color="#FFDE43"/>
<stop offset="0.22" stop-color="#FED93F"/>
<stop offset="0.51" stop-color="#FCC934"/>
<stop offset="0.82" stop-color="#F9AF21"/>
<stop offset="1" stop-color="#F79D14"/>
</linearGradient>
<radialGradient id="paint6_radial_862_12517" cx="0" cy="0" r="1" gradientUnits="userSpaceOnUse" gradientTransform="translate(317.572 186.228) scale(34.7116 33.6483)">
<stop stop-color="#743C1C"/>
<stop offset="1" stop-color="#401C02"/>
</radialGradient>
<linearGradient id="paint7_linear_862_12517" x1="317.61" y1="221.73" x2="317.61" y2="150.498" gradientUnits="userSpaceOnUse">
<stop stop-color="#FFDE43"/>
<stop offset="0.22" stop-color="#FED93F"/>
<stop offset="0.51" stop-color="#FCC934"/>
<stop offset="0.82" stop-color="#F9AF21"/>
<stop offset="1" stop-color="#F79D14"/>
</linearGradient>
<linearGradient id="paint8_linear_862_12517" x1="240.915" y1="389.827" x2="240.915" y2="281.049" gradientUnits="userSpaceOnUse">
<stop offset="0.265625" stop-color="#FFDE43"/>
<stop offset="1" stop-color="#F79D14"/>
</linearGradient>
<radialGradient id="paint9_radial_862_12517" cx="0" cy="0" r="1" gradientUnits="userSpaceOnUse" gradientTransform="translate(240.915 335.438) scale(94.2885 103.622)">
<stop stop-color="#743C1C"/>
<stop offset="1" stop-color="#401C02"/>
</radialGradient>
</defs>
</svg>
