<svg width="483" height="483" viewBox="0 0 483 483" fill="none" xmlns="http://www.w3.org/2000/svg">
<path d="M241.18 482.36C374.38 482.36 482.36 374.38 482.36 241.18C482.36 107.98 374.38 0 241.18 0C107.98 0 0 107.98 0 241.18C0 374.38 107.98 482.36 241.18 482.36Z" fill="url(#paint0_radial_862_12585)"/>
<g style="mix-blend-mode:soft-light">
<path d="M241.18 482.36C374.38 482.36 482.36 374.38 482.36 241.18C482.36 107.98 374.38 0 241.18 0C107.98 0 0 107.98 0 241.18C0 374.38 107.98 482.36 241.18 482.36Z" fill="url(#paint1_radial_862_12585)"/>
</g>
<g style="mix-blend-mode:soft-light">
<path d="M241.18 482.36C374.38 482.36 482.36 374.38 482.36 241.18C482.36 107.98 374.38 0 241.18 0C107.98 0 0 107.98 0 241.18C0 374.38 107.98 482.36 241.18 482.36Z" fill="url(#paint2_radial_862_12585)"/>
</g>
<g style="mix-blend-mode:overlay">
<path d="M241.18 482.36C374.38 482.36 482.36 374.38 482.36 241.18C482.36 107.98 374.38 0 241.18 0C107.98 0 0 107.98 0 241.18C0 374.38 107.98 482.36 241.18 482.36Z" fill="url(#paint3_radial_862_12585)" fill-opacity="0.7"/>
</g>
<mask id="mask0_862_12585" style="mask-type:alpha" maskUnits="userSpaceOnUse" x="0" y="0" width="483" height="483">
<path d="M241.18 482.36C374.38 482.36 482.36 374.38 482.36 241.18C482.36 107.98 374.38 0 241.18 0C107.98 0 0 107.98 0 241.18C0 374.38 107.98 482.36 241.18 482.36Z" fill="white"/>
</mask>
<g mask="url(#mask0_862_12585)">
<g filter="url(#filter0_f_862_12585)">
<path d="M-1.37541 234.299C-1.11353 230.872 0.0141891 230.529 0.343108 234.008C0.708543 237.874 -0.00182796 245.646 0.169198 250.335C0.622042 262.748 2.5249 273.541 4.48654 282.32C10.808 310.612 19.5622 328.843 27.7273 344.288C54.5668 395.06 83.9672 420.77 112.648 440.147C154.69 468.549 197.073 477.584 239.491 479.5C240.561 479.548 240.739 486.518 239.686 487.425C237.788 489.061 235.437 487.437 233.495 487.369C227.915 487.174 222.336 486.791 216.756 486.211C200.213 484.492 183.671 480.991 167.162 475.358C122.275 460.044 73.877 433.821 31.6097 359.962C28.9507 355.316 26.3128 350.424 23.7123 345.167C21.6325 340.963 19.573 336.556 17.5498 331.843C10.895 316.342 -4.61274 276.658 -1.37541 234.299ZM239.52 487.5C238.5 487.531 238.241 481.034 239.214 479.685C240.685 477.647 242.889 479.326 244.439 479.229C250.878 478.826 257.315 478.229 263.75 477.421C281.396 475.205 299.028 471.422 316.621 465.596C360.257 451.145 407.17 429.115 448.305 361.431C450.923 357.123 453.519 352.553 456.079 347.641C463.86 332.712 483.362 293.084 481.107 243.821C480.917 239.668 482.182 237.181 482.748 240.743C483.468 245.279 483.176 254.736 482.977 259.768C482.342 275.883 479.867 289.512 477.257 300.518C468.987 335.399 457.377 355.623 446.744 372.51C412.184 427.397 374.649 449.524 338.156 465.424C305.425 479.686 272.445 486.484 239.52 487.5Z" fill="#401C02"/>
</g>
<g filter="url(#filter1_f_862_12585)">
<path d="M-1.37541 234.299C-1.11353 230.872 0.0141891 230.529 0.343108 234.008C0.708543 237.874 -0.00182796 245.646 0.169198 250.335C0.622042 262.748 2.5249 273.541 4.48654 282.32C10.808 310.612 19.5622 328.843 27.7273 344.288C54.5668 395.06 83.9672 420.77 112.648 440.147C154.69 468.549 197.073 477.584 239.491 479.5C240.561 479.548 240.739 486.518 239.686 487.425C237.788 489.061 235.437 487.437 233.495 487.369C227.915 487.174 222.336 486.791 216.756 486.211C200.213 484.492 183.671 480.991 167.162 475.358C122.275 460.044 73.877 433.821 31.6097 359.962C28.9507 355.316 26.3128 350.424 23.7123 345.167C21.6325 340.963 19.573 336.556 17.5498 331.843C10.895 316.342 -4.61274 276.658 -1.37541 234.299ZM239.52 487.5C238.5 487.531 238.241 481.034 239.214 479.685C240.685 477.647 242.889 479.326 244.439 479.229C250.878 478.826 257.315 478.229 263.75 477.421C281.396 475.205 299.028 471.422 316.621 465.596C360.257 451.145 407.17 429.115 448.305 361.431C450.923 357.123 453.519 352.553 456.079 347.641C463.86 332.712 483.362 293.084 481.107 243.821C480.917 239.668 482.182 237.181 482.748 240.743C483.468 245.279 483.176 254.736 482.977 259.768C482.342 275.883 479.867 289.512 477.257 300.518C468.987 335.399 457.377 355.623 446.744 372.51C412.184 427.397 374.649 449.524 338.156 465.424C305.425 479.686 272.445 486.484 239.52 487.5Z" fill="#401C02"/>
</g>
</g>
<path d="M172.97 244.06C188.97 244.06 201.94 227.257 201.94 206.53C201.94 185.803 188.97 169 172.97 169C156.97 169 144 185.803 144 206.53C144 227.257 156.97 244.06 172.97 244.06Z" fill="url(#paint4_radial_862_12585)"/>
<path d="M172.97 244.06C188.97 244.06 201.94 227.257 201.94 206.53C201.94 185.803 188.97 169 172.97 169C156.97 169 144 185.803 144 206.53C144 227.257 156.97 244.06 172.97 244.06Z" stroke="url(#paint5_linear_862_12585)" stroke-width="2.17" stroke-miterlimit="10"/>
<path d="M310.329 244.06C326.329 244.06 339.299 227.257 339.299 206.53C339.299 185.803 326.329 169 310.329 169C294.33 169 281.359 185.803 281.359 206.53C281.359 227.257 294.33 244.06 310.329 244.06Z" fill="url(#paint6_radial_862_12585)"/>
<path d="M310.329 244.06C326.329 244.06 339.299 227.257 339.299 206.53C339.299 185.803 326.329 169 310.329 169C294.33 169 281.359 185.803 281.359 206.53C281.359 227.257 294.33 244.06 310.329 244.06Z" stroke="url(#paint7_linear_862_12585)" stroke-width="2.17" stroke-miterlimit="10"/>
<path d="M339.3 295.75H143.6C119.52 295.75 100 315.27 100 339.35C100 363.43 119.52 382.95 143.6 382.95H339.3C363.38 382.95 382.9 363.43 382.9 339.35C382.9 315.27 363.38 295.75 339.3 295.75Z" stroke="url(#paint8_linear_862_12585)" stroke-width="15" stroke-miterlimit="10"/>
<path d="M339.3 295.75H143.6C119.52 295.75 100 315.27 100 339.35C100 363.43 119.52 382.95 143.6 382.95H339.3C363.38 382.95 382.9 363.43 382.9 339.35C382.9 315.27 363.38 295.75 339.3 295.75Z" stroke="url(#paint9_linear_862_12585)" stroke-width="10" stroke-miterlimit="10"/>
<mask id="mask1_862_12585" style="mask-type:alpha" maskUnits="userSpaceOnUse" x="100" y="295" width="283" height="88">
<path d="M339.3 295.75H143.6C119.52 295.75 100 315.27 100 339.35C100 363.43 119.52 382.95 143.6 382.95H339.3C363.38 382.95 382.9 363.43 382.9 339.35C382.9 315.27 363.38 295.75 339.3 295.75Z" fill="url(#paint10_linear_862_12585)"/>
</mask>
<g mask="url(#mask1_862_12585)">
<path d="M143.06 294.93H93.8701V339.35H143.06V294.93Z" fill="url(#paint11_linear_862_12585)"/>
<path d="M143.06 339.35H93.8701V383.77H143.06V339.35Z" fill="url(#paint12_linear_862_12585)"/>
<path d="M192.26 294.93H143.07V339.35H192.26V294.93Z" fill="url(#paint13_linear_862_12585)"/>
<path d="M192.26 339.35H143.07V383.77H192.26V339.35Z" fill="url(#paint14_linear_862_12585)"/>
<path d="M241.45 294.93H192.26V339.35H241.45V294.93Z" fill="url(#paint15_linear_862_12585)"/>
<path d="M241.45 339.35H192.26V383.77H241.45V339.35Z" fill="url(#paint16_linear_862_12585)"/>
<path d="M290.64 294.93H241.45V339.35H290.64V294.93Z" fill="url(#paint17_linear_862_12585)"/>
<path d="M290.64 339.35H241.45V383.77H290.64V339.35Z" fill="url(#paint18_linear_862_12585)"/>
<path d="M339.83 294.93H290.64V339.35H339.83V294.93Z" fill="url(#paint19_linear_862_12585)"/>
<path d="M339.83 339.35H290.64V383.77H339.83V339.35Z" fill="url(#paint20_linear_862_12585)"/>
<path d="M389.02 294.93H339.83V339.35H389.02V294.93Z" fill="url(#paint21_linear_862_12585)"/>
<path d="M389.02 339.35H339.83V383.77H389.02V339.35Z" fill="url(#paint22_linear_862_12585)"/>
</g>
<mask id="mask2_862_12585" style="mask-type:alpha" maskUnits="userSpaceOnUse" x="100" y="295" width="283" height="88">
<path d="M339.3 295.75H143.6C119.52 295.75 100 315.27 100 339.35C100 363.43 119.52 382.95 143.6 382.95H339.3C363.38 382.95 382.9 363.43 382.9 339.35C382.9 315.27 363.38 295.75 339.3 295.75Z" fill="url(#paint23_linear_862_12585)"/>
</mask>
<g mask="url(#mask2_862_12585)">
<path fill-rule="evenodd" clip-rule="evenodd" d="M341.83 256.2V391.17H337.83V256.2H341.83Z" fill="url(#paint24_linear_862_12585)"/>
<path fill-rule="evenodd" clip-rule="evenodd" d="M292.64 256.2V391.17H288.64V256.2H292.64Z" fill="url(#paint25_linear_862_12585)"/>
<path fill-rule="evenodd" clip-rule="evenodd" d="M243.45 256.2V391.17H239.45V256.2H243.45Z" fill="url(#paint26_linear_862_12585)"/>
<path fill-rule="evenodd" clip-rule="evenodd" d="M194.26 256.2V391.17H190.26V256.2H194.26Z" fill="url(#paint27_linear_862_12585)"/>
<path fill-rule="evenodd" clip-rule="evenodd" d="M145.07 256.2V391.17H141.07V256.2H145.07Z" fill="url(#paint28_linear_862_12585)"/>
<path fill-rule="evenodd" clip-rule="evenodd" d="M19.5898 337.35H452.35V341.35H19.5898V337.35Z" fill="url(#paint29_linear_862_12585)"/>
</g>
<mask id="mask3_862_12585" style="mask-type:alpha" maskUnits="userSpaceOnUse" x="100" y="295" width="283" height="88">
<path d="M339.3 295.75H143.6C119.52 295.75 100 315.27 100 339.35C100 363.43 119.52 382.95 143.6 382.95H339.3C363.38 382.95 382.9 363.43 382.9 339.35C382.9 315.27 363.38 295.75 339.3 295.75Z" fill="url(#paint30_linear_862_12585)"/>
</mask>
<g mask="url(#mask3_862_12585)">
<g filter="url(#filter2_f_862_12585)">
<path d="M339.3 295.75H143.6C119.52 295.75 100 315.27 100 339.35C100 363.43 119.52 382.95 143.6 382.95H339.3C363.38 382.95 382.9 363.43 382.9 339.35C382.9 315.27 363.38 295.75 339.3 295.75Z" stroke="url(#paint31_linear_862_12585)" stroke-width="3" stroke-miterlimit="10"/>
</g>
</g>
<defs>
<filter id="filter0_f_862_12585" x="-26.8145" y="206.558" width="535.021" height="306.595" filterUnits="userSpaceOnUse" color-interpolation-filters="sRGB">
<feFlood flood-opacity="0" result="BackgroundImageFix"/>
<feBlend mode="normal" in="SourceGraphic" in2="BackgroundImageFix" result="shape"/>
<feGaussianBlur stdDeviation="12.5" result="effect1_foregroundBlur_862_12585"/>
</filter>
<filter id="filter1_f_862_12585" x="-41.8145" y="191.558" width="565.021" height="336.595" filterUnits="userSpaceOnUse" color-interpolation-filters="sRGB">
<feFlood flood-opacity="0" result="BackgroundImageFix"/>
<feBlend mode="normal" in="SourceGraphic" in2="BackgroundImageFix" result="shape"/>
<feGaussianBlur stdDeviation="20" result="effect1_foregroundBlur_862_12585"/>
</filter>
<filter id="filter2_f_862_12585" x="90.5" y="286.25" width="301.9" height="106.2" filterUnits="userSpaceOnUse" color-interpolation-filters="sRGB">
<feFlood flood-opacity="0" result="BackgroundImageFix"/>
<feBlend mode="normal" in="SourceGraphic" in2="BackgroundImageFix" result="shape"/>
<feGaussianBlur stdDeviation="4" result="effect1_foregroundBlur_862_12585"/>
</filter>
<radialGradient id="paint0_radial_862_12585" cx="0" cy="0" r="1" gradientUnits="userSpaceOnUse" gradientTransform="translate(241 -4.53898e-06) rotate(90) scale(482)">
<stop stop-color="#FFDE43"/>
<stop offset="1" stop-color="#FFBC00"/>
</radialGradient>
<radialGradient id="paint1_radial_862_12585" cx="0" cy="0" r="1" gradientUnits="userSpaceOnUse" gradientTransform="translate(241 64.5) rotate(90) scale(417.5)">
<stop stop-color="white" stop-opacity="0.5"/>
<stop offset="0.782278"/>
</radialGradient>
<radialGradient id="paint2_radial_862_12585" cx="0" cy="0" r="1" gradientUnits="userSpaceOnUse" gradientTransform="translate(241 64.5) rotate(90) scale(417.5)">
<stop stop-color="white" stop-opacity="0.5"/>
<stop offset="0.782278"/>
</radialGradient>
<radialGradient id="paint3_radial_862_12585" cx="0" cy="0" r="1" gradientUnits="userSpaceOnUse" gradientTransform="translate(241 -52.5) rotate(90) scale(534.5 722.835)">
<stop offset="0.0922635" stop-color="white"/>
<stop offset="0.670207" stop-color="white" stop-opacity="0"/>
</radialGradient>
<radialGradient id="paint4_radial_862_12585" cx="0" cy="0" r="1" gradientUnits="userSpaceOnUse" gradientTransform="translate(172.93 206.505) scale(36.9297 37.5951)">
<stop stop-color="#743C1C"/>
<stop offset="1" stop-color="#401C02"/>
</radialGradient>
<linearGradient id="paint5_linear_862_12585" x1="172.97" y1="246.172" x2="172.97" y2="166.585" gradientUnits="userSpaceOnUse">
<stop stop-color="#FFDE43"/>
<stop offset="0.22" stop-color="#FED93F"/>
<stop offset="0.51" stop-color="#FCC934"/>
<stop offset="0.82" stop-color="#F9AF21"/>
<stop offset="1" stop-color="#F79D14"/>
</linearGradient>
<radialGradient id="paint6_radial_862_12585" cx="0" cy="0" r="1" gradientUnits="userSpaceOnUse" gradientTransform="translate(310.289 206.505) scale(36.9297 37.5951)">
<stop stop-color="#743C1C"/>
<stop offset="1" stop-color="#401C02"/>
</radialGradient>
<linearGradient id="paint7_linear_862_12585" x1="310.329" y1="246.172" x2="310.329" y2="166.585" gradientUnits="userSpaceOnUse">
<stop stop-color="#FFDE43"/>
<stop offset="0.22" stop-color="#FED93F"/>
<stop offset="0.51" stop-color="#FCC934"/>
<stop offset="0.82" stop-color="#F9AF21"/>
<stop offset="1" stop-color="#F79D14"/>
</linearGradient>
<linearGradient id="paint8_linear_862_12585" x1="241.45" y1="385.404" x2="241.45" y2="292.944" gradientUnits="userSpaceOnUse">
<stop offset="0.265625" stop-color="#FFDE43"/>
<stop offset="1" stop-color="#F79D14"/>
</linearGradient>
<linearGradient id="paint9_linear_862_12585" x1="368295" y1="29951.4" x2="450409" y2="29951.4" gradientUnits="userSpaceOnUse">
<stop stop-color="#401C02"/>
<stop offset="1" stop-color="#401C02"/>
</linearGradient>
<linearGradient id="paint10_linear_862_12585" x1="368295" y1="29951.4" x2="450409" y2="29951.4" gradientUnits="userSpaceOnUse">
<stop stop-color="#401C02"/>
<stop offset="1" stop-color="#401C02"/>
</linearGradient>
<linearGradient id="paint11_linear_862_12585" x1="93.8513" y1="317.148" x2="143.06" y2="317.148" gradientUnits="userSpaceOnUse">
<stop stop-color="#CCCCCC"/>
<stop offset="0.05" stop-color="#D5D5D5"/>
<stop offset="0.2" stop-color="#E9E9E9"/>
<stop offset="0.35" stop-color="#F6F6F6"/>
<stop offset="0.5" stop-color="#FAFAFA"/>
<stop offset="0.65" stop-color="#F6F6F6"/>
<stop offset="0.8" stop-color="#E9E9E9"/>
<stop offset="0.95" stop-color="#D5D5D5"/>
<stop offset="1" stop-color="#CCCCCC"/>
</linearGradient>
<linearGradient id="paint12_linear_862_12585" x1="93.8513" y1="361.568" x2="143.06" y2="361.568" gradientUnits="userSpaceOnUse">
<stop stop-color="#CCCCCC"/>
<stop offset="0.05" stop-color="#D5D5D5"/>
<stop offset="0.2" stop-color="#E9E9E9"/>
<stop offset="0.35" stop-color="#F6F6F6"/>
<stop offset="0.5" stop-color="#FAFAFA"/>
<stop offset="0.65" stop-color="#F6F6F6"/>
<stop offset="0.8" stop-color="#E9E9E9"/>
<stop offset="0.95" stop-color="#D5D5D5"/>
<stop offset="1" stop-color="#CCCCCC"/>
</linearGradient>
<linearGradient id="paint13_linear_862_12585" x1="143.051" y1="317.148" x2="192.26" y2="317.148" gradientUnits="userSpaceOnUse">
<stop stop-color="#CCCCCC"/>
<stop offset="0.05" stop-color="#D5D5D5"/>
<stop offset="0.2" stop-color="#E9E9E9"/>
<stop offset="0.35" stop-color="#F6F6F6"/>
<stop offset="0.5" stop-color="#FAFAFA"/>
<stop offset="0.65" stop-color="#F6F6F6"/>
<stop offset="0.8" stop-color="#E9E9E9"/>
<stop offset="0.95" stop-color="#D5D5D5"/>
<stop offset="1" stop-color="#CCCCCC"/>
</linearGradient>
<linearGradient id="paint14_linear_862_12585" x1="143.051" y1="361.568" x2="192.26" y2="361.568" gradientUnits="userSpaceOnUse">
<stop stop-color="#CCCCCC"/>
<stop offset="0.05" stop-color="#D5D5D5"/>
<stop offset="0.2" stop-color="#E9E9E9"/>
<stop offset="0.35" stop-color="#F6F6F6"/>
<stop offset="0.5" stop-color="#FAFAFA"/>
<stop offset="0.65" stop-color="#F6F6F6"/>
<stop offset="0.8" stop-color="#E9E9E9"/>
<stop offset="0.95" stop-color="#D5D5D5"/>
<stop offset="1" stop-color="#CCCCCC"/>
</linearGradient>
<linearGradient id="paint15_linear_862_12585" x1="192.241" y1="317.148" x2="241.45" y2="317.148" gradientUnits="userSpaceOnUse">
<stop stop-color="#CCCCCC"/>
<stop offset="0.05" stop-color="#D5D5D5"/>
<stop offset="0.2" stop-color="#E9E9E9"/>
<stop offset="0.35" stop-color="#F6F6F6"/>
<stop offset="0.5" stop-color="#FAFAFA"/>
<stop offset="0.65" stop-color="#F6F6F6"/>
<stop offset="0.8" stop-color="#E9E9E9"/>
<stop offset="0.95" stop-color="#D5D5D5"/>
<stop offset="1" stop-color="#CCCCCC"/>
</linearGradient>
<linearGradient id="paint16_linear_862_12585" x1="192.241" y1="361.568" x2="241.45" y2="361.568" gradientUnits="userSpaceOnUse">
<stop stop-color="#CCCCCC"/>
<stop offset="0.05" stop-color="#D5D5D5"/>
<stop offset="0.2" stop-color="#E9E9E9"/>
<stop offset="0.35" stop-color="#F6F6F6"/>
<stop offset="0.5" stop-color="#FAFAFA"/>
<stop offset="0.65" stop-color="#F6F6F6"/>
<stop offset="0.8" stop-color="#E9E9E9"/>
<stop offset="0.95" stop-color="#D5D5D5"/>
<stop offset="1" stop-color="#CCCCCC"/>
</linearGradient>
<linearGradient id="paint17_linear_862_12585" x1="241.431" y1="317.148" x2="290.64" y2="317.148" gradientUnits="userSpaceOnUse">
<stop stop-color="#CCCCCC"/>
<stop offset="0.05" stop-color="#D5D5D5"/>
<stop offset="0.2" stop-color="#E9E9E9"/>
<stop offset="0.35" stop-color="#F6F6F6"/>
<stop offset="0.5" stop-color="#FAFAFA"/>
<stop offset="0.65" stop-color="#F6F6F6"/>
<stop offset="0.8" stop-color="#E9E9E9"/>
<stop offset="0.95" stop-color="#D5D5D5"/>
<stop offset="1" stop-color="#CCCCCC"/>
</linearGradient>
<linearGradient id="paint18_linear_862_12585" x1="241.431" y1="361.568" x2="290.64" y2="361.568" gradientUnits="userSpaceOnUse">
<stop stop-color="#CCCCCC"/>
<stop offset="0.05" stop-color="#D5D5D5"/>
<stop offset="0.2" stop-color="#E9E9E9"/>
<stop offset="0.35" stop-color="#F6F6F6"/>
<stop offset="0.5" stop-color="#FAFAFA"/>
<stop offset="0.65" stop-color="#F6F6F6"/>
<stop offset="0.8" stop-color="#E9E9E9"/>
<stop offset="0.95" stop-color="#D5D5D5"/>
<stop offset="1" stop-color="#CCCCCC"/>
</linearGradient>
<linearGradient id="paint19_linear_862_12585" x1="290.621" y1="317.148" x2="339.83" y2="317.148" gradientUnits="userSpaceOnUse">
<stop stop-color="#CCCCCC"/>
<stop offset="0.05" stop-color="#D5D5D5"/>
<stop offset="0.2" stop-color="#E9E9E9"/>
<stop offset="0.35" stop-color="#F6F6F6"/>
<stop offset="0.5" stop-color="#FAFAFA"/>
<stop offset="0.65" stop-color="#F6F6F6"/>
<stop offset="0.8" stop-color="#E9E9E9"/>
<stop offset="0.95" stop-color="#D5D5D5"/>
<stop offset="1" stop-color="#CCCCCC"/>
</linearGradient>
<linearGradient id="paint20_linear_862_12585" x1="290.621" y1="361.568" x2="339.83" y2="361.568" gradientUnits="userSpaceOnUse">
<stop stop-color="#CCCCCC"/>
<stop offset="0.05" stop-color="#D5D5D5"/>
<stop offset="0.2" stop-color="#E9E9E9"/>
<stop offset="0.35" stop-color="#F6F6F6"/>
<stop offset="0.5" stop-color="#FAFAFA"/>
<stop offset="0.65" stop-color="#F6F6F6"/>
<stop offset="0.8" stop-color="#E9E9E9"/>
<stop offset="0.95" stop-color="#D5D5D5"/>
<stop offset="1" stop-color="#CCCCCC"/>
</linearGradient>
<linearGradient id="paint21_linear_862_12585" x1="339.811" y1="317.148" x2="389.02" y2="317.148" gradientUnits="userSpaceOnUse">
<stop stop-color="#CCCCCC"/>
<stop offset="0.05" stop-color="#D5D5D5"/>
<stop offset="0.2" stop-color="#E9E9E9"/>
<stop offset="0.35" stop-color="#F6F6F6"/>
<stop offset="0.5" stop-color="#FAFAFA"/>
<stop offset="0.65" stop-color="#F6F6F6"/>
<stop offset="0.8" stop-color="#E9E9E9"/>
<stop offset="0.95" stop-color="#D5D5D5"/>
<stop offset="1" stop-color="#CCCCCC"/>
</linearGradient>
<linearGradient id="paint22_linear_862_12585" x1="339.811" y1="361.568" x2="389.02" y2="361.568" gradientUnits="userSpaceOnUse">
<stop stop-color="#CCCCCC"/>
<stop offset="0.05" stop-color="#D5D5D5"/>
<stop offset="0.2" stop-color="#E9E9E9"/>
<stop offset="0.35" stop-color="#F6F6F6"/>
<stop offset="0.5" stop-color="#FAFAFA"/>
<stop offset="0.65" stop-color="#F6F6F6"/>
<stop offset="0.8" stop-color="#E9E9E9"/>
<stop offset="0.95" stop-color="#D5D5D5"/>
<stop offset="1" stop-color="#CCCCCC"/>
</linearGradient>
<linearGradient id="paint23_linear_862_12585" x1="368295" y1="29951.4" x2="450409" y2="29951.4" gradientUnits="userSpaceOnUse">
<stop stop-color="#401C02"/>
<stop offset="1" stop-color="#401C02"/>
</linearGradient>
<linearGradient id="paint24_linear_862_12585" x1="339.83" y1="323.685" x2="340.83" y2="323.685" gradientUnits="userSpaceOnUse">
<stop stop-color="#401C02"/>
<stop offset="1" stop-color="#401C02"/>
</linearGradient>
<linearGradient id="paint25_linear_862_12585" x1="290.64" y1="323.685" x2="291.64" y2="323.685" gradientUnits="userSpaceOnUse">
<stop stop-color="#401C02"/>
<stop offset="1" stop-color="#401C02"/>
</linearGradient>
<linearGradient id="paint26_linear_862_12585" x1="241.45" y1="323.685" x2="242.45" y2="323.685" gradientUnits="userSpaceOnUse">
<stop stop-color="#401C02"/>
<stop offset="1" stop-color="#401C02"/>
</linearGradient>
<linearGradient id="paint27_linear_862_12585" x1="192.26" y1="323.685" x2="193.26" y2="323.685" gradientUnits="userSpaceOnUse">
<stop stop-color="#401C02"/>
<stop offset="1" stop-color="#401C02"/>
</linearGradient>
<linearGradient id="paint28_linear_862_12585" x1="143.07" y1="323.685" x2="144.07" y2="323.685" gradientUnits="userSpaceOnUse">
<stop stop-color="#401C02"/>
<stop offset="1" stop-color="#401C02"/>
</linearGradient>
<linearGradient id="paint29_linear_862_12585" x1="19.5898" y1="339.85" x2="452.35" y2="339.85" gradientUnits="userSpaceOnUse">
<stop stop-color="#401C02"/>
<stop offset="1" stop-color="#401C02"/>
</linearGradient>
<linearGradient id="paint30_linear_862_12585" x1="368295" y1="29951.4" x2="450409" y2="29951.4" gradientUnits="userSpaceOnUse">
<stop stop-color="#401C02"/>
<stop offset="1" stop-color="#401C02"/>
</linearGradient>
<linearGradient id="paint31_linear_862_12585" x1="368295" y1="29951.4" x2="450409" y2="29951.4" gradientUnits="userSpaceOnUse">
<stop stop-color="#401C02"/>
<stop offset="1" stop-color="#401C02"/>
</linearGradient>
</defs>
</svg>
