<svg width="601" height="559" viewBox="0 0 601 559" fill="none" xmlns="http://www.w3.org/2000/svg">
<path d="M321.277 516.912C452.453 493.782 540.042 368.692 516.912 237.516C493.782 106.339 368.692 18.7503 237.516 41.8803C106.339 65.0102 18.7505 190.1 41.8805 321.277C65.0104 452.453 190.1 540.042 321.277 516.912Z" fill="url(#paint0_radial_862_12587)"/>
<g style="mix-blend-mode:soft-light">
<path d="M321.277 516.912C452.453 493.782 540.042 368.692 516.912 237.516C493.782 106.339 368.692 18.7503 237.516 41.8803C106.339 65.0102 18.7505 190.1 41.8805 321.277C65.0104 452.453 190.1 540.042 321.277 516.912Z" fill="url(#paint1_radial_862_12587)"/>
</g>
<g style="mix-blend-mode:soft-light">
<path d="M321.277 516.912C452.453 493.782 540.042 368.692 516.912 237.516C493.782 106.339 368.692 18.7503 237.516 41.8803C106.339 65.0102 18.7505 190.1 41.8805 321.277C65.0104 452.453 190.1 540.042 321.277 516.912Z" fill="url(#paint2_radial_862_12587)"/>
</g>
<g style="mix-blend-mode:overlay">
<path d="M321.277 516.912C452.453 493.782 540.042 368.692 516.912 237.516C493.782 106.339 368.692 18.7503 237.516 41.8803C106.339 65.0102 18.7505 190.1 41.8805 321.277C65.0104 452.453 190.1 540.042 321.277 516.912Z" fill="url(#paint3_radial_862_12587)" fill-opacity="0.7"/>
</g>
<mask id="mask0_862_12587" style="mask-type:alpha" maskUnits="userSpaceOnUse" x="38" y="38" width="483" height="483">
<path d="M321.277 516.912C452.453 493.782 540.042 368.692 516.912 237.516C493.782 106.339 368.692 18.7503 237.516 41.8803C106.339 65.0102 18.7505 190.1 41.8805 321.277C65.0104 452.453 190.1 540.042 321.277 516.912Z" fill="white"/>
</mask>
<g mask="url(#mask0_862_12587)">
<g filter="url(#filter0_f_862_12587)">
<path d="M39.3306 314.739C38.9935 311.319 40.0445 310.785 40.9726 314.154C42.0038 317.898 42.6538 325.676 43.6364 330.263C46.2379 342.409 49.9861 352.708 53.4424 361.013C64.5806 387.777 76.3675 404.211 87.0908 418.004C122.339 463.344 155.757 483.558 187.367 497.66C233.702 518.33 277.01 519.868 319.116 514.389C320.178 514.251 321.564 521.083 320.685 522.16C319.1 524.101 316.502 522.91 314.578 523.18C309.049 523.956 303.488 524.548 297.893 524.946C281.302 526.125 264.403 525.55 247.167 522.87C200.303 515.583 148.086 498.162 93.6358 432.765C90.2104 428.651 86.7632 424.292 83.2893 419.567C80.5112 415.788 77.7177 411.806 74.9068 407.515C65.6613 393.405 43.4981 357.017 39.3306 314.739ZM320.535 522.262C319.535 522.47 318.152 516.117 318.876 514.62C319.97 512.357 322.432 513.627 323.942 513.263C330.213 511.748 336.449 510.043 342.646 508.129C359.639 502.883 376.346 496.095 392.66 487.303C433.124 465.494 475.499 435.652 504.256 361.853C506.086 357.157 507.849 352.205 509.517 346.923C514.588 330.87 526.912 288.457 516.137 240.334C515.229 236.277 516.042 233.608 517.218 237.019C518.715 241.36 520.069 250.724 520.747 255.714C522.92 271.695 522.849 285.546 522.191 296.838C520.103 332.625 512.181 354.558 504.642 373.035C480.139 433.09 447.016 461.398 413.838 483.394C384.081 503.122 352.782 515.544 320.535 522.262Z" fill="#401C02"/>
</g>
<g filter="url(#filter1_f_862_12587)">
<path d="M39.3306 314.739C38.9935 311.319 40.0445 310.785 40.9726 314.154C42.0038 317.898 42.6538 325.676 43.6364 330.263C46.2379 342.409 49.9861 352.708 53.4424 361.013C64.5806 387.777 76.3675 404.211 87.0908 418.004C122.339 463.344 155.757 483.558 187.367 497.66C233.702 518.33 277.01 519.868 319.116 514.389C320.178 514.251 321.564 521.083 320.685 522.16C319.1 524.101 316.502 522.91 314.578 523.18C309.049 523.956 303.488 524.548 297.893 524.946C281.302 526.125 264.403 525.55 247.167 522.87C200.303 515.583 148.086 498.162 93.6358 432.765C90.2104 428.651 86.7632 424.292 83.2893 419.567C80.5112 415.788 77.7177 411.806 74.9068 407.515C65.6613 393.405 43.4981 357.017 39.3306 314.739ZM320.535 522.262C319.535 522.47 318.152 516.117 318.876 514.62C319.97 512.357 322.432 513.627 323.942 513.263C330.213 511.748 336.449 510.043 342.646 508.129C359.639 502.883 376.346 496.095 392.66 487.303C433.124 465.494 475.499 435.652 504.256 361.853C506.086 357.157 507.849 352.205 509.517 346.923C514.588 330.87 526.912 288.457 516.137 240.334C515.229 236.277 516.042 233.608 517.218 237.019C518.715 241.36 520.069 250.724 520.747 255.714C522.92 271.695 522.849 285.546 522.191 296.838C520.103 332.625 512.181 354.558 504.642 373.035C480.139 433.09 447.016 461.398 413.838 483.394C384.081 503.122 352.782 515.544 320.535 522.262Z" fill="#401C02"/>
</g>
</g>
<path d="M447.491 315.506C438.369 347.448 420.447 376.18 395.773 398.421C371.098 420.662 340.666 435.515 307.952 441.284C275.238 447.052 241.561 443.503 210.767 431.043C179.974 418.582 153.306 397.712 133.81 370.816C182.37 378.724 237.714 378.45 295.089 368.333C352.463 358.216 404.563 339.546 447.491 315.506Z" fill="url(#paint4_linear_862_12587)"/>
<path d="M454.268 267.215C454.264 268.231 454.251 269.249 454.236 270.318C454.222 271.387 454.201 272.192 454.162 273.123C454.194 273.301 454.154 273.48 454.144 273.655C454.119 274.603 454.072 275.546 454.025 276.488C453.978 277.431 453.921 278.203 453.858 279.056C453.827 279.57 453.795 280.083 453.744 280.6C453.733 280.825 453.714 281.062 453.693 281.289C453.655 281.824 453.601 282.321 453.559 282.887C453.593 283.084 453.53 283.298 453.505 283.505C453.438 284.235 453.364 284.969 453.284 285.707C453.192 286.739 453.066 287.695 452.947 288.691L452.958 288.75C452.838 289.685 452.72 290.63 452.581 291.568C452.288 293.651 451.966 295.738 451.654 297.824C451.483 298.87 451.286 299.829 451.095 300.817C450.903 301.805 450.762 302.5 450.586 303.344C450.321 304.609 450.016 305.871 449.748 307.116C449.559 307.942 449.359 308.769 449.168 309.585L449.136 309.692C448.941 310.488 448.735 311.275 448.539 312.061L448.208 313.298C448.005 314.044 447.801 314.791 447.586 315.53C404.658 339.569 352.559 358.24 295.184 368.356C237.809 378.473 182.466 378.748 133.905 370.84C133.451 370.219 133.004 369.587 132.558 368.955L131.824 367.907C131.361 367.237 130.898 366.567 130.452 365.884L130.386 365.795C129.917 365.095 129.447 364.386 128.996 363.674C128.289 362.6 127.6 361.513 126.919 360.415C126.465 359.683 126.021 358.948 125.576 358.214C125.132 357.48 124.539 356.478 124.028 355.594C122.971 353.749 121.963 351.947 120.967 350.041C120.515 349.206 120.081 348.359 119.649 347.521L119.639 347.462C119.18 346.528 118.734 345.672 118.302 344.773C117.969 344.115 117.649 343.45 117.341 342.78C117.247 342.593 117.163 342.405 117.079 342.217C116.853 341.739 116.63 341.281 116.406 340.762C116.309 340.555 116.21 340.339 116.123 340.131C115.898 339.663 115.693 339.192 115.488 338.72C115.137 337.939 114.794 337.147 114.453 336.364C114.112 335.581 113.72 334.625 113.371 333.742C113.342 333.575 113.234 333.421 113.173 333.249C112.818 332.388 112.481 331.513 112.144 330.638C111.807 329.763 111.412 328.736 111.053 327.733C163.252 338.482 224.399 339.388 288.135 328.15C351.872 316.911 408.893 295.169 454.268 267.215Z" fill="url(#paint5_linear_862_12587)"/>
<path d="M447.491 315.506C404.563 339.546 352.463 358.216 295.089 368.333C237.714 378.45 182.37 378.724 133.81 370.816" stroke="url(#paint6_radial_862_12587)" stroke-width="6" stroke-miterlimit="10"/>
<path d="M458.657 273.387L458.657 273.379L458.657 273.37C458.702 271.973 458.37 270.589 457.696 269.364C457.022 268.139 456.03 267.118 454.825 266.409C453.621 265.699 452.247 265.326 450.849 265.33C449.453 265.334 448.084 265.713 446.885 266.427C446.883 266.429 446.881 266.43 446.879 266.431C402.859 292.602 348.115 312.995 287.224 323.731C226.33 334.469 167.912 334.029 117.594 324.491C116.222 324.23 114.805 324.342 113.492 324.816C112.176 325.29 111.013 326.11 110.124 327.189C109.234 328.268 108.652 329.566 108.437 330.948C108.223 332.329 108.384 333.743 108.904 335.041L108.907 335.049L108.91 335.056C124.516 373.59 152.872 405.601 189.242 425.741C225.611 445.881 267.79 452.93 308.732 445.711C349.674 438.492 386.898 417.442 414.186 386.077C441.473 354.712 457.171 314.934 458.657 273.387Z" stroke="url(#paint7_linear_862_12587)" stroke-width="9" stroke-miterlimit="10"/>
<mask id="mask1_862_12587" style="mask-type:alpha" maskUnits="userSpaceOnUse" x="112" y="268" width="342" height="175">
<path d="M449.011 269.31C449.518 269.007 450.097 268.847 450.688 268.845C451.278 268.843 451.859 269.001 452.367 269.3C452.876 269.6 453.295 270.031 453.58 270.549C453.864 271.066 454.005 271.65 453.986 272.241C452.537 312.758 437.228 351.551 410.617 382.138C384.006 412.725 347.704 433.254 307.777 440.294C267.85 447.334 226.716 440.46 191.248 420.819C155.78 401.178 128.126 369.96 112.907 332.382C112.688 331.834 112.62 331.237 112.71 330.653C112.801 330.07 113.047 329.521 113.422 329.065C113.798 328.61 114.289 328.264 114.845 328.063C115.4 327.863 115.999 327.816 116.58 327.927C167.478 337.575 226.448 338.001 287.831 327.178C349.214 316.354 404.482 295.785 449.011 269.31Z" fill="url(#paint8_linear_862_12587)"/>
</mask>
<g mask="url(#mask1_862_12587)">
<g filter="url(#filter2_f_862_12587)">
<path d="M449.011 269.31C449.518 269.007 450.097 268.847 450.688 268.845C451.278 268.843 451.859 269.001 452.367 269.3C452.876 269.6 453.295 270.031 453.58 270.549C453.864 271.066 454.005 271.65 453.986 272.241C452.537 312.758 437.228 351.551 410.617 382.138C384.006 412.725 347.704 433.254 307.777 440.294C267.85 447.334 226.716 440.46 191.248 420.819C155.78 401.178 128.126 369.96 112.907 332.382C112.688 331.834 112.62 331.237 112.71 330.653C112.801 330.07 113.047 329.521 113.422 329.065C113.798 328.61 114.289 328.264 114.845 328.063C115.4 327.863 115.999 327.816 116.58 327.927C167.478 337.575 226.448 338.001 287.831 327.178C349.214 316.354 404.482 295.785 449.011 269.31Z" stroke="url(#paint9_linear_862_12587)" stroke-width="12" stroke-miterlimit="10"/>
</g>
</g>
<path d="M449.185 270.295C449.692 269.993 450.271 269.832 450.862 269.83C451.452 269.829 452.032 269.986 452.541 270.286C453.05 270.585 453.469 271.017 453.754 271.534C454.038 272.051 454.178 272.636 454.16 273.226C452.711 313.743 437.402 352.536 410.791 383.123C384.18 413.711 347.878 434.239 307.95 441.279C268.023 448.32 226.889 441.445 191.422 421.804C155.954 402.163 128.3 370.946 113.081 333.367C112.861 332.819 112.793 332.222 112.884 331.638C112.975 331.055 113.221 330.507 113.596 330.051C113.972 329.595 114.463 329.249 115.019 329.049C115.574 328.848 116.173 328.801 116.753 328.912C167.652 338.56 226.622 338.987 288.005 328.163C349.388 317.34 404.656 296.77 449.185 270.295Z" stroke="url(#paint10_linear_862_12587)" stroke-width="12" stroke-miterlimit="10"/>
<path d="M234.866 254.775C236.42 263.378 236.582 272.174 235.347 280.828C235.232 281.801 234.812 282.713 234.148 283.434C233.484 284.155 232.609 284.647 231.648 284.841C230.54 285 229.412 284.761 228.464 284.165C227.517 283.57 226.811 282.657 226.475 281.59C220.238 263.955 206.05 252.484 191.948 254.971C177.845 257.458 168.437 273.089 168.607 291.793C168.656 292.911 168.305 294.01 167.619 294.894C166.932 295.778 165.953 296.389 164.858 296.618C163.889 296.763 162.899 296.599 162.028 296.149C161.158 295.699 160.451 294.986 160.009 294.112C155.889 286.402 153.033 278.081 151.551 269.466C145.777 236.721 159.75 206.892 182.755 202.835C205.76 198.779 229.092 222.03 234.866 254.775Z" fill="url(#paint11_radial_862_12587)"/>
<path d="M234.866 254.775C236.42 263.378 236.582 272.174 235.347 280.828C235.232 281.801 234.812 282.713 234.148 283.434C233.484 284.155 232.609 284.647 231.648 284.841C230.54 285 229.412 284.761 228.464 284.165C227.517 283.57 226.811 282.657 226.475 281.59C220.238 263.955 206.05 252.484 191.948 254.971C177.845 257.458 168.437 273.089 168.607 291.793C168.656 292.911 168.305 294.01 167.619 294.894C166.932 295.778 165.953 296.389 164.858 296.618V296.618C163.889 296.763 162.899 296.599 162.028 296.149C161.158 295.699 160.451 294.986 160.009 294.112C155.889 286.402 153.033 278.081 151.551 269.466C145.777 236.721 159.75 206.892 182.755 202.835C205.76 198.779 229.092 222.03 234.866 254.775Z" stroke="url(#paint12_linear_862_12587)" stroke-width="2" stroke-miterlimit="10"/>
<path d="M396.748 226.231C398.318 234.828 398.497 243.621 397.279 252.275C397.164 253.248 396.744 254.161 396.08 254.881C395.415 255.602 394.54 256.095 393.579 256.288C392.472 256.448 391.343 256.208 390.396 255.613C389.448 255.017 388.743 254.104 388.406 253.037C382.169 235.402 367.982 223.932 353.879 226.418C339.777 228.905 330.368 244.536 330.539 263.241C330.587 264.359 330.237 265.458 329.55 266.341C328.863 267.225 327.885 267.836 326.79 268.065C325.82 268.212 324.83 268.048 323.959 267.598C323.088 267.148 322.382 266.434 321.941 265.559C317.82 257.849 314.965 249.528 313.483 240.913C307.709 208.168 321.681 178.339 344.686 174.282C367.691 170.226 390.974 193.486 396.748 226.231Z" fill="url(#paint13_radial_862_12587)"/>
<path d="M396.748 226.231C398.318 234.828 398.497 243.621 397.279 252.275C397.164 253.248 396.744 254.161 396.08 254.881C395.415 255.602 394.54 256.095 393.579 256.288C392.472 256.448 391.343 256.208 390.396 255.613C389.448 255.017 388.743 254.104 388.406 253.037C382.169 235.402 367.982 223.932 353.879 226.418C339.777 228.905 330.368 244.536 330.539 263.241C330.587 264.359 330.237 265.458 329.55 266.341C328.863 267.225 327.885 267.836 326.79 268.065V268.065C325.82 268.212 324.83 268.048 323.959 267.598C323.088 267.148 322.382 266.434 321.941 265.559C317.82 257.849 314.965 249.528 313.483 240.913C307.709 208.168 321.681 178.339 344.686 174.282C367.691 170.226 390.974 193.486 396.748 226.231Z" stroke="url(#paint14_linear_862_12587)" stroke-width="2" stroke-miterlimit="10"/>
<mask id="mask2_862_12587" style="mask-type:alpha" maskUnits="userSpaceOnUse" x="38" y="38" width="483" height="483">
<path d="M321.277 516.912C452.453 493.782 540.042 368.692 516.912 237.516C493.782 106.339 368.692 18.7503 237.516 41.8803C106.339 65.0102 18.7505 190.1 41.8805 321.277C65.0104 452.453 190.1 540.042 321.277 516.912Z" fill="url(#paint15_radial_862_12587)"/>
</mask>
<g mask="url(#mask2_862_12587)">
<g filter="url(#filter3_f_862_12587)">
<path d="M598.971 261.746C595.871 245.746 586.971 230.746 574.971 219.446C565.871 210.846 555.071 204.146 543.671 199.246C537.871 196.746 531.971 194.646 525.871 192.946C519.871 191.246 513.071 190.746 507.471 187.846C495.771 181.746 491.571 162.146 490.771 150.246C489.971 138.846 490.871 124.846 480.971 119.146C474.171 115.146 465.071 117.746 459.671 123.446C454.271 129.146 451.971 137.046 451.071 144.846C449.371 159.646 451.971 175.046 458.571 188.446C463.071 197.646 479.071 216.346 474.271 227.346C471.571 233.446 458.271 236.046 452.671 238.446C443.671 242.346 434.971 246.746 426.871 252.346C416.671 259.446 405.971 270.146 402.871 282.546C401.071 289.846 403.071 297.546 407.771 303.246C411.671 308.146 421.271 315.946 427.571 311.046C420.371 316.646 418.871 328.146 424.371 335.446C429.871 342.746 441.371 344.446 448.671 339.046C441.371 344.646 439.871 356.346 445.371 363.646C450.871 370.946 462.571 372.646 469.971 367.146C455.471 377.946 441.071 388.646 426.571 399.446C420.771 403.746 414.671 408.546 412.771 415.446C410.071 424.846 417.871 435.746 427.571 436.346C435.171 436.846 441.971 432.046 448.171 427.546C477.371 406.146 506.571 384.646 535.771 363.246C550.571 352.346 565.471 341.346 577.571 327.546C589.671 313.746 598.871 296.646 600.171 278.346C600.371 272.846 599.971 267.246 598.971 261.746Z" fill="#BF5703"/>
</g>
</g>
<path d="M598.971 261.746C595.871 245.746 586.971 230.746 574.971 219.446C565.871 210.846 555.071 204.146 543.671 199.246C537.871 196.746 531.971 194.646 525.871 192.946C519.871 191.246 513.071 190.746 507.471 187.846C495.771 181.746 491.571 162.146 490.771 150.246C489.971 138.846 490.871 124.846 480.971 119.146C474.171 115.146 465.071 117.746 459.671 123.446C454.271 129.146 451.971 137.046 451.071 144.846C449.371 159.646 451.971 175.046 458.571 188.446C463.071 197.646 479.071 216.346 474.271 227.346C471.571 233.446 458.271 236.046 452.671 238.446C443.671 242.346 434.971 246.746 426.871 252.346C416.671 259.446 405.971 270.146 402.871 282.546C401.071 289.846 403.071 297.546 407.771 303.246C411.671 308.146 421.271 315.946 427.571 311.046C420.371 316.646 418.871 328.146 424.371 335.446C429.871 342.746 441.371 344.446 448.671 339.046C441.371 344.646 439.871 356.346 445.371 363.646C450.871 370.946 462.571 372.646 469.971 367.146C455.471 377.946 441.071 388.646 426.571 399.446C420.771 403.746 414.671 408.546 412.771 415.446C410.071 424.846 417.871 435.746 427.571 436.346C435.171 436.846 441.971 432.046 448.171 427.546C477.371 406.146 506.571 384.646 535.771 363.246C550.571 352.346 565.471 341.346 577.571 327.546C589.671 313.746 598.871 296.646 600.171 278.346C600.371 272.846 599.971 267.246 598.971 261.746Z" fill="url(#paint16_linear_862_12587)"/>
<mask id="mask3_862_12587" style="mask-type:alpha" maskUnits="userSpaceOnUse" x="402" y="117" width="199" height="320">
<path d="M598.971 261.746C595.871 245.746 586.971 230.746 574.971 219.446C565.871 210.846 555.071 204.146 543.671 199.246C537.871 196.746 531.971 194.646 525.871 192.946C519.871 191.246 513.071 190.746 507.471 187.846C495.771 181.746 491.571 162.146 490.771 150.246C489.971 138.846 490.871 124.846 480.971 119.146C474.171 115.146 465.071 117.746 459.671 123.446C454.271 129.146 451.971 137.046 451.071 144.846C449.371 159.646 451.971 175.046 458.571 188.446C463.071 197.646 479.071 216.346 474.271 227.346C471.571 233.446 458.271 236.046 452.671 238.446C443.671 242.346 434.971 246.746 426.871 252.346C416.671 259.446 405.971 270.146 402.871 282.546C401.071 289.846 403.071 297.546 407.771 303.246C411.671 308.146 421.271 315.946 427.571 311.046C420.371 316.646 418.871 328.146 424.371 335.446C429.871 342.746 441.371 344.446 448.671 339.046C441.371 344.646 439.871 356.346 445.371 363.646C450.871 370.946 462.571 372.646 469.971 367.146C455.471 377.946 441.071 388.646 426.571 399.446C420.771 403.746 414.671 408.546 412.771 415.446C410.071 424.846 417.871 435.746 427.571 436.346C435.171 436.846 441.971 432.046 448.171 427.546C477.371 406.146 506.571 384.646 535.771 363.246C550.571 352.346 565.471 341.346 577.571 327.546C589.671 313.746 598.871 296.646 600.171 278.346C600.371 272.846 599.971 267.246 598.971 261.746Z" fill="white"/>
</mask>
<g mask="url(#mask3_862_12587)">
<g filter="url(#filter4_f_862_12587)">
<path d="M480.971 119.146C474.171 115.146 465.071 117.746 459.671 123.446C454.271 129.146 451.971 137.046 451.071 144.846C449.371 159.646 451.971 175.046 458.571 188.446C463.071 197.646 479.071 216.346 474.271 227.346C471.571 233.446 458.271 236.046 452.671 238.446C443.671 242.346 434.971 246.746 426.871 252.346C416.671 259.446 405.971 270.146 402.871 282.546C401.071 289.846 403.071 297.546 407.771 303.246C411.671 308.146 421.271 315.946 427.571 311.046C420.371 316.646 418.871 328.146 424.371 335.446C429.871 342.746 441.371 344.446 448.671 339.046C441.371 344.646 439.871 356.346 445.371 363.646C450.871 370.946 462.571 372.646 469.971 367.146C455.471 377.946 441.071 388.646 426.571 399.446C420.771 403.746 414.671 408.546 412.771 415.446C410.071 424.846 417.871 435.746 427.571 436.346C435.171 436.846 441.971 432.046 448.171 427.546" stroke="#FF8500" stroke-width="3" stroke-miterlimit="10"/>
</g>
</g>
<mask id="mask4_862_12587" style="mask-type:alpha" maskUnits="userSpaceOnUse" x="402" y="117" width="199" height="320">
<path d="M598.971 261.746C595.871 245.746 586.971 230.746 574.971 219.446C565.871 210.846 555.071 204.146 543.671 199.246C537.871 196.746 531.971 194.646 525.871 192.946C519.871 191.246 513.071 190.746 507.471 187.846C495.771 181.746 491.571 162.146 490.771 150.246C489.971 138.846 490.871 124.846 480.971 119.146C474.171 115.146 465.071 117.746 459.671 123.446C454.271 129.146 451.971 137.046 451.071 144.846C449.371 159.646 451.971 175.046 458.571 188.446C463.071 197.646 479.071 216.346 474.271 227.346C471.571 233.446 458.271 236.046 452.671 238.446C443.671 242.346 434.971 246.746 426.871 252.346C416.671 259.446 405.971 270.146 402.871 282.546C401.071 289.846 403.071 297.546 407.771 303.246C411.671 308.146 421.271 315.946 427.571 311.046C420.371 316.646 418.871 328.146 424.371 335.446C429.871 342.746 441.371 344.446 448.671 339.046C441.371 344.646 439.871 356.346 445.371 363.646C450.871 370.946 462.571 372.646 469.971 367.146C455.471 377.946 441.071 388.646 426.571 399.446C420.771 403.746 414.671 408.546 412.771 415.446C410.071 424.846 417.871 435.746 427.571 436.346C435.171 436.846 441.971 432.046 448.171 427.546C477.371 406.146 506.571 384.646 535.771 363.246C550.571 352.346 565.471 341.346 577.571 327.546C589.671 313.746 598.871 296.646 600.171 278.346C600.371 272.846 599.971 267.246 598.971 261.746Z" fill="white"/>
</mask>
<g mask="url(#mask4_862_12587)">
<g filter="url(#filter5_f_862_12587)">
<path d="M480.971 119.146C479.671 118.446 478.371 118.046 476.971 117.746C475.571 117.446 474.171 117.446 472.771 117.546C469.971 117.846 467.271 118.746 464.871 120.146C459.971 122.946 456.771 127.746 454.871 132.946C452.971 138.146 452.271 143.746 452.071 149.346C451.871 154.946 452.271 160.546 453.271 166.046C454.271 171.546 455.871 176.946 457.971 182.046C458.471 183.346 459.071 184.646 459.671 185.846C459.971 186.446 460.271 187.146 460.571 187.746C460.871 188.346 461.171 188.946 461.571 189.546C462.971 191.946 464.571 194.246 466.171 196.646C469.271 201.446 472.471 206.346 474.971 211.746C476.171 214.446 477.271 217.446 477.671 220.646C477.871 222.246 477.971 223.946 477.571 225.746C477.371 226.646 477.171 227.446 476.871 228.346C476.771 228.746 476.471 229.246 476.171 229.646C475.971 230.146 475.671 230.446 475.371 230.846C474.771 231.646 474.071 232.146 473.471 232.746C472.771 233.246 472.171 233.846 471.471 234.246C470.071 235.146 468.671 235.746 467.271 236.446C464.471 237.646 461.671 238.646 458.971 239.546C457.671 240.046 456.271 240.446 455.071 240.946C453.971 241.346 452.571 242.046 451.371 242.546C448.771 243.746 446.271 244.946 443.771 246.246C433.871 251.346 424.471 257.446 416.971 265.346C415.071 267.346 413.371 269.346 411.871 271.546C410.371 273.746 408.971 276.046 407.971 278.346C407.671 278.946 407.471 279.546 407.271 280.146C407.071 280.746 406.771 281.346 406.671 281.946C406.471 282.546 406.271 283.146 406.171 283.746L405.971 284.646L405.771 285.546C405.471 287.946 405.571 290.346 406.171 292.746C406.771 295.146 407.771 297.346 409.171 299.446C409.871 300.446 410.571 301.446 411.471 302.346C412.271 303.246 413.271 304.146 414.271 304.946C416.171 306.546 418.371 307.946 420.471 308.746C421.471 309.046 422.471 309.246 423.271 309.246C424.071 309.146 424.671 308.946 425.371 308.446L429.571 313.846C426.771 315.946 424.971 319.446 424.471 323.146C423.971 326.846 424.771 330.646 426.871 333.446C428.971 336.246 432.471 338.146 436.171 338.746C439.871 339.346 443.771 338.546 446.671 336.546L450.571 341.746C447.671 343.946 445.771 347.446 445.271 351.246C444.771 355.046 445.571 359.046 447.771 361.946C449.971 364.946 453.571 366.846 457.371 367.446C461.171 368.046 465.271 367.346 468.271 365.146L471.571 369.546L445.771 388.246L432.771 397.346C428.471 400.446 423.971 403.346 420.271 406.846C418.371 408.546 416.771 410.446 415.571 412.546C414.971 413.646 414.471 414.746 414.071 415.846C413.971 416.446 413.771 417.046 413.671 417.546C413.671 418.146 413.471 418.746 413.571 419.346C413.471 424.246 415.971 429.146 419.871 432.246C421.871 433.846 424.171 434.946 426.671 435.346C429.171 435.746 431.771 435.546 434.271 434.846C439.271 433.446 443.771 430.446 448.171 427.446C443.971 430.746 439.671 433.946 434.571 435.846C431.971 436.746 429.271 437.146 426.471 436.846C423.671 436.546 420.971 435.447 418.771 433.746C414.271 430.447 411.171 425.146 410.971 419.246C410.871 418.546 411.071 417.846 411.071 417.046C411.171 416.346 411.371 415.646 411.471 414.846C411.871 413.446 412.371 412.146 412.971 410.846C414.271 408.346 416.071 406.046 417.971 404.146C419.971 402.146 422.071 400.447 424.171 398.746L430.471 393.846L443.071 384.146L468.371 364.746L471.671 369.146C467.371 372.446 461.771 373.546 456.671 372.846C451.471 372.146 446.471 369.646 443.071 365.246C439.771 360.846 438.571 355.246 439.271 350.046C439.971 344.846 442.471 339.646 446.871 336.246L450.771 341.446C446.371 344.746 440.671 345.846 435.471 345.046C430.271 344.246 425.171 341.646 421.771 337.246C418.371 332.846 417.271 327.146 417.971 321.946C418.671 316.746 421.171 311.546 425.571 308.146L429.771 313.546C428.071 314.846 425.971 315.646 423.971 315.746C421.871 315.846 420.071 315.446 418.371 314.946C415.071 313.746 412.371 311.946 409.971 309.946C408.771 308.946 407.671 307.846 406.571 306.646C405.471 305.446 404.471 304.146 403.571 302.846C401.771 300.146 400.471 297.146 399.671 293.946C398.871 290.746 398.671 287.446 399.171 284.146L399.371 282.946L399.671 281.746C399.871 280.946 400.071 280.246 400.371 279.446C400.571 278.646 400.871 277.946 401.171 277.246C401.471 276.546 401.771 275.846 402.071 275.046C404.671 269.346 408.371 264.446 412.471 260.146C416.571 255.846 421.171 252.046 426.071 248.746C430.971 245.446 436.071 242.646 441.271 240.046C443.871 238.746 446.471 237.546 449.171 236.346C450.471 235.746 451.771 235.146 453.271 234.646C454.671 234.146 456.071 233.746 457.471 233.246C460.171 232.346 462.771 231.546 465.271 230.546C466.471 230.046 467.671 229.446 468.671 228.846C469.271 228.546 469.671 228.146 470.171 227.846C470.571 227.446 470.971 227.146 471.271 226.746C471.471 226.546 471.571 226.346 471.671 226.246C471.771 226.046 471.871 225.946 471.971 225.646C472.171 225.146 472.371 224.646 472.471 224.146C472.671 223.146 472.671 221.946 472.571 220.746C472.371 218.346 471.471 215.746 470.471 213.346C468.371 208.346 465.471 203.546 462.471 198.746C460.971 196.346 459.471 193.946 457.971 191.346C457.571 190.646 457.271 190.046 456.971 189.346C456.671 188.646 456.371 188.046 456.071 187.346C455.471 186.046 454.971 184.646 454.371 183.246C452.371 177.746 450.871 172.046 450.071 166.246C449.271 160.446 449.071 154.646 449.571 148.846C450.071 143.046 451.071 137.246 453.271 131.846C453.871 130.446 454.471 129.146 455.271 127.946C455.971 126.646 456.871 125.446 457.771 124.346C459.671 122.046 461.971 120.146 464.571 118.846C467.171 117.546 470.071 116.746 472.971 116.646C474.471 116.646 475.871 116.746 477.271 117.146C478.471 117.846 479.771 118.446 480.971 119.146Z" fill="#FF4200"/>
</g>
</g>
<mask id="mask5_862_12587" style="mask-type:alpha" maskUnits="userSpaceOnUse" x="402" y="117" width="199" height="320">
<path d="M598.971 261.746C595.871 245.746 586.971 230.746 574.971 219.446C565.871 210.846 555.071 204.146 543.671 199.246C537.871 196.746 531.971 194.646 525.871 192.946C519.871 191.246 513.071 190.746 507.471 187.846C495.771 181.746 491.571 162.146 490.771 150.246C489.971 138.846 490.871 124.846 480.971 119.146C474.171 115.146 465.071 117.746 459.671 123.446C454.271 129.146 451.971 137.046 451.071 144.846C449.371 159.646 451.971 175.046 458.571 188.446C463.071 197.646 479.071 216.346 474.271 227.346C471.571 233.446 458.271 236.046 452.671 238.446C443.671 242.346 434.971 246.746 426.871 252.346C416.671 259.446 405.971 270.146 402.871 282.546C401.071 289.846 403.071 297.546 407.771 303.246C411.671 308.146 421.271 315.946 427.571 311.046C420.371 316.646 418.871 328.146 424.371 335.446C429.871 342.746 441.371 344.446 448.671 339.046C441.371 344.646 439.871 356.346 445.371 363.646C450.871 370.946 462.571 372.646 469.971 367.146C455.471 377.946 441.071 388.646 426.571 399.446C420.771 403.746 414.671 408.546 412.771 415.446C410.071 424.846 417.871 435.746 427.571 436.346C435.171 436.846 441.971 432.046 448.171 427.546C477.371 406.146 506.571 384.646 535.771 363.246C550.571 352.346 565.471 341.346 577.571 327.546C589.671 313.746 598.871 296.646 600.171 278.346C600.371 272.846 599.971 267.246 598.971 261.746Z" fill="white"/>
</mask>
<g mask="url(#mask5_862_12587)">
<g filter="url(#filter6_f_862_12587)">
<path d="M402.871 282.646C401.971 286.346 402.171 290.146 403.171 293.746C404.171 297.346 405.971 300.746 408.371 303.546C410.871 306.346 413.771 308.746 417.071 310.446C418.671 311.246 420.471 311.946 422.271 312.046C424.071 312.246 425.871 311.746 427.171 310.646L427.871 311.546C424.471 314.246 422.371 318.446 421.871 322.746C421.371 327.046 422.371 331.646 424.971 335.046C427.571 338.446 431.671 340.546 435.971 341.246C440.271 341.846 444.771 340.946 448.171 338.446L449.271 339.846C445.871 342.446 443.771 346.646 443.171 350.946C442.571 355.246 443.571 359.746 446.171 363.146C448.771 366.546 452.871 368.746 457.171 369.346C461.471 369.946 465.971 369.046 469.371 366.546L470.571 368.146L444.971 387.046L432.171 396.546C427.971 399.746 423.471 402.646 419.671 406.246C417.771 408.046 416.071 410.046 414.871 412.246C414.271 413.346 413.771 414.546 413.371 415.746C413.271 416.346 413.071 416.946 412.971 417.646C412.971 418.246 412.771 418.946 412.871 419.546C412.871 424.646 415.571 429.646 419.571 432.846C421.571 434.446 424.071 435.546 426.571 435.946C429.171 436.346 431.771 436.046 434.271 435.346C439.371 433.846 443.771 430.746 448.071 427.746C443.871 430.946 439.471 434.146 434.371 435.846C431.871 436.646 429.071 437.046 426.371 436.746C423.671 436.446 421.071 435.346 418.871 433.646C414.571 430.346 411.671 425.146 411.471 419.646C411.371 418.946 411.571 418.246 411.571 417.546C411.671 416.846 411.871 416.146 411.971 415.546C412.371 414.246 412.871 412.946 413.471 411.746C414.771 409.346 416.471 407.246 418.471 405.346C420.371 403.446 422.471 401.746 424.571 400.146L430.971 395.346L443.771 385.546L469.271 366.446L470.471 368.046C466.571 370.946 461.471 371.946 456.771 371.246C452.071 370.546 447.471 368.146 444.571 364.246C441.671 360.346 440.571 355.346 441.271 350.646C441.871 345.946 444.271 341.346 448.071 338.446L449.171 339.846C445.271 342.646 440.271 343.646 435.671 342.946C431.071 342.246 426.571 339.846 423.671 336.046C420.771 332.246 419.871 327.246 420.471 322.646C421.071 318.046 423.371 313.546 427.171 310.746L427.871 311.646C426.271 312.946 424.171 313.446 422.171 313.246C420.171 313.046 418.371 312.346 416.671 311.446C413.271 309.546 410.371 307.046 407.971 304.146C405.571 301.146 403.771 297.746 402.871 294.046C401.871 290.146 401.871 286.246 402.871 282.646Z" fill="#FFF761"/>
</g>
</g>
<mask id="mask6_862_12587" style="mask-type:alpha" maskUnits="userSpaceOnUse" x="402" y="117" width="199" height="320">
<path d="M598.971 261.746C595.871 245.746 586.971 230.746 574.971 219.446C565.871 210.846 555.071 204.146 543.671 199.246C537.871 196.746 531.971 194.646 525.871 192.946C519.871 191.246 513.071 190.746 507.471 187.846C495.771 181.746 491.571 162.146 490.771 150.246C489.971 138.846 490.871 124.846 480.971 119.146C474.171 115.146 465.071 117.746 459.671 123.446C454.271 129.146 451.971 137.046 451.071 144.846C449.371 159.646 451.971 175.046 458.571 188.446C463.071 197.646 479.071 216.346 474.271 227.346C471.571 233.446 458.271 236.046 452.671 238.446C443.671 242.346 434.971 246.746 426.871 252.346C416.671 259.446 405.971 270.146 402.871 282.546C401.071 289.846 403.071 297.546 407.771 303.246C411.671 308.146 421.271 315.946 427.571 311.046C420.371 316.646 418.871 328.146 424.371 335.446C429.871 342.746 441.371 344.446 448.671 339.046C441.371 344.646 439.871 356.346 445.371 363.646C450.871 370.946 462.571 372.646 469.971 367.146C455.471 377.946 441.071 388.646 426.571 399.446C420.771 403.746 414.671 408.546 412.771 415.446C410.071 424.846 417.871 435.746 427.571 436.346C435.171 436.846 441.971 432.046 448.171 427.546C477.371 406.146 506.571 384.646 535.771 363.246C550.571 352.346 565.471 341.346 577.571 327.546C589.671 313.746 598.871 296.646 600.171 278.346C600.371 272.846 599.971 267.246 598.971 261.746Z" fill="white"/>
</mask>
<g mask="url(#mask6_862_12587)">
<g filter="url(#filter7_f_862_12587)">
<path d="M574.971 219.447C562.171 208.847 547.171 201.447 531.571 196.747C529.571 196.147 527.671 195.647 525.671 195.047C523.771 194.547 521.771 194.147 519.771 193.747C515.771 192.947 511.471 192.247 507.271 190.347L506.471 189.947L505.671 189.547L504.171 188.647C503.671 188.347 503.271 187.947 502.771 187.547C502.371 187.147 501.871 186.847 501.471 186.447C500.671 185.647 499.771 184.847 499.171 183.947L498.171 182.547L497.271 181.147C494.871 177.447 493.171 173.347 491.771 169.247C490.471 165.147 489.671 160.947 489.071 156.747C488.771 154.647 488.571 152.547 488.371 150.347C488.271 148.247 488.171 146.147 488.071 144.047C487.871 139.947 487.771 135.847 486.971 132.047C486.571 130.147 485.971 128.347 485.171 126.647C484.771 125.747 484.271 125.047 483.871 124.247C483.271 123.547 482.771 122.847 482.071 122.247C479.471 119.747 475.771 118.647 471.971 118.947C468.171 119.247 464.471 120.847 461.471 123.347C458.471 125.847 456.171 129.347 454.571 133.047C452.871 136.747 451.871 140.747 451.071 144.847C451.271 140.747 451.871 136.547 453.271 132.547C454.571 128.547 456.771 124.647 459.871 121.547C463.071 118.447 467.171 116.347 471.671 115.747C473.871 115.447 476.271 115.547 478.571 116.147C479.671 116.447 480.771 116.847 481.871 117.447C482.371 117.747 482.871 118.047 483.371 118.347C483.471 118.547 483.771 118.647 483.971 118.847L484.671 119.447C485.571 120.147 486.371 121.047 487.071 121.947C487.771 122.947 488.471 123.847 488.971 124.847C490.071 126.847 490.771 129.047 491.271 131.147C492.271 135.447 492.571 139.747 492.871 143.847L493.271 150.047C493.471 152.047 493.671 154.047 493.971 156.047C494.571 160.047 495.471 163.947 496.671 167.747C497.871 171.547 499.371 175.247 501.471 178.447C503.571 181.647 506.171 184.447 509.471 185.947C512.871 187.647 516.771 188.447 520.871 189.347C522.871 189.847 524.971 190.247 527.071 190.947C529.071 191.547 531.071 192.247 533.071 192.947C540.971 195.747 548.671 199.347 555.871 203.647C562.671 208.147 569.271 213.347 574.971 219.447Z" fill="#FFFCBD"/>
</g>
</g>
<mask id="mask7_862_12587" style="mask-type:alpha" maskUnits="userSpaceOnUse" x="402" y="117" width="199" height="320">
<path d="M598.971 261.746C595.871 245.746 586.971 230.746 574.971 219.446C565.871 210.846 555.071 204.146 543.671 199.246C537.871 196.746 531.971 194.646 525.871 192.946C519.871 191.246 513.071 190.746 507.471 187.846C495.771 181.746 491.571 162.146 490.771 150.246C489.971 138.846 490.871 124.846 480.971 119.146C474.171 115.146 465.071 117.746 459.671 123.446C454.271 129.146 451.971 137.046 451.071 144.846C449.371 159.646 451.971 175.046 458.571 188.446C463.071 197.646 479.071 216.346 474.271 227.346C471.571 233.446 458.271 236.046 452.671 238.446C443.671 242.346 434.971 246.746 426.871 252.346C416.671 259.446 405.971 270.146 402.871 282.546C401.071 289.846 403.071 297.546 407.771 303.246C411.671 308.146 421.271 315.946 427.571 311.046C420.371 316.646 418.871 328.146 424.371 335.446C429.871 342.746 441.371 344.446 448.671 339.046C441.371 344.646 439.871 356.346 445.371 363.646C450.871 370.946 462.571 372.646 469.971 367.146C455.471 377.946 441.071 388.646 426.571 399.446C420.771 403.746 414.671 408.546 412.771 415.446C410.071 424.846 417.871 435.746 427.571 436.346C435.171 436.846 441.971 432.046 448.171 427.546C477.371 406.146 506.571 384.646 535.771 363.246C550.571 352.346 565.471 341.346 577.571 327.546C589.671 313.746 598.871 296.646 600.171 278.346C600.371 272.846 599.971 267.246 598.971 261.746Z" fill="white"/>
</mask>
<g mask="url(#mask7_862_12587)">
<mask id="mask8_862_12587" style="mask-type:alpha" maskUnits="userSpaceOnUse" x="402" y="117" width="199" height="320">
<path d="M598.971 261.746C595.871 245.746 586.971 230.746 574.971 219.446C565.871 210.846 555.071 204.146 543.671 199.246C537.871 196.746 531.971 194.646 525.871 192.946C519.871 191.246 513.071 190.746 507.471 187.846C495.771 181.746 491.571 162.146 490.771 150.246C489.971 138.846 490.871 124.846 480.971 119.146C474.171 115.146 465.071 117.746 459.671 123.446C454.271 129.146 451.971 137.046 451.071 144.846C449.371 159.646 451.971 175.046 458.571 188.446C463.071 197.646 479.071 216.346 474.271 227.346C471.571 233.446 458.271 236.046 452.671 238.446C443.671 242.346 434.971 246.746 426.871 252.346C416.671 259.446 405.971 270.146 402.871 282.546C401.071 289.846 403.071 297.546 407.771 303.246C411.671 308.146 421.271 315.946 427.571 311.046C420.371 316.646 418.871 328.146 424.371 335.446C429.871 342.746 441.371 344.446 448.671 339.046C441.371 344.646 439.871 356.346 445.371 363.646C450.871 370.946 462.571 372.646 469.971 367.146C455.471 377.946 441.071 388.646 426.571 399.446C420.771 403.746 414.671 408.546 412.771 415.446C410.071 424.846 417.871 435.746 427.571 436.346C435.171 436.846 441.971 432.046 448.171 427.546C477.371 406.146 506.571 384.646 535.771 363.246C550.571 352.346 565.471 341.346 577.571 327.546C589.671 313.746 598.871 296.646 600.171 278.346C600.371 272.846 599.971 267.246 598.971 261.746Z" fill="#ED5700"/>
</mask>
<g mask="url(#mask8_862_12587)">
<g filter="url(#filter8_f_862_12587)">
<path d="M474.271 227.347C474.071 227.947 473.971 228.547 473.571 229.147C473.371 229.447 473.271 229.747 473.071 229.947L472.471 230.747C472.071 231.247 471.571 231.647 471.171 232.147C470.671 232.547 470.171 232.947 469.671 233.447C467.671 235.047 465.371 236.247 463.171 237.447C460.971 238.547 458.671 239.547 456.571 240.547C456.071 240.747 455.571 241.047 455.071 241.247C454.571 241.547 454.171 241.747 453.671 242.047L450.571 243.747C442.271 248.347 434.271 253.047 426.971 258.547C425.171 259.947 423.371 261.347 421.671 262.847C419.971 264.347 418.371 265.847 416.771 267.447C413.671 270.647 410.871 274.147 408.671 277.847C407.571 279.747 406.671 281.747 405.871 283.747C405.171 285.647 404.671 287.747 404.671 289.947C404.371 294.347 405.471 298.947 407.671 303.347C403.871 300.247 400.971 295.647 399.771 290.447C399.171 287.847 399.071 285.047 399.471 282.247C399.571 281.547 399.671 280.947 399.871 280.247C399.971 279.547 400.171 278.947 400.371 278.347C400.571 277.747 400.671 277.047 400.971 276.447L401.671 274.547C403.571 269.647 406.471 265.147 409.771 261.147C413.071 257.147 416.871 253.747 420.871 250.647C428.971 244.447 438.071 240.047 447.271 236.647C448.371 236.247 449.571 235.847 450.771 235.447C451.271 235.247 452.071 235.047 452.671 234.847C453.271 234.647 453.971 234.547 454.571 234.347C456.971 233.747 459.371 233.347 461.671 232.847C463.971 232.347 466.271 231.847 468.471 231.047C468.971 230.847 469.571 230.647 470.071 230.447C470.571 230.147 471.171 229.947 471.571 229.647C472.571 229.047 473.471 228.347 474.271 227.347Z" fill="#FFFB69"/>
</g>
</g>
<path d="M598.971 261.746C595.871 245.746 586.971 230.746 574.971 219.446C565.871 210.846 555.071 204.146 543.671 199.246C537.871 196.746 531.971 194.646 525.871 192.946C519.871 191.246 513.071 190.746 507.471 187.846C495.771 181.746 491.571 162.146 490.771 150.246C489.971 138.846 490.871 124.846 480.971 119.146C474.171 115.146 465.071 117.746 459.671 123.446C454.271 129.146 451.971 137.046 451.071 144.846C449.371 159.646 451.971 175.046 458.571 188.446C463.071 197.646 479.071 216.346 474.271 227.346C471.571 233.446 458.271 236.046 452.671 238.446C443.671 242.346 434.971 246.746 426.871 252.346C416.671 259.446 405.971 270.146 402.871 282.546C401.071 289.846 403.071 297.546 407.771 303.246C411.671 308.146 421.271 315.946 427.571 311.046C420.371 316.646 418.871 328.146 424.371 335.446C429.871 342.746 441.371 344.446 448.671 339.046C441.371 344.646 439.871 356.346 445.371 363.646C450.871 370.946 462.571 372.646 469.971 367.146C455.471 377.946 441.071 388.646 426.571 399.446C420.771 403.746 414.671 408.546 412.771 415.446C410.071 424.846 417.871 435.746 427.571 436.346C435.171 436.846 441.971 432.046 448.171 427.546C477.371 406.146 506.571 384.646 535.771 363.246C550.571 352.346 565.471 341.346 577.571 327.546C589.671 313.746 598.871 296.646 600.171 278.346C600.371 272.846 599.971 267.246 598.971 261.746Z" fill="url(#paint17_linear_862_12587)"/>
</g>
<mask id="mask9_862_12587" style="mask-type:alpha" maskUnits="userSpaceOnUse" x="402" y="117" width="199" height="320">
<path d="M598.971 261.746C595.871 245.746 586.971 230.746 574.971 219.446C565.871 210.846 555.071 204.146 543.671 199.246C537.871 196.746 531.971 194.646 525.871 192.946C519.871 191.246 513.071 190.746 507.471 187.846C495.771 181.746 491.571 162.146 490.771 150.246C489.971 138.846 490.871 124.846 480.971 119.146C474.171 115.146 465.071 117.746 459.671 123.446C454.271 129.146 451.971 137.046 451.071 144.846C449.371 159.646 451.971 175.046 458.571 188.446C463.071 197.646 479.071 216.346 474.271 227.346C471.571 233.446 458.271 236.046 452.671 238.446C443.671 242.346 434.971 246.746 426.871 252.346C416.671 259.446 405.971 270.146 402.871 282.546C401.071 289.846 403.071 297.546 407.771 303.246C411.671 308.146 421.271 315.946 427.571 311.046C420.371 316.646 418.871 328.146 424.371 335.446C429.871 342.746 441.371 344.446 448.671 339.046C441.371 344.646 439.871 356.346 445.371 363.646C450.871 370.946 462.571 372.646 469.971 367.146C455.471 377.946 441.071 388.646 426.571 399.446C420.771 403.746 414.671 408.546 412.771 415.446C410.071 424.846 417.871 435.746 427.571 436.346C435.171 436.846 441.971 432.046 448.171 427.546C477.371 406.146 506.571 384.646 535.771 363.246C550.571 352.346 565.471 341.346 577.571 327.546C589.671 313.746 598.871 296.646 600.171 278.346C600.371 272.846 599.971 267.246 598.971 261.746Z" fill="white"/>
</mask>
<g mask="url(#mask9_862_12587)">
<g filter="url(#filter9_f_862_12587)">
<path d="M412.671 415.547C412.071 418.447 412.371 421.547 413.471 424.247C414.571 426.947 416.271 429.347 418.371 431.247C420.471 433.147 423.071 434.347 425.771 434.847C428.471 435.247 431.271 434.847 433.871 433.947C439.171 432.047 443.671 428.347 448.471 424.647C453.171 420.947 457.971 417.347 462.671 413.647C472.171 406.347 481.771 399.147 491.271 391.947L520.071 370.547C529.771 363.447 539.471 356.547 548.971 349.347C553.671 345.747 558.371 342.047 562.771 338.247C564.971 336.347 567.171 334.347 569.271 332.247C571.371 330.247 573.471 328.147 575.471 325.947C579.371 321.647 583.071 317.047 586.271 312.147C589.471 307.247 592.271 302.147 594.471 296.647C598.971 285.847 600.571 273.747 598.971 261.847C602.071 273.447 601.471 286.147 597.671 297.747C595.771 303.547 593.171 309.147 590.171 314.447C587.171 319.747 583.471 324.747 579.571 329.447C571.771 338.847 562.471 346.947 553.071 354.447C548.371 358.247 543.471 361.747 538.671 365.347L524.271 376.047L495.171 397.147C485.371 404.047 475.671 411.147 465.871 417.947C460.971 421.347 456.071 424.847 451.171 428.247C448.671 429.947 446.171 431.647 443.571 433.247C440.871 434.847 438.071 436.247 434.971 437.147C431.871 437.947 428.571 438.247 425.271 437.447C422.071 436.647 419.271 434.847 417.071 432.547C414.971 430.247 413.371 427.447 412.471 424.447C411.671 421.547 411.671 418.347 412.671 415.547Z" fill="#FF4324"/>
</g>
</g>
<defs>
<filter id="filter0_f_862_12587" x="14.2661" y="210.459" width="533.331" height="340.069" filterUnits="userSpaceOnUse" color-interpolation-filters="sRGB">
<feFlood flood-opacity="0" result="BackgroundImageFix"/>
<feBlend mode="normal" in="SourceGraphic" in2="BackgroundImageFix" result="shape"/>
<feGaussianBlur stdDeviation="12.5" result="effect1_foregroundBlur_862_12587"/>
</filter>
<filter id="filter1_f_862_12587" x="-0.733887" y="195.459" width="563.331" height="370.069" filterUnits="userSpaceOnUse" color-interpolation-filters="sRGB">
<feFlood flood-opacity="0" result="BackgroundImageFix"/>
<feBlend mode="normal" in="SourceGraphic" in2="BackgroundImageFix" result="shape"/>
<feGaussianBlur stdDeviation="20" result="effect1_foregroundBlur_862_12587"/>
</filter>
<filter id="filter2_f_862_12587" x="96.6714" y="252.845" width="373.316" height="206.14" filterUnits="userSpaceOnUse" color-interpolation-filters="sRGB">
<feFlood flood-opacity="0" result="BackgroundImageFix"/>
<feBlend mode="normal" in="SourceGraphic" in2="BackgroundImageFix" result="shape"/>
<feGaussianBlur stdDeviation="5" result="effect1_foregroundBlur_862_12587"/>
</filter>
<filter id="filter3_f_862_12587" x="362.216" y="77.2168" width="278.005" height="399.166" filterUnits="userSpaceOnUse" color-interpolation-filters="sRGB">
<feFlood flood-opacity="0" result="BackgroundImageFix"/>
<feBlend mode="normal" in="SourceGraphic" in2="BackgroundImageFix" result="shape"/>
<feGaussianBlur stdDeviation="20" result="effect1_foregroundBlur_862_12587"/>
</filter>
<filter id="filter4_f_862_12587" x="388.716" y="103.712" width="105.016" height="346.17" filterUnits="userSpaceOnUse" color-interpolation-filters="sRGB">
<feFlood flood-opacity="0" result="BackgroundImageFix"/>
<feBlend mode="normal" in="SourceGraphic" in2="BackgroundImageFix" result="shape"/>
<feGaussianBlur stdDeviation="6" result="effect1_foregroundBlur_862_12587"/>
</filter>
<filter id="filter5_f_862_12587" x="378.898" y="96.6465" width="122.073" height="360.299" filterUnits="userSpaceOnUse" color-interpolation-filters="sRGB">
<feFlood flood-opacity="0" result="BackgroundImageFix"/>
<feBlend mode="normal" in="SourceGraphic" in2="BackgroundImageFix" result="shape"/>
<feGaussianBlur stdDeviation="10" result="effect1_foregroundBlur_862_12587"/>
</filter>
<filter id="filter6_f_862_12587" x="392.121" y="272.646" width="88.4502" height="174.199" filterUnits="userSpaceOnUse" color-interpolation-filters="sRGB">
<feFlood flood-opacity="0" result="BackgroundImageFix"/>
<feBlend mode="normal" in="SourceGraphic" in2="BackgroundImageFix" result="shape"/>
<feGaussianBlur stdDeviation="5" result="effect1_foregroundBlur_862_12587"/>
</filter>
<filter id="filter7_f_862_12587" x="445.071" y="109.583" width="135.9" height="115.864" filterUnits="userSpaceOnUse" color-interpolation-filters="sRGB">
<feFlood flood-opacity="0" result="BackgroundImageFix"/>
<feBlend mode="normal" in="SourceGraphic" in2="BackgroundImageFix" result="shape"/>
<feGaussianBlur stdDeviation="3" result="effect1_foregroundBlur_862_12587"/>
</filter>
<filter id="filter8_f_862_12587" x="387.231" y="215.347" width="99.04" height="100" filterUnits="userSpaceOnUse" color-interpolation-filters="sRGB">
<feFlood flood-opacity="0" result="BackgroundImageFix"/>
<feBlend mode="normal" in="SourceGraphic" in2="BackgroundImageFix" result="shape"/>
<feGaussianBlur stdDeviation="6" result="effect1_foregroundBlur_862_12587"/>
</filter>
<filter id="filter9_f_862_12587" x="391.894" y="241.847" width="229.063" height="216.07" filterUnits="userSpaceOnUse" color-interpolation-filters="sRGB">
<feFlood flood-opacity="0" result="BackgroundImageFix"/>
<feBlend mode="normal" in="SourceGraphic" in2="BackgroundImageFix" result="shape"/>
<feGaussianBlur stdDeviation="10" result="effect1_foregroundBlur_862_12587"/>
</filter>
<radialGradient id="paint0_radial_862_12587" cx="0" cy="0" r="1" gradientUnits="userSpaceOnUse" gradientTransform="translate(237.339 41.9115) rotate(80) scale(482)">
<stop stop-color="#FFDE43"/>
<stop offset="1" stop-color="#FFBC00"/>
</radialGradient>
<radialGradient id="paint1_radial_862_12587" cx="0" cy="0" r="1" gradientUnits="userSpaceOnUse" gradientTransform="translate(248.539 105.432) rotate(80) scale(417.5)">
<stop stop-color="white" stop-opacity="0.5"/>
<stop offset="0.782278"/>
</radialGradient>
<radialGradient id="paint2_radial_862_12587" cx="0" cy="0" r="1" gradientUnits="userSpaceOnUse" gradientTransform="translate(248.539 105.432) rotate(80) scale(417.5)">
<stop stop-color="white" stop-opacity="0.5"/>
<stop offset="0.782278"/>
</radialGradient>
<radialGradient id="paint3_radial_862_12587" cx="0" cy="0" r="1" gradientUnits="userSpaceOnUse" gradientTransform="translate(228.222 -9.79087) rotate(80) scale(534.5 722.835)">
<stop offset="0.0922635" stop-color="white"/>
<stop offset="0.670207" stop-color="white" stop-opacity="0"/>
</radialGradient>
<linearGradient id="paint4_linear_862_12587" x1="142.343" y1="419.917" x2="456.145" y2="364.585" gradientUnits="userSpaceOnUse">
<stop stop-color="#CCCCCC"/>
<stop offset="0.05" stop-color="#D5D5D5"/>
<stop offset="0.2" stop-color="#E9E9E9"/>
<stop offset="0.35" stop-color="#F6F6F6"/>
<stop offset="0.5" stop-color="#FAFAFA"/>
<stop offset="0.65" stop-color="#F6F6F6"/>
<stop offset="0.8" stop-color="#E9E9E9"/>
<stop offset="0.95" stop-color="#D5D5D5"/>
<stop offset="1" stop-color="#CCCCCC"/>
</linearGradient>
<linearGradient id="paint5_linear_862_12587" x1="117.173" y1="363.213" x2="460.52" y2="302.672" gradientUnits="userSpaceOnUse">
<stop stop-color="#CCCCCC"/>
<stop offset="0.05" stop-color="#D5D5D5"/>
<stop offset="0.2" stop-color="#E9E9E9"/>
<stop offset="0.35" stop-color="#F6F6F6"/>
<stop offset="0.5" stop-color="#FAFAFA"/>
<stop offset="0.65" stop-color="#F6F6F6"/>
<stop offset="0.8" stop-color="#E9E9E9"/>
<stop offset="0.95" stop-color="#D5D5D5"/>
<stop offset="1" stop-color="#CCCCCC"/>
</linearGradient>
<radialGradient id="paint6_radial_862_12587" cx="0" cy="0" r="1" gradientUnits="userSpaceOnUse" gradientTransform="translate(292.883 355.826) rotate(-10) scale(113.86 113.86)">
<stop stop-color="#401C02"/>
<stop offset="1" stop-color="#401C02"/>
</radialGradient>
<linearGradient id="paint7_linear_862_12587" x1="308.654" y1="445.272" x2="282.127" y2="294.826" gradientUnits="userSpaceOnUse">
<stop offset="0.265625" stop-color="#FFDE43"/>
<stop offset="1" stop-color="#F79D14"/>
</linearGradient>
<linearGradient id="paint8_linear_862_12587" x1="187544" y1="61081.9" x2="183639" y2="38934.7" gradientUnits="userSpaceOnUse">
<stop stop-color="#401C02"/>
<stop offset="1" stop-color="#401C02"/>
</linearGradient>
<linearGradient id="paint9_linear_862_12587" x1="187544" y1="61081.9" x2="183639" y2="38934.7" gradientUnits="userSpaceOnUse">
<stop stop-color="#401C02"/>
<stop offset="1" stop-color="#401C02"/>
</linearGradient>
<linearGradient id="paint10_linear_862_12587" x1="187544" y1="61082.9" x2="183639" y2="38935.7" gradientUnits="userSpaceOnUse">
<stop stop-color="#401C02"/>
<stop offset="1" stop-color="#401C02"/>
</linearGradient>
<radialGradient id="paint11_radial_862_12587" cx="0" cy="0" r="1" gradientUnits="userSpaceOnUse" gradientTransform="translate(190.441 246.763) rotate(-10) scale(53.9231 44.7024)">
<stop stop-color="#743C1C"/>
<stop offset="1" stop-color="#401C02"/>
</radialGradient>
<linearGradient id="paint12_linear_862_12587" x1="198.689" y1="293.202" x2="182.256" y2="200.007" gradientUnits="userSpaceOnUse">
<stop stop-color="#FFDE43"/>
<stop offset="0.22" stop-color="#FED93F"/>
<stop offset="0.51" stop-color="#FCC934"/>
<stop offset="0.82" stop-color="#F9AF21"/>
<stop offset="1" stop-color="#F79D14"/>
</linearGradient>
<radialGradient id="paint13_radial_862_12587" cx="0" cy="0" r="1" gradientUnits="userSpaceOnUse" gradientTransform="translate(352.348 218.215) rotate(-10) scale(53.8917 44.7024)">
<stop stop-color="#743C1C"/>
<stop offset="1" stop-color="#401C02"/>
</radialGradient>
<linearGradient id="paint14_linear_862_12587" x1="360.596" y1="264.654" x2="344.163" y2="171.458" gradientUnits="userSpaceOnUse">
<stop stop-color="#FFDE43"/>
<stop offset="0.22" stop-color="#FED93F"/>
<stop offset="0.51" stop-color="#FCC934"/>
<stop offset="0.82" stop-color="#F9AF21"/>
<stop offset="1" stop-color="#F79D14"/>
</linearGradient>
<radialGradient id="paint15_radial_862_12587" cx="0" cy="0" r="1" gradientUnits="userSpaceOnUse" gradientTransform="translate(237.339 41.9115) rotate(80) scale(482)">
<stop stop-color="#FFDE43"/>
<stop offset="1" stop-color="#FFBC00"/>
</radialGradient>
<linearGradient id="paint16_linear_862_12587" x1="365.057" y1="379.281" x2="553.449" y2="190.89" gradientUnits="userSpaceOnUse">
<stop offset="0.0825904" stop-color="#E88B00"/>
<stop offset="0.1269" stop-color="#EA9206"/>
<stop offset="0.3512" stop-color="#F3B320"/>
<stop offset="0.5663" stop-color="#FACB34"/>
<stop offset="0.7664" stop-color="#FED93F"/>
<stop offset="0.9366" stop-color="#FFDE43"/>
</linearGradient>
<linearGradient id="paint17_linear_862_12587" x1="624.893" y1="276.842" x2="352.203" y2="276.842" gradientUnits="userSpaceOnUse">
<stop stop-color="#ED5700"/>
<stop offset="0.0354845" stop-color="#EE5F03" stop-opacity="0.9573"/>
<stop offset="0.2673" stop-color="#F58F15" stop-opacity="0.6785"/>
<stop offset="0.4717" stop-color="#FBB223" stop-opacity="0.4326"/>
<stop offset="0.6389" stop-color="#FEC72B" stop-opacity="0.2314"/>
<stop offset="0.7481" stop-color="#FFCF2E" stop-opacity="0.1"/>
</linearGradient>
</defs>
</svg>
