<svg width="483" height="483" viewBox="0 0 483 483" fill="none" xmlns="http://www.w3.org/2000/svg">
<path d="M241.18 482.36C374.38 482.36 482.36 374.38 482.36 241.18C482.36 107.98 374.38 0 241.18 0C107.98 0 0 107.98 0 241.18C0 374.38 107.98 482.36 241.18 482.36Z" fill="url(#paint0_radial_862_12495)"/>
<g style="mix-blend-mode:soft-light">
<path d="M241.18 482.36C374.38 482.36 482.36 374.38 482.36 241.18C482.36 107.98 374.38 0 241.18 0C107.98 0 0 107.98 0 241.18C0 374.38 107.98 482.36 241.18 482.36Z" fill="url(#paint1_radial_862_12495)"/>
</g>
<g style="mix-blend-mode:soft-light">
<path d="M241.18 482.36C374.38 482.36 482.36 374.38 482.36 241.18C482.36 107.98 374.38 0 241.18 0C107.98 0 0 107.98 0 241.18C0 374.38 107.98 482.36 241.18 482.36Z" fill="url(#paint2_radial_862_12495)"/>
</g>
<g style="mix-blend-mode:overlay">
<path d="M241.18 482.36C374.38 482.36 482.36 374.38 482.36 241.18C482.36 107.98 374.38 0 241.18 0C107.98 0 0 107.98 0 241.18C0 374.38 107.98 482.36 241.18 482.36Z" fill="url(#paint3_radial_862_12495)" fill-opacity="0.7"/>
</g>
<mask id="mask0_862_12495" style="mask-type:alpha" maskUnits="userSpaceOnUse" x="0" y="0" width="483" height="483">
<path d="M241.18 482.36C374.38 482.36 482.36 374.38 482.36 241.18C482.36 107.98 374.38 0 241.18 0C107.98 0 0 107.98 0 241.18C0 374.38 107.98 482.36 241.18 482.36Z" fill="white"/>
</mask>
<g mask="url(#mask0_862_12495)">
<g filter="url(#filter0_f_862_12495)">
<path d="M-1.3759 234.299C-1.11402 230.872 0.0137008 230.529 0.342619 234.009C0.708055 237.875 -0.00231624 245.647 0.16871 250.335C0.621554 262.748 2.52441 273.542 4.48605 282.321C10.8075 310.613 19.5617 328.843 27.7268 344.289C54.5663 395.061 83.9667 420.771 112.648 440.147C154.689 468.55 197.072 477.584 239.49 479.5C240.56 479.549 240.738 486.518 239.686 487.425C237.788 489.062 235.436 487.438 233.494 487.37C227.915 487.174 222.335 486.791 216.756 486.211C200.213 484.492 183.67 480.991 167.162 475.359C122.275 460.044 73.8765 433.821 31.6092 359.962C28.9502 355.316 26.3124 350.424 23.7118 345.168C21.6321 340.964 19.5726 336.557 17.5493 331.844C10.8946 316.342 -4.61323 276.659 -1.3759 234.299ZM239.52 487.5C238.499 487.532 238.241 481.035 239.214 479.686C240.684 477.647 242.888 479.326 244.439 479.229C250.877 478.827 257.314 478.23 263.75 477.422C281.395 475.206 299.028 471.423 316.621 465.596C360.257 451.146 407.17 429.116 448.305 361.431C450.923 357.124 453.518 352.554 456.079 347.641C463.86 332.713 483.361 293.085 481.107 243.821C480.917 239.669 482.181 237.181 482.747 240.744C483.467 245.28 483.175 254.736 482.977 259.768C482.341 275.884 479.866 289.512 477.257 300.518C468.987 335.399 457.376 355.623 446.744 372.51C412.184 427.397 374.648 449.524 338.155 465.425C305.424 479.686 272.444 486.484 239.52 487.5Z" fill="#401C02"/>
</g>
<g filter="url(#filter1_f_862_12495)">
<path d="M-1.3759 234.299C-1.11402 230.872 0.0137008 230.529 0.342619 234.009C0.708055 237.875 -0.00231624 245.647 0.16871 250.335C0.621554 262.748 2.52441 273.542 4.48605 282.321C10.8075 310.613 19.5617 328.843 27.7268 344.289C54.5663 395.061 83.9667 420.771 112.648 440.147C154.689 468.55 197.072 477.584 239.49 479.5C240.56 479.549 240.738 486.518 239.686 487.425C237.788 489.062 235.436 487.438 233.494 487.37C227.915 487.174 222.335 486.791 216.756 486.211C200.213 484.492 183.67 480.991 167.162 475.359C122.275 460.044 73.8765 433.821 31.6092 359.962C28.9502 355.316 26.3124 350.424 23.7118 345.168C21.6321 340.964 19.5726 336.557 17.5493 331.844C10.8946 316.342 -4.61323 276.659 -1.3759 234.299ZM239.52 487.5C238.499 487.532 238.241 481.035 239.214 479.686C240.684 477.647 242.888 479.326 244.439 479.229C250.877 478.827 257.314 478.23 263.75 477.422C281.395 475.206 299.028 471.423 316.621 465.596C360.257 451.146 407.17 429.116 448.305 361.431C450.923 357.124 453.518 352.554 456.079 347.641C463.86 332.713 483.361 293.085 481.107 243.821C480.917 239.669 482.181 237.181 482.747 240.744C483.467 245.28 483.175 254.736 482.977 259.768C482.341 275.884 479.866 289.512 477.257 300.518C468.987 335.399 457.376 355.623 446.744 372.51C412.184 427.397 374.648 449.524 338.155 465.425C305.424 479.686 272.444 486.484 239.52 487.5Z" fill="#401C02"/>
</g>
</g>
<path d="M171.1 240.04C185.515 240.04 197.2 207.348 197.2 167.02C197.2 126.692 185.515 94 171.1 94C156.685 94 145 126.692 145 167.02C145 207.348 156.685 240.04 171.1 240.04Z" fill="url(#paint4_radial_862_12495)"/>
<path d="M171.1 240.04C185.515 240.04 197.2 207.348 197.2 167.02C197.2 126.692 185.515 94 171.1 94C156.685 94 145 126.692 145 167.02C145 207.348 156.685 240.04 171.1 240.04Z" stroke="url(#paint5_linear_862_12495)" stroke-width="2" stroke-miterlimit="10"/>
<path d="M311.7 240.04C326.114 240.04 337.8 207.348 337.8 167.02C337.8 126.692 326.114 94 311.7 94C297.285 94 285.6 126.692 285.6 167.02C285.6 207.348 297.285 240.04 311.7 240.04Z" fill="url(#paint6_radial_862_12495)"/>
<path d="M311.7 240.04C326.114 240.04 337.8 207.348 337.8 167.02C337.8 126.692 326.114 94 311.7 94C297.285 94 285.6 126.692 285.6 167.02C285.6 207.348 297.285 240.04 311.7 240.04Z" stroke="url(#paint7_linear_862_12495)" stroke-width="2" stroke-miterlimit="10"/>
<path d="M400.45 305.931C385.92 335.803 363.281 360.987 335.119 378.605C306.958 396.224 274.409 405.567 241.19 405.567C207.971 405.567 175.422 396.224 147.26 378.605C119.098 360.987 96.4597 335.803 81.9297 305.931C128.38 322.151 182.93 331.491 241.19 331.491C299.45 331.491 354 322.151 400.45 305.931Z" fill="url(#paint8_radial_862_12495)"/>
<path d="M415.51 259.551C415.33 260.551 415.14 261.551 414.94 262.601C414.74 263.651 414.58 264.441 414.38 265.351C414.38 265.531 414.31 265.701 414.27 265.871C414.08 266.801 413.87 267.721 413.66 268.641C413.45 269.561 413.26 270.311 413.05 271.141C412.93 271.641 412.81 272.141 412.67 272.641C412.62 272.861 412.56 273.091 412.5 273.311C412.37 273.831 412.23 274.311 412.09 274.861C412.09 275.061 411.99 275.261 411.93 275.461C411.737 276.167 411.537 276.877 411.33 277.591C411.06 278.591 410.77 279.511 410.48 280.471V280.531C410.2 281.431 409.92 282.341 409.62 283.241C408.97 285.241 408.29 287.241 407.62 289.241C407.27 290.241 406.91 291.151 406.55 292.091C406.19 293.031 405.93 293.691 405.61 294.491C405.13 295.691 404.61 296.881 404.13 298.061C403.8 298.841 403.46 299.621 403.13 300.391L403.08 300.491C402.75 301.241 402.41 301.981 402.08 302.721L401.54 303.881C401.21 304.581 400.88 305.281 400.54 305.971C354.09 322.191 299.54 331.531 241.28 331.531C183.02 331.531 128.47 322.191 82.02 305.971C81.68 305.281 81.35 304.581 81.02 303.881L80.48 302.721C80.14 301.981 79.8 301.241 79.48 300.491L79.43 300.391C79.09 299.621 78.75 298.841 78.43 298.061C77.92 296.881 77.43 295.691 76.95 294.491C76.63 293.691 76.32 292.891 76.01 292.091C75.7 291.291 75.29 290.201 74.94 289.241C74.22 287.241 73.54 285.291 72.89 283.241C72.59 282.341 72.31 281.431 72.03 280.531V280.471C71.74 279.471 71.45 278.551 71.18 277.591C70.9667 276.884 70.7667 276.174 70.58 275.461C70.52 275.261 70.47 275.061 70.42 274.861C70.28 274.351 70.14 273.861 70.01 273.311C69.95 273.091 69.89 272.861 69.84 272.641C69.7 272.141 69.58 271.641 69.46 271.141C69.25 270.311 69.05 269.471 68.85 268.641C68.65 267.811 68.43 266.801 68.24 265.871C68.24 265.701 68.16 265.531 68.13 265.351C67.93 264.441 67.75 263.521 67.57 262.601C67.39 261.681 67.18 260.601 67 259.551C116.54 279.201 176.6 290.711 241.32 290.711C306.04 290.711 365.97 279.201 415.51 259.551Z" fill="url(#paint9_linear_862_12495)"/>
<path d="M400.45 305.931C354 322.151 299.45 331.491 241.19 331.491C182.93 331.491 128.38 322.151 81.9297 305.931" stroke="url(#paint10_radial_862_12495)" stroke-width="6" stroke-miterlimit="10"/>
<mask id="mask1_862_12495" style="mask-type:alpha" maskUnits="userSpaceOnUse" x="67" y="260" width="348" height="145">
<path d="M409.969 260.701C410.521 260.491 411.119 260.434 411.701 260.535C412.283 260.636 412.827 260.891 413.276 261.275C413.725 261.658 414.063 262.156 414.253 262.715C414.444 263.274 414.48 263.873 414.359 264.451C405.897 304.101 384.084 339.647 352.566 365.148C321.048 390.65 281.732 404.563 241.189 404.563C200.646 404.563 161.331 390.65 129.813 365.148C98.2941 339.647 76.4815 304.101 68.0192 264.451C67.898 263.873 67.9347 263.274 68.1253 262.715C68.3158 262.156 68.6533 261.658 69.1023 261.275C69.5514 260.891 70.0953 260.636 70.6772 260.535C71.259 260.434 71.8573 260.491 72.4092 260.701C120.859 279.041 178.859 289.701 241.189 289.701C303.519 289.701 361.519 279.041 409.969 260.701Z" fill="url(#paint11_linear_862_12495)"/>
</mask>
<g mask="url(#mask1_862_12495)">
<g filter="url(#filter2_f_862_12495)">
<path d="M409.969 260.701C410.521 260.491 411.119 260.434 411.701 260.535C412.283 260.636 412.827 260.891 413.276 261.275C413.725 261.658 414.063 262.156 414.253 262.715C414.444 263.274 414.48 263.873 414.359 264.451C405.897 304.101 384.084 339.647 352.566 365.148C321.047 390.65 281.732 404.563 241.189 404.563C200.646 404.563 161.331 390.65 129.813 365.148C98.2941 339.647 76.4815 304.101 68.0192 264.451C67.898 263.873 67.9347 263.274 68.1253 262.715C68.3158 262.156 68.6533 261.658 69.1023 261.275C69.5514 260.891 70.0953 260.636 70.6772 260.535C71.259 260.434 71.8573 260.491 72.4092 260.701C120.859 279.041 178.859 289.701 241.189 289.701C303.519 289.701 361.519 279.041 409.969 260.701Z" stroke="url(#paint12_linear_862_12495)" stroke-width="12" stroke-miterlimit="10"/>
</g>
</g>
<path d="M419.006 266.434L419.005 266.443C410.315 307.157 387.918 343.655 355.554 369.841C323.19 396.027 282.82 410.313 241.189 410.313C199.559 410.313 159.189 396.027 126.825 369.841C94.4609 343.655 72.0631 307.157 63.3738 266.443L63.372 266.434L63.3703 266.426C63.0742 265.014 63.1637 263.547 63.6294 262.182M419.006 266.434L63.6294 262.182M419.006 266.434L419.008 266.426M419.006 266.434L419.008 266.426M63.6294 262.182C64.0951 260.816 64.9199 259.6 66.0172 258.663C67.1145 257.726 68.4439 257.101 69.8657 256.855C71.2859 256.608 72.7462 256.748 74.0938 257.26M63.6294 262.182L74.0938 257.26M419.008 266.426C419.304 265.014 419.215 263.548 418.749 262.182C418.283 260.816 417.458 259.6 416.361 258.663C415.264 257.726 413.935 257.101 412.513 256.855C411.091 256.608 409.629 256.749 408.28 257.262C360.415 275.379 302.993 285.951 241.189 285.951C179.384 285.951 121.96 275.379 74.0938 257.26M419.008 266.426L74.0938 257.26" stroke="url(#paint13_linear_862_12495)" stroke-width="9.5" stroke-miterlimit="10"/>
<path d="M409.969 261.701C410.521 261.491 411.119 261.434 411.701 261.535C412.283 261.636 412.827 261.891 413.276 262.275C413.725 262.658 414.063 263.156 414.253 263.715C414.444 264.274 414.48 264.873 414.359 265.451C405.897 305.101 384.084 340.647 352.566 366.148C321.047 391.65 281.732 405.563 241.189 405.563C200.646 405.563 161.331 391.65 129.813 366.148C98.2941 340.647 76.4815 305.101 68.0192 265.451C67.898 264.873 67.9347 264.274 68.1253 263.715C68.3158 263.156 68.6533 262.658 69.1023 262.275C69.5514 261.891 70.0953 261.636 70.6772 261.535C71.259 261.434 71.8573 261.491 72.4092 261.701C120.859 280.041 178.859 290.701 241.189 290.701C303.519 290.701 361.519 280.041 409.969 261.701Z" stroke="url(#paint14_linear_862_12495)" stroke-width="12" stroke-miterlimit="10"/>
<defs>
<filter id="filter0_f_862_12495" x="-26.8149" y="206.559" width="535.022" height="306.595" filterUnits="userSpaceOnUse" color-interpolation-filters="sRGB">
<feFlood flood-opacity="0" result="BackgroundImageFix"/>
<feBlend mode="normal" in="SourceGraphic" in2="BackgroundImageFix" result="shape"/>
<feGaussianBlur stdDeviation="12.5" result="effect1_foregroundBlur_862_12495"/>
</filter>
<filter id="filter1_f_862_12495" x="-41.8149" y="191.559" width="565.022" height="336.595" filterUnits="userSpaceOnUse" color-interpolation-filters="sRGB">
<feFlood flood-opacity="0" result="BackgroundImageFix"/>
<feBlend mode="normal" in="SourceGraphic" in2="BackgroundImageFix" result="shape"/>
<feGaussianBlur stdDeviation="20" result="effect1_foregroundBlur_862_12495"/>
</filter>
<filter id="filter2_f_862_12495" x="51.9492" y="244.486" width="378.48" height="176.076" filterUnits="userSpaceOnUse" color-interpolation-filters="sRGB">
<feFlood flood-opacity="0" result="BackgroundImageFix"/>
<feBlend mode="normal" in="SourceGraphic" in2="BackgroundImageFix" result="shape"/>
<feGaussianBlur stdDeviation="5" result="effect1_foregroundBlur_862_12495"/>
</filter>
<radialGradient id="paint0_radial_862_12495" cx="0" cy="0" r="1" gradientUnits="userSpaceOnUse" gradientTransform="translate(241 -4.53898e-06) rotate(90) scale(482)">
<stop stop-color="#FFDE43"/>
<stop offset="1" stop-color="#FFBC00"/>
</radialGradient>
<radialGradient id="paint1_radial_862_12495" cx="0" cy="0" r="1" gradientUnits="userSpaceOnUse" gradientTransform="translate(241 64.5) rotate(90) scale(417.5)">
<stop stop-color="white" stop-opacity="0.5"/>
<stop offset="0.782278"/>
</radialGradient>
<radialGradient id="paint2_radial_862_12495" cx="0" cy="0" r="1" gradientUnits="userSpaceOnUse" gradientTransform="translate(241 64.5) rotate(90) scale(417.5)">
<stop stop-color="white" stop-opacity="0.5"/>
<stop offset="0.782278"/>
</radialGradient>
<radialGradient id="paint3_radial_862_12495" cx="0" cy="0" r="1" gradientUnits="userSpaceOnUse" gradientTransform="translate(241 -52.5) rotate(90) scale(534.5 722.835)">
<stop offset="0.0922635" stop-color="white"/>
<stop offset="0.670207" stop-color="white" stop-opacity="0"/>
</radialGradient>
<radialGradient id="paint4_radial_862_12495" cx="0" cy="0" r="1" gradientUnits="userSpaceOnUse" gradientTransform="translate(171.064 166.971) scale(33.2712 73.1467)">
<stop stop-color="#743C1C"/>
<stop offset="1" stop-color="#401C02"/>
</radialGradient>
<linearGradient id="paint5_linear_862_12495" x1="171.1" y1="244.149" x2="171.1" y2="89.3006" gradientUnits="userSpaceOnUse">
<stop stop-color="#FFDE43"/>
<stop offset="0.22" stop-color="#FED93F"/>
<stop offset="0.51" stop-color="#FCC934"/>
<stop offset="0.82" stop-color="#F9AF21"/>
<stop offset="1" stop-color="#F79D14"/>
</linearGradient>
<radialGradient id="paint6_radial_862_12495" cx="0" cy="0" r="1" gradientUnits="userSpaceOnUse" gradientTransform="translate(311.663 166.971) scale(33.2712 73.1467)">
<stop stop-color="#743C1C"/>
<stop offset="1" stop-color="#401C02"/>
</radialGradient>
<linearGradient id="paint7_linear_862_12495" x1="311.7" y1="244.149" x2="311.7" y2="89.3006" gradientUnits="userSpaceOnUse">
<stop stop-color="#FFDE43"/>
<stop offset="0.22" stop-color="#FED93F"/>
<stop offset="0.51" stop-color="#FCC934"/>
<stop offset="0.82" stop-color="#F9AF21"/>
<stop offset="1" stop-color="#F79D14"/>
</linearGradient>
<radialGradient id="paint8_radial_862_12495" cx="0" cy="0" r="1" gradientUnits="userSpaceOnUse" gradientTransform="translate(241.19 355.547) scale(120.213 100.638)">
<stop stop-color="#743C1C"/>
<stop offset="1" stop-color="#401C02"/>
</radialGradient>
<linearGradient id="paint9_linear_862_12495" x1="66.8664" y1="295.554" x2="415.51" y2="295.554" gradientUnits="userSpaceOnUse">
<stop stop-color="#CCCCCC"/>
<stop offset="0.05" stop-color="#D5D5D5"/>
<stop offset="0.2" stop-color="#E9E9E9"/>
<stop offset="0.35" stop-color="#F6F6F6"/>
<stop offset="0.5" stop-color="#FAFAFA"/>
<stop offset="0.65" stop-color="#F6F6F6"/>
<stop offset="0.8" stop-color="#E9E9E9"/>
<stop offset="0.95" stop-color="#D5D5D5"/>
<stop offset="1" stop-color="#CCCCCC"/>
</linearGradient>
<radialGradient id="paint10_radial_862_12495" cx="0" cy="0" r="1" gradientUnits="userSpaceOnUse" gradientTransform="translate(241.19 318.791) scale(113.86 113.86)">
<stop stop-color="#401C02"/>
<stop offset="1" stop-color="#401C02"/>
</radialGradient>
<linearGradient id="paint11_linear_862_12495" x1="174103" y1="92638.1" x2="174103" y2="70149.2" gradientUnits="userSpaceOnUse">
<stop stop-color="#401C02"/>
<stop offset="1" stop-color="#401C02"/>
</linearGradient>
<linearGradient id="paint12_linear_862_12495" x1="174103" y1="92638.1" x2="174103" y2="70149.2" gradientUnits="userSpaceOnUse">
<stop stop-color="#401C02"/>
<stop offset="1" stop-color="#401C02"/>
</linearGradient>
<linearGradient id="paint13_linear_862_12495" x1="241.189" y1="409.617" x2="241.189" y2="256.85" gradientUnits="userSpaceOnUse">
<stop offset="0.265625" stop-color="#FFDE43"/>
<stop offset="1" stop-color="#F79D14"/>
</linearGradient>
<linearGradient id="paint14_linear_862_12495" x1="174103" y1="92639.1" x2="174103" y2="70150.2" gradientUnits="userSpaceOnUse">
<stop stop-color="#401C02"/>
<stop offset="1" stop-color="#401C02"/>
</linearGradient>
</defs>
</svg>
