<svg width="483" height="483" viewBox="0 0 483 483" fill="none" xmlns="http://www.w3.org/2000/svg">
<path d="M241.18 482.36C374.38 482.36 482.36 374.38 482.36 241.18C482.36 107.98 374.38 0 241.18 0C107.98 0 0 107.98 0 241.18C0 374.38 107.98 482.36 241.18 482.36Z" fill="url(#paint0_radial_862_12550)"/>
<g style="mix-blend-mode:soft-light">
<path d="M241.18 482.36C374.38 482.36 482.36 374.38 482.36 241.18C482.36 107.98 374.38 0 241.18 0C107.98 0 0 107.98 0 241.18C0 374.38 107.98 482.36 241.18 482.36Z" fill="url(#paint1_radial_862_12550)"/>
</g>
<g style="mix-blend-mode:soft-light">
<path d="M241.18 482.36C374.38 482.36 482.36 374.38 482.36 241.18C482.36 107.98 374.38 0 241.18 0C107.98 0 0 107.98 0 241.18C0 374.38 107.98 482.36 241.18 482.36Z" fill="url(#paint2_radial_862_12550)"/>
</g>
<g style="mix-blend-mode:overlay">
<path d="M241.18 482.36C374.38 482.36 482.36 374.38 482.36 241.18C482.36 107.98 374.38 0 241.18 0C107.98 0 0 107.98 0 241.18C0 374.38 107.98 482.36 241.18 482.36Z" fill="url(#paint3_radial_862_12550)" fill-opacity="0.7"/>
</g>
<mask id="mask0_862_12550" style="mask-type:alpha" maskUnits="userSpaceOnUse" x="0" y="0" width="483" height="483">
<path d="M241.18 482.36C374.38 482.36 482.36 374.38 482.36 241.18C482.36 107.98 374.38 0 241.18 0C107.98 0 0 107.98 0 241.18C0 374.38 107.98 482.36 241.18 482.36Z" fill="white"/>
</mask>
<g mask="url(#mask0_862_12550)">
<g filter="url(#filter0_f_862_12550)">
<path d="M-1.37541 234.299C-1.11353 230.872 0.0141891 230.529 0.343108 234.009C0.708543 237.875 -0.00182796 245.647 0.169198 250.335C0.622042 262.748 2.5249 273.542 4.48654 282.321C10.808 310.613 19.5622 328.843 27.7273 344.289C54.5668 395.061 83.9672 420.771 112.648 440.147C154.69 468.55 197.073 477.584 239.491 479.5C240.561 479.549 240.739 486.518 239.686 487.425C237.788 489.062 235.437 487.438 233.495 487.37C227.915 487.174 222.336 486.791 216.756 486.211C200.213 484.492 183.671 480.991 167.162 475.359C122.275 460.044 73.877 433.821 31.6097 359.962C28.9507 355.316 26.3128 350.424 23.7123 345.168C21.6325 340.964 19.573 336.557 17.5498 331.844C10.895 316.342 -4.61274 276.659 -1.37541 234.299ZM239.52 487.5C238.5 487.532 238.241 481.035 239.214 479.686C240.685 477.647 242.889 479.326 244.439 479.229C250.878 478.827 257.315 478.23 263.75 477.422C281.396 475.206 299.028 471.423 316.621 465.596C360.257 451.146 407.17 429.116 448.305 361.431C450.923 357.124 453.519 352.554 456.079 347.641C463.86 332.713 483.362 293.085 481.107 243.821C480.917 239.669 482.182 237.181 482.748 240.744C483.468 245.28 483.176 254.736 482.977 259.768C482.342 275.884 479.867 289.512 477.257 300.518C468.987 335.399 457.377 355.623 446.744 372.51C412.184 427.397 374.649 449.524 338.156 465.425C305.425 479.686 272.445 486.484 239.52 487.5Z" fill="#401C02"/>
</g>
<g filter="url(#filter1_f_862_12550)">
<path d="M-1.37541 234.299C-1.11353 230.872 0.0141891 230.529 0.343108 234.009C0.708543 237.875 -0.00182796 245.647 0.169198 250.335C0.622042 262.748 2.5249 273.542 4.48654 282.321C10.808 310.613 19.5622 328.843 27.7273 344.289C54.5668 395.061 83.9672 420.771 112.648 440.147C154.69 468.55 197.073 477.584 239.491 479.5C240.561 479.549 240.739 486.518 239.686 487.425C237.788 489.062 235.437 487.438 233.495 487.37C227.915 487.174 222.336 486.791 216.756 486.211C200.213 484.492 183.671 480.991 167.162 475.359C122.275 460.044 73.877 433.821 31.6097 359.962C28.9507 355.316 26.3128 350.424 23.7123 345.168C21.6325 340.964 19.573 336.557 17.5498 331.844C10.895 316.342 -4.61274 276.659 -1.37541 234.299ZM239.52 487.5C238.5 487.532 238.241 481.035 239.214 479.686C240.685 477.647 242.889 479.326 244.439 479.229C250.878 478.827 257.315 478.23 263.75 477.422C281.396 475.206 299.028 471.423 316.621 465.596C360.257 451.146 407.17 429.116 448.305 361.431C450.923 357.124 453.519 352.554 456.079 347.641C463.86 332.713 483.362 293.085 481.107 243.821C480.917 239.669 482.182 237.181 482.748 240.744C483.468 245.28 483.176 254.736 482.977 259.768C482.342 275.884 479.867 289.512 477.257 300.518C468.987 335.399 457.377 355.623 446.744 372.51C412.184 427.397 374.649 449.524 338.156 465.425C305.425 479.686 272.445 486.484 239.52 487.5Z" fill="#401C02"/>
</g>
</g>
<path d="M171.286 203.87C109.016 202.72 72.8156 224.63 60.2856 233.87C59.2505 234.631 58.5082 235.725 58.1828 236.968C57.8575 238.211 57.9687 239.528 58.498 240.699C59.0272 241.87 59.9424 242.824 61.0905 243.401C62.2387 243.978 63.5501 244.144 64.8056 243.87C95.8056 237.49 118.246 236.75 134.336 238.41C134.276 239.223 134.246 240.043 134.246 240.87C134.246 248.188 136.416 255.341 140.481 261.426C144.547 267.51 150.325 272.253 157.086 275.053C163.847 277.854 171.287 278.586 178.464 277.159C185.641 275.731 192.234 272.207 197.409 267.033C202.583 261.858 206.107 255.265 207.535 248.088C208.962 240.911 208.23 233.471 205.429 226.71C202.629 219.95 197.886 214.171 191.802 210.105C185.717 206.04 178.563 203.87 171.246 203.87H171.286Z" fill="url(#paint4_radial_862_12550)"/>
<path d="M171.286 203.87C109.016 202.72 72.8156 224.63 60.2856 233.87C59.2505 234.631 58.5082 235.725 58.1828 236.968C57.8575 238.211 57.9687 239.528 58.498 240.699C59.0272 241.87 59.9424 242.824 61.0905 243.401C62.2387 243.978 63.5501 244.144 64.8056 243.87C95.8056 237.49 118.246 236.75 134.336 238.41C134.276 239.223 134.246 240.043 134.246 240.87C134.246 248.188 136.416 255.341 140.481 261.426C144.547 267.51 150.325 272.253 157.086 275.053C163.847 277.854 171.287 278.586 178.464 277.159C185.641 275.731 192.234 272.207 197.409 267.033C202.583 261.858 206.107 255.265 207.535 248.088C208.962 240.911 208.23 233.471 205.429 226.71C202.629 219.95 197.886 214.171 191.802 210.105C185.717 206.04 178.563 203.87 171.246 203.87H171.286Z" stroke="url(#paint5_linear_862_12550)" stroke-width="2" stroke-miterlimit="10"/>
<path d="M387.215 203.87C324.945 202.72 288.745 224.63 276.215 233.87C275.18 234.631 274.438 235.725 274.113 236.968C273.787 238.211 273.898 239.528 274.428 240.699C274.957 241.87 275.872 242.824 277.02 243.401C278.168 243.978 279.48 244.144 280.735 243.87C311.735 237.49 334.175 236.75 350.265 238.41C350.205 239.223 350.175 240.043 350.175 240.87C350.175 248.188 352.345 255.341 356.411 261.426C360.477 267.51 366.255 272.253 373.016 275.053C379.777 277.854 387.216 278.586 394.394 277.159C401.571 275.731 408.164 272.207 413.338 267.033C418.513 261.858 422.037 255.265 423.464 248.088C424.892 240.911 424.159 233.471 421.359 226.71C418.558 219.95 413.816 214.171 407.731 210.105C401.647 206.04 394.493 203.87 387.175 203.87H387.215Z" fill="url(#paint6_radial_862_12550)"/>
<path d="M387.215 203.87C324.945 202.72 288.745 224.63 276.215 233.87C275.18 234.631 274.438 235.725 274.113 236.968C273.787 238.211 273.898 239.528 274.428 240.699C274.957 241.87 275.872 242.824 277.02 243.401C278.168 243.978 279.48 244.144 280.735 243.87C311.735 237.49 334.175 236.75 350.265 238.41C350.205 239.223 350.175 240.043 350.175 240.87C350.175 248.188 352.345 255.341 356.411 261.426C360.477 267.51 366.255 272.253 373.016 275.053C379.777 277.854 387.216 278.586 394.394 277.159C401.571 275.731 408.164 272.207 413.338 267.033C418.513 261.858 422.037 255.265 423.464 248.088C424.892 240.911 424.159 233.471 421.359 226.71C418.558 219.95 413.816 214.171 407.731 210.105C401.647 206.04 394.493 203.87 387.175 203.87H387.215Z" stroke="url(#paint7_linear_862_12550)" stroke-width="2" stroke-miterlimit="10"/>
<path d="M174.146 366.36C171.219 368.582 168.431 370.98 165.796 373.54C164.459 374.831 163.2 376.201 162.026 377.64C161.486 378.31 160.956 379.01 160.466 379.73C160.226 380.08 159.536 381.73 159.186 381.83C174.736 376.43 190.506 371.12 206.646 367.83C221.094 364.798 235.834 363.373 250.596 363.58C262.165 363.775 273.693 365.024 285.036 367.31C292.156 368.75 299.036 370.98 306.036 373.1C311.936 374.91 319.766 378.51 325.916 376.1C329.806 374.58 332.366 370.73 333.546 366.73C334.671 363.638 334.63 360.242 333.432 357.177C332.234 354.112 329.96 351.589 327.036 350.08C316.736 343.61 302.746 341.59 291.036 339.52C274.651 336.588 257.899 336.342 241.436 338.79C225.834 341.256 210.686 346.025 196.486 352.94C188.605 356.647 181.12 361.144 174.146 366.36Z" fill="url(#paint8_radial_862_12550)"/>
<path d="M174.146 366.36C171.219 368.582 168.431 370.98 165.796 373.54C164.459 374.831 163.2 376.201 162.026 377.64C161.486 378.31 160.956 379.01 160.466 379.73C160.226 380.08 159.536 381.73 159.186 381.83C174.736 376.43 190.506 371.12 206.646 367.83C221.094 364.798 235.834 363.373 250.596 363.58C262.165 363.775 273.693 365.024 285.036 367.31C292.156 368.75 299.036 370.98 306.036 373.1C311.936 374.91 319.766 378.51 325.916 376.1C329.806 374.58 332.366 370.73 333.546 366.73C334.671 363.638 334.63 360.242 333.432 357.177C332.234 354.112 329.96 351.589 327.036 350.08C316.736 343.61 302.746 341.59 291.036 339.52C274.651 336.588 257.899 336.342 241.436 338.79C225.834 341.256 210.686 346.025 196.486 352.94C188.605 356.647 181.12 361.144 174.146 366.36Z" stroke="url(#paint9_linear_862_12550)" stroke-width="2" stroke-miterlimit="10"/>
<defs>
<filter id="filter0_f_862_12550" x="-26.8145" y="206.559" width="535.021" height="306.595" filterUnits="userSpaceOnUse" color-interpolation-filters="sRGB">
<feFlood flood-opacity="0" result="BackgroundImageFix"/>
<feBlend mode="normal" in="SourceGraphic" in2="BackgroundImageFix" result="shape"/>
<feGaussianBlur stdDeviation="12.5" result="effect1_foregroundBlur_862_12550"/>
</filter>
<filter id="filter1_f_862_12550" x="-41.8145" y="191.559" width="565.021" height="336.595" filterUnits="userSpaceOnUse" color-interpolation-filters="sRGB">
<feFlood flood-opacity="0" result="BackgroundImageFix"/>
<feBlend mode="normal" in="SourceGraphic" in2="BackgroundImageFix" result="shape"/>
<feGaussianBlur stdDeviation="20" result="effect1_foregroundBlur_862_12550"/>
</filter>
<radialGradient id="paint0_radial_862_12550" cx="0" cy="0" r="1" gradientUnits="userSpaceOnUse" gradientTransform="translate(241 -4.53898e-06) rotate(90) scale(482)">
<stop stop-color="#FFDE43"/>
<stop offset="1" stop-color="#FFBC00"/>
</radialGradient>
<radialGradient id="paint1_radial_862_12550" cx="0" cy="0" r="1" gradientUnits="userSpaceOnUse" gradientTransform="translate(241 64.5) rotate(90) scale(417.5)">
<stop stop-color="white" stop-opacity="0.5"/>
<stop offset="0.782278"/>
</radialGradient>
<radialGradient id="paint2_radial_862_12550" cx="0" cy="0" r="1" gradientUnits="userSpaceOnUse" gradientTransform="translate(241 64.5) rotate(90) scale(417.5)">
<stop stop-color="white" stop-opacity="0.5"/>
<stop offset="0.782278"/>
</radialGradient>
<radialGradient id="paint3_radial_862_12550" cx="0" cy="0" r="1" gradientUnits="userSpaceOnUse" gradientTransform="translate(241 -52.5) rotate(90) scale(534.5 722.835)">
<stop offset="0.0922635" stop-color="white"/>
<stop offset="0.670207" stop-color="white" stop-opacity="0"/>
</radialGradient>
<radialGradient id="paint4_radial_862_12550" cx="0" cy="0" r="1" gradientUnits="userSpaceOnUse" gradientTransform="translate(133.019 240.823) scale(95.7633 37.086)">
<stop stop-color="#743C1C"/>
<stop offset="1" stop-color="#401C02"/>
</radialGradient>
<linearGradient id="paint5_linear_862_12550" x1="133.123" y1="279.953" x2="133.123" y2="201.444" gradientUnits="userSpaceOnUse">
<stop stop-color="#FFDE43"/>
<stop offset="0.22" stop-color="#FED93F"/>
<stop offset="0.51" stop-color="#FCC934"/>
<stop offset="0.82" stop-color="#F9AF21"/>
<stop offset="1" stop-color="#F79D14"/>
</linearGradient>
<radialGradient id="paint6_radial_862_12550" cx="0" cy="0" r="1" gradientUnits="userSpaceOnUse" gradientTransform="translate(348.949 240.823) scale(95.7633 37.086)">
<stop stop-color="#743C1C"/>
<stop offset="1" stop-color="#401C02"/>
</radialGradient>
<linearGradient id="paint7_linear_862_12550" x1="349.053" y1="279.953" x2="349.053" y2="201.444" gradientUnits="userSpaceOnUse">
<stop stop-color="#FFDE43"/>
<stop offset="0.22" stop-color="#FED93F"/>
<stop offset="0.51" stop-color="#FCC934"/>
<stop offset="0.82" stop-color="#F9AF21"/>
<stop offset="1" stop-color="#F79D14"/>
</linearGradient>
<radialGradient id="paint8_radial_862_12550" cx="0" cy="0" r="1" gradientUnits="userSpaceOnUse" gradientTransform="translate(246.773 359.385) scale(66.1133 45.1587)">
<stop stop-color="#743C1C"/>
<stop offset="1" stop-color="#401C02"/>
</radialGradient>
<linearGradient id="paint9_linear_862_12550" x1="246.773" y1="383.088" x2="246.773" y2="335.682" gradientUnits="userSpaceOnUse">
<stop offset="0.265625" stop-color="#FFDE43"/>
<stop offset="1" stop-color="#F79D14"/>
</linearGradient>
</defs>
</svg>
