<svg width="483" height="483" viewBox="0 0 483 483" fill="none" xmlns="http://www.w3.org/2000/svg">
<path d="M241.18 482.36C374.38 482.36 482.36 374.38 482.36 241.18C482.36 107.98 374.38 0 241.18 0C107.98 0 0 107.98 0 241.18C0 374.38 107.98 482.36 241.18 482.36Z" fill="url(#paint0_radial_862_12549)"/>
<g style="mix-blend-mode:soft-light">
<path d="M241.18 482.36C374.38 482.36 482.36 374.38 482.36 241.18C482.36 107.98 374.38 0 241.18 0C107.98 0 0 107.98 0 241.18C0 374.38 107.98 482.36 241.18 482.36Z" fill="url(#paint1_radial_862_12549)"/>
</g>
<g style="mix-blend-mode:soft-light">
<path d="M241.18 482.36C374.38 482.36 482.36 374.38 482.36 241.18C482.36 107.98 374.38 0 241.18 0C107.98 0 0 107.98 0 241.18C0 374.38 107.98 482.36 241.18 482.36Z" fill="url(#paint2_radial_862_12549)"/>
</g>
<g style="mix-blend-mode:overlay">
<path d="M241.18 482.36C374.38 482.36 482.36 374.38 482.36 241.18C482.36 107.98 374.38 0 241.18 0C107.98 0 0 107.98 0 241.18C0 374.38 107.98 482.36 241.18 482.36Z" fill="url(#paint3_radial_862_12549)"/>
</g>
<mask id="mask0_862_12549" style="mask-type:alpha" maskUnits="userSpaceOnUse" x="0" y="0" width="483" height="483">
<path d="M241.18 482.36C374.38 482.36 482.36 374.38 482.36 241.18C482.36 107.98 374.38 0 241.18 0C107.98 0 0 107.98 0 241.18C0 374.38 107.98 482.36 241.18 482.36Z" fill="white"/>
</mask>
<g mask="url(#mask0_862_12549)">
<g filter="url(#filter0_f_862_12549)">
<path d="M-1.3759 234.299C-1.11402 230.872 0.0137008 230.529 0.342619 234.008C0.708055 237.874 -0.00231624 245.646 0.16871 250.335C0.621554 262.748 2.52441 273.541 4.48605 282.32C10.8075 310.612 19.5617 328.843 27.7268 344.288C54.5663 395.06 83.9667 420.77 112.648 440.147C154.689 468.549 197.072 477.584 239.49 479.5C240.56 479.548 240.738 486.518 239.686 487.425C237.788 489.061 235.436 487.437 233.494 487.369C227.915 487.174 222.335 486.791 216.756 486.211C200.213 484.492 183.67 480.991 167.162 475.358C122.275 460.044 73.8765 433.821 31.6092 359.962C28.9502 355.316 26.3124 350.424 23.7118 345.167C21.6321 340.963 19.5726 336.556 17.5493 331.843C10.8946 316.342 -4.61323 276.658 -1.3759 234.299ZM239.52 487.5C238.499 487.531 238.241 481.034 239.214 479.685C240.684 477.647 242.888 479.326 244.439 479.229C250.877 478.826 257.314 478.229 263.75 477.421C281.395 475.205 299.028 471.422 316.621 465.596C360.257 451.145 407.17 429.115 448.305 361.431C450.923 357.123 453.518 352.553 456.079 347.641C463.86 332.712 483.361 293.084 481.107 243.821C480.917 239.668 482.181 237.181 482.747 240.743C483.467 245.279 483.175 254.736 482.977 259.768C482.341 275.883 479.866 289.512 477.257 300.518C468.987 335.399 457.376 355.623 446.744 372.51C412.184 427.397 374.648 449.524 338.155 465.424C305.424 479.686 272.444 486.484 239.52 487.5Z" fill="#401C02"/>
</g>
<g filter="url(#filter1_f_862_12549)">
<path d="M-1.3759 234.299C-1.11402 230.872 0.0137008 230.529 0.342619 234.008C0.708055 237.874 -0.00231624 245.646 0.16871 250.335C0.621554 262.748 2.52441 273.541 4.48605 282.32C10.8075 310.612 19.5617 328.843 27.7268 344.288C54.5663 395.06 83.9667 420.77 112.648 440.147C154.689 468.549 197.072 477.584 239.49 479.5C240.56 479.548 240.738 486.518 239.686 487.425C237.788 489.061 235.436 487.437 233.494 487.369C227.915 487.174 222.335 486.791 216.756 486.211C200.213 484.492 183.67 480.991 167.162 475.358C122.275 460.044 73.8765 433.821 31.6092 359.962C28.9502 355.316 26.3124 350.424 23.7118 345.167C21.6321 340.963 19.5726 336.556 17.5493 331.843C10.8946 316.342 -4.61323 276.658 -1.3759 234.299ZM239.52 487.5C238.499 487.531 238.241 481.034 239.214 479.685C240.684 477.647 242.888 479.326 244.439 479.229C250.877 478.826 257.314 478.229 263.75 477.421C281.395 475.205 299.028 471.422 316.621 465.596C360.257 451.145 407.17 429.115 448.305 361.431C450.923 357.123 453.518 352.553 456.079 347.641C463.86 332.712 483.361 293.084 481.107 243.821C480.917 239.668 482.181 237.181 482.747 240.743C483.467 245.279 483.175 254.736 482.977 259.768C482.341 275.883 479.866 289.512 477.257 300.518C468.987 335.399 457.376 355.623 446.744 372.51C412.184 427.397 374.648 449.524 338.155 465.424C305.424 479.686 272.444 486.484 239.52 487.5Z" fill="#401C02"/>
</g>
</g>
<path d="M241.5 395C263.868 395 282 376.868 282 354.5C282 332.132 263.868 314 241.5 314C219.132 314 201 332.132 201 354.5C201 376.868 219.132 395 241.5 395Z" fill="url(#paint4_radial_862_12549)"/>
<path d="M241.5 396.25C264.558 396.25 283.25 377.558 283.25 354.5C283.25 331.442 264.558 312.75 241.5 312.75C218.442 312.75 199.75 331.442 199.75 354.5C199.75 377.558 218.442 396.25 241.5 396.25Z" stroke="url(#paint5_linear_862_12549)" stroke-width="2.5" stroke-miterlimit="10"/>
<path d="M241.5 393.82C263.217 393.82 280.821 376.216 280.821 354.5C280.821 332.783 263.217 315.179 241.5 315.179C219.784 315.179 202.18 332.783 202.18 354.5C202.18 376.216 219.784 393.82 241.5 393.82Z" stroke="url(#paint6_linear_862_12549)" stroke-width="4" stroke-miterlimit="10"/>
<path d="M155.97 230.93C171.97 230.93 184.94 215.421 184.94 196.29C184.94 177.159 171.97 161.65 155.97 161.65C139.97 161.65 127 177.159 127 196.29C127 215.421 139.97 230.93 155.97 230.93Z" fill="url(#paint7_radial_862_12549)"/>
<path d="M155.97 230.93C171.97 230.93 184.94 215.421 184.94 196.29C184.94 177.159 171.97 161.65 155.97 161.65C139.97 161.65 127 177.159 127 196.29C127 215.421 139.97 230.93 155.97 230.93Z" stroke="url(#paint8_linear_862_12549)" stroke-width="2" stroke-miterlimit="10"/>
<path d="M325.431 230.93C341.431 230.93 354.401 215.421 354.401 196.29C354.401 177.159 341.431 161.65 325.431 161.65C309.431 161.65 296.461 177.159 296.461 196.29C296.461 215.421 309.431 230.93 325.431 230.93Z" fill="url(#paint9_radial_862_12549)"/>
<path d="M325.431 230.93C341.431 230.93 354.401 215.421 354.401 196.29C354.401 177.159 341.431 161.65 325.431 161.65C309.431 161.65 296.461 177.159 296.461 196.29C296.461 215.421 309.431 230.93 325.431 230.93Z" stroke="url(#paint10_linear_862_12549)" stroke-width="2" stroke-miterlimit="10"/>
<path d="M391.987 139.233C386.147 131.433 349.337 85.6529 302.307 102.823C300.825 103.327 299.561 104.323 298.724 105.646C297.887 106.968 297.528 108.538 297.707 110.093C297.987 112.003 299.107 113.873 302.057 114.773C314.847 118.663 341.717 110.073 375.827 137.713C378.827 140.123 381.557 142.783 384.267 145.473C386.217 147.403 389.457 149.903 392.057 148.403C394.277 147.113 394.257 144.773 393.807 142.943C393.454 141.597 392.835 140.336 391.987 139.233Z" fill="#42210B"/>
<path d="M91.0607 139.233C96.9007 131.433 133.711 85.6529 180.741 102.823C182.223 103.327 183.487 104.323 184.324 105.646C185.161 106.968 185.52 108.538 185.341 110.093C185.061 112.003 183.941 113.873 180.991 114.773C168.201 118.663 141.331 110.073 107.221 137.713C104.221 140.123 101.491 142.783 98.7807 145.473C96.8307 147.403 93.5906 149.903 90.9906 148.403C88.7706 147.113 88.7906 144.773 89.2406 142.943C89.5943 141.597 90.2131 140.336 91.0607 139.233Z" fill="#42210B"/>
<defs>
<filter id="filter0_f_862_12549" x="-26.8149" y="206.558" width="535.022" height="306.595" filterUnits="userSpaceOnUse" color-interpolation-filters="sRGB">
<feFlood flood-opacity="0" result="BackgroundImageFix"/>
<feBlend mode="normal" in="SourceGraphic" in2="BackgroundImageFix" result="shape"/>
<feGaussianBlur stdDeviation="12.5" result="effect1_foregroundBlur_862_12549"/>
</filter>
<filter id="filter1_f_862_12549" x="-41.8149" y="191.558" width="565.022" height="336.595" filterUnits="userSpaceOnUse" color-interpolation-filters="sRGB">
<feFlood flood-opacity="0" result="BackgroundImageFix"/>
<feBlend mode="normal" in="SourceGraphic" in2="BackgroundImageFix" result="shape"/>
<feGaussianBlur stdDeviation="20" result="effect1_foregroundBlur_862_12549"/>
</filter>
<radialGradient id="paint0_radial_862_12549" cx="0" cy="0" r="1" gradientUnits="userSpaceOnUse" gradientTransform="translate(241 -4.53898e-06) rotate(90) scale(482)">
<stop stop-color="#FFDE43"/>
<stop offset="1" stop-color="#FFBC00"/>
</radialGradient>
<radialGradient id="paint1_radial_862_12549" cx="0" cy="0" r="1" gradientUnits="userSpaceOnUse" gradientTransform="translate(241 64.5) rotate(90) scale(417.5)">
<stop stop-color="white" stop-opacity="0.5"/>
<stop offset="0.782278"/>
</radialGradient>
<radialGradient id="paint2_radial_862_12549" cx="0" cy="0" r="1" gradientUnits="userSpaceOnUse" gradientTransform="translate(241 64.5) rotate(90) scale(417.5)">
<stop stop-color="white" stop-opacity="0.5"/>
<stop offset="0.782278"/>
</radialGradient>
<radialGradient id="paint3_radial_862_12549" cx="0" cy="0" r="1" gradientUnits="userSpaceOnUse" gradientTransform="translate(241 -52.5) rotate(90) scale(534.5 722.835)">
<stop offset="0.0922635" stop-color="white"/>
<stop offset="0.670207" stop-color="white" stop-opacity="0"/>
</radialGradient>
<radialGradient id="paint4_radial_862_12549" cx="0" cy="0" r="1" gradientUnits="userSpaceOnUse" gradientTransform="translate(241.444 354.473) scale(51.6276 40.5703)">
<stop stop-color="#743C1C"/>
<stop offset="1" stop-color="#401C02"/>
</radialGradient>
<linearGradient id="paint5_linear_862_12549" x1="241.5" y1="397.279" x2="241.5" y2="311.394" gradientUnits="userSpaceOnUse">
<stop offset="0.265625" stop-color="#FFDE43"/>
<stop offset="1" stop-color="#F79D14"/>
</linearGradient>
<linearGradient id="paint6_linear_862_12549" x1="241.5" y1="395.251" x2="241.5" y2="313.741" gradientUnits="userSpaceOnUse">
<stop stop-color="#401C02"/>
<stop offset="1" stop-color="#401C02"/>
</linearGradient>
<radialGradient id="paint7_radial_862_12549" cx="0" cy="0" r="1" gradientUnits="userSpaceOnUse" gradientTransform="translate(155.93 196.267) scale(36.9297 34.7001)">
<stop stop-color="#743C1C"/>
<stop offset="1" stop-color="#401C02"/>
</radialGradient>
<linearGradient id="paint8_linear_862_12549" x1="155.97" y1="232.879" x2="155.97" y2="159.421" gradientUnits="userSpaceOnUse">
<stop stop-color="#FFDE43"/>
<stop offset="0.22" stop-color="#FED93F"/>
<stop offset="0.51" stop-color="#FCC934"/>
<stop offset="0.82" stop-color="#F9AF21"/>
<stop offset="1" stop-color="#F79D14"/>
</linearGradient>
<radialGradient id="paint9_radial_862_12549" cx="0" cy="0" r="1" gradientUnits="userSpaceOnUse" gradientTransform="translate(325.391 196.267) scale(36.9297 34.7001)">
<stop stop-color="#743C1C"/>
<stop offset="1" stop-color="#401C02"/>
</radialGradient>
<linearGradient id="paint10_linear_862_12549" x1="325.431" y1="232.879" x2="325.431" y2="159.421" gradientUnits="userSpaceOnUse">
<stop stop-color="#FFDE43"/>
<stop offset="0.22" stop-color="#FED93F"/>
<stop offset="0.51" stop-color="#FCC934"/>
<stop offset="0.82" stop-color="#F9AF21"/>
<stop offset="1" stop-color="#F79D14"/>
</linearGradient>
</defs>
</svg>
