<svg width="483" height="483" viewBox="0 0 483 483" fill="none" xmlns="http://www.w3.org/2000/svg">
<path d="M241.18 482.36C374.38 482.36 482.36 374.38 482.36 241.18C482.36 107.98 374.38 0 241.18 0C107.98 0 0 107.98 0 241.18C0 374.38 107.98 482.36 241.18 482.36Z" fill="url(#paint0_radial_862_12450)"/>
<g style="mix-blend-mode:soft-light">
<path d="M241.18 482.36C374.38 482.36 482.36 374.38 482.36 241.18C482.36 107.98 374.38 0 241.18 0C107.98 0 0 107.98 0 241.18C0 374.38 107.98 482.36 241.18 482.36Z" fill="url(#paint1_radial_862_12450)"/>
</g>
<g style="mix-blend-mode:soft-light">
<path d="M241.18 482.36C374.38 482.36 482.36 374.38 482.36 241.18C482.36 107.98 374.38 0 241.18 0C107.98 0 0 107.98 0 241.18C0 374.38 107.98 482.36 241.18 482.36Z" fill="url(#paint2_radial_862_12450)"/>
</g>
<g style="mix-blend-mode:overlay">
<path d="M241.18 482.36C374.38 482.36 482.36 374.38 482.36 241.18C482.36 107.98 374.38 0 241.18 0C107.98 0 0 107.98 0 241.18C0 374.38 107.98 482.36 241.18 482.36Z" fill="url(#paint3_radial_862_12450)" fill-opacity="0.7"/>
</g>
<mask id="mask0_862_12450" style="mask-type:alpha" maskUnits="userSpaceOnUse" x="0" y="0" width="483" height="483">
<path d="M241.18 482.36C374.38 482.36 482.36 374.38 482.36 241.18C482.36 107.98 374.38 0 241.18 0C107.98 0 0 107.98 0 241.18C0 374.38 107.98 482.36 241.18 482.36Z" fill="white"/>
</mask>
<g mask="url(#mask0_862_12450)">
<g filter="url(#filter0_f_862_12450)">
<path d="M-1.37541 234.299C-1.11353 230.872 0.0141891 230.529 0.343108 234.009C0.708543 237.875 -0.00182796 245.647 0.169198 250.335C0.622042 262.748 2.5249 273.542 4.48654 282.321C10.808 310.613 19.5622 328.843 27.7273 344.289C54.5668 395.061 83.9672 420.771 112.648 440.147C154.69 468.55 197.073 477.584 239.491 479.5C240.561 479.549 240.739 486.518 239.686 487.425C237.788 489.062 235.437 487.438 233.495 487.37C227.915 487.174 222.336 486.791 216.756 486.211C200.213 484.492 183.671 480.991 167.162 475.359C122.275 460.044 73.877 433.821 31.6097 359.962C28.9507 355.316 26.3128 350.424 23.7123 345.168C21.6325 340.964 19.573 336.557 17.5498 331.844C10.895 316.342 -4.61274 276.659 -1.37541 234.299ZM239.52 487.5C238.5 487.532 238.241 481.035 239.214 479.686C240.685 477.647 242.889 479.326 244.439 479.229C250.878 478.827 257.315 478.23 263.75 477.422C281.396 475.206 299.028 471.423 316.621 465.596C360.257 451.146 407.17 429.116 448.305 361.431C450.923 357.124 453.519 352.554 456.079 347.641C463.86 332.713 483.362 293.085 481.107 243.821C480.917 239.669 482.182 237.181 482.748 240.744C483.468 245.28 483.176 254.736 482.977 259.768C482.342 275.884 479.867 289.512 477.257 300.518C468.987 335.399 457.377 355.623 446.744 372.51C412.184 427.397 374.649 449.524 338.156 465.425C305.425 479.686 272.445 486.484 239.52 487.5Z" fill="#401C02"/>
</g>
<g filter="url(#filter1_f_862_12450)">
<path d="M-1.37541 234.299C-1.11353 230.872 0.0141891 230.529 0.343108 234.009C0.708543 237.875 -0.00182796 245.647 0.169198 250.335C0.622042 262.748 2.5249 273.542 4.48654 282.321C10.808 310.613 19.5622 328.843 27.7273 344.289C54.5668 395.061 83.9672 420.771 112.648 440.147C154.69 468.55 197.073 477.584 239.491 479.5C240.561 479.549 240.739 486.518 239.686 487.425C237.788 489.062 235.437 487.438 233.495 487.37C227.915 487.174 222.336 486.791 216.756 486.211C200.213 484.492 183.671 480.991 167.162 475.359C122.275 460.044 73.877 433.821 31.6097 359.962C28.9507 355.316 26.3128 350.424 23.7123 345.168C21.6325 340.964 19.573 336.557 17.5498 331.844C10.895 316.342 -4.61274 276.659 -1.37541 234.299ZM239.52 487.5C238.5 487.532 238.241 481.035 239.214 479.686C240.685 477.647 242.889 479.326 244.439 479.229C250.878 478.827 257.315 478.23 263.75 477.422C281.396 475.206 299.028 471.423 316.621 465.596C360.257 451.146 407.17 429.116 448.305 361.431C450.923 357.124 453.519 352.554 456.079 347.641C463.86 332.713 483.362 293.085 481.107 243.821C480.917 239.669 482.182 237.181 482.748 240.744C483.468 245.28 483.176 254.736 482.977 259.768C482.342 275.884 479.867 289.512 477.257 300.518C468.987 335.399 457.377 355.623 446.744 372.51C412.184 427.397 374.649 449.524 338.156 465.425C305.425 479.686 272.445 486.484 239.52 487.5Z" fill="#401C02"/>
</g>
</g>
<g filter="url(#filter2_f_862_12450)">
<circle cx="306.021" cy="353" r="50" fill="#E66200" fill-opacity="0.75"/>
</g>
<path d="M303.539 323.6C303.439 323.3 303.239 323 303.139 322.7L302.739 322C302.539 321.7 302.439 321.4 302.239 321.2L302.139 321.1C302.039 320.9 301.839 320.7 301.739 320.5C300.539 319 299.239 317.6 297.839 316.3C295.339 314.2 292.639 312.3 289.839 310.6C284.639 307.5 279.139 304.8 273.539 302.5C270.739 301.4 267.939 300.3 265.139 299.3L264.239 299C263.139 298.6 262.039 298.2 260.939 297.9C259.539 297.4 258.139 297 256.639 296.6C253.339 295.6 250.539 294.9 247.939 294.3C245.639 293.8 243.839 293.4 242.139 293C241.539 292.9 240.939 293 240.439 293.3C239.939 293.6 239.539 294 239.239 294.6C239.039 295.1 239.039 295.7 239.139 296.3C239.339 296.9 239.739 297.3 240.239 297.6C241.839 298.6 243.439 299.6 245.139 300.6C247.339 301.9 249.539 303.2 251.739 304.5L267.339 313.6C272.139 316.5 276.939 319.3 281.239 322.3C283.239 323.7 285.139 325.2 286.939 326.8C287.439 327.2 287.839 327.7 288.339 328.2L288.439 328.4L288.339 328.5C287.939 329 287.439 329.5 286.939 330C285.139 331.6 283.239 333.1 281.239 334.5C276.739 337.6 271.939 340.5 267.339 343.2L250.839 352.8C250.339 353.1 249.939 353.5 249.639 354C249.339 354.5 249.239 355.1 249.239 355.7C249.239 356.3 249.439 356.9 249.639 357.4C249.939 357.9 250.339 358.3 250.839 358.6L253.739 360.3L267.839 368.5C272.039 371 276.139 373.5 279.939 376.1C281.739 377.3 283.339 378.6 284.939 380C285.339 380.4 285.739 380.8 286.139 381.2C285.739 381.6 285.339 382 284.939 382.4C283.339 383.8 281.739 385.1 279.939 386.3C276.039 389 271.839 391.5 267.839 393.9L254.139 401.9C252.239 403 250.339 404.1 248.439 405.3C247.039 406.1 245.639 407 244.239 407.9C243.739 408.2 243.339 408.6 243.239 409.2C243.039 409.7 243.039 410.3 243.239 410.8C243.439 411.3 243.739 411.6 244.139 411.9C244.539 412.2 245.039 412.3 245.539 412.3C245.739 412.3 245.839 412.3 246.039 412.2C247.539 411.9 249.139 411.5 251.039 411.1C253.339 410.6 255.739 409.9 258.639 409.1C261.539 408.3 263.839 407.5 266.139 406.7C268.339 405.9 270.839 405 273.539 403.9C278.539 401.9 283.239 399.6 287.839 396.9C290.339 395.4 292.639 393.8 294.839 391.9C296.139 390.8 297.239 389.6 298.339 388.2C298.539 388 298.639 387.8 298.839 387.5C299.039 387.2 299.139 387.1 299.239 386.9L299.639 386.2C299.739 386 299.839 385.7 300.039 385.4C300.639 384.1 300.939 382.7 300.939 381.2C300.939 379.8 300.639 378.3 300.039 377C299.939 376.8 299.839 376.5 299.639 376.2L299.239 375.5C298.839 375.2 298.739 375 298.539 374.7L298.439 374.5C298.339 374.3 298.239 374.2 298.139 374C297.139 372.7 295.939 371.4 294.639 370.3C292.439 368.4 290.139 366.8 287.639 365.3C283.039 362.6 278.239 360.3 273.339 358.3C271.439 357.5 269.539 356.8 267.739 356.1C269.539 355.4 271.439 354.7 273.539 353.9C279.139 351.6 284.639 349 289.939 345.9C292.739 344.3 295.439 342.4 297.939 340.2C299.439 339 300.739 337.6 301.839 336C301.939 335.8 302.039 335.7 302.239 335.5L302.339 335.3C302.339 335.2 302.539 335 302.639 334.7L303.139 333.9C303.239 333.6 303.439 333.3 303.539 333C304.139 331.5 304.539 329.9 304.539 328.3C304.539 326.7 304.239 325.1 303.539 323.6Z" fill="url(#paint4_radial_862_12450)"/>
<path d="M245.339 413.2C245.539 413.2 245.839 413.2 246.039 413.1C247.739 412.8 249.339 412.4 251.139 412C253.439 411.5 255.739 410.8 258.839 410C261.439 409.3 263.639 408.5 265.639 407.8L266.339 407.5C269.039 406.6 271.439 405.6 273.739 404.7C278.739 402.7 283.639 400.3 288.239 397.6C290.739 396.1 293.139 394.4 295.339 392.5C296.639 391.4 297.939 390.1 298.939 388.7C299.139 388.5 299.239 388.2 299.439 387.9L299.539 387.7C299.639 387.5 299.739 387.4 299.839 387.2L300.239 386.5C300.339 386.3 300.539 386 300.639 385.7C301.339 384.2 301.639 382.7 301.639 381.1C301.639 379.5 301.339 377.9 300.639 376.5L300.539 376.2C300.439 376 300.339 375.9 300.339 375.7L299.839 375C299.639 374.7 299.539 374.5 299.339 374.2L299.239 374C299.139 373.8 299.039 373.6 298.839 373.5C297.739 372.1 296.539 370.8 295.239 369.7C293.039 367.8 290.639 366.1 288.139 364.6C283.539 361.9 278.639 359.5 273.639 357.5C272.539 357 271.539 356.6 270.539 356.2C271.539 355.8 272.639 355.4 273.839 354.9C279.539 352.6 285.039 349.9 290.339 346.8C293.239 345.1 295.939 343.2 298.439 341.1C299.939 339.8 301.339 338.4 302.539 336.8C302.639 336.7 302.739 336.6 302.839 336.4L303.039 336C303.239 335.7 303.439 335.4 303.539 335.2L304.039 334.4C304.239 334.1 304.339 333.8 304.539 333.4C305.139 331.8 305.539 330.1 305.539 328.3C305.539 326.5 305.139 324.8 304.439 323.2C304.339 322.9 304.139 322.6 304.039 322.3L303.639 321.5C303.439 321.2 303.239 320.9 303.039 320.6L302.939 320.5C302.839 320.4 302.739 320.2 302.639 320L302.539 319.9C301.339 318.3 299.939 316.8 298.439 315.5C295.939 313.4 293.139 311.4 290.339 309.7C285.039 306.6 279.539 303.9 273.839 301.6C271.039 300.5 268.239 299.4 265.339 298.4L264.439 298.1C263.339 297.7 262.239 297.3 261.039 297C259.639 296.5 258.239 296.1 256.739 295.7C253.639 294.8 250.939 294 248.039 293.4C245.739 292.9 243.939 292.5 242.239 292.1C241.439 291.9 240.639 292.1 239.839 292.5C239.139 292.9 238.539 293.5 238.239 294.3C237.939 295.1 237.939 295.9 238.139 296.7C238.439 297.5 238.939 298.1 239.639 298.6C241.239 299.6 242.839 300.6 244.539 301.5C246.739 302.8 248.939 304.1 251.139 305.4L266.739 314.5C271.339 317.2 276.239 320.1 280.539 323.2C282.539 324.5 284.439 326 286.139 327.6C286.439 327.9 286.739 328.1 286.939 328.4C286.639 328.7 286.439 329 286.139 329.2C284.339 330.8 282.439 332.3 280.539 333.6C276.139 336.6 271.539 339.4 266.639 342.3L250.139 351.9C249.439 352.3 248.939 352.8 248.539 353.5C248.139 354.2 247.939 354.9 247.939 355.7C247.939 356.5 248.139 357.2 248.539 357.9C248.939 358.6 249.439 359.1 250.139 359.5L253.139 361L267.239 369.2C270.939 371.4 275.339 374 279.339 376.8C281.039 378 282.739 379.2 284.239 380.6C284.439 380.7 284.539 380.9 284.739 381.1C284.539 381.3 284.439 381.4 284.239 381.6C282.739 383 281.039 384.3 279.339 385.4C275.539 388 271.439 390.5 267.239 393L253.539 401C251.639 402.1 249.739 403.2 247.839 404.4L247.139 404.8C245.939 405.5 244.839 406.2 243.639 406.9C242.939 407.3 242.439 407.9 242.139 408.7C241.839 409.5 241.939 410.3 242.239 411C242.539 411.6 242.939 412.2 243.539 412.6C243.939 413 244.639 413.2 245.339 413.2ZM302.639 324C303.239 325.4 303.539 326.8 303.539 328.3C303.539 329.8 303.239 331.2 302.639 332.6C302.539 332.9 302.339 333.2 302.239 333.4L301.839 334.2C301.739 334.5 301.539 334.7 301.439 334.9L301.139 335.3C301.039 335.4 301.039 335.5 300.939 335.6C299.839 337.1 298.539 338.4 297.139 339.6C294.739 341.7 292.039 343.5 289.239 345.1C284.039 348.1 278.639 350.8 273.039 353C270.939 353.8 269.139 354.6 267.339 355.2L264.739 356.1L267.339 357C269.139 357.6 271.039 358.4 272.939 359.2C277.839 361.1 282.639 363.5 287.139 366.1C289.539 367.5 291.839 369.2 294.039 371C295.239 372.1 296.439 373.2 297.339 374.5C297.439 374.6 297.539 374.8 297.639 374.9L297.739 375.1C297.939 375.4 298.039 375.6 298.139 375.8L298.539 376.6C298.539 376.7 298.639 376.9 298.739 377L298.839 377.3C299.339 378.5 299.639 379.7 299.639 381.1C299.639 382.5 299.339 383.7 298.839 384.9C298.739 385.2 298.639 385.4 298.439 385.7L298.039 386.4C297.939 386.5 297.939 386.6 297.839 386.7L297.639 387C297.439 387.3 297.339 387.5 297.239 387.6C296.239 388.9 295.139 390.1 293.939 391.1C291.839 392.9 289.539 394.6 287.039 396C282.539 398.7 277.739 401 272.839 402.9C270.539 403.8 268.139 404.7 265.539 405.7L264.839 406C262.839 406.7 260.739 407.4 258.239 408.1C255.239 408.9 252.839 409.6 250.639 410.1C248.839 410.5 247.339 410.9 245.639 411.2C245.539 411.2 245.439 411.2 245.339 411.2C245.039 411.2 244.739 411.1 244.539 411C244.339 410.8 244.139 410.6 244.039 410.3C243.939 410 243.939 409.7 244.039 409.4C244.139 409.1 244.339 408.8 244.639 408.7C245.839 408 246.939 407.3 248.139 406.6L248.839 406.2C250.739 405.1 252.639 403.9 254.539 402.8L268.239 394.8C272.439 392.3 276.639 389.8 280.439 387.1C282.239 385.9 283.939 384.6 285.539 383.1C285.939 382.7 286.439 382.3 286.739 381.8L287.339 381.2L286.739 380.5C286.339 380 285.939 379.6 285.439 379.2C283.839 377.8 282.139 376.4 280.339 375.2C276.339 372.4 271.939 369.8 268.139 367.5L251.139 357.6C250.739 357.4 250.539 357.1 250.339 356.7C250.139 356.3 250.039 355.9 250.039 355.5C250.039 355.1 250.139 354.7 250.339 354.3C250.539 353.9 250.839 353.7 251.139 353.4L267.639 343.8C272.539 340.9 277.239 338.1 281.639 335C283.639 333.6 285.639 332.1 287.439 330.4C287.939 329.9 288.439 329.4 288.939 328.8L289.539 328.1L288.839 327.3C288.439 326.8 287.939 326.3 287.439 325.8C285.639 324.1 283.639 322.6 281.639 321.2C277.239 318.1 272.339 315.2 267.639 312.5L252.039 303.4C249.839 302.1 247.639 300.8 245.439 299.5C243.839 298.5 242.239 297.6 240.539 296.6C240.239 296.4 240.039 296.1 239.939 295.8C239.839 295.5 239.839 295.1 239.939 294.8C240.039 294.5 240.339 294.2 240.639 294C241.139 294 241.439 294 241.839 294C243.539 294.4 245.339 294.7 247.539 295.3C250.439 296 253.139 296.7 256.139 297.6C257.539 298 258.939 298.5 260.439 298.9C261.539 299.3 262.639 299.7 263.739 300L264.639 300.3C267.439 301.3 270.239 302.3 273.039 303.5C278.639 305.7 284.039 308.4 289.239 311.5C292.039 313.1 294.639 315 297.139 317.1C298.539 318.3 299.839 319.7 300.939 321.1L301.039 321.2C301.139 321.3 301.239 321.5 301.339 321.6L301.439 321.8C301.539 322 301.739 322.2 301.839 322.5L302.239 323.3C302.439 323.5 302.539 323.7 302.639 324Z" fill="url(#paint5_linear_862_12450)"/>
<path d="M171.896 225.501C185.894 225.501 197.242 211.093 197.242 193.32C197.242 175.547 185.894 161.139 171.896 161.139C157.898 161.139 146.55 175.547 146.55 193.32C146.55 211.093 157.898 225.501 171.896 225.501Z" fill="url(#paint6_radial_862_12450)"/>
<path d="M171.896 225.501C185.894 225.501 197.242 211.093 197.242 193.32C197.242 175.547 185.894 161.139 171.896 161.139C157.898 161.139 146.55 175.547 146.55 193.32C146.55 211.093 157.898 225.501 171.896 225.501Z" stroke="url(#paint7_linear_862_12450)" stroke-width="2" stroke-miterlimit="10"/>
<path d="M309.654 225.501C323.652 225.501 335 211.093 335 193.32C335 175.547 323.652 161.139 309.654 161.139C295.655 161.139 284.308 175.547 284.308 193.32C284.308 211.093 295.655 225.501 309.654 225.501Z" fill="url(#paint8_radial_862_12450)"/>
<path d="M309.654 225.501C323.652 225.501 335 211.093 335 193.32C335 175.547 323.652 161.139 309.654 161.139C295.655 161.139 284.308 175.547 284.308 193.32C284.308 211.093 295.655 225.501 309.654 225.501Z" stroke="url(#paint9_linear_862_12450)" stroke-width="2" stroke-miterlimit="10"/>
<defs>
<filter id="filter0_f_862_12450" x="-26.8145" y="206.559" width="535.021" height="306.595" filterUnits="userSpaceOnUse" color-interpolation-filters="sRGB">
<feFlood flood-opacity="0" result="BackgroundImageFix"/>
<feBlend mode="normal" in="SourceGraphic" in2="BackgroundImageFix" result="shape"/>
<feGaussianBlur stdDeviation="12.5" result="effect1_foregroundBlur_862_12450"/>
</filter>
<filter id="filter1_f_862_12450" x="-41.8145" y="191.559" width="565.021" height="336.595" filterUnits="userSpaceOnUse" color-interpolation-filters="sRGB">
<feFlood flood-opacity="0" result="BackgroundImageFix"/>
<feBlend mode="normal" in="SourceGraphic" in2="BackgroundImageFix" result="shape"/>
<feGaussianBlur stdDeviation="20" result="effect1_foregroundBlur_862_12450"/>
</filter>
<filter id="filter2_f_862_12450" x="196.021" y="243" width="220" height="220" filterUnits="userSpaceOnUse" color-interpolation-filters="sRGB">
<feFlood flood-opacity="0" result="BackgroundImageFix"/>
<feBlend mode="normal" in="SourceGraphic" in2="BackgroundImageFix" result="shape"/>
<feGaussianBlur stdDeviation="30" result="effect1_foregroundBlur_862_12450"/>
</filter>
<radialGradient id="paint0_radial_862_12450" cx="0" cy="0" r="1" gradientUnits="userSpaceOnUse" gradientTransform="translate(241 -4.53898e-06) rotate(90) scale(482)">
<stop stop-color="#FFDE43"/>
<stop offset="1" stop-color="#FFBC00"/>
</radialGradient>
<radialGradient id="paint1_radial_862_12450" cx="0" cy="0" r="1" gradientUnits="userSpaceOnUse" gradientTransform="translate(241 64.5) rotate(90) scale(417.5)">
<stop stop-color="white" stop-opacity="0.5"/>
<stop offset="0.782278"/>
</radialGradient>
<radialGradient id="paint2_radial_862_12450" cx="0" cy="0" r="1" gradientUnits="userSpaceOnUse" gradientTransform="translate(241 64.5) rotate(90) scale(417.5)">
<stop stop-color="white" stop-opacity="0.5"/>
<stop offset="0.782278"/>
</radialGradient>
<radialGradient id="paint3_radial_862_12450" cx="0" cy="0" r="1" gradientUnits="userSpaceOnUse" gradientTransform="translate(241 -52.5) rotate(90) scale(534.5 722.835)">
<stop offset="0.0922635" stop-color="white"/>
<stop offset="0.670207" stop-color="white" stop-opacity="0"/>
</radialGradient>
<radialGradient id="paint4_radial_862_12450" cx="0" cy="0" r="1" gradientUnits="userSpaceOnUse" gradientTransform="translate(271.762 352.336) scale(24.7525 120.419)">
<stop stop-color="#743C1C"/>
<stop offset="1" stop-color="#401C02"/>
</radialGradient>
<linearGradient id="paint5_linear_862_12450" x1="305.539" y1="352.581" x2="237.987" y2="352.581" gradientUnits="userSpaceOnUse">
<stop stop-color="#FFDE43"/>
<stop offset="0.22" stop-color="#FED93F"/>
<stop offset="0.51" stop-color="#FCC934"/>
<stop offset="0.82" stop-color="#F9AF21"/>
<stop offset="1" stop-color="#F79D14"/>
</linearGradient>
<radialGradient id="paint6_radial_862_12450" cx="0" cy="0" r="1" gradientUnits="userSpaceOnUse" gradientTransform="translate(171.861 193.299) scale(32.31 32.2372)">
<stop stop-color="#743C1C"/>
<stop offset="1" stop-color="#401C02"/>
</radialGradient>
<linearGradient id="paint7_linear_862_12450" x1="171.896" y1="227.312" x2="171.896" y2="159.068" gradientUnits="userSpaceOnUse">
<stop stop-color="#FFDE43"/>
<stop offset="0.22" stop-color="#FED93F"/>
<stop offset="0.51" stop-color="#FCC934"/>
<stop offset="0.82" stop-color="#F9AF21"/>
<stop offset="1" stop-color="#F79D14"/>
</linearGradient>
<radialGradient id="paint8_radial_862_12450" cx="0" cy="0" r="1" gradientUnits="userSpaceOnUse" gradientTransform="translate(309.619 193.299) scale(32.31 32.2372)">
<stop stop-color="#743C1C"/>
<stop offset="1" stop-color="#401C02"/>
</radialGradient>
<linearGradient id="paint9_linear_862_12450" x1="309.654" y1="227.312" x2="309.654" y2="159.068" gradientUnits="userSpaceOnUse">
<stop stop-color="#FFDE43"/>
<stop offset="0.22" stop-color="#FED93F"/>
<stop offset="0.51" stop-color="#FCC934"/>
<stop offset="0.82" stop-color="#F9AF21"/>
<stop offset="1" stop-color="#F79D14"/>
</linearGradient>
</defs>
</svg>
