<svg width="483" height="483" viewBox="0 0 483 483" fill="none" xmlns="http://www.w3.org/2000/svg">
<path d="M241.18 482.36C374.38 482.36 482.36 374.38 482.36 241.18C482.36 107.98 374.38 0 241.18 0C107.98 0 0 107.98 0 241.18C0 374.38 107.98 482.36 241.18 482.36Z" fill="url(#paint0_radial_862_12580)"/>
<g style="mix-blend-mode:soft-light">
<path d="M241.18 482.36C374.38 482.36 482.36 374.38 482.36 241.18C482.36 107.98 374.38 0 241.18 0C107.98 0 0 107.98 0 241.18C0 374.38 107.98 482.36 241.18 482.36Z" fill="url(#paint1_radial_862_12580)"/>
</g>
<g style="mix-blend-mode:soft-light">
<path d="M241.18 482.36C374.38 482.36 482.36 374.38 482.36 241.18C482.36 107.98 374.38 0 241.18 0C107.98 0 0 107.98 0 241.18C0 374.38 107.98 482.36 241.18 482.36Z" fill="url(#paint2_radial_862_12580)"/>
</g>
<g style="mix-blend-mode:overlay">
<path d="M241.18 482.36C374.38 482.36 482.36 374.38 482.36 241.18C482.36 107.98 374.38 0 241.18 0C107.98 0 0 107.98 0 241.18C0 374.38 107.98 482.36 241.18 482.36Z" fill="url(#paint3_radial_862_12580)" fill-opacity="0.7"/>
</g>
<mask id="mask0_862_12580" style="mask-type:alpha" maskUnits="userSpaceOnUse" x="0" y="0" width="483" height="483">
<path d="M241.18 482.36C374.38 482.36 482.36 374.38 482.36 241.18C482.36 107.98 374.38 0 241.18 0C107.98 0 0 107.98 0 241.18C0 374.38 107.98 482.36 241.18 482.36Z" fill="white"/>
</mask>
<g mask="url(#mask0_862_12580)">
<g filter="url(#filter0_f_862_12580)">
<path d="M-1.37541 234.299C-1.11353 230.872 0.0141891 230.529 0.343108 234.008C0.708543 237.874 -0.00182796 245.646 0.169198 250.335C0.622042 262.748 2.5249 273.541 4.48654 282.32C10.808 310.612 19.5622 328.843 27.7273 344.288C54.5668 395.06 83.9672 420.77 112.648 440.147C154.69 468.549 197.073 477.584 239.491 479.5C240.561 479.548 240.739 486.518 239.686 487.425C237.788 489.061 235.437 487.437 233.495 487.369C227.915 487.174 222.336 486.791 216.756 486.211C200.213 484.492 183.671 480.991 167.162 475.358C122.275 460.044 73.877 433.821 31.6097 359.962C28.9507 355.316 26.3128 350.424 23.7123 345.167C21.6325 340.963 19.573 336.556 17.5498 331.843C10.895 316.342 -4.61274 276.658 -1.37541 234.299ZM239.52 487.5C238.5 487.531 238.241 481.034 239.214 479.685C240.685 477.647 242.889 479.326 244.439 479.229C250.878 478.826 257.315 478.229 263.75 477.421C281.396 475.205 299.028 471.422 316.621 465.596C360.257 451.145 407.17 429.115 448.305 361.431C450.923 357.123 453.519 352.553 456.079 347.641C463.86 332.712 483.362 293.084 481.107 243.821C480.917 239.668 482.182 237.181 482.748 240.743C483.468 245.279 483.176 254.736 482.977 259.768C482.342 275.883 479.867 289.512 477.257 300.518C468.987 335.399 457.377 355.623 446.744 372.51C412.184 427.397 374.649 449.524 338.156 465.424C305.425 479.686 272.445 486.484 239.52 487.5Z" fill="#401C02"/>
</g>
<g filter="url(#filter1_f_862_12580)">
<path d="M-1.37541 234.299C-1.11353 230.872 0.0141891 230.529 0.343108 234.008C0.708543 237.874 -0.00182796 245.646 0.169198 250.335C0.622042 262.748 2.5249 273.541 4.48654 282.32C10.808 310.612 19.5622 328.843 27.7273 344.288C54.5668 395.06 83.9672 420.77 112.648 440.147C154.69 468.549 197.073 477.584 239.491 479.5C240.561 479.548 240.739 486.518 239.686 487.425C237.788 489.061 235.437 487.437 233.495 487.369C227.915 487.174 222.336 486.791 216.756 486.211C200.213 484.492 183.671 480.991 167.162 475.358C122.275 460.044 73.877 433.821 31.6097 359.962C28.9507 355.316 26.3128 350.424 23.7123 345.167C21.6325 340.963 19.573 336.556 17.5498 331.843C10.895 316.342 -4.61274 276.658 -1.37541 234.299ZM239.52 487.5C238.5 487.531 238.241 481.034 239.214 479.685C240.685 477.647 242.889 479.326 244.439 479.229C250.878 478.826 257.315 478.229 263.75 477.421C281.396 475.205 299.028 471.422 316.621 465.596C360.257 451.145 407.17 429.115 448.305 361.431C450.923 357.123 453.519 352.553 456.079 347.641C463.86 332.712 483.362 293.084 481.107 243.821C480.917 239.668 482.182 237.181 482.748 240.743C483.468 245.279 483.176 254.736 482.977 259.768C482.342 275.883 479.867 289.512 477.257 300.518C468.987 335.399 457.377 355.623 446.744 372.51C412.184 427.397 374.649 449.524 338.156 465.424C305.425 479.686 272.445 486.484 239.52 487.5Z" fill="#401C02"/>
</g>
</g>
<g filter="url(#filter2_f_862_12580)">
<circle cx="306.021" cy="353" r="50" fill="#E66200" fill-opacity="0.75"/>
</g>
<path d="M305.539 324.6C305.439 324.3 305.239 324 305.139 323.7L304.739 323C304.539 322.7 304.439 322.4 304.239 322.2L304.139 322.1C304.039 321.9 303.839 321.7 303.739 321.5C302.539 320 301.239 318.6 299.839 317.3C297.339 315.2 294.639 313.3 291.839 311.6C286.639 308.5 281.139 305.8 275.539 303.5C272.739 302.4 269.939 301.3 267.139 300.3L266.239 300C265.139 299.6 264.039 299.2 262.939 298.9C261.539 298.4 260.139 298 258.639 297.6C255.339 296.6 252.539 295.9 249.939 295.3C247.639 294.8 245.839 294.4 244.139 294C243.539 293.9 242.939 294 242.439 294.3C241.939 294.6 241.539 295 241.239 295.6C241.039 296.1 241.039 296.7 241.139 297.3C241.339 297.9 241.739 298.3 242.239 298.6C243.839 299.6 245.439 300.6 247.139 301.6C249.339 302.9 251.539 304.2 253.739 305.5L269.339 314.6C274.139 317.5 278.939 320.3 283.239 323.3C285.239 324.7 287.139 326.2 288.939 327.8C289.439 328.2 289.839 328.7 290.339 329.2L290.439 329.4L290.339 329.5C289.939 330 289.439 330.5 288.939 331C287.139 332.6 285.239 334.1 283.239 335.5C278.739 338.6 273.939 341.5 269.339 344.2L252.839 353.8C252.339 354.1 251.939 354.5 251.639 355C251.339 355.5 251.239 356.1 251.239 356.7C251.239 357.3 251.439 357.9 251.639 358.4C251.939 358.9 252.339 359.3 252.839 359.6L255.739 361.3L269.839 369.5C274.039 372 278.139 374.5 281.939 377.1C283.739 378.3 285.339 379.6 286.939 381C287.339 381.4 287.739 381.8 288.139 382.2C287.739 382.6 287.339 383 286.939 383.4C285.339 384.8 283.739 386.1 281.939 387.3C278.039 390 273.839 392.5 269.839 394.9L256.139 402.9C254.239 404 252.339 405.1 250.439 406.3C249.039 407.1 247.639 408 246.239 408.9C245.739 409.2 245.339 409.6 245.239 410.2C245.039 410.7 245.039 411.3 245.239 411.8C245.439 412.3 245.739 412.6 246.139 412.9C246.539 413.2 247.039 413.3 247.539 413.3C247.739 413.3 247.839 413.3 248.039 413.2C249.539 412.9 251.139 412.5 253.039 412.1C255.339 411.6 257.739 410.9 260.639 410.1C263.539 409.3 265.839 408.5 268.139 407.7C270.339 406.9 272.839 406 275.539 404.9C280.539 402.9 285.239 400.6 289.839 397.9C292.339 396.4 294.639 394.8 296.839 392.9C298.139 391.8 299.239 390.6 300.339 389.2C300.539 389 300.639 388.8 300.839 388.5C301.039 388.2 301.139 388.1 301.239 387.9L301.639 387.2C301.739 387 301.839 386.7 302.039 386.4C302.639 385.1 302.939 383.7 302.939 382.2C302.939 380.8 302.639 379.3 302.039 378C301.939 377.8 301.839 377.5 301.639 377.2L301.239 376.5C300.839 376.2 300.739 376 300.539 375.7L300.439 375.5C300.339 375.3 300.239 375.2 300.139 375C299.139 373.7 297.939 372.4 296.639 371.3C294.439 369.4 292.139 367.8 289.639 366.3C285.039 363.6 280.239 361.3 275.339 359.3C273.439 358.5 271.539 357.8 269.739 357.1C271.539 356.4 273.439 355.7 275.539 354.9C281.139 352.6 286.639 350 291.939 346.9C294.739 345.3 297.439 343.4 299.939 341.2C301.439 340 302.739 338.6 303.839 337C303.939 336.8 304.039 336.7 304.239 336.5L304.339 336.3C304.339 336.2 304.539 336 304.639 335.7L305.139 334.9C305.239 334.6 305.439 334.3 305.539 334C306.139 332.5 306.539 330.9 306.539 329.3C306.539 327.7 306.239 326.1 305.539 324.6Z" fill="url(#paint4_radial_862_12580)"/>
<path d="M247.339 414.2C247.539 414.2 247.839 414.2 248.039 414.1C249.739 413.8 251.339 413.4 253.139 413C255.439 412.5 257.739 411.8 260.839 411C263.439 410.3 265.639 409.5 267.639 408.8L268.339 408.5C271.039 407.6 273.439 406.6 275.739 405.7C280.739 403.7 285.639 401.3 290.239 398.6C292.739 397.1 295.139 395.4 297.339 393.5C298.639 392.4 299.939 391.1 300.939 389.7C301.139 389.5 301.239 389.2 301.439 388.9L301.539 388.7C301.639 388.5 301.739 388.4 301.839 388.2L302.239 387.5C302.339 387.3 302.539 387 302.639 386.7C303.339 385.2 303.639 383.7 303.639 382.1C303.639 380.5 303.339 378.9 302.639 377.5L302.539 377.2C302.439 377 302.339 376.9 302.339 376.7L301.839 376C301.639 375.7 301.539 375.5 301.339 375.2L301.239 375C301.139 374.8 301.039 374.6 300.839 374.5C299.739 373.1 298.539 371.8 297.239 370.7C295.039 368.8 292.639 367.1 290.139 365.6C285.539 362.9 280.639 360.5 275.639 358.5C274.539 358 273.539 357.6 272.539 357.2C273.539 356.8 274.639 356.4 275.839 355.9C281.539 353.6 287.039 350.9 292.339 347.8C295.239 346.1 297.939 344.2 300.439 342.1C301.939 340.8 303.339 339.4 304.539 337.8C304.639 337.7 304.739 337.6 304.839 337.4L305.039 337C305.239 336.7 305.439 336.4 305.539 336.2L306.039 335.4C306.239 335.1 306.339 334.8 306.539 334.4C307.139 332.8 307.539 331.1 307.539 329.3C307.539 327.5 307.139 325.8 306.439 324.2C306.339 323.9 306.139 323.6 306.039 323.3L305.639 322.5C305.439 322.2 305.239 321.9 305.039 321.6L304.939 321.5C304.839 321.4 304.739 321.2 304.639 321L304.539 320.9C303.339 319.3 301.939 317.8 300.439 316.5C297.939 314.4 295.139 312.4 292.339 310.7C287.039 307.6 281.539 304.9 275.839 302.6C273.039 301.5 270.239 300.4 267.339 299.4L266.439 299.1C265.339 298.7 264.239 298.3 263.039 298C261.639 297.5 260.239 297.1 258.739 296.7C255.639 295.8 252.939 295 250.039 294.4C247.739 293.9 245.939 293.5 244.239 293.1C243.439 292.9 242.639 293.1 241.839 293.5C241.139 293.9 240.539 294.5 240.239 295.3C239.939 296.1 239.939 296.9 240.139 297.7C240.439 298.5 240.939 299.1 241.639 299.6C243.239 300.6 244.839 301.6 246.539 302.5C248.739 303.8 250.939 305.1 253.139 306.4L268.739 315.5C273.339 318.2 278.239 321.1 282.539 324.2C284.539 325.5 286.439 327 288.139 328.6C288.439 328.9 288.739 329.1 288.939 329.4C288.639 329.7 288.439 330 288.139 330.2C286.339 331.8 284.439 333.3 282.539 334.6C278.139 337.6 273.539 340.4 268.639 343.3L252.139 352.9C251.439 353.3 250.939 353.8 250.539 354.5C250.139 355.2 249.939 355.9 249.939 356.7C249.939 357.5 250.139 358.2 250.539 358.9C250.939 359.6 251.439 360.1 252.139 360.5L255.139 362L269.239 370.2C272.939 372.4 277.339 375 281.339 377.8C283.039 379 284.739 380.2 286.239 381.6C286.439 381.7 286.539 381.9 286.739 382.1C286.539 382.3 286.439 382.4 286.239 382.6C284.739 384 283.039 385.3 281.339 386.4C277.539 389 273.439 391.5 269.239 394L255.539 402C253.639 403.1 251.739 404.2 249.839 405.4L249.139 405.8C247.939 406.5 246.839 407.2 245.639 407.9C244.939 408.3 244.439 408.9 244.139 409.7C243.839 410.5 243.939 411.3 244.239 412C244.539 412.6 244.939 413.2 245.539 413.6C245.939 414 246.639 414.2 247.339 414.2ZM304.639 325C305.239 326.4 305.539 327.8 305.539 329.3C305.539 330.8 305.239 332.2 304.639 333.6C304.539 333.9 304.339 334.2 304.239 334.4L303.839 335.2C303.739 335.5 303.539 335.7 303.439 335.9L303.139 336.3C303.039 336.4 303.039 336.5 302.939 336.6C301.839 338.1 300.539 339.4 299.139 340.6C296.739 342.7 294.039 344.5 291.239 346.1C286.039 349.1 280.639 351.8 275.039 354C272.939 354.8 271.139 355.6 269.339 356.2L266.739 357.1L269.339 358C271.139 358.6 273.039 359.4 274.939 360.2C279.839 362.1 284.639 364.5 289.139 367.1C291.539 368.5 293.839 370.2 296.039 372C297.239 373.1 298.439 374.2 299.339 375.5C299.439 375.6 299.539 375.8 299.639 375.9L299.739 376.1C299.939 376.4 300.039 376.6 300.139 376.8L300.539 377.6C300.539 377.7 300.639 377.9 300.739 378L300.839 378.3C301.339 379.5 301.639 380.7 301.639 382.1C301.639 383.5 301.339 384.7 300.839 385.9C300.739 386.2 300.639 386.4 300.439 386.7L300.039 387.4C299.939 387.5 299.939 387.6 299.839 387.7L299.639 388C299.439 388.3 299.339 388.5 299.239 388.6C298.239 389.9 297.139 391.1 295.939 392.1C293.839 393.9 291.539 395.6 289.039 397C284.539 399.7 279.739 402 274.839 403.9C272.539 404.8 270.139 405.7 267.539 406.7L266.839 407C264.839 407.7 262.739 408.4 260.239 409.1C257.239 409.9 254.839 410.6 252.639 411.1C250.839 411.5 249.339 411.9 247.639 412.2C247.539 412.2 247.439 412.2 247.339 412.2C247.039 412.2 246.739 412.1 246.539 412C246.339 411.8 246.139 411.6 246.039 411.3C245.939 411 245.939 410.7 246.039 410.4C246.139 410.1 246.339 409.8 246.639 409.7C247.839 409 248.939 408.3 250.139 407.6L250.839 407.2C252.739 406.1 254.639 404.9 256.539 403.8L270.239 395.8C274.439 393.3 278.639 390.8 282.439 388.1C284.239 386.9 285.939 385.6 287.539 384.1C287.939 383.7 288.439 383.3 288.739 382.8L289.339 382.2L288.739 381.5C288.339 381 287.939 380.6 287.439 380.2C285.839 378.8 284.139 377.4 282.339 376.2C278.339 373.4 273.939 370.8 270.139 368.5L253.139 358.6C252.739 358.4 252.539 358.1 252.339 357.7C252.139 357.3 252.039 356.9 252.039 356.5C252.039 356.1 252.139 355.7 252.339 355.3C252.539 354.9 252.839 354.7 253.139 354.4L269.639 344.8C274.539 341.9 279.239 339.1 283.639 336C285.639 334.6 287.639 333.1 289.439 331.4C289.939 330.9 290.439 330.4 290.939 329.8L291.539 329.1L290.839 328.3C290.439 327.8 289.939 327.3 289.439 326.8C287.639 325.1 285.639 323.6 283.639 322.2C279.239 319.1 274.339 316.2 269.639 313.5L254.039 304.4C251.839 303.1 249.639 301.8 247.439 300.5C245.839 299.5 244.239 298.6 242.539 297.6C242.239 297.4 242.039 297.1 241.939 296.8C241.839 296.5 241.839 296.1 241.939 295.8C242.039 295.5 242.339 295.2 242.639 295C243.139 295 243.439 295 243.839 295C245.539 295.4 247.339 295.7 249.539 296.3C252.439 297 255.139 297.7 258.139 298.6C259.539 299 260.939 299.5 262.439 299.9C263.539 300.3 264.639 300.7 265.739 301L266.639 301.3C269.439 302.3 272.239 303.3 275.039 304.5C280.639 306.7 286.039 309.4 291.239 312.5C294.039 314.1 296.639 316 299.139 318.1C300.539 319.3 301.839 320.7 302.939 322.1L303.039 322.2C303.139 322.3 303.239 322.5 303.339 322.6L303.439 322.8C303.539 323 303.739 323.2 303.839 323.5L304.239 324.3C304.439 324.5 304.539 324.7 304.639 325Z" fill="url(#paint5_linear_862_12580)"/>
<path d="M206.501 212.02C206.554 220.759 205.204 229.449 202.501 237.76C202.218 238.697 201.645 239.52 200.866 240.113C200.087 240.705 199.14 241.037 198.161 241.06C197.044 241.027 195.974 240.597 195.144 239.848C194.314 239.099 193.778 238.079 193.631 236.97C190.551 218.51 178.571 204.75 164.251 204.75C149.931 204.75 137.951 218.51 134.871 236.97C134.725 238.079 134.189 239.099 133.359 239.848C132.529 240.597 131.459 241.027 130.341 241.06C129.363 241.035 128.417 240.703 127.639 240.111C126.86 239.519 126.287 238.696 126.001 237.76C123.299 229.449 121.949 220.759 122.001 212.02C122.001 178.77 140.941 151.81 164.301 151.81C187.661 151.81 206.501 178.77 206.501 212.02Z" fill="url(#paint6_radial_862_12580)"/>
<path d="M206.501 212.02C206.554 220.759 205.204 229.449 202.501 237.76C202.218 238.697 201.645 239.52 200.866 240.113C200.087 240.705 199.14 241.037 198.161 241.06V241.06C197.044 241.027 195.974 240.597 195.144 239.848C194.314 239.099 193.778 238.079 193.631 236.97C190.551 218.51 178.571 204.75 164.251 204.75C149.931 204.75 137.951 218.51 134.871 236.97C134.725 238.079 134.189 239.099 133.359 239.848C132.529 240.597 131.459 241.027 130.341 241.06V241.06C129.363 241.035 128.417 240.703 127.639 240.111C126.86 239.519 126.287 238.696 126.001 237.76C123.299 229.449 121.949 220.759 122.001 212.02C122.001 178.77 140.941 151.81 164.301 151.81C187.661 151.81 206.501 178.77 206.501 212.02Z" stroke="url(#paint7_linear_862_12580)" stroke-width="2" stroke-miterlimit="10"/>
<path d="M360.882 212.02C360.918 220.762 359.551 229.452 356.832 237.76C356.548 238.697 355.975 239.52 355.196 240.113C354.417 240.705 353.47 241.037 352.492 241.06C351.374 241.027 350.304 240.597 349.475 239.848C348.645 239.099 348.108 238.079 347.962 236.97C344.882 218.51 332.902 204.75 318.582 204.75C304.262 204.75 292.282 218.51 289.202 236.97C289.055 238.079 288.519 239.099 287.689 239.848C286.859 240.597 285.789 241.027 284.672 241.06C283.693 241.037 282.746 240.705 281.967 240.113C281.188 239.52 280.616 238.697 280.332 237.76C277.629 229.449 276.279 220.759 276.332 212.02C276.332 178.77 295.272 151.81 318.632 151.81C341.992 151.81 360.882 178.77 360.882 212.02Z" fill="url(#paint8_radial_862_12580)"/>
<path d="M360.882 212.02C360.918 220.762 359.551 229.452 356.832 237.76C356.548 238.697 355.975 239.52 355.196 240.113C354.417 240.705 353.47 241.037 352.492 241.06C351.374 241.027 350.304 240.597 349.475 239.848C348.645 239.099 348.108 238.079 347.962 236.97C344.882 218.51 332.902 204.75 318.582 204.75C304.262 204.75 292.282 218.51 289.202 236.97C289.055 238.079 288.519 239.099 287.689 239.848C286.859 240.597 285.789 241.027 284.672 241.06C283.693 241.037 282.746 240.705 281.967 240.113C281.188 239.52 280.616 238.697 280.332 237.76C277.629 229.449 276.279 220.759 276.332 212.02C276.332 178.77 295.272 151.81 318.632 151.81C341.992 151.81 360.882 178.77 360.882 212.02Z" fill="url(#paint9_radial_862_12580)"/>
<path d="M360.882 212.02C360.918 220.762 359.551 229.452 356.832 237.76C356.548 238.697 355.975 239.52 355.196 240.113C354.417 240.705 353.47 241.037 352.492 241.06V241.06C351.374 241.027 350.304 240.597 349.475 239.848C348.645 239.099 348.108 238.079 347.962 236.97C344.882 218.51 332.902 204.75 318.582 204.75C304.262 204.75 292.282 218.51 289.202 236.97C289.055 238.079 288.519 239.099 287.689 239.848C286.859 240.597 285.789 241.027 284.672 241.06C283.693 241.037 282.746 240.705 281.967 240.113C281.188 239.52 280.616 238.697 280.332 237.76C277.629 229.449 276.279 220.759 276.332 212.02C276.332 178.77 295.272 151.81 318.632 151.81C341.992 151.81 360.882 178.77 360.882 212.02Z" stroke="url(#paint10_linear_862_12580)" stroke-width="2" stroke-miterlimit="10"/>
<defs>
<filter id="filter0_f_862_12580" x="-26.8145" y="206.558" width="535.021" height="306.595" filterUnits="userSpaceOnUse" color-interpolation-filters="sRGB">
<feFlood flood-opacity="0" result="BackgroundImageFix"/>
<feBlend mode="normal" in="SourceGraphic" in2="BackgroundImageFix" result="shape"/>
<feGaussianBlur stdDeviation="12.5" result="effect1_foregroundBlur_862_12580"/>
</filter>
<filter id="filter1_f_862_12580" x="-41.8145" y="191.558" width="565.021" height="336.595" filterUnits="userSpaceOnUse" color-interpolation-filters="sRGB">
<feFlood flood-opacity="0" result="BackgroundImageFix"/>
<feBlend mode="normal" in="SourceGraphic" in2="BackgroundImageFix" result="shape"/>
<feGaussianBlur stdDeviation="20" result="effect1_foregroundBlur_862_12580"/>
</filter>
<filter id="filter2_f_862_12580" x="196.021" y="243" width="220" height="220" filterUnits="userSpaceOnUse" color-interpolation-filters="sRGB">
<feFlood flood-opacity="0" result="BackgroundImageFix"/>
<feBlend mode="normal" in="SourceGraphic" in2="BackgroundImageFix" result="shape"/>
<feGaussianBlur stdDeviation="30" result="effect1_foregroundBlur_862_12580"/>
</filter>
<radialGradient id="paint0_radial_862_12580" cx="0" cy="0" r="1" gradientUnits="userSpaceOnUse" gradientTransform="translate(241 -4.53898e-06) rotate(90) scale(482)">
<stop stop-color="#FFDE43"/>
<stop offset="1" stop-color="#FFBC00"/>
</radialGradient>
<radialGradient id="paint1_radial_862_12580" cx="0" cy="0" r="1" gradientUnits="userSpaceOnUse" gradientTransform="translate(241 64.5) rotate(90) scale(417.5)">
<stop stop-color="white" stop-opacity="0.5"/>
<stop offset="0.782278"/>
</radialGradient>
<radialGradient id="paint2_radial_862_12580" cx="0" cy="0" r="1" gradientUnits="userSpaceOnUse" gradientTransform="translate(241 64.5) rotate(90) scale(417.5)">
<stop stop-color="white" stop-opacity="0.5"/>
<stop offset="0.782278"/>
</radialGradient>
<radialGradient id="paint3_radial_862_12580" cx="0" cy="0" r="1" gradientUnits="userSpaceOnUse" gradientTransform="translate(241 -52.5) rotate(90) scale(534.5 722.835)">
<stop offset="0.0922635" stop-color="white"/>
<stop offset="0.670207" stop-color="white" stop-opacity="0"/>
</radialGradient>
<radialGradient id="paint4_radial_862_12580" cx="0" cy="0" r="1" gradientUnits="userSpaceOnUse" gradientTransform="translate(273.762 353.336) scale(24.7525 120.419)">
<stop stop-color="#743C1C"/>
<stop offset="1" stop-color="#401C02"/>
</radialGradient>
<linearGradient id="paint5_linear_862_12580" x1="307.539" y1="353.581" x2="239.987" y2="353.581" gradientUnits="userSpaceOnUse">
<stop stop-color="#FFDE43"/>
<stop offset="0.22" stop-color="#FED93F"/>
<stop offset="0.51" stop-color="#FCC934"/>
<stop offset="0.82" stop-color="#F9AF21"/>
<stop offset="1" stop-color="#F79D14"/>
</linearGradient>
<radialGradient id="paint6_radial_862_12580" cx="0" cy="0" r="1" gradientUnits="userSpaceOnUse" gradientTransform="translate(164.193 196.405) scale(53.8604 44.7024)">
<stop stop-color="#743C1C"/>
<stop offset="1" stop-color="#401C02"/>
</radialGradient>
<linearGradient id="paint7_linear_862_12580" x1="164.251" y1="243.571" x2="164.251" y2="148.938" gradientUnits="userSpaceOnUse">
<stop stop-color="#FFDE43"/>
<stop offset="0.22" stop-color="#FED93F"/>
<stop offset="0.51" stop-color="#FCC934"/>
<stop offset="0.82" stop-color="#F9AF21"/>
<stop offset="1" stop-color="#F79D14"/>
</linearGradient>
<radialGradient id="paint8_radial_862_12580" cx="0" cy="0" r="1" gradientUnits="userSpaceOnUse" gradientTransform="translate(318.582 196.382) scale(41.65 45.3985)">
<stop stop-color="#743C1C"/>
<stop offset="1" stop-color="#401C02"/>
</radialGradient>
<radialGradient id="paint9_radial_862_12580" cx="0" cy="0" r="1" gradientUnits="userSpaceOnUse" gradientTransform="translate(318.548 196.405) scale(53.8918 44.7024)">
<stop stop-color="#743C1C"/>
<stop offset="1" stop-color="#401C02"/>
</radialGradient>
<linearGradient id="paint10_linear_862_12580" x1="318.606" y1="243.571" x2="318.606" y2="148.938" gradientUnits="userSpaceOnUse">
<stop stop-color="#FFDE43"/>
<stop offset="0.22" stop-color="#FED93F"/>
<stop offset="0.51" stop-color="#FCC934"/>
<stop offset="0.82" stop-color="#F9AF21"/>
<stop offset="1" stop-color="#F79D14"/>
</linearGradient>
</defs>
</svg>
