<svg width="487" height="483" viewBox="0 0 487 483" fill="none" xmlns="http://www.w3.org/2000/svg">
<path d="M243.18 482.36C376.38 482.36 484.36 374.38 484.36 241.18C484.36 107.98 376.38 0 243.18 0C109.98 0 2 107.98 2 241.18C2 374.38 109.98 482.36 243.18 482.36Z" fill="url(#paint0_radial_862_12555)"/>
<g style="mix-blend-mode:soft-light">
<path d="M243.18 482.36C376.38 482.36 484.36 374.38 484.36 241.18C484.36 107.98 376.38 0 243.18 0C109.98 0 2 107.98 2 241.18C2 374.38 109.98 482.36 243.18 482.36Z" fill="url(#paint1_radial_862_12555)"/>
</g>
<g style="mix-blend-mode:soft-light">
<path d="M243.18 482.36C376.38 482.36 484.36 374.38 484.36 241.18C484.36 107.98 376.38 0 243.18 0C109.98 0 2 107.98 2 241.18C2 374.38 109.98 482.36 243.18 482.36Z" fill="url(#paint2_radial_862_12555)"/>
</g>
<g style="mix-blend-mode:overlay">
<path d="M243.18 482.36C376.38 482.36 484.36 374.38 484.36 241.18C484.36 107.98 376.38 0 243.18 0C109.98 0 2 107.98 2 241.18C2 374.38 109.98 482.36 243.18 482.36Z" fill="url(#paint3_radial_862_12555)" fill-opacity="0.7"/>
</g>
<mask id="mask0_862_12555" style="mask-type:alpha" maskUnits="userSpaceOnUse" x="2" y="0" width="483" height="483">
<path d="M243.18 482.36C376.38 482.36 484.36 374.38 484.36 241.18C484.36 107.98 376.38 0 243.18 0C109.98 0 2 107.98 2 241.18C2 374.38 109.98 482.36 243.18 482.36Z" fill="white"/>
</mask>
<g mask="url(#mask0_862_12555)">
<g filter="url(#filter0_f_862_12555)">
<path d="M0.624586 234.299C0.886471 230.872 2.01419 230.529 2.34311 234.008C2.70854 237.874 1.99817 245.646 2.1692 250.335C2.62204 262.748 4.5249 273.541 6.48654 282.32C12.808 310.612 21.5622 328.843 29.7273 344.288C56.5668 395.06 85.9672 420.77 114.648 440.147C156.69 468.549 199.073 477.584 241.491 479.5C242.561 479.548 242.739 486.518 241.686 487.425C239.788 489.061 237.437 487.437 235.495 487.369C229.915 487.174 224.336 486.791 218.756 486.211C202.213 484.492 185.671 480.991 169.162 475.358C124.275 460.044 75.877 433.821 33.6097 359.962C30.9507 355.316 28.3128 350.424 25.7123 345.167C23.6325 340.963 21.573 336.556 19.5498 331.843C12.895 316.342 -2.61274 276.658 0.624586 234.299ZM241.52 487.5C240.5 487.531 240.241 481.034 241.214 479.685C242.685 477.647 244.889 479.326 246.439 479.229C252.878 478.826 259.315 478.229 265.75 477.421C283.396 475.205 301.028 471.422 318.621 465.596C362.257 451.145 409.17 429.115 450.305 361.431C452.923 357.123 455.519 352.553 458.079 347.641C465.86 332.712 485.362 293.084 483.107 243.821C482.917 239.668 484.182 237.181 484.748 240.743C485.468 245.279 485.176 254.736 484.977 259.768C484.342 275.883 481.867 289.512 479.257 300.518C470.987 335.399 459.377 355.623 448.744 372.51C414.184 427.397 376.649 449.524 340.156 465.424C307.425 479.686 274.445 486.484 241.52 487.5Z" fill="#401C02"/>
</g>
<g filter="url(#filter1_f_862_12555)">
<path d="M0.624586 234.299C0.886471 230.872 2.01419 230.529 2.34311 234.008C2.70854 237.874 1.99817 245.646 2.1692 250.335C2.62204 262.748 4.5249 273.541 6.48654 282.32C12.808 310.612 21.5622 328.843 29.7273 344.288C56.5668 395.06 85.9672 420.77 114.648 440.147C156.69 468.549 199.073 477.584 241.491 479.5C242.561 479.548 242.739 486.518 241.686 487.425C239.788 489.061 237.437 487.437 235.495 487.369C229.915 487.174 224.336 486.791 218.756 486.211C202.213 484.492 185.671 480.991 169.162 475.358C124.275 460.044 75.877 433.821 33.6097 359.962C30.9507 355.316 28.3128 350.424 25.7123 345.167C23.6325 340.963 21.573 336.556 19.5498 331.843C12.895 316.342 -2.61274 276.658 0.624586 234.299ZM241.52 487.5C240.5 487.531 240.241 481.034 241.214 479.685C242.685 477.647 244.889 479.326 246.439 479.229C252.878 478.826 259.315 478.229 265.75 477.421C283.396 475.205 301.028 471.422 318.621 465.596C362.257 451.145 409.17 429.115 450.305 361.431C452.923 357.123 455.519 352.553 458.079 347.641C465.86 332.712 485.362 293.084 483.107 243.821C482.917 239.668 484.182 237.181 484.748 240.743C485.468 245.279 485.176 254.736 484.977 259.768C484.342 275.883 481.867 289.512 479.257 300.518C470.987 335.399 459.377 355.623 448.744 372.51C414.184 427.397 376.649 449.524 340.156 465.424C307.425 479.686 274.445 486.484 241.52 487.5Z" fill="#401C02"/>
</g>
</g>
<g filter="url(#filter2_f_862_12555)">
<circle cx="308.021" cy="353" r="50" fill="#E66200" fill-opacity="0.75"/>
</g>
<path d="M303.539 324.6C303.439 324.3 303.239 324 303.139 323.7L302.739 323C302.539 322.7 302.439 322.4 302.239 322.2L302.139 322.1C302.039 321.9 301.839 321.7 301.739 321.5C300.539 320 299.239 318.6 297.839 317.3C295.339 315.2 292.639 313.3 289.839 311.6C284.639 308.5 279.139 305.8 273.539 303.5C270.739 302.4 267.939 301.3 265.139 300.3L264.239 300C263.139 299.6 262.039 299.2 260.939 298.9C259.539 298.4 258.139 298 256.639 297.6C253.339 296.6 250.539 295.9 247.939 295.3C245.639 294.8 243.839 294.4 242.139 294C241.539 293.9 240.939 294 240.439 294.3C239.939 294.6 239.539 295 239.239 295.6C239.039 296.1 239.039 296.7 239.139 297.3C239.339 297.9 239.739 298.3 240.239 298.6C241.839 299.6 243.439 300.6 245.139 301.6C247.339 302.9 249.539 304.2 251.739 305.5L267.339 314.6C272.139 317.5 276.939 320.3 281.239 323.3C283.239 324.7 285.139 326.2 286.939 327.8C287.439 328.2 287.839 328.7 288.339 329.2L288.439 329.4L288.339 329.5C287.939 330 287.439 330.5 286.939 331C285.139 332.6 283.239 334.1 281.239 335.5C276.739 338.6 271.939 341.5 267.339 344.2L250.839 353.8C250.339 354.1 249.939 354.5 249.639 355C249.339 355.5 249.239 356.1 249.239 356.7C249.239 357.3 249.439 357.9 249.639 358.4C249.939 358.9 250.339 359.3 250.839 359.6L253.739 361.3L267.839 369.5C272.039 372 276.139 374.5 279.939 377.1C281.739 378.3 283.339 379.6 284.939 381C285.339 381.4 285.739 381.8 286.139 382.2C285.739 382.6 285.339 383 284.939 383.4C283.339 384.8 281.739 386.1 279.939 387.3C276.039 390 271.839 392.5 267.839 394.9L254.139 402.9C252.239 404 250.339 405.1 248.439 406.3C247.039 407.1 245.639 408 244.239 408.9C243.739 409.2 243.339 409.6 243.239 410.2C243.039 410.7 243.039 411.3 243.239 411.8C243.439 412.3 243.739 412.6 244.139 412.9C244.539 413.2 245.039 413.3 245.539 413.3C245.739 413.3 245.839 413.3 246.039 413.2C247.539 412.9 249.139 412.5 251.039 412.1C253.339 411.6 255.739 410.9 258.639 410.1C261.539 409.3 263.839 408.5 266.139 407.7C268.339 406.9 270.839 406 273.539 404.9C278.539 402.9 283.239 400.6 287.839 397.9C290.339 396.4 292.639 394.8 294.839 392.9C296.139 391.8 297.239 390.6 298.339 389.2C298.539 389 298.639 388.8 298.839 388.5C299.039 388.2 299.139 388.1 299.239 387.9L299.639 387.2C299.739 387 299.839 386.7 300.039 386.4C300.639 385.1 300.939 383.7 300.939 382.2C300.939 380.8 300.639 379.3 300.039 378C299.939 377.8 299.839 377.5 299.639 377.2L299.239 376.5C298.839 376.2 298.739 376 298.539 375.7L298.439 375.5C298.339 375.3 298.239 375.2 298.139 375C297.139 373.7 295.939 372.4 294.639 371.3C292.439 369.4 290.139 367.8 287.639 366.3C283.039 363.6 278.239 361.3 273.339 359.3C271.439 358.5 269.539 357.8 267.739 357.1C269.539 356.4 271.439 355.7 273.539 354.9C279.139 352.6 284.639 350 289.939 346.9C292.739 345.3 295.439 343.4 297.939 341.2C299.439 340 300.739 338.6 301.839 337C301.939 336.8 302.039 336.7 302.239 336.5L302.339 336.3C302.339 336.2 302.539 336 302.639 335.7L303.139 334.9C303.239 334.6 303.439 334.3 303.539 334C304.139 332.5 304.539 330.9 304.539 329.3C304.539 327.7 304.239 326.1 303.539 324.6Z" fill="url(#paint4_radial_862_12555)"/>
<path d="M245.339 414.2C245.539 414.2 245.839 414.2 246.039 414.1C247.739 413.8 249.339 413.4 251.139 413C253.439 412.5 255.739 411.8 258.839 411C261.439 410.3 263.639 409.5 265.639 408.8L266.339 408.5C269.039 407.6 271.439 406.6 273.739 405.7C278.739 403.7 283.639 401.3 288.239 398.6C290.739 397.1 293.139 395.4 295.339 393.5C296.639 392.4 297.939 391.1 298.939 389.7C299.139 389.5 299.239 389.2 299.439 388.9L299.539 388.7C299.639 388.5 299.739 388.4 299.839 388.2L300.239 387.5C300.339 387.3 300.539 387 300.639 386.7C301.339 385.2 301.639 383.7 301.639 382.1C301.639 380.5 301.339 378.9 300.639 377.5L300.539 377.2C300.439 377 300.339 376.9 300.339 376.7L299.839 376C299.639 375.7 299.539 375.5 299.339 375.2L299.239 375C299.139 374.8 299.039 374.6 298.839 374.5C297.739 373.1 296.539 371.8 295.239 370.7C293.039 368.8 290.639 367.1 288.139 365.6C283.539 362.9 278.639 360.5 273.639 358.5C272.539 358 271.539 357.6 270.539 357.2C271.539 356.8 272.639 356.4 273.839 355.9C279.539 353.6 285.039 350.9 290.339 347.8C293.239 346.1 295.939 344.2 298.439 342.1C299.939 340.8 301.339 339.4 302.539 337.8C302.639 337.7 302.739 337.6 302.839 337.4L303.039 337C303.239 336.7 303.439 336.4 303.539 336.2L304.039 335.4C304.239 335.1 304.339 334.8 304.539 334.4C305.139 332.8 305.539 331.1 305.539 329.3C305.539 327.5 305.139 325.8 304.439 324.2C304.339 323.9 304.139 323.6 304.039 323.3L303.639 322.5C303.439 322.2 303.239 321.9 303.039 321.6L302.939 321.5C302.839 321.4 302.739 321.2 302.639 321L302.539 320.9C301.339 319.3 299.939 317.8 298.439 316.5C295.939 314.4 293.139 312.4 290.339 310.7C285.039 307.6 279.539 304.9 273.839 302.6C271.039 301.5 268.239 300.4 265.339 299.4L264.439 299.1C263.339 298.7 262.239 298.3 261.039 298C259.639 297.5 258.239 297.1 256.739 296.7C253.639 295.8 250.939 295 248.039 294.4C245.739 293.9 243.939 293.5 242.239 293.1C241.439 292.9 240.639 293.1 239.839 293.5C239.139 293.9 238.539 294.5 238.239 295.3C237.939 296.1 237.939 296.9 238.139 297.7C238.439 298.5 238.939 299.1 239.639 299.6C241.239 300.6 242.839 301.6 244.539 302.5C246.739 303.8 248.939 305.1 251.139 306.4L266.739 315.5C271.339 318.2 276.239 321.1 280.539 324.2C282.539 325.5 284.439 327 286.139 328.6C286.439 328.9 286.739 329.1 286.939 329.4C286.639 329.7 286.439 330 286.139 330.2C284.339 331.8 282.439 333.3 280.539 334.6C276.139 337.6 271.539 340.4 266.639 343.3L250.139 352.9C249.439 353.3 248.939 353.8 248.539 354.5C248.139 355.2 247.939 355.9 247.939 356.7C247.939 357.5 248.139 358.2 248.539 358.9C248.939 359.6 249.439 360.1 250.139 360.5L253.139 362L267.239 370.2C270.939 372.4 275.339 375 279.339 377.8C281.039 379 282.739 380.2 284.239 381.6C284.439 381.7 284.539 381.9 284.739 382.1C284.539 382.3 284.439 382.4 284.239 382.6C282.739 384 281.039 385.3 279.339 386.4C275.539 389 271.439 391.5 267.239 394L253.539 402C251.639 403.1 249.739 404.2 247.839 405.4L247.139 405.8C245.939 406.5 244.839 407.2 243.639 407.9C242.939 408.3 242.439 408.9 242.139 409.7C241.839 410.5 241.939 411.3 242.239 412C242.539 412.6 242.939 413.2 243.539 413.6C243.939 414 244.639 414.2 245.339 414.2ZM302.639 325C303.239 326.4 303.539 327.8 303.539 329.3C303.539 330.8 303.239 332.2 302.639 333.6C302.539 333.9 302.339 334.2 302.239 334.4L301.839 335.2C301.739 335.5 301.539 335.7 301.439 335.9L301.139 336.3C301.039 336.4 301.039 336.5 300.939 336.6C299.839 338.1 298.539 339.4 297.139 340.6C294.739 342.7 292.039 344.5 289.239 346.1C284.039 349.1 278.639 351.8 273.039 354C270.939 354.8 269.139 355.6 267.339 356.2L264.739 357.1L267.339 358C269.139 358.6 271.039 359.4 272.939 360.2C277.839 362.1 282.639 364.5 287.139 367.1C289.539 368.5 291.839 370.2 294.039 372C295.239 373.1 296.439 374.2 297.339 375.5C297.439 375.6 297.539 375.8 297.639 375.9L297.739 376.1C297.939 376.4 298.039 376.6 298.139 376.8L298.539 377.6C298.539 377.7 298.639 377.9 298.739 378L298.839 378.3C299.339 379.5 299.639 380.7 299.639 382.1C299.639 383.5 299.339 384.7 298.839 385.9C298.739 386.2 298.639 386.4 298.439 386.7L298.039 387.4C297.939 387.5 297.939 387.6 297.839 387.7L297.639 388C297.439 388.3 297.339 388.5 297.239 388.6C296.239 389.9 295.139 391.1 293.939 392.1C291.839 393.9 289.539 395.6 287.039 397C282.539 399.7 277.739 402 272.839 403.9C270.539 404.8 268.139 405.7 265.539 406.7L264.839 407C262.839 407.7 260.739 408.4 258.239 409.1C255.239 409.9 252.839 410.6 250.639 411.1C248.839 411.5 247.339 411.9 245.639 412.2C245.539 412.2 245.439 412.2 245.339 412.2C245.039 412.2 244.739 412.1 244.539 412C244.339 411.8 244.139 411.6 244.039 411.3C243.939 411 243.939 410.7 244.039 410.4C244.139 410.1 244.339 409.8 244.639 409.7C245.839 409 246.939 408.3 248.139 407.6L248.839 407.2C250.739 406.1 252.639 404.9 254.539 403.8L268.239 395.8C272.439 393.3 276.639 390.8 280.439 388.1C282.239 386.9 283.939 385.6 285.539 384.1C285.939 383.7 286.439 383.3 286.739 382.8L287.339 382.2L286.739 381.5C286.339 381 285.939 380.6 285.439 380.2C283.839 378.8 282.139 377.4 280.339 376.2C276.339 373.4 271.939 370.8 268.139 368.5L251.139 358.6C250.739 358.4 250.539 358.1 250.339 357.7C250.139 357.3 250.039 356.9 250.039 356.5C250.039 356.1 250.139 355.7 250.339 355.3C250.539 354.9 250.839 354.7 251.139 354.4L267.639 344.8C272.539 341.9 277.239 339.1 281.639 336C283.639 334.6 285.639 333.1 287.439 331.4C287.939 330.9 288.439 330.4 288.939 329.8L289.539 329.1L288.839 328.3C288.439 327.8 287.939 327.3 287.439 326.8C285.639 325.1 283.639 323.6 281.639 322.2C277.239 319.1 272.339 316.2 267.639 313.5L252.039 304.4C249.839 303.1 247.639 301.8 245.439 300.5C243.839 299.5 242.239 298.6 240.539 297.6C240.239 297.4 240.039 297.1 239.939 296.8C239.839 296.5 239.839 296.1 239.939 295.8C240.039 295.5 240.339 295.2 240.639 295C241.139 295 241.439 295 241.839 295C243.539 295.4 245.339 295.7 247.539 296.3C250.439 297 253.139 297.7 256.139 298.6C257.539 299 258.939 299.5 260.439 299.9C261.539 300.3 262.639 300.7 263.739 301L264.639 301.3C267.439 302.3 270.239 303.3 273.039 304.5C278.639 306.7 284.039 309.4 289.239 312.5C292.039 314.1 294.639 316 297.139 318.1C298.539 319.3 299.839 320.7 300.939 322.1L301.039 322.2C301.139 322.3 301.239 322.5 301.339 322.6L301.439 322.8C301.539 323 301.739 323.2 301.839 323.5L302.239 324.3C302.439 324.5 302.539 324.7 302.639 325Z" fill="url(#paint5_linear_862_12555)"/>
<g opacity="0.7">
<g filter="url(#filter3_f_862_12555)">
<circle cx="377" cy="253" r="50" fill="#E66200"/>
</g>
<g filter="url(#filter4_f_862_12555)">
<circle cx="110" cy="253" r="50" fill="#E66200"/>
</g>
</g>
<path d="M63.5652 161.22C71.4952 153.16 120.775 106.51 166.745 139.86C168.253 141.02 169.37 142.612 169.949 144.424C170.528 146.236 170.541 148.181 169.985 150C169.648 151.27 168.918 152.4 167.9 153.23C166.881 154.059 165.627 154.546 164.315 154.62C149.885 156.06 123.365 138.5 81.0152 163.57C77.3248 165.814 73.7595 168.258 70.3352 170.89C67.8352 172.76 63.8452 174.99 61.4252 172.46C59.3552 170.3 59.9052 167.46 60.7952 165.3C61.4498 163.776 62.39 162.391 63.5652 161.22Z" fill="#42210B"/>
<path d="M422.585 161.22C414.645 153.16 365.365 106.51 319.405 139.86C317.895 141.018 316.776 142.61 316.197 144.423C315.617 146.235 315.606 148.181 316.165 150C316.501 151.27 317.23 152.401 318.249 153.231C319.267 154.061 320.523 154.548 321.835 154.62C336.255 156.06 362.785 138.5 405.135 163.57C408.822 165.819 412.387 168.262 415.815 170.89C418.315 172.76 422.305 174.99 424.725 172.46C426.795 170.3 426.245 167.46 425.345 165.3C424.693 163.777 423.756 162.392 422.585 161.22Z" fill="#42210B"/>
<path d="M183.585 247.56C180.054 245.548 176.271 244.014 172.335 243C157.255 239 142.655 243.31 129.505 250.95C114.795 259.49 101.505 236.71 116.195 228.18C143.575 212.28 179.025 209.43 204.755 230.24C217.615 240.64 200.125 258.53 187.115 249.64C185.976 248.876 184.798 248.171 183.585 247.53V247.56Z" fill="url(#paint6_radial_862_12555)"/>
<path d="M183.585 247.56C180.054 245.548 176.271 244.014 172.335 243C157.255 239 142.655 243.31 129.505 250.95C114.795 259.49 101.505 236.71 116.195 228.18C143.575 212.28 179.025 209.43 204.755 230.24C217.615 240.64 200.125 258.53 187.115 249.64C185.976 248.876 184.798 248.171 183.585 247.53V247.56Z" stroke="url(#paint7_linear_862_12555)" stroke-width="2" stroke-miterlimit="10"/>
<path d="M350.674 247.56C347.142 245.551 343.359 244.018 339.424 243C324.344 239 309.744 243.31 296.584 250.95C281.884 259.49 268.584 236.71 283.274 228.18C310.664 212.28 346.104 209.43 371.834 230.24C384.704 240.64 367.214 258.53 354.194 249.64C353.058 248.878 351.883 248.174 350.674 247.53V247.56Z" fill="url(#paint8_radial_862_12555)"/>
<path d="M350.674 247.56C347.142 245.551 343.359 244.018 339.424 243C324.344 239 309.744 243.31 296.584 250.95C281.884 259.49 268.584 236.71 283.274 228.18C310.664 212.28 346.104 209.43 371.834 230.24C384.704 240.64 367.214 258.53 354.194 249.64C353.058 248.878 351.883 248.174 350.674 247.53V247.56Z" stroke="url(#paint9_linear_862_12555)" stroke-width="2" stroke-miterlimit="10"/>
<defs>
<filter id="filter0_f_862_12555" x="-24.8145" y="206.558" width="535.021" height="306.595" filterUnits="userSpaceOnUse" color-interpolation-filters="sRGB">
<feFlood flood-opacity="0" result="BackgroundImageFix"/>
<feBlend mode="normal" in="SourceGraphic" in2="BackgroundImageFix" result="shape"/>
<feGaussianBlur stdDeviation="12.5" result="effect1_foregroundBlur_862_12555"/>
</filter>
<filter id="filter1_f_862_12555" x="-39.8145" y="191.558" width="565.021" height="336.595" filterUnits="userSpaceOnUse" color-interpolation-filters="sRGB">
<feFlood flood-opacity="0" result="BackgroundImageFix"/>
<feBlend mode="normal" in="SourceGraphic" in2="BackgroundImageFix" result="shape"/>
<feGaussianBlur stdDeviation="20" result="effect1_foregroundBlur_862_12555"/>
</filter>
<filter id="filter2_f_862_12555" x="198.021" y="243" width="220" height="220" filterUnits="userSpaceOnUse" color-interpolation-filters="sRGB">
<feFlood flood-opacity="0" result="BackgroundImageFix"/>
<feBlend mode="normal" in="SourceGraphic" in2="BackgroundImageFix" result="shape"/>
<feGaussianBlur stdDeviation="30" result="effect1_foregroundBlur_862_12555"/>
</filter>
<filter id="filter3_f_862_12555" x="267" y="143" width="220" height="220" filterUnits="userSpaceOnUse" color-interpolation-filters="sRGB">
<feFlood flood-opacity="0" result="BackgroundImageFix"/>
<feBlend mode="normal" in="SourceGraphic" in2="BackgroundImageFix" result="shape"/>
<feGaussianBlur stdDeviation="30" result="effect1_foregroundBlur_862_12555"/>
</filter>
<filter id="filter4_f_862_12555" x="0" y="143" width="220" height="220" filterUnits="userSpaceOnUse" color-interpolation-filters="sRGB">
<feFlood flood-opacity="0" result="BackgroundImageFix"/>
<feBlend mode="normal" in="SourceGraphic" in2="BackgroundImageFix" result="shape"/>
<feGaussianBlur stdDeviation="30" result="effect1_foregroundBlur_862_12555"/>
</filter>
<radialGradient id="paint0_radial_862_12555" cx="0" cy="0" r="1" gradientUnits="userSpaceOnUse" gradientTransform="translate(243 -4.53898e-06) rotate(90) scale(482)">
<stop stop-color="#FFDE43"/>
<stop offset="1" stop-color="#FFBC00"/>
</radialGradient>
<radialGradient id="paint1_radial_862_12555" cx="0" cy="0" r="1" gradientUnits="userSpaceOnUse" gradientTransform="translate(243 64.5) rotate(90) scale(417.5)">
<stop stop-color="white" stop-opacity="0.5"/>
<stop offset="0.782278"/>
</radialGradient>
<radialGradient id="paint2_radial_862_12555" cx="0" cy="0" r="1" gradientUnits="userSpaceOnUse" gradientTransform="translate(243 64.5) rotate(90) scale(417.5)">
<stop stop-color="white" stop-opacity="0.5"/>
<stop offset="0.782278"/>
</radialGradient>
<radialGradient id="paint3_radial_862_12555" cx="0" cy="0" r="1" gradientUnits="userSpaceOnUse" gradientTransform="translate(243 -52.5) rotate(90) scale(534.5 722.835)">
<stop offset="0.0922635" stop-color="white"/>
<stop offset="0.670207" stop-color="white" stop-opacity="0"/>
</radialGradient>
<radialGradient id="paint4_radial_862_12555" cx="0" cy="0" r="1" gradientUnits="userSpaceOnUse" gradientTransform="translate(271.762 353.336) scale(24.7525 120.419)">
<stop stop-color="#743C1C"/>
<stop offset="1" stop-color="#401C02"/>
</radialGradient>
<linearGradient id="paint5_linear_862_12555" x1="305.539" y1="353.581" x2="237.987" y2="353.581" gradientUnits="userSpaceOnUse">
<stop stop-color="#FFDE43"/>
<stop offset="0.22" stop-color="#FED93F"/>
<stop offset="0.51" stop-color="#FCC934"/>
<stop offset="0.82" stop-color="#F9AF21"/>
<stop offset="1" stop-color="#F79D14"/>
</linearGradient>
<radialGradient id="paint6_radial_862_12555" cx="0" cy="0" r="1" gradientUnits="userSpaceOnUse" gradientTransform="translate(159.463 234.126) scale(63.3847 18.7281)">
<stop stop-color="#743C1C"/>
<stop offset="1" stop-color="#401C02"/>
</radialGradient>
<linearGradient id="paint7_linear_862_12555" x1="159.532" y1="253.886" x2="159.532" y2="214.239" gradientUnits="userSpaceOnUse">
<stop stop-color="#FFDE43"/>
<stop offset="0.22" stop-color="#FED93F"/>
<stop offset="0.51" stop-color="#FCC934"/>
<stop offset="0.82" stop-color="#F9AF21"/>
<stop offset="1" stop-color="#F79D14"/>
</linearGradient>
<radialGradient id="paint8_radial_862_12555" cx="0" cy="0" r="1" gradientUnits="userSpaceOnUse" gradientTransform="translate(326.546 234.126) scale(63.387 18.7281)">
<stop stop-color="#743C1C"/>
<stop offset="1" stop-color="#401C02"/>
</radialGradient>
<linearGradient id="paint9_linear_862_12555" x1="326.614" y1="253.886" x2="326.614" y2="214.239" gradientUnits="userSpaceOnUse">
<stop stop-color="#FFDE43"/>
<stop offset="0.22" stop-color="#FED93F"/>
<stop offset="0.51" stop-color="#FCC934"/>
<stop offset="0.82" stop-color="#F9AF21"/>
<stop offset="1" stop-color="#F79D14"/>
</linearGradient>
</defs>
</svg>
