<svg width="483" height="483" viewBox="0 0 483 483" fill="none" xmlns="http://www.w3.org/2000/svg">
<path d="M241.82 482.36C108.62 482.36 0.640015 374.38 0.640015 241.18C0.640015 107.98 108.62 0 241.82 0C375.02 0 483 107.98 483 241.18C483 374.38 375.02 482.36 241.82 482.36Z" fill="url(#paint0_radial_862_12521)"/>
<g style="mix-blend-mode:soft-light">
<path d="M241.82 482.36C108.62 482.36 0.640015 374.38 0.640015 241.18C0.640015 107.98 108.62 0 241.82 0C375.02 0 483 107.98 483 241.18C483 374.38 375.02 482.36 241.82 482.36Z" fill="url(#paint1_radial_862_12521)"/>
</g>
<g style="mix-blend-mode:soft-light">
<path d="M241.82 482.36C108.62 482.36 0.640015 374.38 0.640015 241.18C0.640015 107.98 108.62 0 241.82 0C375.02 0 483 107.98 483 241.18C483 374.38 375.02 482.36 241.82 482.36Z" fill="url(#paint2_radial_862_12521)"/>
</g>
<g style="mix-blend-mode:overlay">
<path d="M241.82 482.36C108.62 482.36 0.640015 374.38 0.640015 241.18C0.640015 107.98 108.62 0 241.82 0C375.02 0 483 107.98 483 241.18C483 374.38 375.02 482.36 241.82 482.36Z" fill="url(#paint3_radial_862_12521)" fill-opacity="0.7"/>
</g>
<mask id="mask0_862_12521" style="mask-type:alpha" maskUnits="userSpaceOnUse" x="0" y="0" width="483" height="483">
<path d="M241.82 482.36C108.62 482.36 0.640015 374.38 0.640015 241.18C0.640015 107.98 108.62 0 241.82 0C375.02 0 483 107.98 483 241.18C483 374.38 375.02 482.36 241.82 482.36Z" fill="white"/>
</mask>
<g mask="url(#mask0_862_12521)">
<g filter="url(#filter0_f_862_12521)">
<path d="M484.376 234.299C484.114 230.872 482.986 230.529 482.657 234.009C482.292 237.875 483.002 245.647 482.831 250.335C482.378 262.748 480.476 273.542 478.514 282.321C472.193 310.613 463.438 328.843 455.273 344.289C428.434 395.061 399.033 420.771 370.352 440.147C328.311 468.55 285.928 477.584 243.51 479.5C242.44 479.549 242.262 486.518 243.314 487.425C245.212 489.062 247.564 487.438 249.506 487.37C255.085 487.174 260.665 486.791 266.244 486.211C282.787 484.492 299.33 480.991 315.838 475.359C360.725 460.044 409.123 433.821 451.391 359.962C454.05 355.316 456.688 350.424 459.288 345.168C461.368 340.964 463.427 336.557 465.451 331.844C472.105 316.342 487.613 276.659 484.376 234.299ZM243.48 487.5C244.501 487.532 244.759 481.035 243.786 479.686C242.316 477.647 240.112 479.326 238.561 479.229C232.123 478.827 225.686 478.23 219.25 477.422C201.605 475.206 183.972 471.423 166.379 465.596C122.743 451.146 75.83 429.116 34.6952 361.431C32.0771 357.124 29.4818 352.554 26.9213 347.641C19.1403 332.713 -0.36142 293.085 1.8931 243.821C2.08316 239.669 0.818573 237.181 0.252808 240.744C-0.467468 245.28 -0.175079 254.736 0.0233154 259.768C0.658691 275.884 3.1337 289.512 5.74323 300.518C14.0132 335.399 25.6237 355.623 36.2564 372.51C70.8161 427.397 108.352 449.524 144.845 465.425C177.576 479.686 210.556 486.484 243.48 487.5Z" fill="#401C02"/>
</g>
<g filter="url(#filter1_f_862_12521)">
<path d="M484.376 234.299C484.114 230.872 482.986 230.529 482.657 234.009C482.292 237.875 483.002 245.647 482.831 250.335C482.378 262.748 480.476 273.542 478.514 282.321C472.193 310.613 463.438 328.843 455.273 344.289C428.434 395.061 399.033 420.771 370.352 440.147C328.311 468.55 285.928 477.584 243.51 479.5C242.44 479.549 242.262 486.518 243.314 487.425C245.212 489.062 247.564 487.438 249.506 487.37C255.085 487.174 260.665 486.791 266.244 486.211C282.787 484.492 299.33 480.991 315.838 475.359C360.725 460.044 409.123 433.821 451.391 359.962C454.05 355.316 456.688 350.424 459.288 345.168C461.368 340.964 463.427 336.557 465.451 331.844C472.105 316.342 487.613 276.659 484.376 234.299ZM243.48 487.5C244.501 487.532 244.759 481.035 243.786 479.686C242.316 477.647 240.112 479.326 238.561 479.229C232.123 478.827 225.686 478.23 219.25 477.422C201.605 475.206 183.972 471.423 166.379 465.596C122.743 451.146 75.83 429.116 34.6952 361.431C32.0771 357.124 29.4818 352.554 26.9213 347.641C19.1403 332.713 -0.36142 293.085 1.8931 243.821C2.08316 239.669 0.818573 237.181 0.252808 240.744C-0.467468 245.28 -0.175079 254.736 0.0233154 259.768C0.658691 275.884 3.1337 289.512 5.74323 300.518C14.0132 335.399 25.6237 355.623 36.2564 372.51C70.8161 427.397 108.352 449.524 144.845 465.425C177.576 479.686 210.556 486.484 243.48 487.5Z" fill="#401C02"/>
</g>
</g>
<path d="M158 323.6C158.1 323.3 158.3 323 158.4 322.7L158.8 322C159 321.7 159.1 321.4 159.3 321.2L159.4 321.1C159.5 320.9 159.7 320.7 159.8 320.5C161 319 162.3 317.6 163.7 316.3C166.2 314.2 168.9 312.3 171.7 310.6C176.9 307.5 182.4 304.8 188 302.5C190.8 301.4 193.6 300.3 196.4 299.3L197.3 299C198.4 298.6 199.5 298.2 200.6 297.9C202 297.4 203.4 297 204.9 296.6C208.2 295.6 211 294.9 213.6 294.3C215.9 293.8 217.7 293.4 219.4 293C220 292.9 220.6 293 221.1 293.3C221.6 293.6 222 294 222.3 294.6C222.5 295.1 222.5 295.7 222.4 296.3C222.2 296.9 221.8 297.3 221.3 297.6C219.7 298.6 218.1 299.6 216.4 300.6C214.2 301.9 212 303.2 209.8 304.5L194.2 313.6C189.4 316.5 184.6 319.3 180.3 322.3C178.3 323.7 176.4 325.2 174.6 326.8C174.1 327.2 173.7 327.7 173.2 328.2L173.1 328.4L173.2 328.5C173.6 329 174.1 329.5 174.6 330C176.4 331.6 178.3 333.1 180.3 334.5C184.8 337.6 189.6 340.5 194.2 343.2L210.7 352.8C211.2 353.1 211.6 353.5 211.9 354C212.2 354.5 212.3 355.1 212.3 355.7C212.3 356.3 212.1 356.9 211.9 357.4C211.6 357.9 211.2 358.3 210.7 358.6L207.8 360.3L193.7 368.5C189.5 371 185.4 373.5 181.6 376.1C179.8 377.3 178.2 378.6 176.6 380C176.2 380.4 175.8 380.8 175.4 381.2C175.8 381.6 176.2 382 176.6 382.4C178.2 383.8 179.8 385.1 181.6 386.3C185.5 389 189.7 391.5 193.7 393.9L207.4 401.9C209.3 403 211.2 404.1 213.1 405.3C214.5 406.1 215.9 407 217.3 407.9C217.8 408.2 218.2 408.6 218.3 409.2C218.5 409.7 218.5 410.3 218.3 410.8C218.1 411.3 217.8 411.6 217.4 411.9C217 412.2 216.5 412.3 216 412.3C215.8 412.3 215.7 412.3 215.5 412.2C214 411.9 212.4 411.5 210.5 411.1C208.2 410.6 205.8 409.9 202.9 409.1C200 408.3 197.7 407.5 195.4 406.7C193.2 405.9 190.7 405 188 403.9C183 401.9 178.3 399.6 173.7 396.9C171.2 395.4 168.9 393.8 166.7 391.9C165.4 390.8 164.3 389.6 163.2 388.2C163 388 162.9 387.8 162.7 387.5C162.5 387.2 162.4 387.1 162.3 386.9L161.9 386.2C161.8 386 161.7 385.7 161.5 385.4C160.9 384.1 160.6 382.7 160.6 381.2C160.6 379.8 160.9 378.3 161.5 377C161.6 376.8 161.7 376.5 161.9 376.2L162.3 375.5C162.7 375.2 162.8 375 163 374.7L163.1 374.5C163.2 374.3 163.3 374.2 163.4 374C164.4 372.7 165.6 371.4 166.9 370.3C169.1 368.4 171.4 366.8 173.9 365.3C178.5 362.6 183.3 360.3 188.2 358.3C190.1 357.5 192 356.8 193.8 356.1C192 355.4 190.1 354.7 188 353.9C182.4 351.6 176.9 349 171.6 345.9C168.8 344.3 166.1 342.4 163.6 340.2C162.1 339 160.8 337.6 159.7 336C159.6 335.8 159.5 335.7 159.3 335.5L159.2 335.3C159.2 335.2 159 335 158.9 334.7L158.4 333.9C158.3 333.6 158.1 333.3 158 333C157.4 331.5 157 329.9 157 328.3C157 326.7 157.3 325.1 158 323.6Z" fill="url(#paint4_radial_862_12521)"/>
<path d="M216.2 413.2C216 413.2 215.7 413.2 215.5 413.1C213.8 412.8 212.2 412.4 210.4 412C208.1 411.5 205.8 410.8 202.7 410C200.1 409.3 197.9 408.5 195.9 407.8L195.2 407.5C192.5 406.6 190.1 405.6 187.8 404.7C182.8 402.7 177.9 400.3 173.3 397.6C170.8 396.1 168.4 394.4 166.2 392.5C164.9 391.4 163.6 390.1 162.6 388.7C162.4 388.5 162.3 388.2 162.1 387.9L162 387.7C161.9 387.5 161.8 387.4 161.7 387.2L161.3 386.5C161.2 386.3 161 386 160.9 385.7C160.2 384.2 159.9 382.7 159.9 381.1C159.9 379.5 160.2 377.9 160.9 376.5L161 376.2C161.1 376 161.2 375.9 161.2 375.7L161.7 375C161.9 374.7 162 374.5 162.2 374.2L162.3 374C162.4 373.8 162.5 373.6 162.7 373.5C163.8 372.1 165 370.8 166.3 369.7C168.5 367.8 170.9 366.1 173.4 364.6C178 361.9 182.9 359.5 187.9 357.5C189 357 190 356.6 191 356.2C190 355.8 188.9 355.4 187.7 354.9C182 352.6 176.5 349.9 171.2 346.8C168.3 345.1 165.6 343.2 163.1 341.1C161.6 339.8 160.2 338.4 159 336.8C158.9 336.7 158.8 336.6 158.7 336.4L158.5 336C158.3 335.7 158.1 335.4 158 335.2L157.5 334.4C157.3 334.1 157.2 333.8 157 333.4C156.4 331.8 156 330.1 156 328.3C156 326.5 156.4 324.8 157.1 323.2C157.2 322.9 157.4 322.6 157.5 322.3L157.9 321.5C158.1 321.2 158.3 320.9 158.5 320.6L158.6 320.5C158.7 320.4 158.8 320.2 158.9 320L159 319.9C160.2 318.3 161.6 316.8 163.1 315.5C165.6 313.4 168.4 311.4 171.2 309.7C176.5 306.6 182 303.9 187.7 301.6C190.5 300.5 193.3 299.4 196.2 298.4L197.1 298.1C198.2 297.7 199.3 297.3 200.5 297C201.9 296.5 203.3 296.1 204.8 295.7C207.9 294.8 210.6 294 213.5 293.4C215.8 292.9 217.6 292.5 219.3 292.1C220.1 291.9 220.9 292.1 221.7 292.5C222.4 292.9 223 293.5 223.3 294.3C223.6 295.1 223.6 295.9 223.4 296.7C223.1 297.5 222.6 298.1 221.9 298.6C220.3 299.6 218.7 300.6 217 301.5C214.8 302.8 212.6 304.1 210.4 305.4L194.8 314.5C190.2 317.2 185.3 320.1 181 323.2C179 324.5 177.1 326 175.4 327.6C175.1 327.9 174.8 328.1 174.6 328.4C174.9 328.7 175.1 329 175.4 329.2C177.2 330.8 179.1 332.3 181 333.6C185.4 336.6 190 339.4 194.9 342.3L211.4 351.9C212.1 352.3 212.6 352.8 213 353.5C213.4 354.2 213.6 354.9 213.6 355.7C213.6 356.5 213.4 357.2 213 357.9C212.6 358.6 212.1 359.1 211.4 359.5L208.4 361L194.3 369.2C190.6 371.4 186.2 374 182.2 376.8C180.5 378 178.8 379.2 177.3 380.6C177.1 380.7 177 380.9 176.8 381.1C177 381.3 177.1 381.4 177.3 381.6C178.8 383 180.5 384.3 182.2 385.4C186 388 190.1 390.5 194.3 393L208 401C209.9 402.1 211.8 403.2 213.7 404.4L214.4 404.8C215.6 405.5 216.7 406.2 217.9 406.9C218.6 407.3 219.1 407.9 219.4 408.7C219.7 409.5 219.6 410.3 219.3 411C219 411.6 218.6 412.2 218 412.6C217.6 413 216.9 413.2 216.2 413.2ZM158.9 324C158.3 325.4 158 326.8 158 328.3C158 329.8 158.3 331.2 158.9 332.6C159 332.9 159.2 333.2 159.3 333.4L159.7 334.2C159.8 334.5 160 334.7 160.1 334.9L160.4 335.3C160.5 335.4 160.5 335.5 160.6 335.6C161.7 337.1 163 338.4 164.4 339.6C166.8 341.7 169.5 343.5 172.3 345.1C177.5 348.1 182.9 350.8 188.5 353C190.6 353.8 192.4 354.6 194.2 355.2L196.8 356.1L194.2 357C192.4 357.6 190.5 358.4 188.6 359.2C183.7 361.1 178.9 363.5 174.4 366.1C172 367.5 169.7 369.2 167.5 371C166.3 372.1 165.1 373.2 164.2 374.5C164.1 374.6 164 374.8 163.9 374.9L163.8 375.1C163.6 375.4 163.5 375.6 163.4 375.8L163 376.6C163 376.7 162.9 376.9 162.8 377L162.7 377.3C162.2 378.5 161.9 379.7 161.9 381.1C161.9 382.5 162.2 383.7 162.7 384.9C162.8 385.2 162.9 385.4 163.1 385.7L163.5 386.4C163.6 386.5 163.6 386.6 163.7 386.7L163.9 387C164.1 387.3 164.2 387.5 164.3 387.6C165.3 388.9 166.4 390.1 167.6 391.1C169.7 392.9 172 394.6 174.5 396C179 398.7 183.8 401 188.7 402.9C191 403.8 193.4 404.7 196 405.7L196.7 406C198.7 406.7 200.8 407.4 203.3 408.1C206.3 408.9 208.7 409.6 210.9 410.1C212.7 410.5 214.2 410.9 215.9 411.2C216 411.2 216.1 411.2 216.2 411.2C216.5 411.2 216.8 411.1 217 411C217.2 410.8 217.4 410.6 217.5 410.3C217.6 410 217.6 409.7 217.5 409.4C217.4 409.1 217.2 408.8 216.9 408.7C215.7 408 214.6 407.3 213.4 406.6L212.7 406.2C210.8 405.1 208.9 403.9 207 402.8L193.3 394.8C189.1 392.3 184.9 389.8 181.1 387.1C179.3 385.9 177.6 384.6 176 383.1C175.6 382.7 175.1 382.3 174.8 381.8L174.2 381.2L174.8 380.5C175.2 380 175.6 379.6 176.1 379.2C177.7 377.8 179.4 376.4 181.2 375.2C185.2 372.4 189.6 369.8 193.4 367.5L210.4 357.6C210.8 357.4 211 357.1 211.2 356.7C211.4 356.3 211.5 355.9 211.5 355.5C211.5 355.1 211.4 354.7 211.2 354.3C211 353.9 210.7 353.7 210.4 353.4L193.9 343.8C189 340.9 184.3 338.1 179.9 335C177.9 333.6 175.9 332.1 174.1 330.4C173.6 329.9 173.1 329.4 172.6 328.8L172 328.1L172.7 327.3C173.1 326.8 173.6 326.3 174.1 325.8C175.9 324.1 177.9 322.6 179.9 321.2C184.3 318.1 189.2 315.2 193.9 312.5L209.5 303.4C211.7 302.1 213.9 300.8 216.1 299.5C217.7 298.5 219.3 297.6 221 296.6C221.3 296.4 221.5 296.1 221.6 295.8C221.7 295.5 221.7 295.1 221.6 294.8C221.5 294.5 221.2 294.2 220.9 294C220.4 294 220.1 294 219.7 294C218 294.4 216.2 294.7 214 295.3C211.1 296 208.4 296.7 205.4 297.6C204 298 202.6 298.5 201.1 298.9C200 299.3 198.9 299.7 197.8 300L196.9 300.3C194.1 301.3 191.3 302.3 188.5 303.5C182.9 305.7 177.5 308.4 172.3 311.5C169.5 313.1 166.9 315 164.4 317.1C163 318.3 161.7 319.7 160.6 321.1L160.5 321.2C160.4 321.3 160.3 321.5 160.2 321.6L160.1 321.8C160 322 159.8 322.2 159.7 322.5L159.3 323.3C159.1 323.5 159 323.7 158.9 324Z" fill="url(#paint5_linear_862_12521)"/>
<path d="M300.1 273.8C257.629 273.8 223.2 239.371 223.2 196.9C223.2 154.429 257.629 120 300.1 120C342.571 120 377 154.429 377 196.9C377 239.371 342.571 273.8 300.1 273.8Z" fill="url(#paint6_linear_862_12521)"/>
<mask id="mask1_862_12521" style="mask-type:alpha" maskUnits="userSpaceOnUse" x="223" y="120" width="154" height="154">
<path d="M300.1 273.8C257.629 273.8 223.2 239.371 223.2 196.9C223.2 154.429 257.629 120 300.1 120C342.571 120 377 154.429 377 196.9C377 239.371 342.571 273.8 300.1 273.8Z" fill="url(#paint7_linear_862_12521)"/>
</mask>
<g mask="url(#mask1_862_12521)">
<g filter="url(#filter2_f_862_12521)">
<circle r="46" transform="matrix(-1 0 0 1 270 169)" fill="black"/>
</g>
</g>
<mask id="mask2_862_12521" style="mask-type:alpha" maskUnits="userSpaceOnUse" x="223" y="120" width="154" height="156">
<path d="M300 275.048C342.526 275.048 377 240.339 377 197.524C377 154.709 342.526 120 300 120C257.474 120 223 154.709 223 197.524C223 240.339 257.474 275.048 300 275.048Z" fill="white"/>
</mask>
<g mask="url(#mask2_862_12521)">
<g filter="url(#filter3_f_862_12521)">
<path d="M376 197.524C376 239.793 341.967 274.048 300 274.048C258.033 274.048 224 239.793 224 197.524C224 155.254 258.033 121 300 121C341.967 121 376 155.254 376 197.524Z" stroke="#743C1C" stroke-width="2"/>
</g>
</g>
<path d="M300.1 273.8C257.629 273.8 223.2 239.371 223.2 196.9C223.2 154.429 257.629 120 300.1 120C342.571 120 377 154.429 377 196.9C377 239.371 342.571 273.8 300.1 273.8Z" stroke="url(#paint8_linear_862_12521)" stroke-width="2" stroke-miterlimit="10"/>
<path d="M119.1 273.8C76.6293 273.8 42.2 239.371 42.2 196.9C42.2 154.429 76.6293 120 119.1 120C161.571 120 196 154.429 196 196.9C196 239.371 161.571 273.8 119.1 273.8Z" fill="url(#paint9_linear_862_12521)"/>
<mask id="mask3_862_12521" style="mask-type:alpha" maskUnits="userSpaceOnUse" x="42" y="120" width="154" height="154">
<path d="M119.1 273.8C76.6293 273.8 42.2 239.371 42.2 196.9C42.2 154.429 76.6293 120 119.1 120C161.571 120 196 154.429 196 196.9C196 239.371 161.571 273.8 119.1 273.8Z" fill="url(#paint10_linear_862_12521)"/>
</mask>
<g mask="url(#mask3_862_12521)">
<g filter="url(#filter4_f_862_12521)">
<circle r="46" transform="matrix(-1 0 0 1 89 169)" fill="black"/>
</g>
</g>
<mask id="mask4_862_12521" style="mask-type:alpha" maskUnits="userSpaceOnUse" x="42" y="120" width="154" height="156">
<path d="M119 275.048C161.526 275.048 196 240.339 196 197.524C196 154.709 161.526 120 119 120C76.4741 120 42 154.709 42 197.524C42 240.339 76.4741 275.048 119 275.048Z" fill="white"/>
</mask>
<g mask="url(#mask4_862_12521)">
<g filter="url(#filter5_f_862_12521)">
<path d="M195 197.524C195 239.793 160.967 274.048 119 274.048C77.0328 274.048 43 239.793 43 197.524C43 155.254 77.0328 121 119 121C160.967 121 195 155.254 195 197.524Z" stroke="#743C1C" stroke-width="2"/>
</g>
</g>
<path d="M119.1 273.8C76.6293 273.8 42.2 239.371 42.2 196.9C42.2 154.429 76.6293 120 119.1 120C161.571 120 196 154.429 196 196.9C196 239.371 161.571 273.8 119.1 273.8Z" stroke="url(#paint11_linear_862_12521)" stroke-width="2" stroke-miterlimit="10"/>
<defs>
<filter id="filter0_f_862_12521" x="-25.207" y="206.559" width="535.022" height="306.595" filterUnits="userSpaceOnUse" color-interpolation-filters="sRGB">
<feFlood flood-opacity="0" result="BackgroundImageFix"/>
<feBlend mode="normal" in="SourceGraphic" in2="BackgroundImageFix" result="shape"/>
<feGaussianBlur stdDeviation="12.5" result="effect1_foregroundBlur_862_12521"/>
</filter>
<filter id="filter1_f_862_12521" x="-40.207" y="191.559" width="565.022" height="336.595" filterUnits="userSpaceOnUse" color-interpolation-filters="sRGB">
<feFlood flood-opacity="0" result="BackgroundImageFix"/>
<feBlend mode="normal" in="SourceGraphic" in2="BackgroundImageFix" result="shape"/>
<feGaussianBlur stdDeviation="20" result="effect1_foregroundBlur_862_12521"/>
</filter>
<filter id="filter2_f_862_12521" x="220" y="119" width="100" height="100" filterUnits="userSpaceOnUse" color-interpolation-filters="sRGB">
<feFlood flood-opacity="0" result="BackgroundImageFix"/>
<feBlend mode="normal" in="SourceGraphic" in2="BackgroundImageFix" result="shape"/>
<feGaussianBlur stdDeviation="2" result="effect1_foregroundBlur_862_12521"/>
</filter>
<filter id="filter3_f_862_12521" x="208" y="105" width="184" height="185.048" filterUnits="userSpaceOnUse" color-interpolation-filters="sRGB">
<feFlood flood-opacity="0" result="BackgroundImageFix"/>
<feBlend mode="normal" in="SourceGraphic" in2="BackgroundImageFix" result="shape"/>
<feGaussianBlur stdDeviation="7.5" result="effect1_foregroundBlur_862_12521"/>
</filter>
<filter id="filter4_f_862_12521" x="39" y="119" width="100" height="100" filterUnits="userSpaceOnUse" color-interpolation-filters="sRGB">
<feFlood flood-opacity="0" result="BackgroundImageFix"/>
<feBlend mode="normal" in="SourceGraphic" in2="BackgroundImageFix" result="shape"/>
<feGaussianBlur stdDeviation="2" result="effect1_foregroundBlur_862_12521"/>
</filter>
<filter id="filter5_f_862_12521" x="27" y="105" width="184" height="185.048" filterUnits="userSpaceOnUse" color-interpolation-filters="sRGB">
<feFlood flood-opacity="0" result="BackgroundImageFix"/>
<feBlend mode="normal" in="SourceGraphic" in2="BackgroundImageFix" result="shape"/>
<feGaussianBlur stdDeviation="7.5" result="effect1_foregroundBlur_862_12521"/>
</filter>
<radialGradient id="paint0_radial_862_12521" cx="0" cy="0" r="1" gradientUnits="userSpaceOnUse" gradientTransform="translate(242 -4.53898e-06) rotate(90) scale(482)">
<stop stop-color="#FFDE43"/>
<stop offset="1" stop-color="#FFBC00"/>
</radialGradient>
<radialGradient id="paint1_radial_862_12521" cx="0" cy="0" r="1" gradientUnits="userSpaceOnUse" gradientTransform="translate(242 64.5) rotate(90) scale(417.5)">
<stop stop-color="white" stop-opacity="0.5"/>
<stop offset="0.782278"/>
</radialGradient>
<radialGradient id="paint2_radial_862_12521" cx="0" cy="0" r="1" gradientUnits="userSpaceOnUse" gradientTransform="translate(242 64.5) rotate(90) scale(417.5)">
<stop stop-color="white" stop-opacity="0.5"/>
<stop offset="0.782278"/>
</radialGradient>
<radialGradient id="paint3_radial_862_12521" cx="0" cy="0" r="1" gradientUnits="userSpaceOnUse" gradientTransform="translate(242 -52.5) rotate(90) scale(534.5 722.835)">
<stop offset="0.0922635" stop-color="white"/>
<stop offset="0.670207" stop-color="white" stop-opacity="0"/>
</radialGradient>
<radialGradient id="paint4_radial_862_12521" cx="0" cy="0" r="1" gradientUnits="userSpaceOnUse" gradientTransform="translate(189.776 352.336) rotate(180) scale(24.7525 120.419)">
<stop stop-color="#743C1C"/>
<stop offset="1" stop-color="#401C02"/>
</radialGradient>
<linearGradient id="paint5_linear_862_12521" x1="156" y1="352.581" x2="223.552" y2="352.581" gradientUnits="userSpaceOnUse">
<stop stop-color="#FFDE43"/>
<stop offset="0.22" stop-color="#FED93F"/>
<stop offset="0.51" stop-color="#FCC934"/>
<stop offset="0.82" stop-color="#F9AF21"/>
<stop offset="1" stop-color="#F79D14"/>
</linearGradient>
<linearGradient id="paint6_linear_862_12521" x1="377.059" y1="196.929" x2="223.2" y2="196.929" gradientUnits="userSpaceOnUse">
<stop stop-color="#CCCCCC"/>
<stop offset="0.05" stop-color="#D5D5D5"/>
<stop offset="0.2" stop-color="#E9E9E9"/>
<stop offset="0.35" stop-color="#F6F6F6"/>
<stop offset="0.5" stop-color="#FAFAFA"/>
<stop offset="0.65" stop-color="#F6F6F6"/>
<stop offset="0.8" stop-color="#E9E9E9"/>
<stop offset="0.95" stop-color="#D5D5D5"/>
<stop offset="1" stop-color="#CCCCCC"/>
</linearGradient>
<linearGradient id="paint7_linear_862_12521" x1="300.1" y1="278.128" x2="300.1" y2="115.051" gradientUnits="userSpaceOnUse">
<stop stop-color="#FFDE43"/>
<stop offset="0.22" stop-color="#FED93F"/>
<stop offset="0.51" stop-color="#FCC934"/>
<stop offset="0.82" stop-color="#F9AF21"/>
<stop offset="1" stop-color="#F79D14"/>
</linearGradient>
<linearGradient id="paint8_linear_862_12521" x1="300.1" y1="278.128" x2="300.1" y2="115.051" gradientUnits="userSpaceOnUse">
<stop stop-color="#FFDE43"/>
<stop offset="0.22" stop-color="#FED93F"/>
<stop offset="0.51" stop-color="#FCC934"/>
<stop offset="0.82" stop-color="#F9AF21"/>
<stop offset="1" stop-color="#F79D14"/>
</linearGradient>
<linearGradient id="paint9_linear_862_12521" x1="196.059" y1="196.929" x2="42.2" y2="196.929" gradientUnits="userSpaceOnUse">
<stop stop-color="#CCCCCC"/>
<stop offset="0.05" stop-color="#D5D5D5"/>
<stop offset="0.2" stop-color="#E9E9E9"/>
<stop offset="0.35" stop-color="#F6F6F6"/>
<stop offset="0.5" stop-color="#FAFAFA"/>
<stop offset="0.65" stop-color="#F6F6F6"/>
<stop offset="0.8" stop-color="#E9E9E9"/>
<stop offset="0.95" stop-color="#D5D5D5"/>
<stop offset="1" stop-color="#CCCCCC"/>
</linearGradient>
<linearGradient id="paint10_linear_862_12521" x1="119.1" y1="278.128" x2="119.1" y2="115.051" gradientUnits="userSpaceOnUse">
<stop stop-color="#FFDE43"/>
<stop offset="0.22" stop-color="#FED93F"/>
<stop offset="0.51" stop-color="#FCC934"/>
<stop offset="0.82" stop-color="#F9AF21"/>
<stop offset="1" stop-color="#F79D14"/>
</linearGradient>
<linearGradient id="paint11_linear_862_12521" x1="119.1" y1="278.128" x2="119.1" y2="115.051" gradientUnits="userSpaceOnUse">
<stop stop-color="#FFDE43"/>
<stop offset="0.22" stop-color="#FED93F"/>
<stop offset="0.51" stop-color="#FCC934"/>
<stop offset="0.82" stop-color="#F9AF21"/>
<stop offset="1" stop-color="#F79D14"/>
</linearGradient>
</defs>
</svg>
