<svg width="581" height="483" viewBox="0 0 581 483" fill="none" xmlns="http://www.w3.org/2000/svg">
<path d="M242.18 482.36C375.38 482.36 483.36 374.38 483.36 241.18C483.36 107.98 375.38 0 242.18 0C108.98 0 1 107.98 1 241.18C1 374.38 108.98 482.36 242.18 482.36Z" fill="url(#paint0_radial_862_12533)"/>
<g style="mix-blend-mode:soft-light">
<path d="M242.18 482.36C375.38 482.36 483.36 374.38 483.36 241.18C483.36 107.98 375.38 0 242.18 0C108.98 0 1 107.98 1 241.18C1 374.38 108.98 482.36 242.18 482.36Z" fill="url(#paint1_radial_862_12533)"/>
</g>
<g style="mix-blend-mode:soft-light">
<path d="M242.18 482.36C375.38 482.36 483.36 374.38 483.36 241.18C483.36 107.98 375.38 0 242.18 0C108.98 0 1 107.98 1 241.18C1 374.38 108.98 482.36 242.18 482.36Z" fill="url(#paint2_radial_862_12533)"/>
</g>
<g style="mix-blend-mode:overlay">
<path d="M242.18 482.36C375.38 482.36 483.36 374.38 483.36 241.18C483.36 107.98 375.38 0 242.18 0C108.98 0 1 107.98 1 241.18C1 374.38 108.98 482.36 242.18 482.36Z" fill="url(#paint3_radial_862_12533)" fill-opacity="0.7"/>
</g>
<mask id="mask0_862_12533" style="mask-type:alpha" maskUnits="userSpaceOnUse" x="0" y="0" width="483" height="483">
<path d="M241.18 482.36C374.38 482.36 482.36 374.38 482.36 241.18C482.36 107.98 374.38 0 241.18 0C107.98 0 0 107.98 0 241.18C0 374.38 107.98 482.36 241.18 482.36Z" fill="white"/>
</mask>
<g mask="url(#mask0_862_12533)">
<g filter="url(#filter0_f_862_12533)">
<path d="M-1.3759 234.299C-1.11402 230.872 0.0137008 230.529 0.342619 234.008C0.708055 237.874 -0.00231624 245.646 0.16871 250.335C0.621554 262.748 2.52441 273.541 4.48605 282.32C10.8075 310.612 19.5617 328.843 27.7268 344.288C54.5663 395.06 83.9667 420.77 112.648 440.147C154.689 468.549 197.072 477.584 239.49 479.5C240.56 479.548 240.738 486.518 239.686 487.425C237.788 489.061 235.436 487.437 233.494 487.369C227.915 487.174 222.335 486.791 216.756 486.211C200.213 484.492 183.67 480.991 167.162 475.358C122.275 460.044 73.8765 433.821 31.6092 359.962C28.9502 355.316 26.3124 350.424 23.7118 345.167C21.6321 340.963 19.5726 336.556 17.5493 331.843C10.8946 316.342 -4.61323 276.658 -1.3759 234.299ZM239.52 487.5C238.499 487.531 238.241 481.034 239.214 479.685C240.684 477.647 242.888 479.326 244.439 479.229C250.877 478.826 257.314 478.229 263.75 477.421C281.395 475.205 299.028 471.422 316.621 465.596C360.257 451.145 407.17 429.115 448.305 361.431C450.923 357.123 453.518 352.553 456.079 347.641C463.86 332.712 483.361 293.084 481.107 243.821C480.917 239.668 482.181 237.181 482.747 240.743C483.467 245.279 483.175 254.736 482.977 259.768C482.341 275.883 479.866 289.512 477.257 300.518C468.987 335.399 457.376 355.623 446.744 372.51C412.184 427.397 374.648 449.524 338.155 465.424C305.424 479.686 272.444 486.484 239.52 487.5Z" fill="#401C02"/>
</g>
<g filter="url(#filter1_f_862_12533)">
<path d="M-1.3759 234.299C-1.11402 230.872 0.0137008 230.529 0.342619 234.008C0.708055 237.874 -0.00231624 245.646 0.16871 250.335C0.621554 262.748 2.52441 273.541 4.48605 282.32C10.8075 310.612 19.5617 328.843 27.7268 344.288C54.5663 395.06 83.9667 420.77 112.648 440.147C154.689 468.549 197.072 477.584 239.49 479.5C240.56 479.548 240.738 486.518 239.686 487.425C237.788 489.061 235.436 487.437 233.494 487.369C227.915 487.174 222.335 486.791 216.756 486.211C200.213 484.492 183.67 480.991 167.162 475.358C122.275 460.044 73.8765 433.821 31.6092 359.962C28.9502 355.316 26.3124 350.424 23.7118 345.167C21.6321 340.963 19.5726 336.556 17.5493 331.843C10.8946 316.342 -4.61323 276.658 -1.3759 234.299ZM239.52 487.5C238.499 487.531 238.241 481.034 239.214 479.685C240.684 477.647 242.888 479.326 244.439 479.229C250.877 478.826 257.314 478.229 263.75 477.421C281.395 475.205 299.028 471.422 316.621 465.596C360.257 451.145 407.17 429.115 448.305 361.431C450.923 357.123 453.518 352.553 456.079 347.641C463.86 332.712 483.361 293.084 481.107 243.821C480.917 239.668 482.181 237.181 482.747 240.743C483.467 245.279 483.175 254.736 482.977 259.768C482.341 275.883 479.866 289.512 477.257 300.518C468.987 335.399 457.376 355.623 446.744 372.51C412.184 427.397 374.648 449.524 338.155 465.424C305.424 479.686 272.444 486.484 239.52 487.5Z" fill="#401C02"/>
</g>
</g>
<path d="M225.97 222.06C241.97 222.06 254.94 205.257 254.94 184.53C254.94 163.803 241.97 147 225.97 147C209.97 147 197 163.803 197 184.53C197 205.257 209.97 222.06 225.97 222.06Z" fill="url(#paint4_radial_862_12533)"/>
<path d="M225.97 222.06C241.97 222.06 254.94 205.257 254.94 184.53C254.94 163.803 241.97 147 225.97 147C209.97 147 197 163.803 197 184.53C197 205.257 209.97 222.06 225.97 222.06Z" stroke="url(#paint5_linear_862_12533)" stroke-width="2.17" stroke-miterlimit="10"/>
<path d="M375 218.26C389.381 218.26 401.04 203.158 401.04 184.53C401.04 165.901 389.381 150.8 375 150.8C360.618 150.8 348.96 165.901 348.96 184.53C348.96 203.158 360.618 218.26 375 218.26Z" fill="url(#paint6_radial_862_12533)"/>
<path d="M375 218.26C389.381 218.26 401.04 203.158 401.04 184.53C401.04 165.901 389.381 150.8 375 150.8C360.618 150.8 348.96 165.901 348.96 184.53C348.96 203.158 360.618 218.26 375 218.26Z" stroke="url(#paint7_linear_862_12533)" stroke-width="1.95" stroke-miterlimit="10"/>
<path d="M212.53 377.72C209.608 379.951 206.82 382.352 204.18 384.91C202.847 386.198 201.591 387.564 200.42 389C199.866 389.667 199.346 390.367 198.86 391.1C198.62 391.45 197.92 393.1 197.57 393.2C213.12 387.8 228.89 382.49 245.03 379.2C259.496 376.173 274.252 374.751 289.03 374.96C300.595 375.15 312.119 376.392 323.46 378.67C330.58 380.1 337.46 382.34 344.46 384.46C350.35 386.26 358.18 389.87 364.34 387.46C368.22 385.95 370.78 382.1 371.96 378.1C373.086 375.009 373.047 371.613 371.851 368.549C370.654 365.484 368.382 362.961 365.46 361.45C355.16 354.97 341.17 352.96 329.41 350.88C313.028 347.952 296.279 347.708 279.82 350.16C264.199 352.612 249.032 357.381 234.82 364.31C226.959 368.021 219.491 372.513 212.53 377.72Z" fill="url(#paint8_radial_862_12533)"/>
<path d="M212.53 377.72C209.608 379.951 206.82 382.352 204.18 384.91C202.847 386.198 201.591 387.564 200.42 389C199.866 389.667 199.346 390.367 198.86 391.1C198.62 391.45 197.92 393.1 197.57 393.2C213.12 387.8 228.89 382.49 245.03 379.2C259.496 376.173 274.252 374.751 289.03 374.96C300.595 375.15 312.119 376.392 323.46 378.67C330.58 380.1 337.46 382.34 344.46 384.46C350.35 386.26 358.18 389.87 364.34 387.46C368.22 385.95 370.78 382.1 371.96 378.1C373.086 375.009 373.047 371.613 371.851 368.549C370.654 365.484 368.382 362.961 365.46 361.45C355.16 354.97 341.17 352.96 329.41 350.88C313.028 347.952 296.279 347.708 279.82 350.16C264.199 352.612 249.032 357.381 234.82 364.31C226.959 368.021 219.491 372.513 212.53 377.72V377.72Z" stroke="url(#paint9_linear_862_12533)" stroke-width="2" stroke-miterlimit="10"/>
<mask id="mask1_862_12533" style="mask-type:alpha" maskUnits="userSpaceOnUse" x="286" y="241" width="295" height="90">
<path d="M286 294.49L537.77 330.9C549.071 330.9 559.909 326.411 567.9 318.42C575.891 310.429 580.38 299.591 580.38 288.29C580.38 276.989 575.891 266.151 567.9 258.16C559.909 250.169 549.071 245.68 537.77 245.68L294.49 241.04" fill="url(#paint10_linear_862_12533)"/>
</mask>
<g mask="url(#mask1_862_12533)">
<path d="M286 294.49L537.77 330.9C549.071 330.9 559.909 326.411 567.9 318.42C575.891 310.429 580.38 299.591 580.38 288.29C580.38 276.989 575.891 266.151 567.9 258.16C559.909 250.169 549.071 245.68 537.77 245.68L294.49 241.04" fill="url(#paint11_linear_862_12533)"/>
</g>
<path d="M286 294.45L537.77 330.86C549.071 330.86 559.909 326.371 567.9 318.38C575.891 310.389 580.38 299.551 580.38 288.25C580.38 276.949 575.891 266.111 567.9 258.12C559.909 250.129 549.071 245.64 537.77 245.64L294.49 241" fill="url(#paint12_linear_862_12533)"/>
<defs>
<filter id="filter0_f_862_12533" x="-26.8149" y="206.558" width="535.022" height="306.595" filterUnits="userSpaceOnUse" color-interpolation-filters="sRGB">
<feFlood flood-opacity="0" result="BackgroundImageFix"/>
<feBlend mode="normal" in="SourceGraphic" in2="BackgroundImageFix" result="shape"/>
<feGaussianBlur stdDeviation="12.5" result="effect1_foregroundBlur_862_12533"/>
</filter>
<filter id="filter1_f_862_12533" x="-41.8149" y="191.558" width="565.022" height="336.595" filterUnits="userSpaceOnUse" color-interpolation-filters="sRGB">
<feFlood flood-opacity="0" result="BackgroundImageFix"/>
<feBlend mode="normal" in="SourceGraphic" in2="BackgroundImageFix" result="shape"/>
<feGaussianBlur stdDeviation="20" result="effect1_foregroundBlur_862_12533"/>
</filter>
<radialGradient id="paint0_radial_862_12533" cx="0" cy="0" r="1" gradientUnits="userSpaceOnUse" gradientTransform="translate(242 -4.53898e-06) rotate(90) scale(482)">
<stop stop-color="#FFDE43"/>
<stop offset="1" stop-color="#FFBC00"/>
</radialGradient>
<radialGradient id="paint1_radial_862_12533" cx="0" cy="0" r="1" gradientUnits="userSpaceOnUse" gradientTransform="translate(242 64.5) rotate(90) scale(417.5)">
<stop stop-color="white" stop-opacity="0.5"/>
<stop offset="0.782278"/>
</radialGradient>
<radialGradient id="paint2_radial_862_12533" cx="0" cy="0" r="1" gradientUnits="userSpaceOnUse" gradientTransform="translate(242 64.5) rotate(90) scale(417.5)">
<stop stop-color="white" stop-opacity="0.5"/>
<stop offset="0.782278"/>
</radialGradient>
<radialGradient id="paint3_radial_862_12533" cx="0" cy="0" r="1" gradientUnits="userSpaceOnUse" gradientTransform="translate(242 -52.5) rotate(90) scale(534.5 722.835)">
<stop offset="0.0922635" stop-color="white"/>
<stop offset="0.670207" stop-color="white" stop-opacity="0"/>
</radialGradient>
<radialGradient id="paint4_radial_862_12533" cx="0" cy="0" r="1" gradientUnits="userSpaceOnUse" gradientTransform="translate(225.93 184.505) scale(36.9297 37.5951)">
<stop stop-color="#743C1C"/>
<stop offset="1" stop-color="#401C02"/>
</radialGradient>
<linearGradient id="paint5_linear_862_12533" x1="225.97" y1="224.172" x2="225.97" y2="144.585" gradientUnits="userSpaceOnUse">
<stop stop-color="#FFDE43"/>
<stop offset="0.22" stop-color="#FED93F"/>
<stop offset="0.51" stop-color="#FCC934"/>
<stop offset="0.82" stop-color="#F9AF21"/>
<stop offset="1" stop-color="#F79D14"/>
</linearGradient>
<radialGradient id="paint6_radial_862_12533" cx="0" cy="0" r="1" gradientUnits="userSpaceOnUse" gradientTransform="translate(374.964 184.507) scale(33.1947 33.7885)">
<stop stop-color="#743C1C"/>
<stop offset="1" stop-color="#401C02"/>
</radialGradient>
<linearGradient id="paint7_linear_862_12533" x1="375" y1="220.158" x2="375" y2="148.629" gradientUnits="userSpaceOnUse">
<stop stop-color="#FFDE43"/>
<stop offset="0.22" stop-color="#FED93F"/>
<stop offset="0.51" stop-color="#FCC934"/>
<stop offset="0.82" stop-color="#F9AF21"/>
<stop offset="1" stop-color="#F79D14"/>
</linearGradient>
<radialGradient id="paint8_radial_862_12533" cx="0" cy="0" r="1" gradientUnits="userSpaceOnUse" gradientTransform="translate(285.173 370.753) scale(66.1253 45.1633)">
<stop stop-color="#743C1C"/>
<stop offset="1" stop-color="#401C02"/>
</radialGradient>
<linearGradient id="paint9_linear_862_12533" x1="285.173" y1="394.458" x2="285.173" y2="347.047" gradientUnits="userSpaceOnUse">
<stop offset="0.265625" stop-color="#FFDE43"/>
<stop offset="1" stop-color="#F79D14"/>
</linearGradient>
<linearGradient id="paint10_linear_862_12533" x1="275" y1="270.5" x2="580" y2="308" gradientUnits="userSpaceOnUse">
<stop offset="0.126202" stop-opacity="0"/>
<stop offset="0.509934" stop-color="white"/>
</linearGradient>
<linearGradient id="paint11_linear_862_12533" x1="433.19" y1="330.9" x2="433.19" y2="241.04" gradientUnits="userSpaceOnUse">
<stop stop-color="#CF6800"/>
<stop offset="0.15625" stop-color="#D26E04"/>
<stop offset="0.697917" stop-color="#F2BE31"/>
<stop offset="1" stop-color="#FFDE43"/>
</linearGradient>
<linearGradient id="paint12_linear_862_12533" x1="428.09" y1="319.5" x2="444.14" y2="228.47" gradientUnits="userSpaceOnUse">
<stop offset="0.38" stop-color="#FFDE43" stop-opacity="0"/>
<stop offset="0.44" stop-color="#FFDF46" stop-opacity="0.02"/>
<stop offset="0.52" stop-color="#FFE04F" stop-opacity="0.09"/>
<stop offset="0.61" stop-color="#FFE35F" stop-opacity="0.19"/>
<stop offset="0.7" stop-color="#FFE774" stop-opacity="0.34"/>
<stop offset="0.8" stop-color="#FFEB8F" stop-opacity="0.53"/>
<stop offset="0.91" stop-color="#FFF1B0" stop-opacity="0.76"/>
<stop offset="1" stop-color="#FFF7D1"/>
</linearGradient>
</defs>
</svg>
