<svg width="483" height="519" viewBox="0 0 483 519" fill="none" xmlns="http://www.w3.org/2000/svg">
<path d="M241.18 482.36C374.38 482.36 482.36 374.38 482.36 241.18C482.36 107.98 374.38 0 241.18 0C107.98 0 0 107.98 0 241.18C0 374.38 107.98 482.36 241.18 482.36Z" fill="url(#paint0_radial_862_12532)"/>
<g style="mix-blend-mode:soft-light">
<path d="M241.18 482.36C374.38 482.36 482.36 374.38 482.36 241.18C482.36 107.98 374.38 0 241.18 0C107.98 0 0 107.98 0 241.18C0 374.38 107.98 482.36 241.18 482.36Z" fill="url(#paint1_radial_862_12532)"/>
</g>
<g style="mix-blend-mode:soft-light">
<path d="M241.18 482.36C374.38 482.36 482.36 374.38 482.36 241.18C482.36 107.98 374.38 0 241.18 0C107.98 0 0 107.98 0 241.18C0 374.38 107.98 482.36 241.18 482.36Z" fill="url(#paint2_radial_862_12532)"/>
</g>
<g style="mix-blend-mode:overlay">
<path d="M241.18 482.36C374.38 482.36 482.36 374.38 482.36 241.18C482.36 107.98 374.38 0 241.18 0C107.98 0 0 107.98 0 241.18C0 374.38 107.98 482.36 241.18 482.36Z" fill="url(#paint3_radial_862_12532)" fill-opacity="0.7"/>
</g>
<mask id="mask0_862_12532" style="mask-type:alpha" maskUnits="userSpaceOnUse" x="0" y="0" width="483" height="483">
<path d="M241.18 482.36C374.38 482.36 482.36 374.38 482.36 241.18C482.36 107.98 374.38 0 241.18 0C107.98 0 0 107.98 0 241.18C0 374.38 107.98 482.36 241.18 482.36Z" fill="white"/>
</mask>
<g mask="url(#mask0_862_12532)">
<g filter="url(#filter0_f_862_12532)">
<path d="M-1.3759 234.299C-1.11402 230.872 0.0137008 230.529 0.342619 234.008C0.708055 237.874 -0.00231624 245.646 0.16871 250.335C0.621554 262.748 2.52441 273.541 4.48605 282.32C10.8075 310.612 19.5617 328.843 27.7268 344.288C54.5663 395.06 83.9667 420.77 112.648 440.147C154.689 468.549 197.072 477.584 239.49 479.5C240.56 479.548 240.738 486.518 239.686 487.425C237.788 489.061 235.436 487.437 233.494 487.369C227.915 487.174 222.335 486.791 216.756 486.211C200.213 484.492 183.67 480.991 167.162 475.358C122.275 460.044 73.8765 433.821 31.6092 359.962C28.9502 355.316 26.3124 350.424 23.7118 345.167C21.6321 340.963 19.5726 336.556 17.5493 331.843C10.8946 316.342 -4.61323 276.658 -1.3759 234.299ZM239.52 487.5C238.499 487.531 238.241 481.034 239.214 479.685C240.684 477.647 242.888 479.326 244.439 479.229C250.877 478.826 257.314 478.229 263.75 477.421C281.395 475.205 299.028 471.422 316.621 465.596C360.257 451.145 407.17 429.115 448.305 361.431C450.923 357.123 453.518 352.553 456.079 347.641C463.86 332.712 483.361 293.084 481.107 243.821C480.917 239.668 482.181 237.181 482.747 240.743C483.467 245.279 483.175 254.736 482.977 259.768C482.341 275.883 479.866 289.512 477.257 300.518C468.987 335.399 457.376 355.623 446.744 372.51C412.184 427.397 374.648 449.524 338.155 465.424C305.424 479.686 272.444 486.484 239.52 487.5Z" fill="#401C02"/>
</g>
<g filter="url(#filter1_f_862_12532)">
<path d="M-1.3759 234.299C-1.11402 230.872 0.0137008 230.529 0.342619 234.008C0.708055 237.874 -0.00231624 245.646 0.16871 250.335C0.621554 262.748 2.52441 273.541 4.48605 282.32C10.8075 310.612 19.5617 328.843 27.7268 344.288C54.5663 395.06 83.9667 420.77 112.648 440.147C154.689 468.549 197.072 477.584 239.49 479.5C240.56 479.548 240.738 486.518 239.686 487.425C237.788 489.061 235.436 487.437 233.494 487.369C227.915 487.174 222.335 486.791 216.756 486.211C200.213 484.492 183.67 480.991 167.162 475.358C122.275 460.044 73.8765 433.821 31.6092 359.962C28.9502 355.316 26.3124 350.424 23.7118 345.167C21.6321 340.963 19.5726 336.556 17.5493 331.843C10.8946 316.342 -4.61323 276.658 -1.3759 234.299ZM239.52 487.5C238.499 487.531 238.241 481.034 239.214 479.685C240.684 477.647 242.888 479.326 244.439 479.229C250.877 478.826 257.314 478.229 263.75 477.421C281.395 475.205 299.028 471.422 316.621 465.596C360.257 451.145 407.17 429.115 448.305 361.431C450.923 357.123 453.518 352.553 456.079 347.641C463.86 332.712 483.361 293.084 481.107 243.821C480.917 239.668 482.181 237.181 482.747 240.743C483.467 245.279 483.175 254.736 482.977 259.768C482.341 275.883 479.866 289.512 477.257 300.518C468.987 335.399 457.376 355.623 446.744 372.51C412.184 427.397 374.648 449.524 338.155 465.424C305.424 479.686 272.444 486.484 239.52 487.5Z" fill="#401C02"/>
</g>
</g>
<path d="M241.333 335.23C190.943 335.23 143.963 327.64 104.333 314.54C103.296 314.163 102.176 314.079 101.096 314.297C100.015 314.515 99.0148 315.027 98.2058 315.776C97.3967 316.525 96.8097 317.483 96.5093 318.544C96.2088 319.605 96.2065 320.728 96.5026 321.79C112.713 379.7 171.383 422.6 241.303 422.6C311.223 422.6 369.913 379.7 386.143 321.79C386.439 320.728 386.436 319.605 386.136 318.544C385.835 317.483 385.248 316.525 384.439 315.776C383.63 315.027 382.631 314.515 381.55 314.297C380.469 314.079 379.349 314.163 378.313 314.54C338.693 327.64 291.713 335.23 241.333 335.23Z" fill="url(#paint4_radial_862_12532)"/>
<path d="M95.2985 322.126L95.2989 322.127C111.679 380.644 170.895 423.85 241.303 423.85C311.71 423.85 370.946 380.644 387.346 322.127L387.347 322.126C387.704 320.842 387.702 319.485 387.339 318.203C386.976 316.921 386.266 315.764 385.289 314.859C384.311 313.954 383.103 313.335 381.797 313.072C380.497 312.81 379.151 312.909 377.904 313.359C338.425 326.41 291.585 333.98 241.333 333.98C191.071 333.98 144.23 326.41 104.742 313.359C103.495 312.909 102.148 312.81 100.848 313.072C99.5423 313.335 98.3341 313.954 97.3565 314.859C96.3789 315.764 95.6696 316.921 95.3066 318.203C94.9435 319.485 94.9407 320.842 95.2985 322.126Z" stroke="url(#paint5_linear_862_12532)" stroke-width="2.5"/>
<mask id="mask1_862_12532" style="mask-type:alpha" maskUnits="userSpaceOnUse" x="0" y="0" width="483" height="483">
<path d="M241.18 482.36C374.38 482.36 482.36 374.38 482.36 241.18C482.36 107.98 374.38 0 241.18 0C107.98 0 0 107.98 0 241.18C0 374.38 107.98 482.36 241.18 482.36Z" fill="url(#paint6_radial_862_12532)"/>
</mask>
<g mask="url(#mask1_862_12532)">
<mask id="mask2_862_12532" style="mask-type:alpha" maskUnits="userSpaceOnUse" x="96" y="314" width="291" height="205">
<path d="M241.333 335.23C190.943 335.23 143.963 327.64 104.333 314.54C103.296 314.163 102.176 314.079 101.096 314.297C100.015 314.515 99.0148 315.027 98.2058 315.776C97.3967 316.525 96.8097 317.483 96.5093 318.544C96.2088 319.605 96.2065 320.728 96.5026 321.79C112.713 379.7 171.413 519 241.333 519C311.253 519 369.913 379.7 386.143 321.79C386.439 320.728 386.436 319.605 386.136 318.544C385.835 317.483 385.248 316.525 384.439 315.776C383.63 315.027 382.631 314.515 381.55 314.297C380.469 314.079 379.349 314.163 378.313 314.54C338.693 327.64 291.713 335.23 241.333 335.23Z" fill="black"/>
</mask>
<g mask="url(#mask2_862_12532)">
<g filter="url(#filter2_f_862_12532)">
<path d="M241.012 502.9C205.112 502.9 176.112 473.8 176.112 438V329H305.812V438C305.812 473.8 276.812 502.9 241.012 502.9Z" fill="#672500"/>
</g>
</g>
</g>
<mask id="mask3_862_12532" style="mask-type:alpha" maskUnits="userSpaceOnUse" x="96" y="314" width="291" height="205">
<path d="M241.333 335.23C190.943 335.23 143.963 327.64 104.333 314.54C103.296 314.163 102.176 314.079 101.096 314.297C100.015 314.515 99.0148 315.027 98.2058 315.776C97.3967 316.525 96.8097 317.483 96.5093 318.544C96.2088 319.605 96.2065 320.728 96.5026 321.79C112.713 379.7 171.413 519 241.333 519C311.253 519 369.913 379.7 386.143 321.79C386.439 320.728 386.436 319.605 386.136 318.544C385.835 317.483 385.248 316.525 384.439 315.776C383.63 315.027 382.631 314.515 381.55 314.297C380.469 314.079 379.349 314.163 378.313 314.54C338.693 327.64 291.713 335.23 241.333 335.23Z" fill="black"/>
</mask>
<g mask="url(#mask3_862_12532)">
<path d="M305.7 331.25V436.25C305.7 444.766 304.023 453.199 300.764 461.067C297.505 468.935 292.728 476.084 286.706 482.106C280.684 488.128 273.535 492.905 265.667 496.164C257.799 499.423 249.366 501.1 240.85 501.1C232.334 501.1 223.901 499.423 216.033 496.164C208.165 492.905 201.016 488.128 194.994 482.106C188.972 476.084 184.195 468.935 180.936 461.067C177.677 453.199 176 444.766 176 436.25V332.2C196.357 334.788 216.859 336.077 237.38 336.06C260.239 336.084 283.07 334.476 305.7 331.25Z" fill="black"/>
<path d="M305.7 331.25V436.25C305.7 444.766 304.023 453.199 300.764 461.067C297.505 468.935 292.728 476.084 286.706 482.106C280.684 488.128 273.535 492.905 265.667 496.164C257.799 499.423 249.366 501.1 240.85 501.1C232.334 501.1 223.901 499.423 216.033 496.164C208.165 492.905 201.016 488.128 194.994 482.106C188.972 476.084 184.195 468.935 180.936 461.067C177.677 453.199 176 444.766 176 436.25V332.2C196.357 334.788 216.859 336.077 237.38 336.06C260.239 336.084 283.07 334.476 305.7 331.25Z" fill="url(#paint7_radial_862_12532)"/>
<path style="mix-blend-mode:multiply" d="M305.7 331.25V436.25C305.7 444.766 304.023 453.199 300.764 461.067C297.505 468.935 292.728 476.084 286.706 482.106C280.684 488.128 273.535 492.905 265.667 496.164C257.799 499.423 249.366 501.1 240.85 501.1C232.334 501.1 223.901 499.423 216.033 496.164C208.165 492.905 201.016 488.128 194.994 482.106C188.972 476.084 184.195 468.935 180.936 461.067C177.677 453.199 176 444.766 176 436.25V332.2C196.357 334.788 216.859 336.077 237.38 336.06C260.239 336.084 283.07 334.476 305.7 331.25Z" fill="url(#paint8_radial_862_12532)"/>
<path d="M246.46 463.14V478.76H237.61V463.14C224.06 462.45 211.19 457.74 204 451.14L209.12 440.36C215.62 446.3 226.41 450.73 237.61 451.42V419.3C222.4 415.56 206.35 410.72 206.35 391.91C206.35 378.22 216.17 366.33 237.61 364.53V348.76H246.46V364.39C256.83 364.8 267.21 367.85 274.54 372.83L269.97 383.89C262.91 379.372 254.823 376.71 246.46 376.15V408.37C261.95 412.24 278.55 416.81 278.55 435.75C278.55 449.44 268.31 461.34 246.46 463.14ZM237.61 406.14V376.28C225.3 377.81 219.91 384.03 219.91 391.36C219.89 399.97 227.65 403.53 237.61 406.16V406.14ZM264.99 436.56C264.99 427.71 256.7 424.25 246.46 421.49V451.22C259.32 449.97 264.99 444.05 264.99 436.58V436.56Z" fill="#052B08"/>
</g>
<mask id="mask4_862_12532" style="mask-type:alpha" maskUnits="userSpaceOnUse" x="96" y="314" width="291" height="109">
<path d="M241.333 335.23C190.943 335.23 143.963 327.64 104.333 314.54C103.296 314.163 102.176 314.079 101.096 314.297C100.015 314.515 99.0148 315.027 98.2058 315.776C97.3967 316.525 96.8097 317.483 96.5093 318.544C96.2088 319.605 96.2065 320.728 96.5026 321.79C112.713 379.7 171.383 422.6 241.303 422.6C311.223 422.6 369.913 379.7 386.143 321.79C386.439 320.728 386.436 319.605 386.136 318.544C385.835 317.483 385.248 316.525 384.439 315.776C383.63 315.027 382.631 314.515 381.55 314.297C380.469 314.079 379.349 314.163 378.313 314.54C338.693 327.64 291.713 335.23 241.333 335.23Z" fill="url(#paint9_radial_862_12532)"/>
</mask>
<g mask="url(#mask4_862_12532)">
<g filter="url(#filter3_f_862_12532)">
<ellipse cx="241" cy="232" rx="203" ry="137" fill="#401C02"/>
</g>
</g>
<path d="M155.27 253.84V271.97H145V253.84C129.27 253.03 114.35 247.58 106 239.84L111.94 227.32C119.48 234.22 131.94 239.32 144.94 240.16V202.97C127.29 198.64 108.68 193.03 108.68 171.21C108.68 155.32 120.07 141.53 144.94 139.44V121.15H155.21V139.28C167.21 139.76 179.27 143.28 187.78 149.07L182.55 161.9C174.361 156.655 164.982 153.56 155.28 152.9V190.28C173.28 194.77 192.5 200.07 192.5 222.05C192.49 237.97 180.62 251.75 155.27 253.84ZM145 187.73V153.08C130.72 154.84 124.46 162.08 124.46 170.57C124.46 180.51 133.45 184.68 145 187.73ZM176.77 223.03C176.77 212.76 167.14 208.75 155.27 205.54V240.04C170.19 238.59 176.77 231.69 176.77 223.03Z" fill="url(#paint10_radial_862_12532)"/>
<path d="M155.27 253.84V271.97H145V253.84C129.27 253.03 114.35 247.58 106 239.84L111.94 227.32C119.48 234.22 131.94 239.32 144.94 240.16V202.97C127.29 198.64 108.68 193.03 108.68 171.21C108.68 155.32 120.07 141.53 144.94 139.44V121.15H155.21V139.28C167.21 139.76 179.27 143.28 187.78 149.07L182.55 161.9C174.361 156.655 164.982 153.56 155.28 152.9V190.28C173.28 194.77 192.5 200.07 192.5 222.05C192.49 237.97 180.62 251.75 155.27 253.84ZM145 187.73V153.08C130.72 154.84 124.46 162.08 124.46 170.57C124.46 180.51 133.45 184.68 145 187.73ZM176.77 223.03C176.77 212.76 167.14 208.75 155.27 205.54V240.04C170.19 238.59 176.77 231.69 176.77 223.03Z" stroke="url(#paint11_linear_862_12532)" stroke-width="2" stroke-miterlimit="10"/>
<path d="M338.28 253.84V271.97H328.01V253.84C312.29 253.03 297.37 247.58 289.01 239.84L294.95 227.32C302.49 234.22 314.95 239.32 327.95 240.16V202.97C310.3 198.64 291.69 193.03 291.69 171.21C291.69 155.32 303.08 141.53 327.95 139.44V121.15H338.22V139.28C350.22 139.76 362.29 143.28 370.79 149.07L365.55 161.9C357.361 156.655 347.982 153.56 338.28 152.9V190.28C356.28 194.77 375.5 200.07 375.5 222.05C375.55 237.97 363.63 251.75 338.28 253.84ZM328.01 187.73V153.08C313.73 154.84 307.47 162.08 307.47 170.57C307.47 180.51 316.46 184.68 328.01 187.73ZM359.78 223.03C359.78 212.76 350.15 208.75 338.28 205.54V240.04C353.2 238.59 359.78 231.69 359.78 223.03Z" fill="url(#paint12_radial_862_12532)"/>
<path d="M338.28 253.84V271.97H328.01V253.84C312.29 253.03 297.37 247.58 289.01 239.84L294.95 227.32C302.49 234.22 314.95 239.32 327.95 240.16V202.97C310.3 198.64 291.69 193.03 291.69 171.21C291.69 155.32 303.08 141.53 327.95 139.44V121.15H338.22V139.28C350.22 139.76 362.29 143.28 370.79 149.07L365.55 161.9C357.361 156.655 347.982 153.56 338.28 152.9V190.28C356.28 194.77 375.5 200.07 375.5 222.05C375.55 237.97 363.63 251.75 338.28 253.84ZM328.01 187.73V153.08C313.73 154.84 307.47 162.08 307.47 170.57C307.47 180.51 316.46 184.68 328.01 187.73V187.73ZM359.78 223.03C359.78 212.76 350.15 208.75 338.28 205.54V240.04C353.2 238.59 359.78 231.69 359.78 223.03Z" stroke="url(#paint13_linear_862_12532)" stroke-width="2" stroke-miterlimit="10"/>
<defs>
<filter id="filter0_f_862_12532" x="-26.8149" y="206.558" width="535.022" height="306.595" filterUnits="userSpaceOnUse" color-interpolation-filters="sRGB">
<feFlood flood-opacity="0" result="BackgroundImageFix"/>
<feBlend mode="normal" in="SourceGraphic" in2="BackgroundImageFix" result="shape"/>
<feGaussianBlur stdDeviation="12.5" result="effect1_foregroundBlur_862_12532"/>
</filter>
<filter id="filter1_f_862_12532" x="-41.8149" y="191.558" width="565.022" height="336.595" filterUnits="userSpaceOnUse" color-interpolation-filters="sRGB">
<feFlood flood-opacity="0" result="BackgroundImageFix"/>
<feBlend mode="normal" in="SourceGraphic" in2="BackgroundImageFix" result="shape"/>
<feGaussianBlur stdDeviation="20" result="effect1_foregroundBlur_862_12532"/>
</filter>
<filter id="filter2_f_862_12532" x="156.112" y="309" width="169.7" height="213.9" filterUnits="userSpaceOnUse" color-interpolation-filters="sRGB">
<feFlood flood-opacity="0" result="BackgroundImageFix"/>
<feBlend mode="normal" in="SourceGraphic" in2="BackgroundImageFix" result="shape"/>
<feGaussianBlur stdDeviation="10" result="effect1_foregroundBlur_862_12532"/>
</filter>
<filter id="filter3_f_862_12532" x="-17" y="40" width="516" height="384" filterUnits="userSpaceOnUse" color-interpolation-filters="sRGB">
<feFlood flood-opacity="0" result="BackgroundImageFix"/>
<feBlend mode="normal" in="SourceGraphic" in2="BackgroundImageFix" result="shape"/>
<feGaussianBlur stdDeviation="27.5" result="effect1_foregroundBlur_862_12532"/>
</filter>
<radialGradient id="paint0_radial_862_12532" cx="0" cy="0" r="1" gradientUnits="userSpaceOnUse" gradientTransform="translate(241 -4.53898e-06) rotate(90) scale(482)">
<stop stop-color="#FFDE43"/>
<stop offset="1" stop-color="#FFBC00"/>
</radialGradient>
<radialGradient id="paint1_radial_862_12532" cx="0" cy="0" r="1" gradientUnits="userSpaceOnUse" gradientTransform="translate(241 64.5) rotate(90) scale(417.5)">
<stop stop-color="white" stop-opacity="0.5"/>
<stop offset="0.782278"/>
</radialGradient>
<radialGradient id="paint2_radial_862_12532" cx="0" cy="0" r="1" gradientUnits="userSpaceOnUse" gradientTransform="translate(241 64.5) rotate(90) scale(417.5)">
<stop stop-color="white" stop-opacity="0.5"/>
<stop offset="0.782278"/>
</radialGradient>
<radialGradient id="paint3_radial_862_12532" cx="0" cy="0" r="1" gradientUnits="userSpaceOnUse" gradientTransform="translate(241 -52.5) rotate(90) scale(534.5 722.835)">
<stop offset="0.0922635" stop-color="white"/>
<stop offset="0.670207" stop-color="white" stop-opacity="0"/>
</radialGradient>
<radialGradient id="paint4_radial_862_12532" cx="0" cy="0" r="1" gradientUnits="userSpaceOnUse" gradientTransform="translate(241.323 368.17) scale(109.48 109.511)">
<stop stop-color="#743C1C"/>
<stop offset="1" stop-color="#401C02"/>
</radialGradient>
<linearGradient id="paint5_linear_862_12532" x1="241.323" y1="425.651" x2="241.323" y2="310.69" gradientUnits="userSpaceOnUse">
<stop offset="0.265625" stop-color="#FFDE43"/>
<stop offset="1" stop-color="#F79D14"/>
</linearGradient>
<radialGradient id="paint6_radial_862_12532" cx="0" cy="0" r="1" gradientUnits="userSpaceOnUse" gradientTransform="translate(241 -4.53898e-06) rotate(90) scale(482)">
<stop stop-color="#FFDE43"/>
<stop offset="1" stop-color="#FFBC00"/>
</radialGradient>
<radialGradient id="paint7_radial_862_12532" cx="0" cy="0" r="1" gradientUnits="userSpaceOnUse" gradientTransform="translate(242.13 403.116) scale(81.22 95.0274)">
<stop offset="0.166667" stop-color="#00F018"/>
<stop offset="0.734375" stop-color="#00AC11"/>
<stop offset="1" stop-color="#0F7319"/>
</radialGradient>
<radialGradient id="paint8_radial_862_12532" cx="0" cy="0" r="1" gradientUnits="userSpaceOnUse" gradientTransform="translate(240.85 415.896) scale(75.57 218.397)">
<stop offset="0.29" stop-color="#6BD876" stop-opacity="0"/>
<stop offset="0.43" stop-color="#6AD675" stop-opacity="0.03"/>
<stop offset="0.55" stop-color="#67CF71" stop-opacity="0.11"/>
<stop offset="0.66" stop-color="#61C46B" stop-opacity="0.25"/>
<stop offset="0.78" stop-color="#5AB463" stop-opacity="0.44"/>
<stop offset="0.89" stop-color="#50A058" stop-opacity="0.69"/>
<stop offset="1" stop-color="#44874B"/>
</radialGradient>
<radialGradient id="paint9_radial_862_12532" cx="0" cy="0" r="1" gradientUnits="userSpaceOnUse" gradientTransform="translate(241.323 368.17) scale(109.48 109.511)">
<stop stop-color="#743C1C"/>
<stop offset="1" stop-color="#401C02"/>
</radialGradient>
<radialGradient id="paint10_radial_862_12532" cx="0" cy="0" r="1" gradientUnits="userSpaceOnUse" gradientTransform="translate(149.19 196.51) scale(55.1332 75.5408)">
<stop stop-color="#743C1C"/>
<stop offset="1" stop-color="#401C02"/>
</radialGradient>
<linearGradient id="paint11_linear_862_12532" x1="149.25" y1="276.214" x2="149.25" y2="116.297" gradientUnits="userSpaceOnUse">
<stop stop-color="#FFDE43"/>
<stop offset="0.22" stop-color="#FED93F"/>
<stop offset="0.51" stop-color="#FCC934"/>
<stop offset="0.82" stop-color="#F9AF21"/>
<stop offset="1" stop-color="#F79D14"/>
</linearGradient>
<radialGradient id="paint12_radial_862_12532" cx="0" cy="0" r="1" gradientUnits="userSpaceOnUse" gradientTransform="translate(332.195 196.51) scale(55.127 75.5408)">
<stop stop-color="#743C1C"/>
<stop offset="1" stop-color="#401C02"/>
</radialGradient>
<linearGradient id="paint13_linear_862_12532" x1="332.255" y1="276.214" x2="332.255" y2="116.297" gradientUnits="userSpaceOnUse">
<stop stop-color="#FFDE43"/>
<stop offset="0.22" stop-color="#FED93F"/>
<stop offset="0.51" stop-color="#FCC934"/>
<stop offset="0.82" stop-color="#F9AF21"/>
<stop offset="1" stop-color="#F79D14"/>
</linearGradient>
</defs>
</svg>
