<svg width="483" height="483" viewBox="0 0 483 483" fill="none" xmlns="http://www.w3.org/2000/svg">
<path d="M241.18 482.36C374.38 482.36 482.36 374.38 482.36 241.18C482.36 107.98 374.38 0 241.18 0C107.98 0 0 107.98 0 241.18C0 374.38 107.98 482.36 241.18 482.36Z" fill="url(#paint0_radial_862_12468)"/>
<g style="mix-blend-mode:soft-light">
<path d="M241.18 482.36C374.38 482.36 482.36 374.38 482.36 241.18C482.36 107.98 374.38 0 241.18 0C107.98 0 0 107.98 0 241.18C0 374.38 107.98 482.36 241.18 482.36Z" fill="url(#paint1_radial_862_12468)"/>
</g>
<g style="mix-blend-mode:soft-light">
<path d="M241.18 482.36C374.38 482.36 482.36 374.38 482.36 241.18C482.36 107.98 374.38 0 241.18 0C107.98 0 0 107.98 0 241.18C0 374.38 107.98 482.36 241.18 482.36Z" fill="url(#paint2_radial_862_12468)"/>
</g>
<g style="mix-blend-mode:overlay">
<path d="M241.18 482.36C374.38 482.36 482.36 374.38 482.36 241.18C482.36 107.98 374.38 0 241.18 0C107.98 0 0 107.98 0 241.18C0 374.38 107.98 482.36 241.18 482.36Z" fill="url(#paint3_radial_862_12468)" fill-opacity="0.7"/>
</g>
<mask id="mask0_862_12468" style="mask-type:alpha" maskUnits="userSpaceOnUse" x="0" y="0" width="483" height="483">
<path d="M241.18 482.36C374.38 482.36 482.36 374.38 482.36 241.18C482.36 107.98 374.38 0 241.18 0C107.98 0 0 107.98 0 241.18C0 374.38 107.98 482.36 241.18 482.36Z" fill="white"/>
</mask>
<g mask="url(#mask0_862_12468)">
<g filter="url(#filter0_f_862_12468)">
<path d="M-1.3759 234.299C-1.11402 230.872 0.0137008 230.529 0.342619 234.008C0.708055 237.874 -0.00231624 245.646 0.16871 250.335C0.621554 262.748 2.52441 273.541 4.48605 282.32C10.8075 310.612 19.5617 328.843 27.7268 344.288C54.5663 395.06 83.9667 420.77 112.648 440.147C154.689 468.549 197.072 477.584 239.49 479.5C240.56 479.548 240.738 486.518 239.686 487.425C237.788 489.061 235.436 487.437 233.494 487.369C227.915 487.174 222.335 486.791 216.756 486.211C200.213 484.492 183.67 480.991 167.162 475.358C122.275 460.044 73.8765 433.821 31.6092 359.962C28.9502 355.316 26.3124 350.424 23.7118 345.167C21.6321 340.963 19.5726 336.556 17.5493 331.843C10.8946 316.342 -4.61323 276.658 -1.3759 234.299ZM239.52 487.5C238.499 487.531 238.241 481.034 239.214 479.685C240.684 477.647 242.888 479.326 244.439 479.229C250.877 478.826 257.314 478.229 263.75 477.421C281.395 475.205 299.028 471.422 316.621 465.596C360.257 451.145 407.17 429.115 448.305 361.431C450.923 357.123 453.518 352.553 456.079 347.641C463.86 332.712 483.361 293.084 481.107 243.821C480.917 239.668 482.181 237.181 482.747 240.743C483.467 245.279 483.175 254.736 482.977 259.768C482.341 275.883 479.866 289.512 477.257 300.518C468.987 335.399 457.376 355.623 446.744 372.51C412.184 427.397 374.648 449.524 338.155 465.424C305.424 479.686 272.444 486.484 239.52 487.5Z" fill="#401C02"/>
</g>
<g filter="url(#filter1_f_862_12468)">
<path d="M-1.3759 234.299C-1.11402 230.872 0.0137008 230.529 0.342619 234.008C0.708055 237.874 -0.00231624 245.646 0.16871 250.335C0.621554 262.748 2.52441 273.541 4.48605 282.32C10.8075 310.612 19.5617 328.843 27.7268 344.288C54.5663 395.06 83.9667 420.77 112.648 440.147C154.689 468.549 197.072 477.584 239.49 479.5C240.56 479.548 240.738 486.518 239.686 487.425C237.788 489.061 235.436 487.437 233.494 487.369C227.915 487.174 222.335 486.791 216.756 486.211C200.213 484.492 183.67 480.991 167.162 475.358C122.275 460.044 73.8765 433.821 31.6092 359.962C28.9502 355.316 26.3124 350.424 23.7118 345.167C21.6321 340.963 19.5726 336.556 17.5493 331.843C10.8946 316.342 -4.61323 276.658 -1.3759 234.299ZM239.52 487.5C238.499 487.531 238.241 481.034 239.214 479.685C240.684 477.647 242.888 479.326 244.439 479.229C250.877 478.826 257.314 478.229 263.75 477.421C281.395 475.205 299.028 471.422 316.621 465.596C360.257 451.145 407.17 429.115 448.305 361.431C450.923 357.123 453.518 352.553 456.079 347.641C463.86 332.712 483.361 293.084 481.107 243.821C480.917 239.668 482.181 237.181 482.747 240.743C483.467 245.279 483.175 254.736 482.977 259.768C482.341 275.883 479.866 289.512 477.257 300.518C468.987 335.399 457.376 355.623 446.744 372.51C412.184 427.397 374.648 449.524 338.155 465.424C305.424 479.686 272.444 486.484 239.52 487.5Z" fill="#401C02"/>
</g>
</g>
<path d="M289.274 83.4699C292.994 92.4699 317.274 145.94 367.134 140.96C368.693 140.832 370.163 140.177 371.3 139.103C372.438 138.029 373.176 136.599 373.394 135.05C373.594 133.13 372.974 131.05 370.334 129.44C358.904 122.5 330.744 124.17 304.544 88.9399C302.301 85.8429 300.215 82.6355 298.294 79.3299C296.884 76.9799 294.364 73.7499 291.474 74.5699C288.994 75.2599 288.474 77.5699 288.424 79.4199C288.43 80.8135 288.719 82.1914 289.274 83.4699Z" fill="#154B00"/>
<path d="M192.155 83.4699C188.435 92.4699 164.155 145.94 114.295 140.96C112.735 140.832 111.266 140.177 110.128 139.103C108.99 138.029 108.252 136.599 108.035 135.05C107.835 133.13 108.455 131.05 111.095 129.44C122.525 122.5 150.685 124.17 176.885 88.9399C179.127 85.8429 181.213 82.6355 183.135 79.3299C184.545 76.9799 187.065 73.7499 189.955 74.5699C192.435 75.2599 192.955 77.5699 193.005 79.4199C192.999 80.8135 192.71 82.1914 192.155 83.4699Z" fill="#154B00"/>
<path d="M172.044 224.3C186.553 224.3 198.314 208.791 198.314 189.66C198.314 170.529 186.553 155.02 172.044 155.02C157.536 155.02 145.774 170.529 145.774 189.66C145.774 208.791 157.536 224.3 172.044 224.3Z" fill="url(#paint4_radial_862_12468)"/>
<path d="M172.044 224.3C186.553 224.3 198.314 208.791 198.314 189.66C198.314 170.529 186.553 155.02 172.044 155.02C157.536 155.02 145.774 170.529 145.774 189.66C145.774 208.791 157.536 224.3 172.044 224.3Z" stroke="url(#paint5_linear_862_12468)" stroke-width="2" stroke-miterlimit="10"/>
<path d="M309.384 224.3C323.893 224.3 335.654 208.791 335.654 189.66C335.654 170.529 323.893 155.02 309.384 155.02C294.876 155.02 283.114 170.529 283.114 189.66C283.114 208.791 294.876 224.3 309.384 224.3Z" fill="url(#paint6_radial_862_12468)"/>
<path d="M309.384 224.3C323.893 224.3 335.654 208.791 335.654 189.66C335.654 170.529 323.893 155.02 309.384 155.02C294.876 155.02 283.114 170.529 283.114 189.66C283.114 208.791 294.876 224.3 309.384 224.3Z" stroke="url(#paint7_linear_862_12468)" stroke-width="2" stroke-miterlimit="10"/>
<g filter="url(#filter2_f_862_12468)">
<circle cx="118" cy="331" r="50" fill="#E66200" fill-opacity="0.75"/>
</g>
<g filter="url(#filter3_f_862_12468)">
<circle cx="365" cy="331" r="50" fill="#E66200" fill-opacity="0.75"/>
</g>
<path d="M344.694 275.99C331.984 272.42 317.484 277.85 308.914 289.99C297.914 275.9 271.514 265.99 240.714 265.99C209.914 265.99 183.554 275.91 172.514 289.99C163.944 277.89 149.444 272.46 136.744 275.99C136.479 275.982 136.222 276.08 136.028 276.262C135.835 276.444 135.722 276.695 135.714 276.96C135.706 277.225 135.804 277.483 135.986 277.676C136.168 277.869 136.419 277.982 136.684 277.99C145.814 281.83 154.684 289.58 161.104 300.23C167.524 310.88 170.104 322.37 169.244 332.23C169.188 332.451 169.21 332.685 169.305 332.893C169.401 333.1 169.564 333.269 169.769 333.37C169.973 333.472 170.206 333.5 170.429 333.451C170.652 333.402 170.852 333.278 170.994 333.1C179.994 323.67 182.094 308.57 175.724 295.43C192.724 288.88 215.544 284.85 240.724 284.85C265.904 284.85 288.724 288.85 305.724 295.44C299.364 308.58 301.454 323.67 310.464 333.1C310.607 333.278 310.807 333.402 311.029 333.451C311.252 333.5 311.485 333.472 311.69 333.37C311.894 333.269 312.058 333.1 312.153 332.893C312.249 332.685 312.27 332.451 312.214 332.23C311.324 322.36 313.974 310.87 320.354 300.23C326.734 289.59 335.614 281.81 344.784 277.99C345.05 277.978 345.299 277.861 345.478 277.665C345.657 277.469 345.751 277.21 345.739 276.945C345.727 276.68 345.611 276.43 345.415 276.251C345.219 276.072 344.96 275.978 344.694 275.99Z" fill="url(#paint8_radial_862_12468)"/>
<path d="M344.694 275.99C331.984 272.42 317.484 277.85 308.914 289.99C297.914 275.9 271.514 265.99 240.714 265.99C209.914 265.99 183.554 275.91 172.514 289.99C163.944 277.89 149.444 272.46 136.744 275.99C136.479 275.982 136.222 276.08 136.028 276.262C135.835 276.444 135.722 276.695 135.714 276.96C135.706 277.225 135.804 277.483 135.986 277.676C136.168 277.869 136.419 277.982 136.684 277.99C145.814 281.83 154.684 289.58 161.104 300.23C167.524 310.88 170.104 322.37 169.244 332.23C169.188 332.451 169.21 332.685 169.305 332.893C169.401 333.1 169.564 333.269 169.769 333.37C169.973 333.472 170.206 333.5 170.429 333.451C170.652 333.402 170.852 333.278 170.994 333.1C179.994 323.67 182.094 308.57 175.724 295.43C192.724 288.88 215.544 284.85 240.724 284.85C265.904 284.85 288.724 288.85 305.724 295.44C299.364 308.58 301.454 323.67 310.464 333.1C310.607 333.278 310.806 333.402 311.029 333.451C311.252 333.5 311.485 333.472 311.69 333.37C311.894 333.269 312.058 333.1 312.153 332.893C312.249 332.685 312.27 332.451 312.214 332.23C311.324 322.36 313.974 310.87 320.354 300.23C326.734 289.59 335.614 281.81 344.784 277.99C345.05 277.978 345.299 277.861 345.478 277.665C345.657 277.469 345.751 277.21 345.739 276.945C345.727 276.68 345.611 276.43 345.415 276.251C345.219 276.072 344.96 275.978 344.694 275.99V275.99Z" stroke="url(#paint9_linear_862_12468)" stroke-width="2.5" stroke-miterlimit="10"/>
<defs>
<filter id="filter0_f_862_12468" x="-26.8149" y="206.558" width="535.022" height="306.595" filterUnits="userSpaceOnUse" color-interpolation-filters="sRGB">
<feFlood flood-opacity="0" result="BackgroundImageFix"/>
<feBlend mode="normal" in="SourceGraphic" in2="BackgroundImageFix" result="shape"/>
<feGaussianBlur stdDeviation="12.5" result="effect1_foregroundBlur_862_12468"/>
</filter>
<filter id="filter1_f_862_12468" x="-41.8149" y="191.558" width="565.022" height="336.595" filterUnits="userSpaceOnUse" color-interpolation-filters="sRGB">
<feFlood flood-opacity="0" result="BackgroundImageFix"/>
<feBlend mode="normal" in="SourceGraphic" in2="BackgroundImageFix" result="shape"/>
<feGaussianBlur stdDeviation="20" result="effect1_foregroundBlur_862_12468"/>
</filter>
<filter id="filter2_f_862_12468" x="8" y="221" width="220" height="220" filterUnits="userSpaceOnUse" color-interpolation-filters="sRGB">
<feFlood flood-opacity="0" result="BackgroundImageFix"/>
<feBlend mode="normal" in="SourceGraphic" in2="BackgroundImageFix" result="shape"/>
<feGaussianBlur stdDeviation="30" result="effect1_foregroundBlur_862_12468"/>
</filter>
<filter id="filter3_f_862_12468" x="255" y="221" width="220" height="220" filterUnits="userSpaceOnUse" color-interpolation-filters="sRGB">
<feFlood flood-opacity="0" result="BackgroundImageFix"/>
<feBlend mode="normal" in="SourceGraphic" in2="BackgroundImageFix" result="shape"/>
<feGaussianBlur stdDeviation="30" result="effect1_foregroundBlur_862_12468"/>
</filter>
<radialGradient id="paint0_radial_862_12468" cx="0" cy="0" r="1" gradientUnits="userSpaceOnUse" gradientTransform="translate(241.18 241.17) scale(241.18)">
<stop stop-color="#C9FE00"/>
<stop offset="0.11" stop-color="#C2FC01"/>
<stop offset="0.26" stop-color="#B0F702"/>
<stop offset="0.43" stop-color="#92EE05"/>
<stop offset="0.63" stop-color="#67E109"/>
<stop offset="0.84" stop-color="#32D10F"/>
<stop offset="1" stop-color="#05C413"/>
</radialGradient>
<radialGradient id="paint1_radial_862_12468" cx="0" cy="0" r="1" gradientUnits="userSpaceOnUse" gradientTransform="translate(241 64.5) rotate(90) scale(417.5)">
<stop stop-color="white" stop-opacity="0.5"/>
<stop offset="0.782278"/>
</radialGradient>
<radialGradient id="paint2_radial_862_12468" cx="0" cy="0" r="1" gradientUnits="userSpaceOnUse" gradientTransform="translate(241 64.5) rotate(90) scale(417.5)">
<stop stop-color="white" stop-opacity="0.5"/>
<stop offset="0.782278"/>
</radialGradient>
<radialGradient id="paint3_radial_862_12468" cx="0" cy="0" r="1" gradientUnits="userSpaceOnUse" gradientTransform="translate(241 -52.5) rotate(90) scale(534.5 722.835)">
<stop offset="0.0922635" stop-color="white"/>
<stop offset="0.670207" stop-color="white" stop-opacity="0"/>
</radialGradient>
<radialGradient id="paint4_radial_862_12468" cx="0" cy="0" r="1" gradientUnits="userSpaceOnUse" gradientTransform="translate(173.353 189.644) scale(33.6027 34.9335)">
<stop stop-color="#05C413"/>
<stop offset="0.885417" stop-color="#154B00"/>
</radialGradient>
<linearGradient id="paint5_linear_862_12468" x1="172.044" y1="225.38" x2="172.044" y2="153.94" gradientUnits="userSpaceOnUse">
<stop stop-color="#87FE00"/>
<stop offset="1" stop-color="#C9FE00"/>
</linearGradient>
<radialGradient id="paint6_radial_862_12468" cx="0" cy="0" r="1" gradientUnits="userSpaceOnUse" gradientTransform="translate(310.693 189.644) scale(33.6027 34.9335)">
<stop stop-color="#05C413"/>
<stop offset="0.885417" stop-color="#154B00"/>
</radialGradient>
<linearGradient id="paint7_linear_862_12468" x1="309.384" y1="225.38" x2="309.384" y2="153.94" gradientUnits="userSpaceOnUse">
<stop stop-color="#87FE00"/>
<stop offset="1" stop-color="#C9FE00"/>
</linearGradient>
<radialGradient id="paint8_radial_862_12468" cx="0" cy="0" r="1" gradientUnits="userSpaceOnUse" gradientTransform="translate(245.959 299.717) scale(134.325 34.0283)">
<stop stop-color="#05C413"/>
<stop offset="0.885417" stop-color="#154B00"/>
</radialGradient>
<linearGradient id="paint9_linear_862_12468" x1="240.727" y1="334.527" x2="240.727" y2="264.938" gradientUnits="userSpaceOnUse">
<stop stop-color="#87FE00"/>
<stop offset="1" stop-color="#C9FE00"/>
</linearGradient>
</defs>
</svg>
