<svg width="483" height="483" viewBox="0 0 483 483" fill="none" xmlns="http://www.w3.org/2000/svg">
<path d="M241.18 482.36C374.38 482.36 482.36 374.38 482.36 241.18C482.36 107.98 374.38 0 241.18 0C107.98 0 0 107.98 0 241.18C0 374.38 107.98 482.36 241.18 482.36Z" fill="url(#paint0_radial_862_12455)"/>
<g style="mix-blend-mode:soft-light">
<path d="M241.18 482.36C374.38 482.36 482.36 374.38 482.36 241.18C482.36 107.98 374.38 0 241.18 0C107.98 0 0 107.98 0 241.18C0 374.38 107.98 482.36 241.18 482.36Z" fill="url(#paint1_radial_862_12455)"/>
</g>
<g style="mix-blend-mode:soft-light">
<path d="M241.18 482.36C374.38 482.36 482.36 374.38 482.36 241.18C482.36 107.98 374.38 0 241.18 0C107.98 0 0 107.98 0 241.18C0 374.38 107.98 482.36 241.18 482.36Z" fill="url(#paint2_radial_862_12455)"/>
</g>
<g style="mix-blend-mode:overlay">
<path d="M241.18 482.36C374.38 482.36 482.36 374.38 482.36 241.18C482.36 107.98 374.38 0 241.18 0C107.98 0 0 107.98 0 241.18C0 374.38 107.98 482.36 241.18 482.36Z" fill="url(#paint3_radial_862_12455)" fill-opacity="0.7"/>
</g>
<mask id="mask0_862_12455" style="mask-type:alpha" maskUnits="userSpaceOnUse" x="0" y="0" width="483" height="483">
<path d="M241.18 482.36C374.38 482.36 482.36 374.38 482.36 241.18C482.36 107.98 374.38 0 241.18 0C107.98 0 0 107.98 0 241.18C0 374.38 107.98 482.36 241.18 482.36Z" fill="white"/>
</mask>
<g mask="url(#mask0_862_12455)">
<g filter="url(#filter0_f_862_12455)">
<path d="M-1.37541 234.299C-1.11353 230.872 0.0141891 230.529 0.343108 234.008C0.708543 237.874 -0.00182796 245.646 0.169198 250.335C0.622042 262.748 2.5249 273.541 4.48654 282.32C10.808 310.612 19.5622 328.843 27.7273 344.288C54.5668 395.06 83.9672 420.77 112.648 440.147C154.69 468.549 197.073 477.584 239.491 479.5C240.561 479.548 240.739 486.518 239.686 487.425C237.788 489.061 235.437 487.437 233.495 487.369C227.915 487.174 222.336 486.791 216.756 486.211C200.213 484.492 183.671 480.991 167.162 475.358C122.275 460.044 73.877 433.821 31.6097 359.962C28.9507 355.316 26.3128 350.424 23.7123 345.167C21.6325 340.963 19.573 336.556 17.5498 331.843C10.895 316.342 -4.61274 276.658 -1.37541 234.299ZM239.52 487.5C238.5 487.531 238.241 481.034 239.214 479.685C240.685 477.647 242.889 479.326 244.439 479.229C250.878 478.826 257.315 478.229 263.75 477.421C281.396 475.205 299.028 471.422 316.621 465.596C360.257 451.145 407.17 429.115 448.305 361.431C450.923 357.123 453.519 352.553 456.079 347.641C463.86 332.712 483.362 293.084 481.107 243.821C480.917 239.668 482.182 237.181 482.748 240.743C483.468 245.279 483.176 254.736 482.977 259.768C482.342 275.883 479.867 289.512 477.257 300.518C468.987 335.399 457.377 355.623 446.744 372.51C412.184 427.397 374.649 449.524 338.156 465.424C305.425 479.686 272.445 486.484 239.52 487.5Z" fill="#401C02"/>
</g>
<g filter="url(#filter1_f_862_12455)">
<path d="M-1.37541 234.299C-1.11353 230.872 0.0141891 230.529 0.343108 234.008C0.708543 237.874 -0.00182796 245.646 0.169198 250.335C0.622042 262.748 2.5249 273.541 4.48654 282.32C10.808 310.612 19.5622 328.843 27.7273 344.288C54.5668 395.06 83.9672 420.77 112.648 440.147C154.69 468.549 197.073 477.584 239.491 479.5C240.561 479.548 240.739 486.518 239.686 487.425C237.788 489.061 235.437 487.437 233.495 487.369C227.915 487.174 222.336 486.791 216.756 486.211C200.213 484.492 183.671 480.991 167.162 475.358C122.275 460.044 73.877 433.821 31.6097 359.962C28.9507 355.316 26.3128 350.424 23.7123 345.167C21.6325 340.963 19.573 336.556 17.5498 331.843C10.895 316.342 -4.61274 276.658 -1.37541 234.299ZM239.52 487.5C238.5 487.531 238.241 481.034 239.214 479.685C240.685 477.647 242.889 479.326 244.439 479.229C250.878 478.826 257.315 478.229 263.75 477.421C281.396 475.205 299.028 471.422 316.621 465.596C360.257 451.145 407.17 429.115 448.305 361.431C450.923 357.123 453.519 352.553 456.079 347.641C463.86 332.712 483.362 293.084 481.107 243.821C480.917 239.668 482.182 237.181 482.748 240.743C483.468 245.279 483.176 254.736 482.977 259.768C482.342 275.883 479.867 289.512 477.257 300.518C468.987 335.399 457.377 355.623 446.744 372.51C412.184 427.397 374.649 449.524 338.156 465.424C305.425 479.686 272.445 486.484 239.52 487.5Z" fill="#401C02"/>
</g>
</g>
<path d="M357.93 317.57C359.04 316.63 360.3 318.45 359.57 319.94C357.353 324.353 354.855 328.618 352.09 332.71C351.09 334.14 350.09 335.6 349.09 337.02C348.09 338.44 346.99 339.73 345.93 341.09C344.87 342.45 343.8 343.81 342.68 345.09L339.29 348.83C330.443 358.264 320.318 366.413 309.21 373.04C288.519 384.964 265.057 391.24 241.175 391.24C217.294 391.24 193.832 384.964 173.14 373.04C162.055 366.396 151.957 358.23 143.14 348.78L139.75 345.03C138.64 343.76 137.57 342.4 136.5 341.03C135.43 339.66 134.36 338.36 133.34 336.95C132.32 335.54 131.34 334.08 130.34 332.64C127.57 328.532 125.068 324.25 122.85 319.82C122.12 318.32 123.38 316.51 124.49 317.45C132.152 323.886 140.41 329.578 149.15 334.45C158.742 339.842 168.804 344.354 179.21 347.93C219.551 360.724 262.859 360.741 303.21 347.98C313.625 344.426 323.697 339.934 333.3 334.56C342.027 329.685 350.274 323.997 357.93 317.57Z" fill="url(#paint4_radial_862_12455)"/>
<path d="M357.93 317.57C359.04 316.63 360.3 318.45 359.57 319.94C357.353 324.353 354.855 328.618 352.09 332.71C351.09 334.14 350.09 335.6 349.09 337.02C348.09 338.44 346.99 339.73 345.93 341.09C344.87 342.45 343.8 343.81 342.68 345.09L339.29 348.83C330.443 358.264 320.318 366.413 309.21 373.04C288.519 384.964 265.057 391.24 241.175 391.24C217.294 391.24 193.832 384.964 173.14 373.04C162.055 366.396 151.957 358.23 143.14 348.78L139.75 345.03C138.64 343.76 137.57 342.4 136.5 341.03C135.43 339.66 134.36 338.36 133.34 336.95C132.32 335.54 131.34 334.08 130.34 332.64C127.57 328.532 125.068 324.25 122.85 319.82C122.12 318.32 123.38 316.51 124.49 317.45C132.152 323.886 140.41 329.578 149.15 334.45C158.742 339.842 168.804 344.354 179.21 347.93C219.551 360.724 262.859 360.741 303.21 347.98C313.625 344.426 323.697 339.934 333.3 334.56C342.027 329.685 350.274 323.997 357.93 317.57V317.57Z" stroke="url(#paint5_linear_862_12455)" stroke-width="2.5" stroke-miterlimit="10"/>
<g filter="url(#filter2_f_862_12455)">
<g filter="url(#filter3_f_862_12455)">
<path d="M210.852 366.007H241.207V402.593C241.207 403.915 240.681 405.184 239.746 406.119C238.811 407.054 237.542 407.58 236.22 407.58H231.088C225.721 407.58 220.574 405.447 216.779 401.652C212.984 397.857 210.852 392.71 210.852 387.343V366.007Z" fill="#42210B" fill-opacity="0.8"/>
</g>
<g filter="url(#filter4_f_862_12455)">
<path d="M251.311 407.572H246.194C244.871 407.572 243.603 407.047 242.668 406.112C241.732 405.176 241.207 403.908 241.207 402.585V366H271.548V387.335C271.548 392.703 269.416 397.85 265.621 401.645C261.825 405.44 256.678 407.572 251.311 407.572Z" fill="#42210B" fill-opacity="0.8"/>
</g>
</g>
<mask id="mask1_862_12455" style="mask-type:alpha" maskUnits="userSpaceOnUse" x="122" y="318" width="238" height="90">
<path d="M357.298 318.289C349.298 325.089 340.998 330.489 332.698 335.289C322.798 340.889 312.698 345.189 302.598 348.689C295.998 350.789 289.298 352.589 282.598 353.989C268.698 356.889 254.798 358.289 240.598 358.289C226.498 358.289 212.498 356.889 198.598 353.989C191.898 352.589 185.198 350.789 178.598 348.689C168.498 345.189 158.398 340.789 148.498 335.289C140.098 330.489 131.898 325.089 123.898 318.289C122.798 317.289 121.498 319.089 122.198 320.589C124.398 325.189 126.998 329.389 129.698 333.389C130.698 334.789 131.698 336.289 132.698 337.689C133.698 339.089 134.798 340.389 135.898 341.789C136.998 343.089 137.998 344.489 139.098 345.789L142.498 349.489C151.598 359.389 161.898 367.289 172.498 373.789C181.198 378.789 190.098 382.689 199.198 385.589C201.998 398.089 213.198 407.489 226.498 407.489H233.598C237.398 407.489 240.498 404.389 240.498 400.589C240.498 404.389 243.598 407.489 247.398 407.489H254.498C267.898 407.489 279.098 398.089 281.798 385.589C290.898 382.689 299.898 378.789 308.498 373.789C319.198 367.289 329.398 359.389 338.498 349.589L341.898 345.889C342.998 344.589 344.098 343.289 345.098 341.889C346.198 340.489 347.198 339.189 348.298 337.789C349.298 336.389 350.298 334.889 351.298 333.489C353.998 329.489 356.598 325.289 358.798 320.689C359.698 319.189 358.398 317.289 357.298 318.289Z" fill="url(#paint6_radial_862_12455)"/>
</mask>
<g mask="url(#mask1_862_12455)">
<path d="M199.21 349.3H241.21V399.92C241.21 401.75 240.483 403.505 239.189 404.799C237.895 406.093 236.14 406.82 234.31 406.82H227.21C219.784 406.82 212.662 403.87 207.411 398.619C202.16 393.368 199.21 386.246 199.21 378.82V349.3Z" fill="white"/>
<path d="M255.19 406.81H248.11C246.28 406.81 244.525 406.083 243.231 404.789C241.937 403.495 241.21 401.74 241.21 399.91V349.29H283.19V378.81C283.19 386.236 280.24 393.358 274.989 398.609C269.738 403.86 262.616 406.81 255.19 406.81Z" fill="white"/>
<mask id="mask2_862_12455" style="mask-type:alpha" maskUnits="userSpaceOnUse" x="199" y="349" width="85" height="58">
<path fill-rule="evenodd" clip-rule="evenodd" d="M248.11 406.81H255.19C262.616 406.81 269.738 403.86 274.989 398.609C280.24 393.358 283.19 386.236 283.19 378.81V349.29H241.21V399.91C241.21 401.74 241.937 403.495 243.231 404.789C244.525 406.083 246.28 406.81 248.11 406.81ZM241.21 349.3H199.21V378.82C199.21 386.246 202.16 393.368 207.411 398.619C212.662 403.87 219.784 406.82 227.21 406.82H234.31C236.14 406.82 237.895 406.093 239.189 404.799C240.483 403.505 241.21 401.75 241.21 399.92V349.3Z" fill="url(#paint7_linear_862_12455)"/>
</mask>
<g mask="url(#mask2_862_12455)">
<g filter="url(#filter5_f_862_12455)">
<path d="M199.71 349.8H240.71V399.92C240.71 401.618 240.036 403.246 238.835 404.446C237.635 405.646 236.007 406.32 234.31 406.32H227.21C219.917 406.32 212.922 403.423 207.765 398.266C202.607 393.108 199.71 386.114 199.71 378.82V349.8Z" stroke="#42210B"/>
</g>
<g filter="url(#filter6_f_862_12455)">
<path d="M255.19 406.31H248.11C246.413 406.31 244.785 405.636 243.585 404.436C242.385 403.235 241.71 401.607 241.71 399.91V349.79H282.69V378.81C282.69 386.104 279.793 393.098 274.636 398.256C269.479 403.413 262.484 406.31 255.19 406.31Z" stroke="#42210B"/>
</g>
</g>
</g>
<mask id="mask3_862_12455" style="mask-type:alpha" maskUnits="userSpaceOnUse" x="122" y="318" width="238" height="75">
<path d="M357.93 318.57C359.04 317.63 360.3 319.45 359.57 320.94C357.353 325.353 354.855 329.618 352.09 333.71C351.09 335.14 350.09 336.6 349.09 338.02C348.09 339.44 346.99 340.73 345.93 342.09C344.87 343.45 343.8 344.81 342.68 346.09L339.29 349.83C330.443 359.264 320.318 367.413 309.21 374.04C288.519 385.964 265.057 392.24 241.175 392.24C217.294 392.24 193.832 385.964 173.14 374.04C162.055 367.396 151.957 359.23 143.14 349.78L139.75 346.03C138.64 344.76 137.57 343.4 136.5 342.03C135.43 340.66 134.36 339.36 133.34 337.95C132.32 336.54 131.34 335.08 130.34 333.64C127.57 329.532 125.068 325.25 122.85 320.82C122.12 319.32 123.38 317.51 124.49 318.45C132.152 324.886 140.41 330.578 149.15 335.45C158.742 340.842 168.804 345.354 179.21 348.93C219.551 361.724 262.859 361.741 303.21 348.98C313.625 345.426 323.697 340.934 333.3 335.56C342.027 330.685 350.274 324.997 357.93 318.57Z" fill="black"/>
</mask>
<g mask="url(#mask3_862_12455)">
<g filter="url(#filter7_f_862_12455)">
<ellipse cx="241" cy="348.5" rx="62" ry="23.5" fill="#401C02" fill-opacity="0.8"/>
</g>
</g>
<path d="M312.68 259.12C327.095 259.12 338.78 241.592 338.78 219.97C338.78 198.348 327.095 180.82 312.68 180.82C298.265 180.82 286.58 198.348 286.58 219.97C286.58 241.592 298.265 259.12 312.68 259.12Z" fill="url(#paint8_radial_862_12455)"/>
<path d="M312.68 259.12C327.095 259.12 338.78 241.592 338.78 219.97C338.78 198.348 327.095 180.82 312.68 180.82C298.265 180.82 286.58 198.348 286.58 219.97C286.58 241.592 298.265 259.12 312.68 259.12Z" stroke="url(#paint9_linear_862_12455)" stroke-width="2" stroke-miterlimit="10"/>
<path d="M171.741 259.12C186.155 259.12 197.841 241.592 197.841 219.97C197.841 198.348 186.155 180.82 171.741 180.82C157.326 180.82 145.641 198.348 145.641 219.97C145.641 241.592 157.326 259.12 171.741 259.12Z" fill="url(#paint10_radial_862_12455)"/>
<path d="M171.741 259.12C186.155 259.12 197.841 241.592 197.841 219.97C197.841 198.348 186.155 180.82 171.741 180.82C157.326 180.82 145.641 198.348 145.641 219.97C145.641 241.592 157.326 259.12 171.741 259.12Z" stroke="url(#paint11_linear_862_12455)" stroke-width="2" stroke-miterlimit="10"/>
<path d="M410.64 165.08C402.71 158.687 392.827 155.207 382.64 155.22H302.17C294.943 155.224 287.843 157.121 281.576 160.721C275.309 164.321 270.094 169.499 266.45 175.74H216.83C213.186 169.499 207.971 164.321 201.704 160.721C195.437 157.121 188.337 155.224 181.11 155.22H100.64C90.4535 155.207 80.5705 158.687 72.64 165.08H40V184.52L55.89 200.11V226.64C55.9244 246.448 63.8131 265.434 77.826 279.434C91.8389 293.433 110.832 301.304 130.64 301.32H147.78C167.59 301.296 186.581 293.417 200.589 279.409C214.596 265.401 222.476 246.41 222.5 226.6V226.3C222.5 221.219 224.519 216.345 228.112 212.752C231.705 209.159 236.578 207.14 241.66 207.14C246.742 207.14 251.615 209.159 255.208 212.752C258.801 216.345 260.82 221.219 260.82 226.3V226.6C260.844 246.41 268.724 265.401 282.731 279.409C296.739 293.417 315.73 301.296 335.54 301.32H352.64C372.451 301.299 391.445 293.42 405.455 279.412C419.465 265.405 427.346 246.412 427.37 226.6V200.07L443.28 184.52V165.12L410.64 165.08ZM210.87 226.6C210.852 243.332 204.196 259.374 192.365 271.205C180.534 283.037 164.492 289.692 147.76 289.71H130.64C113.908 289.692 97.8664 283.037 86.035 271.205C74.2036 259.374 67.5486 243.332 67.53 226.6V199.98C67.5406 191.198 71.031 182.779 77.2369 176.565C83.4428 170.352 91.8583 166.851 100.64 166.83H181.09C188.98 166.838 196.545 169.976 202.125 175.556C207.704 181.135 210.842 188.7 210.85 196.59L210.87 226.6ZM415.77 210.6V226.6C415.751 243.336 409.094 259.38 397.258 271.212C385.422 283.044 369.376 289.697 352.64 289.71H335.52C318.788 289.692 302.746 283.037 290.915 271.205C279.084 259.374 272.429 243.332 272.41 226.6V196.6C272.418 188.71 275.556 181.145 281.135 175.566C286.715 169.986 294.28 166.848 302.17 166.84H382.64C391.429 166.851 399.854 170.347 406.069 176.561C412.283 182.776 415.779 191.202 415.79 199.99L415.77 210.6Z" fill="black"/>
<defs>
<filter id="filter0_f_862_12455" x="-26.8145" y="206.558" width="535.021" height="306.595" filterUnits="userSpaceOnUse" color-interpolation-filters="sRGB">
<feFlood flood-opacity="0" result="BackgroundImageFix"/>
<feBlend mode="normal" in="SourceGraphic" in2="BackgroundImageFix" result="shape"/>
<feGaussianBlur stdDeviation="12.5" result="effect1_foregroundBlur_862_12455"/>
</filter>
<filter id="filter1_f_862_12455" x="-41.8145" y="191.558" width="565.021" height="336.595" filterUnits="userSpaceOnUse" color-interpolation-filters="sRGB">
<feFlood flood-opacity="0" result="BackgroundImageFix"/>
<feBlend mode="normal" in="SourceGraphic" in2="BackgroundImageFix" result="shape"/>
<feGaussianBlur stdDeviation="20" result="effect1_foregroundBlur_862_12455"/>
</filter>
<filter id="filter2_f_862_12455" x="195.852" y="351" width="90.6963" height="71.5796" filterUnits="userSpaceOnUse" color-interpolation-filters="sRGB">
<feFlood flood-opacity="0" result="BackgroundImageFix"/>
<feBlend mode="normal" in="SourceGraphic" in2="BackgroundImageFix" result="shape"/>
<feGaussianBlur stdDeviation="7.5" result="effect1_foregroundBlur_862_12455"/>
</filter>
<filter id="filter3_f_862_12455" x="205.852" y="361.007" width="40.3555" height="51.5723" filterUnits="userSpaceOnUse" color-interpolation-filters="sRGB">
<feFlood flood-opacity="0" result="BackgroundImageFix"/>
<feBlend mode="normal" in="SourceGraphic" in2="BackgroundImageFix" result="shape"/>
<feGaussianBlur stdDeviation="2.5" result="effect1_foregroundBlur_862_12455"/>
</filter>
<filter id="filter4_f_862_12455" x="236.207" y="361" width="40.3408" height="51.5723" filterUnits="userSpaceOnUse" color-interpolation-filters="sRGB">
<feFlood flood-opacity="0" result="BackgroundImageFix"/>
<feBlend mode="normal" in="SourceGraphic" in2="BackgroundImageFix" result="shape"/>
<feGaussianBlur stdDeviation="2.5" result="effect1_foregroundBlur_862_12455"/>
</filter>
<filter id="filter5_f_862_12455" x="194.21" y="344.3" width="52" height="67.52" filterUnits="userSpaceOnUse" color-interpolation-filters="sRGB">
<feFlood flood-opacity="0" result="BackgroundImageFix"/>
<feBlend mode="normal" in="SourceGraphic" in2="BackgroundImageFix" result="shape"/>
<feGaussianBlur stdDeviation="2.5" result="effect1_foregroundBlur_862_12455"/>
</filter>
<filter id="filter6_f_862_12455" x="236.211" y="344.29" width="51.9795" height="67.52" filterUnits="userSpaceOnUse" color-interpolation-filters="sRGB">
<feFlood flood-opacity="0" result="BackgroundImageFix"/>
<feBlend mode="normal" in="SourceGraphic" in2="BackgroundImageFix" result="shape"/>
<feGaussianBlur stdDeviation="2.5" result="effect1_foregroundBlur_862_12455"/>
</filter>
<filter id="filter7_f_862_12455" x="159" y="305" width="164" height="87" filterUnits="userSpaceOnUse" color-interpolation-filters="sRGB">
<feFlood flood-opacity="0" result="BackgroundImageFix"/>
<feBlend mode="normal" in="SourceGraphic" in2="BackgroundImageFix" result="shape"/>
<feGaussianBlur stdDeviation="10" result="effect1_foregroundBlur_862_12455"/>
</filter>
<radialGradient id="paint0_radial_862_12455" cx="0" cy="0" r="1" gradientUnits="userSpaceOnUse" gradientTransform="translate(241 -4.53898e-06) rotate(90) scale(482)">
<stop stop-color="#FFDE43"/>
<stop offset="1" stop-color="#FFBC00"/>
</radialGradient>
<radialGradient id="paint1_radial_862_12455" cx="0" cy="0" r="1" gradientUnits="userSpaceOnUse" gradientTransform="translate(241 64.5) rotate(90) scale(417.5)">
<stop stop-color="white" stop-opacity="0.5"/>
<stop offset="0.782278"/>
</radialGradient>
<radialGradient id="paint2_radial_862_12455" cx="0" cy="0" r="1" gradientUnits="userSpaceOnUse" gradientTransform="translate(241 64.5) rotate(90) scale(417.5)">
<stop stop-color="white" stop-opacity="0.5"/>
<stop offset="0.782278"/>
</radialGradient>
<radialGradient id="paint3_radial_862_12455" cx="0" cy="0" r="1" gradientUnits="userSpaceOnUse" gradientTransform="translate(241 -52.5) rotate(90) scale(534.5 722.835)">
<stop offset="0.0922635" stop-color="white"/>
<stop offset="0.670207" stop-color="white" stop-opacity="0"/>
</radialGradient>
<radialGradient id="paint4_radial_862_12455" cx="0" cy="0" r="1" gradientUnits="userSpaceOnUse" gradientTransform="translate(241.21 354.066) scale(89.5043 74.7941)">
<stop stop-color="#743C1C"/>
<stop offset="1" stop-color="#401C02"/>
</radialGradient>
<linearGradient id="paint5_linear_862_12455" x1="241.21" y1="393.324" x2="241.21" y2="314.808" gradientUnits="userSpaceOnUse">
<stop offset="0.265625" stop-color="#FFDE43"/>
<stop offset="1" stop-color="#F79D14"/>
</linearGradient>
<radialGradient id="paint6_radial_862_12455" cx="0" cy="0" r="1" gradientUnits="userSpaceOnUse" gradientTransform="translate(240.574 362.753) scale(89.6218 89.6218)">
<stop stop-color="#743C1C"/>
<stop offset="1" stop-color="#401C02"/>
</radialGradient>
<linearGradient id="paint7_linear_862_12455" x1="199.178" y1="378.066" x2="283.19" y2="378.066" gradientUnits="userSpaceOnUse">
<stop stop-color="#CCCCCC"/>
<stop offset="0.05" stop-color="#D5D5D5"/>
<stop offset="0.2" stop-color="#E9E9E9"/>
<stop offset="0.35" stop-color="#F6F6F6"/>
<stop offset="0.5" stop-color="#FAFAFA"/>
<stop offset="0.65" stop-color="#F6F6F6"/>
<stop offset="0.8" stop-color="#E9E9E9"/>
<stop offset="0.95" stop-color="#D5D5D5"/>
<stop offset="1" stop-color="#CCCCCC"/>
</linearGradient>
<radialGradient id="paint8_radial_862_12455" cx="0" cy="0" r="1" gradientUnits="userSpaceOnUse" gradientTransform="translate(312.644 219.944) scale(33.2712 39.2179)">
<stop stop-color="#743C1C"/>
<stop offset="1" stop-color="#401C02"/>
</radialGradient>
<linearGradient id="paint9_linear_862_12455" x1="312.68" y1="261.323" x2="312.68" y2="178.3" gradientUnits="userSpaceOnUse">
<stop stop-color="#FFDE43"/>
<stop offset="0.22" stop-color="#FED93F"/>
<stop offset="0.51" stop-color="#FCC934"/>
<stop offset="0.82" stop-color="#F9AF21"/>
<stop offset="1" stop-color="#F79D14"/>
</linearGradient>
<radialGradient id="paint10_radial_862_12455" cx="0" cy="0" r="1" gradientUnits="userSpaceOnUse" gradientTransform="translate(171.705 219.944) scale(33.2712 39.2179)">
<stop stop-color="#743C1C"/>
<stop offset="1" stop-color="#401C02"/>
</radialGradient>
<linearGradient id="paint11_linear_862_12455" x1="-424157" y1="-67978.5" x2="-424157" y2="-74273.9" gradientUnits="userSpaceOnUse">
<stop stop-color="#FFDE43"/>
<stop offset="0.22" stop-color="#FED93F"/>
<stop offset="0.51" stop-color="#FCC934"/>
<stop offset="0.82" stop-color="#F9AF21"/>
<stop offset="1" stop-color="#F79D14"/>
</linearGradient>
</defs>
</svg>
