<svg width="483" height="483" viewBox="0 0 483 483" fill="none" xmlns="http://www.w3.org/2000/svg">
<path d="M241.18 482.36C374.38 482.36 482.36 374.38 482.36 241.18C482.36 107.98 374.38 0 241.18 0C107.98 0 0 107.98 0 241.18C0 374.38 107.98 482.36 241.18 482.36Z" fill="url(#paint0_radial_862_12553)"/>
<g style="mix-blend-mode:soft-light">
<path d="M241.18 482.36C374.38 482.36 482.36 374.38 482.36 241.18C482.36 107.98 374.38 0 241.18 0C107.98 0 0 107.98 0 241.18C0 374.38 107.98 482.36 241.18 482.36Z" fill="url(#paint1_radial_862_12553)"/>
</g>
<g style="mix-blend-mode:soft-light">
<path d="M241.18 482.36C374.38 482.36 482.36 374.38 482.36 241.18C482.36 107.98 374.38 0 241.18 0C107.98 0 0 107.98 0 241.18C0 374.38 107.98 482.36 241.18 482.36Z" fill="url(#paint2_radial_862_12553)"/>
</g>
<g style="mix-blend-mode:overlay">
<path d="M241.18 482.36C374.38 482.36 482.36 374.38 482.36 241.18C482.36 107.98 374.38 0 241.18 0C107.98 0 0 107.98 0 241.18C0 374.38 107.98 482.36 241.18 482.36Z" fill="url(#paint3_radial_862_12553)" fill-opacity="0.7"/>
</g>
<mask id="mask0_862_12553" style="mask-type:alpha" maskUnits="userSpaceOnUse" x="0" y="0" width="483" height="483">
<path d="M241.18 482.36C374.38 482.36 482.36 374.38 482.36 241.18C482.36 107.98 374.38 0 241.18 0C107.98 0 0 107.98 0 241.18C0 374.38 107.98 482.36 241.18 482.36Z" fill="white"/>
</mask>
<g mask="url(#mask0_862_12553)">
<g filter="url(#filter0_f_862_12553)">
<path d="M-1.3759 234.299C-1.11402 230.872 0.0137008 230.529 0.342619 234.008C0.708055 237.874 -0.00231624 245.646 0.16871 250.335C0.621554 262.748 2.52441 273.541 4.48605 282.32C10.8075 310.612 19.5617 328.843 27.7268 344.288C54.5663 395.06 83.9667 420.77 112.648 440.147C154.689 468.549 197.072 477.584 239.49 479.5C240.56 479.548 240.738 486.518 239.686 487.425C237.788 489.061 235.436 487.437 233.494 487.369C227.915 487.174 222.335 486.791 216.756 486.211C200.213 484.492 183.67 480.991 167.162 475.358C122.275 460.044 73.8765 433.821 31.6092 359.962C28.9502 355.316 26.3124 350.424 23.7118 345.167C21.6321 340.963 19.5726 336.556 17.5493 331.843C10.8946 316.342 -4.61323 276.658 -1.3759 234.299ZM239.52 487.5C238.499 487.531 238.241 481.034 239.214 479.685C240.684 477.647 242.888 479.326 244.439 479.229C250.877 478.826 257.314 478.229 263.75 477.421C281.395 475.205 299.028 471.422 316.621 465.596C360.257 451.145 407.17 429.115 448.305 361.431C450.923 357.123 453.518 352.553 456.079 347.641C463.86 332.712 483.361 293.084 481.107 243.821C480.917 239.668 482.181 237.181 482.747 240.743C483.467 245.279 483.175 254.736 482.977 259.768C482.341 275.883 479.866 289.512 477.257 300.518C468.987 335.399 457.376 355.623 446.744 372.51C412.184 427.397 374.648 449.524 338.155 465.424C305.424 479.686 272.444 486.484 239.52 487.5Z" fill="#401C02"/>
</g>
<g filter="url(#filter1_f_862_12553)">
<path d="M-1.3759 234.299C-1.11402 230.872 0.0137008 230.529 0.342619 234.008C0.708055 237.874 -0.00231624 245.646 0.16871 250.335C0.621554 262.748 2.52441 273.541 4.48605 282.32C10.8075 310.612 19.5617 328.843 27.7268 344.288C54.5663 395.06 83.9667 420.77 112.648 440.147C154.689 468.549 197.072 477.584 239.49 479.5C240.56 479.548 240.738 486.518 239.686 487.425C237.788 489.061 235.436 487.437 233.494 487.369C227.915 487.174 222.335 486.791 216.756 486.211C200.213 484.492 183.67 480.991 167.162 475.358C122.275 460.044 73.8765 433.821 31.6092 359.962C28.9502 355.316 26.3124 350.424 23.7118 345.167C21.6321 340.963 19.5726 336.556 17.5493 331.843C10.8946 316.342 -4.61323 276.658 -1.3759 234.299ZM239.52 487.5C238.499 487.531 238.241 481.034 239.214 479.685C240.684 477.647 242.888 479.326 244.439 479.229C250.877 478.826 257.314 478.229 263.75 477.421C281.395 475.205 299.028 471.422 316.621 465.596C360.257 451.145 407.17 429.115 448.305 361.431C450.923 357.123 453.518 352.553 456.079 347.641C463.86 332.712 483.361 293.084 481.107 243.821C480.917 239.668 482.181 237.181 482.747 240.743C483.467 245.279 483.175 254.736 482.977 259.768C482.341 275.883 479.866 289.512 477.257 300.518C468.987 335.399 457.376 355.623 446.744 372.51C412.184 427.397 374.648 449.524 338.155 465.424C305.424 479.686 272.444 486.484 239.52 487.5Z" fill="#401C02"/>
</g>
</g>
<path d="M325.8 330.95H156.02C148.829 330.95 143 336.779 143 343.97C143 351.161 148.829 356.99 156.02 356.99H325.8C332.991 356.99 338.82 351.161 338.82 343.97C338.82 336.779 332.991 330.95 325.8 330.95Z" fill="url(#paint4_radial_862_12553)"/>
<path d="M325.8 330.95H156.02C148.829 330.95 143 336.779 143 343.97C143 351.161 148.829 356.99 156.02 356.99H325.8C332.991 356.99 338.82 351.161 338.82 343.97C338.82 336.779 332.991 330.95 325.8 330.95Z" stroke="url(#paint5_linear_862_12553)" stroke-width="2.5" stroke-miterlimit="10"/>
<mask id="mask1_862_12553" style="mask-type:alpha" maskUnits="userSpaceOnUse" x="0" y="0" width="483" height="483">
<path d="M241.18 482.36C374.38 482.36 482.36 374.38 482.36 241.18C482.36 107.98 374.38 0 241.18 0C107.98 0 0 107.98 0 241.18C0 374.38 107.98 482.36 241.18 482.36Z" fill="black"/>
</mask>
<g mask="url(#mask1_862_12553)">
<g filter="url(#filter2_f_862_12553)">
<path d="M482.38 133.68C482.38 133.68 351.01 110.02 267.12 146.03V146.12C258.601 148.135 249.874 149.142 241.12 149.12C232.412 149.138 223.732 148.131 215.26 146.12V146.02C131.37 110.02 0 133.67 0 133.67V165.37L12.21 175.95C12.21 175.95 6.93 280.81 111.38 280.81C197.6 280.81 217.38 213.25 221.63 189.66C222.212 186.226 223.526 182.957 225.482 180.075C227.439 177.194 229.993 174.767 232.97 172.96C235.427 171.413 238.257 170.56 241.16 170.49C244.067 170.562 246.902 171.411 249.37 172.95C252.364 174.754 254.934 177.183 256.901 180.073C258.869 182.962 260.189 186.243 260.77 189.69C265.06 213.31 284.84 280.81 371.02 280.81C475.47 280.81 470.19 175.95 470.19 175.95L482.38 165.38V133.68Z" fill="#C74800" fill-opacity="0.75"/>
</g>
</g>
<path d="M482.38 127.68C482.38 127.68 351.01 104.02 267.12 140.03V140.12C258.601 142.135 249.874 143.142 241.12 143.12C232.412 143.138 223.732 142.131 215.26 140.12V140.02C131.37 104.02 0 127.67 0 127.67V159.37L12.21 169.95C12.21 169.95 6.93 274.81 111.38 274.81C197.6 274.81 217.38 207.25 221.63 183.66C222.212 180.226 223.526 176.957 225.482 174.075C227.439 171.194 229.993 168.767 232.97 166.96C235.427 165.413 238.257 164.56 241.16 164.49C244.067 164.562 246.902 165.411 249.37 166.95C252.364 168.754 254.934 171.183 256.901 174.073C258.869 176.962 260.189 180.243 260.77 183.69C265.06 207.31 284.84 274.81 371.02 274.81C475.47 274.81 470.19 169.95 470.19 169.95L482.38 159.38V127.68Z" fill="#0B0B0B"/>
<path d="M34.1599 176.45C37.6699 133.9 67.8899 132.56 111.38 132.56C154.87 132.56 198.38 139.87 199.99 169.95C201.3 194.19 193.37 226.34 166.64 248.55C155.083 258.047 140.915 263.811 126.01 265.08C102.45 267.19 62.0099 266.67 45.5399 241.49C45.5399 241.49 30.4999 220.75 34.1599 176.45Z" fill="url(#paint6_radial_862_12553)"/>
<g filter="url(#filter3_f_862_12553)">
<path d="M33.924 174.989C34.465 168.638 33.8668 186.349 33.8568 187.393C33.7771 195.653 34.4239 202.787 35.2867 208.431C37.841 225.141 41.8892 232.627 45.638 239.022C45.7349 239.188 45.8025 239.623 45.8039 240.237C45.8125 243.934 43.3389 238.385 43.1216 237.962C41.3441 234.501 39.6189 230.29 38.0297 224.938C35.1726 215.316 31.968 197.95 33.924 174.989ZM45.4374 241.936C45.0396 241.312 45.4065 238.674 45.7721 239.226C46.2161 239.896 46.6629 240.527 47.1117 241.126C47.7849 242.025 48.4628 242.853 49.1438 243.627C51.7781 246.618 54.4578 248.843 57.1514 250.714C65.1951 256.303 73.3799 258.908 81.5736 260.682C109.549 266.739 138.099 267.723 166.642 246.059C166.816 245.927 166.944 246.78 166.892 247.767C166.811 249.301 163.216 251.68 162.65 252.083C159.676 254.202 156.705 255.996 153.736 257.538C144.861 262.15 136.008 264.567 127.197 265.458C110.335 267.163 93.4864 267.107 76.8046 262.542C66.3108 259.67 55.3148 257.444 45.4374 241.936ZM166.639 249.026C166.524 249.12 166.42 248.776 166.388 248.184C166.173 244.318 169.327 243.741 169.697 243.405C172.082 241.237 174.468 238.842 176.851 236.123C178.513 234.227 180.173 232.173 181.83 229.903C183.139 228.11 184.446 226.182 185.748 224.07C188.811 219.104 201.171 198.743 199.737 169.564C199.553 165.822 200.475 169.176 200.375 175.586C200.277 181.829 199.597 187.602 198.793 192.252C196.291 206.724 192.557 214.404 189.396 220.596C181.949 235.189 174.203 242.872 166.639 249.026Z" fill="#818181"/>
</g>
<path d="M448.782 176.45C445.272 133.9 415.052 132.56 371.562 132.56C328.072 132.56 284.562 139.87 282.952 169.95C281.642 194.19 289.572 226.34 316.302 248.55C327.86 258.047 342.028 263.811 356.932 265.08C380.492 267.19 420.932 266.67 437.402 241.49C437.402 241.49 452.442 220.75 448.782 176.45Z" fill="url(#paint7_radial_862_12553)"/>
<g filter="url(#filter4_f_862_12553)">
<path d="M449.018 174.989C448.477 168.638 449.076 186.349 449.086 187.393C449.165 195.653 448.519 202.787 447.656 208.431C445.101 225.141 441.053 232.627 437.304 239.022C437.207 239.188 437.14 239.623 437.138 240.237C437.13 243.934 439.604 238.385 439.821 237.962C441.598 234.501 443.324 230.29 444.913 224.938C447.77 215.316 450.974 197.95 449.018 174.989ZM437.505 241.936C437.903 241.312 437.536 238.674 437.17 239.226C436.726 239.896 436.28 240.527 435.831 241.126C435.157 242.025 434.48 242.853 433.799 243.627C431.164 246.618 428.485 248.843 425.791 250.714C417.747 256.303 409.563 258.908 401.369 260.682C373.393 266.739 344.843 267.723 316.3 246.059C316.126 245.927 315.998 246.78 316.05 247.767C316.131 249.301 319.726 251.68 320.293 252.083C323.266 254.202 326.238 255.996 329.206 257.538C338.082 262.15 346.934 264.567 355.745 265.458C372.607 267.163 389.456 267.107 406.138 262.542C416.632 259.67 427.628 257.444 437.505 241.936ZM316.303 249.026C316.418 249.12 316.522 248.776 316.555 248.184C316.77 244.318 313.615 243.741 313.246 243.405C310.86 241.237 308.474 238.842 306.091 236.123C304.43 234.227 302.769 232.173 301.112 229.903C299.804 228.11 298.497 226.182 297.194 224.07C294.132 219.104 281.772 198.743 283.206 169.564C283.39 165.822 282.467 169.176 282.568 175.586C282.665 181.829 283.345 187.602 284.149 192.252C286.651 206.724 290.386 214.404 293.546 220.596C300.994 235.189 308.739 242.872 316.303 249.026Z" fill="#818181"/>
</g>
<path d="M11.95 134.34H7.04004V155.31H11.95V134.34Z" fill="url(#paint8_linear_862_12553)"/>
<path d="M470.449 155.31H475.359V134.34H470.449V155.31Z" fill="url(#paint9_linear_862_12553)"/>
<defs>
<filter id="filter0_f_862_12553" x="-26.8149" y="206.558" width="535.022" height="306.595" filterUnits="userSpaceOnUse" color-interpolation-filters="sRGB">
<feFlood flood-opacity="0" result="BackgroundImageFix"/>
<feBlend mode="normal" in="SourceGraphic" in2="BackgroundImageFix" result="shape"/>
<feGaussianBlur stdDeviation="12.5" result="effect1_foregroundBlur_862_12553"/>
</filter>
<filter id="filter1_f_862_12553" x="-41.8149" y="191.558" width="565.022" height="336.595" filterUnits="userSpaceOnUse" color-interpolation-filters="sRGB">
<feFlood flood-opacity="0" result="BackgroundImageFix"/>
<feBlend mode="normal" in="SourceGraphic" in2="BackgroundImageFix" result="shape"/>
<feGaussianBlur stdDeviation="20" result="effect1_foregroundBlur_862_12553"/>
</filter>
<filter id="filter2_f_862_12553" x="-15" y="111.044" width="512.38" height="184.766" filterUnits="userSpaceOnUse" color-interpolation-filters="sRGB">
<feFlood flood-opacity="0" result="BackgroundImageFix"/>
<feBlend mode="normal" in="SourceGraphic" in2="BackgroundImageFix" result="shape"/>
<feGaussianBlur stdDeviation="7.5" result="effect1_foregroundBlur_862_12553"/>
</filter>
<filter id="filter3_f_862_12553" x="29.3232" y="164" width="175.059" height="106.488" filterUnits="userSpaceOnUse" color-interpolation-filters="sRGB">
<feFlood flood-opacity="0" result="BackgroundImageFix"/>
<feBlend mode="normal" in="SourceGraphic" in2="BackgroundImageFix" result="shape"/>
<feGaussianBlur stdDeviation="2" result="effect1_foregroundBlur_862_12553"/>
</filter>
<filter id="filter4_f_862_12553" x="278.56" y="164" width="175.059" height="106.488" filterUnits="userSpaceOnUse" color-interpolation-filters="sRGB">
<feFlood flood-opacity="0" result="BackgroundImageFix"/>
<feBlend mode="normal" in="SourceGraphic" in2="BackgroundImageFix" result="shape"/>
<feGaussianBlur stdDeviation="2" result="effect1_foregroundBlur_862_12553"/>
</filter>
<radialGradient id="paint0_radial_862_12553" cx="0" cy="0" r="1" gradientUnits="userSpaceOnUse" gradientTransform="translate(241 -4.53898e-06) rotate(90) scale(482)">
<stop stop-color="#FFDE43"/>
<stop offset="1" stop-color="#FFBC00"/>
</radialGradient>
<radialGradient id="paint1_radial_862_12553" cx="0" cy="0" r="1" gradientUnits="userSpaceOnUse" gradientTransform="translate(241 64.5) rotate(90) scale(417.5)">
<stop stop-color="white" stop-opacity="0.5"/>
<stop offset="0.782278"/>
</radialGradient>
<radialGradient id="paint2_radial_862_12553" cx="0" cy="0" r="1" gradientUnits="userSpaceOnUse" gradientTransform="translate(241 64.5) rotate(90) scale(417.5)">
<stop stop-color="white" stop-opacity="0.5"/>
<stop offset="0.782278"/>
</radialGradient>
<radialGradient id="paint3_radial_862_12553" cx="0" cy="0" r="1" gradientUnits="userSpaceOnUse" gradientTransform="translate(241 -52.5) rotate(90) scale(534.5 722.835)">
<stop offset="0.0922635" stop-color="white"/>
<stop offset="0.670207" stop-color="white" stop-opacity="0"/>
</radialGradient>
<radialGradient id="paint4_radial_862_12553" cx="0" cy="0" r="1" gradientUnits="userSpaceOnUse" gradientTransform="translate(240.91 343.918) scale(73.9048 26.3018)">
<stop stop-color="#743C1C"/>
<stop offset="1" stop-color="#401C02"/>
</radialGradient>
<linearGradient id="paint5_linear_862_12553" x1="240.91" y1="357.723" x2="240.91" y2="330.112" gradientUnits="userSpaceOnUse">
<stop offset="0.265625" stop-color="#FFDE43"/>
<stop offset="1" stop-color="#F79D14"/>
</linearGradient>
<radialGradient id="paint6_radial_862_12553" cx="0" cy="0" r="1" gradientUnits="userSpaceOnUse" gradientTransform="translate(213.51 111.42) scale(189.1 189.1)">
<stop offset="0.14" stop-color="#8A8B88"/>
<stop offset="1" stop-color="#0B0B0B"/>
</radialGradient>
<radialGradient id="paint7_radial_862_12553" cx="0" cy="0" r="1" gradientUnits="userSpaceOnUse" gradientTransform="translate(269.432 111.42) rotate(180) scale(189.1 189.1)">
<stop offset="0.14" stop-color="#8A8B88"/>
<stop offset="1" stop-color="#0B0B0B"/>
</radialGradient>
<linearGradient id="paint8_linear_862_12553" x1="7.03816" y1="144.829" x2="11.95" y2="144.829" gradientUnits="userSpaceOnUse">
<stop stop-color="#CCCCCC"/>
<stop offset="0.05" stop-color="#D5D5D5"/>
<stop offset="0.2" stop-color="#E9E9E9"/>
<stop offset="0.35" stop-color="#F6F6F6"/>
<stop offset="0.5" stop-color="#FAFAFA"/>
<stop offset="0.65" stop-color="#F6F6F6"/>
<stop offset="0.8" stop-color="#E9E9E9"/>
<stop offset="0.95" stop-color="#D5D5D5"/>
<stop offset="1" stop-color="#CCCCCC"/>
</linearGradient>
<linearGradient id="paint9_linear_862_12553" x1="475.361" y1="144.821" x2="470.449" y2="144.821" gradientUnits="userSpaceOnUse">
<stop stop-color="#CCCCCC"/>
<stop offset="0.05" stop-color="#D5D5D5"/>
<stop offset="0.2" stop-color="#E9E9E9"/>
<stop offset="0.35" stop-color="#F6F6F6"/>
<stop offset="0.5" stop-color="#FAFAFA"/>
<stop offset="0.65" stop-color="#F6F6F6"/>
<stop offset="0.8" stop-color="#E9E9E9"/>
<stop offset="0.95" stop-color="#D5D5D5"/>
<stop offset="1" stop-color="#CCCCCC"/>
</linearGradient>
</defs>
</svg>
