<svg width="527" height="483" viewBox="0 0 527 483" fill="none" xmlns="http://www.w3.org/2000/svg">
<path d="M263.18 482.36C396.38 482.36 504.36 374.38 504.36 241.18C504.36 107.98 396.38 0 263.18 0C129.98 0 22 107.98 22 241.18C22 374.38 129.98 482.36 263.18 482.36Z" fill="url(#paint0_radial_862_12547)"/>
<g style="mix-blend-mode:soft-light">
<path d="M263.18 482.36C396.38 482.36 504.36 374.38 504.36 241.18C504.36 107.98 396.38 0 263.18 0C129.98 0 22 107.98 22 241.18C22 374.38 129.98 482.36 263.18 482.36Z" fill="url(#paint1_radial_862_12547)"/>
</g>
<g style="mix-blend-mode:soft-light">
<path d="M263.18 482.36C396.38 482.36 504.36 374.38 504.36 241.18C504.36 107.98 396.38 0 263.18 0C129.98 0 22 107.98 22 241.18C22 374.38 129.98 482.36 263.18 482.36Z" fill="url(#paint2_radial_862_12547)"/>
</g>
<g style="mix-blend-mode:overlay">
<path d="M263.18 482.36C396.38 482.36 504.36 374.38 504.36 241.18C504.36 107.98 396.38 0 263.18 0C129.98 0 22 107.98 22 241.18C22 374.38 129.98 482.36 263.18 482.36Z" fill="url(#paint3_radial_862_12547)" fill-opacity="0.7"/>
</g>
<mask id="mask0_862_12547" style="mask-type:alpha" maskUnits="userSpaceOnUse" x="22" y="0" width="483" height="483">
<path d="M263.18 482.36C396.38 482.36 504.36 374.38 504.36 241.18C504.36 107.98 396.38 0 263.18 0C129.98 0 22 107.98 22 241.18C22 374.38 129.98 482.36 263.18 482.36Z" fill="white"/>
</mask>
<g mask="url(#mask0_862_12547)">
<g filter="url(#filter0_f_862_12547)">
<path d="M20.6241 234.299C20.886 230.872 22.0137 230.529 22.3426 234.008C22.7081 237.874 21.9977 245.646 22.1687 250.335C22.6216 262.748 24.5244 273.541 26.486 282.32C32.8075 310.612 41.5617 328.843 49.7268 344.288C76.5663 395.06 105.967 420.77 134.648 440.147C176.689 468.549 219.072 477.584 261.49 479.5C262.56 479.548 262.738 486.518 261.686 487.425C259.788 489.061 257.436 487.437 255.494 487.369C249.915 487.174 244.335 486.791 238.756 486.211C222.213 484.492 205.67 480.991 189.162 475.358C144.275 460.044 95.8765 433.821 53.6092 359.962C50.9502 355.316 48.3124 350.424 45.7118 345.167C43.6321 340.963 41.5726 336.556 39.5493 331.843C32.8946 316.342 17.3868 276.658 20.6241 234.299ZM261.52 487.5C260.499 487.531 260.241 481.034 261.214 479.685C262.684 477.647 264.888 479.326 266.439 479.229C272.877 478.826 279.314 478.229 285.75 477.421C303.395 475.205 321.028 471.422 338.621 465.596C382.257 451.145 429.17 429.115 470.305 361.431C472.923 357.123 475.518 352.553 478.079 347.641C485.86 332.712 505.361 293.084 503.107 243.821C502.917 239.668 504.181 237.181 504.747 240.743C505.467 245.279 505.175 254.736 504.977 259.768C504.341 275.883 501.866 289.512 499.257 300.518C490.987 335.399 479.376 355.623 468.744 372.51C434.184 427.397 396.648 449.524 360.155 465.424C327.424 479.686 294.444 486.484 261.52 487.5Z" fill="#401C02"/>
</g>
<g filter="url(#filter1_f_862_12547)">
<path d="M20.6241 234.299C20.886 230.872 22.0137 230.529 22.3426 234.008C22.7081 237.874 21.9977 245.646 22.1687 250.335C22.6216 262.748 24.5244 273.541 26.486 282.32C32.8075 310.612 41.5617 328.843 49.7268 344.288C76.5663 395.06 105.967 420.77 134.648 440.147C176.689 468.549 219.072 477.584 261.49 479.5C262.56 479.548 262.738 486.518 261.686 487.425C259.788 489.061 257.436 487.437 255.494 487.369C249.915 487.174 244.335 486.791 238.756 486.211C222.213 484.492 205.67 480.991 189.162 475.358C144.275 460.044 95.8765 433.821 53.6092 359.962C50.9502 355.316 48.3124 350.424 45.7118 345.167C43.6321 340.963 41.5726 336.556 39.5493 331.843C32.8946 316.342 17.3868 276.658 20.6241 234.299ZM261.52 487.5C260.499 487.531 260.241 481.034 261.214 479.685C262.684 477.647 264.888 479.326 266.439 479.229C272.877 478.826 279.314 478.229 285.75 477.421C303.395 475.205 321.028 471.422 338.621 465.596C382.257 451.145 429.17 429.115 470.305 361.431C472.923 357.123 475.518 352.553 478.079 347.641C485.86 332.712 505.361 293.084 503.107 243.821C502.917 239.668 504.181 237.181 504.747 240.743C505.467 245.279 505.175 254.736 504.977 259.768C504.341 275.883 501.866 289.512 499.257 300.518C490.987 335.399 479.376 355.623 468.744 372.51C434.184 427.397 396.648 449.524 360.155 465.424C327.424 479.686 294.444 486.484 261.52 487.5Z" fill="#401C02"/>
</g>
</g>
<path d="M304.423 263.851C303.512 262.933 302.897 261.763 302.658 260.492C302.419 259.221 302.567 257.907 303.083 256.721C314.923 229.491 342.703 210.381 375.083 210.381C407.463 210.381 435.203 229.491 447.083 256.711C447.6 257.899 447.748 259.215 447.508 260.489C447.267 261.762 446.649 262.933 445.733 263.851C444.55 265.015 442.964 265.678 441.304 265.702C439.645 265.726 438.04 265.11 436.823 263.981C422.053 250.621 399.893 242.131 375.113 242.131C350.333 242.131 328.113 250.621 313.373 263.991C312.158 265.122 310.553 265.74 308.892 265.716C307.232 265.691 305.645 265.027 304.463 263.861L304.423 263.851Z" fill="url(#paint4_radial_862_12547)"/>
<path d="M79.8743 263.851C78.9645 262.936 78.3503 261.77 78.1114 260.502C77.8725 259.234 78.0198 257.924 78.5343 256.741C90.3743 229.511 118.154 210.401 150.534 210.401C182.914 210.401 210.664 229.511 222.534 256.731C223.053 257.918 223.202 259.234 222.963 260.507C222.724 261.78 222.108 262.952 221.194 263.871C220.011 265.035 218.425 265.698 216.765 265.722C215.106 265.746 213.501 265.13 212.284 264.001C197.514 250.641 175.354 242.151 150.564 242.151C125.774 242.151 103.614 250.641 88.8343 264.011C87.6188 265.142 86.0134 265.76 84.3532 265.736C82.6929 265.711 81.1063 265.047 79.9243 263.881L79.8743 263.851Z" fill="url(#paint5_radial_862_12547)"/>
<path d="M304.423 263.851C303.512 262.933 302.897 261.763 302.658 260.492C302.419 259.221 302.567 257.907 303.083 256.721C314.923 229.491 342.703 210.381 375.083 210.381C407.463 210.381 435.203 229.491 447.083 256.711C447.6 257.899 447.748 259.215 447.508 260.489C447.267 261.762 446.649 262.933 445.733 263.851V263.851C444.55 265.015 442.964 265.678 441.304 265.702C439.645 265.726 438.04 265.11 436.823 263.981C422.053 250.621 399.893 242.131 375.113 242.131C350.333 242.131 328.113 250.621 313.373 263.991C312.158 265.122 310.553 265.74 308.892 265.716C307.232 265.691 305.645 265.027 304.463 263.861L304.423 263.851Z" stroke="url(#paint6_linear_862_12547)" stroke-width="2" stroke-miterlimit="10"/>
<path d="M79.8743 263.851C78.9645 262.936 78.3503 261.77 78.1114 260.502C77.8725 259.234 78.0198 257.924 78.5343 256.741C90.3743 229.511 118.154 210.401 150.534 210.401C182.914 210.401 210.664 229.511 222.534 256.731C223.053 257.918 223.202 259.234 222.963 260.507C222.724 261.78 222.108 262.952 221.194 263.871V263.871C220.011 265.035 218.425 265.698 216.765 265.722C215.106 265.746 213.501 265.13 212.284 264.001C197.514 250.641 175.354 242.151 150.564 242.151C125.774 242.151 103.614 250.641 88.8343 264.011C87.6188 265.142 86.0134 265.76 84.3532 265.736C82.6929 265.711 81.1063 265.047 79.9243 263.881L79.8743 263.851Z" stroke="url(#paint7_linear_862_12547)" stroke-width="2" stroke-miterlimit="10"/>
<g opacity="0.85">
<g filter="url(#filter2_f_862_12547)">
<circle cx="417" cy="331" r="50" fill="#E66200"/>
</g>
<g filter="url(#filter3_f_862_12547)">
<circle cx="110" cy="331" r="50" fill="#E66200"/>
</g>
</g>
<path d="M333.949 343.991C334.336 343.691 334.808 343.521 335.298 343.505C335.787 343.488 336.27 343.627 336.676 343.9C337.082 344.174 337.392 344.568 337.561 345.028C337.731 345.488 337.751 345.989 337.619 346.461C329.329 378.071 299.229 401.461 263.359 401.461C227.489 401.461 197.359 378.021 189.089 346.391C188.954 345.917 188.973 345.414 189.142 344.952C189.312 344.489 189.623 344.093 190.031 343.819C190.44 343.544 190.925 343.407 191.417 343.425C191.909 343.443 192.382 343.617 192.769 343.921C210.609 357.581 235.649 366.081 263.359 366.081C291.069 366.081 316.089 357.611 333.949 343.991Z" fill="url(#paint8_radial_862_12547)"/>
<path d="M333.949 343.991C334.336 343.691 334.808 343.521 335.298 343.505C335.787 343.488 336.27 343.627 336.676 343.9C337.082 344.174 337.392 344.568 337.561 345.028C337.731 345.488 337.751 345.989 337.619 346.461C329.329 378.071 299.229 401.461 263.359 401.461C227.489 401.461 197.359 378.021 189.089 346.391C188.954 345.917 188.973 345.414 189.142 344.952C189.312 344.489 189.623 344.093 190.031 343.819C190.44 343.544 190.925 343.407 191.417 343.425C191.909 343.443 192.382 343.617 192.769 343.921C210.609 357.581 235.649 366.081 263.359 366.081C291.069 366.081 316.089 357.611 333.949 343.991Z" stroke="url(#paint9_linear_862_12547)" stroke-width="2.5" stroke-miterlimit="10"/>
<defs>
<filter id="filter0_f_862_12547" x="-4.81494" y="206.558" width="535.022" height="306.595" filterUnits="userSpaceOnUse" color-interpolation-filters="sRGB">
<feFlood flood-opacity="0" result="BackgroundImageFix"/>
<feBlend mode="normal" in="SourceGraphic" in2="BackgroundImageFix" result="shape"/>
<feGaussianBlur stdDeviation="12.5" result="effect1_foregroundBlur_862_12547"/>
</filter>
<filter id="filter1_f_862_12547" x="-19.8149" y="191.558" width="565.022" height="336.595" filterUnits="userSpaceOnUse" color-interpolation-filters="sRGB">
<feFlood flood-opacity="0" result="BackgroundImageFix"/>
<feBlend mode="normal" in="SourceGraphic" in2="BackgroundImageFix" result="shape"/>
<feGaussianBlur stdDeviation="20" result="effect1_foregroundBlur_862_12547"/>
</filter>
<filter id="filter2_f_862_12547" x="307" y="221" width="220" height="220" filterUnits="userSpaceOnUse" color-interpolation-filters="sRGB">
<feFlood flood-opacity="0" result="BackgroundImageFix"/>
<feBlend mode="normal" in="SourceGraphic" in2="BackgroundImageFix" result="shape"/>
<feGaussianBlur stdDeviation="30" result="effect1_foregroundBlur_862_12547"/>
</filter>
<filter id="filter3_f_862_12547" x="0" y="221" width="220" height="220" filterUnits="userSpaceOnUse" color-interpolation-filters="sRGB">
<feFlood flood-opacity="0" result="BackgroundImageFix"/>
<feBlend mode="normal" in="SourceGraphic" in2="BackgroundImageFix" result="shape"/>
<feGaussianBlur stdDeviation="30" result="effect1_foregroundBlur_862_12547"/>
</filter>
<radialGradient id="paint0_radial_862_12547" cx="0" cy="0" r="1" gradientUnits="userSpaceOnUse" gradientTransform="translate(263 -4.53898e-06) rotate(90) scale(482)">
<stop stop-color="#FFDE43"/>
<stop offset="1" stop-color="#FFBC00"/>
</radialGradient>
<radialGradient id="paint1_radial_862_12547" cx="0" cy="0" r="1" gradientUnits="userSpaceOnUse" gradientTransform="translate(263 64.5) rotate(90) scale(417.5)">
<stop stop-color="white" stop-opacity="0.5"/>
<stop offset="0.782278"/>
</radialGradient>
<radialGradient id="paint2_radial_862_12547" cx="0" cy="0" r="1" gradientUnits="userSpaceOnUse" gradientTransform="translate(263 64.5) rotate(90) scale(417.5)">
<stop stop-color="white" stop-opacity="0.5"/>
<stop offset="0.782278"/>
</radialGradient>
<radialGradient id="paint3_radial_862_12547" cx="0" cy="0" r="1" gradientUnits="userSpaceOnUse" gradientTransform="translate(263 -52.5) rotate(90) scale(534.5 722.835)">
<stop offset="0.0922635" stop-color="white"/>
<stop offset="0.670207" stop-color="white" stop-opacity="0"/>
</radialGradient>
<radialGradient id="paint4_radial_862_12547" cx="0" cy="0" r="1" gradientUnits="userSpaceOnUse" gradientTransform="translate(374.983 238.03) scale(92.4665 27.7157)">
<stop stop-color="#743C1C"/>
<stop offset="1" stop-color="#401C02"/>
</radialGradient>
<radialGradient id="paint5_radial_862_12547" cx="0" cy="0" r="1" gradientUnits="userSpaceOnUse" gradientTransform="translate(150.437 238.05) scale(92.4669 27.7157)">
<stop stop-color="#743C1C"/>
<stop offset="1" stop-color="#401C02"/>
</radialGradient>
<linearGradient id="paint6_linear_862_12547" x1="375.083" y1="267.273" x2="375.083" y2="208.6" gradientUnits="userSpaceOnUse">
<stop stop-color="#FFDE43"/>
<stop offset="0.22" stop-color="#FED93F"/>
<stop offset="0.51" stop-color="#FCC934"/>
<stop offset="0.82" stop-color="#F9AF21"/>
<stop offset="1" stop-color="#F79D14"/>
</linearGradient>
<linearGradient id="paint7_linear_862_12547" x1="150.537" y1="267.293" x2="150.537" y2="208.62" gradientUnits="userSpaceOnUse">
<stop stop-color="#FFDE43"/>
<stop offset="0.22" stop-color="#FED93F"/>
<stop offset="0.51" stop-color="#FCC934"/>
<stop offset="0.82" stop-color="#F9AF21"/>
<stop offset="1" stop-color="#F79D14"/>
</linearGradient>
<radialGradient id="paint8_radial_862_12547" cx="0" cy="0" r="1" gradientUnits="userSpaceOnUse" gradientTransform="translate(263.352 372.325) scale(56.123 58.6209)">
<stop stop-color="#743C1C"/>
<stop offset="1" stop-color="#401C02"/>
</radialGradient>
<linearGradient id="paint9_linear_862_12547" x1="263.352" y1="403.094" x2="263.352" y2="341.556" gradientUnits="userSpaceOnUse">
<stop offset="0.265625" stop-color="#FFDE43"/>
<stop offset="1" stop-color="#F79D14"/>
</linearGradient>
</defs>
</svg>
