<svg width="483" height="483" viewBox="0 0 483 483" fill="none" xmlns="http://www.w3.org/2000/svg">
<path d="M241.18 482.36C374.38 482.36 482.36 374.38 482.36 241.18C482.36 107.98 374.38 0 241.18 0C107.98 0 0 107.98 0 241.18C0 374.38 107.98 482.36 241.18 482.36Z" fill="url(#paint0_radial_862_12474)"/>
<g style="mix-blend-mode:soft-light">
<path d="M241.18 482.36C374.38 482.36 482.36 374.38 482.36 241.18C482.36 107.98 374.38 0 241.18 0C107.98 0 0 107.98 0 241.18C0 374.38 107.98 482.36 241.18 482.36Z" fill="url(#paint1_radial_862_12474)"/>
</g>
<g style="mix-blend-mode:soft-light">
<path d="M241.18 482.36C374.38 482.36 482.36 374.38 482.36 241.18C482.36 107.98 374.38 0 241.18 0C107.98 0 0 107.98 0 241.18C0 374.38 107.98 482.36 241.18 482.36Z" fill="url(#paint2_radial_862_12474)"/>
</g>
<g style="mix-blend-mode:overlay">
<path d="M241.18 482.36C374.38 482.36 482.36 374.38 482.36 241.18C482.36 107.98 374.38 0 241.18 0C107.98 0 0 107.98 0 241.18C0 374.38 107.98 482.36 241.18 482.36Z" fill="url(#paint3_radial_862_12474)" fill-opacity="0.7"/>
</g>
<mask id="mask0_862_12474" style="mask-type:alpha" maskUnits="userSpaceOnUse" x="0" y="0" width="483" height="483">
<path d="M241.18 482.36C374.38 482.36 482.36 374.38 482.36 241.18C482.36 107.98 374.38 0 241.18 0C107.98 0 0 107.98 0 241.18C0 374.38 107.98 482.36 241.18 482.36Z" fill="white"/>
</mask>
<g mask="url(#mask0_862_12474)">
<g filter="url(#filter0_f_862_12474)">
<path d="M-1.3759 234.299C-1.11402 230.872 0.0137008 230.529 0.342619 234.008C0.708055 237.874 -0.00231624 245.646 0.16871 250.335C0.621554 262.748 2.52441 273.541 4.48605 282.32C10.8075 310.612 19.5617 328.843 27.7268 344.288C54.5663 395.06 83.9667 420.77 112.648 440.147C154.689 468.549 197.072 477.584 239.49 479.5C240.56 479.548 240.738 486.518 239.686 487.425C237.788 489.061 235.436 487.437 233.494 487.369C227.915 487.174 222.335 486.791 216.756 486.211C200.213 484.492 183.67 480.991 167.162 475.358C122.275 460.044 73.8765 433.821 31.6092 359.962C28.9502 355.316 26.3124 350.424 23.7118 345.167C21.6321 340.963 19.5726 336.556 17.5493 331.843C10.8946 316.342 -4.61323 276.658 -1.3759 234.299ZM239.52 487.5C238.499 487.531 238.241 481.034 239.214 479.685C240.684 477.647 242.888 479.326 244.439 479.229C250.877 478.826 257.314 478.229 263.75 477.421C281.395 475.205 299.028 471.422 316.621 465.596C360.257 451.145 407.17 429.115 448.305 361.431C450.923 357.123 453.518 352.553 456.079 347.641C463.86 332.712 483.361 293.084 481.107 243.821C480.917 239.668 482.181 237.181 482.747 240.743C483.467 245.279 483.175 254.736 482.977 259.768C482.341 275.883 479.866 289.512 477.257 300.518C468.987 335.399 457.376 355.623 446.744 372.51C412.184 427.397 374.648 449.524 338.155 465.424C305.424 479.686 272.444 486.484 239.52 487.5Z" fill="#401C02"/>
</g>
<g filter="url(#filter1_f_862_12474)">
<path d="M-1.3759 234.299C-1.11402 230.872 0.0137008 230.529 0.342619 234.008C0.708055 237.874 -0.00231624 245.646 0.16871 250.335C0.621554 262.748 2.52441 273.541 4.48605 282.32C10.8075 310.612 19.5617 328.843 27.7268 344.288C54.5663 395.06 83.9667 420.77 112.648 440.147C154.689 468.549 197.072 477.584 239.49 479.5C240.56 479.548 240.738 486.518 239.686 487.425C237.788 489.061 235.436 487.437 233.494 487.369C227.915 487.174 222.335 486.791 216.756 486.211C200.213 484.492 183.67 480.991 167.162 475.358C122.275 460.044 73.8765 433.821 31.6092 359.962C28.9502 355.316 26.3124 350.424 23.7118 345.167C21.6321 340.963 19.5726 336.556 17.5493 331.843C10.8946 316.342 -4.61323 276.658 -1.3759 234.299ZM239.52 487.5C238.499 487.531 238.241 481.034 239.214 479.685C240.684 477.647 242.888 479.326 244.439 479.229C250.877 478.826 257.314 478.229 263.75 477.421C281.395 475.205 299.028 471.422 316.621 465.596C360.257 451.145 407.17 429.115 448.305 361.431C450.923 357.123 453.518 352.553 456.079 347.641C463.86 332.712 483.361 293.084 481.107 243.821C480.917 239.668 482.181 237.181 482.747 240.743C483.467 245.279 483.175 254.736 482.977 259.768C482.341 275.883 479.866 289.512 477.257 300.518C468.987 335.399 457.376 355.623 446.744 372.51C412.184 427.397 374.648 449.524 338.155 465.424C305.424 479.686 272.444 486.484 239.52 487.5Z" fill="#401C02"/>
</g>
</g>
<path d="M282.424 264.47C281.513 263.552 280.898 262.382 280.659 261.111C280.42 259.84 280.568 258.526 281.084 257.34C292.924 230.11 320.704 211 353.084 211C385.464 211 413.204 230.11 425.084 257.33C425.601 258.518 425.749 259.835 425.508 261.108C425.268 262.381 424.65 263.553 423.734 264.47C422.551 265.634 420.965 266.297 419.305 266.321C417.646 266.345 416.041 265.729 414.824 264.6C400.054 251.24 377.894 242.75 353.114 242.75C328.334 242.75 306.114 251.24 291.374 264.61C290.159 265.741 288.553 266.359 286.893 266.335C285.233 266.311 283.646 265.646 282.464 264.48L282.424 264.47Z" fill="url(#paint4_radial_862_12474)"/>
<path d="M57.8743 264.47C56.9645 263.555 56.3503 262.389 56.1114 261.121C55.8725 259.853 56.0198 258.543 56.5343 257.36C68.3743 230.13 96.1543 211.02 128.534 211.02C160.914 211.02 188.664 230.13 200.534 257.35C201.053 258.537 201.202 259.853 200.963 261.126C200.724 262.399 200.108 263.571 199.194 264.49C198.011 265.654 196.425 266.317 194.765 266.341C193.106 266.365 191.501 265.749 190.284 264.62C175.514 251.26 153.354 242.77 128.564 242.77C103.774 242.77 81.6143 251.26 66.8343 264.63C65.6188 265.761 64.0134 266.379 62.3532 266.355C60.6929 266.331 59.1063 265.666 57.9243 264.5L57.8743 264.47Z" fill="url(#paint5_radial_862_12474)"/>
<path d="M282.424 264.47C281.513 263.552 280.898 262.382 280.659 261.111C280.42 259.84 280.568 258.526 281.084 257.34C292.924 230.11 320.704 211 353.084 211C385.464 211 413.204 230.11 425.084 257.33C425.601 258.518 425.749 259.835 425.508 261.108C425.268 262.381 424.65 263.553 423.734 264.47V264.47C422.551 265.634 420.965 266.297 419.305 266.321C417.646 266.345 416.041 265.729 414.824 264.6C400.054 251.24 377.894 242.75 353.114 242.75C328.334 242.75 306.114 251.24 291.374 264.61C290.159 265.741 288.553 266.359 286.893 266.335C285.233 266.311 283.646 265.646 282.464 264.48L282.424 264.47Z" stroke="url(#paint6_linear_862_12474)" stroke-width="2" stroke-miterlimit="10"/>
<path d="M57.8743 264.47C56.9645 263.555 56.3503 262.389 56.1114 261.121C55.8725 259.853 56.0198 258.543 56.5343 257.36C68.3743 230.13 96.1543 211.02 128.534 211.02C160.914 211.02 188.664 230.13 200.534 257.35C201.053 258.537 201.202 259.853 200.963 261.126C200.724 262.399 200.108 263.571 199.194 264.49V264.49C198.011 265.654 196.425 266.317 194.765 266.341C193.106 266.365 191.501 265.749 190.284 264.62C175.514 251.26 153.354 242.77 128.564 242.77C103.774 242.77 81.6143 251.26 66.8343 264.63C65.6188 265.761 64.0134 266.379 62.3532 266.355C60.6929 266.331 59.1063 265.666 57.9243 264.5L57.8743 264.47Z" stroke="url(#paint7_linear_862_12474)" stroke-width="2" stroke-miterlimit="10"/>
<path d="M311.949 344.61C312.336 344.311 312.808 344.14 313.298 344.124C313.787 344.108 314.27 344.246 314.676 344.52C315.082 344.793 315.392 345.188 315.561 345.648C315.731 346.107 315.751 346.609 315.619 347.08C307.329 378.69 277.229 402.08 241.359 402.08C205.489 402.08 175.359 378.64 167.089 347.01C166.954 346.537 166.973 346.033 167.142 345.571C167.312 345.109 167.623 344.713 168.031 344.438C168.44 344.164 168.925 344.026 169.417 344.045C169.909 344.063 170.382 344.236 170.769 344.54C188.609 358.2 213.649 366.7 241.359 366.7C269.069 366.7 294.089 358.23 311.949 344.61Z" fill="url(#paint8_radial_862_12474)"/>
<path d="M311.949 344.61C312.336 344.311 312.808 344.14 313.298 344.124C313.787 344.108 314.27 344.246 314.676 344.52C315.082 344.793 315.392 345.188 315.561 345.648C315.731 346.107 315.751 346.609 315.619 347.08C307.329 378.69 277.229 402.08 241.359 402.08C205.489 402.08 175.359 378.64 167.089 347.01C166.954 346.537 166.973 346.033 167.142 345.571C167.312 345.109 167.623 344.713 168.031 344.438C168.44 344.164 168.925 344.026 169.417 344.045C169.909 344.063 170.382 344.236 170.769 344.54C188.609 358.2 213.649 366.7 241.359 366.7C269.069 366.7 294.089 358.23 311.949 344.61Z" stroke="url(#paint9_linear_862_12474)" stroke-width="2.5" stroke-miterlimit="10"/>
<defs>
<filter id="filter0_f_862_12474" x="-26.8149" y="206.558" width="535.022" height="306.595" filterUnits="userSpaceOnUse" color-interpolation-filters="sRGB">
<feFlood flood-opacity="0" result="BackgroundImageFix"/>
<feBlend mode="normal" in="SourceGraphic" in2="BackgroundImageFix" result="shape"/>
<feGaussianBlur stdDeviation="12.5" result="effect1_foregroundBlur_862_12474"/>
</filter>
<filter id="filter1_f_862_12474" x="-41.8149" y="191.558" width="565.022" height="336.595" filterUnits="userSpaceOnUse" color-interpolation-filters="sRGB">
<feFlood flood-opacity="0" result="BackgroundImageFix"/>
<feBlend mode="normal" in="SourceGraphic" in2="BackgroundImageFix" result="shape"/>
<feGaussianBlur stdDeviation="20" result="effect1_foregroundBlur_862_12474"/>
</filter>
<radialGradient id="paint0_radial_862_12474" cx="0" cy="0" r="1" gradientUnits="userSpaceOnUse" gradientTransform="translate(241 -4.53898e-06) rotate(90) scale(482)">
<stop stop-color="#FFDE43"/>
<stop offset="1" stop-color="#FFBC00"/>
</radialGradient>
<radialGradient id="paint1_radial_862_12474" cx="0" cy="0" r="1" gradientUnits="userSpaceOnUse" gradientTransform="translate(241 64.5) rotate(90) scale(417.5)">
<stop stop-color="white" stop-opacity="0.5"/>
<stop offset="0.782278"/>
</radialGradient>
<radialGradient id="paint2_radial_862_12474" cx="0" cy="0" r="1" gradientUnits="userSpaceOnUse" gradientTransform="translate(241 64.5) rotate(90) scale(417.5)">
<stop stop-color="white" stop-opacity="0.5"/>
<stop offset="0.782278"/>
</radialGradient>
<radialGradient id="paint3_radial_862_12474" cx="0" cy="0" r="1" gradientUnits="userSpaceOnUse" gradientTransform="translate(241 -52.5) rotate(90) scale(534.5 722.835)">
<stop offset="0.0922635" stop-color="white"/>
<stop offset="0.670207" stop-color="white" stop-opacity="0"/>
</radialGradient>
<radialGradient id="paint4_radial_862_12474" cx="0" cy="0" r="1" gradientUnits="userSpaceOnUse" gradientTransform="translate(352.984 238.649) scale(92.4665 27.7157)">
<stop stop-color="#743C1C"/>
<stop offset="1" stop-color="#401C02"/>
</radialGradient>
<radialGradient id="paint5_radial_862_12474" cx="0" cy="0" r="1" gradientUnits="userSpaceOnUse" gradientTransform="translate(128.437 238.669) scale(92.4669 27.7157)">
<stop stop-color="#743C1C"/>
<stop offset="1" stop-color="#401C02"/>
</radialGradient>
<linearGradient id="paint6_linear_862_12474" x1="353.084" y1="267.893" x2="353.084" y2="209.219" gradientUnits="userSpaceOnUse">
<stop stop-color="#FFDE43"/>
<stop offset="0.22" stop-color="#FED93F"/>
<stop offset="0.51" stop-color="#FCC934"/>
<stop offset="0.82" stop-color="#F9AF21"/>
<stop offset="1" stop-color="#F79D14"/>
</linearGradient>
<linearGradient id="paint7_linear_862_12474" x1="128.537" y1="267.913" x2="128.537" y2="209.239" gradientUnits="userSpaceOnUse">
<stop stop-color="#FFDE43"/>
<stop offset="0.22" stop-color="#FED93F"/>
<stop offset="0.51" stop-color="#FCC934"/>
<stop offset="0.82" stop-color="#F9AF21"/>
<stop offset="1" stop-color="#F79D14"/>
</linearGradient>
<radialGradient id="paint8_radial_862_12474" cx="0" cy="0" r="1" gradientUnits="userSpaceOnUse" gradientTransform="translate(241.352 372.944) scale(56.123 58.6209)">
<stop stop-color="#743C1C"/>
<stop offset="1" stop-color="#401C02"/>
</radialGradient>
<linearGradient id="paint9_linear_862_12474" x1="241.352" y1="403.713" x2="241.352" y2="342.175" gradientUnits="userSpaceOnUse">
<stop offset="0.265625" stop-color="#FFDE43"/>
<stop offset="1" stop-color="#F79D14"/>
</linearGradient>
</defs>
</svg>
