<svg width="525" height="485" viewBox="0 0 525 485" fill="none" xmlns="http://www.w3.org/2000/svg">
<path d="M283.18 482.36C416.38 482.36 524.36 374.38 524.36 241.18C524.36 107.98 416.38 0 283.18 0C149.98 0 42 107.98 42 241.18C42 374.38 149.98 482.36 283.18 482.36Z" fill="url(#paint0_radial_862_12539)"/>
<g style="mix-blend-mode:soft-light">
<path d="M283.18 482.36C416.38 482.36 524.36 374.38 524.36 241.18C524.36 107.98 416.38 0 283.18 0C149.98 0 42 107.98 42 241.18C42 374.38 149.98 482.36 283.18 482.36Z" fill="url(#paint1_radial_862_12539)"/>
</g>
<g style="mix-blend-mode:soft-light">
<path d="M283.18 482.36C416.38 482.36 524.36 374.38 524.36 241.18C524.36 107.98 416.38 0 283.18 0C149.98 0 42 107.98 42 241.18C42 374.38 149.98 482.36 283.18 482.36Z" fill="url(#paint2_radial_862_12539)"/>
</g>
<g style="mix-blend-mode:overlay">
<path d="M283.18 482.36C416.38 482.36 524.36 374.38 524.36 241.18C524.36 107.98 416.38 0 283.18 0C149.98 0 42 107.98 42 241.18C42 374.38 149.98 482.36 283.18 482.36Z" fill="url(#paint3_radial_862_12539)" fill-opacity="0.7"/>
</g>
<mask id="mask0_862_12539" style="mask-type:alpha" maskUnits="userSpaceOnUse" x="42" y="0" width="483" height="483">
<path d="M283.18 482.36C416.38 482.36 524.36 374.38 524.36 241.18C524.36 107.98 416.38 0 283.18 0C149.98 0 42 107.98 42 241.18C42 374.38 149.98 482.36 283.18 482.36Z" fill="white"/>
</mask>
<g mask="url(#mask0_862_12539)">
<g filter="url(#filter0_f_862_12539)">
<path d="M40.6241 234.299C40.886 230.872 42.0137 230.529 42.3426 234.008C42.7081 237.874 41.9977 245.646 42.1687 250.335C42.6216 262.748 44.5244 273.541 46.486 282.32C52.8075 310.612 61.5617 328.843 69.7268 344.288C96.5663 395.06 125.967 420.77 154.648 440.147C196.689 468.549 239.072 477.584 281.49 479.5C282.56 479.548 282.738 486.518 281.686 487.425C279.788 489.061 277.436 487.437 275.494 487.369C269.915 487.174 264.335 486.791 258.756 486.211C242.213 484.492 225.67 480.991 209.162 475.358C164.275 460.044 115.877 433.821 73.6092 359.962C70.9502 355.316 68.3124 350.424 65.7118 345.167C63.6321 340.963 61.5726 336.556 59.5493 331.843C52.8946 316.342 37.3868 276.658 40.6241 234.299ZM281.52 487.5C280.499 487.531 280.241 481.034 281.214 479.685C282.684 477.647 284.888 479.326 286.439 479.229C292.877 478.826 299.314 478.229 305.75 477.421C323.395 475.205 341.028 471.422 358.621 465.596C402.257 451.145 449.17 429.115 490.305 361.431C492.923 357.123 495.518 352.553 498.079 347.641C505.86 332.712 525.361 293.084 523.107 243.821C522.917 239.668 524.181 237.181 524.747 240.743C525.467 245.279 525.175 254.736 524.977 259.768C524.341 275.883 521.866 289.512 519.257 300.518C510.987 335.399 499.376 355.623 488.744 372.51C454.184 427.397 416.648 449.524 380.155 465.424C347.424 479.686 314.444 486.484 281.52 487.5Z" fill="#401C02"/>
</g>
<g filter="url(#filter1_f_862_12539)">
<path d="M40.6241 234.299C40.886 230.872 42.0137 230.529 42.3426 234.008C42.7081 237.874 41.9977 245.646 42.1687 250.335C42.6216 262.748 44.5244 273.541 46.486 282.32C52.8075 310.612 61.5617 328.843 69.7268 344.288C96.5663 395.06 125.967 420.77 154.648 440.147C196.689 468.549 239.072 477.584 281.49 479.5C282.56 479.548 282.738 486.518 281.686 487.425C279.788 489.061 277.436 487.437 275.494 487.369C269.915 487.174 264.335 486.791 258.756 486.211C242.213 484.492 225.67 480.991 209.162 475.358C164.275 460.044 115.877 433.821 73.6092 359.962C70.9502 355.316 68.3124 350.424 65.7118 345.167C63.6321 340.963 61.5726 336.556 59.5493 331.843C52.8946 316.342 37.3868 276.658 40.6241 234.299ZM281.52 487.5C280.499 487.531 280.241 481.034 281.214 479.685C282.684 477.647 284.888 479.326 286.439 479.229C292.877 478.826 299.314 478.229 305.75 477.421C323.395 475.205 341.028 471.422 358.621 465.596C402.257 451.145 449.17 429.115 490.305 361.431C492.923 357.123 495.518 352.553 498.079 347.641C505.86 332.712 525.361 293.084 523.107 243.821C522.917 239.668 524.181 237.181 524.747 240.743C525.467 245.279 525.175 254.736 524.977 259.768C524.341 275.883 521.866 289.512 519.257 300.518C510.987 335.399 499.376 355.623 488.744 372.51C454.184 427.397 416.648 449.524 380.155 465.424C347.424 479.686 314.444 486.484 281.52 487.5Z" fill="#401C02"/>
</g>
</g>
<mask id="mask1_862_12539" style="mask-type:alpha" maskUnits="userSpaceOnUse" x="41" y="0" width="483" height="483">
<path d="M282.18 482.36C415.38 482.36 523.36 374.38 523.36 241.18C523.36 107.98 415.38 0 282.18 0C148.98 0 41 107.98 41 241.18C41 374.38 148.98 482.36 282.18 482.36Z" fill="url(#paint4_linear_862_12539)"/>
</mask>
<g mask="url(#mask1_862_12539)">
<mask id="mask2_862_12539" style="mask-type:alpha" maskUnits="userSpaceOnUse" x="41" y="0" width="483" height="483">
<path d="M282.18 482.36C415.38 482.36 523.36 374.38 523.36 241.18C523.36 107.98 415.38 0 282.18 0C148.98 0 41 107.98 41 241.18C41 374.38 148.98 482.36 282.18 482.36Z" fill="white"/>
</mask>
<g mask="url(#mask2_862_12539)">
<path d="M123.485 230.689V231.039C123.585 238.039 131.705 241.579 137.135 237.259C149.215 227.639 168.235 221.429 189.615 221.429C210.995 221.429 230.015 223.099 242.095 232.719C247.525 237.049 255.645 237.989 255.745 231.039V230.689C255.745 208.359 226.135 190.259 189.615 190.259C153.095 190.259 123.485 208.359 123.485 230.689Z" stroke="url(#paint5_linear_862_12539)" stroke-width="2.88" stroke-miterlimit="10"/>
<path d="M123.485 230.689V231.039C123.585 238.039 131.705 241.579 137.135 237.259C149.215 227.639 168.235 221.429 189.615 221.429C210.995 221.429 230.015 223.099 242.095 232.719C247.525 237.049 255.645 237.989 255.745 231.039V230.689C255.745 208.359 226.135 190.259 189.615 190.259C153.095 190.259 123.485 208.359 123.485 230.689Z" fill="url(#paint6_radial_862_12539)"/>
<path d="M178.535 153.509C175.697 154.08 172.898 154.828 170.155 155.749C163.696 157.671 157.505 160.396 151.725 163.859C133.725 174.089 119.855 190.079 113.775 210.569C110.495 221.649 93.1147 216.939 96.4147 205.789C103.535 181.759 119.535 162.009 141.025 149.309C150.935 143.439 162.355 138.309 173.775 136.189C178.545 135.309 183.475 137.509 184.845 142.479C186.045 146.859 183.365 152.659 178.555 153.549L178.535 153.509Z" fill="#42210B"/>
<path d="M440.26 230.689V231.039C440.16 238.039 432.04 241.579 426.61 237.259C414.53 227.639 395.51 221.429 374.13 221.429C352.75 221.429 333.73 223.099 321.65 232.719C316.22 237.049 308.1 237.989 308 231.039V230.689C308 208.359 337.61 190.259 374.13 190.259C410.65 190.259 440.26 208.359 440.26 230.689Z" stroke="url(#paint7_linear_862_12539)" stroke-width="2.88" stroke-miterlimit="10"/>
<path d="M440.26 230.689V231.039C440.16 238.039 432.04 241.579 426.61 237.259C414.53 227.639 395.51 221.429 374.13 221.429C352.75 221.429 333.73 223.099 321.65 232.719C316.22 237.049 308.1 237.989 308 231.039V230.689C308 208.359 337.61 190.259 374.13 190.259C410.65 190.259 440.26 208.359 440.26 230.689Z" fill="url(#paint8_radial_862_12539)"/>
<path d="M385.21 153.509C388.047 154.08 390.846 154.828 393.59 155.749C400.048 157.671 406.24 160.396 412.02 163.859C430.02 174.089 443.89 190.079 449.97 210.569C453.25 221.649 470.63 216.939 467.33 205.789C460.21 181.759 444.21 162.009 422.72 149.309C412.81 143.439 401.39 138.309 389.97 136.189C385.2 135.309 380.27 137.509 378.9 142.479C377.7 146.859 380.38 152.659 385.19 153.549L385.21 153.509Z" fill="#42210B"/>
</g>
</g>
<path d="M332.92 341.43V380.07C332.918 392.364 328.032 404.153 319.338 412.845C310.644 421.537 298.854 426.42 286.56 426.42H279.63C267.337 426.42 255.548 421.537 246.856 412.845C238.164 404.152 233.28 392.363 233.28 380.07V341.44C247.56 346.22 264.69 349 283.1 349C301.51 349 318.64 346.24 332.92 341.43Z" fill="url(#paint9_radial_862_12539)"/>
<path d="M286.65 288H279.54C253.284 288 232 309.284 232 335.54V380.65C232 406.906 253.284 428.19 279.54 428.19H286.65C312.906 428.19 334.19 406.906 334.19 380.65V335.54C334.19 309.284 312.906 288 286.65 288Z" stroke="url(#paint10_linear_862_12539)" stroke-width="4.1" stroke-miterlimit="10"/>
<path d="M332.92 336.09V341.43C318.64 346.22 301.51 349 283.1 349C264.69 349 247.56 346.22 233.28 341.44V336.09C233.28 323.797 238.164 312.008 246.856 303.316C255.548 294.624 267.337 289.74 279.63 289.74H286.56C298.854 289.74 310.644 294.623 319.338 303.315C328.032 312.007 332.918 323.797 332.92 336.09Z" fill="url(#paint11_linear_862_12539)"/>
<path d="M286.55 289.75H279.63C254.026 289.75 233.27 310.506 233.27 336.11V380.07C233.27 405.674 254.026 426.43 279.63 426.43H286.55C312.154 426.43 332.91 405.674 332.91 380.07V336.11C332.91 310.506 312.154 289.75 286.55 289.75Z" stroke="url(#paint12_linear_862_12539)" stroke-width="4" stroke-miterlimit="10"/>
<mask id="mask3_862_12539" style="mask-type:alpha" maskUnits="userSpaceOnUse" x="233" y="289" width="100" height="138">
<path d="M286.55 289.75H279.63C254.026 289.75 233.27 310.506 233.27 336.11V380.07C233.27 405.674 254.026 426.43 279.63 426.43H286.55C312.153 426.43 332.91 405.674 332.91 380.07V336.11C332.91 310.506 312.153 289.75 286.55 289.75Z" fill="url(#paint13_linear_862_12539)"/>
</mask>
<g mask="url(#mask3_862_12539)">
<g filter="url(#filter2_f_862_12539)">
<path d="M286.55 289.75H279.63C254.026 289.75 233.27 310.506 233.27 336.11V380.07C233.27 405.674 254.026 426.43 279.63 426.43H286.55C312.153 426.43 332.91 405.674 332.91 380.07V336.11C332.91 310.506 312.153 289.75 286.55 289.75Z" stroke="#42210B" stroke-width="6" stroke-miterlimit="10"/>
</g>
</g>
<mask id="mask4_862_12539" style="mask-type:alpha" maskUnits="userSpaceOnUse" x="42" y="0" width="483" height="483">
<path d="M283.18 482.36C416.38 482.36 524.36 374.38 524.36 241.18C524.36 107.98 416.38 0 283.18 0C149.98 0 42 107.98 42 241.18C42 374.38 149.98 482.36 283.18 482.36Z" fill="white"/>
</mask>
<g mask="url(#mask4_862_12539)">
<g style="mix-blend-mode:multiply" filter="url(#filter3_f_862_12539)">
<path d="M2.21424 406.483C-0.94302 421.806 2.11442 437.755 10.7142 450.824C11.0842 451.374 11.4642 451.923 11.8542 452.463L23.3242 468.463C28.0978 475.126 34.137 480.782 41.0969 485.11C48.0569 489.438 55.8012 492.352 63.8876 493.686C71.974 495.021 80.2441 494.749 88.2255 492.887C96.2069 491.025 103.743 487.609 110.404 482.833L140.144 461.514L165.744 443.173L189.664 426.033C193.557 423.24 196.181 419.015 196.959 414.288C197.737 409.56 196.606 404.717 193.814 400.824C192.433 398.896 190.685 397.259 188.671 396.006C186.657 394.754 184.416 393.911 182.076 393.524C179.736 393.138 177.343 393.216 175.033 393.755C172.723 394.294 170.542 395.282 168.614 396.663C172.508 393.872 175.134 389.647 175.914 384.92C176.694 380.192 175.565 375.348 172.774 371.453C169.981 367.561 165.756 364.937 161.028 364.159C156.301 363.381 151.458 364.512 147.564 367.303C151.458 364.512 154.084 360.287 154.864 355.56C155.644 350.832 154.515 345.988 151.724 342.093C148.932 338.199 144.708 335.574 139.981 334.793C135.253 334.013 130.409 335.143 126.514 337.933L182.214 298.014C190.214 292.304 192.524 281.253 187.104 273.093C185.764 271.069 184.029 269.336 182.004 267.997C179.979 266.658 177.704 265.741 175.317 265.3C172.929 264.859 170.477 264.905 168.108 265.433C165.738 265.961 163.499 266.961 161.524 268.373L81.5242 325.694L65.6242 337.083L75.3742 299.023C76.1089 296.157 76.2716 293.173 75.853 290.244C75.4344 287.314 74.4428 284.495 72.9347 281.949C71.4266 279.403 69.4316 277.179 67.0637 275.403C64.6957 273.628 62.0013 272.337 59.1342 271.604C53.3446 270.13 47.2067 271.016 42.0703 274.067C36.9339 277.118 33.2196 282.084 31.7442 287.873L5.16424 391.613L2.21424 406.483Z" fill="#531E00" fill-opacity="0.75"/>
</g>
</g>
<path d="M1.20016 396.9C-1.79984 412.2 1.00016 428.3 9.70016 441.2C10.1002 441.8 10.4002 442.3 10.8002 442.8L22.3002 458.8C42.4002 486.8 81.4002 493.2 109.4 473.2L139.1 451.9L164.7 433.6L188.6 416.5C196.7 410.7 198.6 399.4 192.8 391.3C187 383.2 175.7 381.3 167.6 387.1C175.7 381.3 177.6 370 171.8 361.9C166 353.8 154.7 351.9 146.6 357.7C154.7 351.9 156.6 340.6 150.8 332.5C145 324.4 133.7 322.5 125.6 328.3L181.3 288.4C189.3 282.7 191.6 271.6 186.2 263.5C180.5 254.9 168.9 252.9 160.6 258.8L80.6002 316.1L64.6002 327.5L74.4002 289.4C77.5002 277.4 70.2002 265.1 58.1002 262C46.1002 259 33.8002 266.2 30.7002 278.3L4.10015 382L1.20016 396.9Z" fill="url(#paint14_radial_862_12539)"/>
<g style="mix-blend-mode:color-burn">
<mask id="mask5_862_12539" style="mask-type:alpha" maskUnits="userSpaceOnUse" x="0" y="255" width="197" height="230">
<path d="M1.20016 396.9C-1.79984 412.2 1.00016 428.3 9.70016 441.2C10.1002 441.8 10.4002 442.3 10.8002 442.8L22.3002 458.8C42.4002 486.8 81.4002 493.2 109.4 473.2L139.1 451.9L164.7 433.6L188.6 416.5C196.7 410.7 198.6 399.4 192.8 391.3C187 383.2 175.7 381.3 167.6 387.1C175.7 381.3 177.6 370 171.8 361.9C166 353.8 154.7 351.9 146.6 357.7C154.7 351.9 156.6 340.6 150.8 332.5C145 324.4 133.7 322.5 125.6 328.3L181.3 288.4C189.3 282.7 191.6 271.6 186.2 263.5C180.5 254.9 168.9 252.9 160.6 258.8L80.6002 316.1L64.6002 327.5L74.4002 289.4C77.5002 277.4 70.2002 265.1 58.1002 262C46.1002 259 33.8002 266.2 30.7002 278.3L4.10015 382L1.20016 396.9Z" fill="url(#paint15_radial_862_12539)"/>
</mask>
<g mask="url(#mask5_862_12539)">
<g style="mix-blend-mode:color-burn" filter="url(#filter4_f_862_12539)">
<path d="M64.6001 327.5C74.7001 319.9 85.0001 312.4 95.1001 304.8L125.8 282.3C136 274.8 146.3 267.4 156.6 259.9L158.5 258.5L159.5 257.8C159.8 257.6 160.2 257.3 160.6 257.1C162 256.2 163.6 255.5 165.2 254.9C166.8 254.4 168.5 254.1 170.3 254C172 254 173.7 254.1 175.4 254.5C176.2 254.6 177 255 177.9 255.2C178.7 255.6 179.5 255.8 180.2 256.3C181.7 257.1 183.1 258.1 184.4 259.3C186.9 261.7 188.8 264.6 189.8 267.9C191.9 274.5 190 282.1 185.2 287C184.6 287.6 184 288.2 183.3 288.7C182.6 289.3 182 289.7 181.3 290.2L177.4 293L169.6 298.5C159.2 305.8 148.9 313.2 138.5 320.5L107.3 342.3C96.8001 349.5 86.4001 356.8 75.9001 363.9C86.0001 356.2 96.2001 348.7 106.4 341.1L137.1 318.6C147.3 311.1 157.6 303.7 167.9 296.2L175.6 290.6L179.5 287.8C180.2 287.3 180.8 286.9 181.3 286.4C181.9 286 182.4 285.4 182.9 284.9C186.9 280.7 188.5 274.3 186.8 268.7C186 265.9 184.3 263.4 182.3 261.3C181.2 260.3 180.1 259.4 178.8 258.8C178.2 258.4 177.5 258.2 176.8 257.9C176.1 257.7 175.4 257.4 174.7 257.3C173.3 256.9 171.8 256.9 170.4 256.9C168.9 257 167.5 257.2 166.1 257.6C164.7 258 163.4 258.6 162.1 259.4C161.8 259.6 161.5 259.8 161.2 260L160.2 260.7L158.3 262.1C147.9 269.4 137.6 276.8 127.2 284.1L96.0001 305.9C85.5001 313.1 75.1001 320.4 64.6001 327.5Z" fill="#42210B" fill-opacity="0.5"/>
</g>
<g style="mix-blend-mode:color-burn" filter="url(#filter5_f_862_12539)">
<path d="M76 363.8C87.8 354.7 99.6 345.7 111.6 336.8L120.6 330.2C122.1 329.1 123.6 328 125.1 326.9C126.7 325.7 128.6 324.9 130.5 324.3C132.4 323.7 134.4 323.4 136.4 323.5C138.4 323.5 140.4 323.9 142.3 324.5C144.2 325.2 146 326.1 147.6 327.3C149.2 328.5 150.6 330 151.8 331.6C152.9 333.3 153.9 335.1 154.5 337C155.1 338.9 155.4 340.9 155.4 342.9C155.4 344.9 155.1 346.9 154.5 348.8C153.9 350.7 153 352.6 151.8 354.2C150.6 355.8 149.2 357.3 147.6 358.5C146.1 359.6 144.5 360.7 143 361.7L133.8 368.1C121.6 376.6 109.3 385 96.8 393.2C108.6 384.1 120.4 375.1 132.4 366.2L141.4 359.6C142.9 358.5 144.4 357.4 145.9 356.3C147.3 355.3 148.4 354 149.4 352.6C150.4 351.2 151.1 349.6 151.6 348C152.1 346.4 152.4 344.7 152.4 342.9C152.4 341.2 152.1 339.5 151.6 337.9C151 336.3 150.3 334.8 149.3 333.4C148.3 332 147.1 330.8 145.7 329.7C144.3 328.7 142.8 327.9 141.2 327.3C139.6 326.7 137.9 326.4 136.2 326.4C134.5 326.4 132.8 326.6 131.1 327C129.5 327.5 127.9 328.2 126.4 329.1C124.9 330.1 123.4 331.2 121.8 332.3L112.6 338.7C100.7 347.3 88.4 355.6 76 363.8Z" fill="#42210B" fill-opacity="0.5"/>
</g>
<g style="mix-blend-mode:color-burn" filter="url(#filter6_f_862_12539)">
<path d="M97 393.2C108.8 384.1 120.6 375.1 132.6 366.2L141.6 359.6C143.1 358.5 144.6 357.4 146.1 356.3C147.7 355.1 149.6 354.3 151.5 353.7C153.4 353.1 155.4 352.8 157.4 352.9C159.4 352.9 161.4 353.3 163.3 353.9C165.2 354.6 167 355.5 168.6 356.7C170.2 357.9 171.6 359.4 172.8 361C173.9 362.7 174.9 364.5 175.5 366.4C176.1 368.3 176.4 370.3 176.4 372.3C176.4 374.3 176.1 376.3 175.5 378.2C174.9 380.1 174 382 172.8 383.6C171.6 385.2 170.2 386.7 168.6 387.9C167.1 389 165.5 390.1 164 391.1L154.8 397.5C142.6 406 130.3 414.4 117.8 422.6C129.6 413.5 141.4 404.5 153.4 395.6L162.4 389C163.9 387.9 165.4 386.8 166.9 385.7C168.3 384.7 169.4 383.4 170.4 382C171.4 380.6 172.1 379 172.6 377.4C173.1 375.8 173.4 374.1 173.4 372.3C173.4 370.6 173.1 368.9 172.6 367.3C172 365.7 171.3 364.2 170.3 362.8C169.3 361.4 168.1 360.2 166.7 359.1C165.3 358.1 163.8 357.3 162.2 356.7C160.6 356.1 158.9 355.8 157.2 355.8C155.5 355.8 153.8 356 152.1 356.4C150.5 356.9 148.9 357.6 147.4 358.5C145.9 359.5 144.4 360.6 142.8 361.7L133.6 368.1C121.8 376.7 109.5 385 97 393.2Z" fill="#42210B" fill-opacity="0.5"/>
</g>
<g style="mix-blend-mode:color-burn" filter="url(#filter7_f_862_12539)">
<path d="M118.1 422.6C129.9 413.5 141.7 404.5 153.7 395.6L162.7 389C164.2 387.9 165.7 386.8 167.2 385.7C168.8 384.5 170.7 383.7 172.6 383.1C174.5 382.5 176.5 382.2 178.5 382.3C180.5 382.3 182.5 382.7 184.4 383.3C186.3 384 188.1 384.9 189.7 386.1C191.3 387.3 192.7 388.8 193.9 390.4C195 392.1 196 393.9 196.6 395.8C197.2 397.7 197.5 399.7 197.5 401.7C197.5 403.7 197.2 405.7 196.6 407.6C196 409.5 195.1 411.4 193.9 413C192.7 414.6 191.3 416.1 189.7 417.3C188.2 418.4 186.6 419.5 185.1 420.5L175.9 426.9C163.7 435.4 151.4 443.8 138.9 452C150.7 442.9 162.5 433.9 174.5 425L183.5 418.4C185 417.3 186.5 416.2 188 415.1C189.4 414.1 190.5 412.8 191.5 411.4C192.5 410 193.2 408.4 193.7 406.8C194.2 405.2 194.5 403.5 194.5 401.7C194.5 400 194.2 398.3 193.7 396.7C193.1 395.1 192.4 393.6 191.4 392.2C190.4 390.8 189.2 389.6 187.8 388.5C186.4 387.5 184.9 386.7 183.3 386.1C181.7 385.5 180 385.2 178.3 385.2C176.6 385.2 174.9 385.4 173.2 385.8C171.6 386.3 170 387 168.5 387.9C167 388.9 165.5 390 163.9 391.1L154.7 397.5C142.8 406 130.5 414.4 118.1 422.6Z" fill="#42210B" fill-opacity="0.5"/>
</g>
<g style="mix-blend-mode:color-burn" filter="url(#filter8_f_862_12539)">
<path d="M12 351.3C15.3 336.2 18.7 321.1 22.4 306.1C24.2 298.6 26.1 291.1 27.9 283.6L29.3 278C29.9 276 30.5 274.1 31.6 272.3C33.5 268.7 36.5 265.6 40 263.5C41.8 262.5 43.6 261.6 45.6 261C47.6 260.4 49.6 260.1 51.7 260C52.7 260 53.8 260 54.8 260.1C55.3 260.2 55.8 260.2 56.3 260.3L57.8 260.6C58.3 260.7 58.8 260.8 59.3 261L60.8 261.5C61.7 261.9 62.7 262.3 63.6 262.8C70.9 266.6 75.9 274.4 76.2 282.6C76.3 284.6 76.2 286.7 75.7 288.6C75.6 289.1 75.5 289.6 75.4 290.1L75 291.3L74.2 294.1L71.1 305.3C68.9 312.7 66.9 320.2 64.6 327.6C66.2 320 68 312.5 69.6 305L72.2 293.7L72.9 290.9L73.2 289.5C73.3 289 73.4 288.6 73.5 288.1C73.9 286.3 73.9 284.4 73.8 282.6C73.2 275.3 68.7 268.4 62.2 265.2C59 263.5 55.3 262.8 51.7 262.9C48.1 263 44.5 264.1 41.5 266C38.4 267.9 35.8 270.5 34.1 273.7C33.2 275.3 32.6 277 32.1 278.7L30.6 284.3C28.6 291.8 26.7 299.2 24.6 306.7C20.6 321.6 16.4 336.5 12 351.3Z" fill="#42210B" fill-opacity="0.5"/>
</g>
</g>
</g>
<defs>
<filter id="filter0_f_862_12539" x="15.1851" y="206.558" width="535.022" height="306.595" filterUnits="userSpaceOnUse" color-interpolation-filters="sRGB">
<feFlood flood-opacity="0" result="BackgroundImageFix"/>
<feBlend mode="normal" in="SourceGraphic" in2="BackgroundImageFix" result="shape"/>
<feGaussianBlur stdDeviation="12.5" result="effect1_foregroundBlur_862_12539"/>
</filter>
<filter id="filter1_f_862_12539" x="0.185059" y="191.558" width="565.022" height="336.595" filterUnits="userSpaceOnUse" color-interpolation-filters="sRGB">
<feFlood flood-opacity="0" result="BackgroundImageFix"/>
<feBlend mode="normal" in="SourceGraphic" in2="BackgroundImageFix" result="shape"/>
<feGaussianBlur stdDeviation="20" result="effect1_foregroundBlur_862_12539"/>
</filter>
<filter id="filter2_f_862_12539" x="224.27" y="280.75" width="117.64" height="154.68" filterUnits="userSpaceOnUse" color-interpolation-filters="sRGB">
<feFlood flood-opacity="0" result="BackgroundImageFix"/>
<feBlend mode="normal" in="SourceGraphic" in2="BackgroundImageFix" result="shape"/>
<feGaussianBlur stdDeviation="3" result="effect1_foregroundBlur_862_12539"/>
</filter>
<filter id="filter3_f_862_12539" x="-29" y="235" width="256.199" height="289.519" filterUnits="userSpaceOnUse" color-interpolation-filters="sRGB">
<feFlood flood-opacity="0" result="BackgroundImageFix"/>
<feBlend mode="normal" in="SourceGraphic" in2="BackgroundImageFix" result="shape"/>
<feGaussianBlur stdDeviation="15" result="effect1_foregroundBlur_862_12539"/>
</filter>
<filter id="filter4_f_862_12539" x="54.6001" y="244" width="146.048" height="129.9" filterUnits="userSpaceOnUse" color-interpolation-filters="sRGB">
<feFlood flood-opacity="0" result="BackgroundImageFix"/>
<feBlend mode="normal" in="SourceGraphic" in2="BackgroundImageFix" result="shape"/>
<feGaussianBlur stdDeviation="5" result="effect1_foregroundBlur_862_12539"/>
</filter>
<filter id="filter5_f_862_12539" x="70" y="317.481" width="91.3999" height="81.7188" filterUnits="userSpaceOnUse" color-interpolation-filters="sRGB">
<feFlood flood-opacity="0" result="BackgroundImageFix"/>
<feBlend mode="normal" in="SourceGraphic" in2="BackgroundImageFix" result="shape"/>
<feGaussianBlur stdDeviation="3" result="effect1_foregroundBlur_862_12539"/>
</filter>
<filter id="filter6_f_862_12539" x="91" y="346.881" width="91.3999" height="81.7188" filterUnits="userSpaceOnUse" color-interpolation-filters="sRGB">
<feFlood flood-opacity="0" result="BackgroundImageFix"/>
<feBlend mode="normal" in="SourceGraphic" in2="BackgroundImageFix" result="shape"/>
<feGaussianBlur stdDeviation="3" result="effect1_foregroundBlur_862_12539"/>
</filter>
<filter id="filter7_f_862_12539" x="108.1" y="372.281" width="99.3999" height="89.7188" filterUnits="userSpaceOnUse" color-interpolation-filters="sRGB">
<feFlood flood-opacity="0" result="BackgroundImageFix"/>
<feBlend mode="normal" in="SourceGraphic" in2="BackgroundImageFix" result="shape"/>
<feGaussianBlur stdDeviation="5" result="effect1_foregroundBlur_862_12539"/>
</filter>
<filter id="filter8_f_862_12539" x="2" y="250" width="84.2349" height="111.3" filterUnits="userSpaceOnUse" color-interpolation-filters="sRGB">
<feFlood flood-opacity="0" result="BackgroundImageFix"/>
<feBlend mode="normal" in="SourceGraphic" in2="BackgroundImageFix" result="shape"/>
<feGaussianBlur stdDeviation="5" result="effect1_foregroundBlur_862_12539"/>
</filter>
<radialGradient id="paint0_radial_862_12539" cx="0" cy="0" r="1" gradientUnits="userSpaceOnUse" gradientTransform="translate(283 -4.53898e-06) rotate(90) scale(482)">
<stop stop-color="#FFDE43"/>
<stop offset="1" stop-color="#FFBC00"/>
</radialGradient>
<radialGradient id="paint1_radial_862_12539" cx="0" cy="0" r="1" gradientUnits="userSpaceOnUse" gradientTransform="translate(283 64.5) rotate(90) scale(417.5)">
<stop stop-color="white" stop-opacity="0.5"/>
<stop offset="0.782278"/>
</radialGradient>
<radialGradient id="paint2_radial_862_12539" cx="0" cy="0" r="1" gradientUnits="userSpaceOnUse" gradientTransform="translate(283 64.5) rotate(90) scale(417.5)">
<stop stop-color="white" stop-opacity="0.5"/>
<stop offset="0.782278"/>
</radialGradient>
<radialGradient id="paint3_radial_862_12539" cx="0" cy="0" r="1" gradientUnits="userSpaceOnUse" gradientTransform="translate(283 -52.5) rotate(90) scale(534.5 722.835)">
<stop offset="0.0922635" stop-color="white"/>
<stop offset="0.670207" stop-color="white" stop-opacity="0"/>
</radialGradient>
<linearGradient id="paint4_linear_862_12539" x1="282" y1="-482" x2="282" y2="482" gradientUnits="userSpaceOnUse">
<stop offset="0.75427"/>
<stop offset="0.822917" stop-color="#7C7C7C" stop-opacity="0.32"/>
<stop offset="0.895653" stop-color="white" stop-opacity="0"/>
</linearGradient>
<linearGradient id="paint5_linear_862_12539" x1="189.615" y1="240.519" x2="189.615" y2="188.686" gradientUnits="userSpaceOnUse">
<stop stop-color="#FFDE43"/>
<stop offset="0.22" stop-color="#FED93F"/>
<stop offset="0.51" stop-color="#FCC934"/>
<stop offset="0.82" stop-color="#F9AF21"/>
<stop offset="1" stop-color="#F79D14"/>
</linearGradient>
<radialGradient id="paint6_radial_862_12539" cx="0" cy="0" r="1" gradientUnits="userSpaceOnUse" gradientTransform="translate(189.615 214.603) rotate(180) scale(49.9165 49.3761)">
<stop stop-color="#743C1C"/>
<stop offset="1" stop-color="#401C02"/>
</radialGradient>
<linearGradient id="paint7_linear_862_12539" x1="374.13" y1="240.519" x2="374.13" y2="188.686" gradientUnits="userSpaceOnUse">
<stop stop-color="#FFDE43"/>
<stop offset="0.22" stop-color="#FED93F"/>
<stop offset="0.51" stop-color="#FCC934"/>
<stop offset="0.82" stop-color="#F9AF21"/>
<stop offset="1" stop-color="#F79D14"/>
</linearGradient>
<radialGradient id="paint8_radial_862_12539" cx="0" cy="0" r="1" gradientUnits="userSpaceOnUse" gradientTransform="translate(374.13 214.603) scale(49.9165 49.3761)">
<stop stop-color="#743C1C"/>
<stop offset="1" stop-color="#401C02"/>
</radialGradient>
<radialGradient id="paint9_radial_862_12539" cx="0" cy="0" r="1" gradientUnits="userSpaceOnUse" gradientTransform="translate(283.1 383.753) scale(37.6053 85.8446)">
<stop stop-color="#743C1C"/>
<stop offset="1" stop-color="#401C02"/>
</radialGradient>
<linearGradient id="paint10_linear_862_12539" x1="283.095" y1="432.135" x2="283.095" y2="283.489" gradientUnits="userSpaceOnUse">
<stop offset="0.265625" stop-color="#FFDE43"/>
<stop offset="1" stop-color="#F79D14"/>
</linearGradient>
<linearGradient id="paint11_linear_862_12539" x1="233.242" y1="319.381" x2="332.92" y2="319.381" gradientUnits="userSpaceOnUse">
<stop stop-color="#CCCCCC"/>
<stop offset="0.05" stop-color="#D5D5D5"/>
<stop offset="0.2" stop-color="#E9E9E9"/>
<stop offset="0.35" stop-color="#F6F6F6"/>
<stop offset="0.5" stop-color="#FAFAFA"/>
<stop offset="0.65" stop-color="#F6F6F6"/>
<stop offset="0.8" stop-color="#E9E9E9"/>
<stop offset="0.95" stop-color="#D5D5D5"/>
<stop offset="1" stop-color="#CCCCCC"/>
</linearGradient>
<linearGradient id="paint12_linear_862_12539" x1="283.1" y1="428.43" x2="283.1" y2="287.75" gradientUnits="userSpaceOnUse">
<stop stop-color="#401C02"/>
<stop offset="1" stop-color="#401C02"/>
</linearGradient>
<linearGradient id="paint13_linear_862_12539" x1="283.1" y1="428.43" x2="283.1" y2="287.75" gradientUnits="userSpaceOnUse">
<stop stop-color="#401C02"/>
<stop offset="1" stop-color="#401C02"/>
</linearGradient>
<radialGradient id="paint14_radial_862_12539" cx="0" cy="0" r="1" gradientUnits="userSpaceOnUse" gradientTransform="translate(98.0223 352.692) rotate(54.3677) scale(114.513 114.513)">
<stop offset="0.0139674" stop-color="#FFDE43"/>
<stop offset="0.3975" stop-color="#FFDC41"/>
<stop offset="0.6038" stop-color="#FFD43B"/>
<stop offset="0.7679" stop-color="#FFC631"/>
<stop offset="0.9089" stop-color="#FFB323"/>
<stop offset="1" stop-color="#FFA216"/>
</radialGradient>
<radialGradient id="paint15_radial_862_12539" cx="0" cy="0" r="1" gradientUnits="userSpaceOnUse" gradientTransform="translate(98.0223 352.692) rotate(54.3677) scale(114.513 114.513)">
<stop offset="0.0139674" stop-color="#FFDE43"/>
<stop offset="0.3975" stop-color="#FFDC41"/>
<stop offset="0.6038" stop-color="#FFD43B"/>
<stop offset="0.7679" stop-color="#FFC631"/>
<stop offset="0.9089" stop-color="#FFB323"/>
<stop offset="1" stop-color="#FFA216"/>
</radialGradient>
</defs>
</svg>
