<svg width="484" height="483" viewBox="0 0 484 483" fill="none" xmlns="http://www.w3.org/2000/svg">
<path d="M242.18 482.36C375.38 482.36 483.36 374.38 483.36 241.18C483.36 107.98 375.38 0 242.18 0C108.98 0 1 107.98 1 241.18C1 374.38 108.98 482.36 242.18 482.36Z" fill="url(#paint0_radial_862_12515)"/>
<g style="mix-blend-mode:soft-light">
<path d="M242.18 482.36C375.38 482.36 483.36 374.38 483.36 241.18C483.36 107.98 375.38 0 242.18 0C108.98 0 1 107.98 1 241.18C1 374.38 108.98 482.36 242.18 482.36Z" fill="url(#paint1_radial_862_12515)"/>
</g>
<g style="mix-blend-mode:soft-light">
<path d="M242.18 482.36C375.38 482.36 483.36 374.38 483.36 241.18C483.36 107.98 375.38 0 242.18 0C108.98 0 1 107.98 1 241.18C1 374.38 108.98 482.36 242.18 482.36Z" fill="url(#paint2_radial_862_12515)"/>
</g>
<g style="mix-blend-mode:overlay">
<path d="M242.18 482.36C375.38 482.36 483.36 374.38 483.36 241.18C483.36 107.98 375.38 0 242.18 0C108.98 0 1 107.98 1 241.18C1 374.38 108.98 482.36 242.18 482.36Z" fill="url(#paint3_radial_862_12515)" fill-opacity="0.7"/>
</g>
<mask id="mask0_862_12515" style="mask-type:alpha" maskUnits="userSpaceOnUse" x="1" y="0" width="483" height="483">
<path d="M242.18 482.36C375.38 482.36 483.36 374.38 483.36 241.18C483.36 107.98 375.38 0 242.18 0C108.98 0 1 107.98 1 241.18C1 374.38 108.98 482.36 242.18 482.36Z" fill="white"/>
</mask>
<g mask="url(#mask0_862_12515)">
<g filter="url(#filter0_f_862_12515)">
<path d="M-0.375414 234.299C-0.113529 230.872 1.01419 230.529 1.34311 234.008C1.70854 237.874 0.998172 245.646 1.1692 250.335C1.62204 262.748 3.5249 273.541 5.48654 282.32C11.808 310.612 20.5622 328.843 28.7273 344.288C55.5668 395.06 84.9672 420.77 113.648 440.147C155.69 468.549 198.073 477.584 240.491 479.5C241.561 479.548 241.739 486.518 240.686 487.425C238.788 489.061 236.437 487.437 234.495 487.369C228.915 487.174 223.336 486.791 217.756 486.211C201.213 484.492 184.671 480.991 168.162 475.358C123.275 460.044 74.877 433.821 32.6097 359.962C29.9507 355.316 27.3128 350.424 24.7123 345.167C22.6325 340.963 20.573 336.556 18.5498 331.843C11.895 316.342 -3.61274 276.658 -0.375414 234.299ZM240.52 487.5C239.5 487.531 239.241 481.034 240.214 479.685C241.685 477.647 243.889 479.326 245.439 479.229C251.878 478.826 258.315 478.229 264.75 477.421C282.396 475.205 300.028 471.422 317.621 465.596C361.257 451.145 408.17 429.115 449.305 361.431C451.923 357.123 454.519 352.553 457.079 347.641C464.86 332.712 484.362 293.084 482.107 243.821C481.917 239.668 483.182 237.181 483.748 240.743C484.468 245.279 484.176 254.736 483.977 259.768C483.342 275.883 480.867 289.512 478.257 300.518C469.987 335.399 458.377 355.623 447.744 372.51C413.184 427.397 375.649 449.524 339.156 465.424C306.425 479.686 273.445 486.484 240.52 487.5Z" fill="#401C02"/>
</g>
<g filter="url(#filter1_f_862_12515)">
<path d="M-0.375414 234.299C-0.113529 230.872 1.01419 230.529 1.34311 234.008C1.70854 237.874 0.998172 245.646 1.1692 250.335C1.62204 262.748 3.5249 273.541 5.48654 282.32C11.808 310.612 20.5622 328.843 28.7273 344.288C55.5668 395.06 84.9672 420.77 113.648 440.147C155.69 468.549 198.073 477.584 240.491 479.5C241.561 479.548 241.739 486.518 240.686 487.425C238.788 489.061 236.437 487.437 234.495 487.369C228.915 487.174 223.336 486.791 217.756 486.211C201.213 484.492 184.671 480.991 168.162 475.358C123.275 460.044 74.877 433.821 32.6097 359.962C29.9507 355.316 27.3128 350.424 24.7123 345.167C22.6325 340.963 20.573 336.556 18.5498 331.843C11.895 316.342 -3.61274 276.658 -0.375414 234.299ZM240.52 487.5C239.5 487.531 239.241 481.034 240.214 479.685C241.685 477.647 243.889 479.326 245.439 479.229C251.878 478.826 258.315 478.229 264.75 477.421C282.396 475.205 300.028 471.422 317.621 465.596C361.257 451.145 408.17 429.115 449.305 361.431C451.923 357.123 454.519 352.553 457.079 347.641C464.86 332.712 484.362 293.084 482.107 243.821C481.917 239.668 483.182 237.181 483.748 240.743C484.468 245.279 484.176 254.736 483.977 259.768C483.342 275.883 480.867 289.512 478.257 300.518C469.987 335.399 458.377 355.623 447.744 372.51C413.184 427.397 375.649 449.524 339.156 465.424C306.425 479.686 273.445 486.484 240.52 487.5Z" fill="#401C02"/>
</g>
</g>
<mask id="mask1_862_12515" style="mask-type:alpha" maskUnits="userSpaceOnUse" x="1" y="0" width="483" height="483">
<path d="M242.18 482.36C375.38 482.36 483.36 374.38 483.36 241.18C483.36 107.98 375.38 0 242.18 0C108.98 0 1 107.98 1 241.18C1 374.38 108.98 482.36 242.18 482.36Z" fill="url(#paint4_linear_862_12515)"/>
</mask>
<g mask="url(#mask1_862_12515)">
<mask id="mask2_862_12515" style="mask-type:alpha" maskUnits="userSpaceOnUse" x="1" y="0" width="483" height="483">
<path d="M242.18 482.36C375.38 482.36 483.36 374.38 483.36 241.18C483.36 107.98 375.38 0 242.18 0C108.98 0 1 107.98 1 241.18C1 374.38 108.98 482.36 242.18 482.36Z" fill="white"/>
</mask>
<g mask="url(#mask2_862_12515)">
<path d="M83.4842 230.689V231.039C83.5842 238.039 91.7042 241.579 97.1342 237.259C109.214 227.639 128.234 221.429 149.614 221.429C170.994 221.429 190.014 223.099 202.094 232.719C207.524 237.049 215.644 237.989 215.744 231.039V230.689C215.744 208.359 186.134 190.259 149.614 190.259C113.094 190.259 83.4842 208.359 83.4842 230.689Z" stroke="url(#paint5_linear_862_12515)" stroke-width="2.88" stroke-miterlimit="10"/>
<path d="M83.4842 230.689V231.039C83.5842 238.039 91.7042 241.579 97.1342 237.259C109.214 227.639 128.234 221.429 149.614 221.429C170.994 221.429 190.014 223.099 202.094 232.719C207.524 237.049 215.644 237.989 215.744 231.039V230.689C215.744 208.359 186.134 190.259 149.614 190.259C113.094 190.259 83.4842 208.359 83.4842 230.689Z" fill="url(#paint6_radial_862_12515)"/>
<path d="M138.534 153.509C135.696 154.08 132.897 154.828 130.154 155.749C123.695 157.671 117.504 160.396 111.724 163.859C93.7237 174.089 79.8537 190.079 73.7737 210.569C70.4937 221.649 53.1137 216.939 56.4137 205.789C63.5337 181.759 79.5337 162.009 101.024 149.309C110.934 143.439 122.354 138.309 133.774 136.189C138.544 135.309 143.474 137.509 144.844 142.479C146.044 146.859 143.364 152.659 138.554 153.549L138.534 153.509Z" fill="#42210B"/>
<path d="M400.26 230.689V231.039C400.16 238.039 392.04 241.579 386.61 237.259C374.53 227.639 355.51 221.429 334.13 221.429C312.75 221.429 293.73 223.099 281.65 232.719C276.22 237.049 268.1 237.989 268 231.039V230.689C268 208.359 297.61 190.259 334.13 190.259C370.65 190.259 400.26 208.359 400.26 230.689Z" stroke="url(#paint7_linear_862_12515)" stroke-width="2.88" stroke-miterlimit="10"/>
<path d="M400.26 230.689V231.039C400.16 238.039 392.04 241.579 386.61 237.259C374.53 227.639 355.51 221.429 334.13 221.429C312.75 221.429 293.73 223.099 281.65 232.719C276.22 237.049 268.1 237.989 268 231.039V230.689C268 208.359 297.61 190.259 334.13 190.259C370.65 190.259 400.26 208.359 400.26 230.689Z" fill="url(#paint8_radial_862_12515)"/>
<path d="M345.21 153.509C348.048 154.08 350.847 154.828 353.59 155.749C360.049 157.671 366.24 160.396 372.02 163.859C390.02 174.089 403.89 190.079 409.97 210.569C413.25 221.649 430.63 216.939 427.33 205.789C420.21 181.759 404.21 162.009 382.72 149.309C372.81 143.439 361.39 138.309 349.97 136.189C345.2 135.309 340.27 137.509 338.9 142.479C337.7 146.859 340.38 152.659 345.19 153.549L345.21 153.509Z" fill="#42210B"/>
</g>
</g>
<path d="M291.92 341.43V380.07C291.918 392.364 287.032 404.153 278.338 412.845C269.644 421.537 257.854 426.42 245.56 426.42H238.63C226.337 426.42 214.548 421.537 205.856 412.845C197.164 404.152 192.28 392.363 192.28 380.07V341.44C206.56 346.22 223.69 349 242.1 349C260.51 349 277.64 346.24 291.92 341.43Z" fill="url(#paint9_radial_862_12515)"/>
<path d="M245.65 288H238.54C212.284 288 191 309.284 191 335.54V380.65C191 406.906 212.284 428.19 238.54 428.19H245.65C271.906 428.19 293.19 406.906 293.19 380.65V335.54C293.19 309.284 271.906 288 245.65 288Z" stroke="url(#paint10_linear_862_12515)" stroke-width="4.1" stroke-miterlimit="10"/>
<path d="M291.92 336.09V341.43C277.64 346.22 260.51 349 242.1 349C223.69 349 206.56 346.22 192.28 341.44V336.09C192.28 323.797 197.164 312.008 205.856 303.316C214.548 294.624 226.337 289.74 238.63 289.74H245.56C257.854 289.74 269.644 294.623 278.338 303.315C287.032 312.007 291.918 323.797 291.92 336.09Z" fill="url(#paint11_linear_862_12515)"/>
<path d="M245.55 289.75H238.63C213.026 289.75 192.27 310.506 192.27 336.11V380.07C192.27 405.674 213.026 426.43 238.63 426.43H245.55C271.153 426.43 291.91 405.674 291.91 380.07V336.11C291.91 310.506 271.153 289.75 245.55 289.75Z" stroke="url(#paint12_linear_862_12515)" stroke-width="4" stroke-miterlimit="10"/>
<mask id="mask3_862_12515" style="mask-type:alpha" maskUnits="userSpaceOnUse" x="192" y="289" width="100" height="138">
<path d="M245.55 289.75H238.63C213.026 289.75 192.27 310.506 192.27 336.11V380.07C192.27 405.674 213.026 426.43 238.63 426.43H245.55C271.153 426.43 291.91 405.674 291.91 380.07V336.11C291.91 310.506 271.153 289.75 245.55 289.75Z" fill="url(#paint13_linear_862_12515)"/>
</mask>
<g mask="url(#mask3_862_12515)">
<g filter="url(#filter2_f_862_12515)">
<path d="M245.55 289.75H238.63C213.026 289.75 192.27 310.506 192.27 336.11V380.07C192.27 405.674 213.026 426.43 238.63 426.43H245.55C271.153 426.43 291.91 405.674 291.91 380.07V336.11C291.91 310.506 271.153 289.75 245.55 289.75Z" stroke="#42210B" stroke-width="6" stroke-miterlimit="10"/>
</g>
</g>
<defs>
<filter id="filter0_f_862_12515" x="-25.8145" y="206.558" width="535.021" height="306.595" filterUnits="userSpaceOnUse" color-interpolation-filters="sRGB">
<feFlood flood-opacity="0" result="BackgroundImageFix"/>
<feBlend mode="normal" in="SourceGraphic" in2="BackgroundImageFix" result="shape"/>
<feGaussianBlur stdDeviation="12.5" result="effect1_foregroundBlur_862_12515"/>
</filter>
<filter id="filter1_f_862_12515" x="-40.8145" y="191.558" width="565.021" height="336.595" filterUnits="userSpaceOnUse" color-interpolation-filters="sRGB">
<feFlood flood-opacity="0" result="BackgroundImageFix"/>
<feBlend mode="normal" in="SourceGraphic" in2="BackgroundImageFix" result="shape"/>
<feGaussianBlur stdDeviation="20" result="effect1_foregroundBlur_862_12515"/>
</filter>
<filter id="filter2_f_862_12515" x="183.27" y="280.75" width="117.64" height="154.68" filterUnits="userSpaceOnUse" color-interpolation-filters="sRGB">
<feFlood flood-opacity="0" result="BackgroundImageFix"/>
<feBlend mode="normal" in="SourceGraphic" in2="BackgroundImageFix" result="shape"/>
<feGaussianBlur stdDeviation="3" result="effect1_foregroundBlur_862_12515"/>
</filter>
<radialGradient id="paint0_radial_862_12515" cx="0" cy="0" r="1" gradientUnits="userSpaceOnUse" gradientTransform="translate(242 -4.53898e-06) rotate(90) scale(482)">
<stop stop-color="#FFDE43"/>
<stop offset="1" stop-color="#FFBC00"/>
</radialGradient>
<radialGradient id="paint1_radial_862_12515" cx="0" cy="0" r="1" gradientUnits="userSpaceOnUse" gradientTransform="translate(242 64.5) rotate(90) scale(417.5)">
<stop stop-color="white" stop-opacity="0.5"/>
<stop offset="0.782278"/>
</radialGradient>
<radialGradient id="paint2_radial_862_12515" cx="0" cy="0" r="1" gradientUnits="userSpaceOnUse" gradientTransform="translate(242 64.5) rotate(90) scale(417.5)">
<stop stop-color="white" stop-opacity="0.5"/>
<stop offset="0.782278"/>
</radialGradient>
<radialGradient id="paint3_radial_862_12515" cx="0" cy="0" r="1" gradientUnits="userSpaceOnUse" gradientTransform="translate(242 -52.5) rotate(90) scale(534.5 722.835)">
<stop offset="0.0922635" stop-color="white"/>
<stop offset="0.670207" stop-color="white" stop-opacity="0"/>
</radialGradient>
<linearGradient id="paint4_linear_862_12515" x1="242" y1="-482" x2="242" y2="482" gradientUnits="userSpaceOnUse">
<stop offset="0.75427"/>
<stop offset="0.822917" stop-color="#7C7C7C" stop-opacity="0.32"/>
<stop offset="0.895653" stop-color="white" stop-opacity="0"/>
</linearGradient>
<linearGradient id="paint5_linear_862_12515" x1="149.614" y1="240.519" x2="149.614" y2="188.686" gradientUnits="userSpaceOnUse">
<stop stop-color="#FFDE43"/>
<stop offset="0.22" stop-color="#FED93F"/>
<stop offset="0.51" stop-color="#FCC934"/>
<stop offset="0.82" stop-color="#F9AF21"/>
<stop offset="1" stop-color="#F79D14"/>
</linearGradient>
<radialGradient id="paint6_radial_862_12515" cx="0" cy="0" r="1" gradientUnits="userSpaceOnUse" gradientTransform="translate(149.614 214.603) rotate(180) scale(49.9165 49.3761)">
<stop stop-color="#743C1C"/>
<stop offset="1" stop-color="#401C02"/>
</radialGradient>
<linearGradient id="paint7_linear_862_12515" x1="334.13" y1="240.519" x2="334.13" y2="188.686" gradientUnits="userSpaceOnUse">
<stop stop-color="#FFDE43"/>
<stop offset="0.22" stop-color="#FED93F"/>
<stop offset="0.51" stop-color="#FCC934"/>
<stop offset="0.82" stop-color="#F9AF21"/>
<stop offset="1" stop-color="#F79D14"/>
</linearGradient>
<radialGradient id="paint8_radial_862_12515" cx="0" cy="0" r="1" gradientUnits="userSpaceOnUse" gradientTransform="translate(334.13 214.603) scale(49.9165 49.3761)">
<stop stop-color="#743C1C"/>
<stop offset="1" stop-color="#401C02"/>
</radialGradient>
<radialGradient id="paint9_radial_862_12515" cx="0" cy="0" r="1" gradientUnits="userSpaceOnUse" gradientTransform="translate(242.1 383.753) scale(37.6053 85.8446)">
<stop stop-color="#743C1C"/>
<stop offset="1" stop-color="#401C02"/>
</radialGradient>
<linearGradient id="paint10_linear_862_12515" x1="242.095" y1="432.135" x2="242.095" y2="283.489" gradientUnits="userSpaceOnUse">
<stop offset="0.265625" stop-color="#FFDE43"/>
<stop offset="1" stop-color="#F79D14"/>
</linearGradient>
<linearGradient id="paint11_linear_862_12515" x1="192.242" y1="319.381" x2="291.92" y2="319.381" gradientUnits="userSpaceOnUse">
<stop stop-color="#CCCCCC"/>
<stop offset="0.05" stop-color="#D5D5D5"/>
<stop offset="0.2" stop-color="#E9E9E9"/>
<stop offset="0.35" stop-color="#F6F6F6"/>
<stop offset="0.5" stop-color="#FAFAFA"/>
<stop offset="0.65" stop-color="#F6F6F6"/>
<stop offset="0.8" stop-color="#E9E9E9"/>
<stop offset="0.95" stop-color="#D5D5D5"/>
<stop offset="1" stop-color="#CCCCCC"/>
</linearGradient>
<linearGradient id="paint12_linear_862_12515" x1="242.1" y1="428.43" x2="242.1" y2="287.75" gradientUnits="userSpaceOnUse">
<stop stop-color="#401C02"/>
<stop offset="1" stop-color="#401C02"/>
</linearGradient>
<linearGradient id="paint13_linear_862_12515" x1="242.1" y1="428.43" x2="242.1" y2="287.75" gradientUnits="userSpaceOnUse">
<stop stop-color="#401C02"/>
<stop offset="1" stop-color="#401C02"/>
</linearGradient>
</defs>
</svg>
