<svg width="484" height="483" viewBox="0 0 484 483" fill="none" xmlns="http://www.w3.org/2000/svg">
<path d="M242.18 482.36C375.38 482.36 483.36 374.38 483.36 241.18C483.36 107.98 375.38 0 242.18 0C108.98 0 1 107.98 1 241.18C1 374.38 108.98 482.36 242.18 482.36Z" fill="url(#paint0_radial_862_12588)"/>
<g style="mix-blend-mode:soft-light">
<path d="M242.18 482.36C375.38 482.36 483.36 374.38 483.36 241.18C483.36 107.98 375.38 0 242.18 0C108.98 0 1 107.98 1 241.18C1 374.38 108.98 482.36 242.18 482.36Z" fill="url(#paint1_radial_862_12588)"/>
</g>
<g style="mix-blend-mode:soft-light">
<path d="M242.18 482.36C375.38 482.36 483.36 374.38 483.36 241.18C483.36 107.98 375.38 0 242.18 0C108.98 0 1 107.98 1 241.18C1 374.38 108.98 482.36 242.18 482.36Z" fill="url(#paint2_radial_862_12588)"/>
</g>
<g style="mix-blend-mode:overlay">
<path d="M242.18 482.36C375.38 482.36 483.36 374.38 483.36 241.18C483.36 107.98 375.38 0 242.18 0C108.98 0 1 107.98 1 241.18C1 374.38 108.98 482.36 242.18 482.36Z" fill="url(#paint3_radial_862_12588)" fill-opacity="0.7"/>
</g>
<mask id="mask0_862_12588" style="mask-type:alpha" maskUnits="userSpaceOnUse" x="0" y="0" width="483" height="483">
<path d="M241.18 482.36C374.38 482.36 482.36 374.38 482.36 241.18C482.36 107.98 374.38 0 241.18 0C107.98 0 0 107.98 0 241.18C0 374.38 107.98 482.36 241.18 482.36Z" fill="white"/>
</mask>
<g mask="url(#mask0_862_12588)">
<g filter="url(#filter0_f_862_12588)">
<path d="M-1.3759 234.299C-1.11402 230.872 0.0137008 230.529 0.342619 234.009C0.708055 237.875 -0.00231624 245.647 0.16871 250.335C0.621554 262.748 2.52441 273.542 4.48605 282.321C10.8075 310.613 19.5617 328.843 27.7268 344.289C54.5663 395.061 83.9667 420.771 112.648 440.147C154.689 468.55 197.072 477.584 239.49 479.5C240.56 479.549 240.738 486.518 239.686 487.425C237.788 489.062 235.436 487.438 233.494 487.37C227.915 487.174 222.335 486.791 216.756 486.211C200.213 484.492 183.67 480.991 167.162 475.359C122.275 460.044 73.8765 433.821 31.6092 359.962C28.9502 355.316 26.3124 350.424 23.7118 345.168C21.6321 340.964 19.5726 336.557 17.5493 331.844C10.8946 316.342 -4.61323 276.659 -1.3759 234.299ZM239.52 487.5C238.499 487.532 238.241 481.035 239.214 479.686C240.684 477.647 242.888 479.326 244.439 479.229C250.877 478.827 257.314 478.23 263.75 477.422C281.395 475.206 299.028 471.423 316.621 465.596C360.257 451.146 407.17 429.116 448.305 361.431C450.923 357.124 453.518 352.554 456.079 347.641C463.86 332.713 483.361 293.085 481.107 243.821C480.917 239.669 482.181 237.181 482.747 240.744C483.467 245.28 483.175 254.736 482.977 259.768C482.341 275.884 479.866 289.512 477.257 300.518C468.987 335.399 457.376 355.623 446.744 372.51C412.184 427.397 374.648 449.524 338.155 465.425C305.424 479.686 272.444 486.484 239.52 487.5Z" fill="#401C02"/>
</g>
<g filter="url(#filter1_f_862_12588)">
<path d="M-1.3759 234.299C-1.11402 230.872 0.0137008 230.529 0.342619 234.009C0.708055 237.875 -0.00231624 245.647 0.16871 250.335C0.621554 262.748 2.52441 273.542 4.48605 282.321C10.8075 310.613 19.5617 328.843 27.7268 344.289C54.5663 395.061 83.9667 420.771 112.648 440.147C154.689 468.55 197.072 477.584 239.49 479.5C240.56 479.549 240.738 486.518 239.686 487.425C237.788 489.062 235.436 487.438 233.494 487.37C227.915 487.174 222.335 486.791 216.756 486.211C200.213 484.492 183.67 480.991 167.162 475.359C122.275 460.044 73.8765 433.821 31.6092 359.962C28.9502 355.316 26.3124 350.424 23.7118 345.168C21.6321 340.964 19.5726 336.557 17.5493 331.844C10.8946 316.342 -4.61323 276.659 -1.3759 234.299ZM239.52 487.5C238.499 487.532 238.241 481.035 239.214 479.686C240.684 477.647 242.888 479.326 244.439 479.229C250.877 478.827 257.314 478.23 263.75 477.422C281.395 475.206 299.028 471.423 316.621 465.596C360.257 451.146 407.17 429.116 448.305 361.431C450.923 357.124 453.518 352.554 456.079 347.641C463.86 332.713 483.361 293.085 481.107 243.821C480.917 239.669 482.181 237.181 482.747 240.744C483.467 245.28 483.175 254.736 482.977 259.768C482.341 275.884 479.866 289.512 477.257 300.518C468.987 335.399 457.376 355.623 446.744 372.51C412.184 427.397 374.648 449.524 338.155 465.425C305.424 479.686 272.444 486.484 239.52 487.5Z" fill="#401C02"/>
</g>
</g>
<path d="M290.92 356.43V395.07C290.918 407.363 286.032 419.153 277.338 427.845C268.644 436.537 256.854 441.42 244.56 441.42H237.63C225.337 441.42 213.548 436.536 204.856 427.844C196.164 419.152 191.28 407.362 191.28 395.07V356.44C205.56 361.22 222.69 364 241.1 364C259.51 364 276.64 361.24 290.92 356.43Z" fill="url(#paint4_radial_862_12588)"/>
<path d="M244.65 303H237.54C211.284 303 190 324.284 190 350.54V395.65C190 421.906 211.284 443.19 237.54 443.19H244.65C270.906 443.19 292.19 421.906 292.19 395.65V350.54C292.19 324.284 270.906 303 244.65 303Z" stroke="url(#paint5_linear_862_12588)" stroke-width="4.1" stroke-miterlimit="10"/>
<path d="M290.92 351.09V356.43C276.64 361.22 259.51 364 241.1 364C222.69 364 205.56 361.22 191.28 356.44V351.09C191.28 338.797 196.164 327.008 204.856 318.316C213.548 309.624 225.337 304.74 237.63 304.74H244.56C256.854 304.74 268.644 309.623 277.338 318.315C286.032 327.007 290.918 338.797 290.92 351.09Z" fill="url(#paint6_linear_862_12588)"/>
<path d="M244.55 304.75H237.63C212.026 304.75 191.27 325.506 191.27 351.11V395.07C191.27 420.674 212.026 441.43 237.63 441.43H244.55C270.154 441.43 290.91 420.674 290.91 395.07V351.11C290.91 325.506 270.154 304.75 244.55 304.75Z" stroke="url(#paint7_linear_862_12588)" stroke-width="4" stroke-miterlimit="10"/>
<mask id="mask1_862_12588" style="mask-type:alpha" maskUnits="userSpaceOnUse" x="191" y="304" width="100" height="138">
<path d="M244.55 304.75H237.63C212.026 304.75 191.27 325.506 191.27 351.11V395.07C191.27 420.674 212.026 441.43 237.63 441.43H244.55C270.153 441.43 290.91 420.674 290.91 395.07V351.11C290.91 325.506 270.153 304.75 244.55 304.75Z" fill="url(#paint8_linear_862_12588)"/>
</mask>
<g mask="url(#mask1_862_12588)">
<g filter="url(#filter2_f_862_12588)">
<path d="M244.55 304.75H237.63C212.026 304.75 191.27 325.506 191.27 351.11V395.07C191.27 420.674 212.026 441.43 237.63 441.43H244.55C270.153 441.43 290.91 420.674 290.91 395.07V351.11C290.91 325.506 270.153 304.75 244.55 304.75Z" stroke="#42210B" stroke-width="6" stroke-miterlimit="10"/>
</g>
</g>
<mask id="mask2_862_12588" style="mask-type:alpha" maskUnits="userSpaceOnUse" x="191" y="304" width="100" height="138">
<path d="M244.55 304.75H237.63C212.026 304.75 191.27 325.506 191.27 351.11V395.07C191.27 420.674 212.026 441.43 237.63 441.43H244.55C270.153 441.43 290.91 420.674 290.91 395.07V351.11C290.91 325.506 270.153 304.75 244.55 304.75Z" fill="url(#paint9_linear_862_12588)"/>
</mask>
<g mask="url(#mask2_862_12588)">
<path d="M273.01 421.271C269.368 421.575 265.758 422.187 262.22 423.101C248.395 426.761 233.855 426.761 220.03 423.101C216.492 422.186 212.882 421.574 209.24 421.271C156.46 416.661 144 471.511 144 471.511H338.25C338.25 471.511 325.79 416.661 273.01 421.271Z" fill="url(#paint10_radial_862_12588)"/>
</g>
<mask id="mask3_862_12588" style="mask-type:alpha" maskUnits="userSpaceOnUse" x="191" y="304" width="100" height="138">
<path d="M244.28 304.75H237.36C211.756 304.75 191 325.506 191 351.11V395.07C191 420.674 211.756 441.43 237.36 441.43H244.28C269.884 441.43 290.64 420.674 290.64 395.07V351.11C290.64 325.506 269.884 304.75 244.28 304.75Z" fill="url(#paint11_linear_862_12588)"/>
</mask>
<g mask="url(#mask3_862_12588)">
<g style="mix-blend-mode:multiply" filter="url(#filter3_f_862_12588)">
<path d="M244.28 304.75H237.36C211.756 304.75 191 325.506 191 351.11V395.07C191 420.674 211.756 441.43 237.36 441.43H244.28C269.884 441.43 290.64 420.674 290.64 395.07V351.11C290.64 325.506 269.884 304.75 244.28 304.75Z" stroke="#930040" stroke-width="3" stroke-miterlimit="10"/>
</g>
</g>
<path d="M136.9 287.8C179.371 287.8 213.8 253.371 213.8 210.9C213.8 168.429 179.371 134 136.9 134C94.4293 134 60 168.429 60 210.9C60 253.371 94.4293 287.8 136.9 287.8Z" fill="url(#paint12_linear_862_12588)"/>
<mask id="mask4_862_12588" style="mask-type:alpha" maskUnits="userSpaceOnUse" x="60" y="134" width="154" height="156">
<path d="M137 289.048C94.4741 289.048 60 254.339 60 211.524C60 168.709 94.4741 134 137 134C179.526 134 214 168.709 214 211.524C214 254.339 179.526 289.048 137 289.048Z" fill="white"/>
</mask>
<g mask="url(#mask4_862_12588)">
<g filter="url(#filter4_f_862_12588)">
<path d="M61 211.524C61 253.793 95.0327 288.048 137 288.048C178.967 288.048 213 253.793 213 211.524C213 169.254 178.967 135 137 135C95.0327 135 61 169.254 61 211.524Z" stroke="#743C1C" stroke-width="2"/>
</g>
</g>
<g filter="url(#filter5_f_862_12588)">
<circle cx="137" cy="211" r="28" fill="black"/>
</g>
<path d="M136.9 287.8C179.371 287.8 213.8 253.371 213.8 210.9C213.8 168.429 179.371 134 136.9 134C94.4293 134 60 168.429 60 210.9C60 253.371 94.4293 287.8 136.9 287.8Z" stroke="url(#paint13_linear_862_12588)" stroke-width="1.64" stroke-miterlimit="10"/>
<path d="M345.1 287.8C302.629 287.8 268.2 253.371 268.2 210.9C268.2 168.429 302.629 134 345.1 134C387.571 134 422 168.429 422 210.9C422 253.371 387.571 287.8 345.1 287.8Z" fill="url(#paint14_linear_862_12588)"/>
<mask id="mask5_862_12588" style="mask-type:alpha" maskUnits="userSpaceOnUse" x="268" y="134" width="154" height="156">
<path d="M345 289.048C387.526 289.048 422 254.339 422 211.524C422 168.709 387.526 134 345 134C302.474 134 268 168.709 268 211.524C268 254.339 302.474 289.048 345 289.048Z" fill="white"/>
</mask>
<g mask="url(#mask5_862_12588)">
<g filter="url(#filter6_f_862_12588)">
<path d="M421 211.524C421 253.793 386.967 288.048 345 288.048C303.033 288.048 269 253.793 269 211.524C269 169.254 303.033 135 345 135C386.967 135 421 169.254 421 211.524Z" stroke="#743C1C" stroke-width="2"/>
</g>
</g>
<g filter="url(#filter7_f_862_12588)">
<circle r="28" transform="matrix(-1 0 0 1 345 211)" fill="black"/>
</g>
<path d="M345.1 287.8C302.629 287.8 268.2 253.371 268.2 210.9C268.2 168.429 302.629 134 345.1 134C387.571 134 422 168.429 422 210.9C422 253.371 387.571 287.8 345.1 287.8Z" stroke="url(#paint15_linear_862_12588)" stroke-width="2.5" stroke-miterlimit="10"/>
<defs>
<filter id="filter0_f_862_12588" x="-26.8149" y="206.559" width="535.022" height="306.595" filterUnits="userSpaceOnUse" color-interpolation-filters="sRGB">
<feFlood flood-opacity="0" result="BackgroundImageFix"/>
<feBlend mode="normal" in="SourceGraphic" in2="BackgroundImageFix" result="shape"/>
<feGaussianBlur stdDeviation="12.5" result="effect1_foregroundBlur_862_12588"/>
</filter>
<filter id="filter1_f_862_12588" x="-41.8149" y="191.559" width="565.022" height="336.595" filterUnits="userSpaceOnUse" color-interpolation-filters="sRGB">
<feFlood flood-opacity="0" result="BackgroundImageFix"/>
<feBlend mode="normal" in="SourceGraphic" in2="BackgroundImageFix" result="shape"/>
<feGaussianBlur stdDeviation="20" result="effect1_foregroundBlur_862_12588"/>
</filter>
<filter id="filter2_f_862_12588" x="182.27" y="295.75" width="117.64" height="154.68" filterUnits="userSpaceOnUse" color-interpolation-filters="sRGB">
<feFlood flood-opacity="0" result="BackgroundImageFix"/>
<feBlend mode="normal" in="SourceGraphic" in2="BackgroundImageFix" result="shape"/>
<feGaussianBlur stdDeviation="3" result="effect1_foregroundBlur_862_12588"/>
</filter>
<filter id="filter3_f_862_12588" x="183.5" y="297.25" width="114.64" height="151.68" filterUnits="userSpaceOnUse" color-interpolation-filters="sRGB">
<feFlood flood-opacity="0" result="BackgroundImageFix"/>
<feBlend mode="normal" in="SourceGraphic" in2="BackgroundImageFix" result="shape"/>
<feGaussianBlur stdDeviation="3" result="effect1_foregroundBlur_862_12588"/>
</filter>
<filter id="filter4_f_862_12588" x="45" y="119" width="184" height="185.048" filterUnits="userSpaceOnUse" color-interpolation-filters="sRGB">
<feFlood flood-opacity="0" result="BackgroundImageFix"/>
<feBlend mode="normal" in="SourceGraphic" in2="BackgroundImageFix" result="shape"/>
<feGaussianBlur stdDeviation="7.5" result="effect1_foregroundBlur_862_12588"/>
</filter>
<filter id="filter5_f_862_12588" x="105" y="179" width="64" height="64" filterUnits="userSpaceOnUse" color-interpolation-filters="sRGB">
<feFlood flood-opacity="0" result="BackgroundImageFix"/>
<feBlend mode="normal" in="SourceGraphic" in2="BackgroundImageFix" result="shape"/>
<feGaussianBlur stdDeviation="2" result="effect1_foregroundBlur_862_12588"/>
</filter>
<filter id="filter6_f_862_12588" x="253" y="119" width="184" height="185.048" filterUnits="userSpaceOnUse" color-interpolation-filters="sRGB">
<feFlood flood-opacity="0" result="BackgroundImageFix"/>
<feBlend mode="normal" in="SourceGraphic" in2="BackgroundImageFix" result="shape"/>
<feGaussianBlur stdDeviation="7.5" result="effect1_foregroundBlur_862_12588"/>
</filter>
<filter id="filter7_f_862_12588" x="313" y="179" width="64" height="64" filterUnits="userSpaceOnUse" color-interpolation-filters="sRGB">
<feFlood flood-opacity="0" result="BackgroundImageFix"/>
<feBlend mode="normal" in="SourceGraphic" in2="BackgroundImageFix" result="shape"/>
<feGaussianBlur stdDeviation="2" result="effect1_foregroundBlur_862_12588"/>
</filter>
<radialGradient id="paint0_radial_862_12588" cx="0" cy="0" r="1" gradientUnits="userSpaceOnUse" gradientTransform="translate(242 -4.53898e-06) rotate(90) scale(482)">
<stop stop-color="#FFDE43"/>
<stop offset="1" stop-color="#FFBC00"/>
</radialGradient>
<radialGradient id="paint1_radial_862_12588" cx="0" cy="0" r="1" gradientUnits="userSpaceOnUse" gradientTransform="translate(242 64.5) rotate(90) scale(417.5)">
<stop stop-color="white" stop-opacity="0.5"/>
<stop offset="0.782278"/>
</radialGradient>
<radialGradient id="paint2_radial_862_12588" cx="0" cy="0" r="1" gradientUnits="userSpaceOnUse" gradientTransform="translate(242 64.5) rotate(90) scale(417.5)">
<stop stop-color="white" stop-opacity="0.5"/>
<stop offset="0.782278"/>
</radialGradient>
<radialGradient id="paint3_radial_862_12588" cx="0" cy="0" r="1" gradientUnits="userSpaceOnUse" gradientTransform="translate(242 -52.5) rotate(90) scale(534.5 722.835)">
<stop offset="0.0922635" stop-color="white"/>
<stop offset="0.670207" stop-color="white" stop-opacity="0"/>
</radialGradient>
<radialGradient id="paint4_radial_862_12588" cx="0" cy="0" r="1" gradientUnits="userSpaceOnUse" gradientTransform="translate(241.1 398.753) scale(37.6053 85.8446)">
<stop stop-color="#743C1C"/>
<stop offset="1" stop-color="#401C02"/>
</radialGradient>
<linearGradient id="paint5_linear_862_12588" x1="241.095" y1="447.135" x2="241.095" y2="298.489" gradientUnits="userSpaceOnUse">
<stop offset="0.265625" stop-color="#FFDE43"/>
<stop offset="1" stop-color="#F79D14"/>
</linearGradient>
<linearGradient id="paint6_linear_862_12588" x1="191.242" y1="334.381" x2="290.92" y2="334.381" gradientUnits="userSpaceOnUse">
<stop stop-color="#CCCCCC"/>
<stop offset="0.05" stop-color="#D5D5D5"/>
<stop offset="0.2" stop-color="#E9E9E9"/>
<stop offset="0.35" stop-color="#F6F6F6"/>
<stop offset="0.5" stop-color="#FAFAFA"/>
<stop offset="0.65" stop-color="#F6F6F6"/>
<stop offset="0.8" stop-color="#E9E9E9"/>
<stop offset="0.95" stop-color="#D5D5D5"/>
<stop offset="1" stop-color="#CCCCCC"/>
</linearGradient>
<linearGradient id="paint7_linear_862_12588" x1="241.1" y1="443.43" x2="241.1" y2="302.75" gradientUnits="userSpaceOnUse">
<stop stop-color="#401C02"/>
<stop offset="1" stop-color="#401C02"/>
</linearGradient>
<linearGradient id="paint8_linear_862_12588" x1="241.1" y1="443.43" x2="241.1" y2="302.75" gradientUnits="userSpaceOnUse">
<stop stop-color="#401C02"/>
<stop offset="1" stop-color="#401C02"/>
</linearGradient>
<linearGradient id="paint9_linear_862_12588" x1="241.1" y1="443.43" x2="241.1" y2="302.75" gradientUnits="userSpaceOnUse">
<stop stop-color="#401C02"/>
<stop offset="1" stop-color="#401C02"/>
</linearGradient>
<radialGradient id="paint10_radial_862_12588" cx="0" cy="0" r="1" gradientUnits="userSpaceOnUse" gradientTransform="translate(242.001 448.655) scale(116.64 46.4178)">
<stop offset="0.119792" stop-color="#FF6FAF"/>
<stop offset="0.567708" stop-color="#B94276"/>
<stop offset="0.817708" stop-color="#9E285C"/>
</radialGradient>
<linearGradient id="paint11_linear_862_12588" x1="240.83" y1="443.43" x2="240.83" y2="302.75" gradientUnits="userSpaceOnUse">
<stop/>
<stop offset="0.40625" stop-color="#401C02" stop-opacity="0"/>
</linearGradient>
<linearGradient id="paint12_linear_862_12588" x1="59.9411" y1="210.929" x2="213.8" y2="210.929" gradientUnits="userSpaceOnUse">
<stop stop-color="#CCCCCC"/>
<stop offset="0.05" stop-color="#D5D5D5"/>
<stop offset="0.2" stop-color="#E9E9E9"/>
<stop offset="0.35" stop-color="#F6F6F6"/>
<stop offset="0.5" stop-color="#FAFAFA"/>
<stop offset="0.65" stop-color="#F6F6F6"/>
<stop offset="0.8" stop-color="#E9E9E9"/>
<stop offset="0.95" stop-color="#D5D5D5"/>
<stop offset="1" stop-color="#CCCCCC"/>
</linearGradient>
<linearGradient id="paint13_linear_862_12588" x1="136.9" y1="292.128" x2="136.9" y2="129.051" gradientUnits="userSpaceOnUse">
<stop stop-color="#FFDE43"/>
<stop offset="0.22" stop-color="#FED93F"/>
<stop offset="0.51" stop-color="#FCC934"/>
<stop offset="0.82" stop-color="#F9AF21"/>
<stop offset="1" stop-color="#F79D14"/>
</linearGradient>
<linearGradient id="paint14_linear_862_12588" x1="422.059" y1="210.929" x2="268.2" y2="210.929" gradientUnits="userSpaceOnUse">
<stop stop-color="#CCCCCC"/>
<stop offset="0.05" stop-color="#D5D5D5"/>
<stop offset="0.2" stop-color="#E9E9E9"/>
<stop offset="0.35" stop-color="#F6F6F6"/>
<stop offset="0.5" stop-color="#FAFAFA"/>
<stop offset="0.65" stop-color="#F6F6F6"/>
<stop offset="0.8" stop-color="#E9E9E9"/>
<stop offset="0.95" stop-color="#D5D5D5"/>
<stop offset="1" stop-color="#CCCCCC"/>
</linearGradient>
<linearGradient id="paint15_linear_862_12588" x1="345.1" y1="292.128" x2="345.1" y2="129.051" gradientUnits="userSpaceOnUse">
<stop stop-color="#FFDE43"/>
<stop offset="0.22" stop-color="#FED93F"/>
<stop offset="0.51" stop-color="#FCC934"/>
<stop offset="0.82" stop-color="#F9AF21"/>
<stop offset="1" stop-color="#F79D14"/>
</linearGradient>
</defs>
</svg>
