<svg width="483" height="483" viewBox="0 0 483 483" fill="none" xmlns="http://www.w3.org/2000/svg">
<path d="M241.18 482.36C374.38 482.36 482.36 374.38 482.36 241.18C482.36 107.98 374.38 0 241.18 0C107.98 0 0 107.98 0 241.18C0 374.38 107.98 482.36 241.18 482.36Z" fill="url(#paint0_radial_862_12457)"/>
<g style="mix-blend-mode:soft-light">
<path d="M241.18 482.36C374.38 482.36 482.36 374.38 482.36 241.18C482.36 107.98 374.38 0 241.18 0C107.98 0 0 107.98 0 241.18C0 374.38 107.98 482.36 241.18 482.36Z" fill="url(#paint1_radial_862_12457)"/>
</g>
<g style="mix-blend-mode:soft-light">
<path d="M241.18 482.36C374.38 482.36 482.36 374.38 482.36 241.18C482.36 107.98 374.38 0 241.18 0C107.98 0 0 107.98 0 241.18C0 374.38 107.98 482.36 241.18 482.36Z" fill="url(#paint2_radial_862_12457)"/>
</g>
<g style="mix-blend-mode:overlay">
<path d="M241.18 482.36C374.38 482.36 482.36 374.38 482.36 241.18C482.36 107.98 374.38 0 241.18 0C107.98 0 0 107.98 0 241.18C0 374.38 107.98 482.36 241.18 482.36Z" fill="url(#paint3_radial_862_12457)" fill-opacity="0.7"/>
</g>
<mask id="mask0_862_12457" style="mask-type:alpha" maskUnits="userSpaceOnUse" x="0" y="0" width="483" height="483">
<path d="M241.18 482.36C374.38 482.36 482.36 374.38 482.36 241.18C482.36 107.98 374.38 0 241.18 0C107.98 0 0 107.98 0 241.18C0 374.38 107.98 482.36 241.18 482.36Z" fill="white"/>
</mask>
<g mask="url(#mask0_862_12457)">
<g filter="url(#filter0_f_862_12457)">
<path d="M-1.3759 234.299C-1.11402 230.872 0.0137008 230.529 0.342619 234.008C0.708055 237.874 -0.00231624 245.646 0.16871 250.335C0.621554 262.748 2.52441 273.541 4.48605 282.32C10.8075 310.612 19.5617 328.843 27.7268 344.288C54.5663 395.06 83.9667 420.77 112.648 440.147C154.689 468.549 197.072 477.584 239.49 479.5C240.56 479.548 240.738 486.518 239.686 487.425C237.788 489.061 235.436 487.437 233.494 487.369C227.915 487.174 222.335 486.791 216.756 486.211C200.213 484.492 183.67 480.991 167.162 475.358C122.275 460.044 73.8765 433.821 31.6092 359.962C28.9502 355.316 26.3124 350.424 23.7118 345.167C21.6321 340.963 19.5726 336.556 17.5493 331.843C10.8946 316.342 -4.61323 276.658 -1.3759 234.299ZM239.52 487.5C238.499 487.531 238.241 481.034 239.214 479.685C240.684 477.647 242.888 479.326 244.439 479.229C250.877 478.826 257.314 478.229 263.75 477.421C281.395 475.205 299.028 471.422 316.621 465.596C360.257 451.145 407.17 429.115 448.305 361.431C450.923 357.123 453.518 352.553 456.079 347.641C463.86 332.712 483.361 293.084 481.107 243.821C480.917 239.668 482.181 237.181 482.747 240.743C483.467 245.279 483.175 254.736 482.977 259.768C482.341 275.883 479.866 289.512 477.257 300.518C468.987 335.399 457.376 355.623 446.744 372.51C412.184 427.397 374.648 449.524 338.155 465.424C305.424 479.686 272.444 486.484 239.52 487.5Z" fill="#401C02"/>
</g>
<g filter="url(#filter1_f_862_12457)">
<path d="M-1.3759 234.299C-1.11402 230.872 0.0137008 230.529 0.342619 234.008C0.708055 237.874 -0.00231624 245.646 0.16871 250.335C0.621554 262.748 2.52441 273.541 4.48605 282.32C10.8075 310.612 19.5617 328.843 27.7268 344.288C54.5663 395.06 83.9667 420.77 112.648 440.147C154.689 468.549 197.072 477.584 239.49 479.5C240.56 479.548 240.738 486.518 239.686 487.425C237.788 489.061 235.436 487.437 233.494 487.369C227.915 487.174 222.335 486.791 216.756 486.211C200.213 484.492 183.67 480.991 167.162 475.358C122.275 460.044 73.8765 433.821 31.6092 359.962C28.9502 355.316 26.3124 350.424 23.7118 345.167C21.6321 340.963 19.5726 336.556 17.5493 331.843C10.8946 316.342 -4.61323 276.658 -1.3759 234.299ZM239.52 487.5C238.499 487.531 238.241 481.034 239.214 479.685C240.684 477.647 242.888 479.326 244.439 479.229C250.877 478.826 257.314 478.229 263.75 477.421C281.395 475.205 299.028 471.422 316.621 465.596C360.257 451.145 407.17 429.115 448.305 361.431C450.923 357.123 453.518 352.553 456.079 347.641C463.86 332.712 483.361 293.084 481.107 243.821C480.917 239.668 482.181 237.181 482.747 240.743C483.467 245.279 483.175 254.736 482.977 259.768C482.341 275.883 479.866 289.512 477.257 300.518C468.987 335.399 457.376 355.623 446.744 372.51C412.184 427.397 374.648 449.524 338.155 465.424C305.424 479.686 272.444 486.484 239.52 487.5Z" fill="#401C02"/>
</g>
</g>
<path d="M206.547 237.26C207.458 238.178 208.073 239.348 208.312 240.619C208.551 241.89 208.403 243.204 207.887 244.39C196.037 271.62 168.267 290.73 135.887 290.73C103.507 290.73 75.7667 271.62 63.8867 244.4C63.3783 243.205 63.2419 241.885 63.4952 240.611C63.7485 239.337 64.3798 238.17 65.3067 237.26C66.4882 236.097 68.0728 235.434 69.7306 235.41C71.3884 235.386 72.9917 236.002 74.2067 237.13C88.9867 250.49 111.147 258.98 135.927 258.98C160.707 258.98 182.927 250.49 197.667 237.12C198.881 235.987 200.487 235.367 202.148 235.391C203.809 235.416 205.396 236.082 206.577 237.25L206.547 237.26Z" fill="url(#paint4_radial_862_12457)"/>
<path d="M417.486 237.26C418.4 238.176 419.017 239.347 419.256 240.618C419.495 241.89 419.345 243.204 418.826 244.39C406.986 271.62 379.206 290.73 346.826 290.73C314.446 290.73 286.696 271.62 274.826 244.4C274.307 243.212 274.157 241.895 274.398 240.621C274.639 239.347 275.259 238.176 276.176 237.26C277.358 236.097 278.943 235.434 280.6 235.41C282.258 235.386 283.861 236.002 285.076 237.13C299.846 250.49 322.006 258.98 346.796 258.98C371.586 258.98 393.796 250.49 408.526 237.12C409.741 235.987 411.347 235.367 413.008 235.391C414.669 235.416 416.256 236.082 417.436 237.25L417.486 237.26Z" fill="url(#paint5_radial_862_12457)"/>
<path d="M206.547 237.26C207.458 238.178 208.073 239.348 208.312 240.619C208.551 241.89 208.403 243.204 207.887 244.39C196.037 271.62 168.267 290.73 135.887 290.73C103.507 290.73 75.7667 271.62 63.8867 244.4C63.3783 243.205 63.2419 241.885 63.4952 240.611C63.7485 239.337 64.3798 238.17 65.3067 237.26V237.26C66.4882 236.097 68.0728 235.434 69.7306 235.41C71.3884 235.386 72.9917 236.002 74.2067 237.13C88.9867 250.49 111.147 258.98 135.927 258.98C160.707 258.98 182.927 250.49 197.667 237.12C198.881 235.987 200.487 235.367 202.148 235.391C203.809 235.416 205.396 236.082 206.577 237.25L206.547 237.26Z" stroke="url(#paint6_linear_862_12457)" stroke-width="1.98" stroke-miterlimit="10"/>
<path d="M417.486 237.26C418.4 238.176 419.017 239.347 419.256 240.618C419.495 241.89 419.345 243.204 418.826 244.39C406.986 271.62 379.206 290.73 346.826 290.73C314.446 290.73 286.696 271.62 274.826 244.4C274.307 243.212 274.157 241.895 274.398 240.621C274.639 239.347 275.259 238.176 276.176 237.26V237.26C277.358 236.097 278.943 235.434 280.6 235.41C282.258 235.386 283.861 236.002 285.076 237.13C299.846 250.49 322.006 258.98 346.796 258.98C371.586 258.98 393.796 250.49 408.526 237.12C409.741 235.987 411.347 235.367 413.008 235.391C414.669 235.416 416.256 236.082 417.436 237.25L417.486 237.26Z" stroke="url(#paint7_linear_862_12457)" stroke-width="1.98" stroke-miterlimit="10"/>
<path d="M352.657 136.48C356.657 144.73 382.527 193.65 429.097 186.17C430.555 185.965 431.9 185.269 432.909 184.196C433.919 183.123 434.531 181.738 434.647 180.27C434.737 178.45 434.027 176.52 431.457 175.16C420.307 169.28 393.937 172.43 367.307 140.81C365.022 138.03 362.879 135.137 360.887 132.14C359.427 130 356.887 127.14 354.207 128.03C351.917 128.83 351.517 131.03 351.617 132.77C351.711 134.064 352.065 135.326 352.657 136.48Z" fill="#42210B"/>
<path d="M130.157 136.63C126.157 144.86 100.077 193.69 53.5368 186.04C52.0788 185.83 50.7361 185.129 49.7306 184.053C48.7251 182.976 48.117 181.589 48.0068 180.12C47.952 179.043 48.2308 177.975 48.8053 177.063C49.3798 176.15 50.2219 175.437 51.2168 175.02C62.3768 169.18 88.7468 172.43 115.477 140.86C117.768 138.084 119.918 135.194 121.917 132.2C123.387 130.07 125.917 127.2 128.617 128.13C130.907 128.93 131.297 131.13 131.197 132.88C131.102 134.187 130.749 135.462 130.157 136.63Z" fill="#42210B"/>
<path d="M274.5 364.27H207.54C201.167 364.27 196 369.434 196 375.805C196 382.176 201.167 387.34 207.54 387.34H274.5C280.873 387.34 286.04 382.176 286.04 375.805C286.04 369.434 280.873 364.27 274.5 364.27Z" fill="url(#paint8_radial_862_12457)"/>
<path d="M274.5 364.27H207.54C201.167 364.27 196 369.434 196 375.805C196 382.176 201.167 387.34 207.54 387.34H274.5C280.873 387.34 286.04 382.176 286.04 375.805C286.04 369.434 280.873 364.27 274.5 364.27Z" stroke="url(#paint9_linear_862_12457)" stroke-width="1.77" stroke-miterlimit="10"/>
<defs>
<filter id="filter0_f_862_12457" x="-26.8149" y="206.558" width="535.022" height="306.595" filterUnits="userSpaceOnUse" color-interpolation-filters="sRGB">
<feFlood flood-opacity="0" result="BackgroundImageFix"/>
<feBlend mode="normal" in="SourceGraphic" in2="BackgroundImageFix" result="shape"/>
<feGaussianBlur stdDeviation="12.5" result="effect1_foregroundBlur_862_12457"/>
</filter>
<filter id="filter1_f_862_12457" x="-41.8149" y="191.558" width="565.022" height="336.595" filterUnits="userSpaceOnUse" color-interpolation-filters="sRGB">
<feFlood flood-opacity="0" result="BackgroundImageFix"/>
<feBlend mode="normal" in="SourceGraphic" in2="BackgroundImageFix" result="shape"/>
<feGaussianBlur stdDeviation="20" result="effect1_foregroundBlur_862_12457"/>
</filter>
<radialGradient id="paint0_radial_862_12457" cx="0" cy="0" r="1" gradientUnits="userSpaceOnUse" gradientTransform="translate(241 -4.53898e-06) rotate(90) scale(482)">
<stop stop-color="#FFDE43"/>
<stop offset="1" stop-color="#FFBC00"/>
</radialGradient>
<radialGradient id="paint1_radial_862_12457" cx="0" cy="0" r="1" gradientUnits="userSpaceOnUse" gradientTransform="translate(241 64.5) rotate(90) scale(417.5)">
<stop stop-color="white" stop-opacity="0.5"/>
<stop offset="0.782278"/>
</radialGradient>
<radialGradient id="paint2_radial_862_12457" cx="0" cy="0" r="1" gradientUnits="userSpaceOnUse" gradientTransform="translate(241 64.5) rotate(90) scale(417.5)">
<stop stop-color="white" stop-opacity="0.5"/>
<stop offset="0.782278"/>
</radialGradient>
<radialGradient id="paint3_radial_862_12457" cx="0" cy="0" r="1" gradientUnits="userSpaceOnUse" gradientTransform="translate(241 -52.5) rotate(90) scale(534.5 722.835)">
<stop offset="0.0922635" stop-color="white"/>
<stop offset="0.670207" stop-color="white" stop-opacity="0"/>
</radialGradient>
<radialGradient id="paint4_radial_862_12457" cx="0" cy="0" r="1" gradientUnits="userSpaceOnUse" gradientTransform="translate(135.797 263.042) scale(92.4531 27.7177)">
<stop stop-color="#743C1C"/>
<stop offset="1" stop-color="#401C02"/>
</radialGradient>
<radialGradient id="paint5_radial_862_12457" cx="0" cy="0" r="1" gradientUnits="userSpaceOnUse" gradientTransform="translate(346.726 263.042) scale(92.4713 27.7177)">
<stop stop-color="#743C1C"/>
<stop offset="1" stop-color="#401C02"/>
</radialGradient>
<linearGradient id="paint6_linear_862_12457" x1="135.897" y1="292.287" x2="135.897" y2="233.61" gradientUnits="userSpaceOnUse">
<stop stop-color="#FFDE43"/>
<stop offset="0.22" stop-color="#FED93F"/>
<stop offset="0.51" stop-color="#FCC934"/>
<stop offset="0.82" stop-color="#F9AF21"/>
<stop offset="1" stop-color="#F79D14"/>
</linearGradient>
<linearGradient id="paint7_linear_862_12457" x1="50115.3" y1="16389.5" x2="50115.3" y2="13218" gradientUnits="userSpaceOnUse">
<stop stop-color="#FFDE43"/>
<stop offset="0.22" stop-color="#FED93F"/>
<stop offset="0.51" stop-color="#FCC934"/>
<stop offset="0.82" stop-color="#F9AF21"/>
<stop offset="1" stop-color="#F79D14"/>
</linearGradient>
<radialGradient id="paint8_radial_862_12457" cx="0" cy="0" r="1" gradientUnits="userSpaceOnUse" gradientTransform="translate(241.02 375.758) scale(33.9822 23.302)">
<stop stop-color="#743C1C"/>
<stop offset="1" stop-color="#401C02"/>
</radialGradient>
<linearGradient id="paint9_linear_862_12457" x1="241.02" y1="387.989" x2="241.02" y2="363.528" gradientUnits="userSpaceOnUse">
<stop offset="0.265625" stop-color="#FFDE43"/>
<stop offset="1" stop-color="#F79D14"/>
</linearGradient>
</defs>
</svg>
