<svg width="484" height="483" viewBox="0 0 484 483" fill="none" xmlns="http://www.w3.org/2000/svg">
<path d="M241.18 482.36C374.38 482.36 482.36 374.38 482.36 241.18C482.36 107.98 374.38 0 241.18 0C107.98 0 0 107.98 0 241.18C0 374.38 107.98 482.36 241.18 482.36Z" fill="url(#paint0_radial_862_12460)"/>
<g style="mix-blend-mode:soft-light">
<path d="M241.18 482.36C374.38 482.36 482.36 374.38 482.36 241.18C482.36 107.98 374.38 0 241.18 0C107.98 0 0 107.98 0 241.18C0 374.38 107.98 482.36 241.18 482.36Z" fill="url(#paint1_radial_862_12460)"/>
</g>
<g style="mix-blend-mode:soft-light">
<path d="M241.18 482.36C374.38 482.36 482.36 374.38 482.36 241.18C482.36 107.98 374.38 0 241.18 0C107.98 0 0 107.98 0 241.18C0 374.38 107.98 482.36 241.18 482.36Z" fill="url(#paint2_radial_862_12460)"/>
</g>
<g style="mix-blend-mode:overlay">
<path d="M241.18 482.36C374.38 482.36 482.36 374.38 482.36 241.18C482.36 107.98 374.38 0 241.18 0C107.98 0 0 107.98 0 241.18C0 374.38 107.98 482.36 241.18 482.36Z" fill="url(#paint3_radial_862_12460)" fill-opacity="0.7"/>
</g>
<mask id="mask0_862_12460" style="mask-type:alpha" maskUnits="userSpaceOnUse" x="0" y="0" width="483" height="483">
<path d="M241.18 482.36C374.38 482.36 482.36 374.38 482.36 241.18C482.36 107.98 374.38 0 241.18 0C107.98 0 0 107.98 0 241.18C0 374.38 107.98 482.36 241.18 482.36Z" fill="white"/>
</mask>
<g mask="url(#mask0_862_12460)">
<g filter="url(#filter0_f_862_12460)">
<path d="M-1.3759 234.299C-1.11402 230.872 0.0137008 230.529 0.342619 234.008C0.708055 237.874 -0.00231624 245.646 0.16871 250.335C0.621554 262.748 2.52441 273.541 4.48605 282.32C10.8075 310.612 19.5617 328.843 27.7268 344.288C54.5663 395.06 83.9667 420.77 112.648 440.147C154.689 468.549 197.072 477.584 239.49 479.5C240.56 479.548 240.738 486.518 239.686 487.425C237.788 489.061 235.436 487.437 233.494 487.369C227.915 487.174 222.335 486.791 216.756 486.211C200.213 484.492 183.67 480.991 167.162 475.358C122.275 460.044 73.8765 433.821 31.6092 359.962C28.9502 355.316 26.3124 350.424 23.7118 345.167C21.6321 340.963 19.5726 336.556 17.5493 331.843C10.8946 316.342 -4.61323 276.658 -1.3759 234.299ZM239.52 487.5C238.499 487.531 238.241 481.034 239.214 479.685C240.684 477.647 242.888 479.326 244.439 479.229C250.877 478.826 257.314 478.229 263.75 477.421C281.395 475.205 299.028 471.422 316.621 465.596C360.257 451.145 407.17 429.115 448.305 361.431C450.923 357.123 453.518 352.553 456.079 347.641C463.86 332.712 483.361 293.084 481.107 243.821C480.917 239.668 482.181 237.181 482.747 240.743C483.467 245.279 483.175 254.736 482.977 259.768C482.341 275.883 479.866 289.512 477.257 300.518C468.987 335.399 457.376 355.623 446.744 372.51C412.184 427.397 374.648 449.524 338.155 465.424C305.424 479.686 272.444 486.484 239.52 487.5Z" fill="#401C02"/>
</g>
<g filter="url(#filter1_f_862_12460)">
<path d="M-1.3759 234.299C-1.11402 230.872 0.0137008 230.529 0.342619 234.008C0.708055 237.874 -0.00231624 245.646 0.16871 250.335C0.621554 262.748 2.52441 273.541 4.48605 282.32C10.8075 310.612 19.5617 328.843 27.7268 344.288C54.5663 395.06 83.9667 420.77 112.648 440.147C154.689 468.549 197.072 477.584 239.49 479.5C240.56 479.548 240.738 486.518 239.686 487.425C237.788 489.061 235.436 487.437 233.494 487.369C227.915 487.174 222.335 486.791 216.756 486.211C200.213 484.492 183.67 480.991 167.162 475.358C122.275 460.044 73.8765 433.821 31.6092 359.962C28.9502 355.316 26.3124 350.424 23.7118 345.167C21.6321 340.963 19.5726 336.556 17.5493 331.843C10.8946 316.342 -4.61323 276.658 -1.3759 234.299ZM239.52 487.5C238.499 487.531 238.241 481.034 239.214 479.685C240.684 477.647 242.888 479.326 244.439 479.229C250.877 478.826 257.314 478.229 263.75 477.421C281.395 475.205 299.028 471.422 316.621 465.596C360.257 451.145 407.17 429.115 448.305 361.431C450.923 357.123 453.518 352.553 456.079 347.641C463.86 332.712 483.361 293.084 481.107 243.821C480.917 239.668 482.181 237.181 482.747 240.743C483.467 245.279 483.175 254.736 482.977 259.768C482.341 275.883 479.866 289.512 477.257 300.518C468.987 335.399 457.376 355.623 446.744 372.51C412.184 427.397 374.648 449.524 338.155 465.424C305.424 479.686 272.444 486.484 239.52 487.5Z" fill="#401C02"/>
</g>
</g>
<path d="M152.711 295C193.304 295 226.211 261.869 226.211 221C226.211 180.131 193.304 147 152.711 147C112.118 147 79.2109 180.131 79.2109 221C79.2109 261.869 112.118 295 152.711 295Z" stroke="url(#paint4_linear_862_12460)" stroke-width="5"/>
<path d="M152.711 295C193.304 295 226.211 261.869 226.211 221C226.211 180.131 193.304 147 152.711 147C112.118 147 79.2109 180.131 79.2109 221C79.2109 261.869 112.118 295 152.711 295Z" fill="white"/>
<mask id="mask1_862_12460" style="mask-type:alpha" maskUnits="userSpaceOnUse" x="79" y="147" width="148" height="148">
<path d="M152.711 295C193.304 295 226.211 261.869 226.211 221C226.211 180.131 193.304 147 152.711 147C112.118 147 79.2109 180.131 79.2109 221C79.2109 261.869 112.118 295 152.711 295Z" fill="white"/>
</mask>
<g mask="url(#mask1_862_12460)">
<g filter="url(#filter2_f_862_12460)">
<path d="M225.211 221C225.211 261.323 192.745 294 152.711 294C112.677 294 80.2109 261.323 80.2109 221C80.2109 180.677 112.677 148 152.711 148C192.745 148 225.211 180.677 225.211 221Z" stroke="#743C1C" stroke-width="2"/>
</g>
</g>
<path d="M152.661 280.85C189.542 280.85 219.441 250.952 219.441 214.07C219.441 177.188 189.542 147.29 152.661 147.29C115.779 147.29 85.8809 177.188 85.8809 214.07C85.8809 250.952 115.779 280.85 152.661 280.85Z" fill="black"/>
<path d="M152.661 280.85C189.542 280.85 219.441 250.952 219.441 214.07C219.441 177.188 189.542 147.29 152.661 147.29C115.779 147.29 85.8809 177.188 85.8809 214.07C85.8809 250.952 115.779 280.85 152.661 280.85Z" fill="url(#paint5_linear_862_12460)"/>
<path d="M152.661 280.85C189.542 280.85 219.441 250.952 219.441 214.07C219.441 177.188 189.542 147.29 152.661 147.29C115.779 147.29 85.8809 177.188 85.8809 214.07C85.8809 250.952 115.779 280.85 152.661 280.85Z" fill="url(#paint6_linear_862_12460)"/>
<path d="M155.011 225.172C171.996 212.704 177.115 190.813 166.445 176.277C155.775 161.74 133.356 160.063 116.371 172.531C99.3862 184.998 94.2671 206.889 104.937 221.426C115.607 235.962 138.026 237.639 155.011 225.172Z" fill="white"/>
<path d="M175.284 252.796C180.128 249.24 181.384 242.72 178.09 238.232C174.795 233.744 168.198 232.989 163.354 236.544C158.51 240.1 157.254 246.62 160.548 251.108C163.842 255.596 170.44 256.352 175.284 252.796Z" fill="white"/>
<path d="M139.321 91.4899C136.081 100.68 114.641 155.37 64.641 153.06C63.0776 153.02 61.5748 152.447 60.3817 151.435C59.1886 150.424 58.3769 149.036 58.081 147.5C57.771 145.59 58.281 143.5 60.831 141.73C71.831 134.19 100.081 134.35 124.361 97.7299C126.44 94.5241 128.353 91.213 130.091 87.8099C131.371 85.3799 133.721 82.0199 136.651 82.6799C139.161 83.2399 139.841 85.4899 139.951 87.3699C140.023 88.7718 139.809 90.1737 139.321 91.4899Z" fill="#42210B"/>
<path d="M331.5 295C290.907 295 258 261.869 258 221C258 180.131 290.907 147 331.5 147C372.093 147 405 180.131 405 221C405 261.869 372.093 295 331.5 295Z" stroke="url(#paint7_linear_862_12460)" stroke-width="5"/>
<path d="M331.5 295C290.907 295 258 261.869 258 221C258 180.131 290.907 147 331.5 147C372.093 147 405 180.131 405 221C405 261.869 372.093 295 331.5 295Z" fill="white"/>
<mask id="mask2_862_12460" style="mask-type:alpha" maskUnits="userSpaceOnUse" x="258" y="147" width="147" height="148">
<path d="M331.5 295C290.907 295 258 261.869 258 221C258 180.131 290.907 147 331.5 147C372.093 147 405 180.131 405 221C405 261.869 372.093 295 331.5 295Z" fill="white"/>
</mask>
<g mask="url(#mask2_862_12460)">
<g filter="url(#filter3_f_862_12460)">
<path d="M259 221C259 261.323 291.466 294 331.5 294C371.534 294 404 261.323 404 221C404 180.677 371.534 148 331.5 148C291.466 148 259 180.677 259 221Z" stroke="#743C1C" stroke-width="2"/>
</g>
</g>
<path d="M331.55 280.85C294.668 280.85 264.77 250.952 264.77 214.07C264.77 177.188 294.668 147.29 331.55 147.29C368.432 147.29 398.33 177.188 398.33 214.07C398.33 250.952 368.432 280.85 331.55 280.85Z" fill="black"/>
<path d="M331.55 280.85C294.668 280.85 264.77 250.952 264.77 214.07C264.77 177.188 294.668 147.29 331.55 147.29C368.432 147.29 398.33 177.188 398.33 214.07C398.33 250.952 368.432 280.85 331.55 280.85Z" fill="url(#paint8_linear_862_12460)"/>
<path d="M331.55 280.85C294.668 280.85 264.77 250.952 264.77 214.07C264.77 177.188 294.668 147.29 331.55 147.29C368.432 147.29 398.33 177.188 398.33 214.07C398.33 250.952 368.432 280.85 331.55 280.85Z" fill="url(#paint9_linear_862_12460)"/>
<path d="M333.84 225.172C350.825 212.704 355.944 190.813 345.274 176.277C334.604 161.74 312.185 160.063 295.2 172.531C278.215 184.998 273.096 206.889 283.766 221.426C294.436 235.962 316.855 237.639 333.84 225.172Z" fill="white"/>
<path d="M354.112 252.796C358.956 249.24 360.212 242.72 356.918 238.232C353.624 233.744 347.027 232.989 342.183 236.544C337.339 240.1 336.083 246.62 339.377 251.108C342.671 255.596 349.268 256.352 354.112 252.796Z" fill="white"/>
<path d="M344.89 91.4899C348.13 100.68 369.57 155.37 419.57 153.06C421.133 153.02 422.636 152.447 423.829 151.435C425.022 150.424 425.834 149.036 426.13 147.5C426.44 145.59 425.93 143.5 423.38 141.73C412.38 134.19 384.13 134.35 359.85 97.7299C357.77 94.5241 355.858 91.213 354.12 87.8099C352.84 85.3799 350.49 82.0199 347.56 82.6799C345.05 83.2399 344.37 85.4899 344.26 87.3699C344.188 88.7718 344.402 90.1737 344.89 91.4899Z" fill="#42210B"/>
<path d="M280.74 375.58V375.79C280.734 377.49 280.307 379.161 279.496 380.655C278.685 382.149 277.516 383.418 276.093 384.349C274.671 385.28 273.04 385.843 271.346 385.988C269.653 386.133 267.95 385.855 266.39 385.18C250.7 378.697 233.08 378.697 217.39 385.18C215.828 385.864 214.121 386.148 212.422 386.007C210.723 385.867 209.085 385.305 207.658 384.373C206.23 383.442 205.056 382.169 204.243 380.671C203.43 379.172 203.003 377.495 203 375.79V375.63C202.998 373.94 203.414 372.276 204.211 370.785C205.009 369.295 206.163 368.026 207.57 367.09C217.794 360.5 229.701 356.995 241.865 356.995C254.029 356.995 265.936 360.5 276.16 367.09C277.561 368.021 278.711 369.283 279.51 370.763C280.309 372.244 280.731 373.898 280.74 375.58Z" fill="url(#paint10_radial_862_12460)"/>
<path d="M280.74 375.58V375.79C280.734 377.49 280.307 379.161 279.496 380.655C278.685 382.149 277.516 383.418 276.093 384.349C274.671 385.28 273.04 385.843 271.346 385.988C269.653 386.133 267.95 385.855 266.39 385.18C250.7 378.697 233.08 378.697 217.39 385.18C215.828 385.864 214.121 386.148 212.422 386.007C210.723 385.867 209.085 385.305 207.658 384.373C206.23 383.442 205.056 382.169 204.243 380.671C203.43 379.172 203.003 377.495 203 375.79V375.63C202.998 373.94 203.414 372.276 204.211 370.785C205.009 369.295 206.163 368.026 207.57 367.09C217.794 360.5 229.701 356.995 241.865 356.995C254.029 356.995 265.936 360.5 276.16 367.09C277.561 368.021 278.711 369.283 279.51 370.763C280.309 372.244 280.731 373.898 280.74 375.58V375.58Z" stroke="url(#paint11_linear_862_12460)" stroke-width="1.77" stroke-miterlimit="10"/>
<defs>
<filter id="filter0_f_862_12460" x="-26.8149" y="206.558" width="535.022" height="306.595" filterUnits="userSpaceOnUse" color-interpolation-filters="sRGB">
<feFlood flood-opacity="0" result="BackgroundImageFix"/>
<feBlend mode="normal" in="SourceGraphic" in2="BackgroundImageFix" result="shape"/>
<feGaussianBlur stdDeviation="12.5" result="effect1_foregroundBlur_862_12460"/>
</filter>
<filter id="filter1_f_862_12460" x="-41.8149" y="191.558" width="565.022" height="336.595" filterUnits="userSpaceOnUse" color-interpolation-filters="sRGB">
<feFlood flood-opacity="0" result="BackgroundImageFix"/>
<feBlend mode="normal" in="SourceGraphic" in2="BackgroundImageFix" result="shape"/>
<feGaussianBlur stdDeviation="20" result="effect1_foregroundBlur_862_12460"/>
</filter>
<filter id="filter2_f_862_12460" x="73.2109" y="141" width="159" height="160" filterUnits="userSpaceOnUse" color-interpolation-filters="sRGB">
<feFlood flood-opacity="0" result="BackgroundImageFix"/>
<feBlend mode="normal" in="SourceGraphic" in2="BackgroundImageFix" result="shape"/>
<feGaussianBlur stdDeviation="3" result="effect1_foregroundBlur_862_12460"/>
</filter>
<filter id="filter3_f_862_12460" x="252" y="141" width="159" height="160" filterUnits="userSpaceOnUse" color-interpolation-filters="sRGB">
<feFlood flood-opacity="0" result="BackgroundImageFix"/>
<feBlend mode="normal" in="SourceGraphic" in2="BackgroundImageFix" result="shape"/>
<feGaussianBlur stdDeviation="3" result="effect1_foregroundBlur_862_12460"/>
</filter>
<radialGradient id="paint0_radial_862_12460" cx="0" cy="0" r="1" gradientUnits="userSpaceOnUse" gradientTransform="translate(241 -4.53898e-06) rotate(90) scale(482)">
<stop stop-color="#FFDE43"/>
<stop offset="1" stop-color="#FFBC00"/>
</radialGradient>
<radialGradient id="paint1_radial_862_12460" cx="0" cy="0" r="1" gradientUnits="userSpaceOnUse" gradientTransform="translate(241 64.5) rotate(90) scale(417.5)">
<stop stop-color="white" stop-opacity="0.5"/>
<stop offset="0.782278"/>
</radialGradient>
<radialGradient id="paint2_radial_862_12460" cx="0" cy="0" r="1" gradientUnits="userSpaceOnUse" gradientTransform="translate(241 64.5) rotate(90) scale(417.5)">
<stop stop-color="white" stop-opacity="0.5"/>
<stop offset="0.782278"/>
</radialGradient>
<radialGradient id="paint3_radial_862_12460" cx="0" cy="0" r="1" gradientUnits="userSpaceOnUse" gradientTransform="translate(241 -52.5) rotate(90) scale(534.5 722.835)">
<stop offset="0.0922635" stop-color="white"/>
<stop offset="0.670207" stop-color="white" stop-opacity="0"/>
</radialGradient>
<linearGradient id="paint4_linear_862_12460" x1="152.711" y1="299.164" x2="152.711" y2="142.238" gradientUnits="userSpaceOnUse">
<stop offset="0.265625" stop-color="#FFDE43"/>
<stop offset="1" stop-color="#F79D14"/>
</linearGradient>
<linearGradient id="paint5_linear_862_12460" x1="152.661" y1="280.85" x2="152.661" y2="147.29" gradientUnits="userSpaceOnUse">
<stop stop-opacity="0"/>
<stop offset="0.21" stop-color="#070707" stop-opacity="0.01"/>
<stop offset="0.39" stop-color="#1B1B1B" stop-opacity="0.05"/>
<stop offset="0.55" stop-color="#3D3D3D" stop-opacity="0.12"/>
<stop offset="0.7" stop-color="#6E6E6E" stop-opacity="0.21"/>
<stop offset="0.85" stop-color="#ACACAC" stop-opacity="0.34"/>
<stop offset="0.99" stop-color="#F7F7F7" stop-opacity="0.49"/>
<stop offset="1" stop-color="white" stop-opacity="0.5"/>
</linearGradient>
<linearGradient id="paint6_linear_862_12460" x1="152.661" y1="280.85" x2="152.661" y2="147.29" gradientUnits="userSpaceOnUse">
<stop stop-opacity="0"/>
<stop offset="0.21" stop-color="#070707" stop-opacity="0.01"/>
<stop offset="0.39" stop-color="#1B1B1B" stop-opacity="0.05"/>
<stop offset="0.55" stop-color="#3D3D3D" stop-opacity="0.12"/>
<stop offset="0.7" stop-color="#6E6E6E" stop-opacity="0.21"/>
<stop offset="0.85" stop-color="#ACACAC" stop-opacity="0.34"/>
<stop offset="0.99" stop-color="#F7F7F7" stop-opacity="0.49"/>
<stop offset="1" stop-color="white" stop-opacity="0.5"/>
</linearGradient>
<linearGradient id="paint7_linear_862_12460" x1="331.5" y1="299.164" x2="331.5" y2="142.238" gradientUnits="userSpaceOnUse">
<stop offset="0.265625" stop-color="#FFDE43"/>
<stop offset="1" stop-color="#F79D14"/>
</linearGradient>
<linearGradient id="paint8_linear_862_12460" x1="331.55" y1="280.85" x2="331.55" y2="147.29" gradientUnits="userSpaceOnUse">
<stop stop-opacity="0"/>
<stop offset="0.21" stop-color="#070707" stop-opacity="0.01"/>
<stop offset="0.39" stop-color="#1B1B1B" stop-opacity="0.05"/>
<stop offset="0.55" stop-color="#3D3D3D" stop-opacity="0.12"/>
<stop offset="0.7" stop-color="#6E6E6E" stop-opacity="0.21"/>
<stop offset="0.85" stop-color="#ACACAC" stop-opacity="0.34"/>
<stop offset="0.99" stop-color="#F7F7F7" stop-opacity="0.49"/>
<stop offset="1" stop-color="white" stop-opacity="0.5"/>
</linearGradient>
<linearGradient id="paint9_linear_862_12460" x1="331.55" y1="280.85" x2="331.55" y2="147.29" gradientUnits="userSpaceOnUse">
<stop stop-opacity="0"/>
<stop offset="0.21" stop-color="#070707" stop-opacity="0.01"/>
<stop offset="0.39" stop-color="#1B1B1B" stop-opacity="0.05"/>
<stop offset="0.55" stop-color="#3D3D3D" stop-opacity="0.12"/>
<stop offset="0.7" stop-color="#6E6E6E" stop-opacity="0.21"/>
<stop offset="0.85" stop-color="#ACACAC" stop-opacity="0.34"/>
<stop offset="0.99" stop-color="#F7F7F7" stop-opacity="0.49"/>
<stop offset="1" stop-color="white" stop-opacity="0.5"/>
</linearGradient>
<radialGradient id="paint10_radial_862_12460" cx="0" cy="0" r="1" gradientUnits="userSpaceOnUse" gradientTransform="translate(241.87 371.46) scale(29.34 29.34)">
<stop stop-color="#743C1C"/>
<stop offset="1" stop-color="#401C02"/>
</radialGradient>
<linearGradient id="paint11_linear_862_12460" x1="241.87" y1="386.86" x2="241.87" y2="356.06" gradientUnits="userSpaceOnUse">
<stop offset="0.265625" stop-color="#FFDE43"/>
<stop offset="1" stop-color="#F79D14"/>
</linearGradient>
</defs>
</svg>
