<svg width="589" height="576" viewBox="0 0 589 576" fill="none" xmlns="http://www.w3.org/2000/svg">
<path d="M320.18 534.36C453.38 534.36 561.36 426.38 561.36 293.18C561.36 159.98 453.38 52 320.18 52C186.98 52 79 159.98 79 293.18C79 426.38 186.98 534.36 320.18 534.36Z" fill="url(#paint0_radial_862_12571)"/>
<g style="mix-blend-mode:soft-light">
<path d="M320.18 534.36C453.38 534.36 561.36 426.38 561.36 293.18C561.36 159.98 453.38 52 320.18 52C186.98 52 79 159.98 79 293.18C79 426.38 186.98 534.36 320.18 534.36Z" fill="url(#paint1_radial_862_12571)"/>
</g>
<g style="mix-blend-mode:soft-light">
<path d="M320.18 534.36C453.38 534.36 561.36 426.38 561.36 293.18C561.36 159.98 453.38 52 320.18 52C186.98 52 79 159.98 79 293.18C79 426.38 186.98 534.36 320.18 534.36Z" fill="url(#paint2_radial_862_12571)"/>
</g>
<g style="mix-blend-mode:overlay">
<path d="M320.18 534.36C453.38 534.36 561.36 426.38 561.36 293.18C561.36 159.98 453.38 52 320.18 52C186.98 52 79 159.98 79 293.18C79 426.38 186.98 534.36 320.18 534.36Z" fill="url(#paint3_radial_862_12571)" fill-opacity="0.7"/>
</g>
<mask id="mask0_862_12571" style="mask-type:alpha" maskUnits="userSpaceOnUse" x="79" y="52" width="483" height="483">
<path d="M320.18 534.36C453.38 534.36 561.36 426.38 561.36 293.18C561.36 159.98 453.38 52 320.18 52C186.98 52 79 159.98 79 293.18C79 426.38 186.98 534.36 320.18 534.36Z" fill="white"/>
</mask>
<g mask="url(#mask0_862_12571)">
<g filter="url(#filter0_f_862_12571)">
<path d="M77.6241 286.299C77.886 282.872 79.0137 282.529 79.3426 286.008C79.7081 289.874 78.9977 297.646 79.1687 302.335C79.6216 314.748 81.5244 325.541 83.486 334.32C89.8075 362.612 98.5617 380.843 106.727 396.288C133.566 447.06 162.967 472.77 191.648 492.147C233.689 520.549 276.072 529.584 318.49 531.5C319.56 531.548 319.738 538.518 318.686 539.425C316.788 541.061 314.436 539.437 312.494 539.369C306.915 539.174 301.335 538.791 295.756 538.211C279.213 536.492 262.67 532.991 246.162 527.358C201.275 512.044 152.877 485.821 110.609 411.962C107.95 407.316 105.312 402.424 102.712 397.167C100.632 392.963 98.5726 388.556 96.5493 383.843C89.8946 368.342 74.3868 328.658 77.6241 286.299ZM318.52 539.5C317.499 539.531 317.241 533.034 318.214 531.685C319.684 529.647 321.888 531.326 323.439 531.229C329.877 530.826 336.314 530.229 342.75 529.421C360.395 527.205 378.028 523.422 395.621 517.596C439.257 503.145 486.17 481.115 527.305 413.431C529.923 409.123 532.518 404.553 535.079 399.641C542.86 384.712 562.361 345.084 560.107 295.821C559.917 291.668 561.181 289.181 561.747 292.743C562.467 297.279 562.175 306.736 561.977 311.768C561.341 327.883 558.866 341.512 556.257 352.518C547.987 387.399 536.376 407.623 525.744 424.51C491.184 479.397 453.648 501.524 417.155 517.424C384.424 531.686 351.444 538.484 318.52 539.5Z" fill="#401C02"/>
</g>
<g filter="url(#filter1_f_862_12571)">
<path d="M77.6241 286.299C77.886 282.872 79.0137 282.529 79.3426 286.008C79.7081 289.874 78.9977 297.646 79.1687 302.335C79.6216 314.748 81.5244 325.541 83.486 334.32C89.8075 362.612 98.5617 380.843 106.727 396.288C133.566 447.06 162.967 472.77 191.648 492.147C233.689 520.549 276.072 529.584 318.49 531.5C319.56 531.548 319.738 538.518 318.686 539.425C316.788 541.061 314.436 539.437 312.494 539.369C306.915 539.174 301.335 538.791 295.756 538.211C279.213 536.492 262.67 532.991 246.162 527.358C201.275 512.044 152.877 485.821 110.609 411.962C107.95 407.316 105.312 402.424 102.712 397.167C100.632 392.963 98.5726 388.556 96.5493 383.843C89.8946 368.342 74.3868 328.658 77.6241 286.299ZM318.52 539.5C317.499 539.531 317.241 533.034 318.214 531.685C319.684 529.647 321.888 531.326 323.439 531.229C329.877 530.826 336.314 530.229 342.75 529.421C360.395 527.205 378.028 523.422 395.621 517.596C439.257 503.145 486.17 481.115 527.305 413.431C529.923 409.123 532.518 404.553 535.079 399.641C542.86 384.712 562.361 345.084 560.107 295.821C559.917 291.668 561.181 289.181 561.747 292.743C562.467 297.279 562.175 306.736 561.977 311.768C561.341 327.883 558.866 341.512 556.257 352.518C547.987 387.399 536.376 407.623 525.744 424.51C491.184 479.397 453.648 501.524 417.155 517.424C384.424 531.686 351.444 538.484 318.52 539.5Z" fill="#401C02"/>
</g>
</g>
<mask id="mask1_862_12571" style="mask-type:alpha" maskUnits="userSpaceOnUse" x="79" y="52" width="483" height="483">
<path d="M320.18 534.36C453.38 534.36 561.36 426.38 561.36 293.18C561.36 159.98 453.38 52 320.18 52C186.98 52 79 159.98 79 293.18C79 426.38 186.98 534.36 320.18 534.36Z" fill="url(#paint4_radial_862_12571)"/>
</mask>
<g mask="url(#mask1_862_12571)">
<g style="mix-blend-mode:multiply" filter="url(#filter2_f_862_12571)">
<path d="M423.261 45.2C462.561 -12.5 577.861 72.6001 423.261 169.3C268.761 72.6001 383.961 -12.5 423.261 45.2Z" fill="#444444"/>
</g>
<g style="mix-blend-mode:multiply" filter="url(#filter3_f_862_12571)">
<path d="M108.261 358.755C147.561 301.055 262.861 386.155 108.261 482.855C-46.2385 386.155 68.9615 301.055 108.261 358.755Z" fill="#444444"/>
</g>
<g style="mix-blend-mode:multiply" filter="url(#filter4_f_862_12571)">
<path d="M473.261 431.755C512.561 374.055 627.861 459.155 473.261 555.855C318.761 459.155 433.961 374.055 473.261 431.755Z" fill="#444444"/>
</g>
</g>
<mask id="mask2_862_12571" style="mask-type:alpha" maskUnits="userSpaceOnUse" x="337" y="0" width="173" height="156">
<path d="M409.938 136.386L418.544 156C258.329 50.2242 375.913 -38.3392 420.645 17.0004L409.837 36.2142L427.05 61.7325L409.637 91.5538L427.95 110.267L409.938 136.386Z" fill="black"/>
<path d="M425.048 155.901L416.842 137.087L435.756 109.668L417.143 90.6541L434.155 61.5333L416.942 35.9149L428.251 15.7004C475.484 -35.136 586.464 56.1294 425.048 155.901Z" fill="black"/>
</mask>
<g mask="url(#mask2_862_12571)">
<path d="M421.568 157.895C253.068 48.695 381.468 -43.005 423.768 21.295C468.068 -41.605 593.368 54.095 421.568 157.895Z" fill="black"/>
<mask id="mask3_862_12571" style="mask-type:alpha" maskUnits="userSpaceOnUse" x="337" y="0" width="173" height="158">
<path d="M421.568 157.895C253.068 48.695 381.468 -43.005 423.768 21.295C468.068 -41.605 593.368 54.095 421.568 157.895Z" fill="black"/>
</mask>
<g mask="url(#mask3_862_12571)">
<g filter="url(#filter5_f_862_12571)">
<path d="M447.462 141.1C448.462 140.2 449.562 139.4 450.562 138.5C451.562 137.6 452.562 136.7 453.562 135.8L459.662 130.4C461.662 128.4 463.562 126.6 465.562 124.8C473.362 117.2 480.862 109.4 487.462 100.9C494.062 92.4001 499.762 83.3001 503.662 73.3001L505.062 69.6001C505.562 68.3001 505.762 67.1001 506.262 65.8001L506.862 63.8001C507.062 63.1001 507.262 62.5001 507.362 61.8001L508.162 57.8001C508.862 52.5001 509.262 47.1001 508.762 41.6001C510.362 46.9001 510.862 52.5001 510.762 58.2001L510.362 62.4001C510.262 63.1001 510.262 63.8001 510.062 64.5001L509.662 66.6001C509.462 68.0001 509.162 69.5001 508.862 70.8001L507.662 74.9001C504.262 85.6001 498.662 95.6001 491.762 104.4C484.862 113.2 476.862 121.1 468.362 128.1C466.262 129.8 464.162 131.6 461.862 133.3L455.062 138C453.862 138.9 452.762 139.6 451.562 140.4C450.362 141.2 449.262 141.8 447.962 142.5C445.662 143.9 443.262 145.3 440.862 146.7C443.162 144.7 445.262 142.9 447.462 141.1Z" fill="#D5D5D5"/>
<path d="M395.962 141.7C394.762 141 393.662 140.2 392.462 139.4C391.262 138.6 390.162 137.7 389.062 136.9L382.462 131.9C380.262 130.1 378.262 128.3 376.162 126.5C367.762 119.2 360.062 111 353.562 102C346.962 93 341.662 82.9 338.662 72L337.662 67.9C337.362 66.5 337.162 65.1 336.962 63.7L336.562 61.8C336.462 61.1 336.462 60.4 336.362 59.7L336.062 55.5C336.162 49.9 336.762 44.3 338.662 39C337.962 44.4 338.062 49.9 338.662 55.2L339.362 59.2C339.562 59.9 339.562 60.5 339.762 61.2L340.262 63.2C340.662 64.5 340.862 65.7 341.262 67.1L342.662 70.8C346.262 80.9 351.762 90.2 357.962 98.9C364.362 107.6 371.462 115.6 379.062 123.5C381.062 125.4 382.962 127.3 384.762 129.3L390.762 134.9C391.762 135.8 392.762 136.8 393.662 137.7C394.662 138.6 395.762 139.5 396.662 140.4C398.762 142.2 400.762 144.1 402.762 146C400.362 144.6 398.062 143.1 395.962 141.7Z" fill="#D5D5D5"/>
</g>
</g>
<mask id="mask4_862_12571" style="mask-type:alpha" maskUnits="userSpaceOnUse" x="337" y="0" width="173" height="158">
<path d="M421.568 157.895C253.068 48.695 381.468 -43.005 423.768 21.295C468.068 -41.605 593.368 54.095 421.568 157.895Z" fill="black"/>
</mask>
<g mask="url(#mask4_862_12571)">
<g filter="url(#filter6_f_862_12571)">
<path d="M447.462 141.1C448.462 140.2 449.562 139.4 450.562 138.5C451.562 137.6 452.562 136.7 453.562 135.8L459.662 130.4C461.662 128.4 463.562 126.6 465.562 124.8C473.362 117.2 480.862 109.4 487.462 100.9C494.062 92.4001 499.762 83.3001 503.662 73.3001L505.062 69.6001C505.562 68.3001 505.762 67.1001 506.262 65.8001L506.862 63.8001C507.062 63.1001 507.262 62.5001 507.362 61.8001L508.162 57.8001C508.862 52.5001 509.262 47.1001 508.762 41.6001C510.362 46.9001 510.862 52.5001 510.762 58.2001L510.362 62.4001C510.262 63.1001 510.262 63.8001 510.062 64.5001L509.662 66.6001C509.462 68.0001 509.162 69.5001 508.862 70.8001L507.662 74.9001C504.262 85.6001 498.662 95.6001 491.762 104.4C484.862 113.2 476.862 121.1 468.362 128.1C466.262 129.8 464.162 131.6 461.862 133.3L455.062 138C453.862 138.9 452.762 139.6 451.562 140.4C450.362 141.2 449.262 141.8 447.962 142.5C445.662 143.9 443.262 145.3 440.862 146.7C443.162 144.7 445.262 142.9 447.462 141.1Z" fill="white"/>
<path d="M395.962 141.7C394.762 141 393.662 140.2 392.462 139.4C391.262 138.6 390.162 137.7 389.062 136.9L382.462 131.9C380.262 130.1 378.262 128.3 376.162 126.5C367.762 119.2 360.062 111 353.562 102C346.962 93 341.662 82.9 338.662 72L337.662 67.9C337.362 66.5 337.162 65.1 336.962 63.7L336.562 61.8C336.462 61.1 336.462 60.4 336.362 59.7L336.062 55.5C336.162 49.9 336.762 44.3 338.662 39C337.962 44.4 338.062 49.9 338.662 55.2L339.362 59.2C339.562 59.9 339.562 60.5 339.762 61.2L340.262 63.2C340.662 64.5 340.862 65.7 341.262 67.1L342.662 70.8C346.262 80.9 351.762 90.2 357.962 98.9C364.362 107.6 371.462 115.6 379.062 123.5C381.062 125.4 382.962 127.3 384.762 129.3L390.762 134.9C391.762 135.8 392.762 136.8 393.662 137.7C394.662 138.6 395.762 139.5 396.662 140.4C398.762 142.2 400.762 144.1 402.762 146C400.362 144.6 398.062 143.1 395.962 141.7Z" fill="white"/>
</g>
</g>
<mask id="mask5_862_12571" style="mask-type:alpha" maskUnits="userSpaceOnUse" x="337" y="0" width="173" height="158">
<path d="M421.568 157.895C253.068 48.695 381.468 -43.005 423.768 21.295C468.068 -41.605 593.368 54.095 421.568 157.895Z" fill="black"/>
</mask>
<g mask="url(#mask5_862_12571)">
<g filter="url(#filter7_f_862_12571)">
<path d="M349.826 40.3083C355.126 31.1083 363.926 23.6083 374.626 19.4083C379.926 17.4083 385.726 16.2083 391.626 16.0083C397.626 15.9083 403.726 16.7083 409.526 18.7083C414.726 20.5083 419.726 23.1083 424.126 26.4083C428.626 23.3083 433.626 20.8083 438.826 19.2083C444.726 17.4083 450.726 16.7083 456.726 17.1083C462.626 17.4083 468.326 18.8083 473.626 21.0083C484.126 25.5083 492.726 33.3083 497.726 42.6083C502.726 51.9083 504.126 62.6083 501.426 71.7083C499.226 67.5083 496.726 63.9083 494.126 60.8083C491.326 57.7083 488.426 55.1083 485.326 52.9083C479.226 48.6083 472.526 46.4083 466.226 45.8083C459.826 45.1083 454.126 46.3083 449.326 48.6083C444.526 50.9083 440.626 54.5083 437.126 59.3083L423.126 78.7083L409.826 59.1083C406.526 54.1083 402.726 50.5083 398.026 48.0083C393.326 45.5083 387.526 44.3083 381.226 44.6083C374.926 44.9083 368.226 47.0083 361.926 51.0083C358.726 53.0083 355.726 55.5083 352.926 58.6083C350.126 61.6083 347.626 65.2083 345.126 69.3083C342.726 60.1083 344.426 49.5083 349.826 40.3083Z" fill="#868686"/>
</g>
</g>
<mask id="mask6_862_12571" style="mask-type:alpha" maskUnits="userSpaceOnUse" x="337" y="0" width="173" height="158">
<path d="M421.568 157.895C253.068 48.695 381.468 -43.005 423.768 21.295C468.068 -41.605 593.368 54.095 421.568 157.895Z" fill="black"/>
</mask>
<g mask="url(#mask6_862_12571)">
<g filter="url(#filter8_f_862_12571)">
<path d="M437.362 9C434.762 10.7 432.362 12.7 430.262 14.8C428.062 17 426.162 19.4 424.262 21.9L423.962 22.6L423.562 21.9C421.862 19.3 419.862 16.9 417.862 14.6C415.662 12.4 413.462 10.3 410.862 8.5C405.862 4.9 400.162 2.3 394.062 1C397.162 1.5 400.062 2.3 403.062 3.5C406.062 4.6 408.762 6.1 411.362 7.9C413.962 9.6 416.362 11.7 418.562 14C420.762 16.3 422.662 18.8 424.362 21.4H423.462C425.262 18.8 427.262 16.4 429.562 14.2C431.762 12 434.262 10 436.962 8.4C439.662 6.7 442.562 5.3 445.362 4.2C448.362 3.1 451.362 2.4 454.462 2C448.262 3.1 442.362 5.6 437.362 9Z" fill="white"/>
</g>
<g filter="url(#filter9_f_862_12571)">
<path d="M437.362 6C434.762 7.7 432.362 9.7 430.262 11.8C428.062 14 426.162 16.4 424.262 18.9L423.962 19.6L423.562 18.9C421.862 16.3 419.862 13.9 417.862 11.6C415.662 9.4 413.462 7.3 410.862 5.5C405.862 1.9 400.162 -0.7 394.062 -2C397.162 -1.5 400.062 -0.7 403.062 0.5C406.062 1.6 408.762 3.1 411.362 4.9C413.962 6.6 416.362 8.7 418.562 11C420.762 13.3 422.662 15.8 424.362 18.4H423.462C425.262 15.8 427.262 13.4 429.562 11.2C431.762 9 434.262 7 436.962 5.4C439.662 3.7 442.562 2.3 445.362 1.2C448.362 0.0999999 451.362 -0.6 454.462 -1C448.262 0.0999999 442.362 2.6 437.362 6Z" fill="white"/>
</g>
<g filter="url(#filter10_f_862_12571)">
<path d="M437.362 8C434.762 9.7 432.362 11.7 430.262 13.8C428.062 16 426.162 18.4 424.262 20.9L423.962 21.6L423.562 20.9C421.862 18.3 419.862 15.9 417.862 13.6C415.662 11.4 413.462 9.3 410.862 7.5C405.862 3.9 400.162 1.3 394.062 0C397.162 0.5 400.062 1.3 403.062 2.5C406.062 3.6 408.762 5.1 411.362 6.9C413.962 8.6 416.362 10.7 418.562 13C420.762 15.3 422.662 17.8 424.362 20.4H423.462C425.262 17.8 427.262 15.4 429.562 13.2C431.762 11 434.262 9 436.962 7.4C439.662 5.7 442.562 4.3 445.362 3.2C448.362 2.1 451.362 1.4 454.462 1C448.262 2.1 442.362 4.6 437.362 8Z" fill="white"/>
</g>
</g>
</g>
<mask id="mask7_862_12571" style="mask-type:alpha" maskUnits="userSpaceOnUse" x="0" y="330" width="173" height="156">
<path d="M72.9375 466.386L81.5437 486C-78.6711 380.224 38.9131 291.661 83.6452 347L72.8374 366.214L90.0498 391.732L72.6373 421.554L90.9504 440.267L72.9375 466.386Z" fill="black"/>
<path d="M88.0483 485.901L79.8424 467.087L98.756 439.668L80.1426 420.654L97.1548 391.533L79.9425 365.915L91.2506 345.7C138.484 294.864 249.464 386.129 88.0483 485.901Z" fill="black"/>
</mask>
<g mask="url(#mask7_862_12571)">
<path d="M84.5676 487.895C-83.9324 378.695 44.4676 286.995 86.7676 351.295C131.068 288.395 256.368 384.095 84.5676 487.895Z" fill="black"/>
<mask id="mask8_862_12571" style="mask-type:alpha" maskUnits="userSpaceOnUse" x="0" y="330" width="173" height="158">
<path d="M84.5676 487.895C-83.9324 378.695 44.4676 286.995 86.7676 351.295C131.068 288.395 256.368 384.095 84.5676 487.895Z" fill="black"/>
</mask>
<g mask="url(#mask8_862_12571)">
<g filter="url(#filter11_f_862_12571)">
<path d="M110.462 471.1C111.462 470.2 112.562 469.4 113.562 468.5C114.562 467.6 115.562 466.7 116.562 465.8L122.662 460.4C124.662 458.4 126.562 456.6 128.562 454.8C136.362 447.2 143.862 439.4 150.462 430.9C157.062 422.4 162.762 413.3 166.662 403.3L168.062 399.6C168.562 398.3 168.762 397.1 169.262 395.8L169.862 393.8C170.062 393.1 170.262 392.5 170.362 391.8L171.162 387.8C171.862 382.5 172.262 377.1 171.762 371.6C173.362 376.9 173.862 382.5 173.762 388.2L173.362 392.4C173.262 393.1 173.262 393.8 173.062 394.5L172.662 396.6C172.462 398 172.162 399.5 171.862 400.8L170.662 404.9C167.262 415.6 161.662 425.6 154.762 434.4C147.862 443.2 139.862 451.1 131.362 458.1C129.262 459.8 127.162 461.6 124.862 463.3L118.062 468C116.862 468.9 115.762 469.6 114.562 470.4C113.362 471.2 112.262 471.8 110.962 472.5C108.662 473.9 106.262 475.3 103.862 476.7C106.162 474.7 108.262 472.9 110.462 471.1Z" fill="#D5D5D5"/>
<path d="M58.962 471.7C57.762 471 56.662 470.2 55.462 469.4C54.262 468.6 53.162 467.7 52.062 466.9L45.462 461.9C43.262 460.1 41.262 458.3 39.162 456.5C30.762 449.2 23.062 441 16.562 432C9.96201 423 4.66201 412.9 1.66201 402L0.662012 397.9C0.362012 396.5 0.162012 395.1 -0.0379883 393.7L-0.437988 391.8C-0.537988 391.1 -0.537988 390.4 -0.637988 389.7L-0.937988 385.5C-0.837988 379.9 -0.237988 374.3 1.66201 369C0.962012 374.4 1.06201 379.9 1.66201 385.2L2.36201 389.2C2.56201 389.9 2.56201 390.5 2.76201 391.2L3.26201 393.2C3.66201 394.5 3.86201 395.7 4.26201 397.1L5.66201 400.8C9.26201 410.9 14.762 420.2 20.962 428.9C27.362 437.6 34.462 445.6 42.062 453.5C44.062 455.4 45.962 457.3 47.762 459.3L53.762 464.9C54.762 465.8 55.762 466.8 56.662 467.7C57.662 468.6 58.762 469.5 59.662 470.4C61.762 472.2 63.762 474.1 65.762 476C63.362 474.6 61.062 473.1 58.962 471.7Z" fill="#D5D5D5"/>
</g>
</g>
<mask id="mask9_862_12571" style="mask-type:alpha" maskUnits="userSpaceOnUse" x="0" y="330" width="173" height="158">
<path d="M84.5676 487.895C-83.9324 378.695 44.4676 286.995 86.7676 351.295C131.068 288.395 256.368 384.095 84.5676 487.895Z" fill="black"/>
</mask>
<g mask="url(#mask9_862_12571)">
<g filter="url(#filter12_f_862_12571)">
<path d="M110.462 471.1C111.462 470.2 112.562 469.4 113.562 468.5C114.562 467.6 115.562 466.7 116.562 465.8L122.662 460.4C124.662 458.4 126.562 456.6 128.562 454.8C136.362 447.2 143.862 439.4 150.462 430.9C157.062 422.4 162.762 413.3 166.662 403.3L168.062 399.6C168.562 398.3 168.762 397.1 169.262 395.8L169.862 393.8C170.062 393.1 170.262 392.5 170.362 391.8L171.162 387.8C171.862 382.5 172.262 377.1 171.762 371.6C173.362 376.9 173.862 382.5 173.762 388.2L173.362 392.4C173.262 393.1 173.262 393.8 173.062 394.5L172.662 396.6C172.462 398 172.162 399.5 171.862 400.8L170.662 404.9C167.262 415.6 161.662 425.6 154.762 434.4C147.862 443.2 139.862 451.1 131.362 458.1C129.262 459.8 127.162 461.6 124.862 463.3L118.062 468C116.862 468.9 115.762 469.6 114.562 470.4C113.362 471.2 112.262 471.8 110.962 472.5C108.662 473.9 106.262 475.3 103.862 476.7C106.162 474.7 108.262 472.9 110.462 471.1Z" fill="white"/>
<path d="M58.962 471.7C57.762 471 56.662 470.2 55.462 469.4C54.262 468.6 53.162 467.7 52.062 466.9L45.462 461.9C43.262 460.1 41.262 458.3 39.162 456.5C30.762 449.2 23.062 441 16.562 432C9.96201 423 4.66201 412.9 1.66201 402L0.662012 397.9C0.362012 396.5 0.162012 395.1 -0.0379883 393.7L-0.437988 391.8C-0.537988 391.1 -0.537988 390.4 -0.637988 389.7L-0.937988 385.5C-0.837988 379.9 -0.237988 374.3 1.66201 369C0.962012 374.4 1.06201 379.9 1.66201 385.2L2.36201 389.2C2.56201 389.9 2.56201 390.5 2.76201 391.2L3.26201 393.2C3.66201 394.5 3.86201 395.7 4.26201 397.1L5.66201 400.8C9.26201 410.9 14.762 420.2 20.962 428.9C27.362 437.6 34.462 445.6 42.062 453.5C44.062 455.4 45.962 457.3 47.762 459.3L53.762 464.9C54.762 465.8 55.762 466.8 56.662 467.7C57.662 468.6 58.762 469.5 59.662 470.4C61.762 472.2 63.762 474.1 65.762 476C63.362 474.6 61.062 473.1 58.962 471.7Z" fill="white"/>
</g>
</g>
<mask id="mask10_862_12571" style="mask-type:alpha" maskUnits="userSpaceOnUse" x="0" y="330" width="173" height="158">
<path d="M84.5676 487.895C-83.9324 378.695 44.4676 286.995 86.7676 351.295C131.068 288.395 256.368 384.095 84.5676 487.895Z" fill="black"/>
</mask>
<g mask="url(#mask10_862_12571)">
<g filter="url(#filter13_f_862_12571)">
<path d="M12.8259 370.308C18.1259 361.108 26.9259 353.608 37.6259 349.408C42.9259 347.408 48.7259 346.208 54.6259 346.008C60.6259 345.908 66.7259 346.708 72.5259 348.708C77.7259 350.508 82.7259 353.108 87.1259 356.408C91.6259 353.308 96.6259 350.808 101.826 349.208C107.726 347.408 113.726 346.708 119.726 347.108C125.626 347.408 131.326 348.808 136.626 351.008C147.126 355.508 155.726 363.308 160.726 372.608C165.726 381.908 167.126 392.608 164.426 401.708C162.226 397.508 159.726 393.908 157.126 390.808C154.326 387.708 151.426 385.108 148.326 382.908C142.226 378.608 135.526 376.408 129.226 375.808C122.826 375.108 117.126 376.308 112.326 378.608C107.526 380.908 103.626 384.508 100.126 389.308L86.1259 408.708L72.8259 389.108C69.5259 384.108 65.7259 380.508 61.0259 378.008C56.3259 375.508 50.5259 374.308 44.2259 374.608C37.9259 374.908 31.2259 377.008 24.9259 381.008C21.7259 383.008 18.7259 385.508 15.9259 388.608C13.1259 391.608 10.6259 395.208 8.12592 399.308C5.72592 390.108 7.42592 379.508 12.8259 370.308Z" fill="#868686"/>
</g>
</g>
<mask id="mask11_862_12571" style="mask-type:alpha" maskUnits="userSpaceOnUse" x="0" y="330" width="173" height="158">
<path d="M84.5676 487.895C-83.9324 378.695 44.4676 286.995 86.7676 351.295C131.068 288.395 256.368 384.095 84.5676 487.895Z" fill="black"/>
</mask>
<g mask="url(#mask11_862_12571)">
<g filter="url(#filter14_f_862_12571)">
<path d="M100.362 339C97.762 340.7 95.362 342.7 93.262 344.8C91.062 347 89.162 349.4 87.262 351.9L86.962 352.6L86.562 351.9C84.862 349.3 82.862 346.9 80.862 344.6C78.662 342.4 76.462 340.3 73.862 338.5C68.862 334.9 63.162 332.3 57.062 331C60.162 331.5 63.062 332.3 66.062 333.5C69.062 334.6 71.762 336.1 74.362 337.9C76.962 339.6 79.362 341.7 81.562 344C83.762 346.3 85.662 348.8 87.362 351.4H86.462C88.262 348.8 90.262 346.4 92.562 344.2C94.762 342 97.262 340 99.962 338.4C102.662 336.7 105.562 335.3 108.362 334.2C111.362 333.1 114.362 332.4 117.462 332C111.262 333.1 105.362 335.6 100.362 339Z" fill="white"/>
</g>
<g filter="url(#filter15_f_862_12571)">
<path d="M100.362 336C97.762 337.7 95.362 339.7 93.262 341.8C91.062 344 89.162 346.4 87.262 348.9L86.962 349.6L86.562 348.9C84.862 346.3 82.862 343.9 80.862 341.6C78.662 339.4 76.462 337.3 73.862 335.5C68.862 331.9 63.162 329.3 57.062 328C60.162 328.5 63.062 329.3 66.062 330.5C69.062 331.6 71.762 333.1 74.362 334.9C76.962 336.6 79.362 338.7 81.562 341C83.762 343.3 85.662 345.8 87.362 348.4H86.462C88.262 345.8 90.262 343.4 92.562 341.2C94.762 339 97.262 337 99.962 335.4C102.662 333.7 105.562 332.3 108.362 331.2C111.362 330.1 114.362 329.4 117.462 329C111.262 330.1 105.362 332.6 100.362 336Z" fill="white"/>
</g>
<g filter="url(#filter16_f_862_12571)">
<path d="M100.362 338C97.762 339.7 95.362 341.7 93.262 343.8C91.062 346 89.162 348.4 87.262 350.9L86.962 351.6L86.562 350.9C84.862 348.3 82.862 345.9 80.862 343.6C78.662 341.4 76.462 339.3 73.862 337.5C68.862 333.9 63.162 331.3 57.062 330C60.162 330.5 63.062 331.3 66.062 332.5C69.062 333.6 71.762 335.1 74.362 336.9C76.962 338.6 79.362 340.7 81.562 343C83.762 345.3 85.662 347.8 87.362 350.4H86.462C88.262 347.8 90.262 345.4 92.562 343.2C94.762 341 97.262 339 99.962 337.4C102.662 335.7 105.562 334.3 108.362 333.2C111.362 332.1 114.362 331.4 117.462 331C111.262 332.1 105.362 334.6 100.362 338Z" fill="white"/>
</g>
</g>
</g>
<mask id="mask12_862_12571" style="mask-type:alpha" maskUnits="userSpaceOnUse" x="416" y="420" width="173" height="156">
<path d="M488.938 556.386L497.544 576C337.329 470.224 454.913 381.661 499.645 437L488.837 456.214L506.05 481.732L488.637 511.554L506.95 530.267L488.938 556.386Z" fill="black"/>
<path d="M504.048 575.901L495.842 557.087L514.756 529.668L496.143 510.654L513.155 481.533L495.942 455.915L507.251 435.7C554.484 384.864 665.464 476.129 504.048 575.901Z" fill="black"/>
</mask>
<g mask="url(#mask12_862_12571)">
<path d="M500.568 577.895C332.068 468.695 460.468 376.995 502.768 441.295C547.068 378.395 672.368 474.095 500.568 577.895Z" fill="black"/>
<mask id="mask13_862_12571" style="mask-type:alpha" maskUnits="userSpaceOnUse" x="416" y="420" width="173" height="158">
<path d="M500.568 577.895C332.068 468.695 460.468 376.995 502.768 441.295C547.068 378.395 672.368 474.095 500.568 577.895Z" fill="black"/>
</mask>
<g mask="url(#mask13_862_12571)">
<g filter="url(#filter17_f_862_12571)">
<path d="M526.462 561.1C527.462 560.2 528.562 559.4 529.562 558.5C530.562 557.6 531.562 556.7 532.562 555.8L538.662 550.4C540.662 548.4 542.562 546.6 544.562 544.8C552.362 537.2 559.862 529.4 566.462 520.9C573.062 512.4 578.762 503.3 582.662 493.3L584.062 489.6C584.562 488.3 584.762 487.1 585.262 485.8L585.862 483.8C586.062 483.1 586.262 482.5 586.362 481.8L587.162 477.8C587.862 472.5 588.262 467.1 587.762 461.6C589.362 466.9 589.862 472.5 589.762 478.2L589.362 482.4C589.262 483.1 589.262 483.8 589.062 484.5L588.662 486.6C588.462 488 588.162 489.5 587.862 490.8L586.662 494.9C583.262 505.6 577.662 515.6 570.762 524.4C563.862 533.2 555.862 541.1 547.362 548.1C545.262 549.8 543.162 551.6 540.862 553.3L534.062 558C532.862 558.9 531.762 559.6 530.562 560.4C529.362 561.2 528.262 561.8 526.962 562.5C524.662 563.9 522.262 565.3 519.862 566.7C522.162 564.7 524.262 562.9 526.462 561.1Z" fill="#D5D5D5"/>
<path d="M474.962 561.7C473.762 561 472.662 560.2 471.462 559.4C470.262 558.6 469.162 557.7 468.062 556.9L461.462 551.9C459.262 550.1 457.262 548.3 455.162 546.5C446.762 539.2 439.062 531 432.562 522C425.962 513 420.662 502.9 417.662 492L416.662 487.9C416.362 486.5 416.162 485.1 415.962 483.7L415.562 481.8C415.462 481.1 415.462 480.4 415.362 479.7L415.062 475.5C415.162 469.9 415.762 464.3 417.662 459C416.962 464.4 417.062 469.9 417.662 475.2L418.362 479.2C418.562 479.9 418.562 480.5 418.762 481.2L419.262 483.2C419.662 484.5 419.862 485.7 420.262 487.1L421.662 490.8C425.262 500.9 430.762 510.2 436.962 518.9C443.362 527.6 450.462 535.6 458.062 543.5C460.062 545.4 461.962 547.3 463.762 549.3L469.762 554.9C470.762 555.8 471.762 556.8 472.662 557.7C473.662 558.6 474.762 559.5 475.662 560.4C477.762 562.2 479.762 564.1 481.762 566C479.362 564.6 477.062 563.1 474.962 561.7Z" fill="#D5D5D5"/>
</g>
</g>
<mask id="mask14_862_12571" style="mask-type:alpha" maskUnits="userSpaceOnUse" x="416" y="420" width="173" height="158">
<path d="M500.568 577.895C332.068 468.695 460.468 376.995 502.768 441.295C547.068 378.395 672.368 474.095 500.568 577.895Z" fill="black"/>
</mask>
<g mask="url(#mask14_862_12571)">
<g filter="url(#filter18_f_862_12571)">
<path d="M526.462 561.1C527.462 560.2 528.562 559.4 529.562 558.5C530.562 557.6 531.562 556.7 532.562 555.8L538.662 550.4C540.662 548.4 542.562 546.6 544.562 544.8C552.362 537.2 559.862 529.4 566.462 520.9C573.062 512.4 578.762 503.3 582.662 493.3L584.062 489.6C584.562 488.3 584.762 487.1 585.262 485.8L585.862 483.8C586.062 483.1 586.262 482.5 586.362 481.8L587.162 477.8C587.862 472.5 588.262 467.1 587.762 461.6C589.362 466.9 589.862 472.5 589.762 478.2L589.362 482.4C589.262 483.1 589.262 483.8 589.062 484.5L588.662 486.6C588.462 488 588.162 489.5 587.862 490.8L586.662 494.9C583.262 505.6 577.662 515.6 570.762 524.4C563.862 533.2 555.862 541.1 547.362 548.1C545.262 549.8 543.162 551.6 540.862 553.3L534.062 558C532.862 558.9 531.762 559.6 530.562 560.4C529.362 561.2 528.262 561.8 526.962 562.5C524.662 563.9 522.262 565.3 519.862 566.7C522.162 564.7 524.262 562.9 526.462 561.1Z" fill="white"/>
<path d="M474.962 561.7C473.762 561 472.662 560.2 471.462 559.4C470.262 558.6 469.162 557.7 468.062 556.9L461.462 551.9C459.262 550.1 457.262 548.3 455.162 546.5C446.762 539.2 439.062 531 432.562 522C425.962 513 420.662 502.9 417.662 492L416.662 487.9C416.362 486.5 416.162 485.1 415.962 483.7L415.562 481.8C415.462 481.1 415.462 480.4 415.362 479.7L415.062 475.5C415.162 469.9 415.762 464.3 417.662 459C416.962 464.4 417.062 469.9 417.662 475.2L418.362 479.2C418.562 479.9 418.562 480.5 418.762 481.2L419.262 483.2C419.662 484.5 419.862 485.7 420.262 487.1L421.662 490.8C425.262 500.9 430.762 510.2 436.962 518.9C443.362 527.6 450.462 535.6 458.062 543.5C460.062 545.4 461.962 547.3 463.762 549.3L469.762 554.9C470.762 555.8 471.762 556.8 472.662 557.7C473.662 558.6 474.762 559.5 475.662 560.4C477.762 562.2 479.762 564.1 481.762 566C479.362 564.6 477.062 563.1 474.962 561.7Z" fill="white"/>
</g>
</g>
<mask id="mask15_862_12571" style="mask-type:alpha" maskUnits="userSpaceOnUse" x="416" y="420" width="173" height="158">
<path d="M500.568 577.895C332.068 468.695 460.468 376.995 502.768 441.295C547.068 378.395 672.368 474.095 500.568 577.895Z" fill="black"/>
</mask>
<g mask="url(#mask15_862_12571)">
<g filter="url(#filter19_f_862_12571)">
<path d="M428.826 460.308C434.126 451.108 442.926 443.608 453.626 439.408C458.926 437.408 464.726 436.208 470.626 436.008C476.626 435.908 482.726 436.708 488.526 438.708C493.726 440.508 498.726 443.108 503.126 446.408C507.626 443.308 512.626 440.808 517.826 439.208C523.726 437.408 529.726 436.708 535.726 437.108C541.626 437.408 547.326 438.808 552.626 441.008C563.126 445.508 571.726 453.308 576.726 462.608C581.726 471.908 583.126 482.608 580.426 491.708C578.226 487.508 575.726 483.908 573.126 480.808C570.326 477.708 567.426 475.108 564.326 472.908C558.226 468.608 551.526 466.408 545.226 465.808C538.826 465.108 533.126 466.308 528.326 468.608C523.526 470.908 519.626 474.508 516.126 479.308L502.126 498.708L488.826 479.108C485.526 474.108 481.726 470.508 477.026 468.008C472.326 465.508 466.526 464.308 460.226 464.608C453.926 464.908 447.226 467.008 440.926 471.008C437.726 473.008 434.726 475.508 431.926 478.608C429.126 481.608 426.626 485.208 424.126 489.308C421.726 480.108 423.426 469.508 428.826 460.308Z" fill="#868686"/>
</g>
</g>
<mask id="mask16_862_12571" style="mask-type:alpha" maskUnits="userSpaceOnUse" x="416" y="420" width="173" height="158">
<path d="M500.568 577.895C332.068 468.695 460.468 376.995 502.768 441.295C547.068 378.395 672.368 474.095 500.568 577.895Z" fill="black"/>
</mask>
<g mask="url(#mask16_862_12571)">
<g filter="url(#filter20_f_862_12571)">
<path d="M516.362 429C513.762 430.7 511.362 432.7 509.262 434.8C507.062 437 505.162 439.4 503.262 441.9L502.962 442.6L502.562 441.9C500.862 439.3 498.862 436.9 496.862 434.6C494.662 432.4 492.462 430.3 489.862 428.5C484.862 424.9 479.162 422.3 473.062 421C476.162 421.5 479.062 422.3 482.062 423.5C485.062 424.6 487.762 426.1 490.362 427.9C492.962 429.6 495.362 431.7 497.562 434C499.762 436.3 501.662 438.8 503.362 441.4H502.462C504.262 438.8 506.262 436.4 508.562 434.2C510.762 432 513.262 430 515.962 428.4C518.662 426.7 521.562 425.3 524.362 424.2C527.362 423.1 530.362 422.4 533.462 422C527.262 423.1 521.362 425.6 516.362 429Z" fill="white"/>
</g>
<g filter="url(#filter21_f_862_12571)">
<path d="M516.362 426C513.762 427.7 511.362 429.7 509.262 431.8C507.062 434 505.162 436.4 503.262 438.9L502.962 439.6L502.562 438.9C500.862 436.3 498.862 433.9 496.862 431.6C494.662 429.4 492.462 427.3 489.862 425.5C484.862 421.9 479.162 419.3 473.062 418C476.162 418.5 479.062 419.3 482.062 420.5C485.062 421.6 487.762 423.1 490.362 424.9C492.962 426.6 495.362 428.7 497.562 431C499.762 433.3 501.662 435.8 503.362 438.4H502.462C504.262 435.8 506.262 433.4 508.562 431.2C510.762 429 513.262 427 515.962 425.4C518.662 423.7 521.562 422.3 524.362 421.2C527.362 420.1 530.362 419.4 533.462 419C527.262 420.1 521.362 422.6 516.362 426Z" fill="white"/>
</g>
<g filter="url(#filter22_f_862_12571)">
<path d="M516.362 428C513.762 429.7 511.362 431.7 509.262 433.8C507.062 436 505.162 438.4 503.262 440.9L502.962 441.6L502.562 440.9C500.862 438.3 498.862 435.9 496.862 433.6C494.662 431.4 492.462 429.3 489.862 427.5C484.862 423.9 479.162 421.3 473.062 420C476.162 420.5 479.062 421.3 482.062 422.5C485.062 423.6 487.762 425.1 490.362 426.9C492.962 428.6 495.362 430.7 497.562 433C499.762 435.3 501.662 437.8 503.362 440.4H502.462C504.262 437.8 506.262 435.4 508.562 433.2C510.762 431 513.262 429 515.962 427.4C518.662 425.7 521.562 424.3 524.362 423.2C527.362 422.1 530.362 421.4 533.462 421C527.262 422.1 521.362 424.6 516.362 428Z" fill="white"/>
</g>
</g>
</g>
<path d="M391.038 371.99C391.425 371.69 391.897 371.52 392.387 371.504C392.876 371.488 393.359 371.626 393.765 371.9C394.171 372.173 394.481 372.568 394.651 373.027C394.82 373.487 394.84 373.988 394.708 374.46C386.418 406.07 356.318 429.46 320.448 429.46C284.578 429.46 254.448 406.02 246.178 374.39C246.047 373.917 246.068 373.415 246.238 372.955C246.409 372.495 246.72 372.101 247.128 371.828C247.536 371.556 248.019 371.419 248.509 371.437C249 371.455 249.472 371.628 249.858 371.93C267.698 385.61 292.738 394.11 320.448 394.11C348.158 394.11 373.178 385.61 391.038 371.99Z" stroke="url(#paint5_linear_862_12571)" stroke-width="5" stroke-miterlimit="10"/>
<path d="M391.038 371.99C391.425 371.69 391.897 371.52 392.387 371.504C392.876 371.488 393.359 371.626 393.765 371.9C394.171 372.173 394.481 372.568 394.651 373.027C394.82 373.487 394.84 373.988 394.708 374.46C386.418 406.07 356.318 429.46 320.448 429.46C284.578 429.46 254.448 406.02 246.178 374.39C246.047 373.917 246.068 373.415 246.238 372.955C246.409 372.495 246.72 372.101 247.128 371.828C247.536 371.556 248.019 371.419 248.509 371.437C249 371.455 249.472 371.628 249.858 371.93C267.698 385.61 292.738 394.11 320.448 394.11C348.158 394.11 373.178 385.61 391.038 371.99Z" fill="url(#paint6_radial_862_12571)"/>
<path d="M264.298 270.661C268.978 274.451 263.298 270.161 261.778 269.311C258.245 267.309 254.462 265.786 250.528 264.781C235.448 260.781 220.848 265.091 207.698 272.731C192.988 281.271 179.698 258.481 194.388 249.951C221.768 234.051 257.218 231.211 282.948 252.021C296.148 262.691 277.378 281.251 264.298 270.661V270.661Z" stroke="url(#paint7_linear_862_12571)" stroke-width="4" stroke-miterlimit="10"/>
<path d="M282.948 252.021C257.218 231.211 221.768 234.021 194.388 249.951C186.238 254.681 186.698 263.791 191.238 269.511C193.19 271.99 194.247 275.056 194.238 278.211V340.131C194.409 340.98 194.858 341.748 195.513 342.314C196.168 342.881 196.993 343.214 197.858 343.261C200.038 343.311 201.858 341.401 201.858 340.261V282.761C201.858 280.734 202.391 278.744 203.404 276.988C204.417 275.233 205.873 273.775 207.628 272.761H207.688C210.637 271.041 213.69 269.505 216.828 268.161C217.13 268.421 217.374 268.742 217.547 269.101C217.719 269.461 217.814 269.852 217.828 270.251V310.611C217.828 311.059 218.006 311.489 218.323 311.806C218.64 312.123 219.07 312.301 219.518 312.301C220.074 312.298 220.607 312.076 221 311.683C221.393 311.29 221.615 310.757 221.618 310.201V271.001C221.618 268.191 226.038 265.931 231.358 266.051H231.548C236.548 266.161 240.548 268.341 240.548 271.051V340.131C240.719 340.98 241.168 341.748 241.823 342.314C242.478 342.881 243.303 343.214 244.168 343.261C246.338 343.311 248.168 341.401 248.168 340.261V266.891H248.288C254.508 267.361 259.088 270.211 259.088 273.521V340.141C259.259 340.99 259.708 341.758 260.363 342.324C261.018 342.891 261.843 343.224 262.708 343.271C264.878 343.321 266.708 341.411 266.708 340.271V275.091C266.71 274.795 266.782 274.503 266.917 274.24C267.052 273.976 267.247 273.748 267.486 273.573C267.725 273.398 268.001 273.282 268.293 273.233C268.585 273.184 268.885 273.204 269.168 273.291C270.624 273.717 272.144 273.886 273.658 273.791C274.289 273.727 274.927 273.795 275.53 273.993C276.133 274.19 276.688 274.511 277.159 274.936C277.63 275.361 278.007 275.88 278.265 276.46C278.523 277.039 278.657 277.666 278.658 278.301V330.751C278.657 330.841 278.673 330.931 278.707 331.014C278.74 331.098 278.79 331.174 278.853 331.238C278.917 331.302 278.992 331.353 279.075 331.388C279.159 331.423 279.248 331.441 279.338 331.441C279.659 331.441 279.967 331.313 280.193 331.087C280.42 330.86 280.548 330.552 280.548 330.231V274.821C280.553 273.872 280.762 272.935 281.158 272.073C281.555 271.21 282.131 270.443 282.848 269.821C288.028 265.251 289.808 257.611 282.948 252.021Z" fill="url(#paint8_linear_862_12571)"/>
<path d="M376.598 270.661C371.918 274.451 377.598 270.161 379.108 269.311C382.642 267.312 386.424 265.789 390.358 264.781C405.438 260.781 420.038 265.091 433.198 272.731C447.898 281.271 461.198 258.481 446.508 249.951C419.118 234.051 383.678 231.211 357.948 252.021C344.748 262.691 363.508 281.251 376.598 270.661Z" stroke="url(#paint9_linear_862_12571)" stroke-width="4" stroke-miterlimit="10"/>
<path d="M357.948 252.021C383.678 231.211 419.118 234.021 446.508 249.951C454.648 254.681 454.188 263.791 449.658 269.511C447.688 271.983 446.613 275.05 446.607 278.211V340.131C446.436 340.98 445.987 341.748 445.332 342.314C444.677 342.881 443.852 343.214 442.987 343.261C440.817 343.311 438.987 341.401 438.987 340.261V282.761C438.988 280.734 438.454 278.744 437.442 276.988C436.429 275.233 434.972 273.775 433.218 272.761H433.158C430.207 271.043 427.155 269.507 424.017 268.161C423.705 268.416 423.45 268.733 423.269 269.094C423.088 269.454 422.985 269.848 422.968 270.251V310.611C422.968 311.059 422.789 311.489 422.473 311.806C422.156 312.123 421.726 312.301 421.278 312.301C420.721 312.298 420.189 312.076 419.795 311.683C419.402 311.29 419.18 310.757 419.177 310.201V271.001C419.177 268.191 414.747 265.931 409.427 266.051H409.248C404.248 266.161 400.248 268.341 400.248 271.051V340.131C400.074 340.981 399.623 341.749 398.967 342.315C398.31 342.882 397.484 343.214 396.618 343.261C394.448 343.311 392.618 341.401 392.618 340.261V266.891H392.487C386.277 267.361 381.698 270.211 381.698 273.521V340.141C381.526 340.99 381.077 341.758 380.422 342.324C379.767 342.891 378.942 343.224 378.077 343.271C375.897 343.321 374.077 341.411 374.077 340.271V275.091C374.077 274.795 374.007 274.504 373.873 274.24C373.739 273.977 373.545 273.748 373.307 273.573C373.068 273.398 372.792 273.281 372.501 273.232C372.209 273.183 371.91 273.203 371.628 273.291C370.171 273.717 368.652 273.886 367.138 273.791C366.506 273.725 365.868 273.793 365.264 273.989C364.66 274.186 364.105 274.507 363.633 274.933C363.162 275.358 362.785 275.878 362.527 276.458C362.27 277.038 362.137 277.666 362.138 278.301V330.751C362.138 330.934 362.065 331.109 361.935 331.239C361.806 331.368 361.631 331.441 361.448 331.441C361.127 331.441 360.819 331.313 360.592 331.087C360.365 330.86 360.237 330.552 360.237 330.231V274.821C360.231 273.873 360.024 272.937 359.629 272.075C359.234 271.213 358.661 270.445 357.948 269.821C352.868 265.251 351.078 257.611 357.948 252.021Z" fill="url(#paint10_linear_862_12571)"/>
<defs>
<filter id="filter0_f_862_12571" x="52.1851" y="258.558" width="535.022" height="306.595" filterUnits="userSpaceOnUse" color-interpolation-filters="sRGB">
<feFlood flood-opacity="0" result="BackgroundImageFix"/>
<feBlend mode="normal" in="SourceGraphic" in2="BackgroundImageFix" result="shape"/>
<feGaussianBlur stdDeviation="12.5" result="effect1_foregroundBlur_862_12571"/>
</filter>
<filter id="filter1_f_862_12571" x="37.1851" y="243.558" width="565.022" height="336.595" filterUnits="userSpaceOnUse" color-interpolation-filters="sRGB">
<feFlood flood-opacity="0" result="BackgroundImageFix"/>
<feBlend mode="normal" in="SourceGraphic" in2="BackgroundImageFix" result="shape"/>
<feGaussianBlur stdDeviation="20" result="effect1_foregroundBlur_862_12571"/>
</filter>
<filter id="filter2_f_862_12571" x="285" y="-33.5542" width="276.567" height="262.854" filterUnits="userSpaceOnUse" color-interpolation-filters="sRGB">
<feFlood flood-opacity="0" result="BackgroundImageFix"/>
<feBlend mode="normal" in="SourceGraphic" in2="BackgroundImageFix" result="shape"/>
<feGaussianBlur stdDeviation="30" result="effect1_foregroundBlur_862_12571"/>
</filter>
<filter id="filter3_f_862_12571" x="-30" y="280" width="276.567" height="262.854" filterUnits="userSpaceOnUse" color-interpolation-filters="sRGB">
<feFlood flood-opacity="0" result="BackgroundImageFix"/>
<feBlend mode="normal" in="SourceGraphic" in2="BackgroundImageFix" result="shape"/>
<feGaussianBlur stdDeviation="30" result="effect1_foregroundBlur_862_12571"/>
</filter>
<filter id="filter4_f_862_12571" x="335" y="353" width="276.567" height="262.854" filterUnits="userSpaceOnUse" color-interpolation-filters="sRGB">
<feFlood flood-opacity="0" result="BackgroundImageFix"/>
<feBlend mode="normal" in="SourceGraphic" in2="BackgroundImageFix" result="shape"/>
<feGaussianBlur stdDeviation="30" result="effect1_foregroundBlur_862_12571"/>
</filter>
<filter id="filter5_f_862_12571" x="326.062" y="29" width="194.712" height="127.7" filterUnits="userSpaceOnUse" color-interpolation-filters="sRGB">
<feFlood flood-opacity="0" result="BackgroundImageFix"/>
<feBlend mode="normal" in="SourceGraphic" in2="BackgroundImageFix" result="shape"/>
<feGaussianBlur stdDeviation="5" result="effect1_foregroundBlur_862_12571"/>
</filter>
<filter id="filter6_f_862_12571" x="311.062" y="14" width="224.712" height="157.7" filterUnits="userSpaceOnUse" color-interpolation-filters="sRGB">
<feFlood flood-opacity="0" result="BackgroundImageFix"/>
<feBlend mode="normal" in="SourceGraphic" in2="BackgroundImageFix" result="shape"/>
<feGaussianBlur stdDeviation="12.5" result="effect1_foregroundBlur_862_12571"/>
</filter>
<filter id="filter7_f_862_12571" x="309.062" y="-19" width="228.716" height="132.708" filterUnits="userSpaceOnUse" color-interpolation-filters="sRGB">
<feFlood flood-opacity="0" result="BackgroundImageFix"/>
<feBlend mode="normal" in="SourceGraphic" in2="BackgroundImageFix" result="shape"/>
<feGaussianBlur stdDeviation="17.5" result="effect1_foregroundBlur_862_12571"/>
</filter>
<filter id="filter8_f_862_12571" x="387.062" y="-6" width="74.4" height="35.6001" filterUnits="userSpaceOnUse" color-interpolation-filters="sRGB">
<feFlood flood-opacity="0" result="BackgroundImageFix"/>
<feBlend mode="normal" in="SourceGraphic" in2="BackgroundImageFix" result="shape"/>
<feGaussianBlur stdDeviation="3.5" result="effect1_foregroundBlur_862_12571"/>
</filter>
<filter id="filter9_f_862_12571" x="386.062" y="-10" width="76.4" height="37.6001" filterUnits="userSpaceOnUse" color-interpolation-filters="sRGB">
<feFlood flood-opacity="0" result="BackgroundImageFix"/>
<feBlend mode="normal" in="SourceGraphic" in2="BackgroundImageFix" result="shape"/>
<feGaussianBlur stdDeviation="4" result="effect1_foregroundBlur_862_12571"/>
</filter>
<filter id="filter10_f_862_12571" x="386.062" y="-8" width="76.4" height="37.6001" filterUnits="userSpaceOnUse" color-interpolation-filters="sRGB">
<feFlood flood-opacity="0" result="BackgroundImageFix"/>
<feBlend mode="normal" in="SourceGraphic" in2="BackgroundImageFix" result="shape"/>
<feGaussianBlur stdDeviation="4" result="effect1_foregroundBlur_862_12571"/>
</filter>
<filter id="filter11_f_862_12571" x="-10.938" y="359" width="194.712" height="127.7" filterUnits="userSpaceOnUse" color-interpolation-filters="sRGB">
<feFlood flood-opacity="0" result="BackgroundImageFix"/>
<feBlend mode="normal" in="SourceGraphic" in2="BackgroundImageFix" result="shape"/>
<feGaussianBlur stdDeviation="5" result="effect1_foregroundBlur_862_12571"/>
</filter>
<filter id="filter12_f_862_12571" x="-25.938" y="344" width="224.712" height="157.7" filterUnits="userSpaceOnUse" color-interpolation-filters="sRGB">
<feFlood flood-opacity="0" result="BackgroundImageFix"/>
<feBlend mode="normal" in="SourceGraphic" in2="BackgroundImageFix" result="shape"/>
<feGaussianBlur stdDeviation="12.5" result="effect1_foregroundBlur_862_12571"/>
</filter>
<filter id="filter13_f_862_12571" x="-27.938" y="311" width="228.716" height="132.708" filterUnits="userSpaceOnUse" color-interpolation-filters="sRGB">
<feFlood flood-opacity="0" result="BackgroundImageFix"/>
<feBlend mode="normal" in="SourceGraphic" in2="BackgroundImageFix" result="shape"/>
<feGaussianBlur stdDeviation="17.5" result="effect1_foregroundBlur_862_12571"/>
</filter>
<filter id="filter14_f_862_12571" x="50.062" y="324" width="74.4" height="35.6001" filterUnits="userSpaceOnUse" color-interpolation-filters="sRGB">
<feFlood flood-opacity="0" result="BackgroundImageFix"/>
<feBlend mode="normal" in="SourceGraphic" in2="BackgroundImageFix" result="shape"/>
<feGaussianBlur stdDeviation="3.5" result="effect1_foregroundBlur_862_12571"/>
</filter>
<filter id="filter15_f_862_12571" x="49.062" y="320" width="76.4" height="37.6001" filterUnits="userSpaceOnUse" color-interpolation-filters="sRGB">
<feFlood flood-opacity="0" result="BackgroundImageFix"/>
<feBlend mode="normal" in="SourceGraphic" in2="BackgroundImageFix" result="shape"/>
<feGaussianBlur stdDeviation="4" result="effect1_foregroundBlur_862_12571"/>
</filter>
<filter id="filter16_f_862_12571" x="49.062" y="322" width="76.4" height="37.6001" filterUnits="userSpaceOnUse" color-interpolation-filters="sRGB">
<feFlood flood-opacity="0" result="BackgroundImageFix"/>
<feBlend mode="normal" in="SourceGraphic" in2="BackgroundImageFix" result="shape"/>
<feGaussianBlur stdDeviation="4" result="effect1_foregroundBlur_862_12571"/>
</filter>
<filter id="filter17_f_862_12571" x="405.062" y="449" width="194.712" height="127.7" filterUnits="userSpaceOnUse" color-interpolation-filters="sRGB">
<feFlood flood-opacity="0" result="BackgroundImageFix"/>
<feBlend mode="normal" in="SourceGraphic" in2="BackgroundImageFix" result="shape"/>
<feGaussianBlur stdDeviation="5" result="effect1_foregroundBlur_862_12571"/>
</filter>
<filter id="filter18_f_862_12571" x="390.062" y="434" width="224.712" height="157.7" filterUnits="userSpaceOnUse" color-interpolation-filters="sRGB">
<feFlood flood-opacity="0" result="BackgroundImageFix"/>
<feBlend mode="normal" in="SourceGraphic" in2="BackgroundImageFix" result="shape"/>
<feGaussianBlur stdDeviation="12.5" result="effect1_foregroundBlur_862_12571"/>
</filter>
<filter id="filter19_f_862_12571" x="388.062" y="401" width="228.716" height="132.708" filterUnits="userSpaceOnUse" color-interpolation-filters="sRGB">
<feFlood flood-opacity="0" result="BackgroundImageFix"/>
<feBlend mode="normal" in="SourceGraphic" in2="BackgroundImageFix" result="shape"/>
<feGaussianBlur stdDeviation="17.5" result="effect1_foregroundBlur_862_12571"/>
</filter>
<filter id="filter20_f_862_12571" x="466.062" y="414" width="74.4" height="35.6001" filterUnits="userSpaceOnUse" color-interpolation-filters="sRGB">
<feFlood flood-opacity="0" result="BackgroundImageFix"/>
<feBlend mode="normal" in="SourceGraphic" in2="BackgroundImageFix" result="shape"/>
<feGaussianBlur stdDeviation="3.5" result="effect1_foregroundBlur_862_12571"/>
</filter>
<filter id="filter21_f_862_12571" x="465.062" y="410" width="76.4" height="37.6001" filterUnits="userSpaceOnUse" color-interpolation-filters="sRGB">
<feFlood flood-opacity="0" result="BackgroundImageFix"/>
<feBlend mode="normal" in="SourceGraphic" in2="BackgroundImageFix" result="shape"/>
<feGaussianBlur stdDeviation="4" result="effect1_foregroundBlur_862_12571"/>
</filter>
<filter id="filter22_f_862_12571" x="465.062" y="412" width="76.4" height="37.6001" filterUnits="userSpaceOnUse" color-interpolation-filters="sRGB">
<feFlood flood-opacity="0" result="BackgroundImageFix"/>
<feBlend mode="normal" in="SourceGraphic" in2="BackgroundImageFix" result="shape"/>
<feGaussianBlur stdDeviation="4" result="effect1_foregroundBlur_862_12571"/>
</filter>
<radialGradient id="paint0_radial_862_12571" cx="0" cy="0" r="1" gradientUnits="userSpaceOnUse" gradientTransform="translate(320 52) rotate(90) scale(482)">
<stop stop-color="#FFDE43"/>
<stop offset="1" stop-color="#FFBC00"/>
</radialGradient>
<radialGradient id="paint1_radial_862_12571" cx="0" cy="0" r="1" gradientUnits="userSpaceOnUse" gradientTransform="translate(320 116.5) rotate(90) scale(417.5)">
<stop stop-color="white" stop-opacity="0.5"/>
<stop offset="0.782278"/>
</radialGradient>
<radialGradient id="paint2_radial_862_12571" cx="0" cy="0" r="1" gradientUnits="userSpaceOnUse" gradientTransform="translate(320 116.5) rotate(90) scale(417.5)">
<stop stop-color="white" stop-opacity="0.5"/>
<stop offset="0.782278"/>
</radialGradient>
<radialGradient id="paint3_radial_862_12571" cx="0" cy="0" r="1" gradientUnits="userSpaceOnUse" gradientTransform="translate(320 -0.499987) rotate(90) scale(534.5 722.835)">
<stop offset="0.0922635" stop-color="white"/>
<stop offset="0.670207" stop-color="white" stop-opacity="0"/>
</radialGradient>
<radialGradient id="paint4_radial_862_12571" cx="0" cy="0" r="1" gradientUnits="userSpaceOnUse" gradientTransform="translate(320 52) rotate(90) scale(482)">
<stop stop-color="#FFDE43"/>
<stop offset="1" stop-color="#FFBC00"/>
</radialGradient>
<linearGradient id="paint5_linear_862_12571" x1="320.443" y1="431.093" x2="320.443" y2="369.568" gradientUnits="userSpaceOnUse">
<stop offset="0.265625" stop-color="#FFDE43"/>
<stop offset="1" stop-color="#F79D14"/>
</linearGradient>
<radialGradient id="paint6_radial_862_12571" cx="0" cy="0" r="1" gradientUnits="userSpaceOnUse" gradientTransform="translate(320.443 400.331) scale(56.1216 58.608)">
<stop stop-color="#743C1C"/>
<stop offset="1" stop-color="#401C02"/>
</radialGradient>
<linearGradient id="paint7_linear_862_12571" x1="2.00757e+06" y1="11269" x2="2.00757e+06" y2="9721.14" gradientUnits="userSpaceOnUse">
<stop stop-color="#FFDE43"/>
<stop offset="0.22" stop-color="#FED93F"/>
<stop offset="0.51" stop-color="#FCC934"/>
<stop offset="0.82" stop-color="#F9AF21"/>
<stop offset="1" stop-color="#F79D14"/>
</linearGradient>
<linearGradient id="paint8_linear_862_12571" x1="174.27" y1="237" x2="174.27" y2="343" gradientUnits="userSpaceOnUse">
<stop offset="0.471698" stop-color="#2D1300"/>
<stop offset="1" stop-color="#743C1C" stop-opacity="0"/>
</linearGradient>
<linearGradient id="paint9_linear_862_12571" x1="-310996" y1="11269" x2="-310996" y2="9721.14" gradientUnits="userSpaceOnUse">
<stop stop-color="#FFDE43"/>
<stop offset="0.22" stop-color="#FED93F"/>
<stop offset="0.51" stop-color="#FCC934"/>
<stop offset="0.82" stop-color="#F9AF21"/>
<stop offset="1" stop-color="#F79D14"/>
</linearGradient>
<linearGradient id="paint10_linear_862_12571" x1="339.711" y1="237" x2="339.711" y2="343" gradientUnits="userSpaceOnUse">
<stop offset="0.471698" stop-color="#2D1300"/>
<stop offset="1" stop-color="#743C1C" stop-opacity="0"/>
</linearGradient>
</defs>
</svg>
