<svg width="605" height="605" viewBox="0 0 605 605" fill="none" xmlns="http://www.w3.org/2000/svg">
<path d="M230.05 532.521C357.103 572.517 492.524 501.944 532.521 374.891C572.517 247.838 501.944 112.417 374.891 72.4203C247.838 32.4237 112.417 102.997 72.4204 230.05C32.4237 357.103 102.997 492.524 230.05 532.521Z" fill="url(#paint0_radial_862_12523)"/>
<g style="mix-blend-mode:soft-light">
<path d="M230.05 532.521C357.103 572.517 492.524 501.944 532.521 374.891C572.517 247.838 501.944 112.417 374.891 72.4203C247.838 32.4237 112.417 102.997 72.4204 230.05C32.4237 357.103 102.997 492.524 230.05 532.521Z" fill="url(#paint1_radial_862_12523)"/>
</g>
<g style="mix-blend-mode:soft-light">
<path d="M230.05 532.521C357.103 572.517 492.524 501.944 532.521 374.891C572.517 247.838 501.944 112.417 374.891 72.4203C247.838 32.4237 112.417 102.997 72.4204 230.05C32.4237 357.103 102.997 492.524 230.05 532.521Z" fill="url(#paint2_radial_862_12523)"/>
</g>
<g style="mix-blend-mode:overlay">
<path d="M230.05 532.521C357.103 572.517 492.524 501.944 532.521 374.891C572.517 247.838 501.944 112.417 374.891 72.4203C247.838 32.4237 112.417 102.997 72.4204 230.05C32.4237 357.103 102.997 492.524 230.05 532.521Z" fill="url(#paint3_radial_862_12523)" fill-opacity="0.7"/>
</g>
<mask id="mask0_862_12523" style="mask-type:alpha" maskUnits="userSpaceOnUse" x="61" y="61" width="483" height="483">
<path d="M230.05 532.521C357.103 572.517 492.524 501.944 532.521 374.891C572.517 247.838 501.944 112.417 374.891 72.4203C247.838 32.4237 112.417 102.997 72.4204 230.05C32.4237 357.103 102.997 492.524 230.05 532.521Z" fill="white"/>
</mask>
<g mask="url(#mask0_862_12523)">
<g filter="url(#filter0_f_862_12523)">
<path d="M73.1743 223.073C74.453 219.883 75.6318 219.894 74.9006 223.312C74.0884 227.109 71.077 234.31 69.8324 238.833C66.5369 250.809 65.111 261.676 64.3459 270.639C61.8804 299.523 64.7564 319.541 67.9068 336.726C78.2621 393.214 98.5857 426.566 120.125 453.66C151.698 493.376 189.412 514.72 229.297 529.285C230.303 529.652 228.38 536.354 227.104 536.903C224.802 537.894 223.047 535.639 221.215 534.991C215.952 533.129 210.744 531.088 205.597 528.86C190.333 522.252 175.606 513.946 161.55 503.616C123.333 475.53 85.0424 435.984 66.9036 352.842C65.7625 347.612 64.7153 342.153 63.8132 336.358C63.0917 331.724 62.4505 326.902 61.9358 321.799C60.243 305.014 57.3668 262.506 73.1743 223.073ZM226.923 536.925C225.94 536.648 227.645 530.373 228.978 529.379C230.993 527.876 232.591 530.139 234.099 530.512C240.361 532.062 246.68 533.425 253.062 534.587C270.558 537.772 288.513 539.458 307.043 539.183C353.005 538.502 404.368 531.575 463.929 479.366C467.719 476.044 471.567 472.464 475.485 468.547C487.389 456.644 517.89 424.7 530.532 377.034C531.598 373.015 533.551 371.022 533.021 374.59C532.346 379.133 529.228 388.066 527.527 392.806C522.082 407.987 515.629 420.243 509.835 429.958C491.473 460.746 474.326 476.55 459.113 489.465C409.667 531.442 367.219 541.277 327.636 545.486C292.133 549.26 258.633 545.842 226.923 536.925Z" fill="#401C02"/>
</g>
<g filter="url(#filter1_f_862_12523)">
<path d="M73.1743 223.073C74.453 219.883 75.6318 219.894 74.9006 223.312C74.0884 227.109 71.077 234.31 69.8324 238.833C66.5369 250.809 65.111 261.676 64.3459 270.639C61.8804 299.523 64.7564 319.541 67.9068 336.726C78.2621 393.214 98.5857 426.566 120.125 453.66C151.698 493.376 189.412 514.72 229.297 529.285C230.303 529.652 228.38 536.354 227.104 536.903C224.802 537.894 223.047 535.639 221.215 534.991C215.952 533.129 210.744 531.088 205.597 528.86C190.333 522.252 175.606 513.946 161.55 503.616C123.333 475.53 85.0424 435.984 66.9036 352.842C65.7625 347.612 64.7153 342.153 63.8132 336.358C63.0917 331.724 62.4505 326.902 61.9358 321.799C60.243 305.014 57.3668 262.506 73.1743 223.073ZM226.923 536.925C225.94 536.648 227.645 530.373 228.978 529.379C230.993 527.876 232.591 530.139 234.099 530.512C240.361 532.062 246.68 533.425 253.062 534.587C270.558 537.772 288.513 539.458 307.043 539.183C353.005 538.502 404.368 531.575 463.929 479.366C467.719 476.044 471.567 472.464 475.485 468.547C487.389 456.644 517.89 424.7 530.532 377.034C531.598 373.015 533.551 371.022 533.021 374.59C532.346 379.133 529.228 388.066 527.527 392.806C522.082 407.987 515.629 420.243 509.835 429.958C491.473 460.746 474.326 476.55 459.113 489.465C409.667 531.442 367.219 541.277 327.636 545.486C292.133 549.26 258.633 545.842 226.923 536.925Z" fill="#401C02"/>
</g>
</g>
<path d="M205.08 346.422C202.52 347.502 200.72 343.722 202.84 341.702L202.94 341.602C203.75 340.862 204.56 340.102 205.39 339.362C206.22 338.622 207.09 337.982 207.94 337.282C208.79 336.582 209.66 335.892 210.54 335.282L213.22 333.412C220.351 328.637 228.086 324.831 236.22 322.092C252.092 317.124 268.869 315.741 285.341 318.042C301.812 320.344 317.568 326.273 331.47 335.402C338.539 340.275 344.928 346.065 350.47 352.622L352.53 355.152C353.2 356.012 353.84 356.912 354.47 357.812C355.1 358.712 355.75 359.592 356.35 360.522C356.95 361.452 357.52 362.412 358.09 363.352L358.2 363.542C359.68 366.072 356.91 369.202 354.75 367.472C351.59 364.932 348.36 362.622 345.08 360.472C338.731 356.33 332.06 352.705 325.13 349.632C297.743 338.124 267.837 333.923 238.34 337.442C230.833 338.499 223.423 340.154 216.18 342.392C212.51 343.532 208.79 344.862 205.08 346.422Z" stroke="url(#paint4_linear_862_12523)" stroke-width="4.62" stroke-miterlimit="10"/>
<path d="M205.08 346.422C202.52 347.502 200.72 343.722 202.84 341.702L202.94 341.602C203.75 340.862 204.56 340.102 205.39 339.362C206.22 338.622 207.09 337.982 207.94 337.282C208.79 336.582 209.66 335.892 210.54 335.282L213.22 333.412C220.351 328.637 228.086 324.831 236.22 322.092C252.092 317.124 268.869 315.741 285.341 318.042C301.812 320.344 317.568 326.273 331.47 335.402C338.539 340.275 344.928 346.065 350.47 352.622L352.53 355.152C353.2 356.012 353.84 356.912 354.47 357.812C355.1 358.712 355.75 359.592 356.35 360.522C356.95 361.452 357.52 362.412 358.09 363.352L358.2 363.542C359.68 366.072 356.91 369.202 354.75 367.472C351.59 364.932 348.36 362.622 345.08 360.472C338.731 356.33 332.06 352.705 325.13 349.632C297.743 338.124 267.837 333.923 238.34 337.442C230.833 338.499 223.423 340.154 216.18 342.392C212.51 343.532 208.79 344.862 205.08 346.422Z" fill="url(#paint5_radial_862_12523)"/>
<path d="M236.6 250.921C232.831 252.443 228.876 253.452 224.84 253.921C209.36 255.831 195.48 249.591 183.48 240.241C170.07 229.791 153.81 250.561 167.21 261.001C192.21 280.471 226.92 288.091 255.21 271.001C269.36 262.441 254.46 242.341 240.36 249.391C239.134 249.968 237.879 250.478 236.6 250.921Z" fill="url(#paint6_radial_862_12523)"/>
<path d="M236.6 250.921C232.831 252.443 228.876 253.452 224.84 253.921C209.36 255.831 195.48 249.591 183.48 240.241C170.07 229.791 153.81 250.561 167.21 261.001C192.21 280.471 226.92 288.091 255.21 271.001C269.36 262.441 254.46 242.341 240.36 249.391C239.134 249.968 237.879 250.478 236.6 250.921V250.921Z" stroke="url(#paint7_linear_862_12523)" stroke-width="2" stroke-miterlimit="10"/>
<path d="M402.17 273.572C398.399 275.084 394.445 276.093 390.41 276.572C374.93 278.482 361.04 272.242 349.05 262.892C335.63 252.432 319.37 273.212 332.77 283.652C357.77 303.122 392.48 310.732 420.77 293.652C434.93 285.092 420.02 264.992 405.93 272.032C404.7 272.64 403.438 273.18 402.15 273.652L402.17 273.572Z" fill="url(#paint8_radial_862_12523)"/>
<path d="M402.17 273.572C398.399 275.084 394.445 276.093 390.41 276.572C374.93 278.482 361.04 272.242 349.05 262.892C335.63 252.432 319.37 273.212 332.77 283.652C357.77 303.122 392.48 310.732 420.77 293.652C434.93 285.092 420.02 264.992 405.93 272.032C404.7 272.64 403.438 273.18 402.15 273.652L402.17 273.572Z" stroke="url(#paint9_linear_862_12523)" stroke-width="2" stroke-miterlimit="10"/>
<path d="M230.6 156.741C225.6 163.141 194.04 200.681 155.1 185.491C153.874 185.04 152.838 184.186 152.164 183.068C151.489 181.949 151.216 180.635 151.39 179.341C151.544 178.399 151.983 177.526 152.648 176.842C153.313 176.157 154.172 175.692 155.11 175.511C165.86 172.511 188.11 180.161 217.11 157.711C219.64 155.711 221.98 153.591 224.3 151.401C225.96 149.821 228.71 147.791 230.85 149.091C232.68 150.211 232.62 152.161 232.21 153.681C231.885 154.799 231.338 155.84 230.6 156.741Z" fill="#42210B"/>
<path d="M390.3 181.921C394.45 188.921 420.87 230.211 461.45 220.201C462.724 219.913 463.862 219.2 464.674 218.178C465.487 217.156 465.927 215.887 465.92 214.581C465.892 213.626 465.571 212.703 465 211.937C464.429 211.172 463.637 210.6 462.73 210.301C452.46 205.921 429.4 210.641 403.57 184.631C401.348 182.34 399.246 179.937 397.27 177.431C395.82 175.651 393.36 173.281 391.07 174.301C389.07 175.171 388.91 177.121 389.07 178.681C389.261 179.832 389.679 180.933 390.3 181.921Z" fill="#42210B"/>
<mask id="mask1_862_12523" style="mask-type:alpha" maskUnits="userSpaceOnUse" x="61" y="61" width="483" height="483">
<g style="mix-blend-mode:overlay">
<path d="M230.05 532.521C357.103 572.517 492.524 501.944 532.521 374.891C572.517 247.838 501.944 112.417 374.891 72.4203C247.838 32.4237 112.417 102.997 72.4204 230.05C32.4237 357.103 102.997 492.524 230.05 532.521Z" fill="black"/>
</g>
</mask>
<g mask="url(#mask1_862_12523)">
<g filter="url(#filter2_f_862_12523)">
<path d="M303.669 379.433C299.869 369.833 288.969 365.433 279.569 369.533C234.269 389.533 189.969 410.233 146.369 433.033C145.869 433.233 145.469 433.533 144.969 433.733C132.769 440.233 117.669 435.833 110.769 423.933L89.9691 387.933C84.6691 378.633 72.8691 374.933 63.4691 379.933C53.5691 385.233 50.0691 397.533 55.6691 407.233L71.0691 433.833C78.6691 446.933 81.1691 462.733 82.1691 477.633C83.1691 493.033 80.8691 507.433 85.9691 522.533C92.8691 542.833 103.369 563.033 123.069 573.233C139.769 581.933 159.769 582.533 176.969 574.933L210.469 560.133L239.269 547.433C251.069 542.033 270.869 537.533 272.969 522.433C274.569 510.933 263.869 497.133 251.669 502.533C260.769 498.533 264.969 487.833 260.869 478.733C256.869 469.633 246.169 465.433 237.069 469.533C246.169 465.533 250.369 454.833 246.269 445.733C242.269 436.633 231.569 432.433 222.469 436.533L293.669 402.833C302.669 398.833 307.269 388.533 303.669 379.433Z" fill="#A73D00"/>
</g>
</g>
<path d="M291.669 379.433C287.869 369.833 276.969 365.433 267.569 369.533C222.269 389.533 177.969 410.233 134.369 433.033C133.869 433.233 133.469 433.533 132.969 433.733C120.769 440.233 105.669 435.833 98.7692 423.933L77.9692 387.933C72.6692 378.633 60.8692 374.933 51.4692 379.933C41.5692 385.233 38.0692 397.533 43.6692 407.233L59.0692 433.833C66.6692 446.933 69.1692 462.733 70.1692 477.633C71.1692 493.033 68.8692 507.433 73.9692 522.533C80.8692 542.833 91.3692 563.033 111.069 573.233C127.769 581.933 147.769 582.533 164.969 574.933L198.469 560.133L227.269 547.433C239.069 542.033 258.869 537.533 260.969 522.433C262.569 510.933 251.869 497.133 239.669 502.533C248.769 498.533 252.969 487.833 248.869 478.733C244.869 469.633 234.169 465.433 225.069 469.533C234.169 465.533 238.369 454.833 234.269 445.733C230.269 436.633 219.569 432.433 210.469 436.533L281.669 402.833C290.669 398.833 295.269 388.533 291.669 379.433Z" fill="url(#paint10_radial_862_12523)"/>
<mask id="mask2_862_12523" style="mask-type:alpha" maskUnits="userSpaceOnUse" x="41" y="368" width="252" height="213">
<path d="M291.669 379.433C287.869 369.833 276.969 365.433 267.569 369.533C222.269 389.533 177.969 410.233 134.369 433.033C133.869 433.233 133.469 433.533 132.969 433.733C120.769 440.233 105.669 435.833 98.7692 423.933L77.9692 387.933C72.6692 378.633 60.8692 374.933 51.4692 379.933C41.5692 385.233 38.0692 397.533 43.6692 407.233L59.0692 433.833C66.6692 446.933 69.1692 462.733 70.1692 477.633C71.1692 493.033 68.8692 507.433 73.9692 522.533C80.8692 542.833 91.3692 563.033 111.069 573.233C127.769 581.933 147.769 582.533 164.969 574.933L198.469 560.133L227.269 547.433C239.069 542.033 258.869 537.533 260.969 522.433C262.569 510.933 251.869 497.133 239.669 502.533C248.769 498.533 252.969 487.833 248.869 478.733C244.869 469.633 234.169 465.433 225.069 469.533C234.169 465.533 238.369 454.833 234.269 445.733C230.269 436.633 219.569 432.433 210.469 436.533L281.669 402.833C290.669 398.833 295.269 388.533 291.669 379.433Z" fill="white"/>
</mask>
<g mask="url(#mask2_862_12523)">
<g opacity="0.6">
<g opacity="0.6" filter="url(#filter3_f_862_12523)">
<path d="M164.969 574.933L198.469 559.633L215.269 552.033L223.669 548.233C226.469 546.933 229.269 545.633 232.169 544.533C237.869 542.233 243.569 540.033 248.669 536.933C251.169 535.333 253.569 533.533 255.469 531.433C257.369 529.233 258.769 526.733 259.369 523.933C260.669 518.433 258.769 512.333 255.069 508.033C253.169 505.933 250.869 504.233 248.269 503.533C245.669 502.733 242.869 503.033 240.369 504.233L239.069 501.333C242.969 499.533 246.169 496.233 247.669 492.233C249.169 488.233 249.069 483.633 247.269 479.733C245.569 475.833 242.169 472.733 238.269 471.233C234.269 469.733 229.769 469.833 225.969 471.633L224.369 467.933C228.269 466.233 231.269 462.933 232.769 459.033C234.269 455.133 234.169 450.633 232.469 446.833C230.769 443.033 227.569 439.933 223.669 438.433C219.769 436.933 215.369 437.033 211.569 438.733L209.669 434.633L266.669 407.533L280.869 400.733C285.069 398.833 288.369 395.133 289.769 390.833C291.169 386.533 290.569 381.633 288.069 377.833C285.669 374.033 281.369 371.433 276.869 370.833C274.669 370.533 272.369 370.733 270.169 371.433L268.569 372.033L266.769 372.833L263.169 374.433L248.769 380.833C239.169 385.133 229.669 389.433 220.069 393.833C201.069 402.633 182.069 411.633 163.269 420.933C153.869 425.633 144.469 430.333 135.169 435.133C134.069 435.733 132.669 436.333 131.369 436.933L129.369 437.633C128.669 437.833 127.969 438.033 127.269 438.133C124.469 438.733 121.669 438.933 118.769 438.733C115.969 438.433 113.169 437.733 110.569 436.733C107.969 435.633 105.569 434.133 103.369 432.333C102.269 431.433 101.269 430.433 100.369 429.333C99.4692 428.233 98.5692 427.133 97.8692 425.933C97.0692 424.733 96.4692 423.633 95.8692 422.433L93.8692 418.933L86.0692 405.233L78.2692 391.533L77.2692 389.833C76.9692 389.233 76.6692 388.633 76.2692 388.133C75.9692 387.633 75.6692 387.133 75.2692 386.633C74.8692 386.133 74.5692 385.633 74.0692 385.233C72.4692 383.433 70.4692 381.933 68.2692 380.933C63.8692 378.833 58.5692 378.533 54.0692 380.233C49.4692 381.933 45.6692 385.633 43.6692 390.133C41.6692 394.633 41.5692 400.033 43.4692 404.633C43.9692 405.733 44.5692 406.833 45.1692 408.033L47.0692 411.433L50.9692 418.333L58.6692 432.033C59.9692 434.333 61.1692 436.733 62.2692 439.133C63.3692 441.533 64.2692 444.033 65.0692 446.533C68.2692 456.633 69.4692 467.133 70.0692 477.633C69.1692 467.133 67.5692 456.733 64.1692 446.833C63.2692 444.333 62.3692 441.933 61.2692 439.533C60.1692 437.133 58.8692 434.933 57.5692 432.633L49.5692 419.033L45.5692 412.233L43.5692 408.833C42.8692 407.733 42.1692 406.533 41.6692 405.233C39.4692 400.133 39.3692 394.133 41.4692 389.033C43.5692 383.833 47.8692 379.633 53.1692 377.533C58.3692 375.433 64.4692 375.733 69.5692 378.033C72.1692 379.233 74.4692 380.833 76.3692 382.933C76.8692 383.433 77.2692 384.033 77.7692 384.533C78.2692 385.033 78.5692 385.633 78.9692 386.233C79.3692 386.833 79.6692 387.433 80.0692 387.933L81.0692 389.633L89.0692 403.233L97.0692 416.833L99.0692 420.233C99.7692 421.333 100.369 422.533 101.069 423.533C101.669 424.633 102.469 425.533 103.269 426.433C104.169 427.333 104.969 428.233 105.869 428.933C107.769 430.433 109.869 431.733 112.069 432.633C114.369 433.533 116.669 434.033 119.169 434.233C121.569 434.433 123.969 434.133 126.369 433.633C126.969 433.433 127.569 433.333 128.069 433.133L129.769 432.533C130.369 432.333 130.869 432.033 131.369 431.733C131.869 431.533 132.469 431.233 133.069 430.833C142.369 425.933 151.769 421.133 161.169 416.333C179.969 406.833 198.869 397.633 217.969 388.833C227.469 384.433 237.069 380.033 246.669 375.733L261.069 369.233L264.669 367.633L266.469 366.833C267.169 366.533 267.869 366.333 268.569 366.033C271.369 365.133 274.469 364.833 277.469 365.233C283.369 365.933 288.969 369.433 292.169 374.433C293.769 376.933 294.869 379.833 295.269 382.833C295.669 385.833 295.369 388.833 294.469 391.733C292.669 397.433 288.269 402.233 282.869 404.533L268.569 411.233L211.469 438.533L209.569 434.433C214.469 432.333 220.169 432.133 225.069 434.133C230.069 436.033 234.169 440.033 236.269 444.833C238.369 449.633 238.469 455.333 236.569 460.333C234.669 465.233 230.669 469.333 225.869 471.433L224.269 467.733C229.069 465.633 234.769 465.533 239.569 467.533C244.469 469.433 248.469 473.333 250.569 478.133C252.669 482.933 252.769 488.533 250.769 493.333C248.869 498.133 244.969 502.133 240.269 504.133L238.969 501.233C242.069 499.833 245.769 499.533 249.069 500.533C252.369 501.533 255.169 503.633 257.269 506.133C259.369 508.633 260.869 511.633 261.769 514.833C262.569 517.933 262.769 521.433 261.969 524.633C261.169 527.833 259.469 530.833 257.269 533.233C255.069 535.633 252.469 537.533 249.769 539.033C244.269 542.133 238.469 544.233 232.769 546.433C229.869 547.533 227.169 548.733 224.269 549.933L215.769 553.533L198.869 560.733L164.969 574.933Z" fill="#8E1100"/>
</g>
</g>
</g>
<mask id="mask3_862_12523" style="mask-type:alpha" maskUnits="userSpaceOnUse" x="41" y="368" width="252" height="213">
<path d="M291.669 379.433C287.869 369.833 276.969 365.433 267.569 369.533C222.269 389.533 177.969 410.233 134.369 433.033C133.869 433.233 133.469 433.533 132.969 433.733C120.769 440.233 105.669 435.833 98.7692 423.933L77.9692 387.933C72.6692 378.633 60.8692 374.933 51.4692 379.933C41.5692 385.233 38.0692 397.533 43.6692 407.233L59.0692 433.833C66.6692 446.933 69.1692 462.733 70.1692 477.633C71.1692 493.033 68.8692 507.433 73.9692 522.533C80.8692 542.833 91.3692 563.033 111.069 573.233C127.769 581.933 147.769 582.533 164.969 574.933L198.469 560.133L227.269 547.433C239.069 542.033 258.869 537.533 260.969 522.433C262.569 510.933 251.869 497.133 239.669 502.533C248.769 498.533 252.969 487.833 248.869 478.733C244.869 469.633 234.169 465.433 225.069 469.533C234.169 465.533 238.369 454.833 234.269 445.733C230.269 436.633 219.569 432.433 210.469 436.533L281.669 402.833C290.669 398.833 295.269 388.533 291.669 379.433Z" fill="white"/>
</mask>
<g mask="url(#mask3_862_12523)">
<g filter="url(#filter4_f_862_12523)">
<path d="M164.969 574.933L198.469 559.633L215.269 552.033L223.669 548.233C226.469 546.933 229.269 545.633 232.169 544.533C237.869 542.233 243.569 540.033 248.669 536.933C251.169 535.333 253.569 533.533 255.469 531.433C257.369 529.233 258.769 526.733 259.369 523.933C260.669 518.433 258.769 512.333 255.069 508.033C253.169 505.933 250.869 504.233 248.269 503.533C245.669 502.733 242.869 503.033 240.369 504.233L239.069 501.333C242.969 499.533 246.169 496.233 247.669 492.233C249.169 488.233 249.069 483.633 247.269 479.733C245.569 475.833 242.169 472.733 238.269 471.233C234.269 469.733 229.769 469.833 225.969 471.633L224.369 467.933C228.269 466.233 231.269 462.933 232.769 459.033C234.269 455.133 234.169 450.633 232.469 446.833C230.769 443.033 227.569 439.933 223.669 438.433C219.769 436.933 215.369 437.033 211.569 438.733L209.669 434.633L266.669 407.533L280.869 400.733C285.069 398.833 288.369 395.133 289.769 390.833C291.169 386.533 290.569 381.633 288.069 377.833C285.669 374.033 281.369 371.433 276.869 370.833C274.669 370.533 272.369 370.733 270.169 371.433L268.569 372.033L266.769 372.833L263.169 374.433L248.769 380.833C239.169 385.133 229.669 389.433 220.069 393.833C201.069 402.633 182.069 411.633 163.269 420.933C153.869 425.633 144.469 430.333 135.169 435.133C134.069 435.733 132.669 436.333 131.369 436.933L129.369 437.633C128.669 437.833 127.969 438.033 127.269 438.133C124.469 438.733 121.669 438.933 118.769 438.733C115.969 438.433 113.169 437.733 110.569 436.733C107.969 435.633 105.569 434.133 103.369 432.333C102.269 431.433 101.269 430.433 100.369 429.333C99.4692 428.233 98.5692 427.133 97.8692 425.933C97.0692 424.733 96.4692 423.633 95.8692 422.433L93.8692 418.933L86.0692 405.233L78.2692 391.533L77.2692 389.833C76.9692 389.233 76.6692 388.633 76.2692 388.133C75.9692 387.633 75.6692 387.133 75.2692 386.633C74.8692 386.133 74.5692 385.633 74.0692 385.233C72.4692 383.433 70.4692 381.933 68.2692 380.933C63.8692 378.833 58.5692 378.533 54.0692 380.233C49.4692 381.933 45.6692 385.633 43.6692 390.133C41.6692 394.633 41.5692 400.033 43.4692 404.633C43.9692 405.733 44.5692 406.833 45.1692 408.033L47.0692 411.433L50.9692 418.333L58.6692 432.033C59.9692 434.333 61.1692 436.733 62.2692 439.133C63.3692 441.533 64.2692 444.033 65.0692 446.533C68.2692 456.633 69.4692 467.133 70.0692 477.633C69.1692 467.133 67.5692 456.733 64.1692 446.833C63.2692 444.333 62.3692 441.933 61.2692 439.533C60.1692 437.133 58.8692 434.933 57.5692 432.633L49.5692 419.033L45.5692 412.233L43.5692 408.833C42.8692 407.733 42.1692 406.533 41.6692 405.233C39.4692 400.133 39.3692 394.133 41.4692 389.033C43.5692 383.833 47.8692 379.633 53.1692 377.533C58.3692 375.433 64.4692 375.733 69.5692 378.033C72.1692 379.233 74.4692 380.833 76.3692 382.933C76.8692 383.433 77.2692 384.033 77.7692 384.533C78.2692 385.033 78.5692 385.633 78.9692 386.233C79.3692 386.833 79.6692 387.433 80.0692 387.933L81.0692 389.633L89.0692 403.233L97.0692 416.833L99.0692 420.233C99.7692 421.333 100.369 422.533 101.069 423.533C101.669 424.633 102.469 425.533 103.269 426.433C104.169 427.333 104.969 428.233 105.869 428.933C107.769 430.433 109.869 431.733 112.069 432.633C114.369 433.533 116.669 434.033 119.169 434.233C121.569 434.433 123.969 434.133 126.369 433.633C126.969 433.433 127.569 433.333 128.069 433.133L129.769 432.533C130.369 432.333 130.869 432.033 131.369 431.733C131.869 431.533 132.469 431.233 133.069 430.833C142.369 425.933 151.769 421.133 161.169 416.333C179.969 406.833 198.869 397.633 217.969 388.833C227.469 384.433 237.069 380.033 246.669 375.733L261.069 369.233L264.669 367.633L266.469 366.833C267.169 366.533 267.869 366.333 268.569 366.033C271.369 365.133 274.469 364.833 277.469 365.233C283.369 365.933 288.969 369.433 292.169 374.433C293.769 376.933 294.869 379.833 295.269 382.833C295.669 385.833 295.369 388.833 294.469 391.733C292.669 397.433 288.269 402.233 282.869 404.533L268.569 411.233L211.469 438.533L209.569 434.433C214.469 432.333 220.169 432.133 225.069 434.133C230.069 436.033 234.169 440.033 236.269 444.833C238.369 449.633 238.469 455.333 236.569 460.333C234.669 465.233 230.669 469.333 225.869 471.433L224.269 467.733C229.069 465.633 234.769 465.533 239.569 467.533C244.469 469.433 248.469 473.333 250.569 478.133C252.669 482.933 252.769 488.533 250.769 493.333C248.869 498.133 244.969 502.133 240.269 504.133L238.969 501.233C242.069 499.833 245.769 499.533 249.069 500.533C252.369 501.533 255.169 503.633 257.269 506.133C259.369 508.633 260.869 511.633 261.769 514.833C262.569 517.933 262.769 521.433 261.969 524.633C261.169 527.833 259.469 530.833 257.269 533.233C255.069 535.633 252.469 537.533 249.769 539.033C244.269 542.133 238.469 544.233 232.769 546.433C229.869 547.533 227.169 548.733 224.269 549.933L215.769 553.533L198.869 560.733L164.969 574.933Z" fill="#BD4400"/>
</g>
</g>
<mask id="mask4_862_12523" style="mask-type:alpha" maskUnits="userSpaceOnUse" x="41" y="368" width="252" height="213">
<path d="M291.669 379.433C287.869 369.833 276.969 365.433 267.569 369.533C222.269 389.533 177.969 410.233 134.369 433.033C133.869 433.233 133.469 433.533 132.969 433.733C120.769 440.233 105.669 435.833 98.7692 423.933L77.9692 387.933C72.6692 378.633 60.8692 374.933 51.4692 379.933C41.5692 385.233 38.0692 397.533 43.6692 407.233L59.0692 433.833C66.6692 446.933 69.1692 462.733 70.1692 477.633C71.1692 493.033 68.8692 507.433 73.9692 522.533C80.8692 542.833 91.3692 563.033 111.069 573.233C127.769 581.933 147.769 582.533 164.969 574.933L198.469 560.133L227.269 547.433C239.069 542.033 258.869 537.533 260.969 522.433C262.569 510.933 251.869 497.133 239.669 502.533C248.769 498.533 252.969 487.833 248.869 478.733C244.869 469.633 234.169 465.433 225.069 469.533C234.169 465.533 238.369 454.833 234.269 445.733C230.269 436.633 219.569 432.433 210.469 436.533L281.669 402.833C290.669 398.833 295.269 388.533 291.669 379.433Z" fill="white"/>
</mask>
<g mask="url(#mask4_862_12523)">
<g filter="url(#filter5_f_862_12523)">
<path d="M76.3693 435.833C76.3693 435.833 115.169 499.433 198.869 437.333" stroke="#FFFDA9" stroke-width="20" stroke-miterlimit="10"/>
</g>
</g>
<path d="M291.669 379.433C287.869 369.833 276.969 365.433 267.569 369.533C222.269 389.533 177.969 410.233 134.369 433.033C133.869 433.233 133.469 433.533 132.969 433.733C120.769 440.233 105.669 435.833 98.7692 423.933L77.9692 387.933C72.6692 378.633 60.8692 374.933 51.4692 379.933C41.5692 385.233 38.0692 397.533 43.6692 407.233L59.0692 433.833C66.6692 446.933 69.1692 462.733 70.1692 477.633C71.1692 493.033 68.8692 507.433 73.9692 522.533C80.8692 542.833 91.3692 563.033 111.069 573.233C127.769 581.933 147.769 582.533 164.969 574.933L198.469 560.133L227.269 547.433C239.069 542.033 258.869 537.533 260.969 522.433C262.569 510.933 251.869 497.133 239.669 502.533C248.769 498.533 252.969 487.833 248.869 478.733C244.869 469.633 234.169 465.433 225.069 469.533C234.169 465.533 238.369 454.833 234.269 445.733C230.269 436.633 219.569 432.433 210.469 436.533L281.669 402.833C290.669 398.833 295.269 388.533 291.669 379.433Z" fill="url(#paint11_linear_862_12523)"/>
<defs>
<filter id="filter0_f_862_12523" x="35.5743" y="195.714" width="522.536" height="376.289" filterUnits="userSpaceOnUse" color-interpolation-filters="sRGB">
<feFlood flood-opacity="0" result="BackgroundImageFix"/>
<feBlend mode="normal" in="SourceGraphic" in2="BackgroundImageFix" result="shape"/>
<feGaussianBlur stdDeviation="12.5" result="effect1_foregroundBlur_862_12523"/>
</filter>
<filter id="filter1_f_862_12523" x="20.5743" y="180.714" width="552.536" height="406.289" filterUnits="userSpaceOnUse" color-interpolation-filters="sRGB">
<feFlood flood-opacity="0" result="BackgroundImageFix"/>
<feBlend mode="normal" in="SourceGraphic" in2="BackgroundImageFix" result="shape"/>
<feGaussianBlur stdDeviation="20" result="effect1_foregroundBlur_862_12523"/>
</filter>
<filter id="filter2_f_862_12523" x="-7.00012" y="308" width="371.898" height="332.226" filterUnits="userSpaceOnUse" color-interpolation-filters="sRGB">
<feFlood flood-opacity="0" result="BackgroundImageFix"/>
<feBlend mode="normal" in="SourceGraphic" in2="BackgroundImageFix" result="shape"/>
<feGaussianBlur stdDeviation="30" result="effect1_foregroundBlur_862_12523"/>
</filter>
<filter id="filter3_f_862_12523" x="29.9547" y="355.06" width="275.488" height="229.874" filterUnits="userSpaceOnUse" color-interpolation-filters="sRGB">
<feFlood flood-opacity="0" result="BackgroundImageFix"/>
<feBlend mode="normal" in="SourceGraphic" in2="BackgroundImageFix" result="shape"/>
<feGaussianBlur stdDeviation="5" result="effect1_foregroundBlur_862_12523"/>
</filter>
<filter id="filter4_f_862_12523" x="27.9547" y="353.06" width="279.488" height="233.874" filterUnits="userSpaceOnUse" color-interpolation-filters="sRGB">
<feFlood flood-opacity="0" result="BackgroundImageFix"/>
<feBlend mode="normal" in="SourceGraphic" in2="BackgroundImageFix" result="shape"/>
<feGaussianBlur stdDeviation="6" result="effect1_foregroundBlur_862_12523"/>
</filter>
<filter id="filter5_f_862_12523" x="17.8398" y="379.302" width="236.988" height="145.254" filterUnits="userSpaceOnUse" color-interpolation-filters="sRGB">
<feFlood flood-opacity="0" result="BackgroundImageFix"/>
<feBlend mode="normal" in="SourceGraphic" in2="BackgroundImageFix" result="shape"/>
<feGaussianBlur stdDeviation="25" result="effect1_foregroundBlur_862_12523"/>
</filter>
<radialGradient id="paint0_radial_862_12523" cx="0" cy="0" r="1" gradientUnits="userSpaceOnUse" gradientTransform="translate(374.719 72.3663) rotate(107.474) scale(482)">
<stop stop-color="#FFDE43"/>
<stop offset="1" stop-color="#FFBC00"/>
</radialGradient>
<radialGradient id="paint1_radial_862_12523" cx="0" cy="0" r="1" gradientUnits="userSpaceOnUse" gradientTransform="translate(355.351 133.89) rotate(107.474) scale(417.5)">
<stop stop-color="white" stop-opacity="0.5"/>
<stop offset="0.782278"/>
</radialGradient>
<radialGradient id="paint2_radial_862_12523" cx="0" cy="0" r="1" gradientUnits="userSpaceOnUse" gradientTransform="translate(355.351 133.89) rotate(107.474) scale(417.5)">
<stop stop-color="white" stop-opacity="0.5"/>
<stop offset="0.782278"/>
</radialGradient>
<radialGradient id="paint3_radial_862_12523" cx="0" cy="0" r="1" gradientUnits="userSpaceOnUse" gradientTransform="translate(390.484 22.2891) rotate(107.474) scale(534.5 722.835)">
<stop offset="0.0922635" stop-color="white"/>
<stop offset="0.670207" stop-color="white" stop-opacity="0"/>
</radialGradient>
<linearGradient id="paint4_linear_862_12523" x1="280.261" y1="369.406" x2="280.261" y2="315.319" gradientUnits="userSpaceOnUse">
<stop offset="0.265625" stop-color="#FFDE43"/>
<stop offset="1" stop-color="#F79D14"/>
</linearGradient>
<radialGradient id="paint5_radial_862_12523" cx="0" cy="0" r="1" gradientUnits="userSpaceOnUse" gradientTransform="translate(280.261 342.363) scale(59.1452 51.5229)">
<stop stop-color="#743C1C"/>
<stop offset="1" stop-color="#401C02"/>
</radialGradient>
<radialGradient id="paint6_radial_862_12523" cx="0" cy="0" r="1" gradientUnits="userSpaceOnUse" gradientTransform="translate(211.492 258.919) scale(62.9219 21.5902)">
<stop stop-color="#743C1C"/>
<stop offset="1" stop-color="#401C02"/>
</radialGradient>
<linearGradient id="paint7_linear_862_12523" x1="211.56" y1="281.699" x2="211.56" y2="235.994" gradientUnits="userSpaceOnUse">
<stop stop-color="#FFDE43"/>
<stop offset="0.22" stop-color="#FED93F"/>
<stop offset="0.51" stop-color="#FCC934"/>
<stop offset="0.82" stop-color="#F9AF21"/>
<stop offset="1" stop-color="#F79D14"/>
</linearGradient>
<radialGradient id="paint8_radial_862_12523" cx="0" cy="0" r="1" gradientUnits="userSpaceOnUse" gradientTransform="translate(377.055 281.565) scale(62.9248 21.5899)">
<stop stop-color="#743C1C"/>
<stop offset="1" stop-color="#401C02"/>
</radialGradient>
<linearGradient id="paint9_linear_862_12523" x1="377.123" y1="304.345" x2="377.123" y2="258.64" gradientUnits="userSpaceOnUse">
<stop stop-color="#FFDE43"/>
<stop offset="0.22" stop-color="#FED93F"/>
<stop offset="0.51" stop-color="#FCC934"/>
<stop offset="0.82" stop-color="#F9AF21"/>
<stop offset="1" stop-color="#F79D14"/>
</linearGradient>
<radialGradient id="paint10_radial_862_12523" cx="0" cy="0" r="1" gradientUnits="userSpaceOnUse" gradientTransform="translate(184.604 322.862) rotate(-18.5292) scale(237.357 237.357)">
<stop offset="0.233" stop-color="#FFDE43"/>
<stop offset="0.3895" stop-color="#FCD33A"/>
<stop offset="0.6616" stop-color="#F4B723"/>
<stop offset="1" stop-color="#E88B00"/>
</radialGradient>
<linearGradient id="paint11_linear_862_12523" x1="166.949" y1="368" x2="88" y2="580" gradientUnits="userSpaceOnUse">
<stop stop-color="#FFB200" stop-opacity="0"/>
<stop offset="0.899868" stop-color="#F67A01"/>
</linearGradient>
</defs>
</svg>
