<svg width="483" height="483" viewBox="0 0 483 483" fill="none" xmlns="http://www.w3.org/2000/svg">
<path d="M241.18 482.36C374.38 482.36 482.36 374.38 482.36 241.18C482.36 107.98 374.38 0 241.18 0C107.98 0 0 107.98 0 241.18C0 374.38 107.98 482.36 241.18 482.36Z" fill="url(#paint0_radial_862_12451)"/>
<g style="mix-blend-mode:soft-light">
<path d="M241.18 482.36C374.38 482.36 482.36 374.38 482.36 241.18C482.36 107.98 374.38 0 241.18 0C107.98 0 0 107.98 0 241.18C0 374.38 107.98 482.36 241.18 482.36Z" fill="url(#paint1_radial_862_12451)"/>
</g>
<g style="mix-blend-mode:soft-light">
<path d="M241.18 482.36C374.38 482.36 482.36 374.38 482.36 241.18C482.36 107.98 374.38 0 241.18 0C107.98 0 0 107.98 0 241.18C0 374.38 107.98 482.36 241.18 482.36Z" fill="url(#paint2_radial_862_12451)"/>
</g>
<g style="mix-blend-mode:overlay">
<path d="M241.18 482.36C374.38 482.36 482.36 374.38 482.36 241.18C482.36 107.98 374.38 0 241.18 0C107.98 0 0 107.98 0 241.18C0 374.38 107.98 482.36 241.18 482.36Z" fill="url(#paint3_radial_862_12451)" fill-opacity="0.7"/>
</g>
<mask id="mask0_862_12451" style="mask-type:alpha" maskUnits="userSpaceOnUse" x="0" y="0" width="483" height="483">
<path d="M241.18 482.36C374.38 482.36 482.36 374.38 482.36 241.18C482.36 107.98 374.38 0 241.18 0C107.98 0 0 107.98 0 241.18C0 374.38 107.98 482.36 241.18 482.36Z" fill="white"/>
</mask>
<g mask="url(#mask0_862_12451)">
<g filter="url(#filter0_f_862_12451)">
<path d="M-1.3759 234.299C-1.11402 230.872 0.0137008 230.529 0.342619 234.009C0.708055 237.875 -0.00231624 245.647 0.16871 250.335C0.621554 262.748 2.52441 273.542 4.48605 282.321C10.8075 310.613 19.5617 328.843 27.7268 344.289C54.5663 395.061 83.9667 420.771 112.648 440.147C154.689 468.55 197.072 477.584 239.49 479.5C240.56 479.549 240.738 486.518 239.686 487.425C237.788 489.062 235.436 487.438 233.494 487.37C227.915 487.174 222.335 486.791 216.756 486.211C200.213 484.492 183.67 480.991 167.162 475.359C122.275 460.044 73.8765 433.821 31.6092 359.962C28.9502 355.316 26.3124 350.424 23.7118 345.168C21.6321 340.964 19.5726 336.557 17.5493 331.844C10.8946 316.342 -4.61323 276.659 -1.3759 234.299ZM239.52 487.5C238.499 487.532 238.241 481.035 239.214 479.686C240.684 477.647 242.888 479.326 244.439 479.229C250.877 478.827 257.314 478.23 263.75 477.422C281.395 475.206 299.028 471.423 316.621 465.596C360.257 451.146 407.17 429.116 448.305 361.431C450.923 357.124 453.518 352.554 456.079 347.641C463.86 332.713 483.361 293.085 481.107 243.821C480.917 239.669 482.181 237.181 482.747 240.744C483.467 245.28 483.175 254.736 482.977 259.768C482.341 275.884 479.866 289.512 477.257 300.518C468.987 335.399 457.376 355.623 446.744 372.51C412.184 427.397 374.648 449.524 338.155 465.425C305.424 479.686 272.444 486.484 239.52 487.5Z" fill="#401C02"/>
</g>
<g filter="url(#filter1_f_862_12451)">
<path d="M-1.3759 234.299C-1.11402 230.872 0.0137008 230.529 0.342619 234.009C0.708055 237.875 -0.00231624 245.647 0.16871 250.335C0.621554 262.748 2.52441 273.542 4.48605 282.321C10.8075 310.613 19.5617 328.843 27.7268 344.289C54.5663 395.061 83.9667 420.771 112.648 440.147C154.689 468.55 197.072 477.584 239.49 479.5C240.56 479.549 240.738 486.518 239.686 487.425C237.788 489.062 235.436 487.438 233.494 487.37C227.915 487.174 222.335 486.791 216.756 486.211C200.213 484.492 183.67 480.991 167.162 475.359C122.275 460.044 73.8765 433.821 31.6092 359.962C28.9502 355.316 26.3124 350.424 23.7118 345.168C21.6321 340.964 19.5726 336.557 17.5493 331.844C10.8946 316.342 -4.61323 276.659 -1.3759 234.299ZM239.52 487.5C238.499 487.532 238.241 481.035 239.214 479.686C240.684 477.647 242.888 479.326 244.439 479.229C250.877 478.827 257.314 478.23 263.75 477.422C281.395 475.206 299.028 471.423 316.621 465.596C360.257 451.146 407.17 429.116 448.305 361.431C450.923 357.124 453.518 352.554 456.079 347.641C463.86 332.713 483.361 293.085 481.107 243.821C480.917 239.669 482.181 237.181 482.747 240.744C483.467 245.28 483.175 254.736 482.977 259.768C482.341 275.884 479.866 289.512 477.257 300.518C468.987 335.399 457.376 355.623 446.744 372.51C412.184 427.397 374.648 449.524 338.155 465.425C305.424 479.686 272.444 486.484 239.52 487.5Z" fill="#401C02"/>
</g>
</g>
<path d="M311.945 344.24C312.332 343.936 312.806 343.763 313.297 343.744C313.789 343.726 314.274 343.864 314.683 344.138C315.091 344.412 315.402 344.809 315.572 345.271C315.741 345.733 315.76 346.237 315.625 346.71C307.325 378.32 277.235 401.71 241.355 401.71C205.475 401.71 175.355 378.27 167.085 346.64C166.954 346.167 166.975 345.665 167.145 345.205C167.316 344.746 167.627 344.351 168.035 344.079C168.443 343.806 168.926 343.669 169.417 343.687C169.907 343.705 170.379 343.878 170.765 344.18C188.605 357.83 213.655 366.33 241.355 366.33C269.055 366.33 294.095 357.86 311.945 344.24Z" fill="url(#paint4_radial_862_12451)"/>
<path d="M311.945 344.24C312.332 343.936 312.806 343.763 313.297 343.744C313.789 343.726 314.274 343.864 314.683 344.138C315.091 344.412 315.402 344.809 315.572 345.271C315.741 345.733 315.76 346.237 315.625 346.71C307.325 378.32 277.235 401.71 241.355 401.71C205.475 401.71 175.355 378.27 167.085 346.64C166.954 346.167 166.975 345.665 167.145 345.205C167.316 344.746 167.627 344.351 168.035 344.079C168.443 343.806 168.926 343.669 169.417 343.687C169.907 343.705 170.379 343.878 170.765 344.18C188.605 357.83 213.655 366.33 241.355 366.33C269.055 366.33 294.095 357.86 311.945 344.24Z" stroke="url(#paint5_linear_862_12451)" stroke-width="2.5" stroke-miterlimit="10"/>
<path d="M199.2 212.49C200.116 213.407 200.734 214.579 200.973 215.853C201.212 217.126 201.061 218.443 200.54 219.63C188.7 246.85 160.92 265.97 128.54 265.97C96.1603 265.97 68.4103 246.86 56.5403 219.63C56.0205 218.442 55.8713 217.125 56.1121 215.851C56.353 214.577 56.9727 213.406 57.8903 212.49C59.0718 211.326 60.6565 210.664 62.3143 210.64C63.9721 210.615 65.5754 211.231 66.7903 212.36C81.5703 225.72 103.73 234.21 128.51 234.21C153.29 234.21 175.51 225.72 190.24 212.35C191.459 211.22 193.065 210.603 194.726 210.628C196.388 210.652 197.975 211.315 199.16 212.48L199.2 212.49Z" fill="url(#paint6_radial_862_12451)"/>
<path d="M423.76 212.49C424.672 213.409 425.288 214.581 425.527 215.854C425.766 217.127 425.617 218.442 425.1 219.63C413.25 246.85 385.48 265.97 353.1 265.97C320.72 265.97 292.98 246.86 281.1 219.63C280.583 218.441 280.435 217.125 280.676 215.852C280.917 214.578 281.535 213.407 282.45 212.49C283.633 211.326 285.219 210.663 286.879 210.639C288.538 210.614 290.143 211.231 291.36 212.36C306.13 225.72 328.29 234.21 353.07 234.21C377.85 234.21 400.07 225.72 414.81 212.35C416.027 211.221 417.632 210.604 419.291 210.629C420.951 210.653 422.537 211.316 423.72 212.48L423.76 212.49Z" fill="url(#paint7_radial_862_12451)"/>
<path d="M199.2 212.49C200.116 213.407 200.734 214.579 200.973 215.853C201.212 217.126 201.061 218.443 200.54 219.63C188.7 246.85 160.92 265.97 128.54 265.97C96.1603 265.97 68.4103 246.86 56.5403 219.63C56.0205 218.442 55.8713 217.125 56.1121 215.851C56.353 214.577 56.9727 213.406 57.8903 212.49V212.49C59.0718 211.326 60.6565 210.664 62.3143 210.64C63.9721 210.615 65.5754 211.231 66.7903 212.36C81.5703 225.72 103.73 234.21 128.51 234.21C153.29 234.21 175.51 225.72 190.24 212.35C191.459 211.22 193.065 210.603 194.726 210.628C196.388 210.652 197.975 211.315 199.16 212.48L199.2 212.49Z" stroke="url(#paint8_linear_862_12451)" stroke-width="2" stroke-miterlimit="10"/>
<path d="M423.76 212.49C424.672 213.409 425.288 214.581 425.527 215.854C425.766 217.127 425.617 218.442 425.1 219.63C413.25 246.85 385.48 265.97 353.1 265.97C320.72 265.97 292.98 246.86 281.1 219.63C280.583 218.441 280.435 217.125 280.676 215.852C280.917 214.578 281.535 213.407 282.45 212.49V212.49C283.633 211.326 285.219 210.663 286.879 210.639C288.538 210.614 290.143 211.231 291.36 212.36C306.13 225.72 328.29 234.21 353.07 234.21C377.85 234.21 400.07 225.72 414.81 212.35C416.027 211.221 417.632 210.604 419.291 210.629C420.951 210.653 422.537 211.316 423.72 212.48L423.76 212.49Z" stroke="url(#paint9_linear_862_12451)" stroke-width="2" stroke-miterlimit="10"/>
<path d="M424.47 179.55C419.98 170.4 391.05 116.15 339.34 124.64C337.719 124.872 336.226 125.651 335.107 126.847C333.989 128.044 333.313 129.586 333.19 131.22C333.1 133.22 333.89 135.38 336.76 136.89C349.15 143.38 378.45 139.77 408.15 174.89C410.704 177.948 413.104 181.132 415.34 184.43C416.96 186.8 419.81 190 422.78 188.96C425.32 188.07 425.78 185.66 425.64 183.69C425.53 182.245 425.132 180.838 424.47 179.55Z" fill="#42210B"/>
<path d="M57.2101 179.55C61.7001 170.4 90.6301 116.15 142.34 124.64C143.961 124.872 145.455 125.651 146.573 126.847C147.691 128.044 148.368 129.586 148.49 131.22C148.58 133.22 147.79 135.38 144.92 136.89C132.53 143.38 103.22 139.77 73.5301 174.89C70.9764 177.948 68.5767 181.132 66.3401 184.43C64.7101 186.8 61.8701 190 58.9001 188.96C56.3601 188.07 55.9001 185.66 56.0401 183.69C56.1504 182.245 56.5482 180.838 57.2101 179.55Z" fill="#42210B"/>
<defs>
<filter id="filter0_f_862_12451" x="-26.8149" y="206.559" width="535.022" height="306.595" filterUnits="userSpaceOnUse" color-interpolation-filters="sRGB">
<feFlood flood-opacity="0" result="BackgroundImageFix"/>
<feBlend mode="normal" in="SourceGraphic" in2="BackgroundImageFix" result="shape"/>
<feGaussianBlur stdDeviation="12.5" result="effect1_foregroundBlur_862_12451"/>
</filter>
<filter id="filter1_f_862_12451" x="-41.8149" y="191.559" width="565.022" height="336.595" filterUnits="userSpaceOnUse" color-interpolation-filters="sRGB">
<feFlood flood-opacity="0" result="BackgroundImageFix"/>
<feBlend mode="normal" in="SourceGraphic" in2="BackgroundImageFix" result="shape"/>
<feGaussianBlur stdDeviation="20" result="effect1_foregroundBlur_862_12451"/>
</filter>
<radialGradient id="paint0_radial_862_12451" cx="0" cy="0" r="1" gradientUnits="userSpaceOnUse" gradientTransform="translate(241 -4.53898e-06) rotate(90) scale(482)">
<stop stop-color="#FFDE43"/>
<stop offset="1" stop-color="#FFBC00"/>
</radialGradient>
<radialGradient id="paint1_radial_862_12451" cx="0" cy="0" r="1" gradientUnits="userSpaceOnUse" gradientTransform="translate(241 64.5) rotate(90) scale(417.5)">
<stop stop-color="white" stop-opacity="0.5"/>
<stop offset="0.782278"/>
</radialGradient>
<radialGradient id="paint2_radial_862_12451" cx="0" cy="0" r="1" gradientUnits="userSpaceOnUse" gradientTransform="translate(241 64.5) rotate(90) scale(417.5)">
<stop stop-color="white" stop-opacity="0.5"/>
<stop offset="0.782278"/>
</radialGradient>
<radialGradient id="paint3_radial_862_12451" cx="0" cy="0" r="1" gradientUnits="userSpaceOnUse" gradientTransform="translate(241 -52.5) rotate(90) scale(534.5 722.835)">
<stop offset="0.0922635" stop-color="white"/>
<stop offset="0.670207" stop-color="white" stop-opacity="0"/>
</radialGradient>
<radialGradient id="paint4_radial_862_12451" cx="0" cy="0" r="1" gradientUnits="userSpaceOnUse" gradientTransform="translate(241.357 372.581) scale(56.1265 58.608)">
<stop stop-color="#743C1C"/>
<stop offset="1" stop-color="#401C02"/>
</radialGradient>
<linearGradient id="paint5_linear_862_12451" x1="241.357" y1="403.343" x2="241.357" y2="341.818" gradientUnits="userSpaceOnUse">
<stop offset="0.265625" stop-color="#FFDE43"/>
<stop offset="1" stop-color="#F79D14"/>
</linearGradient>
<radialGradient id="paint6_radial_862_12451" cx="0" cy="0" r="1" gradientUnits="userSpaceOnUse" gradientTransform="translate(128.441 238.28) scale(92.4732 27.7193)">
<stop stop-color="#743C1C"/>
<stop offset="1" stop-color="#401C02"/>
</radialGradient>
<radialGradient id="paint7_radial_862_12451" cx="0" cy="0" r="1" gradientUnits="userSpaceOnUse" gradientTransform="translate(353 238.28) scale(92.4672 27.7188)">
<stop stop-color="#743C1C"/>
<stop offset="1" stop-color="#401C02"/>
</radialGradient>
<linearGradient id="paint8_linear_862_12451" x1="128.542" y1="267.527" x2="128.542" y2="208.846" gradientUnits="userSpaceOnUse">
<stop stop-color="#FFDE43"/>
<stop offset="0.22" stop-color="#FED93F"/>
<stop offset="0.51" stop-color="#FCC934"/>
<stop offset="0.82" stop-color="#F9AF21"/>
<stop offset="1" stop-color="#F79D14"/>
</linearGradient>
<linearGradient id="paint9_linear_862_12451" x1="353.101" y1="267.527" x2="353.101" y2="208.847" gradientUnits="userSpaceOnUse">
<stop stop-color="#FFDE43"/>
<stop offset="0.22" stop-color="#FED93F"/>
<stop offset="0.51" stop-color="#FCC934"/>
<stop offset="0.82" stop-color="#F9AF21"/>
<stop offset="1" stop-color="#F79D14"/>
</linearGradient>
</defs>
</svg>
