<svg width="504" height="483" viewBox="0 0 504 483" fill="none" xmlns="http://www.w3.org/2000/svg">
<path d="M262.18 482.36C395.38 482.36 503.36 374.38 503.36 241.18C503.36 107.98 395.38 0 262.18 0C128.98 0 21 107.98 21 241.18C21 374.38 128.98 482.36 262.18 482.36Z" fill="url(#paint0_radial_862_12563)"/>
<g style="mix-blend-mode:soft-light">
<path d="M262.18 482.36C395.38 482.36 503.36 374.38 503.36 241.18C503.36 107.98 395.38 0 262.18 0C128.98 0 21 107.98 21 241.18C21 374.38 128.98 482.36 262.18 482.36Z" fill="url(#paint1_radial_862_12563)"/>
</g>
<g style="mix-blend-mode:soft-light">
<path d="M262.18 482.36C395.38 482.36 503.36 374.38 503.36 241.18C503.36 107.98 395.38 0 262.18 0C128.98 0 21 107.98 21 241.18C21 374.38 128.98 482.36 262.18 482.36Z" fill="url(#paint2_radial_862_12563)"/>
</g>
<g style="mix-blend-mode:overlay">
<path d="M262.18 482.36C395.38 482.36 503.36 374.38 503.36 241.18C503.36 107.98 395.38 0 262.18 0C128.98 0 21 107.98 21 241.18C21 374.38 128.98 482.36 262.18 482.36Z" fill="url(#paint3_radial_862_12563)" fill-opacity="0.7"/>
</g>
<mask id="mask0_862_12563" style="mask-type:alpha" maskUnits="userSpaceOnUse" x="20" y="0" width="483" height="483">
<path d="M261.18 482.36C394.38 482.36 502.36 374.38 502.36 241.18C502.36 107.98 394.38 0 261.18 0C127.98 0 20 107.98 20 241.18C20 374.38 127.98 482.36 261.18 482.36Z" fill="white"/>
</mask>
<g mask="url(#mask0_862_12563)">
<g filter="url(#filter0_f_862_12563)">
<path d="M18.6241 234.299C18.886 230.872 20.0137 230.529 20.3426 234.009C20.7081 237.875 19.9977 245.647 20.1687 250.335C20.6216 262.748 22.5244 273.542 24.486 282.321C30.8075 310.613 39.5617 328.843 47.7268 344.289C74.5663 395.061 103.967 420.771 132.648 440.147C174.689 468.55 217.072 477.584 259.49 479.5C260.56 479.549 260.738 486.518 259.686 487.425C257.788 489.062 255.436 487.438 253.494 487.37C247.915 487.174 242.335 486.791 236.756 486.211C220.213 484.492 203.67 480.991 187.162 475.359C142.275 460.044 93.8765 433.821 51.6092 359.962C48.9502 355.316 46.3124 350.424 43.7118 345.168C41.6321 340.964 39.5726 336.557 37.5493 331.844C30.8946 316.342 15.3868 276.659 18.6241 234.299ZM259.52 487.5C258.499 487.532 258.241 481.035 259.214 479.686C260.684 477.647 262.888 479.326 264.439 479.229C270.877 478.827 277.314 478.23 283.75 477.422C301.395 475.206 319.028 471.423 336.621 465.596C380.257 451.146 427.17 429.116 468.305 361.431C470.923 357.124 473.518 352.554 476.079 347.641C483.86 332.713 503.361 293.085 501.107 243.821C500.917 239.669 502.181 237.181 502.747 240.744C503.467 245.28 503.175 254.736 502.977 259.768C502.341 275.884 499.866 289.512 497.257 300.518C488.987 335.399 477.376 355.623 466.744 372.51C432.184 427.397 394.648 449.524 358.155 465.425C325.424 479.686 292.444 486.484 259.52 487.5Z" fill="#401C02"/>
</g>
<g filter="url(#filter1_f_862_12563)">
<path d="M18.6241 234.299C18.886 230.872 20.0137 230.529 20.3426 234.009C20.7081 237.875 19.9977 245.647 20.1687 250.335C20.6216 262.748 22.5244 273.542 24.486 282.321C30.8075 310.613 39.5617 328.843 47.7268 344.289C74.5663 395.061 103.967 420.771 132.648 440.147C174.689 468.55 217.072 477.584 259.49 479.5C260.56 479.549 260.738 486.518 259.686 487.425C257.788 489.062 255.436 487.438 253.494 487.37C247.915 487.174 242.335 486.791 236.756 486.211C220.213 484.492 203.67 480.991 187.162 475.359C142.275 460.044 93.8765 433.821 51.6092 359.962C48.9502 355.316 46.3124 350.424 43.7118 345.168C41.6321 340.964 39.5726 336.557 37.5493 331.844C30.8946 316.342 15.3868 276.659 18.6241 234.299ZM259.52 487.5C258.499 487.532 258.241 481.035 259.214 479.686C260.684 477.647 262.888 479.326 264.439 479.229C270.877 478.827 277.314 478.23 283.75 477.422C301.395 475.206 319.028 471.423 336.621 465.596C380.257 451.146 427.17 429.116 468.305 361.431C470.923 357.124 473.518 352.554 476.079 347.641C483.86 332.713 503.361 293.085 501.107 243.821C500.917 239.669 502.181 237.181 502.747 240.744C503.467 245.28 503.175 254.736 502.977 259.768C502.341 275.884 499.866 289.512 497.257 300.518C488.987 335.399 477.376 355.623 466.744 372.51C432.184 427.397 394.648 449.524 358.155 465.425C325.424 479.686 292.444 486.484 259.52 487.5Z" fill="#401C02"/>
</g>
</g>
<path d="M310.92 341.43V380.07C310.918 392.363 306.032 404.153 297.338 412.845C288.644 421.537 276.854 426.42 264.56 426.42H257.63C245.337 426.42 233.548 421.536 224.856 412.844C216.164 404.152 211.28 392.362 211.28 380.07V341.44C225.56 346.22 242.69 349 261.1 349C279.51 349 296.64 346.24 310.92 341.43Z" fill="url(#paint4_radial_862_12563)"/>
<path d="M264.65 288H257.54C231.284 288 210 309.284 210 335.54V380.65C210 406.906 231.284 428.19 257.54 428.19H264.65C290.906 428.19 312.19 406.906 312.19 380.65V335.54C312.19 309.284 290.906 288 264.65 288Z" stroke="url(#paint5_linear_862_12563)" stroke-width="4.1" stroke-miterlimit="10"/>
<path d="M310.92 336.09V341.43C296.64 346.22 279.51 349 261.1 349C242.69 349 225.56 346.22 211.28 341.44V336.09C211.28 323.797 216.164 312.008 224.856 303.316C233.548 294.624 245.337 289.74 257.63 289.74H264.56C276.854 289.74 288.644 294.623 297.338 303.315C306.032 312.007 310.918 323.797 310.92 336.09Z" fill="url(#paint6_linear_862_12563)"/>
<path d="M264.55 289.75H257.63C232.026 289.75 211.27 310.506 211.27 336.11V380.07C211.27 405.674 232.026 426.43 257.63 426.43H264.55C290.154 426.43 310.91 405.674 310.91 380.07V336.11C310.91 310.506 290.154 289.75 264.55 289.75Z" stroke="url(#paint7_linear_862_12563)" stroke-width="4" stroke-miterlimit="10"/>
<mask id="mask1_862_12563" style="mask-type:alpha" maskUnits="userSpaceOnUse" x="211" y="289" width="100" height="138">
<path d="M264.55 289.75H257.63C232.026 289.75 211.27 310.506 211.27 336.11V380.07C211.27 405.674 232.026 426.43 257.63 426.43H264.55C290.153 426.43 310.91 405.674 310.91 380.07V336.11C310.91 310.506 290.153 289.75 264.55 289.75Z" fill="url(#paint8_linear_862_12563)"/>
</mask>
<g mask="url(#mask1_862_12563)">
<g filter="url(#filter2_f_862_12563)">
<path d="M264.55 289.75H257.63C232.026 289.75 211.27 310.506 211.27 336.11V380.07C211.27 405.674 232.026 426.43 257.63 426.43H264.55C290.153 426.43 310.91 405.674 310.91 380.07V336.11C310.91 310.506 290.153 289.75 264.55 289.75Z" stroke="#42210B" stroke-width="6" stroke-miterlimit="10"/>
</g>
</g>
<path d="M292.698 193.95C301.168 183.73 342.328 141.43 413.908 184.68C416.286 186.076 418.077 188.284 418.952 190.898C419.827 193.512 419.727 196.355 418.668 198.9C417.238 202.14 414.268 204.32 408.298 202.05C394.368 196.74 350.298 180.05 301.608 199.96C301.608 199.96 294.938 204.09 292.188 200.01C291.615 199.078 291.354 197.987 291.446 196.896C291.538 195.806 291.977 194.773 292.698 193.95Z" fill="url(#paint9_radial_862_12563)"/>
<path d="M292.698 193.95C301.168 183.73 342.328 141.43 413.908 184.68C416.286 186.076 418.077 188.284 418.952 190.898C419.827 193.512 419.727 196.355 418.668 198.9C417.238 202.14 414.268 204.32 408.298 202.05C394.368 196.74 350.298 180.05 301.608 199.96C301.608 199.96 294.938 204.09 292.188 200.01C291.615 199.078 291.354 197.987 291.446 196.896C291.538 195.806 291.977 194.773 292.698 193.95Z" stroke="url(#paint10_linear_862_12563)" stroke-width="2" stroke-miterlimit="10"/>
<path d="M141.254 265.231L47.3939 428.548C45.9458 431.068 43.5561 432.909 40.7505 433.666C37.9449 434.424 34.9532 434.036 32.4335 432.588L13.8764 421.923C11.3567 420.475 9.51552 418.085 8.7578 415.28C8.00008 412.474 8.38791 409.482 9.836 406.963L103.696 243.646L141.254 265.231Z" fill="black"/>
<mask id="mask2_862_12563" style="mask-type:alpha" maskUnits="userSpaceOnUse" x="21" y="0" width="483" height="483">
<path d="M262.18 482.36C395.38 482.36 503.36 374.38 503.36 241.18C503.36 107.98 395.38 0 262.18 0C128.98 0 21 107.98 21 241.18C21 374.38 128.98 482.36 262.18 482.36Z" fill="url(#paint11_radial_862_12563)"/>
</mask>
<g mask="url(#mask2_862_12563)">
<g filter="url(#filter3_f_862_12563)">
<path d="M115.389 272.2C110.089 268.8 104.589 265.6 98.8891 263C90.8891 259.3 83.1891 257.4 74.3891 256.7C67.0891 256.2 58.8891 256.4 52.5891 260.7C47.0891 264.5 43.7891 270.6 42.1891 276.9C41.9891 277.6 41.0891 286.7 40.8891 286.8C24.4891 292.9 19.8891 300 15.9891 307C7.88908 322 16.4891 335.9 16.4891 335.9C-10.6109 359.4 7.38909 381.5 7.38909 381.5C-8.31091 397 5.88909 410.4 5.88909 410.4L51.7891 440.8C59.2891 445.8 69.5891 443.7 74.5891 436.2C79.5891 428.7 77.4891 418.4 69.9891 413.4L77.8891 418.7C86.1891 424.2 97.4891 421.9 102.989 413.6L105.689 409.5C111.189 401.2 108.889 389.9 100.589 384.4L99.2891 383.5C108.289 389.5 120.589 387 126.589 378L127.389 376.7C127.389 376.7 123.489 384.4 132.189 390.2C146.789 399.9 150.989 390.6 150.989 390.6C150.989 390.6 176.189 348.6 182.989 338.2C189.789 327.8 180.589 308 180.589 308C157.189 269.4 144.389 290.8 115.389 272.2Z" fill="#8D3300"/>
</g>
</g>
<path d="M115.389 262.2C110.089 258.8 104.589 255.6 98.8891 253C90.8891 249.3 83.1891 247.4 74.3891 246.7C67.0891 246.2 58.8891 246.4 52.5891 250.7C47.0891 254.5 43.7891 260.6 42.1891 266.9C41.9891 267.6 41.0891 276.7 40.8891 276.8C24.4891 282.9 19.8891 290 15.9891 297C7.88908 312 16.4891 325.9 16.4891 325.9C-10.6109 349.4 7.38909 371.5 7.38909 371.5C-8.31091 387 5.88909 400.4 5.88909 400.4L51.7891 430.8C59.2891 435.8 69.5891 433.7 74.5891 426.2C79.5891 418.7 77.4891 408.4 69.9891 403.4L77.8891 408.7C86.1891 414.2 97.4891 411.9 102.989 403.6L105.689 399.5C111.189 391.2 108.889 379.9 100.589 374.4L99.2891 373.5C108.289 379.5 120.589 377 126.589 368L127.389 366.7C127.389 366.7 123.489 374.4 132.189 380.2C146.789 389.9 150.989 380.6 150.989 380.6C150.989 380.6 176.189 338.6 182.989 328.2C189.789 317.8 180.589 298 180.589 298C157.189 259.4 144.389 280.8 115.389 262.2Z" fill="url(#paint12_radial_862_12563)"/>
<path d="M140.888 265.6L133.488 278.4L97.4883 254.5L103.488 244L140.888 265.6Z" fill="black"/>
<mask id="mask3_862_12563" style="mask-type:alpha" maskUnits="userSpaceOnUse" x="0" y="246" width="186" height="188">
<path d="M115.389 262.2C110.089 258.8 104.589 255.6 98.8891 253C90.8891 249.3 83.1891 247.4 74.3891 246.7C67.0891 246.2 58.8891 246.4 52.5891 250.7C47.0891 254.5 43.7891 260.6 42.1891 266.9C41.9891 267.6 41.0891 276.7 40.8891 276.8C24.4891 282.9 19.8891 290 15.9891 297C7.88908 312 16.4891 325.9 16.4891 325.9C-10.6109 349.4 7.38909 371.5 7.38909 371.5C-8.31091 387 5.88909 400.4 5.88909 400.4L51.7891 430.8C59.2891 435.8 69.5891 433.7 74.5891 426.2C79.5891 418.7 77.4891 408.4 69.9891 403.4L77.8891 408.7C86.1891 414.2 97.4891 411.9 102.989 403.6L105.689 399.5C111.189 391.2 108.889 379.9 100.589 374.4L99.2891 373.5C108.289 379.5 120.589 377 126.589 368L127.389 366.7C127.389 366.7 123.489 374.4 132.189 380.2C146.789 389.9 150.989 380.6 150.989 380.6C150.989 380.6 176.189 338.6 182.989 328.2C189.789 317.8 180.589 298 180.589 298C157.189 259.4 144.389 280.8 115.389 262.2Z" fill="url(#paint13_radial_862_12563)"/>
</mask>
<g mask="url(#mask3_862_12563)">
<g opacity="0.4" filter="url(#filter4_f_862_12563)">
<path opacity="0.4" d="M100.889 253C95.4891 250.7 89.7891 249.2 84.0891 248.3C81.1891 248 78.2891 247.7 75.3891 247.6C72.4891 247.5 69.5891 247.5 66.7891 247.9C63.9891 248.3 61.1891 248.9 58.6891 250.1C56.1891 251.2 53.9891 252.9 52.0891 254.9C50.2891 256.9 48.7891 259.3 47.6891 261.9C47.1891 263.2 46.6891 264.5 46.2891 265.8C46.1891 266.1 46.0891 266.5 45.9891 266.8L45.8891 267.3L45.7891 267.7L45.5891 269.8L45.0891 274.2C44.9891 274.9 44.8891 275.7 44.7891 276.4L44.6891 276.7C44.6891 276.8 44.6891 276.9 44.5891 277.2V277.3C44.4891 277.4 44.6891 277.2 44.4891 277.6C44.2891 278 43.8891 278.3 43.4891 278.4L43.3891 278.6L43.1891 278.7L42.1891 279.1C39.4891 280.2 36.9891 281.4 34.4891 282.8C29.5891 285.5 25.2891 289.2 22.2891 293.9C21.4891 295.1 20.7891 296.3 20.0891 297.5C19.6891 298.1 19.4891 298.7 19.1891 299.4C18.8891 300 18.5891 300.6 18.3891 301.3L17.6891 303.2L17.1891 305.2C16.9891 305.9 16.9891 306.5 16.7891 307.2C16.7891 307.5 16.6891 307.9 16.6891 308.2L16.5891 309.2C16.3891 311.9 16.6891 314.7 17.2891 317.4C17.5891 318.7 17.9891 320.1 18.4891 321.4C18.9891 322.7 19.5891 324 20.1891 325.1L20.9891 326.5L19.7891 327.5C16.5891 330.2 13.6891 333.2 11.2891 336.6C10.0891 338.3 9.08907 340 8.08907 341.9C7.18907 343.7 6.48907 345.7 5.88907 347.6C4.88907 351.5 4.68907 355.7 5.48907 359.7C5.88907 361.7 6.48907 363.7 7.28907 365.6C8.08907 367.5 9.08907 369.4 10.1891 371L10.7891 371.8L10.0891 372.4C8.18907 374.2 6.48907 376.2 5.08907 378.5C3.78907 380.7 2.78907 383.3 2.58907 385.9C2.28907 388.5 2.68907 391.2 3.68907 393.7C4.58907 396.2 5.98907 398.6 7.78907 400.6C5.78907 398.7 4.18907 396.5 2.98907 394C1.78907 391.5 1.18907 388.7 1.28907 385.9C1.38907 383.1 2.18907 380.3 3.48907 377.8C4.78907 375.3 6.48907 373 8.48907 371L8.38907 372.5C6.88907 370.7 5.88907 368.8 4.88907 366.7C3.88907 364.7 3.18907 362.5 2.68907 360.4C1.68907 356 1.68907 351.4 2.68907 346.9C3.18907 344.7 3.98907 342.5 4.88907 340.5C5.88907 338.5 6.98907 336.5 8.28907 334.7C10.7891 331 13.8891 327.7 17.1891 324.8L16.7891 327.2C15.8891 325.7 15.2891 324.4 14.6891 322.9C14.0891 321.5 13.6891 320 13.2891 318.5C12.5891 315.5 12.2891 312.3 12.3891 309.2L12.4891 308C12.4891 307.6 12.5891 307.2 12.6891 306.8C12.7891 306 12.8891 305.2 13.0891 304.5L13.6891 302.2L14.4891 300C14.6891 299.2 15.0891 298.6 15.4891 297.9C15.7891 297.2 16.1891 296.5 16.5891 295.8C17.2891 294.5 18.0891 293.2 18.9891 291.9C20.6891 289.3 22.6891 286.9 25.0891 284.9C27.3891 282.8 29.9891 281.1 32.5891 279.7C35.2891 278.2 37.9891 277 40.7891 276L41.8891 275.6L42.1891 275.5H42.2891C41.9891 275.6 41.5891 275.9 41.3891 276.3C41.1891 276.7 41.2891 276.4 41.2891 276.5V276.6C41.2891 276.7 41.2891 276.6 41.2891 276.5V276.3C41.3891 275.6 41.4891 274.9 41.5891 274.2L42.1891 269.9L42.4891 267.7C42.4891 267.5 42.4891 267.4 42.5891 267L42.7891 266.4C42.8891 266 42.9891 265.7 43.0891 265.3C43.5891 263.8 44.0891 262.4 44.7891 261C46.0891 258.2 47.7891 255.6 49.9891 253.3C52.1891 251 54.7891 249.2 57.6891 248.1C60.5891 246.9 63.5891 246.4 66.5891 246.1C69.5891 245.9 72.5891 246 75.5891 246.2C78.5891 246.5 81.4891 246.9 84.3891 247.5C90.0891 248.3 95.6891 250.3 100.889 253Z" fill="#B04B02"/>
</g>
</g>
<mask id="mask4_862_12563" style="mask-type:alpha" maskUnits="userSpaceOnUse" x="0" y="246" width="186" height="188">
<path d="M115.389 262.2C110.089 258.8 104.589 255.6 98.8891 253C90.8891 249.3 83.1891 247.4 74.3891 246.7C67.0891 246.2 58.8891 246.4 52.5891 250.7C47.0891 254.5 43.7891 260.6 42.1891 266.9C41.9891 267.6 41.0891 276.7 40.8891 276.8C24.4891 282.9 19.8891 290 15.9891 297C7.88908 312 16.4891 325.9 16.4891 325.9C-10.6109 349.4 7.38909 371.5 7.38909 371.5C-8.31091 387 5.88909 400.4 5.88909 400.4L51.7891 430.8C59.2891 435.8 69.5891 433.7 74.5891 426.2C79.5891 418.7 77.4891 408.4 69.9891 403.4L77.8891 408.7C86.1891 414.2 97.4891 411.9 102.989 403.6L105.689 399.5C111.189 391.2 108.889 379.9 100.589 374.4L99.2891 373.5C108.289 379.5 120.589 377 126.589 368L127.389 366.7C127.389 366.7 123.489 374.4 132.189 380.2C146.789 389.9 150.989 380.6 150.989 380.6C150.989 380.6 176.189 338.6 182.989 328.2C189.789 317.8 180.589 298 180.589 298C157.189 259.4 144.389 280.8 115.389 262.2Z" fill="url(#paint14_radial_862_12563)"/>
</mask>
<g mask="url(#mask4_862_12563)">
<g style="mix-blend-mode:multiply" filter="url(#filter5_f_862_12563)">
<path d="M69.8891 403.5C77.4891 408.5 79.4891 418.8 74.4891 426.3C71.9891 430.1 68.1891 432.5 63.9891 433.3C59.8891 434.1 55.3891 433.4 51.5891 430.9L50.7891 430.4C57.5891 427.3 68.5891 419.7 69.8891 403.5Z" fill="#E7834A"/>
<path d="M100.489 374.3L100.589 374.4C108.889 379.9 111.189 391.2 105.689 399.5L102.989 403.6C97.4889 411.9 86.1889 414.2 79.7889 409.9L76.5889 407.8C83.2889 405.5 96.5889 397.8 100.489 374.3Z" fill="#E7834A"/>
<path d="M126.188 337.2C133.688 343.5 135.488 354.7 129.888 363.1L126.588 368C121.088 376.3 110.388 379 101.688 374.9C108.788 371.3 121.888 361.5 126.188 337.2Z" fill="#E7834A"/>
<path d="M153.488 292.4C161.388 300.6 162.788 313.5 156.288 323.3L154.488 326C148.088 335.6 135.988 339.4 125.488 335.7C133.588 330.2 146.988 317.7 153.488 292.4Z" fill="#E7834A"/>
</g>
</g>
<mask id="mask5_862_12563" style="mask-type:alpha" maskUnits="userSpaceOnUse" x="0" y="246" width="186" height="188">
<path d="M115.389 262.2C110.089 258.8 104.589 255.6 98.8891 253C90.8891 249.3 83.1891 247.4 74.3891 246.7C67.0891 246.2 58.8891 246.4 52.5891 250.7C47.0891 254.5 43.7891 260.6 42.1891 266.9C41.9891 267.6 41.0891 276.7 40.8891 276.8C24.4891 282.9 19.8891 290 15.9891 297C7.88908 312 16.4891 325.9 16.4891 325.9C-10.6109 349.4 7.38909 371.5 7.38909 371.5C-8.31091 387 5.88909 400.4 5.88909 400.4L51.7891 430.8C59.2891 435.8 69.5891 433.7 74.5891 426.2C79.5891 418.7 77.4891 408.4 69.9891 403.4L77.8891 408.7C86.1891 414.2 97.4891 411.9 102.989 403.6L105.689 399.5C111.189 391.2 108.889 379.9 100.589 374.4L99.2891 373.5C108.289 379.5 120.589 377 126.589 368L127.389 366.7C127.389 366.7 123.489 374.4 132.189 380.2C146.789 389.9 150.989 380.6 150.989 380.6C150.989 380.6 176.189 338.6 182.989 328.2C189.789 317.8 180.589 298 180.589 298C157.189 259.4 144.389 280.8 115.389 262.2Z" fill="url(#paint15_radial_862_12563)"/>
</mask>
<g mask="url(#mask5_862_12563)">
<g filter="url(#filter6_f_862_12563)">
<path d="M89.0889 248.9C93.3889 250.1 97.6889 251.5 101.689 253.5C105.789 255.4 109.689 257.6 113.589 259.8C115.489 260.9 117.389 262.1 119.389 263.2C120.389 263.7 121.289 264.2 122.389 264.7L123.889 265.4L125.389 266C126.389 266.4 127.489 266.8 128.489 267.1C129.589 267.4 130.589 267.8 131.689 268C133.789 268.6 135.989 269 138.189 269.3C142.589 270 146.989 270.3 151.489 271.1C153.789 271.5 155.989 272.1 158.189 273C160.389 273.9 162.389 275 164.389 276.3C166.389 277.6 168.089 279.1 169.789 280.7C171.389 282.3 172.989 284 174.489 285.8C177.389 289.3 179.889 293.1 182.289 297V297.1V297.2C183.489 299.8 184.389 302.4 185.289 305.1C186.089 307.8 186.789 310.5 187.189 313.3C187.589 316.1 187.789 319 187.489 321.9C187.289 323.4 186.989 324.8 186.489 326.2C186.289 326.9 185.889 327.6 185.589 328.3L184.989 329.3C184.789 329.6 184.589 329.9 184.389 330.2C178.489 339.4 172.689 348.8 166.889 358.2L158.189 372.2L153.889 379.2L152.789 381C152.489 381.5 151.989 382.3 151.489 382.8C150.489 383.9 149.189 384.8 147.789 385.4C144.989 386.5 141.889 386.3 139.189 385.5C136.489 384.6 133.989 383.2 131.689 381.7C129.289 380.2 127.289 377.9 126.389 375.2C125.489 372.5 125.589 369.5 126.789 366.9L129.589 362.9L126.989 367C126.089 369.5 125.989 372.4 126.989 374.9C127.989 377.4 129.889 379.4 132.189 380.7C134.489 382.1 136.989 383.3 139.489 384C141.989 384.7 144.789 384.8 147.089 383.7C148.189 383.2 149.289 382.4 150.089 381.5C150.489 381 150.789 380.6 151.089 379.9L152.089 378.1L156.289 371L164.689 356.8C170.389 347.4 175.889 337.9 181.889 328.6C184.889 324.5 184.889 318.9 184.189 313.7C183.389 308.5 181.689 303.2 179.589 298.3L179.689 298.4C177.389 294.6 174.889 290.9 172.189 287.5C170.789 285.8 169.389 284.2 167.789 282.6C166.189 281.1 164.589 279.7 162.789 278.5C160.989 277.3 159.089 276.2 157.189 275.4C155.189 274.6 153.089 274 150.989 273.6C146.689 272.7 142.189 272.3 137.789 271.5C133.289 270.7 128.889 269.5 124.689 267.6L123.089 266.9L121.589 266.1C120.589 265.6 119.589 265 118.589 264.5C116.589 263.4 114.789 262.1 112.889 260.9C109.189 258.5 105.289 256.2 101.389 254.1C97.4889 252 93.2889 250.4 89.0889 248.9Z" fill="#923D00"/>
<path d="M27.9891 375.6C39.3891 382.2 50.4891 389 61.5891 396C64.3891 397.7 67.0891 399.5 69.8891 401.3L70.8891 402L71.9891 402.8C72.3891 403.1 72.6891 403.4 73.0891 403.7C73.3891 404 73.7891 404.3 74.0891 404.6C75.3891 405.9 76.3891 407.4 77.2891 409C78.1891 410.6 78.6891 412.4 78.9891 414.2C79.2891 416 79.3891 417.8 79.0891 419.7C78.9891 420.6 78.7891 421.5 78.5891 422.4C78.2891 423.3 78.0891 424.2 77.5891 425C77.2891 425.9 76.7891 426.6 76.2891 427.4C75.7891 428.1 75.2891 428.9 74.5891 429.6C73.3891 431 71.8891 432.1 70.3891 433.1C68.7891 434.1 67.0891 434.7 65.2891 435.2C63.4891 435.6 61.6891 435.8 59.8891 435.7C58.0891 435.6 56.2891 435.3 54.5891 434.6C54.1891 434.5 53.7891 434.3 53.2891 434.1C52.8891 433.9 52.4891 433.7 52.0891 433.5L50.8891 432.8C50.4891 432.6 50.1891 432.3 49.8891 432.1L45.7891 429.3C43.0891 427.5 40.3891 425.6 37.6891 423.7C26.9891 416.2 16.2891 408.6 5.78906 400.7C17.1891 407.2 28.2891 414.1 39.3891 421.1C42.1891 422.8 44.8891 424.6 47.6891 426.4L51.7891 429.1C52.0891 429.3 52.4891 429.6 52.7891 429.7L53.6891 430.2C53.9891 430.4 54.3891 430.5 54.6891 430.7C54.9891 430.9 55.3891 431 55.6891 431.1C57.0891 431.6 58.4891 431.8 59.8891 431.9C61.2891 432 62.7891 431.8 64.1891 431.5C65.5891 431.2 66.9891 430.6 68.1891 429.8C69.3891 429.1 70.5891 428.1 71.4891 427C71.9891 426.5 72.3891 425.9 72.7891 425.3C73.1891 424.7 73.5891 424.1 73.7891 423.4C74.0891 422.8 74.2891 422.1 74.5891 421.4C74.7891 420.7 74.9891 420 74.9891 419.3C75.3891 416.4 74.8891 413.5 73.5891 410.9C72.9891 409.6 72.1891 408.4 71.1891 407.3C70.9891 407 70.6891 406.8 70.3891 406.5C70.0891 406.2 69.8891 406 69.5891 405.8L68.6891 405.1L67.6891 404.4C64.9891 402.6 62.2891 400.7 59.5891 398.8C49.0891 391.1 38.3891 383.6 27.9891 375.6Z" fill="#923D00"/>
<path d="M50.7887 341.3C63.7887 349 76.6887 357 89.3887 365.1C92.5887 367.1 95.7887 369.1 98.9887 371.2L101.389 372.7C101.789 372.9 102.189 373.3 102.589 373.6L103.189 374.1L103.789 374.6C105.389 375.9 106.689 377.6 107.789 379.4C109.989 383 110.889 387.3 110.489 391.4C110.289 393.5 109.789 395.5 108.989 397.5C108.789 398 108.589 398.5 108.289 398.9L107.489 400.3C106.989 401.2 106.489 401.9 105.889 402.7C105.389 403.5 104.889 404.2 104.289 405.1L103.389 406.4C103.089 406.8 102.689 407.2 102.289 407.6C100.789 409.1 99.1887 410.4 97.2887 411.4C93.5887 413.3 89.2887 414.2 85.1887 413.6C83.0887 413.3 81.0887 412.7 79.1887 411.8L78.4887 411.5L77.7887 411.1C77.3887 410.8 76.8887 410.6 76.4887 410.3L74.1887 408.7C71.0887 406.6 67.9887 404.4 64.8887 402.3C52.4887 393.7 40.0887 385 27.8887 375.9C40.9887 383.6 53.7887 391.6 66.5887 399.7C69.7887 401.7 72.9887 403.8 76.1887 405.8L78.5887 407.3C78.9887 407.6 79.3887 407.7 79.6887 408L80.2887 408.3L80.8887 408.6C82.3887 409.3 84.0887 409.8 85.7887 410C89.1887 410.4 92.5887 409.7 95.5887 408.2C97.0887 407.4 98.3887 406.3 99.5887 405.1L100.389 404.2L101.089 403.2C101.589 402.5 102.089 401.6 102.689 400.9C103.189 400.1 103.789 399.3 104.189 398.6L104.789 397.5L105.289 396.4C105.989 394.9 106.389 393.2 106.589 391.5C106.889 388.1 106.189 384.7 104.489 381.7C103.689 380.2 102.589 378.9 101.289 377.7L100.789 377.3L100.289 376.9C99.8887 376.6 99.6887 376.4 99.2887 376.1L96.9887 374.5C93.8887 372.4 90.7887 370.2 87.6887 368.1C75.2887 359.1 62.8887 350.4 50.7887 341.3Z" fill="#923D00"/>
<path d="M75.7891 303.6C89.0891 311.4 102.089 319.5 115.089 327.8C118.289 329.9 121.589 331.9 124.789 334L125.389 334.4L125.989 334.9C126.389 335.2 126.889 335.5 127.289 335.8C128.089 336.5 128.889 337.2 129.589 338C130.289 338.7 130.889 339.6 131.589 340.5C132.089 341.4 132.689 342.3 133.089 343.2C133.989 345.1 134.589 347.1 134.889 349.2C135.189 351.3 135.189 353.4 134.889 355.5C134.589 357.6 133.989 359.6 133.089 361.5C132.689 362.5 132.089 363.4 131.589 364.3L129.989 366.7L128.389 369.1C127.789 369.9 127.189 370.8 126.389 371.6C124.989 373.2 123.289 374.5 121.489 375.6C119.689 376.7 117.689 377.5 115.689 378C113.689 378.5 111.489 378.8 109.389 378.7C108.289 378.7 107.289 378.5 106.289 378.3C105.289 378 104.189 377.8 103.289 377.5C102.289 377.2 101.389 376.7 100.389 376.3C99.8891 376.1 99.4891 375.8 98.9891 375.5L98.3891 375L97.7891 374.6C94.5891 372.4 91.4891 370.3 88.2891 368.1C75.6891 359.4 63.0891 350.5 50.7891 341.3C64.0891 349.1 77.0891 357.2 90.0891 365.5C93.2891 367.6 96.5891 369.6 99.7891 371.7L100.389 372.1L100.989 372.4C101.389 372.6 101.689 372.8 102.089 373C102.889 373.4 103.689 373.7 104.489 374C105.289 374.3 106.189 374.4 106.989 374.6C107.889 374.7 108.689 374.8 109.589 374.8C111.289 374.8 113.089 374.7 114.689 374.2C116.389 373.7 117.989 373.1 119.489 372.2C120.989 371.3 122.289 370.2 123.389 368.9C123.989 368.3 124.489 367.5 124.989 366.8L126.589 364.4L128.189 362C128.589 361.2 129.089 360.5 129.489 359.7C130.289 358.2 130.789 356.5 130.989 354.8C131.289 353.1 131.289 351.3 130.989 349.6C130.789 347.9 130.289 346.2 129.589 344.6C129.289 343.8 128.789 343.1 128.389 342.3C127.889 341.6 127.389 340.9 126.789 340.2C126.289 339.5 125.589 338.9 124.989 338.3C124.689 338 124.289 337.8 123.989 337.5L123.489 337.1L122.889 336.7C119.689 334.5 116.589 332.4 113.389 330.2C100.689 321.6 88.0891 312.8 75.7891 303.6Z" fill="#923D00"/>
<path d="M104.989 259.5C118.489 267.4 131.689 275.7 144.889 284.1L149.789 287.2C150.589 287.7 151.489 288.4 152.289 289C153.089 289.7 153.889 290.4 154.589 291.1C157.489 294.1 159.689 297.8 160.989 301.8C162.189 305.8 162.489 310.1 161.789 314.3C161.589 315.3 161.389 316.4 161.089 317.4C160.689 318.4 160.489 319.4 159.989 320.4L159.289 321.8C159.089 322.3 158.789 322.7 158.489 323.2C158.189 323.6 157.989 324.1 157.689 324.5L156.889 325.7L156.089 326.9C155.789 327.3 155.489 327.7 155.189 328.2C154.889 328.6 154.589 329.1 154.189 329.5L153.089 330.7C152.389 331.5 151.589 332.1 150.789 332.9C149.989 333.6 149.089 334.2 148.289 334.8C144.689 337.1 140.689 338.5 136.489 338.9C132.289 339.3 128.089 338.7 124.189 337.2C123.189 336.8 122.289 336.3 121.389 335.9C120.489 335.4 119.589 334.8 118.789 334.3L113.989 331C101.089 322.1 88.3891 313.1 75.7891 303.8C89.2891 311.7 102.489 320 115.689 328.4L120.589 331.5C121.389 332 122.189 332.4 122.989 332.9C123.789 333.3 124.589 333.7 125.489 334C128.889 335.2 132.589 335.7 136.189 335.2C139.789 334.7 143.289 333.5 146.289 331.6C146.989 331.1 147.789 330.6 148.489 330C149.089 329.4 149.889 328.8 150.389 328.1L151.289 327.1C151.589 326.8 151.789 326.4 152.089 326C152.389 325.6 152.589 325.3 152.889 324.9L153.689 323.7L154.489 322.5C154.789 322.1 154.989 321.7 155.189 321.3C155.389 320.9 155.689 320.5 155.889 320.1L156.489 318.9C156.889 318.1 157.089 317.2 157.489 316.4C157.789 315.5 157.989 314.7 158.089 313.8C158.689 310.3 158.489 306.6 157.489 303.1C156.489 299.6 154.689 296.4 152.189 293.7C151.589 293 150.889 292.4 150.189 291.8C149.489 291.3 148.789 290.7 147.989 290.1L143.189 286.8C130.389 277.8 117.589 268.8 104.989 259.5Z" fill="#923D00"/>
</g>
</g>
<path d="M182.579 248.13C202.085 248.13 217.899 224.683 217.899 195.76C217.899 166.836 202.085 143.39 182.579 143.39C163.072 143.39 147.259 166.836 147.259 195.76C147.259 224.683 163.072 248.13 182.579 248.13Z" fill="url(#paint16_radial_862_12563)"/>
<path d="M182.579 249.13C192.765 249.13 201.87 243.007 208.383 233.35C214.9 223.687 218.899 210.393 218.899 195.76C218.899 181.126 214.9 167.833 208.383 158.169C201.87 148.512 192.765 142.39 182.579 142.39C172.392 142.39 163.288 148.512 156.775 158.169C150.257 167.833 146.259 181.126 146.259 195.76C146.259 210.393 150.257 223.687 156.775 233.35C163.288 243.007 172.392 249.13 182.579 249.13Z" stroke="url(#paint17_linear_862_12563)" stroke-width="2" stroke-miterlimit="10"/>
<path style="mix-blend-mode:screen" d="M170.279 258.8C217.218 258.8 255.269 220.749 255.269 173.81C255.269 126.872 217.218 88.8203 170.279 88.8203C123.34 88.8203 85.2891 126.872 85.2891 173.81C85.2891 220.749 123.34 258.8 170.279 258.8Z" fill="url(#paint18_linear_862_12563)"/>
<path d="M148.509 262.8L149.889 260.42C168.258 264.729 187.521 263.096 204.902 255.757C222.284 248.417 236.887 235.75 246.609 219.58C271.779 177.58 257.969 122.52 215.929 97.4103C197.558 86.4664 175.861 82.5027 154.807 86.2444C133.753 89.9861 114.75 101.183 101.275 117.787C87.7994 134.391 80.7527 155.291 81.4237 176.664C82.0948 198.037 90.4387 218.455 104.929 234.18L103.389 236.76C102.469 238.354 102.219 240.249 102.696 242.026C103.172 243.804 104.335 245.32 105.929 246.24L139.009 265.34C139.799 265.8 140.672 266.1 141.578 266.221C142.484 266.342 143.405 266.283 144.288 266.047C145.171 265.811 145.998 265.403 146.723 264.846C147.447 264.288 148.054 263.593 148.509 262.8ZM100.139 133.31C108.616 118.625 121.488 106.97 136.941 99.9888C152.394 93.0075 169.648 91.0517 186.271 94.3971C202.894 97.7426 218.048 106.22 229.598 118.636C241.147 131.051 248.508 146.778 250.645 163.6C252.781 180.421 249.585 197.489 241.506 212.397C233.427 227.305 220.873 239.302 205.614 246.697C190.355 254.092 173.16 256.511 156.452 253.614C139.745 250.717 124.368 242.65 112.489 230.55C100.098 217.912 92.1833 201.566 89.9534 184.008C87.7234 166.45 91.3007 148.645 100.139 133.31Z" fill="black"/>
<defs>
<filter id="filter0_f_862_12563" x="-6.81494" y="206.559" width="535.022" height="306.595" filterUnits="userSpaceOnUse" color-interpolation-filters="sRGB">
<feFlood flood-opacity="0" result="BackgroundImageFix"/>
<feBlend mode="normal" in="SourceGraphic" in2="BackgroundImageFix" result="shape"/>
<feGaussianBlur stdDeviation="12.5" result="effect1_foregroundBlur_862_12563"/>
</filter>
<filter id="filter1_f_862_12563" x="-21.8149" y="191.559" width="565.022" height="336.595" filterUnits="userSpaceOnUse" color-interpolation-filters="sRGB">
<feFlood flood-opacity="0" result="BackgroundImageFix"/>
<feBlend mode="normal" in="SourceGraphic" in2="BackgroundImageFix" result="shape"/>
<feGaussianBlur stdDeviation="20" result="effect1_foregroundBlur_862_12563"/>
</filter>
<filter id="filter2_f_862_12563" x="202.27" y="280.75" width="117.64" height="154.68" filterUnits="userSpaceOnUse" color-interpolation-filters="sRGB">
<feFlood flood-opacity="0" result="BackgroundImageFix"/>
<feBlend mode="normal" in="SourceGraphic" in2="BackgroundImageFix" result="shape"/>
<feGaussianBlur stdDeviation="3" result="effect1_foregroundBlur_862_12563"/>
</filter>
<filter id="filter3_f_862_12563" x="-30" y="226.508" width="245.494" height="247.013" filterUnits="userSpaceOnUse" color-interpolation-filters="sRGB">
<feFlood flood-opacity="0" result="BackgroundImageFix"/>
<feBlend mode="normal" in="SourceGraphic" in2="BackgroundImageFix" result="shape"/>
<feGaussianBlur stdDeviation="15" result="effect1_foregroundBlur_862_12563"/>
</filter>
<filter id="filter4_f_862_12563" x="-4.72168" y="239.991" width="111.611" height="166.609" filterUnits="userSpaceOnUse" color-interpolation-filters="sRGB">
<feFlood flood-opacity="0" result="BackgroundImageFix"/>
<feBlend mode="normal" in="SourceGraphic" in2="BackgroundImageFix" result="shape"/>
<feGaussianBlur stdDeviation="3" result="effect1_foregroundBlur_862_12563"/>
</filter>
<filter id="filter5_f_862_12563" x="30.7891" y="272.4" width="149.614" height="181.214" filterUnits="userSpaceOnUse" color-interpolation-filters="sRGB">
<feFlood flood-opacity="0" result="BackgroundImageFix"/>
<feBlend mode="normal" in="SourceGraphic" in2="BackgroundImageFix" result="shape"/>
<feGaussianBlur stdDeviation="10" result="effect1_foregroundBlur_862_12563"/>
</filter>
<filter id="filter6_f_862_12563" x="-4.21094" y="238.9" width="201.844" height="206.824" filterUnits="userSpaceOnUse" color-interpolation-filters="sRGB">
<feFlood flood-opacity="0" result="BackgroundImageFix"/>
<feBlend mode="normal" in="SourceGraphic" in2="BackgroundImageFix" result="shape"/>
<feGaussianBlur stdDeviation="5" result="effect1_foregroundBlur_862_12563"/>
</filter>
<radialGradient id="paint0_radial_862_12563" cx="0" cy="0" r="1" gradientUnits="userSpaceOnUse" gradientTransform="translate(262 -4.53898e-06) rotate(90) scale(482)">
<stop stop-color="#FFDE43"/>
<stop offset="1" stop-color="#FFBC00"/>
</radialGradient>
<radialGradient id="paint1_radial_862_12563" cx="0" cy="0" r="1" gradientUnits="userSpaceOnUse" gradientTransform="translate(262 64.5) rotate(90) scale(417.5)">
<stop stop-color="white" stop-opacity="0.5"/>
<stop offset="0.782278"/>
</radialGradient>
<radialGradient id="paint2_radial_862_12563" cx="0" cy="0" r="1" gradientUnits="userSpaceOnUse" gradientTransform="translate(262 64.5) rotate(90) scale(417.5)">
<stop stop-color="white" stop-opacity="0.5"/>
<stop offset="0.782278"/>
</radialGradient>
<radialGradient id="paint3_radial_862_12563" cx="0" cy="0" r="1" gradientUnits="userSpaceOnUse" gradientTransform="translate(262 -52.5) rotate(90) scale(534.5 722.835)">
<stop offset="0.0922635" stop-color="white"/>
<stop offset="0.670207" stop-color="white" stop-opacity="0"/>
</radialGradient>
<radialGradient id="paint4_radial_862_12563" cx="0" cy="0" r="1" gradientUnits="userSpaceOnUse" gradientTransform="translate(261.1 383.753) scale(37.6053 85.8446)">
<stop stop-color="#743C1C"/>
<stop offset="1" stop-color="#401C02"/>
</radialGradient>
<linearGradient id="paint5_linear_862_12563" x1="261.095" y1="432.135" x2="261.095" y2="283.489" gradientUnits="userSpaceOnUse">
<stop offset="0.265625" stop-color="#FFDE43"/>
<stop offset="1" stop-color="#F79D14"/>
</linearGradient>
<linearGradient id="paint6_linear_862_12563" x1="211.242" y1="319.381" x2="310.92" y2="319.381" gradientUnits="userSpaceOnUse">
<stop stop-color="#CCCCCC"/>
<stop offset="0.05" stop-color="#D5D5D5"/>
<stop offset="0.2" stop-color="#E9E9E9"/>
<stop offset="0.35" stop-color="#F6F6F6"/>
<stop offset="0.5" stop-color="#FAFAFA"/>
<stop offset="0.65" stop-color="#F6F6F6"/>
<stop offset="0.8" stop-color="#E9E9E9"/>
<stop offset="0.95" stop-color="#D5D5D5"/>
<stop offset="1" stop-color="#CCCCCC"/>
</linearGradient>
<linearGradient id="paint7_linear_862_12563" x1="261.1" y1="428.43" x2="261.1" y2="287.75" gradientUnits="userSpaceOnUse">
<stop stop-color="#401C02"/>
<stop offset="1" stop-color="#401C02"/>
</linearGradient>
<linearGradient id="paint8_linear_862_12563" x1="261.1" y1="428.43" x2="261.1" y2="287.75" gradientUnits="userSpaceOnUse">
<stop stop-color="#401C02"/>
<stop offset="1" stop-color="#401C02"/>
</linearGradient>
<radialGradient id="paint9_radial_862_12563" cx="0" cy="0" r="1" gradientUnits="userSpaceOnUse" gradientTransform="translate(355.397 184.271) scale(81.6573 18.734)">
<stop stop-color="#743C1C"/>
<stop offset="1" stop-color="#401C02"/>
</radialGradient>
<linearGradient id="paint10_linear_862_12563" x1="355.485" y1="204.038" x2="355.485" y2="164.378" gradientUnits="userSpaceOnUse">
<stop stop-color="#FFDE43"/>
<stop offset="0.22" stop-color="#FED93F"/>
<stop offset="0.51" stop-color="#FCC934"/>
<stop offset="0.82" stop-color="#F9AF21"/>
<stop offset="1" stop-color="#F79D14"/>
</linearGradient>
<radialGradient id="paint11_radial_862_12563" cx="0" cy="0" r="1" gradientUnits="userSpaceOnUse" gradientTransform="translate(262 -4.53898e-06) rotate(90) scale(482)">
<stop stop-color="#FFDE43"/>
<stop offset="1" stop-color="#FFBC00"/>
</radialGradient>
<radialGradient id="paint12_radial_862_12563" cx="0" cy="0" r="1" gradientUnits="userSpaceOnUse" gradientTransform="translate(84.031 338.886) rotate(-56.4402) scale(87.366)">
<stop offset="0.0139674" stop-color="#FFDE43"/>
<stop offset="0.3975" stop-color="#FFDC41"/>
<stop offset="0.6038" stop-color="#FFD43B"/>
<stop offset="0.7679" stop-color="#FFC631"/>
<stop offset="0.9089" stop-color="#FFB323"/>
<stop offset="1" stop-color="#FFA216"/>
</radialGradient>
<radialGradient id="paint13_radial_862_12563" cx="0" cy="0" r="1" gradientUnits="userSpaceOnUse" gradientTransform="translate(84.031 338.886) rotate(-56.4402) scale(87.366)">
<stop offset="0.0139674" stop-color="#FFDE43"/>
<stop offset="0.3975" stop-color="#FFDC41"/>
<stop offset="0.6038" stop-color="#FFD43B"/>
<stop offset="0.7679" stop-color="#FFC631"/>
<stop offset="0.9089" stop-color="#FFB323"/>
<stop offset="1" stop-color="#FFA216"/>
</radialGradient>
<radialGradient id="paint14_radial_862_12563" cx="0" cy="0" r="1" gradientUnits="userSpaceOnUse" gradientTransform="translate(84.031 338.886) rotate(-56.4402) scale(87.366)">
<stop offset="0.0139674" stop-color="#FFDE43"/>
<stop offset="0.3975" stop-color="#FFDC41"/>
<stop offset="0.6038" stop-color="#FFD43B"/>
<stop offset="0.7679" stop-color="#FFC631"/>
<stop offset="0.9089" stop-color="#FFB323"/>
<stop offset="1" stop-color="#FFA216"/>
</radialGradient>
<radialGradient id="paint15_radial_862_12563" cx="0" cy="0" r="1" gradientUnits="userSpaceOnUse" gradientTransform="translate(84.031 338.886) rotate(-56.4402) scale(87.366)">
<stop offset="0.0139674" stop-color="#FFDE43"/>
<stop offset="0.3975" stop-color="#FFDC41"/>
<stop offset="0.6038" stop-color="#FFD43B"/>
<stop offset="0.7679" stop-color="#FFC631"/>
<stop offset="0.9089" stop-color="#FFB323"/>
<stop offset="1" stop-color="#FFA216"/>
</radialGradient>
<radialGradient id="paint16_radial_862_12563" cx="0" cy="0" r="1" gradientUnits="userSpaceOnUse" gradientTransform="translate(182.53 195.725) scale(45.0244 52.4608)">
<stop stop-color="#743C1C"/>
<stop offset="1" stop-color="#401C02"/>
</radialGradient>
<linearGradient id="paint17_linear_862_12563" x1="182.579" y1="251.077" x2="182.579" y2="140.019" gradientUnits="userSpaceOnUse">
<stop stop-color="#FFDE43"/>
<stop offset="0.22" stop-color="#FED93F"/>
<stop offset="0.51" stop-color="#FCC934"/>
<stop offset="0.82" stop-color="#F9AF21"/>
<stop offset="1" stop-color="#F79D14"/>
</linearGradient>
<linearGradient id="paint18_linear_862_12563" x1="65.0043" y1="105.579" x2="150.603" y2="253.149" gradientUnits="userSpaceOnUse">
<stop offset="0.03" stop-color="white" stop-opacity="0"/>
<stop offset="0.15" stop-color="white" stop-opacity="0.12"/>
<stop offset="0.45" stop-color="white" stop-opacity="0.41"/>
<stop offset="0.71" stop-color="white" stop-opacity="0.62"/>
<stop offset="0.9" stop-color="white" stop-opacity="0.75"/>
<stop offset="1" stop-color="white" stop-opacity="0.8"/>
</linearGradient>
</defs>
</svg>
