<svg width="483" height="533" viewBox="0 0 483 533" fill="none" xmlns="http://www.w3.org/2000/svg">
<path d="M241.18 482.36C374.38 482.36 482.36 374.38 482.36 241.18C482.36 107.98 374.38 0 241.18 0C107.98 0 0 107.98 0 241.18C0 374.38 107.98 482.36 241.18 482.36Z" fill="url(#paint0_radial_862_12511)"/>
<g style="mix-blend-mode:soft-light">
<path d="M241.18 482.36C374.38 482.36 482.36 374.38 482.36 241.18C482.36 107.98 374.38 0 241.18 0C107.98 0 0 107.98 0 241.18C0 374.38 107.98 482.36 241.18 482.36Z" fill="url(#paint1_radial_862_12511)"/>
</g>
<g style="mix-blend-mode:soft-light">
<path d="M241.18 482.36C374.38 482.36 482.36 374.38 482.36 241.18C482.36 107.98 374.38 0 241.18 0C107.98 0 0 107.98 0 241.18C0 374.38 107.98 482.36 241.18 482.36Z" fill="url(#paint2_radial_862_12511)"/>
</g>
<g style="mix-blend-mode:overlay">
<path d="M241.18 482.36C374.38 482.36 482.36 374.38 482.36 241.18C482.36 107.98 374.38 0 241.18 0C107.98 0 0 107.98 0 241.18C0 374.38 107.98 482.36 241.18 482.36Z" fill="url(#paint3_radial_862_12511)" fill-opacity="0.7"/>
</g>
<mask id="mask0_862_12511" style="mask-type:alpha" maskUnits="userSpaceOnUse" x="0" y="0" width="483" height="483">
<path d="M241.18 482.36C374.38 482.36 482.36 374.38 482.36 241.18C482.36 107.98 374.38 0 241.18 0C107.98 0 0 107.98 0 241.18C0 374.38 107.98 482.36 241.18 482.36Z" fill="white"/>
</mask>
<g mask="url(#mask0_862_12511)">
<g filter="url(#filter0_f_862_12511)">
<path d="M-1.3759 234.299C-1.11402 230.872 0.0137008 230.529 0.342619 234.008C0.708055 237.874 -0.00231624 245.646 0.16871 250.335C0.621554 262.748 2.52441 273.541 4.48605 282.32C10.8075 310.612 19.5617 328.843 27.7268 344.288C54.5663 395.06 83.9667 420.77 112.648 440.147C154.689 468.549 197.072 477.584 239.49 479.5C240.56 479.548 240.738 486.518 239.686 487.425C237.788 489.061 235.436 487.437 233.494 487.369C227.915 487.174 222.335 486.791 216.756 486.211C200.213 484.492 183.67 480.991 167.162 475.358C122.275 460.044 73.8765 433.821 31.6092 359.962C28.9502 355.316 26.3124 350.424 23.7118 345.167C21.6321 340.963 19.5726 336.556 17.5493 331.843C10.8946 316.342 -4.61323 276.658 -1.3759 234.299ZM239.52 487.5C238.499 487.531 238.241 481.034 239.214 479.685C240.684 477.647 242.888 479.326 244.439 479.229C250.877 478.826 257.314 478.229 263.75 477.421C281.395 475.205 299.028 471.422 316.621 465.596C360.257 451.145 407.17 429.115 448.305 361.431C450.923 357.123 453.518 352.553 456.079 347.641C463.86 332.712 483.361 293.084 481.107 243.821C480.917 239.668 482.181 237.181 482.747 240.743C483.467 245.279 483.175 254.736 482.977 259.768C482.341 275.883 479.866 289.512 477.257 300.518C468.987 335.399 457.376 355.623 446.744 372.51C412.184 427.397 374.648 449.524 338.155 465.424C305.424 479.686 272.444 486.484 239.52 487.5Z" fill="#401C02"/>
</g>
<g filter="url(#filter1_f_862_12511)">
<path d="M-1.3759 234.299C-1.11402 230.872 0.0137008 230.529 0.342619 234.008C0.708055 237.874 -0.00231624 245.646 0.16871 250.335C0.621554 262.748 2.52441 273.541 4.48605 282.32C10.8075 310.612 19.5617 328.843 27.7268 344.288C54.5663 395.06 83.9667 420.77 112.648 440.147C154.689 468.549 197.072 477.584 239.49 479.5C240.56 479.548 240.738 486.518 239.686 487.425C237.788 489.061 235.436 487.437 233.494 487.369C227.915 487.174 222.335 486.791 216.756 486.211C200.213 484.492 183.67 480.991 167.162 475.358C122.275 460.044 73.8765 433.821 31.6092 359.962C28.9502 355.316 26.3124 350.424 23.7118 345.167C21.6321 340.963 19.5726 336.556 17.5493 331.843C10.8946 316.342 -4.61323 276.658 -1.3759 234.299ZM239.52 487.5C238.499 487.531 238.241 481.034 239.214 479.685C240.684 477.647 242.888 479.326 244.439 479.229C250.877 478.826 257.314 478.229 263.75 477.421C281.395 475.205 299.028 471.422 316.621 465.596C360.257 451.145 407.17 429.115 448.305 361.431C450.923 357.123 453.518 352.553 456.079 347.641C463.86 332.712 483.361 293.084 481.107 243.821C480.917 239.668 482.181 237.181 482.747 240.743C483.467 245.279 483.175 254.736 482.977 259.768C482.341 275.883 479.866 289.512 477.257 300.518C468.987 335.399 457.376 355.623 446.744 372.51C412.184 427.397 374.648 449.524 338.155 465.424C305.424 479.686 272.444 486.484 239.52 487.5Z" fill="#401C02"/>
</g>
</g>
<path d="M274.131 262.71H207.171C200.797 262.71 195.631 267.874 195.631 274.245C195.631 280.616 200.797 285.78 207.171 285.78H274.131C280.504 285.78 285.671 280.616 285.671 274.245C285.671 267.874 280.504 262.71 274.131 262.71Z" fill="url(#paint4_radial_862_12511)"/>
<path d="M274.131 262.71H207.171C200.797 262.71 195.631 267.874 195.631 274.245C195.631 280.616 200.797 285.78 207.171 285.78H274.131C280.504 285.78 285.671 280.616 285.671 274.245C285.671 267.874 280.504 262.71 274.131 262.71Z" stroke="url(#paint5_linear_862_12511)" stroke-width="2" stroke-miterlimit="10"/>
<path d="M383.402 99.2803C377.812 91.2803 342.482 44.3703 294.932 60.0303C293.435 60.4895 292.14 61.4453 291.26 62.7397C290.381 64.0342 289.968 65.59 290.092 67.1503C290.312 69.0703 291.372 70.9803 294.302 71.9703C306.962 76.2703 334.092 68.5303 367.302 97.2503C370.192 99.7503 372.862 102.49 375.492 105.25C377.372 107.25 380.492 109.85 383.182 108.43C385.442 107.21 385.502 104.87 385.102 103.02C384.791 101.672 384.213 100.4 383.402 99.2803Z" fill="#42210B"/>
<path d="M321.472 187.01C337.472 187.01 350.442 175.15 350.442 160.52C350.442 145.89 337.472 134.03 321.472 134.03C305.472 134.03 292.502 145.89 292.502 160.52C292.502 175.15 305.472 187.01 321.472 187.01Z" fill="url(#paint6_radial_862_12511)"/>
<path d="M321.472 187.01C337.472 187.01 350.442 175.15 350.442 160.52C350.442 145.89 337.472 134.03 321.472 134.03C305.472 134.03 292.502 145.89 292.502 160.52C292.502 175.15 305.472 187.01 321.472 187.01Z" stroke="url(#paint7_linear_862_12511)" stroke-width="2" stroke-miterlimit="10"/>
<path d="M97.8914 99.2803C103.471 91.2803 138.801 44.3703 186.361 60.0303C187.857 60.4898 189.151 61.4459 190.029 62.7406C190.907 64.0353 191.317 65.5909 191.191 67.1503C190.971 69.0703 189.911 70.9803 186.981 71.9703C174.331 76.2703 147.201 68.5303 113.981 97.2503C111.121 99.7766 108.391 102.447 105.801 105.25C103.911 107.25 100.801 109.85 98.1114 108.43C95.8414 107.21 95.7914 104.87 96.1914 103.02C96.5017 101.672 97.0798 100.4 97.8914 99.2803Z" fill="#42210B"/>
<path d="M159.831 187.01C175.831 187.01 188.801 175.15 188.801 160.52C188.801 145.89 175.831 134.03 159.831 134.03C143.832 134.03 130.861 145.89 130.861 160.52C130.861 175.15 143.832 187.01 159.831 187.01Z" fill="url(#paint8_radial_862_12511)"/>
<path d="M159.831 187.01C175.831 187.01 188.801 175.15 188.801 160.52C188.801 145.89 175.831 134.03 159.831 134.03C143.832 134.03 130.861 145.89 130.861 160.52C130.861 175.15 143.832 187.01 159.831 187.01Z" stroke="url(#paint9_linear_862_12511)" stroke-width="2" stroke-miterlimit="10"/>
<mask id="mask1_862_12511" style="mask-type:alpha" maskUnits="userSpaceOnUse" x="0" y="0" width="483" height="483">
<path d="M241.18 482.36C374.38 482.36 482.36 374.38 482.36 241.18C482.36 107.98 374.38 0 241.18 0C107.98 0 0 107.98 0 241.18C0 374.38 107.98 482.36 241.18 482.36Z" fill="url(#paint10_radial_862_12511)"/>
</mask>
<g mask="url(#mask1_862_12511)">
<g opacity="0.7" filter="url(#filter2_f_862_12511)">
<path d="M265.401 521.85C266.711 520.13 267.971 518.38 269.261 516.64L272.261 512.56L275.981 507.56L280.311 501.73L285.121 495.24L290.311 488.24L295.791 480.85L301.431 473.24L307.151 465.53L312.821 457.87L318.361 450.4L323.651 443.27L328.581 436.62L333.061 430.62L336.971 425.35L340.211 420.97L342.681 417.64L344.271 415.5L344.881 414.68C346.183 412.929 347.125 410.938 347.655 408.821C348.185 406.705 348.291 404.504 347.968 402.347C347.644 400.189 346.898 398.116 345.771 396.248C344.644 394.38 343.159 392.753 341.401 391.46L336.191 387.61C332.567 384.946 328.034 383.827 323.587 384.498C319.139 385.169 315.138 387.575 312.461 391.19L310.071 394.42C310.02 394.489 309.948 394.541 309.867 394.567C309.785 394.593 309.696 394.593 309.615 394.567C309.533 394.54 309.461 394.489 309.41 394.419C309.36 394.35 309.332 394.266 309.331 394.18V356.29C309.329 354.411 308.734 352.581 307.631 351.06L302.711 344.31L287.121 322.93C285.912 321.271 284.164 320.082 282.177 319.566C280.19 319.05 278.085 319.239 276.221 320.1L252.161 331.19L234.611 339.29L218.611 346.65C218.538 346.682 218.476 346.734 218.431 346.8C218.151 347.23 217.891 347.69 217.651 348.15L214.401 354.53L214.121 355.07L208.651 357.6C208.578 357.632 208.516 357.684 208.471 357.75C208.191 358.18 207.931 358.64 207.691 359.1L204.401 365.51L204.121 366.05L198.651 368.58C198.578 368.612 198.516 368.664 198.471 368.73C198.191 369.16 197.931 369.62 197.691 370.08L194.401 376.49L182.471 399.77C178.831 406.87 174.471 413.67 172.011 421.32C171.299 423.602 170.8 425.946 170.521 428.32C169.751 434.59 170.221 440.99 170.221 447.32V493.55C170.221 506.495 175.364 518.91 184.517 528.064C193.671 537.218 206.086 542.36 219.031 542.36H225.811C234.624 542.375 243.271 539.971 250.811 535.41C255.145 532.805 259.031 529.52 262.321 525.68C263.401 524.44 264.401 523.15 265.401 521.85Z" fill="#9C3800"/>
<path d="M258.162 257.61C258.162 247.785 250.197 239.82 240.372 239.82C230.547 239.82 222.582 247.785 222.582 257.61V370.46C222.582 380.285 230.547 388.25 240.372 388.25C250.197 388.25 258.162 380.285 258.162 370.46V257.61Z" fill="#9C3800"/>
</g>
</g>
<path d="M265.401 511.85C266.711 510.13 267.971 508.38 269.261 506.64L272.261 502.56L275.981 497.56L280.311 491.73L285.121 485.24L290.311 478.24L295.791 470.85L301.431 463.24L307.151 455.53L312.821 447.87L318.361 440.4L323.651 433.27L328.581 426.62L333.061 420.62L336.971 415.35L340.211 410.97L342.681 407.64L344.271 405.5L344.881 404.68C346.183 402.929 347.125 400.938 347.655 398.821C348.185 396.705 348.291 394.504 347.968 392.347C347.644 390.189 346.898 388.116 345.771 386.248C344.644 384.38 343.159 382.753 341.401 381.46L336.191 377.61C332.567 374.946 328.034 373.827 323.587 374.498C319.139 375.169 315.138 377.575 312.461 381.19L310.071 384.42C310.02 384.489 309.948 384.541 309.867 384.567C309.785 384.593 309.696 384.593 309.615 384.567C309.533 384.54 309.461 384.489 309.41 384.419C309.36 384.35 309.332 384.266 309.331 384.18V346.29C309.329 344.411 308.734 342.581 307.631 341.06L302.711 334.31L287.121 312.93C285.912 311.271 284.164 310.082 282.177 309.566C280.19 309.05 278.085 309.239 276.221 310.1L252.161 321.19L234.611 329.29L218.611 336.65C218.538 336.682 218.476 336.734 218.431 336.8C218.151 337.23 217.891 337.69 217.651 338.15L214.401 344.53L214.121 345.07L208.651 347.6C208.578 347.632 208.516 347.684 208.471 347.75C208.191 348.18 207.931 348.64 207.691 349.1L204.401 355.51L204.121 356.05L198.651 358.58C198.578 358.612 198.516 358.664 198.471 358.73C198.191 359.16 197.931 359.62 197.691 360.08L194.401 366.49L182.471 389.77C178.831 396.87 174.471 403.67 172.011 411.32C171.299 413.602 170.8 415.946 170.521 418.32C169.751 424.59 170.221 430.99 170.221 437.32V483.55C170.221 496.495 175.364 508.91 184.517 518.064C193.671 527.218 206.086 532.36 219.031 532.36H225.811C234.624 532.375 243.271 529.971 250.811 525.41C255.145 522.805 259.031 519.52 262.321 515.68C263.401 514.44 264.401 513.15 265.401 511.85Z" fill="url(#paint11_linear_862_12511)"/>
<path opacity="0.5" d="M289.931 411.826L312.741 380.926C314.031 379.177 315.654 377.699 317.516 376.576C319.378 375.454 321.443 374.709 323.592 374.385C325.742 374.061 327.935 374.164 330.045 374.687C332.155 375.211 334.142 376.145 335.891 377.436L341.431 381.526C343.18 382.817 344.659 384.44 345.781 386.302C346.903 388.164 347.648 390.229 347.972 392.378C348.296 394.528 348.193 396.721 347.67 398.831C347.146 400.941 346.212 402.927 344.921 404.676L285.601 484.986" fill="url(#paint12_linear_862_12511)"/>
<path d="M258.162 247.61C258.162 237.785 250.197 229.82 240.372 229.82C230.547 229.82 222.582 237.785 222.582 247.61V360.46C222.582 370.285 230.547 378.25 240.372 378.25C250.197 378.25 258.162 370.285 258.162 360.46V247.61Z" fill="url(#paint13_linear_862_12511)"/>
<mask id="mask2_862_12511" style="mask-type:alpha" maskUnits="userSpaceOnUse" x="222" y="229" width="37" height="150">
<path d="M258.162 247.61C258.162 237.785 250.197 229.82 240.372 229.82C230.547 229.82 222.582 237.785 222.582 247.61V360.46C222.582 370.285 230.547 378.25 240.372 378.25C250.197 378.25 258.162 370.285 258.162 360.46V247.61Z" fill="url(#paint14_linear_862_12511)"/>
</mask>
<g mask="url(#mask2_862_12511)">
<g filter="url(#filter3_f_862_12511)">
<path d="M240.372 230.57C249.783 230.57 257.412 238.199 257.412 247.61V360.46C257.412 369.871 249.783 377.5 240.372 377.5C230.961 377.5 223.332 369.871 223.332 360.46V247.61C223.332 238.199 230.961 230.57 240.372 230.57Z" stroke="#CD5500" stroke-width="1.5"/>
</g>
</g>
<path d="M309.162 346.23V387.12C309.161 390.465 308.147 393.732 306.253 396.49C304.359 399.248 301.674 401.368 298.552 402.57C297.582 402.947 296.577 403.229 295.552 403.41C294.54 403.601 293.511 403.692 292.482 403.68C290.845 403.668 289.219 403.405 287.662 402.9V416.64C287.66 420.102 286.573 423.477 284.553 426.29C282.533 429.103 279.682 431.211 276.402 432.32C274.649 432.909 272.811 433.207 270.962 433.2C261.802 433.13 254.532 425.37 254.532 416.2V380.58C254.525 380.093 254.399 379.616 254.163 379.191C253.927 378.766 253.589 378.406 253.18 378.144C252.77 377.881 252.302 377.724 251.818 377.687C251.333 377.649 250.846 377.733 250.402 377.93L224.042 392.06C222.205 393.041 220.521 394.284 219.042 395.75C217.57 397.226 216.323 398.911 215.342 400.75C214.265 402.733 213.82 404.998 214.067 407.241C214.314 409.484 215.24 411.598 216.722 413.3C221.036 418.276 226.255 422.389 232.102 425.42L245.572 432.42C254.432 437.017 261.914 443.884 267.252 452.32C269.852 456.425 271.509 461.056 272.102 465.88L275.222 491.34C275.285 491.807 275.318 492.278 275.322 492.75L272.262 497.58L269.262 502.35C267.982 504.35 266.712 506.43 265.412 508.44C264.412 509.96 263.412 511.44 262.362 512.92C259.167 517.312 255.28 521.156 250.852 524.3C247.223 526.873 243.233 528.895 239.012 530.3C235.293 531.523 231.423 532.227 227.512 532.39C226.962 532.39 226.402 532.39 225.852 532.39H219.072H217.812C191.432 531.61 170.262 506.39 170.262 475.39V421.47C170.262 420.94 170.342 420.41 170.392 419.88C170.442 419.35 170.502 418.82 170.562 418.29C170.838 415.916 171.333 413.572 172.042 411.29C174.472 403.64 178.872 396.83 182.512 389.74L182.592 389.59L182.702 389.37C182.922 388.94 183.332 388.15 183.852 387.12C184.022 386.8 184.192 386.45 184.382 386.12C184.732 385.44 185.112 384.69 185.532 383.89C185.682 383.58 185.842 383.28 186.002 382.96L186.292 382.39L186.752 381.5L190.232 374.71L190.672 373.85L190.932 373.34L191.412 372.41L191.682 371.88L191.912 371.42L192.062 371.14L192.302 370.67L192.582 370.12L192.782 369.72C192.852 369.59 192.912 369.46 192.982 369.34C193.052 369.22 193.052 369.22 193.082 369.15L193.252 368.82L193.342 368.64L193.572 368.18L193.802 367.74L194.362 366.64L194.442 366.49L194.522 366.32L197.722 360.08C197.958 359.616 198.218 359.166 198.502 358.73C198.546 358.661 198.609 358.606 198.682 358.57L204.152 356.05L204.432 355.51L207.722 349.1C207.958 348.636 208.218 348.186 208.502 347.75L208.372 347.62L214.212 344.93L214.402 344.56L217.562 338.4L223.802 335.01L232.802 330.14L234.472 329.23L252.022 321.13L256.952 318.86L276.082 310.04C278.099 309.103 280.396 308.963 282.512 309.65C282.784 309.731 283.051 309.828 283.312 309.94C284.773 310.574 286.039 311.585 286.982 312.87L287.692 313.87L302.572 334.3L307.492 341.05C308.574 342.56 309.158 344.371 309.162 346.23Z" fill="url(#paint15_linear_862_12511)"/>
<mask id="mask3_862_12511" style="mask-type:alpha" maskUnits="userSpaceOnUse" x="170" y="309" width="140" height="224">
<path d="M309.162 346.23V387.12C309.161 390.465 308.147 393.732 306.253 396.49C304.359 399.248 301.674 401.368 298.552 402.57C297.582 402.947 296.577 403.229 295.552 403.41C294.54 403.601 293.511 403.692 292.482 403.68C290.845 403.668 289.219 403.405 287.662 402.9V416.64C287.66 420.102 286.573 423.477 284.553 426.29C282.533 429.103 279.682 431.211 276.402 432.32C274.649 432.909 272.811 433.207 270.962 433.2C261.802 433.13 254.532 425.37 254.532 416.2V380.58C254.525 380.093 254.399 379.616 254.163 379.191C253.927 378.766 253.589 378.406 253.18 378.144C252.77 377.881 252.302 377.724 251.818 377.687C251.333 377.649 250.846 377.733 250.402 377.93L224.042 392.06C222.205 393.041 220.521 394.284 219.042 395.75C217.57 397.226 216.323 398.911 215.342 400.75C214.265 402.733 213.82 404.998 214.067 407.241C214.314 409.484 215.24 411.598 216.722 413.3C221.036 418.276 226.255 422.389 232.102 425.42L245.572 432.42C254.432 437.017 261.914 443.884 267.252 452.32C269.852 456.425 271.509 461.056 272.102 465.88L275.222 491.34C275.285 491.807 275.318 492.278 275.322 492.75L272.262 497.58L269.262 502.35C267.982 504.35 266.712 506.43 265.412 508.44C264.412 509.96 263.412 511.44 262.362 512.92C259.167 517.312 255.28 521.156 250.852 524.3C247.223 526.873 243.233 528.895 239.012 530.3C235.293 531.523 231.423 532.227 227.512 532.39C226.962 532.39 226.402 532.39 225.852 532.39H219.072H217.812C191.432 531.61 170.262 506.39 170.262 475.39V421.47C170.262 420.94 170.342 420.41 170.392 419.88C170.442 419.35 170.502 418.82 170.562 418.29C170.838 415.916 171.333 413.572 172.042 411.29C174.472 403.64 178.872 396.83 182.512 389.74L182.592 389.59L182.702 389.37C182.922 388.94 183.332 388.15 183.852 387.12C184.022 386.8 184.192 386.45 184.382 386.12C184.732 385.44 185.112 384.69 185.532 383.89C185.682 383.58 185.842 383.28 186.002 382.96L186.292 382.39L186.752 381.5L190.232 374.71L190.672 373.85L190.932 373.34L191.412 372.41L191.682 371.88L191.912 371.42L192.062 371.14L192.302 370.67L192.582 370.12L192.782 369.72C192.852 369.59 192.912 369.46 192.982 369.34C193.052 369.22 193.052 369.22 193.082 369.15L193.252 368.82L193.342 368.64L193.572 368.18L193.802 367.74L194.362 366.64L194.442 366.49L194.522 366.32L197.722 360.08C197.958 359.616 198.218 359.166 198.502 358.73C198.546 358.661 198.609 358.606 198.682 358.57L204.152 356.05L204.432 355.51L207.722 349.1C207.958 348.636 208.218 348.186 208.502 347.75L208.372 347.62L214.212 344.93L214.402 344.56L217.562 338.4L223.802 335.01L232.802 330.14L234.472 329.23L252.022 321.13L256.952 318.86L276.082 310.04C278.099 309.103 280.396 308.963 282.512 309.65C282.784 309.731 283.051 309.828 283.312 309.94C284.773 310.574 286.039 311.585 286.982 312.87L287.692 313.87L302.572 334.3L307.492 341.05C308.574 342.56 309.158 344.371 309.162 346.23Z" fill="url(#paint16_linear_862_12511)"/>
</mask>
<g mask="url(#mask3_862_12511)">
<g filter="url(#filter4_f_862_12511)">
<path d="M309.162 346.23C309.158 344.371 308.574 342.56 307.492 341.05L302.572 334.3L287.692 313.87L286.982 312.87C286.039 311.585 284.773 310.574 283.312 309.94C283.051 309.828 282.784 309.731 282.512 309.65C280.396 308.963 278.099 309.103 276.082 310.04L256.952 318.86L252.022 321.13L234.472 329.23L232.802 330.14L223.802 335.01L217.562 338.4L214.402 344.56L214.212 344.93" stroke="#C45B03" stroke-width="3"/>
</g>
</g>
<g filter="url(#filter5_f_862_12511)">
<path d="M278.728 380.1V414.4C278.728 417.2 277.928 419.7 276.528 421.9C274.828 424.5 272.328 426.6 269.228 427.6C268.628 427.8 267.928 428 267.228 428.1C266.428 428.3 265.528 428.3 264.628 428.3C263.428 428.3 262.328 428.1 261.228 427.9C255.228 426.3 250.828 420.6 250.828 414.1V384.2C250.828 382.4 248.928 381.2 247.328 382L225.328 393.8C223.828 394.6 222.328 395.7 221.128 396.9C219.928 398.1 218.828 399.5 218.028 401.1C217.228 402.5 216.928 404 216.928 405.5C216.928 407.7 217.728 409.9 219.228 411.6C222.828 415.8 227.228 419.2 232.128 421.8L243.428 427.7C245.928 429 248.328 430.5 250.528 432.2L180.128 459.9V431.8C180.128 428.2 179.928 424.6 180.028 421.1C180.028 420.8 180.028 420.6 180.028 420.3C180.028 419.7 180.028 419.1 180.128 418.5C180.128 418 180.228 417.6 180.228 417.2C180.228 416.8 180.328 416.3 180.328 415.9C180.528 413.9 180.928 412 181.528 410C183.528 403.6 187.228 397.9 190.328 391.9C190.328 391.9 190.328 391.9 190.428 391.8C190.428 391.8 190.528 391.7 190.528 391.6C190.728 391.2 191.028 390.6 191.528 389.7C191.628 389.4 191.828 389.1 191.928 388.8C192.228 388.2 192.528 387.6 192.928 386.9C193.028 386.6 193.228 386.4 193.328 386.1C193.428 386 193.528 385.8 193.528 385.6C193.628 385.4 193.828 385.1 193.928 384.8C194.828 383 195.928 381 196.828 379.1C196.928 378.9 197.028 378.6 197.228 378.4C197.328 378.3 197.328 378.1 197.428 378C197.528 377.7 197.728 377.5 197.828 377.2C197.928 377.1 198.028 376.9 198.028 376.7C198.128 376.6 198.128 376.4 198.228 376.3C198.328 376.2 198.328 376.1 198.328 376.1C198.428 376 198.428 375.8 198.528 375.7C198.628 375.5 198.728 375.4 198.728 375.2C198.828 375.1 198.828 375 198.928 374.9C199.028 374.8 199.028 374.7 199.128 374.6C199.128 374.6 199.228 374.5 199.228 374.4C199.228 374.3 199.328 374.2 199.328 374.1C199.328 374.1 199.328 374 199.428 374C199.528 373.9 199.528 373.7 199.628 373.6C199.728 373.5 199.728 373.3 199.828 373.2C200.028 372.8 200.228 372.4 200.328 372.3L200.228 372.1L200.428 372L216.028 365.8L230.728 359L250.928 349.7C251.928 349.2 253.028 349 254.128 349C256.428 349 258.728 350.1 260.128 352.1L269.328 364.8L273.228 370.1L277.328 375.8C278.228 377 278.728 378.5 278.728 380.1Z" fill="#B72B00" fill-opacity="0.35"/>
</g>
<path d="M299.161 357.21V398.1C299.161 401.606 298.047 405.022 295.98 407.854C293.914 410.687 291 412.79 287.661 413.86V416.64C287.659 420.102 286.572 423.477 284.552 426.29C282.532 429.103 279.682 431.211 276.401 432.32C274.648 432.909 272.811 433.207 270.961 433.2C261.801 433.13 254.531 425.37 254.531 416.2V380.58C254.525 380.093 254.398 379.616 254.162 379.191C253.926 378.766 253.588 378.406 253.179 378.144C252.77 377.881 252.302 377.724 251.817 377.687C251.332 377.649 250.846 377.733 250.401 377.93L224.041 392.06C222.205 393.041 220.521 394.284 219.041 395.75C217.569 397.226 216.323 398.911 215.341 400.75C214.265 402.733 213.82 404.998 214.067 407.241C214.313 409.484 215.24 411.598 216.721 413.3C221.035 418.276 226.254 422.389 232.101 425.42L245.571 432.42C254.432 437.017 261.913 443.884 267.251 452.32C269.852 456.425 271.508 461.056 272.101 465.88L275.221 491.34C275.284 491.807 275.318 492.278 275.321 492.75C275.331 492.92 275.331 493.09 275.321 493.26C275.321 496.629 274.242 499.909 272.241 502.62L269.241 506.7C267.961 508.44 266.691 510.19 265.391 511.91C264.391 513.21 263.391 514.49 262.341 515.74C259.051 519.58 255.165 522.865 250.831 525.47C247.132 527.704 243.149 529.432 238.991 530.61C237.991 530.88 236.991 531.13 235.991 531.34L235.171 531.5C234.921 531.56 234.681 531.6 234.431 531.64C234.181 531.68 233.831 531.75 233.531 531.79C233.231 531.83 232.791 531.92 232.411 531.96L230.971 532.14L230.091 532.22L228.911 532.32L227.451 532.39C226.901 532.39 226.341 532.39 225.791 532.39H219.011H217.751C216.931 532.39 216.111 532.35 215.291 532.27L214.081 532.16C213.271 532.08 212.471 531.98 211.671 531.86C210.871 531.74 210.081 531.6 209.301 531.44L208.131 531.19C204.193 530.299 200.383 528.915 196.791 527.07C196.441 526.89 196.091 526.71 195.791 526.52C195.091 526.14 194.411 525.75 193.791 525.34L192.791 524.74C192.451 524.52 192.111 524.3 191.791 524.07C190.791 523.42 189.871 522.72 188.951 522C188.331 521.51 187.731 521 187.141 520.51L186.261 519.73C185.101 518.683 183.998 517.58 182.951 516.42L182.171 515.54C181.661 514.95 181.171 514.35 180.681 513.73L179.971 512.8C179.731 512.49 179.501 512.17 179.281 511.8L178.611 510.8C178.401 510.5 178.201 510.19 178.011 509.89C177.821 509.59 177.551 509.18 177.341 508.82C176.931 508.15 176.541 507.47 176.161 506.77C175.971 506.43 175.791 506.08 175.611 505.77C174.486 503.584 173.533 501.314 172.761 498.98C172.631 498.6 172.511 498.23 172.401 497.85C172.291 497.47 172.211 497.23 172.121 496.91C172.031 496.59 171.911 496.14 171.811 495.75C170.784 491.765 170.266 487.665 170.271 483.55V437.32C170.271 433.07 170.061 428.79 170.141 424.54V423.59C170.141 422.88 170.201 422.18 170.241 421.47C170.241 420.94 170.321 420.41 170.371 419.88C170.421 419.35 170.481 418.82 170.541 418.29C170.817 415.916 171.313 413.572 172.021 411.29C174.451 403.64 178.851 396.83 182.491 389.74L182.571 389.59L182.681 389.37C182.901 388.94 183.311 388.15 183.831 387.12C184.001 386.8 184.171 386.45 184.361 386.12C184.711 385.44 185.091 384.69 185.511 383.89C185.661 383.58 185.821 383.28 185.981 382.96L186.271 382.39L186.731 381.5L190.211 374.71L190.651 373.85L190.911 373.34L191.391 372.41L191.661 371.88L191.891 371.42L192.041 371.14L192.281 370.67L192.561 370.12L192.761 369.72L192.951 369.34C192.951 369.28 193.021 369.22 193.051 369.15L193.221 368.82L193.311 368.64L193.541 368.18L193.771 367.74L194.331 366.64L194.411 366.49L194.491 366.32L197.691 360.08C197.927 359.616 198.188 359.166 198.471 358.73C198.516 358.661 198.578 358.606 198.651 358.57L204.121 356.05L204.401 355.51L207.691 349.1C207.927 348.636 208.188 348.186 208.471 347.75C208.506 347.692 208.559 347.646 208.621 347.62L214.091 345.1L214.181 344.93L224.401 340.18L241.951 332.08L266.011 320.99C267.875 320.129 269.98 319.94 271.967 320.456C273.955 320.972 275.702 322.161 276.911 323.82L287.621 338.53L292.501 345.23L297.421 351.98C298.538 353.496 299.147 355.326 299.161 357.21Z" fill="url(#paint17_linear_862_12511)"/>
<mask id="mask4_862_12511" style="mask-type:alpha" maskUnits="userSpaceOnUse" x="170" y="320" width="130" height="213">
<path d="M299.161 357.21V398.1C299.161 401.606 298.047 405.022 295.98 407.854C293.914 410.687 291 412.79 287.661 413.86V416.64C287.659 420.102 286.572 423.477 284.552 426.29C282.532 429.103 279.682 431.211 276.401 432.32C274.648 432.909 272.811 433.207 270.961 433.2C261.801 433.13 254.531 425.37 254.531 416.2V380.58C254.525 380.093 254.398 379.616 254.162 379.191C253.926 378.766 253.588 378.406 253.179 378.144C252.77 377.881 252.302 377.724 251.817 377.687C251.332 377.649 250.846 377.733 250.401 377.93L224.041 392.06C222.205 393.041 220.521 394.284 219.041 395.75C217.569 397.226 216.323 398.911 215.341 400.75C214.265 402.733 213.82 404.998 214.067 407.241C214.313 409.484 215.24 411.598 216.721 413.3C221.035 418.276 226.254 422.389 232.101 425.42L245.571 432.42C254.432 437.017 261.913 443.884 267.251 452.32C269.852 456.425 271.508 461.056 272.101 465.88L275.221 491.34C275.284 491.807 275.318 492.278 275.321 492.75C275.331 492.92 275.331 493.09 275.321 493.26C275.321 496.629 274.242 499.909 272.241 502.62L269.241 506.7C267.961 508.44 266.691 510.19 265.391 511.91C264.391 513.21 263.391 514.49 262.341 515.74C259.051 519.58 255.165 522.865 250.831 525.47C247.132 527.704 243.149 529.432 238.991 530.61C237.991 530.88 236.991 531.13 235.991 531.34L235.171 531.5C234.921 531.56 234.681 531.6 234.431 531.64C234.181 531.68 233.831 531.75 233.531 531.79C233.231 531.83 232.791 531.92 232.411 531.96L230.971 532.14L230.091 532.22L228.911 532.32L227.451 532.39C226.901 532.39 226.341 532.39 225.791 532.39H219.011H217.751C216.931 532.39 216.111 532.35 215.291 532.27L214.081 532.16C213.271 532.08 212.471 531.98 211.671 531.86C210.871 531.74 210.081 531.6 209.301 531.44L208.131 531.19C204.193 530.299 200.383 528.915 196.791 527.07C196.441 526.89 196.091 526.71 195.791 526.52C195.091 526.14 194.411 525.75 193.791 525.34L192.791 524.74C192.451 524.52 192.111 524.3 191.791 524.07C190.791 523.42 189.871 522.72 188.951 522C188.331 521.51 187.731 521 187.141 520.51L186.261 519.73C185.101 518.683 183.998 517.58 182.951 516.42L182.171 515.54C181.661 514.95 181.171 514.35 180.681 513.73L179.971 512.8C179.731 512.49 179.501 512.17 179.281 511.8L178.611 510.8C178.401 510.5 178.201 510.19 178.011 509.89C177.821 509.59 177.551 509.18 177.341 508.82C176.931 508.15 176.541 507.47 176.161 506.77C175.971 506.43 175.791 506.08 175.611 505.77C174.486 503.584 173.533 501.314 172.761 498.98C172.631 498.6 172.511 498.23 172.401 497.85C172.291 497.47 172.211 497.23 172.121 496.91C172.031 496.59 171.911 496.14 171.811 495.75C170.784 491.765 170.266 487.665 170.271 483.55V437.32C170.271 433.07 170.061 428.79 170.141 424.54V423.59C170.141 422.88 170.201 422.18 170.241 421.47C170.241 420.94 170.321 420.41 170.371 419.88C170.421 419.35 170.481 418.82 170.541 418.29C170.817 415.916 171.313 413.572 172.021 411.29C174.451 403.64 178.851 396.83 182.491 389.74L182.571 389.59L182.681 389.37C182.901 388.94 183.311 388.15 183.831 387.12C184.001 386.8 184.171 386.45 184.361 386.12C184.711 385.44 185.091 384.69 185.511 383.89C185.661 383.58 185.821 383.28 185.981 382.96L186.271 382.39L186.731 381.5L190.211 374.71L190.651 373.85L190.911 373.34L191.391 372.41L191.661 371.88L191.891 371.42L192.041 371.14L192.281 370.67L192.561 370.12L192.761 369.72L192.951 369.34C192.951 369.28 193.021 369.22 193.051 369.15L193.221 368.82L193.311 368.64L193.541 368.18L193.771 367.74L194.331 366.64L194.411 366.49L194.491 366.32L197.691 360.08C197.927 359.616 198.188 359.166 198.471 358.73C198.516 358.661 198.578 358.606 198.651 358.57L204.121 356.05L204.401 355.51L207.691 349.1C207.927 348.636 208.188 348.186 208.471 347.75C208.506 347.692 208.559 347.646 208.621 347.62L214.091 345.1L214.181 344.93L224.401 340.18L241.951 332.08L266.011 320.99C267.875 320.129 269.98 319.94 271.967 320.456C273.955 320.972 275.702 322.161 276.911 323.82L287.621 338.53L292.501 345.23L297.421 351.98C298.538 353.496 299.147 355.326 299.161 357.21Z" fill="url(#paint18_linear_862_12511)"/>
</mask>
<g mask="url(#mask4_862_12511)">
<g filter="url(#filter6_f_862_12511)">
<path d="M299.161 357.21C299.147 355.326 298.538 353.496 297.421 351.98L292.501 345.23L287.621 338.53L276.911 323.82C275.702 322.161 273.954 320.972 271.967 320.456C269.98 319.94 267.875 320.129 266.011 320.99L241.951 332.08L224.401 340.18L214.181 344.93L214.091 345.1L208.621 347.62C208.559 347.646 208.506 347.692 208.471 347.75C208.188 348.186 207.927 348.636 207.691 349.1L204.401 355.51L204.121 356.05" stroke="#BF5703" stroke-width="3"/>
</g>
</g>
<path d="M287.661 375.75V416.64C287.659 420.102 286.572 423.477 284.552 426.29C282.532 429.103 279.682 431.212 276.401 432.32C274.648 432.909 272.811 433.207 270.961 433.2C261.801 433.13 254.531 425.37 254.531 416.2V380.58C254.525 380.094 254.398 379.616 254.162 379.191C253.926 378.766 253.588 378.406 253.179 378.144C252.77 377.881 252.302 377.724 251.817 377.687C251.332 377.649 250.846 377.733 250.401 377.93L224.041 392.06C222.205 393.041 220.521 394.284 219.041 395.75C217.569 397.226 216.323 398.911 215.341 400.75C214.265 402.733 213.82 404.998 214.067 407.241C214.313 409.484 215.24 411.598 216.721 413.3C221.035 418.276 226.254 422.389 232.101 425.42L245.571 432.42C254.432 437.017 261.913 443.884 267.251 452.32C269.852 456.425 271.508 461.057 272.101 465.88L275.221 491.34C275.284 491.807 275.318 492.278 275.321 492.75C275.331 492.92 275.331 493.09 275.321 493.26C275.321 496.629 274.242 499.909 272.241 502.62L269.241 506.7C267.961 508.44 266.691 510.19 265.391 511.91C264.391 513.21 263.391 514.49 262.341 515.74C259.051 519.58 255.165 522.865 250.831 525.47C247.132 527.704 243.149 529.432 238.991 530.61C237.991 530.88 236.991 531.13 235.991 531.34L235.171 531.5C234.921 531.56 234.681 531.6 234.431 531.64C234.181 531.68 233.831 531.75 233.531 531.79C233.231 531.83 232.791 531.92 232.411 531.96L230.971 532.14L230.091 532.22L228.911 532.32L227.451 532.39C226.901 532.39 226.341 532.39 225.791 532.39H219.011H217.751C216.931 532.39 216.111 532.35 215.291 532.27L214.081 532.16C213.271 532.08 212.471 531.98 211.671 531.86C210.871 531.74 210.081 531.6 209.301 531.44L208.131 531.19C204.193 530.299 200.383 528.915 196.791 527.07C196.441 526.89 196.091 526.71 195.791 526.52C195.091 526.14 194.411 525.75 193.791 525.34L192.791 524.74C192.451 524.52 192.111 524.3 191.791 524.07C190.791 523.42 189.871 522.73 188.951 522C188.331 521.51 187.731 521 187.141 520.51L186.261 519.73C185.101 518.683 183.998 517.58 182.951 516.42L182.171 515.54C181.661 514.95 181.171 514.35 180.681 513.73L179.971 512.8C179.731 512.49 179.501 512.17 179.281 511.8L178.611 510.8C178.401 510.5 178.201 510.19 178.011 509.89C177.821 509.59 177.551 509.18 177.341 508.82C176.931 508.15 176.541 507.47 176.161 506.77C175.971 506.43 175.791 506.08 175.611 505.77C174.486 503.584 173.533 501.314 172.761 498.98C172.631 498.6 172.511 498.23 172.401 497.85C172.291 497.47 172.211 497.23 172.121 496.91C172.031 496.59 171.911 496.14 171.811 495.75C170.784 491.765 170.266 487.665 170.271 483.55V437.32C170.271 433.07 170.061 428.79 170.141 424.54V423.59C170.141 422.88 170.201 422.18 170.241 421.47C170.241 420.94 170.321 420.41 170.371 419.88C170.421 419.35 170.481 418.82 170.541 418.29C170.817 415.916 171.313 413.572 172.021 411.29C174.451 403.64 178.851 396.83 182.491 389.74L182.571 389.59L182.681 389.37C182.901 388.94 183.311 388.15 183.831 387.12C184.001 386.8 184.171 386.45 184.361 386.12C184.711 385.44 185.091 384.69 185.511 383.89C185.661 383.58 185.821 383.28 185.981 382.96L186.271 382.39L186.731 381.5L190.211 374.71L190.651 373.85L190.911 373.34L191.391 372.41L191.661 371.88L191.891 371.42C191.951 371.33 191.991 371.23 192.041 371.14L192.281 370.67L192.561 370.12L192.771 369.72L192.961 369.34C192.961 369.28 193.031 369.22 193.061 369.15L193.231 368.82L193.321 368.64L193.551 368.18L193.781 367.74L194.341 366.64L194.251 366.43L194.501 366.32L212.941 358.72L230.491 350.62L254.551 339.53C256.415 338.669 258.52 338.48 260.507 338.996C262.495 339.512 264.242 340.701 265.451 342.36L276.451 357.43L281.071 363.77L285.991 370.52C287.083 372.044 287.668 373.874 287.661 375.75Z" fill="url(#paint19_radial_862_12511)"/>
<mask id="mask5_862_12511" style="mask-type:alpha" maskUnits="userSpaceOnUse" x="170" y="338" width="118" height="195">
<path d="M287.661 375.75V416.64C287.659 420.102 286.572 423.477 284.552 426.29C282.532 429.103 279.682 431.212 276.401 432.32C274.648 432.909 272.811 433.207 270.961 433.2C261.801 433.13 254.531 425.37 254.531 416.2V380.58C254.525 380.094 254.398 379.616 254.162 379.191C253.926 378.766 253.588 378.406 253.179 378.144C252.77 377.881 252.302 377.724 251.817 377.687C251.332 377.649 250.846 377.733 250.401 377.93L224.041 392.06C222.205 393.041 220.521 394.284 219.041 395.75C217.569 397.226 216.323 398.911 215.341 400.75C214.265 402.733 213.82 404.998 214.067 407.241C214.313 409.484 215.24 411.598 216.721 413.3C221.035 418.276 226.254 422.389 232.101 425.42L245.571 432.42C254.432 437.017 261.913 443.884 267.251 452.32C269.852 456.425 271.508 461.057 272.101 465.88L275.221 491.34C275.284 491.807 275.318 492.278 275.321 492.75C275.331 492.92 275.331 493.09 275.321 493.26C275.321 496.629 274.242 499.909 272.241 502.62L269.241 506.7C267.961 508.44 266.691 510.19 265.391 511.91C264.391 513.21 263.391 514.49 262.341 515.74C259.051 519.58 255.165 522.865 250.831 525.47C247.132 527.704 243.149 529.432 238.991 530.61C237.991 530.88 236.991 531.13 235.991 531.34L235.171 531.5C234.921 531.56 234.681 531.6 234.431 531.64C234.181 531.68 233.831 531.75 233.531 531.79C233.231 531.83 232.791 531.92 232.411 531.96L230.971 532.14L230.091 532.22L228.911 532.32L227.451 532.39C226.901 532.39 226.341 532.39 225.791 532.39H219.011H217.751C216.931 532.39 216.111 532.35 215.291 532.27L214.081 532.16C213.271 532.08 212.471 531.98 211.671 531.86C210.871 531.74 210.081 531.6 209.301 531.44L208.131 531.19C204.193 530.299 200.383 528.915 196.791 527.07C196.441 526.89 196.091 526.71 195.791 526.52C195.091 526.14 194.411 525.75 193.791 525.34L192.791 524.74C192.451 524.52 192.111 524.3 191.791 524.07C190.791 523.42 189.871 522.73 188.951 522C188.331 521.51 187.731 521 187.141 520.51L186.261 519.73C185.101 518.683 183.998 517.58 182.951 516.42L182.171 515.54C181.661 514.95 181.171 514.35 180.681 513.73L179.971 512.8C179.731 512.49 179.501 512.17 179.281 511.8L178.611 510.8C178.401 510.5 178.201 510.19 178.011 509.89C177.821 509.59 177.551 509.18 177.341 508.82C176.931 508.15 176.541 507.47 176.161 506.77C175.971 506.43 175.791 506.08 175.611 505.77C174.486 503.584 173.533 501.314 172.761 498.98C172.631 498.6 172.511 498.23 172.401 497.85C172.291 497.47 172.211 497.23 172.121 496.91C172.031 496.59 171.911 496.14 171.811 495.75C170.784 491.765 170.266 487.665 170.271 483.55V437.32C170.271 433.07 170.061 428.79 170.141 424.54V423.59C170.141 422.88 170.201 422.18 170.241 421.47C170.241 420.94 170.321 420.41 170.371 419.88C170.421 419.35 170.481 418.82 170.541 418.29C170.817 415.916 171.313 413.572 172.021 411.29C174.451 403.64 178.851 396.83 182.491 389.74L182.571 389.59L182.681 389.37C182.901 388.94 183.311 388.15 183.831 387.12C184.001 386.8 184.171 386.45 184.361 386.12C184.711 385.44 185.091 384.69 185.511 383.89C185.661 383.58 185.821 383.28 185.981 382.96L186.271 382.39L186.731 381.5L190.211 374.71L190.651 373.85L190.911 373.34L191.391 372.41L191.661 371.88L191.891 371.42C191.951 371.33 191.991 371.23 192.041 371.14L192.281 370.67L192.561 370.12L192.771 369.72L192.961 369.34C192.961 369.28 193.031 369.22 193.061 369.15L193.231 368.82L193.321 368.64L193.551 368.18L193.781 367.74L194.341 366.64L194.251 366.43L194.501 366.32L212.941 358.72L230.491 350.62L254.551 339.53C256.415 338.669 258.52 338.48 260.507 338.996C262.495 339.512 264.242 340.701 265.451 342.36L276.451 357.43L281.071 363.77L285.991 370.52C287.083 372.044 287.668 373.874 287.661 375.75Z" fill="url(#paint20_radial_862_12511)"/>
</mask>
<g mask="url(#mask5_862_12511)">
<g filter="url(#filter7_f_862_12511)">
<path d="M284.553 426.29C286.572 423.477 287.66 420.102 287.661 416.64V375.75C287.668 373.874 287.084 372.044 285.991 370.52L281.072 363.77L276.451 357.43L265.451 342.36C264.242 340.701 262.495 339.512 260.507 338.996C258.52 338.48 256.415 338.669 254.551 339.53L230.491 350.62L212.941 358.72L194.501 366.32L194.251 366.43L194.341 366.64L193.781 367.74L193.551 368.18L193.321 368.64L193.231 368.82L193.061 369.15C193.031 369.22 192.961 369.28 192.961 369.34L192.771 369.72L192.561 370.12L192.281 370.67L192.041 371.14C191.991 371.23 191.951 371.33 191.891 371.42L191.661 371.88L191.391 372.41L190.911 373.34L190.651 373.85L190.211 374.71L186.731 381.5L186.271 382.39L185.981 382.96C185.821 383.28 185.661 383.58 185.511 383.89C185.091 384.69 184.711 385.44 184.361 386.12C184.171 386.45 184.001 386.8 183.831 387.12C183.311 388.15 182.901 388.94 182.681 389.37L182.571 389.59L182.491 389.74C178.851 396.83 174.451 403.64 172.021 411.29" stroke="#AE4902" stroke-width="2"/>
</g>
</g>
<path d="M287.661 375.75V416.64C287.659 420.102 286.572 423.477 284.552 426.29C282.532 429.103 279.682 431.212 276.401 432.32C274.648 432.909 272.811 433.207 270.961 433.2C261.801 433.13 254.531 425.37 254.531 416.2V380.58C254.525 380.094 254.398 379.616 254.162 379.191C253.926 378.766 253.588 378.406 253.179 378.144C252.77 377.881 252.302 377.724 251.817 377.687C251.332 377.649 250.846 377.733 250.401 377.93L224.041 392.06C222.205 393.041 220.521 394.284 219.041 395.75C217.569 397.226 216.323 398.911 215.341 400.75C214.265 402.733 213.82 404.998 214.067 407.241C214.313 409.484 215.24 411.598 216.721 413.3C221.035 418.276 226.254 422.389 232.101 425.42L245.571 432.42C254.432 437.017 261.913 443.884 267.251 452.32C269.852 456.425 271.508 461.057 272.101 465.88L275.221 491.34C275.284 491.807 275.318 492.278 275.321 492.75C275.331 492.92 275.331 493.09 275.321 493.26C275.321 496.629 274.242 499.909 272.241 502.62L269.241 506.7C267.961 508.44 266.691 510.19 265.391 511.91C264.391 513.21 263.391 514.49 262.341 515.74C259.051 519.58 255.165 522.865 250.831 525.47C247.132 527.704 243.149 529.432 238.991 530.61C237.991 530.88 236.991 531.13 235.991 531.34L235.171 531.5C234.921 531.56 234.681 531.6 234.431 531.64C234.181 531.68 233.831 531.75 233.531 531.79C233.231 531.83 232.791 531.92 232.411 531.96L230.971 532.14L230.091 532.22L228.911 532.32L227.451 532.39C226.901 532.39 226.341 532.39 225.791 532.39H219.011H217.751C216.931 532.39 216.111 532.35 215.291 532.27L214.081 532.16C213.271 532.08 212.471 531.98 211.671 531.86C210.871 531.74 210.081 531.6 209.301 531.44L208.131 531.19C204.193 530.299 200.383 528.915 196.791 527.07C196.441 526.89 196.091 526.71 195.791 526.52C195.091 526.14 194.411 525.75 193.791 525.34L192.791 524.74C192.451 524.52 192.111 524.3 191.791 524.07C190.791 523.42 189.871 522.73 188.951 522C188.331 521.51 187.731 521 187.141 520.51L186.261 519.73C185.101 518.683 183.998 517.58 182.951 516.42L182.171 515.54C181.661 514.95 181.171 514.35 180.681 513.73L179.971 512.8C179.731 512.49 179.501 512.17 179.281 511.8L178.611 510.8C178.401 510.5 178.201 510.19 178.011 509.89C177.821 509.59 177.551 509.18 177.341 508.82C176.931 508.15 176.541 507.47 176.161 506.77C175.971 506.43 175.791 506.08 175.611 505.77C174.486 503.584 173.533 501.314 172.761 498.98C172.631 498.6 172.511 498.23 172.401 497.85C172.291 497.47 172.211 497.23 172.121 496.91C172.031 496.59 171.911 496.14 171.811 495.75C170.784 491.765 170.266 487.665 170.271 483.55V437.32C170.271 433.07 170.061 428.79 170.141 424.54V423.59C170.141 422.88 170.201 422.18 170.241 421.47C170.241 420.94 170.321 420.41 170.371 419.88C170.421 419.35 170.481 418.82 170.541 418.29C170.817 415.916 171.313 413.572 172.021 411.29C174.451 403.64 178.851 396.83 182.491 389.74L182.571 389.59L182.681 389.37C182.901 388.94 183.311 388.15 183.831 387.12C184.001 386.8 184.171 386.45 184.361 386.12C184.711 385.44 185.091 384.69 185.511 383.89C185.661 383.58 185.821 383.28 185.981 382.96L186.271 382.39L186.731 381.5L190.211 374.71L190.651 373.85L190.911 373.34L191.391 372.41L191.661 371.88L191.891 371.42C191.951 371.33 191.991 371.23 192.041 371.14L192.281 370.67L192.561 370.12L192.771 369.72L192.961 369.34C192.961 369.28 193.031 369.22 193.061 369.15L193.231 368.82L193.321 368.64L193.551 368.18L193.781 367.74L194.341 366.64L194.251 366.43L194.501 366.32L212.941 358.72L230.491 350.62L254.551 339.53C256.415 338.669 258.52 338.48 260.507 338.996C262.495 339.512 264.242 340.701 265.451 342.36L276.451 357.43L281.071 363.77L285.991 370.52C287.083 372.044 287.668 373.874 287.661 375.75Z" fill="url(#paint21_linear_862_12511)"/>
<defs>
<filter id="filter0_f_862_12511" x="-26.8149" y="206.558" width="535.022" height="306.595" filterUnits="userSpaceOnUse" color-interpolation-filters="sRGB">
<feFlood flood-opacity="0" result="BackgroundImageFix"/>
<feBlend mode="normal" in="SourceGraphic" in2="BackgroundImageFix" result="shape"/>
<feGaussianBlur stdDeviation="12.5" result="effect1_foregroundBlur_862_12511"/>
</filter>
<filter id="filter1_f_862_12511" x="-41.8149" y="191.558" width="565.022" height="336.595" filterUnits="userSpaceOnUse" color-interpolation-filters="sRGB">
<feFlood flood-opacity="0" result="BackgroundImageFix"/>
<feBlend mode="normal" in="SourceGraphic" in2="BackgroundImageFix" result="shape"/>
<feGaussianBlur stdDeviation="20" result="effect1_foregroundBlur_862_12511"/>
</filter>
<filter id="filter2_f_862_12511" x="155.079" y="224.82" width="208.071" height="332.54" filterUnits="userSpaceOnUse" color-interpolation-filters="sRGB">
<feFlood flood-opacity="0" result="BackgroundImageFix"/>
<feBlend mode="normal" in="SourceGraphic" in2="BackgroundImageFix" result="shape"/>
<feGaussianBlur stdDeviation="7.5" result="effect1_foregroundBlur_862_12511"/>
</filter>
<filter id="filter3_f_862_12511" x="212.582" y="219.82" width="55.5801" height="168.43" filterUnits="userSpaceOnUse" color-interpolation-filters="sRGB">
<feFlood flood-opacity="0" result="BackgroundImageFix"/>
<feBlend mode="normal" in="SourceGraphic" in2="BackgroundImageFix" result="shape"/>
<feGaussianBlur stdDeviation="5" result="effect1_foregroundBlur_862_12511"/>
</filter>
<filter id="filter4_f_862_12511" x="203.878" y="298.72" width="115.784" height="56.5132" filterUnits="userSpaceOnUse" color-interpolation-filters="sRGB">
<feFlood flood-opacity="0" result="BackgroundImageFix"/>
<feBlend mode="normal" in="SourceGraphic" in2="BackgroundImageFix" result="shape"/>
<feGaussianBlur stdDeviation="4.5" result="effect1_foregroundBlur_862_12511"/>
</filter>
<filter id="filter5_f_862_12511" x="160" y="329" width="138.728" height="150.9" filterUnits="userSpaceOnUse" color-interpolation-filters="sRGB">
<feFlood flood-opacity="0" result="BackgroundImageFix"/>
<feBlend mode="normal" in="SourceGraphic" in2="BackgroundImageFix" result="shape"/>
<feGaussianBlur stdDeviation="10" result="effect1_foregroundBlur_862_12511"/>
</filter>
<filter id="filter6_f_862_12511" x="195.79" y="311.671" width="111.872" height="52.55" filterUnits="userSpaceOnUse" color-interpolation-filters="sRGB">
<feFlood flood-opacity="0" result="BackgroundImageFix"/>
<feBlend mode="normal" in="SourceGraphic" in2="BackgroundImageFix" result="shape"/>
<feGaussianBlur stdDeviation="3.5" result="effect1_foregroundBlur_862_12511"/>
</filter>
<filter id="filter7_f_862_12511" x="161.068" y="327.711" width="137.593" height="109.162" filterUnits="userSpaceOnUse" color-interpolation-filters="sRGB">
<feFlood flood-opacity="0" result="BackgroundImageFix"/>
<feBlend mode="normal" in="SourceGraphic" in2="BackgroundImageFix" result="shape"/>
<feGaussianBlur stdDeviation="5" result="effect1_foregroundBlur_862_12511"/>
</filter>
<radialGradient id="paint0_radial_862_12511" cx="0" cy="0" r="1" gradientUnits="userSpaceOnUse" gradientTransform="translate(241 -4.53898e-06) rotate(90) scale(482)">
<stop stop-color="#FFDE43"/>
<stop offset="1" stop-color="#FFBC00"/>
</radialGradient>
<radialGradient id="paint1_radial_862_12511" cx="0" cy="0" r="1" gradientUnits="userSpaceOnUse" gradientTransform="translate(241 64.5) rotate(90) scale(417.5)">
<stop stop-color="white" stop-opacity="0.5"/>
<stop offset="0.782278"/>
</radialGradient>
<radialGradient id="paint2_radial_862_12511" cx="0" cy="0" r="1" gradientUnits="userSpaceOnUse" gradientTransform="translate(241 64.5) rotate(90) scale(417.5)">
<stop stop-color="white" stop-opacity="0.5"/>
<stop offset="0.782278"/>
</radialGradient>
<radialGradient id="paint3_radial_862_12511" cx="0" cy="0" r="1" gradientUnits="userSpaceOnUse" gradientTransform="translate(241 -52.5) rotate(90) scale(534.5 722.835)">
<stop offset="0.0922635" stop-color="white"/>
<stop offset="0.670207" stop-color="white" stop-opacity="0"/>
</radialGradient>
<radialGradient id="paint4_radial_862_12511" cx="0" cy="0" r="1" gradientUnits="userSpaceOnUse" gradientTransform="translate(240.651 274.198) scale(33.9822 23.302)">
<stop stop-color="#743C1C"/>
<stop offset="1" stop-color="#401C02"/>
</radialGradient>
<linearGradient id="paint5_linear_862_12511" x1="240.651" y1="286.429" x2="240.651" y2="261.968" gradientUnits="userSpaceOnUse">
<stop offset="0.265625" stop-color="#FFDE43"/>
<stop offset="1" stop-color="#F79D14"/>
</linearGradient>
<radialGradient id="paint6_radial_862_12511" cx="0" cy="0" r="1" gradientUnits="userSpaceOnUse" gradientTransform="translate(321.432 160.503) scale(36.9297 26.5359)">
<stop stop-color="#743C1C"/>
<stop offset="1" stop-color="#401C02"/>
</radialGradient>
<linearGradient id="paint7_linear_862_12511" x1="321.472" y1="188.501" x2="321.472" y2="132.325" gradientUnits="userSpaceOnUse">
<stop stop-color="#FFDE43"/>
<stop offset="0.22" stop-color="#FED93F"/>
<stop offset="0.51" stop-color="#FCC934"/>
<stop offset="0.82" stop-color="#F9AF21"/>
<stop offset="1" stop-color="#F79D14"/>
</linearGradient>
<radialGradient id="paint8_radial_862_12511" cx="0" cy="0" r="1" gradientUnits="userSpaceOnUse" gradientTransform="translate(159.791 160.503) scale(36.9297 26.5359)">
<stop stop-color="#743C1C"/>
<stop offset="1" stop-color="#401C02"/>
</radialGradient>
<linearGradient id="paint9_linear_862_12511" x1="159.831" y1="188.501" x2="159.831" y2="132.325" gradientUnits="userSpaceOnUse">
<stop stop-color="#FFDE43"/>
<stop offset="0.22" stop-color="#FED93F"/>
<stop offset="0.51" stop-color="#FCC934"/>
<stop offset="0.82" stop-color="#F9AF21"/>
<stop offset="1" stop-color="#F79D14"/>
</linearGradient>
<radialGradient id="paint10_radial_862_12511" cx="0" cy="0" r="1" gradientUnits="userSpaceOnUse" gradientTransform="translate(241 -4.53898e-06) rotate(90) scale(482)">
<stop stop-color="#FFDE43"/>
<stop offset="1" stop-color="#FFBC00"/>
</radialGradient>
<linearGradient id="paint11_linear_862_12511" x1="259.101" y1="532.36" x2="259.101" y2="309.25" gradientUnits="userSpaceOnUse">
<stop offset="0.01" stop-color="#FFDE43"/>
<stop offset="0.65" stop-color="#FFB424"/>
<stop offset="1" stop-color="#FFA216"/>
</linearGradient>
<linearGradient id="paint12_linear_862_12511" x1="302" y1="443" x2="329" y2="397" gradientUnits="userSpaceOnUse">
<stop stop-color="#FFA216" stop-opacity="0.3"/>
<stop offset="1" stop-color="#DA3400"/>
</linearGradient>
<linearGradient id="paint13_linear_862_12511" x1="240.372" y1="382.427" x2="240.372" y2="225.044" gradientUnits="userSpaceOnUse">
<stop stop-color="#FFDE43"/>
<stop offset="0.22" stop-color="#FED93F"/>
<stop offset="0.51" stop-color="#FCC934"/>
<stop offset="0.82" stop-color="#F9AF21"/>
<stop offset="1" stop-color="#F79D14"/>
</linearGradient>
<linearGradient id="paint14_linear_862_12511" x1="240.372" y1="382.427" x2="240.372" y2="225.044" gradientUnits="userSpaceOnUse">
<stop stop-color="#FFDE43"/>
<stop offset="0.22" stop-color="#FED93F"/>
<stop offset="0.51" stop-color="#FCC934"/>
<stop offset="0.82" stop-color="#F9AF21"/>
<stop offset="1" stop-color="#F79D14"/>
</linearGradient>
<linearGradient id="paint15_linear_862_12511" x1="186.132" y1="513.64" x2="301.392" y2="313.99" gradientUnits="userSpaceOnUse">
<stop offset="0.73" stop-color="#FFD139"/>
<stop offset="0.82" stop-color="#FFC631"/>
<stop offset="0.96" stop-color="#FFAA1C"/>
<stop offset="1" stop-color="#FFA216"/>
</linearGradient>
<linearGradient id="paint16_linear_862_12511" x1="186.132" y1="513.64" x2="301.392" y2="313.99" gradientUnits="userSpaceOnUse">
<stop offset="0.73" stop-color="#FFD139"/>
<stop offset="0.82" stop-color="#FFC631"/>
<stop offset="0.96" stop-color="#FFAA1C"/>
<stop offset="1" stop-color="#FFA216"/>
</linearGradient>
<linearGradient id="paint17_linear_862_12511" x1="170.091" y1="426.27" x2="299.161" y2="426.27" gradientUnits="userSpaceOnUse">
<stop stop-color="#FFDE43"/>
<stop offset="0.12" stop-color="#FFD53C"/>
<stop offset="0.7" stop-color="#FFB021"/>
<stop offset="1" stop-color="#FFA216"/>
</linearGradient>
<linearGradient id="paint18_linear_862_12511" x1="170.091" y1="426.27" x2="299.161" y2="426.27" gradientUnits="userSpaceOnUse">
<stop stop-color="#FFDE43"/>
<stop offset="0.12" stop-color="#FFD53C"/>
<stop offset="0.7" stop-color="#FFB021"/>
<stop offset="1" stop-color="#FFA216"/>
</linearGradient>
<radialGradient id="paint19_radial_862_12511" cx="0" cy="0" r="1" gradientUnits="userSpaceOnUse" gradientTransform="translate(228.871 435.54) scale(102.86 102.86)">
<stop offset="0.01" stop-color="#FFDE43"/>
<stop offset="0.35" stop-color="#FFDC41"/>
<stop offset="0.53" stop-color="#FFD43B"/>
<stop offset="0.68" stop-color="#FFC631"/>
<stop offset="0.8" stop-color="#FFB323"/>
<stop offset="0.88" stop-color="#FFA216"/>
</radialGradient>
<radialGradient id="paint20_radial_862_12511" cx="0" cy="0" r="1" gradientUnits="userSpaceOnUse" gradientTransform="translate(228.871 435.54) scale(102.86 102.86)">
<stop offset="0.01" stop-color="#FFDE43"/>
<stop offset="0.35" stop-color="#FFDC41"/>
<stop offset="0.53" stop-color="#FFD43B"/>
<stop offset="0.68" stop-color="#FFC631"/>
<stop offset="0.8" stop-color="#FFB323"/>
<stop offset="0.88" stop-color="#FFA216"/>
</radialGradient>
<linearGradient id="paint21_linear_862_12511" x1="223" y1="366.5" x2="223" y2="532.529" gradientUnits="userSpaceOnUse">
<stop offset="0.0770657" stop-color="#FFBC00" stop-opacity="0"/>
<stop offset="0.975736" stop-color="#DB5A00"/>
</linearGradient>
</defs>
</svg>
