<svg width="483" height="483" viewBox="0 0 483 483" fill="none" xmlns="http://www.w3.org/2000/svg">
<path d="M241.18 482.36C374.38 482.36 482.36 374.38 482.36 241.18C482.36 107.98 374.38 0 241.18 0C107.98 0 0 107.98 0 241.18C0 374.38 107.98 482.36 241.18 482.36Z" fill="url(#paint0_radial_862_12489)"/>
<g style="mix-blend-mode:soft-light">
<path d="M241.18 482.36C374.38 482.36 482.36 374.38 482.36 241.18C482.36 107.98 374.38 0 241.18 0C107.98 0 0 107.98 0 241.18C0 374.38 107.98 482.36 241.18 482.36Z" fill="url(#paint1_radial_862_12489)"/>
</g>
<g style="mix-blend-mode:soft-light">
<path d="M241.18 482.36C374.38 482.36 482.36 374.38 482.36 241.18C482.36 107.98 374.38 0 241.18 0C107.98 0 0 107.98 0 241.18C0 374.38 107.98 482.36 241.18 482.36Z" fill="url(#paint2_radial_862_12489)"/>
</g>
<g style="mix-blend-mode:overlay">
<path d="M241.18 482.36C374.38 482.36 482.36 374.38 482.36 241.18C482.36 107.98 374.38 0 241.18 0C107.98 0 0 107.98 0 241.18C0 374.38 107.98 482.36 241.18 482.36Z" fill="url(#paint3_radial_862_12489)" fill-opacity="0.7"/>
</g>
<mask id="mask0_862_12489" style="mask-type:alpha" maskUnits="userSpaceOnUse" x="0" y="0" width="483" height="483">
<path d="M241.18 482.36C374.38 482.36 482.36 374.38 482.36 241.18C482.36 107.98 374.38 0 241.18 0C107.98 0 0 107.98 0 241.18C0 374.38 107.98 482.36 241.18 482.36Z" fill="white"/>
</mask>
<g mask="url(#mask0_862_12489)">
<g filter="url(#filter0_f_862_12489)">
<path d="M-1.3759 234.299C-1.11402 230.872 0.0137008 230.529 0.342619 234.009C0.708055 237.875 -0.00231624 245.647 0.16871 250.335C0.621554 262.748 2.52441 273.542 4.48605 282.321C10.8075 310.613 19.5617 328.843 27.7268 344.289C54.5663 395.061 83.9667 420.771 112.648 440.147C154.689 468.55 197.072 477.584 239.49 479.5C240.56 479.549 240.738 486.518 239.686 487.425C237.788 489.062 235.436 487.438 233.494 487.37C227.915 487.174 222.335 486.791 216.756 486.211C200.213 484.492 183.67 480.991 167.162 475.359C122.275 460.044 73.8765 433.821 31.6092 359.962C28.9502 355.316 26.3124 350.424 23.7118 345.168C21.6321 340.964 19.5726 336.557 17.5493 331.844C10.8946 316.342 -4.61323 276.659 -1.3759 234.299ZM239.52 487.5C238.499 487.532 238.241 481.035 239.214 479.686C240.684 477.647 242.888 479.326 244.439 479.229C250.877 478.827 257.314 478.23 263.75 477.422C281.395 475.206 299.028 471.423 316.621 465.596C360.257 451.146 407.17 429.116 448.305 361.431C450.923 357.124 453.518 352.554 456.079 347.641C463.86 332.713 483.361 293.085 481.107 243.821C480.917 239.669 482.181 237.181 482.747 240.744C483.467 245.28 483.175 254.736 482.977 259.768C482.341 275.884 479.866 289.512 477.257 300.518C468.987 335.399 457.376 355.623 446.744 372.51C412.184 427.397 374.648 449.524 338.155 465.425C305.424 479.686 272.444 486.484 239.52 487.5Z" fill="#401C02"/>
</g>
<g filter="url(#filter1_f_862_12489)">
<path d="M-1.3759 234.299C-1.11402 230.872 0.0137008 230.529 0.342619 234.009C0.708055 237.875 -0.00231624 245.647 0.16871 250.335C0.621554 262.748 2.52441 273.542 4.48605 282.321C10.8075 310.613 19.5617 328.843 27.7268 344.289C54.5663 395.061 83.9667 420.771 112.648 440.147C154.689 468.55 197.072 477.584 239.49 479.5C240.56 479.549 240.738 486.518 239.686 487.425C237.788 489.062 235.436 487.438 233.494 487.37C227.915 487.174 222.335 486.791 216.756 486.211C200.213 484.492 183.67 480.991 167.162 475.359C122.275 460.044 73.8765 433.821 31.6092 359.962C28.9502 355.316 26.3124 350.424 23.7118 345.168C21.6321 340.964 19.5726 336.557 17.5493 331.844C10.8946 316.342 -4.61323 276.659 -1.3759 234.299ZM239.52 487.5C238.499 487.532 238.241 481.035 239.214 479.686C240.684 477.647 242.888 479.326 244.439 479.229C250.877 478.827 257.314 478.23 263.75 477.422C281.395 475.206 299.028 471.423 316.621 465.596C360.257 451.146 407.17 429.116 448.305 361.431C450.923 357.124 453.518 352.554 456.079 347.641C463.86 332.713 483.361 293.085 481.107 243.821C480.917 239.669 482.181 237.181 482.747 240.744C483.467 245.28 483.175 254.736 482.977 259.768C482.341 275.884 479.866 289.512 477.257 300.518C468.987 335.399 457.376 355.623 446.744 372.51C412.184 427.397 374.648 449.524 338.155 465.425C305.424 479.686 272.444 486.484 239.52 487.5Z" fill="#401C02"/>
</g>
</g>
<path d="M311.949 314C312.334 313.695 312.806 313.52 313.297 313.501C313.788 313.481 314.273 313.618 314.681 313.892C315.089 314.165 315.4 314.562 315.569 315.023C315.737 315.485 315.755 315.988 315.619 316.46C307.329 348.08 277.229 371.46 241.359 371.46C205.489 371.46 175.359 348.02 167.089 316.39C166.954 315.917 166.973 315.413 167.142 314.951C167.312 314.489 167.623 314.092 168.031 313.818C168.44 313.544 168.925 313.406 169.417 313.424C169.908 313.443 170.382 313.616 170.769 313.92C188.609 327.58 213.649 336.07 241.359 336.07C269.069 336.07 294.109 327.62 311.949 314Z" fill="url(#paint4_radial_862_12489)"/>
<path d="M311.949 314C312.334 313.695 312.806 313.52 313.297 313.501C313.788 313.481 314.273 313.618 314.681 313.892C315.089 314.165 315.4 314.562 315.569 315.023C315.737 315.485 315.755 315.988 315.619 316.46C307.329 348.08 277.229 371.46 241.359 371.46C205.489 371.46 175.359 348.02 167.089 316.39C166.954 315.917 166.973 315.413 167.142 314.951C167.312 314.489 167.623 314.092 168.031 313.818C168.44 313.544 168.925 313.406 169.417 313.424C169.908 313.443 170.382 313.616 170.769 313.92C188.609 327.58 213.649 336.07 241.359 336.07C269.069 336.07 294.109 327.62 311.949 314Z" stroke="url(#paint5_linear_862_12489)" stroke-width="2.5" stroke-miterlimit="10"/>
<path d="M198.158 240.08L198.13 240.08C196.774 240.037 195.478 239.513 194.473 238.603C193.471 237.697 192.823 236.466 192.642 235.129C189.597 216.908 177.862 203.76 164.251 203.76C150.641 203.76 138.906 216.908 135.86 235.129C135.68 236.466 135.032 237.697 134.03 238.603C133.025 239.513 131.729 240.037 130.373 240.08L130.345 240.08L130.317 240.08C129.126 240.051 127.975 239.646 127.028 238.924C126.084 238.204 125.391 237.205 125.047 236.069C122.314 227.661 120.948 218.868 121.001 210.027C121.002 193.222 125.787 177.967 133.573 166.886C141.358 155.808 152.207 148.83 164.301 148.83C176.396 148.83 187.233 155.808 195.005 166.887C202.779 177.968 207.551 193.224 207.551 210.029M198.158 240.08L206.551 210.03M198.158 240.08L198.186 240.08C199.377 240.051 200.528 239.646 201.475 238.924C202.418 238.204 203.111 237.206 203.455 236.07M198.158 240.08L202.501 235.77M207.551 210.029C207.551 210.029 207.551 210.03 207.551 210.03H206.551M207.551 210.029C207.551 210.028 207.551 210.027 207.551 210.026L206.551 210.03M207.551 210.029C207.583 218.872 206.201 227.663 203.455 236.07M206.551 210.03C206.583 218.771 205.216 227.461 202.501 235.77M203.455 236.07C203.457 236.066 203.458 236.062 203.459 236.058L202.501 235.77M203.455 236.07C203.454 236.074 203.453 236.077 203.452 236.081L202.501 235.77" stroke="url(#paint6_linear_862_12489)" stroke-width="2"/>
<path d="M352.578 240.08L352.55 240.08C351.194 240.037 349.898 239.513 348.893 238.603C347.892 237.697 347.243 236.466 347.063 235.129C344.017 216.908 332.272 203.76 318.672 203.76C305.071 203.76 293.326 216.908 290.281 235.129C290.1 236.467 289.452 237.697 288.451 238.603C287.445 239.513 286.149 240.037 284.793 240.08L284.765 240.08L284.737 240.08C283.547 240.051 282.395 239.646 281.448 238.924C280.505 238.204 279.812 237.206 279.468 236.07C276.718 227.665 275.335 218.872 275.372 210.028C275.372 193.223 280.157 177.967 287.943 166.886C295.728 155.808 306.577 148.83 318.672 148.83C330.766 148.83 341.603 155.808 349.375 166.887C357.149 177.968 361.921 193.223 361.922 210.027M352.578 240.08L360.922 210.03M352.578 240.08L352.606 240.08C353.797 240.051 354.948 239.646 355.895 238.924C356.839 238.204 357.532 237.205 357.876 236.069M352.578 240.08L356.922 235.77M361.922 210.027C361.922 210.028 361.922 210.029 361.922 210.03H360.922M361.922 210.027C361.922 210.026 361.922 210.026 361.922 210.025L360.922 210.03M361.922 210.027C361.97 218.868 360.604 227.66 357.876 236.069M360.922 210.03C360.969 218.769 359.619 227.458 356.922 235.77M357.876 236.069C357.877 236.065 357.878 236.062 357.879 236.058L356.922 235.77M357.876 236.069C357.875 236.072 357.874 236.076 357.873 236.079L356.922 235.77" stroke="url(#paint7_linear_862_12489)" stroke-width="2"/>
<path d="M206.783 209.2C206.815 217.941 205.447 226.631 202.733 234.94C202.451 235.879 201.879 236.704 201.1 237.299C200.32 237.893 199.373 238.226 198.393 238.25C197.274 238.215 196.205 237.783 195.375 237.032C194.545 236.281 194.009 235.26 193.863 234.15C190.783 215.69 178.803 201.93 164.483 201.93C150.163 201.93 138.183 215.69 135.103 234.15C134.956 235.26 134.421 236.281 133.591 237.032C132.761 237.783 131.691 238.215 130.573 238.25C129.593 238.226 128.646 237.893 127.866 237.299C127.087 236.704 126.515 235.879 126.233 234.94C123.531 226.629 122.18 217.939 122.233 209.2C122.233 175.95 141.173 149 164.533 149C187.893 149 206.783 175.95 206.783 209.2Z" fill="url(#paint8_radial_862_12489)"/>
<path d="M361.153 209.2C361.201 217.938 359.851 226.628 357.153 234.94C356.871 235.879 356.299 236.704 355.52 237.299C354.741 237.893 353.793 238.226 352.813 238.25C351.695 238.215 350.625 237.783 349.795 237.032C348.966 236.281 348.43 235.26 348.283 234.15C345.203 215.69 333.213 201.93 318.903 201.93C304.593 201.93 292.603 215.69 289.523 234.15C289.377 235.26 288.841 236.281 288.011 237.032C287.181 237.783 286.112 238.215 284.993 238.25C284.013 238.226 283.066 237.893 282.287 237.299C281.507 236.704 280.935 235.879 280.653 234.94C277.934 226.632 276.567 217.941 276.603 209.2C276.603 175.95 295.543 149 318.903 149C342.263 149 361.153 175.95 361.153 209.2Z" fill="url(#paint9_radial_862_12489)"/>
<defs>
<filter id="filter0_f_862_12489" x="-26.8149" y="206.559" width="535.022" height="306.595" filterUnits="userSpaceOnUse" color-interpolation-filters="sRGB">
<feFlood flood-opacity="0" result="BackgroundImageFix"/>
<feBlend mode="normal" in="SourceGraphic" in2="BackgroundImageFix" result="shape"/>
<feGaussianBlur stdDeviation="12.5" result="effect1_foregroundBlur_862_12489"/>
</filter>
<filter id="filter1_f_862_12489" x="-41.8149" y="191.559" width="565.022" height="336.595" filterUnits="userSpaceOnUse" color-interpolation-filters="sRGB">
<feFlood flood-opacity="0" result="BackgroundImageFix"/>
<feBlend mode="normal" in="SourceGraphic" in2="BackgroundImageFix" result="shape"/>
<feGaussianBlur stdDeviation="20" result="effect1_foregroundBlur_862_12489"/>
</filter>
<radialGradient id="paint0_radial_862_12489" cx="0" cy="0" r="1" gradientUnits="userSpaceOnUse" gradientTransform="translate(241 -4.53898e-06) rotate(90) scale(482)">
<stop stop-color="#FFDE43"/>
<stop offset="1" stop-color="#FFBC00"/>
</radialGradient>
<radialGradient id="paint1_radial_862_12489" cx="0" cy="0" r="1" gradientUnits="userSpaceOnUse" gradientTransform="translate(241 64.5) rotate(90) scale(417.5)">
<stop stop-color="white" stop-opacity="0.5"/>
<stop offset="0.782278"/>
</radialGradient>
<radialGradient id="paint2_radial_862_12489" cx="0" cy="0" r="1" gradientUnits="userSpaceOnUse" gradientTransform="translate(241 64.5) rotate(90) scale(417.5)">
<stop stop-color="white" stop-opacity="0.5"/>
<stop offset="0.782278"/>
</radialGradient>
<radialGradient id="paint3_radial_862_12489" cx="0" cy="0" r="1" gradientUnits="userSpaceOnUse" gradientTransform="translate(241 -52.5) rotate(90) scale(534.5 722.835)">
<stop offset="0.0922635" stop-color="white"/>
<stop offset="0.670207" stop-color="white" stop-opacity="0"/>
</radialGradient>
<radialGradient id="paint4_radial_862_12489" cx="0" cy="0" r="1" gradientUnits="userSpaceOnUse" gradientTransform="translate(241.355 342.324) scale(56.1246 58.6209)">
<stop stop-color="#743C1C"/>
<stop offset="1" stop-color="#401C02"/>
</radialGradient>
<linearGradient id="paint5_linear_862_12489" x1="241.355" y1="373.093" x2="241.355" y2="311.555" gradientUnits="userSpaceOnUse">
<stop offset="0.265625" stop-color="#FFDE43"/>
<stop offset="1" stop-color="#F79D14"/>
</linearGradient>
<linearGradient id="paint6_linear_862_12489" x1="164.276" y1="241.591" x2="164.276" y2="146.958" gradientUnits="userSpaceOnUse">
<stop stop-color="#FFDE43"/>
<stop offset="0.22" stop-color="#FED93F"/>
<stop offset="0.51" stop-color="#FCC934"/>
<stop offset="0.82" stop-color="#F9AF21"/>
<stop offset="1" stop-color="#F79D14"/>
</linearGradient>
<linearGradient id="paint7_linear_862_12489" x1="318.647" y1="241.591" x2="318.647" y2="146.958" gradientUnits="userSpaceOnUse">
<stop stop-color="#FFDE43"/>
<stop offset="0.22" stop-color="#FED93F"/>
<stop offset="0.51" stop-color="#FCC934"/>
<stop offset="0.82" stop-color="#F9AF21"/>
<stop offset="1" stop-color="#F79D14"/>
</linearGradient>
<radialGradient id="paint8_radial_862_12489" cx="0" cy="0" r="1" gradientUnits="userSpaceOnUse" gradientTransform="translate(164.449 193.595) scale(53.8916 44.7024)">
<stop stop-color="#743C1C"/>
<stop offset="1" stop-color="#401C02"/>
</radialGradient>
<radialGradient id="paint9_radial_862_12489" cx="0" cy="0" r="1" gradientUnits="userSpaceOnUse" gradientTransform="translate(318.82 193.595) scale(53.8916 44.7024)">
<stop stop-color="#743C1C"/>
<stop offset="1" stop-color="#401C02"/>
</radialGradient>
</defs>
</svg>
