<svg width="545" height="483" viewBox="0 0 545 483" fill="none" xmlns="http://www.w3.org/2000/svg">
<path d="M241.18 482.36C374.38 482.36 482.36 374.38 482.36 241.18C482.36 107.98 374.38 0 241.18 0C107.98 0 0 107.98 0 241.18C0 374.38 107.98 482.36 241.18 482.36Z" fill="url(#paint0_radial_862_12526)"/>
<g style="mix-blend-mode:soft-light">
<path d="M241.18 482.36C374.38 482.36 482.36 374.38 482.36 241.18C482.36 107.98 374.38 0 241.18 0C107.98 0 0 107.98 0 241.18C0 374.38 107.98 482.36 241.18 482.36Z" fill="url(#paint1_radial_862_12526)"/>
</g>
<g style="mix-blend-mode:soft-light">
<path d="M241.18 482.36C374.38 482.36 482.36 374.38 482.36 241.18C482.36 107.98 374.38 0 241.18 0C107.98 0 0 107.98 0 241.18C0 374.38 107.98 482.36 241.18 482.36Z" fill="url(#paint2_radial_862_12526)"/>
</g>
<g style="mix-blend-mode:overlay">
<path d="M241.18 482.36C374.38 482.36 482.36 374.38 482.36 241.18C482.36 107.98 374.38 0 241.18 0C107.98 0 0 107.98 0 241.18C0 374.38 107.98 482.36 241.18 482.36Z" fill="url(#paint3_radial_862_12526)" fill-opacity="0.7"/>
</g>
<mask id="mask0_862_12526" style="mask-type:alpha" maskUnits="userSpaceOnUse" x="0" y="0" width="483" height="483">
<path d="M241.18 482.36C374.38 482.36 482.36 374.38 482.36 241.18C482.36 107.98 374.38 0 241.18 0C107.98 0 0 107.98 0 241.18C0 374.38 107.98 482.36 241.18 482.36Z" fill="white"/>
</mask>
<g mask="url(#mask0_862_12526)">
<g filter="url(#filter0_f_862_12526)">
<path d="M-1.37541 234.299C-1.11353 230.872 0.0141891 230.529 0.343108 234.008C0.708543 237.874 -0.00182796 245.646 0.169198 250.335C0.622042 262.748 2.5249 273.541 4.48654 282.32C10.808 310.612 19.5622 328.843 27.7273 344.288C54.5668 395.06 83.9672 420.77 112.648 440.147C154.69 468.549 197.073 477.584 239.491 479.5C240.561 479.548 240.739 486.518 239.686 487.425C237.788 489.061 235.437 487.437 233.495 487.369C227.915 487.174 222.336 486.791 216.756 486.211C200.213 484.492 183.671 480.991 167.162 475.358C122.275 460.044 73.877 433.821 31.6097 359.962C28.9507 355.316 26.3128 350.424 23.7123 345.167C21.6325 340.963 19.573 336.556 17.5498 331.843C10.895 316.342 -4.61274 276.658 -1.37541 234.299ZM239.52 487.5C238.5 487.531 238.241 481.034 239.214 479.685C240.685 477.647 242.889 479.326 244.439 479.229C250.878 478.826 257.315 478.229 263.75 477.421C281.396 475.205 299.028 471.422 316.621 465.596C360.257 451.145 407.17 429.115 448.305 361.431C450.923 357.123 453.519 352.553 456.079 347.641C463.86 332.712 483.362 293.084 481.107 243.821C480.917 239.668 482.182 237.181 482.748 240.743C483.468 245.279 483.176 254.736 482.977 259.768C482.342 275.883 479.867 289.512 477.257 300.518C468.987 335.399 457.377 355.623 446.744 372.51C412.184 427.397 374.649 449.524 338.156 465.424C305.425 479.686 272.445 486.484 239.52 487.5Z" fill="#401C02"/>
</g>
<g filter="url(#filter1_f_862_12526)">
<path d="M-1.37541 234.299C-1.11353 230.872 0.0141891 230.529 0.343108 234.008C0.708543 237.874 -0.00182796 245.646 0.169198 250.335C0.622042 262.748 2.5249 273.541 4.48654 282.32C10.808 310.612 19.5622 328.843 27.7273 344.288C54.5668 395.06 83.9672 420.77 112.648 440.147C154.69 468.549 197.073 477.584 239.491 479.5C240.561 479.548 240.739 486.518 239.686 487.425C237.788 489.061 235.437 487.437 233.495 487.369C227.915 487.174 222.336 486.791 216.756 486.211C200.213 484.492 183.671 480.991 167.162 475.358C122.275 460.044 73.877 433.821 31.6097 359.962C28.9507 355.316 26.3128 350.424 23.7123 345.167C21.6325 340.963 19.573 336.556 17.5498 331.843C10.895 316.342 -4.61274 276.658 -1.37541 234.299ZM239.52 487.5C238.5 487.531 238.241 481.034 239.214 479.685C240.685 477.647 242.889 479.326 244.439 479.229C250.878 478.826 257.315 478.229 263.75 477.421C281.396 475.205 299.028 471.422 316.621 465.596C360.257 451.145 407.17 429.115 448.305 361.431C450.923 357.123 453.519 352.553 456.079 347.641C463.86 332.712 483.362 293.084 481.107 243.821C480.917 239.668 482.182 237.181 482.748 240.743C483.468 245.279 483.176 254.736 482.977 259.768C482.342 275.883 479.867 289.512 477.257 300.518C468.987 335.399 457.377 355.623 446.744 372.51C412.184 427.397 374.649 449.524 338.156 465.424C305.425 479.686 272.445 486.484 239.52 487.5Z" fill="#401C02"/>
</g>
</g>
<path d="M206.176 237.44C207.087 238.358 207.702 239.528 207.941 240.799C208.18 242.07 208.032 243.384 207.516 244.57C195.666 271.8 167.896 290.91 135.516 290.91C103.136 290.91 75.3956 271.8 63.5156 244.58C63.0072 243.385 62.8708 242.065 63.1241 240.791C63.3774 239.517 64.0087 238.349 64.9356 237.44C66.1171 236.277 67.7017 235.614 69.3595 235.59C71.0173 235.566 72.6206 236.182 73.8356 237.31C88.6156 250.67 110.776 259.16 135.556 259.16C160.336 259.16 182.556 250.67 197.296 237.3C198.51 236.166 200.116 235.547 201.777 235.571C203.438 235.595 205.025 236.262 206.206 237.43L206.176 237.44Z" fill="url(#paint4_radial_862_12526)"/>
<path d="M417.115 237.44C418.029 238.356 418.646 239.526 418.885 240.798C419.124 242.07 418.974 243.384 418.455 244.57C406.615 271.8 378.835 290.91 346.455 290.91C314.075 290.91 286.325 271.8 274.455 244.58C273.936 243.392 273.786 242.075 274.027 240.801C274.268 239.527 274.888 238.356 275.805 237.44C276.987 236.277 278.571 235.614 280.229 235.59C281.887 235.566 283.49 236.182 284.705 237.31C299.475 250.67 321.635 259.16 346.425 259.16C371.215 259.16 393.425 250.67 408.155 237.3C409.37 236.166 410.976 235.547 412.637 235.571C414.297 235.595 415.885 236.262 417.065 237.43L417.115 237.44Z" fill="url(#paint5_radial_862_12526)"/>
<path d="M206.176 237.44C207.087 238.358 207.702 239.528 207.941 240.799C208.18 242.07 208.032 243.384 207.516 244.57C195.666 271.8 167.896 290.91 135.516 290.91C103.136 290.91 75.3956 271.8 63.5156 244.58C63.0072 243.385 62.8708 242.065 63.1241 240.791C63.3774 239.517 64.0087 238.349 64.9356 237.44V237.44C66.1171 236.277 67.7017 235.614 69.3595 235.59C71.0173 235.566 72.6206 236.182 73.8356 237.31C88.6156 250.67 110.776 259.16 135.556 259.16C160.336 259.16 182.556 250.67 197.296 237.3C198.51 236.166 200.116 235.547 201.777 235.571C203.438 235.595 205.025 236.262 206.206 237.43L206.176 237.44Z" stroke="url(#paint6_linear_862_12526)" stroke-width="2" stroke-miterlimit="10"/>
<path d="M417.115 237.44C418.029 238.356 418.646 239.526 418.885 240.798C419.124 242.07 418.974 243.384 418.455 244.57C406.615 271.8 378.835 290.91 346.455 290.91C314.075 290.91 286.325 271.8 274.455 244.58C273.936 243.392 273.786 242.075 274.027 240.801C274.268 239.527 274.888 238.356 275.805 237.44V237.44C276.987 236.277 278.571 235.614 280.229 235.59C281.887 235.566 283.49 236.182 284.705 237.31C299.475 250.67 321.635 259.16 346.425 259.16C371.215 259.16 393.425 250.67 408.155 237.3C409.37 236.166 410.976 235.547 412.637 235.571C414.297 235.595 415.885 236.262 417.065 237.43L417.115 237.44Z" stroke="url(#paint7_linear_862_12526)" stroke-width="2" stroke-miterlimit="10"/>
<path d="M241.43 414.11C263.207 414.11 280.86 396.457 280.86 374.68C280.86 352.903 263.207 335.25 241.43 335.25C219.653 335.25 202 352.903 202 374.68C202 396.457 219.653 414.11 241.43 414.11Z" fill="url(#paint8_radial_862_12526)"/>
<path d="M241.43 415.11C263.759 415.11 281.86 397.009 281.86 374.68C281.86 352.351 263.759 334.25 241.43 334.25C219.101 334.25 201 352.351 201 374.68C201 397.009 219.101 415.11 241.43 415.11Z" stroke="url(#paint9_linear_862_12526)" stroke-width="2" stroke-miterlimit="10"/>
<path d="M241.429 412.96C262.571 412.96 279.709 395.821 279.709 374.68C279.709 353.538 262.571 336.4 241.429 336.4C220.288 336.4 203.149 353.538 203.149 374.68C203.149 395.821 220.288 412.96 241.429 412.96Z" stroke="url(#paint10_linear_862_12526)" stroke-width="4" stroke-miterlimit="10"/>
<mask id="mask1_862_12526" style="mask-type:alpha" maskUnits="userSpaceOnUse" x="0" y="0" width="483" height="483">
<path d="M241.18 482.36C374.38 482.36 482.36 374.38 482.36 241.18C482.36 107.98 374.38 0 241.18 0C107.98 0 0 107.98 0 241.18C0 374.38 107.98 482.36 241.18 482.36Z" fill="url(#paint11_radial_862_12526)"/>
</mask>
<g mask="url(#mask1_862_12526)">
<g filter="url(#filter2_f_862_12526)">
<path d="M332 146.78V155.5H283V148.66L317.54 105.72H283.64V96.99H331.1V103.99L296.55 146.81L332 146.78Z" fill="#743C1C"/>
<path d="M421.76 121.62V138.62H343.6V125.18L393.27 64.99H344.62V47.99H420.4V61.39L370.56 121.58L421.76 121.62Z" fill="#743C1C"/>
<path d="M534.69 186.05V213.05H426.63V191.91L488.31 118.99H428.21V91.99H532.66V113.16L471 186.05H534.69Z" fill="#743C1C"/>
</g>
</g>
<path d="M342 136.78V145.5H293V138.66L327.54 95.72H293.64V86.99H341.1V93.99L306.55 136.81L342 136.78Z" fill="url(#paint12_linear_862_12526)"/>
<path d="M431.76 111.62V128.62H353.6V115.18L403.27 54.99H354.62V37.99H430.4V51.39L380.56 111.58L431.76 111.62Z" fill="url(#paint13_linear_862_12526)"/>
<path d="M544.69 176.05V203.05H436.63V181.91L498.31 108.99H438.21V81.99H542.66V103.16L481 176.05H544.69Z" fill="url(#paint14_linear_862_12526)"/>
<defs>
<filter id="filter0_f_862_12526" x="-26.8145" y="206.558" width="535.021" height="306.595" filterUnits="userSpaceOnUse" color-interpolation-filters="sRGB">
<feFlood flood-opacity="0" result="BackgroundImageFix"/>
<feBlend mode="normal" in="SourceGraphic" in2="BackgroundImageFix" result="shape"/>
<feGaussianBlur stdDeviation="12.5" result="effect1_foregroundBlur_862_12526"/>
</filter>
<filter id="filter1_f_862_12526" x="-41.8145" y="191.558" width="565.021" height="336.595" filterUnits="userSpaceOnUse" color-interpolation-filters="sRGB">
<feFlood flood-opacity="0" result="BackgroundImageFix"/>
<feBlend mode="normal" in="SourceGraphic" in2="BackgroundImageFix" result="shape"/>
<feGaussianBlur stdDeviation="20" result="effect1_foregroundBlur_862_12526"/>
</filter>
<filter id="filter2_f_862_12526" x="253" y="17.99" width="311.689" height="225.06" filterUnits="userSpaceOnUse" color-interpolation-filters="sRGB">
<feFlood flood-opacity="0" result="BackgroundImageFix"/>
<feBlend mode="normal" in="SourceGraphic" in2="BackgroundImageFix" result="shape"/>
<feGaussianBlur stdDeviation="15" result="effect1_foregroundBlur_862_12526"/>
</filter>
<radialGradient id="paint0_radial_862_12526" cx="0" cy="0" r="1" gradientUnits="userSpaceOnUse" gradientTransform="translate(241 -4.53898e-06) rotate(90) scale(482)">
<stop stop-color="#FFDE43"/>
<stop offset="1" stop-color="#FFBC00"/>
</radialGradient>
<radialGradient id="paint1_radial_862_12526" cx="0" cy="0" r="1" gradientUnits="userSpaceOnUse" gradientTransform="translate(241 64.5) rotate(90) scale(417.5)">
<stop stop-color="white" stop-opacity="0.5"/>
<stop offset="0.782278"/>
</radialGradient>
<radialGradient id="paint2_radial_862_12526" cx="0" cy="0" r="1" gradientUnits="userSpaceOnUse" gradientTransform="translate(241 64.5) rotate(90) scale(417.5)">
<stop stop-color="white" stop-opacity="0.5"/>
<stop offset="0.782278"/>
</radialGradient>
<radialGradient id="paint3_radial_862_12526" cx="0" cy="0" r="1" gradientUnits="userSpaceOnUse" gradientTransform="translate(241 -52.5) rotate(90) scale(534.5 722.835)">
<stop offset="0.0922635" stop-color="white"/>
<stop offset="0.670207" stop-color="white" stop-opacity="0"/>
</radialGradient>
<radialGradient id="paint4_radial_862_12526" cx="0" cy="0" r="1" gradientUnits="userSpaceOnUse" gradientTransform="translate(135.426 263.222) scale(92.4531 27.7177)">
<stop stop-color="#743C1C"/>
<stop offset="1" stop-color="#401C02"/>
</radialGradient>
<radialGradient id="paint5_radial_862_12526" cx="0" cy="0" r="1" gradientUnits="userSpaceOnUse" gradientTransform="translate(346.355 263.222) scale(92.4713 27.7177)">
<stop stop-color="#743C1C"/>
<stop offset="1" stop-color="#401C02"/>
</radialGradient>
<linearGradient id="paint6_linear_862_12526" x1="135.526" y1="292.467" x2="135.526" y2="233.79" gradientUnits="userSpaceOnUse">
<stop stop-color="#FFDE43"/>
<stop offset="0.22" stop-color="#FED93F"/>
<stop offset="0.51" stop-color="#FCC934"/>
<stop offset="0.82" stop-color="#F9AF21"/>
<stop offset="1" stop-color="#F79D14"/>
</linearGradient>
<linearGradient id="paint7_linear_862_12526" x1="346.455" y1="292.467" x2="346.455" y2="233.79" gradientUnits="userSpaceOnUse">
<stop stop-color="#FFDE43"/>
<stop offset="0.22" stop-color="#FED93F"/>
<stop offset="0.51" stop-color="#FCC934"/>
<stop offset="0.82" stop-color="#F9AF21"/>
<stop offset="1" stop-color="#F79D14"/>
</linearGradient>
<radialGradient id="paint8_radial_862_12526" cx="0" cy="0" r="1" gradientUnits="userSpaceOnUse" gradientTransform="translate(241.375 374.654) scale(50.2636 39.4984)">
<stop stop-color="#743C1C"/>
<stop offset="1" stop-color="#401C02"/>
</radialGradient>
<linearGradient id="paint9_linear_862_12526" x1="241.43" y1="416.329" x2="241.43" y2="332.712" gradientUnits="userSpaceOnUse">
<stop offset="0.265625" stop-color="#FFDE43"/>
<stop offset="1" stop-color="#F79D14"/>
</linearGradient>
<linearGradient id="paint10_linear_862_12526" x1="241.429" y1="414.96" x2="241.429" y2="334.41" gradientUnits="userSpaceOnUse">
<stop stop-color="#401C02"/>
<stop offset="1" stop-color="#401C02"/>
</linearGradient>
<radialGradient id="paint11_radial_862_12526" cx="0" cy="0" r="1" gradientUnits="userSpaceOnUse" gradientTransform="translate(241 -4.53898e-06) rotate(90) scale(482)">
<stop stop-color="#FFDE43"/>
<stop offset="1" stop-color="#FFBC00"/>
</radialGradient>
<linearGradient id="paint12_linear_862_12526" x1="317.48" y1="145.5" x2="317.48" y2="87" gradientUnits="userSpaceOnUse">
<stop stop-color="#00004D"/>
<stop offset="1" stop-color="#0000CC"/>
</linearGradient>
<linearGradient id="paint13_linear_862_12526" x1="29638.6" y1="11691.2" x2="29638.6" y2="3485.55" gradientUnits="userSpaceOnUse">
<stop stop-color="#00004D"/>
<stop offset="1" stop-color="#0000CC"/>
</linearGradient>
<linearGradient id="paint14_linear_862_12526" x1="51512.3" y1="24666.9" x2="51512.3" y2="10004.1" gradientUnits="userSpaceOnUse">
<stop stop-color="#00004D"/>
<stop offset="1" stop-color="#0000CC"/>
</linearGradient>
</defs>
</svg>
