<svg width="483" height="483" viewBox="0 0 483 483" fill="none" xmlns="http://www.w3.org/2000/svg">
<path d="M241.18 482.36C374.38 482.36 482.36 374.38 482.36 241.18C482.36 107.98 374.38 0 241.18 0C107.98 0 0 107.98 0 241.18C0 374.38 107.98 482.36 241.18 482.36Z" fill="url(#paint0_radial_862_12542)"/>
<g style="mix-blend-mode:soft-light">
<path d="M241.18 482.36C374.38 482.36 482.36 374.38 482.36 241.18C482.36 107.98 374.38 0 241.18 0C107.98 0 0 107.98 0 241.18C0 374.38 107.98 482.36 241.18 482.36Z" fill="url(#paint1_radial_862_12542)"/>
</g>
<g style="mix-blend-mode:soft-light">
<path d="M241.18 482.36C374.38 482.36 482.36 374.38 482.36 241.18C482.36 107.98 374.38 0 241.18 0C107.98 0 0 107.98 0 241.18C0 374.38 107.98 482.36 241.18 482.36Z" fill="url(#paint2_radial_862_12542)"/>
</g>
<g style="mix-blend-mode:overlay">
<path d="M241.18 482.36C374.38 482.36 482.36 374.38 482.36 241.18C482.36 107.98 374.38 0 241.18 0C107.98 0 0 107.98 0 241.18C0 374.38 107.98 482.36 241.18 482.36Z" fill="url(#paint3_radial_862_12542)"/>
</g>
<mask id="mask0_862_12542" style="mask-type:alpha" maskUnits="userSpaceOnUse" x="0" y="0" width="483" height="483">
<path d="M241.18 482.36C374.38 482.36 482.36 374.38 482.36 241.18C482.36 107.98 374.38 0 241.18 0C107.98 0 0 107.98 0 241.18C0 374.38 107.98 482.36 241.18 482.36Z" fill="white"/>
</mask>
<g mask="url(#mask0_862_12542)">
<g filter="url(#filter0_f_862_12542)">
<path d="M-1.37541 234.299C-1.11353 230.872 0.0141891 230.529 0.343108 234.008C0.708543 237.874 -0.00182796 245.646 0.169198 250.335C0.622042 262.748 2.5249 273.541 4.48654 282.32C10.808 310.612 19.5622 328.843 27.7273 344.288C54.5668 395.06 83.9672 420.77 112.648 440.147C154.69 468.549 197.073 477.584 239.491 479.5C240.561 479.548 240.739 486.518 239.686 487.425C237.788 489.061 235.437 487.437 233.495 487.369C227.915 487.174 222.336 486.791 216.756 486.211C200.213 484.492 183.671 480.991 167.162 475.358C122.275 460.044 73.877 433.821 31.6097 359.962C28.9507 355.316 26.3128 350.424 23.7123 345.167C21.6325 340.963 19.573 336.556 17.5498 331.843C10.895 316.342 -4.61274 276.658 -1.37541 234.299ZM239.52 487.5C238.5 487.531 238.241 481.034 239.214 479.685C240.685 477.647 242.889 479.326 244.439 479.229C250.878 478.826 257.315 478.229 263.75 477.421C281.396 475.205 299.028 471.422 316.621 465.596C360.257 451.145 407.17 429.115 448.305 361.431C450.923 357.123 453.519 352.553 456.079 347.641C463.86 332.712 483.362 293.084 481.107 243.821C480.917 239.668 482.182 237.181 482.748 240.743C483.468 245.279 483.176 254.736 482.977 259.768C482.342 275.883 479.867 289.512 477.257 300.518C468.987 335.399 457.377 355.623 446.744 372.51C412.184 427.397 374.649 449.524 338.156 465.424C305.425 479.686 272.445 486.484 239.52 487.5Z" fill="#401C02"/>
</g>
<g filter="url(#filter1_f_862_12542)">
<path d="M-1.37541 234.299C-1.11353 230.872 0.0141891 230.529 0.343108 234.008C0.708543 237.874 -0.00182796 245.646 0.169198 250.335C0.622042 262.748 2.5249 273.541 4.48654 282.32C10.808 310.612 19.5622 328.843 27.7273 344.288C54.5668 395.06 83.9672 420.77 112.648 440.147C154.69 468.549 197.073 477.584 239.491 479.5C240.561 479.548 240.739 486.518 239.686 487.425C237.788 489.061 235.437 487.437 233.495 487.369C227.915 487.174 222.336 486.791 216.756 486.211C200.213 484.492 183.671 480.991 167.162 475.358C122.275 460.044 73.877 433.821 31.6097 359.962C28.9507 355.316 26.3128 350.424 23.7123 345.167C21.6325 340.963 19.573 336.556 17.5498 331.843C10.895 316.342 -4.61274 276.658 -1.37541 234.299ZM239.52 487.5C238.5 487.531 238.241 481.034 239.214 479.685C240.685 477.647 242.889 479.326 244.439 479.229C250.878 478.826 257.315 478.229 263.75 477.421C281.396 475.205 299.028 471.422 316.621 465.596C360.257 451.145 407.17 429.115 448.305 361.431C450.923 357.123 453.519 352.553 456.079 347.641C463.86 332.712 483.362 293.084 481.107 243.821C480.917 239.668 482.182 237.181 482.748 240.743C483.468 245.279 483.176 254.736 482.977 259.768C482.342 275.883 479.867 289.512 477.257 300.518C468.987 335.399 457.377 355.623 446.744 372.51C412.184 427.397 374.649 449.524 338.156 465.424C305.425 479.686 272.445 486.484 239.52 487.5Z" fill="#401C02"/>
</g>
</g>
<path d="M261.891 240.42C261.2 241.352 260.806 242.471 260.761 243.631C260.716 244.791 261.023 245.938 261.641 246.92C275.731 269.49 302.871 282.76 331.561 278.48C360.251 274.2 382.321 253.6 389.221 227.91C389.523 226.789 389.48 225.602 389.098 224.506C388.716 223.409 388.014 222.452 387.081 221.76C385.88 220.886 384.387 220.508 382.914 220.706C381.441 220.903 380.101 221.66 379.171 222.82C367.841 236.61 349.331 247.06 327.371 250.33C305.411 253.6 284.631 249.02 269.771 239.12C268.544 238.279 267.039 237.944 265.57 238.186C264.102 238.429 262.784 239.229 261.891 240.42Z" fill="url(#paint4_radial_862_12542)"/>
<path d="M261.891 240.42C261.2 241.352 260.806 242.471 260.761 243.631C260.716 244.791 261.023 245.938 261.641 246.92C275.731 269.49 302.871 282.76 331.561 278.48C360.251 274.2 382.321 253.6 389.221 227.91C389.523 226.789 389.48 225.602 389.098 224.506C388.716 223.409 388.014 222.452 387.081 221.76V221.76C385.88 220.886 384.387 220.508 382.914 220.706C381.441 220.903 380.101 221.66 379.171 222.82C367.841 236.61 349.331 247.06 327.371 250.33C305.411 253.6 284.631 249.02 269.771 239.12C268.544 238.279 267.039 237.944 265.57 238.186C264.102 238.429 262.784 239.229 261.891 240.42V240.42Z" stroke="url(#paint5_linear_862_12542)" stroke-width="2" stroke-miterlimit="10"/>
<path d="M219.531 240.42C220.223 241.352 220.617 242.471 220.661 243.631C220.706 244.791 220.399 245.938 219.781 246.92C205.691 269.49 178.541 282.76 149.861 278.48C121.181 274.2 99.1009 253.6 92.2009 227.91C91.897 226.789 91.9387 225.602 92.3205 224.504C92.7023 223.407 93.4065 222.451 94.3409 221.76C95.5429 220.886 97.0353 220.508 98.5082 220.706C99.9812 220.903 101.322 221.66 102.251 222.82C113.571 236.61 132.091 247.06 154.051 250.33C176.011 253.6 196.791 249.02 211.651 239.12C212.879 238.279 214.384 237.944 215.852 238.186C217.321 238.429 218.639 239.229 219.531 240.42Z" fill="url(#paint6_radial_862_12542)"/>
<path d="M219.531 240.42C220.223 241.352 220.617 242.471 220.661 243.631C220.706 244.791 220.399 245.938 219.781 246.92C205.691 269.49 178.541 282.76 149.861 278.48C121.181 274.2 99.1009 253.6 92.2009 227.91C91.897 226.789 91.9387 225.602 92.3205 224.504C92.7023 223.407 93.4065 222.451 94.3409 221.76V221.76C95.5429 220.886 97.0353 220.508 98.5082 220.706C99.9812 220.903 101.322 221.66 102.251 222.82C113.571 236.61 132.091 247.06 154.051 250.33C176.011 253.6 196.791 249.02 211.651 239.12C212.879 238.279 214.384 237.944 215.852 238.186C217.321 238.429 218.639 239.229 219.531 240.42V240.42Z" stroke="url(#paint7_linear_862_12542)" stroke-width="2" stroke-miterlimit="10"/>
<path d="M241.43 413.71C263.207 413.71 280.86 396.056 280.86 374.28C280.86 352.503 263.207 334.85 241.43 334.85C219.653 334.85 202 352.503 202 374.28C202 396.056 219.653 413.71 241.43 413.71Z" fill="url(#paint8_radial_862_12542)"/>
<path d="M241.43 414.96C263.897 414.96 282.11 396.747 282.11 374.28C282.11 351.813 263.897 333.6 241.43 333.6C218.963 333.6 200.75 351.813 200.75 374.28C200.75 396.747 218.963 414.96 241.43 414.96Z" stroke="url(#paint9_linear_862_12542)" stroke-width="2.5" stroke-miterlimit="10"/>
<path d="M241.43 412.56C262.572 412.56 279.71 395.421 279.71 374.28C279.71 353.139 262.572 336 241.43 336C220.289 336 203.15 353.139 203.15 374.28C203.15 395.421 220.289 412.56 241.43 412.56Z" stroke="url(#paint10_linear_862_12542)" stroke-width="4" stroke-miterlimit="10"/>
<mask id="mask1_862_12542" style="mask-type:alpha" maskUnits="userSpaceOnUse" x="0" y="0" width="483" height="483">
<path d="M241.18 482.36C374.38 482.36 482.36 374.38 482.36 241.18C482.36 107.98 374.38 0 241.18 0C107.98 0 0 107.98 0 241.18C0 374.38 107.98 482.36 241.18 482.36Z" fill="url(#paint11_radial_862_12542)"/>
</mask>
<g mask="url(#mask1_862_12542)">
<g filter="url(#filter2_f_862_12542)">
<path d="M435.096 410.856C444.598 437.81 424.647 466.529 396.051 465.88L394.603 465.819C389.07 465.507 383.653 464.109 378.661 461.705C373.668 459.301 369.199 455.938 365.507 451.808C361.816 447.678 358.975 442.863 357.146 437.636C355.317 432.41 354.537 426.875 354.85 421.348C357.758 369.858 287.931 327.381 287.931 327.381C287.931 327.381 390.535 331.301 427.673 394.755C430.654 399.875 433.14 405.266 435.096 410.856Z" fill="#743C1C"/>
</g>
</g>
<path d="M455.721 393.43C469.501 422.58 450.461 457.13 418.321 459.72L416.691 459.82C410.451 460.112 404.215 459.171 398.339 457.053C392.462 454.934 387.061 451.678 382.442 447.471C377.824 443.265 374.08 438.19 371.424 432.536C368.768 426.882 367.251 420.76 366.961 414.52C364.251 356.39 281.031 316.82 281.031 316.82C281.031 316.82 396.531 309.31 445.531 376.22C449.467 381.62 452.879 387.382 455.721 393.43Z" fill="url(#paint12_linear_862_12542)"/>
<mask id="mask2_862_12542" style="mask-type:alpha" maskUnits="userSpaceOnUse" x="281" y="316" width="180" height="144">
<path d="M455.721 393.43C469.501 422.58 450.461 457.13 418.321 459.72L416.691 459.82C410.451 460.112 404.215 459.171 398.339 457.053C392.462 454.934 387.061 451.678 382.442 447.471C377.824 443.265 374.08 438.19 371.424 432.536C368.768 426.882 367.251 420.76 366.961 414.52C364.251 356.39 281.031 316.82 281.031 316.82C281.031 316.82 396.531 309.31 445.531 376.22C449.467 381.62 452.879 387.382 455.721 393.43Z" fill="url(#paint13_linear_862_12542)"/>
</mask>
<g mask="url(#mask2_862_12542)">
<g filter="url(#filter3_f_862_12542)">
<path d="M420.948 381.327C427.175 394.345 418.57 409.775 404.045 410.932L403.309 410.977C400.489 411.107 397.67 410.687 395.015 409.741C392.359 408.795 389.918 407.341 387.831 405.462C385.744 403.583 384.052 401.317 382.851 398.792C381.651 396.267 380.965 393.533 380.834 390.746C379.61 364.785 342 347.113 342 347.113C342 347.113 394.198 343.759 416.342 373.641C418.121 376.052 419.663 378.626 420.948 381.327Z" fill="white"/>
</g>
</g>
<mask id="mask3_862_12542" style="mask-type:alpha" maskUnits="userSpaceOnUse" x="281" y="316" width="180" height="144">
<path d="M455.721 393.43C469.501 422.58 450.461 457.13 418.321 459.72L416.691 459.82C410.451 460.112 404.215 459.171 398.339 457.053C392.462 454.934 387.061 451.678 382.442 447.471C377.824 443.265 374.08 438.19 371.424 432.536C368.768 426.882 367.251 420.76 366.961 414.52C364.251 356.39 281.031 316.82 281.031 316.82C281.031 316.82 396.531 309.31 445.531 376.22C449.467 381.62 452.879 387.382 455.721 393.43Z" fill="url(#paint14_linear_862_12542)"/>
</mask>
<g mask="url(#mask3_862_12542)">
<g filter="url(#filter4_f_862_12542)">
<path d="M456.32 393C460.745 398.826 463.525 405.733 464.37 413C465.273 420.606 464.283 428.318 461.49 435.45C458.642 442.806 454.05 449.361 448.11 454.55C442.065 459.862 434.782 463.569 426.93 465.33C419.142 467.03 411.067 466.917 403.33 465C399.509 464.037 395.817 462.624 392.33 460.79C391.457 460.347 390.609 459.856 389.79 459.32L387.3 457.74C385.75 456.55 384.19 455.4 382.73 454.14C377.002 449.071 372.577 442.698 369.83 435.56C367.163 428.736 366.379 421.321 367.56 414.09C369.308 420.608 372.199 426.763 376.1 432.27C379.76 437.373 384.35 441.74 389.63 445.14C399.761 451.584 412.019 453.785 423.76 451.27C429.52 449.931 434.939 447.409 439.673 443.864C444.407 440.32 448.352 435.83 451.26 430.68C454.425 425.244 456.485 419.235 457.32 413C458.174 406.327 457.835 399.555 456.32 393Z" fill="#C7EDFE"/>
</g>
</g>
<defs>
<filter id="filter0_f_862_12542" x="-26.8145" y="206.558" width="535.021" height="306.595" filterUnits="userSpaceOnUse" color-interpolation-filters="sRGB">
<feFlood flood-opacity="0" result="BackgroundImageFix"/>
<feBlend mode="normal" in="SourceGraphic" in2="BackgroundImageFix" result="shape"/>
<feGaussianBlur stdDeviation="12.5" result="effect1_foregroundBlur_862_12542"/>
</filter>
<filter id="filter1_f_862_12542" x="-41.8145" y="191.558" width="565.021" height="336.595" filterUnits="userSpaceOnUse" color-interpolation-filters="sRGB">
<feFlood flood-opacity="0" result="BackgroundImageFix"/>
<feBlend mode="normal" in="SourceGraphic" in2="BackgroundImageFix" result="shape"/>
<feGaussianBlur stdDeviation="20" result="effect1_foregroundBlur_862_12542"/>
</filter>
<filter id="filter2_f_862_12542" x="257.931" y="297.381" width="209.561" height="198.509" filterUnits="userSpaceOnUse" color-interpolation-filters="sRGB">
<feFlood flood-opacity="0" result="BackgroundImageFix"/>
<feBlend mode="normal" in="SourceGraphic" in2="BackgroundImageFix" result="shape"/>
<feGaussianBlur stdDeviation="15" result="effect1_foregroundBlur_862_12542"/>
</filter>
<filter id="filter3_f_862_12542" x="312" y="317" width="141" height="124" filterUnits="userSpaceOnUse" color-interpolation-filters="sRGB">
<feFlood flood-opacity="0" result="BackgroundImageFix"/>
<feBlend mode="normal" in="SourceGraphic" in2="BackgroundImageFix" result="shape"/>
<feGaussianBlur stdDeviation="15" result="effect1_foregroundBlur_862_12542"/>
</filter>
<filter id="filter4_f_862_12542" x="357.025" y="383" width="117.669" height="93.5269" filterUnits="userSpaceOnUse" color-interpolation-filters="sRGB">
<feFlood flood-opacity="0" result="BackgroundImageFix"/>
<feBlend mode="normal" in="SourceGraphic" in2="BackgroundImageFix" result="shape"/>
<feGaussianBlur stdDeviation="5" result="effect1_foregroundBlur_862_12542"/>
</filter>
<radialGradient id="paint0_radial_862_12542" cx="0" cy="0" r="1" gradientUnits="userSpaceOnUse" gradientTransform="translate(241 -4.53898e-06) rotate(90) scale(482)">
<stop stop-color="#FFDE43"/>
<stop offset="1" stop-color="#FFBC00"/>
</radialGradient>
<radialGradient id="paint1_radial_862_12542" cx="0" cy="0" r="1" gradientUnits="userSpaceOnUse" gradientTransform="translate(241 64.5) rotate(90) scale(417.5)">
<stop stop-color="white" stop-opacity="0.5"/>
<stop offset="0.782278"/>
</radialGradient>
<radialGradient id="paint2_radial_862_12542" cx="0" cy="0" r="1" gradientUnits="userSpaceOnUse" gradientTransform="translate(241 64.5) rotate(90) scale(417.5)">
<stop stop-color="white" stop-opacity="0.5"/>
<stop offset="0.782278"/>
</radialGradient>
<radialGradient id="paint3_radial_862_12542" cx="0" cy="0" r="1" gradientUnits="userSpaceOnUse" gradientTransform="translate(241 -52.5) rotate(90) scale(534.5 722.835)">
<stop offset="0.0922635" stop-color="white"/>
<stop offset="0.670207" stop-color="white" stop-opacity="0"/>
</radialGradient>
<radialGradient id="paint4_radial_862_12542" cx="0" cy="0" r="1" gradientUnits="userSpaceOnUse" gradientTransform="translate(324.999 249.947) scale(82.0068 29.3628)">
<stop stop-color="#743C1C"/>
<stop offset="1" stop-color="#401C02"/>
</radialGradient>
<linearGradient id="paint5_linear_862_12542" x1="325.088" y1="280.928" x2="325.088" y2="218.768" gradientUnits="userSpaceOnUse">
<stop stop-color="#FFDE43"/>
<stop offset="0.22" stop-color="#FED93F"/>
<stop offset="0.51" stop-color="#FCC934"/>
<stop offset="0.82" stop-color="#F9AF21"/>
<stop offset="1" stop-color="#F79D14"/>
</linearGradient>
<radialGradient id="paint6_radial_862_12542" cx="0" cy="0" r="1" gradientUnits="userSpaceOnUse" gradientTransform="translate(156.244 249.947) scale(82.0086 29.3628)">
<stop stop-color="#743C1C"/>
<stop offset="1" stop-color="#401C02"/>
</radialGradient>
<linearGradient id="paint7_linear_862_12542" x1="156.333" y1="280.928" x2="156.333" y2="218.768" gradientUnits="userSpaceOnUse">
<stop stop-color="#FFDE43"/>
<stop offset="0.22" stop-color="#FED93F"/>
<stop offset="0.51" stop-color="#FCC934"/>
<stop offset="0.82" stop-color="#F9AF21"/>
<stop offset="1" stop-color="#F79D14"/>
</linearGradient>
<radialGradient id="paint8_radial_862_12542" cx="0" cy="0" r="1" gradientUnits="userSpaceOnUse" gradientTransform="translate(241.375 374.254) scale(50.2636 39.4984)">
<stop stop-color="#743C1C"/>
<stop offset="1" stop-color="#401C02"/>
</radialGradient>
<linearGradient id="paint9_linear_862_12542" x1="241.43" y1="415.76" x2="241.43" y2="332.8" gradientUnits="userSpaceOnUse">
<stop offset="0.16" stop-color="#FFDE43"/>
<stop offset="1" stop-color="#FFA216"/>
</linearGradient>
<linearGradient id="paint10_linear_862_12542" x1="241.43" y1="414.56" x2="241.43" y2="334.01" gradientUnits="userSpaceOnUse">
<stop stop-color="#401C02"/>
<stop offset="1" stop-color="#401C02"/>
</linearGradient>
<radialGradient id="paint11_radial_862_12542" cx="0" cy="0" r="1" gradientUnits="userSpaceOnUse" gradientTransform="translate(241 -4.53898e-06) rotate(90) scale(482)">
<stop stop-color="#FFDE43"/>
<stop offset="1" stop-color="#FFBC00"/>
</radialGradient>
<linearGradient id="paint12_linear_862_12542" x1="368.215" y1="312.753" x2="375.165" y2="461.771" gradientUnits="userSpaceOnUse">
<stop stop-color="#00CFFE"/>
<stop offset="0.18" stop-color="#00CBFE"/>
<stop offset="0.35" stop-color="#00BFFE"/>
<stop offset="0.52" stop-color="#00ACFE"/>
<stop offset="0.69" stop-color="#0090FE"/>
<stop offset="0.86" stop-color="#006DFF"/>
<stop offset="1" stop-color="#0048FF"/>
</linearGradient>
<linearGradient id="paint13_linear_862_12542" x1="368.215" y1="312.753" x2="375.165" y2="461.771" gradientUnits="userSpaceOnUse">
<stop stop-color="#00CFFE"/>
<stop offset="0.18" stop-color="#00CBFE"/>
<stop offset="0.35" stop-color="#00BFFE"/>
<stop offset="0.52" stop-color="#00ACFE"/>
<stop offset="0.69" stop-color="#0090FE"/>
<stop offset="0.86" stop-color="#006DFF"/>
<stop offset="1" stop-color="#0048FF"/>
</linearGradient>
<linearGradient id="paint14_linear_862_12542" x1="368.215" y1="312.753" x2="375.165" y2="461.771" gradientUnits="userSpaceOnUse">
<stop stop-color="#00CFFE"/>
<stop offset="0.18" stop-color="#00CBFE"/>
<stop offset="0.35" stop-color="#00BFFE"/>
<stop offset="0.52" stop-color="#00ACFE"/>
<stop offset="0.69" stop-color="#0090FE"/>
<stop offset="0.86" stop-color="#006DFF"/>
<stop offset="1" stop-color="#0048FF"/>
</linearGradient>
</defs>
</svg>
