<svg width="483" height="483" viewBox="0 0 483 483" fill="none" xmlns="http://www.w3.org/2000/svg">
<path d="M241.18 482.36C374.38 482.36 482.36 374.38 482.36 241.18C482.36 107.98 374.38 0 241.18 0C107.98 0 0 107.98 0 241.18C0 374.38 107.98 482.36 241.18 482.36Z" fill="url(#paint0_radial_862_12463)"/>
<g style="mix-blend-mode:soft-light">
<path d="M241.18 482.36C374.38 482.36 482.36 374.38 482.36 241.18C482.36 107.98 374.38 0 241.18 0C107.98 0 0 107.98 0 241.18C0 374.38 107.98 482.36 241.18 482.36Z" fill="url(#paint1_radial_862_12463)"/>
</g>
<g style="mix-blend-mode:soft-light">
<path d="M241.18 482.36C374.38 482.36 482.36 374.38 482.36 241.18C482.36 107.98 374.38 0 241.18 0C107.98 0 0 107.98 0 241.18C0 374.38 107.98 482.36 241.18 482.36Z" fill="url(#paint2_radial_862_12463)"/>
</g>
<g style="mix-blend-mode:overlay">
<path d="M241.18 482.36C374.38 482.36 482.36 374.38 482.36 241.18C482.36 107.98 374.38 0 241.18 0C107.98 0 0 107.98 0 241.18C0 374.38 107.98 482.36 241.18 482.36Z" fill="url(#paint3_radial_862_12463)" fill-opacity="0.7"/>
</g>
<mask id="mask0_862_12463" style="mask-type:alpha" maskUnits="userSpaceOnUse" x="0" y="0" width="483" height="483">
<path d="M241.18 482.36C374.38 482.36 482.36 374.38 482.36 241.18C482.36 107.98 374.38 0 241.18 0C107.98 0 0 107.98 0 241.18C0 374.38 107.98 482.36 241.18 482.36Z" fill="white"/>
</mask>
<g mask="url(#mask0_862_12463)">
<g filter="url(#filter0_f_862_12463)">
<path d="M-1.37541 234.299C-1.11353 230.872 0.0141891 230.529 0.343108 234.008C0.708543 237.874 -0.00182796 245.646 0.169198 250.335C0.622042 262.748 2.5249 273.541 4.48654 282.32C10.808 310.612 19.5622 328.843 27.7273 344.288C54.5668 395.06 83.9672 420.77 112.648 440.147C154.69 468.549 197.073 477.584 239.491 479.5C240.561 479.548 240.739 486.518 239.686 487.425C237.788 489.061 235.437 487.437 233.495 487.369C227.915 487.174 222.336 486.791 216.756 486.211C200.213 484.492 183.671 480.991 167.162 475.358C122.275 460.044 73.877 433.821 31.6097 359.962C28.9507 355.316 26.3128 350.424 23.7123 345.167C21.6325 340.963 19.573 336.556 17.5498 331.843C10.895 316.342 -4.61274 276.658 -1.37541 234.299ZM239.52 487.5C238.5 487.531 238.241 481.034 239.214 479.685C240.685 477.647 242.889 479.326 244.439 479.229C250.878 478.826 257.315 478.229 263.75 477.421C281.396 475.205 299.028 471.422 316.621 465.596C360.257 451.145 407.17 429.115 448.305 361.431C450.923 357.123 453.519 352.553 456.079 347.641C463.86 332.712 483.362 293.084 481.107 243.821C480.917 239.668 482.182 237.181 482.748 240.743C483.468 245.279 483.176 254.736 482.977 259.768C482.342 275.883 479.867 289.512 477.257 300.518C468.987 335.399 457.377 355.623 446.744 372.51C412.184 427.397 374.649 449.524 338.156 465.424C305.425 479.686 272.445 486.484 239.52 487.5Z" fill="#401C02"/>
</g>
<g filter="url(#filter1_f_862_12463)">
<path d="M-1.37541 234.299C-1.11353 230.872 0.0141891 230.529 0.343108 234.008C0.708543 237.874 -0.00182796 245.646 0.169198 250.335C0.622042 262.748 2.5249 273.541 4.48654 282.32C10.808 310.612 19.5622 328.843 27.7273 344.288C54.5668 395.06 83.9672 420.77 112.648 440.147C154.69 468.549 197.073 477.584 239.491 479.5C240.561 479.548 240.739 486.518 239.686 487.425C237.788 489.061 235.437 487.437 233.495 487.369C227.915 487.174 222.336 486.791 216.756 486.211C200.213 484.492 183.671 480.991 167.162 475.358C122.275 460.044 73.877 433.821 31.6097 359.962C28.9507 355.316 26.3128 350.424 23.7123 345.167C21.6325 340.963 19.573 336.556 17.5498 331.843C10.895 316.342 -4.61274 276.658 -1.37541 234.299ZM239.52 487.5C238.5 487.531 238.241 481.034 239.214 479.685C240.685 477.647 242.889 479.326 244.439 479.229C250.878 478.826 257.315 478.229 263.75 477.421C281.396 475.205 299.028 471.422 316.621 465.596C360.257 451.145 407.17 429.115 448.305 361.431C450.923 357.123 453.519 352.553 456.079 347.641C463.86 332.712 483.362 293.084 481.107 243.821C480.917 239.668 482.182 237.181 482.748 240.743C483.468 245.279 483.176 254.736 482.977 259.768C482.342 275.883 479.867 289.512 477.257 300.518C468.987 335.399 457.377 355.623 446.744 372.51C412.184 427.397 374.649 449.524 338.156 465.424C305.425 479.686 272.445 486.484 239.52 487.5Z" fill="#401C02"/>
</g>
</g>
<path d="M164.23 219.84C179.269 219.84 191.46 204.801 191.46 186.25C191.46 167.699 179.269 152.66 164.23 152.66C149.191 152.66 137 167.699 137 186.25C137 204.801 149.191 219.84 164.23 219.84Z" fill="url(#paint4_radial_862_12463)"/>
<path d="M164.23 219.84C179.269 219.84 191.46 204.801 191.46 186.25C191.46 167.699 179.269 152.66 164.23 152.66C149.191 152.66 137 167.699 137 186.25C137 204.801 149.191 219.84 164.23 219.84Z" stroke="url(#paint5_linear_862_12463)" stroke-width="2" stroke-miterlimit="10"/>
<path d="M317.61 219.84C332.649 219.84 344.84 204.801 344.84 186.25C344.84 167.699 332.649 152.66 317.61 152.66C302.571 152.66 290.38 167.699 290.38 186.25C290.38 204.801 302.571 219.84 317.61 219.84Z" fill="url(#paint6_radial_862_12463)"/>
<path d="M317.61 219.84C332.649 219.84 344.84 204.801 344.84 186.25C344.84 167.699 332.649 152.66 317.61 152.66C302.571 152.66 290.38 167.699 290.38 186.25C290.38 204.801 302.571 219.84 317.61 219.84Z" stroke="url(#paint7_linear_862_12463)" stroke-width="2" stroke-miterlimit="10"/>
<path d="M340.939 347.852C341.287 348.78 340.202 349.515 339.428 348.896C332.44 343.307 325.202 338.523 317.965 334.297C309.836 329.549 301.529 325.505 293.046 322.516C284.563 319.352 276.08 317.066 267.244 315.484C258.584 314.077 249.748 313.198 240.912 313.198C232.075 313.198 223.239 313.901 214.579 315.484C205.92 317.066 197.26 319.352 188.777 322.516C180.294 325.681 171.988 329.549 163.858 334.297C156.726 338.712 149.593 343.552 142.461 349.069C141.691 349.665 140.644 348.944 140.989 348.034C142.429 344.222 144.428 340.61 146.539 337.11C149.19 332.714 152.194 328.495 155.729 324.626C162.444 316.714 170.574 309.857 179.764 304.055C188.6 298.429 198.674 294.033 209.101 291.22C219.528 288.407 230.308 287 241.088 287C251.869 287 262.649 288.407 273.076 291.22C283.503 294.209 293.4 298.429 302.59 304.055C311.603 309.681 319.732 316.714 326.625 324.626C329.982 328.67 333.164 332.714 335.815 337.11C337.741 340.533 339.561 344.169 340.939 347.852Z" stroke="url(#paint8_linear_862_12463)" stroke-width="5"/>
<path d="M340.939 347.852C341.287 348.78 340.202 349.515 339.428 348.896C332.44 343.307 325.202 338.523 317.965 334.297C309.836 329.549 301.529 325.505 293.046 322.516C284.563 319.352 276.08 317.066 267.244 315.484C258.584 314.077 249.748 313.198 240.912 313.198C232.075 313.198 223.239 313.901 214.579 315.484C205.92 317.066 197.26 319.352 188.777 322.516C180.294 325.681 171.988 329.549 163.858 334.297C156.726 338.712 149.593 343.552 142.461 349.069C141.691 349.665 140.644 348.944 140.989 348.034C142.429 344.222 144.428 340.61 146.539 337.11C149.19 332.714 152.194 328.495 155.729 324.626C162.444 316.714 170.574 309.857 179.764 304.055C188.6 298.429 198.674 294.033 209.101 291.22C219.528 288.407 230.308 287 241.088 287C251.869 287 262.649 288.407 273.076 291.22C283.503 294.209 293.4 298.429 302.59 304.055C311.603 309.681 319.732 316.714 326.625 324.626C329.982 328.67 333.164 332.714 335.815 337.11C337.741 340.533 339.561 344.169 340.939 347.852Z" fill="url(#paint9_radial_862_12463)"/>
<defs>
<filter id="filter0_f_862_12463" x="-26.8145" y="206.558" width="535.021" height="306.595" filterUnits="userSpaceOnUse" color-interpolation-filters="sRGB">
<feFlood flood-opacity="0" result="BackgroundImageFix"/>
<feBlend mode="normal" in="SourceGraphic" in2="BackgroundImageFix" result="shape"/>
<feGaussianBlur stdDeviation="12.5" result="effect1_foregroundBlur_862_12463"/>
</filter>
<filter id="filter1_f_862_12463" x="-41.8145" y="191.558" width="565.021" height="336.595" filterUnits="userSpaceOnUse" color-interpolation-filters="sRGB">
<feFlood flood-opacity="0" result="BackgroundImageFix"/>
<feBlend mode="normal" in="SourceGraphic" in2="BackgroundImageFix" result="shape"/>
<feGaussianBlur stdDeviation="20" result="effect1_foregroundBlur_862_12463"/>
</filter>
<radialGradient id="paint0_radial_862_12463" cx="0" cy="0" r="1" gradientUnits="userSpaceOnUse" gradientTransform="translate(241 -4.53898e-06) rotate(90) scale(482)">
<stop stop-color="#FFDE43"/>
<stop offset="1" stop-color="#FFBC00"/>
</radialGradient>
<radialGradient id="paint1_radial_862_12463" cx="0" cy="0" r="1" gradientUnits="userSpaceOnUse" gradientTransform="translate(241 64.5) rotate(90) scale(417.5)">
<stop stop-color="white" stop-opacity="0.5"/>
<stop offset="0.782278"/>
</radialGradient>
<radialGradient id="paint2_radial_862_12463" cx="0" cy="0" r="1" gradientUnits="userSpaceOnUse" gradientTransform="translate(241 64.5) rotate(90) scale(417.5)">
<stop stop-color="white" stop-opacity="0.5"/>
<stop offset="0.782278"/>
</radialGradient>
<radialGradient id="paint3_radial_862_12463" cx="0" cy="0" r="1" gradientUnits="userSpaceOnUse" gradientTransform="translate(241 -52.5) rotate(90) scale(534.5 722.835)">
<stop offset="0.0922635" stop-color="white"/>
<stop offset="0.670207" stop-color="white" stop-opacity="0"/>
</radialGradient>
<radialGradient id="paint4_radial_862_12463" cx="0" cy="0" r="1" gradientUnits="userSpaceOnUse" gradientTransform="translate(164.192 186.228) scale(34.7116 33.6483)">
<stop stop-color="#743C1C"/>
<stop offset="1" stop-color="#401C02"/>
</radialGradient>
<linearGradient id="paint5_linear_862_12463" x1="164.23" y1="221.73" x2="164.23" y2="150.498" gradientUnits="userSpaceOnUse">
<stop stop-color="#FFDE43"/>
<stop offset="0.22" stop-color="#FED93F"/>
<stop offset="0.51" stop-color="#FCC934"/>
<stop offset="0.82" stop-color="#F9AF21"/>
<stop offset="1" stop-color="#F79D14"/>
</linearGradient>
<radialGradient id="paint6_radial_862_12463" cx="0" cy="0" r="1" gradientUnits="userSpaceOnUse" gradientTransform="translate(317.572 186.228) scale(34.7116 33.6483)">
<stop stop-color="#743C1C"/>
<stop offset="1" stop-color="#401C02"/>
</radialGradient>
<linearGradient id="paint7_linear_862_12463" x1="317.61" y1="221.73" x2="317.61" y2="150.498" gradientUnits="userSpaceOnUse">
<stop stop-color="#FFDE43"/>
<stop offset="0.22" stop-color="#FED93F"/>
<stop offset="0.51" stop-color="#FCC934"/>
<stop offset="0.82" stop-color="#F9AF21"/>
<stop offset="1" stop-color="#F79D14"/>
</linearGradient>
<linearGradient id="paint8_linear_862_12463" x1="241" y1="352.801" x2="241" y2="284.941" gradientUnits="userSpaceOnUse">
<stop offset="0.265625" stop-color="#FFDE43"/>
<stop offset="1" stop-color="#F79D14"/>
</linearGradient>
<radialGradient id="paint9_radial_862_12463" cx="0" cy="0" r="1" gradientUnits="userSpaceOnUse" gradientTransform="translate(241 318.871) scale(76.2372 64.6435)">
<stop stop-color="#743C1C"/>
<stop offset="1" stop-color="#401C02"/>
</radialGradient>
</defs>
</svg>
