<svg width="527" height="483" viewBox="0 0 527 483" fill="none" xmlns="http://www.w3.org/2000/svg">
<path d="M263.18 482.36C396.38 482.36 504.36 374.38 504.36 241.18C504.36 107.98 396.38 0 263.18 0C129.98 0 22 107.98 22 241.18C22 374.38 129.98 482.36 263.18 482.36Z" fill="url(#paint0_radial_862_12501)"/>
<g style="mix-blend-mode:soft-light">
<path d="M263.18 482.36C396.38 482.36 504.36 374.38 504.36 241.18C504.36 107.98 396.38 0 263.18 0C129.98 0 22 107.98 22 241.18C22 374.38 129.98 482.36 263.18 482.36Z" fill="url(#paint1_radial_862_12501)"/>
</g>
<g style="mix-blend-mode:soft-light">
<path d="M263.18 482.36C396.38 482.36 504.36 374.38 504.36 241.18C504.36 107.98 396.38 0 263.18 0C129.98 0 22 107.98 22 241.18C22 374.38 129.98 482.36 263.18 482.36Z" fill="url(#paint2_radial_862_12501)"/>
</g>
<g style="mix-blend-mode:overlay">
<path d="M263.18 482.36C396.38 482.36 504.36 374.38 504.36 241.18C504.36 107.98 396.38 0 263.18 0C129.98 0 22 107.98 22 241.18C22 374.38 129.98 482.36 263.18 482.36Z" fill="url(#paint3_radial_862_12501)" fill-opacity="0.7"/>
</g>
<mask id="mask0_862_12501" style="mask-type:alpha" maskUnits="userSpaceOnUse" x="22" y="0" width="483" height="483">
<path d="M263.18 482.36C396.38 482.36 504.36 374.38 504.36 241.18C504.36 107.98 396.38 0 263.18 0C129.98 0 22 107.98 22 241.18C22 374.38 129.98 482.36 263.18 482.36Z" fill="white"/>
</mask>
<g mask="url(#mask0_862_12501)">
<g filter="url(#filter0_f_862_12501)">
<path d="M20.6246 234.299C20.8865 230.872 22.0142 230.529 22.3431 234.009C22.7085 237.875 21.9982 245.647 22.1692 250.335C22.622 262.748 24.5249 273.542 26.4865 282.321C32.808 310.613 41.5622 328.843 49.7273 344.289C76.5668 395.061 105.967 420.771 134.648 440.147C176.69 468.55 219.073 477.584 261.491 479.5C262.561 479.549 262.739 486.518 261.686 487.425C259.788 489.062 257.437 487.438 255.495 487.37C249.915 487.174 244.336 486.791 238.756 486.211C222.213 484.492 205.671 480.991 189.162 475.359C144.275 460.044 95.877 433.821 53.6097 359.962C50.9507 355.316 48.3128 350.424 45.7123 345.168C43.6325 340.964 41.573 336.557 39.5498 331.844C32.895 316.342 17.3873 276.659 20.6246 234.299ZM261.52 487.5C260.5 487.532 260.241 481.035 261.214 479.686C262.685 477.647 264.889 479.326 266.439 479.229C272.878 478.827 279.315 478.23 285.75 477.422C303.396 475.206 321.028 471.423 338.621 465.596C382.257 451.146 429.17 429.116 470.305 361.431C472.923 357.124 475.519 352.554 478.079 347.641C485.86 332.713 505.362 293.085 503.107 243.821C502.917 239.669 504.182 237.181 504.748 240.744C505.468 245.28 505.176 254.736 504.977 259.768C504.342 275.884 501.867 289.512 499.257 300.518C490.987 335.399 479.377 355.623 468.744 372.51C434.184 427.397 396.649 449.524 360.156 465.425C327.425 479.686 294.445 486.484 261.52 487.5Z" fill="#401C02"/>
</g>
<g filter="url(#filter1_f_862_12501)">
<path d="M20.6246 234.299C20.8865 230.872 22.0142 230.529 22.3431 234.009C22.7085 237.875 21.9982 245.647 22.1692 250.335C22.622 262.748 24.5249 273.542 26.4865 282.321C32.808 310.613 41.5622 328.843 49.7273 344.289C76.5668 395.061 105.967 420.771 134.648 440.147C176.69 468.55 219.073 477.584 261.491 479.5C262.561 479.549 262.739 486.518 261.686 487.425C259.788 489.062 257.437 487.438 255.495 487.37C249.915 487.174 244.336 486.791 238.756 486.211C222.213 484.492 205.671 480.991 189.162 475.359C144.275 460.044 95.877 433.821 53.6097 359.962C50.9507 355.316 48.3128 350.424 45.7123 345.168C43.6325 340.964 41.573 336.557 39.5498 331.844C32.895 316.342 17.3873 276.659 20.6246 234.299ZM261.52 487.5C260.5 487.532 260.241 481.035 261.214 479.686C262.685 477.647 264.889 479.326 266.439 479.229C272.878 478.827 279.315 478.23 285.75 477.422C303.396 475.206 321.028 471.423 338.621 465.596C382.257 451.146 429.17 429.116 470.305 361.431C472.923 357.124 475.519 352.554 478.079 347.641C485.86 332.713 505.362 293.085 503.107 243.821C502.917 239.669 504.182 237.181 504.748 240.744C505.468 245.28 505.176 254.736 504.977 259.768C504.342 275.884 501.867 289.512 499.257 300.518C490.987 335.399 479.377 355.623 468.744 372.51C434.184 427.397 396.649 449.524 360.156 465.425C327.425 479.686 294.445 486.484 261.52 487.5Z" fill="#401C02"/>
</g>
</g>
<g opacity="0.85">
<g filter="url(#filter2_f_862_12501)">
<circle cx="417" cy="263" r="50" fill="#E66200"/>
</g>
<g filter="url(#filter3_f_862_12501)">
<circle cx="110" cy="263" r="50" fill="#E66200"/>
</g>
</g>
<path d="M401.944 297.8C342.654 388.68 182.814 388.73 123.664 297.711C123.142 296.911 122.917 295.953 123.027 295.005C123.138 294.056 123.576 293.176 124.267 292.517C124.959 291.858 125.858 291.461 126.811 291.396C127.764 291.331 128.71 291.602 129.484 292.16C206.804 347.9 318.804 348 396.114 292.25C396.888 291.685 397.836 291.409 398.792 291.471C399.748 291.534 400.653 291.93 401.347 292.591C402.041 293.251 402.481 294.135 402.59 295.087C402.699 296.039 402.471 297 401.944 297.8Z" fill="url(#paint4_radial_862_12501)"/>
<path d="M401.944 297.8C342.654 388.68 182.814 388.731 123.664 297.711C123.142 296.911 122.917 295.953 123.027 295.005C123.138 294.056 123.576 293.176 124.267 292.517C124.959 291.858 125.858 291.461 126.811 291.396C127.764 291.331 128.71 291.602 129.484 292.16C206.804 347.9 318.804 348 396.114 292.25C396.888 291.685 397.836 291.409 398.792 291.471C399.748 291.534 400.653 291.93 401.347 292.591C402.041 293.251 402.481 294.135 402.59 295.087C402.699 296.039 402.471 297 401.944 297.8V297.8Z" stroke="url(#paint5_linear_862_12501)" stroke-width="2.5" stroke-miterlimit="10"/>
<path d="M228.601 209.479C228.637 218.221 227.27 226.911 224.551 235.219C224.269 236.158 223.697 236.984 222.917 237.578C222.138 238.173 221.191 238.505 220.211 238.529C219.092 238.494 218.023 238.062 217.193 237.311C216.363 236.56 215.827 235.539 215.681 234.429C212.601 215.979 200.621 202.219 186.301 202.219C171.981 202.219 160.001 215.979 156.921 234.429C156.774 235.539 156.238 236.56 155.409 237.311C154.579 238.062 153.509 238.494 152.391 238.529C151.411 238.504 150.465 238.17 149.685 237.576C148.906 236.982 148.334 236.157 148.051 235.219C145.332 226.911 143.964 218.221 144.001 209.479C144.001 176.229 162.941 149.279 186.301 149.279C209.661 149.279 228.601 176.229 228.601 209.479Z" fill="url(#paint6_radial_862_12501)"/>
<path d="M228.601 209.479C228.637 218.221 227.27 226.911 224.551 235.219C224.269 236.158 223.697 236.984 222.917 237.578C222.138 238.173 221.191 238.505 220.211 238.529C219.092 238.494 218.023 238.062 217.193 237.311C216.363 236.56 215.827 235.539 215.681 234.429C212.601 215.979 200.621 202.219 186.301 202.219C171.981 202.219 160.001 215.979 156.921 234.429C156.774 235.539 156.238 236.56 155.409 237.311C154.579 238.062 153.509 238.494 152.391 238.529V238.529C151.411 238.504 150.465 238.17 149.685 237.576C148.906 236.982 148.334 236.157 148.051 235.219C145.332 226.911 143.964 218.221 144.001 209.479C144.001 176.229 162.941 149.279 186.301 149.279C209.661 149.279 228.601 176.229 228.601 209.479Z" stroke="url(#paint7_linear_862_12501)" stroke-width="2" stroke-miterlimit="10"/>
<path d="M382.98 209.479C383.033 218.218 381.683 226.909 378.98 235.219C378.698 236.158 378.127 236.984 377.347 237.578C376.568 238.173 375.62 238.505 374.64 238.529C373.522 238.494 372.452 238.062 371.622 237.311C370.793 236.56 370.257 235.539 370.11 234.429C367.03 215.979 355.05 202.219 340.73 202.219C326.41 202.219 314.43 215.979 311.35 234.429C311.204 235.539 310.668 236.56 309.838 237.311C309.009 238.062 307.939 238.494 306.82 238.529C305.84 238.505 304.893 238.173 304.114 237.578C303.334 236.984 302.763 236.158 302.48 235.219C299.761 226.911 298.394 218.221 298.43 209.479C298.43 176.229 317.37 149.279 340.73 149.279C364.09 149.279 382.98 176.229 382.98 209.479Z" fill="url(#paint8_radial_862_12501)"/>
<path d="M382.98 209.479C383.033 218.218 381.683 226.909 378.98 235.219C378.698 236.158 378.127 236.984 377.347 237.578C376.568 238.173 375.62 238.505 374.64 238.529C373.522 238.494 372.452 238.062 371.622 237.311C370.793 236.56 370.257 235.539 370.11 234.429C367.03 215.979 355.05 202.219 340.73 202.219C326.41 202.219 314.43 215.979 311.35 234.429C311.204 235.539 310.668 236.56 309.838 237.311C309.009 238.062 307.939 238.494 306.82 238.529C305.84 238.505 304.893 238.173 304.114 237.578C303.334 236.984 302.763 236.158 302.48 235.219C299.761 226.911 298.394 218.221 298.43 209.479C298.43 176.229 317.37 149.279 340.73 149.279C364.09 149.279 382.98 176.229 382.98 209.479Z" fill="url(#paint9_radial_862_12501)"/>
<path d="M382.98 209.479C383.033 218.218 381.683 226.909 378.98 235.219C378.698 236.158 378.127 236.984 377.347 237.578C376.568 238.173 375.62 238.505 374.64 238.529C373.522 238.494 372.452 238.062 371.622 237.311C370.793 236.56 370.257 235.539 370.11 234.429C367.03 215.979 355.05 202.219 340.73 202.219C326.41 202.219 314.43 215.979 311.35 234.429C311.204 235.539 310.668 236.56 309.838 237.311C309.009 238.062 307.939 238.494 306.82 238.529V238.529C305.84 238.505 304.893 238.173 304.114 237.578C303.334 236.984 302.763 236.158 302.48 235.219C299.761 226.911 298.394 218.221 298.43 209.479C298.43 176.229 317.37 149.279 340.73 149.279C364.09 149.279 382.98 176.229 382.98 209.479Z" stroke="url(#paint10_linear_862_12501)" stroke-width="2" stroke-miterlimit="10"/>
<defs>
<filter id="filter0_f_862_12501" x="-4.81445" y="206.559" width="535.021" height="306.595" filterUnits="userSpaceOnUse" color-interpolation-filters="sRGB">
<feFlood flood-opacity="0" result="BackgroundImageFix"/>
<feBlend mode="normal" in="SourceGraphic" in2="BackgroundImageFix" result="shape"/>
<feGaussianBlur stdDeviation="12.5" result="effect1_foregroundBlur_862_12501"/>
</filter>
<filter id="filter1_f_862_12501" x="-19.8145" y="191.559" width="565.021" height="336.595" filterUnits="userSpaceOnUse" color-interpolation-filters="sRGB">
<feFlood flood-opacity="0" result="BackgroundImageFix"/>
<feBlend mode="normal" in="SourceGraphic" in2="BackgroundImageFix" result="shape"/>
<feGaussianBlur stdDeviation="20" result="effect1_foregroundBlur_862_12501"/>
</filter>
<filter id="filter2_f_862_12501" x="307" y="153" width="220" height="220" filterUnits="userSpaceOnUse" color-interpolation-filters="sRGB">
<feFlood flood-opacity="0" result="BackgroundImageFix"/>
<feBlend mode="normal" in="SourceGraphic" in2="BackgroundImageFix" result="shape"/>
<feGaussianBlur stdDeviation="30" result="effect1_foregroundBlur_862_12501"/>
</filter>
<filter id="filter3_f_862_12501" x="0" y="153" width="220" height="220" filterUnits="userSpaceOnUse" color-interpolation-filters="sRGB">
<feFlood flood-opacity="0" result="BackgroundImageFix"/>
<feBlend mode="normal" in="SourceGraphic" in2="BackgroundImageFix" result="shape"/>
<feGaussianBlur stdDeviation="30" result="effect1_foregroundBlur_862_12501"/>
</filter>
<radialGradient id="paint0_radial_862_12501" cx="0" cy="0" r="1" gradientUnits="userSpaceOnUse" gradientTransform="translate(263 -4.53898e-06) rotate(90) scale(482)">
<stop stop-color="#FFDE43"/>
<stop offset="1" stop-color="#FFBC00"/>
</radialGradient>
<radialGradient id="paint1_radial_862_12501" cx="0" cy="0" r="1" gradientUnits="userSpaceOnUse" gradientTransform="translate(263 64.5) rotate(90) scale(417.5)">
<stop stop-color="white" stop-opacity="0.5"/>
<stop offset="0.782278"/>
</radialGradient>
<radialGradient id="paint2_radial_862_12501" cx="0" cy="0" r="1" gradientUnits="userSpaceOnUse" gradientTransform="translate(263 64.5) rotate(90) scale(417.5)">
<stop stop-color="white" stop-opacity="0.5"/>
<stop offset="0.782278"/>
</radialGradient>
<radialGradient id="paint3_radial_862_12501" cx="0" cy="0" r="1" gradientUnits="userSpaceOnUse" gradientTransform="translate(263 -52.5) rotate(90) scale(534.5 722.835)">
<stop offset="0.0922635" stop-color="white"/>
<stop offset="0.670207" stop-color="white" stop-opacity="0"/>
</radialGradient>
<radialGradient id="paint4_radial_862_12501" cx="0" cy="0" r="1" gradientUnits="userSpaceOnUse" gradientTransform="translate(262.808 328.527) scale(105.531 75.3312)">
<stop stop-color="#743C1C"/>
<stop offset="1" stop-color="#401C02"/>
</radialGradient>
<linearGradient id="paint5_linear_862_12501" x1="262.808" y1="368.067" x2="262.808" y2="288.987" gradientUnits="userSpaceOnUse">
<stop offset="0.265625" stop-color="#FFDE43"/>
<stop offset="1" stop-color="#F79D14"/>
</linearGradient>
<radialGradient id="paint6_radial_862_12501" cx="0" cy="0" r="1" gradientUnits="userSpaceOnUse" gradientTransform="translate(186.242 193.875) scale(53.9231 44.7024)">
<stop stop-color="#743C1C"/>
<stop offset="1" stop-color="#401C02"/>
</radialGradient>
<linearGradient id="paint7_linear_862_12501" x1="186.301" y1="241.041" x2="186.301" y2="146.407" gradientUnits="userSpaceOnUse">
<stop stop-color="#FFDE43"/>
<stop offset="0.22" stop-color="#FED93F"/>
<stop offset="0.51" stop-color="#FCC934"/>
<stop offset="0.82" stop-color="#F9AF21"/>
<stop offset="1" stop-color="#F79D14"/>
</linearGradient>
<radialGradient id="paint8_radial_862_12501" cx="0" cy="0" r="1" gradientUnits="userSpaceOnUse" gradientTransform="translate(49101.1 63695.9) scale(3521.6 4051.82)">
<stop stop-color="#743C1C"/>
<stop offset="1" stop-color="#401C02"/>
</radialGradient>
<radialGradient id="paint9_radial_862_12501" cx="0" cy="0" r="1" gradientUnits="userSpaceOnUse" gradientTransform="translate(340.647 193.875) scale(53.8917 44.7024)">
<stop stop-color="#743C1C"/>
<stop offset="1" stop-color="#401C02"/>
</radialGradient>
<linearGradient id="paint10_linear_862_12501" x1="340.706" y1="241.041" x2="340.706" y2="146.407" gradientUnits="userSpaceOnUse">
<stop stop-color="#FFDE43"/>
<stop offset="0.22" stop-color="#FED93F"/>
<stop offset="0.51" stop-color="#FCC934"/>
<stop offset="0.82" stop-color="#F9AF21"/>
<stop offset="1" stop-color="#F79D14"/>
</linearGradient>
</defs>
</svg>
