<svg width="483" height="483" viewBox="0 0 483 483" fill="none" xmlns="http://www.w3.org/2000/svg">
<path d="M241.18 482.36C374.38 482.36 482.36 374.38 482.36 241.18C482.36 107.98 374.38 0 241.18 0C107.98 0 0 107.98 0 241.18C0 374.38 107.98 482.36 241.18 482.36Z" fill="url(#paint0_radial_862_12449)"/>
<g style="mix-blend-mode:soft-light">
<path d="M241.18 482.36C374.38 482.36 482.36 374.38 482.36 241.18C482.36 107.98 374.38 0 241.18 0C107.98 0 0 107.98 0 241.18C0 374.38 107.98 482.36 241.18 482.36Z" fill="url(#paint1_radial_862_12449)"/>
</g>
<g style="mix-blend-mode:soft-light">
<path d="M241.18 482.36C374.38 482.36 482.36 374.38 482.36 241.18C482.36 107.98 374.38 0 241.18 0C107.98 0 0 107.98 0 241.18C0 374.38 107.98 482.36 241.18 482.36Z" fill="url(#paint2_radial_862_12449)"/>
</g>
<g style="mix-blend-mode:overlay">
<path d="M241.18 482.36C374.38 482.36 482.36 374.38 482.36 241.18C482.36 107.98 374.38 0 241.18 0C107.98 0 0 107.98 0 241.18C0 374.38 107.98 482.36 241.18 482.36Z" fill="url(#paint3_radial_862_12449)" fill-opacity="0.7"/>
</g>
<mask id="mask0_862_12449" style="mask-type:alpha" maskUnits="userSpaceOnUse" x="0" y="0" width="483" height="483">
<path d="M241.18 482.36C374.38 482.36 482.36 374.38 482.36 241.18C482.36 107.98 374.38 0 241.18 0C107.98 0 0 107.98 0 241.18C0 374.38 107.98 482.36 241.18 482.36Z" fill="white"/>
</mask>
<g mask="url(#mask0_862_12449)">
<g filter="url(#filter0_f_862_12449)">
<path d="M-1.37541 234.299C-1.11353 230.872 0.0141891 230.529 0.343108 234.009C0.708543 237.875 -0.00182796 245.647 0.169198 250.335C0.622042 262.748 2.5249 273.542 4.48654 282.321C10.808 310.613 19.5622 328.843 27.7273 344.289C54.5668 395.061 83.9672 420.771 112.648 440.147C154.69 468.55 197.073 477.584 239.491 479.5C240.561 479.549 240.739 486.518 239.686 487.425C237.788 489.062 235.437 487.438 233.495 487.37C227.915 487.174 222.336 486.791 216.756 486.211C200.213 484.492 183.671 480.991 167.162 475.359C122.275 460.044 73.877 433.821 31.6097 359.962C28.9507 355.316 26.3128 350.424 23.7123 345.168C21.6325 340.964 19.573 336.557 17.5498 331.844C10.895 316.342 -4.61274 276.659 -1.37541 234.299ZM239.52 487.5C238.5 487.532 238.241 481.035 239.214 479.686C240.685 477.647 242.889 479.326 244.439 479.229C250.878 478.827 257.315 478.23 263.75 477.422C281.396 475.206 299.028 471.423 316.621 465.596C360.257 451.146 407.17 429.116 448.305 361.431C450.923 357.124 453.519 352.554 456.079 347.641C463.86 332.713 483.362 293.085 481.107 243.821C480.917 239.669 482.182 237.181 482.748 240.744C483.468 245.28 483.176 254.736 482.977 259.768C482.342 275.884 479.867 289.512 477.257 300.518C468.987 335.399 457.377 355.623 446.744 372.51C412.184 427.397 374.649 449.524 338.156 465.425C305.425 479.686 272.445 486.484 239.52 487.5Z" fill="#401C02"/>
</g>
<g filter="url(#filter1_f_862_12449)">
<path d="M-1.37541 234.299C-1.11353 230.872 0.0141891 230.529 0.343108 234.009C0.708543 237.875 -0.00182796 245.647 0.169198 250.335C0.622042 262.748 2.5249 273.542 4.48654 282.321C10.808 310.613 19.5622 328.843 27.7273 344.289C54.5668 395.061 83.9672 420.771 112.648 440.147C154.69 468.55 197.073 477.584 239.491 479.5C240.561 479.549 240.739 486.518 239.686 487.425C237.788 489.062 235.437 487.438 233.495 487.37C227.915 487.174 222.336 486.791 216.756 486.211C200.213 484.492 183.671 480.991 167.162 475.359C122.275 460.044 73.877 433.821 31.6097 359.962C28.9507 355.316 26.3128 350.424 23.7123 345.168C21.6325 340.964 19.573 336.557 17.5498 331.844C10.895 316.342 -4.61274 276.659 -1.37541 234.299ZM239.52 487.5C238.5 487.532 238.241 481.035 239.214 479.686C240.685 477.647 242.889 479.326 244.439 479.229C250.878 478.827 257.315 478.23 263.75 477.422C281.396 475.206 299.028 471.423 316.621 465.596C360.257 451.146 407.17 429.116 448.305 361.431C450.923 357.124 453.519 352.554 456.079 347.641C463.86 332.713 483.362 293.085 481.107 243.821C480.917 239.669 482.182 237.181 482.748 240.744C483.468 245.28 483.176 254.736 482.977 259.768C482.342 275.884 479.867 289.512 477.257 300.518C468.987 335.399 457.377 355.623 446.744 372.51C412.184 427.397 374.649 449.524 338.156 465.425C305.425 479.686 272.445 486.484 239.52 487.5Z" fill="#401C02"/>
</g>
</g>
<path d="M173.88 251.38C187.069 251.38 197.76 235.343 197.76 215.56C197.76 195.777 187.069 179.74 173.88 179.74C160.691 179.74 150 195.777 150 215.56C150 235.343 160.691 251.38 173.88 251.38Z" fill="url(#paint4_radial_862_12449)"/>
<path d="M173.88 251.38C187.069 251.38 197.76 235.343 197.76 215.56C197.76 195.777 187.069 179.74 173.88 179.74C160.691 179.74 150 195.777 150 215.56C150 235.343 160.691 251.38 173.88 251.38Z" stroke="url(#paint5_linear_862_12449)" stroke-width="2" stroke-miterlimit="10"/>
<path d="M307.67 251.38C320.859 251.38 331.55 235.343 331.55 215.56C331.55 195.777 320.859 179.74 307.67 179.74C294.481 179.74 283.79 195.777 283.79 215.56C283.79 235.343 294.481 251.38 307.67 251.38Z" fill="url(#paint6_radial_862_12449)"/>
<path d="M307.67 251.38C320.859 251.38 331.55 235.343 331.55 215.56C331.55 195.777 320.859 179.74 307.67 179.74C294.481 179.74 283.79 195.777 283.79 215.56C283.79 235.343 294.481 251.38 307.67 251.38Z" stroke="url(#paint7_linear_862_12449)" stroke-width="2" stroke-miterlimit="10"/>
<path d="M306.907 347.159C307.269 346.876 307.711 346.715 308.171 346.699C308.63 346.682 309.083 346.811 309.464 347.068C309.846 347.324 310.137 347.694 310.295 348.125C310.454 348.557 310.472 349.027 310.347 349.469C302.577 379.109 274.347 401.069 240.717 401.069C207.087 401.069 178.817 379.069 171.077 349.439C170.956 348.997 170.978 348.527 171.138 348.098C171.299 347.668 171.59 347.299 171.972 347.044C172.353 346.789 172.804 346.66 173.263 346.675C173.721 346.69 174.164 346.849 174.527 347.129C191.257 359.929 214.737 367.899 240.717 367.899C266.697 367.899 290.157 359.929 306.907 347.159Z" fill="url(#paint8_radial_862_12449)"/>
<path d="M306.907 347.159C307.269 346.876 307.711 346.715 308.171 346.699C308.63 346.682 309.083 346.811 309.464 347.068C309.846 347.324 310.137 347.694 310.295 348.125C310.454 348.557 310.472 349.027 310.347 349.469C302.577 379.109 274.347 401.069 240.717 401.069C207.087 401.069 178.817 379.069 171.077 349.439C170.956 348.997 170.978 348.527 171.138 348.098C171.299 347.668 171.59 347.299 171.972 347.044C172.353 346.789 172.804 346.66 173.263 346.675C173.721 346.69 174.164 346.849 174.527 347.129C191.257 359.929 214.737 367.899 240.717 367.899C266.697 367.899 290.157 359.929 306.907 347.159Z" stroke="url(#paint9_linear_862_12449)" stroke-width="2.5" stroke-miterlimit="10"/>
<mask id="mask1_862_12449" style="mask-type:alpha" maskUnits="userSpaceOnUse" x="0" y="0" width="483" height="483">
<path d="M241.18 482.36C374.38 482.36 482.36 374.38 482.36 241.18C482.36 107.98 374.38 0 241.18 0C107.98 0 0 107.98 0 241.18C0 374.38 107.98 482.36 241.18 482.36Z" fill="url(#paint10_radial_862_12449)"/>
</mask>
<g mask="url(#mask1_862_12449)">
<g style="mix-blend-mode:multiply" filter="url(#filter2_f_862_12449)">
<path d="M114.002 401.445C113.595 370.514 168.484 286 168.484 286C168.484 286 225.583 368.997 226 399.928C226.016 414.662 220.226 428.809 209.884 439.304C199.543 449.798 185.482 455.795 170.75 455.995C156.018 456.194 141.801 450.581 131.179 440.37C120.556 430.159 114.385 416.174 114.002 401.445Z" fill="#743C1C" fill-opacity="0.7"/>
</g>
</g>
<path d="M100.002 382.75C99.5724 350.13 157.462 261 157.462 261C157.462 261 217.682 348.53 218.122 381.15C218.139 396.689 212.033 411.609 201.126 422.676C190.219 433.744 175.39 440.068 159.852 440.279C144.315 440.489 129.32 434.569 118.118 423.801C106.915 413.033 100.406 398.284 100.002 382.75Z" fill="url(#paint11_linear_862_12449)"/>
<mask id="mask2_862_12449" style="mask-type:alpha" maskUnits="userSpaceOnUse" x="100" y="261" width="119" height="180">
<path d="M100.002 382.75C99.5724 350.13 157.462 261 157.462 261C157.462 261 217.682 348.53 218.122 381.15C218.139 396.689 212.033 411.609 201.126 422.676C190.219 433.744 175.39 440.068 159.852 440.279C144.315 440.489 129.32 434.569 118.118 423.801C106.915 413.033 100.406 398.284 100.002 382.75Z" fill="url(#paint12_linear_862_12449)"/>
</mask>
<g mask="url(#mask2_862_12449)">
<g filter="url(#filter3_f_862_12449)">
<path d="M156.998 449.01C85.497 449.01 77.5005 374.51 98.0002 356.51C98.0002 373.01 106 427.01 156.998 427.01C201.5 427.01 222.5 381.01 220 356.51C245 374.01 228.5 449.01 156.998 449.01Z" fill="#7CD3FF"/>
</g>
</g>
<g filter="url(#filter4_f_862_12449)">
<path d="M135.001 369.314C134.826 350.21 158.35 298.01 158.35 298.01C158.35 298.01 182.821 349.273 183 368.377C183.007 377.478 180.525 386.215 176.093 392.697C171.661 399.179 165.635 402.883 159.322 403.007C153.008 403.13 146.915 399.663 142.362 393.356C137.81 387.049 135.165 378.412 135.001 369.314Z" fill="white"/>
</g>
<defs>
<filter id="filter0_f_862_12449" x="-26.8145" y="206.559" width="535.021" height="306.595" filterUnits="userSpaceOnUse" color-interpolation-filters="sRGB">
<feFlood flood-opacity="0" result="BackgroundImageFix"/>
<feBlend mode="normal" in="SourceGraphic" in2="BackgroundImageFix" result="shape"/>
<feGaussianBlur stdDeviation="12.5" result="effect1_foregroundBlur_862_12449"/>
</filter>
<filter id="filter1_f_862_12449" x="-41.8145" y="191.559" width="565.021" height="336.595" filterUnits="userSpaceOnUse" color-interpolation-filters="sRGB">
<feFlood flood-opacity="0" result="BackgroundImageFix"/>
<feBlend mode="normal" in="SourceGraphic" in2="BackgroundImageFix" result="shape"/>
<feGaussianBlur stdDeviation="20" result="effect1_foregroundBlur_862_12449"/>
</filter>
<filter id="filter2_f_862_12449" x="79" y="251" width="182" height="240" filterUnits="userSpaceOnUse" color-interpolation-filters="sRGB">
<feFlood flood-opacity="0" result="BackgroundImageFix"/>
<feBlend mode="normal" in="SourceGraphic" in2="BackgroundImageFix" result="shape"/>
<feGaussianBlur stdDeviation="17.5" result="effect1_foregroundBlur_862_12449"/>
</filter>
<filter id="filter3_f_862_12449" x="72.1885" y="340.51" width="174.763" height="124.5" filterUnits="userSpaceOnUse" color-interpolation-filters="sRGB">
<feFlood flood-opacity="0" result="BackgroundImageFix"/>
<feBlend mode="normal" in="SourceGraphic" in2="BackgroundImageFix" result="shape"/>
<feGaussianBlur stdDeviation="8" result="effect1_foregroundBlur_862_12449"/>
</filter>
<filter id="filter4_f_862_12449" x="95" y="258.01" width="128" height="185" filterUnits="userSpaceOnUse" color-interpolation-filters="sRGB">
<feFlood flood-opacity="0" result="BackgroundImageFix"/>
<feBlend mode="normal" in="SourceGraphic" in2="BackgroundImageFix" result="shape"/>
<feGaussianBlur stdDeviation="20" result="effect1_foregroundBlur_862_12449"/>
</filter>
<radialGradient id="paint0_radial_862_12449" cx="0" cy="0" r="1" gradientUnits="userSpaceOnUse" gradientTransform="translate(241 -4.53898e-06) rotate(90) scale(482)">
<stop stop-color="#FFDE43"/>
<stop offset="1" stop-color="#FFBC00"/>
</radialGradient>
<radialGradient id="paint1_radial_862_12449" cx="0" cy="0" r="1" gradientUnits="userSpaceOnUse" gradientTransform="translate(241 64.5) rotate(90) scale(417.5)">
<stop stop-color="white" stop-opacity="0.5"/>
<stop offset="0.782278"/>
</radialGradient>
<radialGradient id="paint2_radial_862_12449" cx="0" cy="0" r="1" gradientUnits="userSpaceOnUse" gradientTransform="translate(241 64.5) rotate(90) scale(417.5)">
<stop stop-color="white" stop-opacity="0.5"/>
<stop offset="0.782278"/>
</radialGradient>
<radialGradient id="paint3_radial_862_12449" cx="0" cy="0" r="1" gradientUnits="userSpaceOnUse" gradientTransform="translate(241 -52.5) rotate(90) scale(534.5 722.835)">
<stop offset="0.0922635" stop-color="white"/>
<stop offset="0.670207" stop-color="white" stop-opacity="0"/>
</radialGradient>
<radialGradient id="paint4_radial_862_12449" cx="0" cy="0" r="1" gradientUnits="userSpaceOnUse" gradientTransform="translate(173.847 215.536) scale(30.4412 35.8821)">
<stop stop-color="#743C1C"/>
<stop offset="1" stop-color="#401C02"/>
</radialGradient>
<linearGradient id="paint5_linear_862_12449" x1="173.88" y1="253.396" x2="173.88" y2="177.435" gradientUnits="userSpaceOnUse">
<stop stop-color="#FFDE43"/>
<stop offset="0.22" stop-color="#FED93F"/>
<stop offset="0.51" stop-color="#FCC934"/>
<stop offset="0.82" stop-color="#F9AF21"/>
<stop offset="1" stop-color="#F79D14"/>
</linearGradient>
<radialGradient id="paint6_radial_862_12449" cx="0" cy="0" r="1" gradientUnits="userSpaceOnUse" gradientTransform="translate(307.637 215.536) scale(30.4412 35.8821)">
<stop stop-color="#743C1C"/>
<stop offset="1" stop-color="#401C02"/>
</radialGradient>
<linearGradient id="paint7_linear_862_12449" x1="307.67" y1="253.396" x2="307.67" y2="177.435" gradientUnits="userSpaceOnUse">
<stop stop-color="#FFDE43"/>
<stop offset="0.22" stop-color="#FED93F"/>
<stop offset="0.51" stop-color="#FCC934"/>
<stop offset="0.82" stop-color="#F9AF21"/>
<stop offset="1" stop-color="#F79D14"/>
</linearGradient>
<radialGradient id="paint8_radial_862_12449" cx="0" cy="0" r="1" gradientUnits="userSpaceOnUse" gradientTransform="translate(240.714 373.762) scale(52.6221 54.9424)">
<stop stop-color="#743C1C"/>
<stop offset="1" stop-color="#401C02"/>
</radialGradient>
<linearGradient id="paint9_linear_862_12449" x1="240.714" y1="402.6" x2="240.714" y2="344.923" gradientUnits="userSpaceOnUse">
<stop offset="0.265625" stop-color="#FFDE43"/>
<stop offset="1" stop-color="#F79D14"/>
</linearGradient>
<radialGradient id="paint10_radial_862_12449" cx="0" cy="0" r="1" gradientUnits="userSpaceOnUse" gradientTransform="translate(241 -4.53898e-06) rotate(90) scale(482)">
<stop stop-color="#FFDE43"/>
<stop offset="1" stop-color="#FFBC00"/>
</radialGradient>
<linearGradient id="paint11_linear_862_12449" x1="164.288" y1="451.455" x2="162.488" y2="271.445" gradientUnits="userSpaceOnUse">
<stop offset="0.0736292" stop-color="#0048FF"/>
<stop offset="0.223403" stop-color="#006DFF"/>
<stop offset="0.403627" stop-color="#0090FE"/>
<stop offset="0.535088" stop-color="#00ACFE"/>
<stop offset="0.65" stop-color="#00BFFE"/>
<stop offset="0.82" stop-color="#00CBFE"/>
<stop offset="1" stop-color="#00CFFE"/>
</linearGradient>
<linearGradient id="paint12_linear_862_12449" x1="164.288" y1="451.455" x2="162.488" y2="271.445" gradientUnits="userSpaceOnUse">
<stop stop-color="#0048FF"/>
<stop offset="0.14" stop-color="#006DFF"/>
<stop offset="0.31" stop-color="#0090FE"/>
<stop offset="0.48" stop-color="#00ACFE"/>
<stop offset="0.65" stop-color="#00BFFE"/>
<stop offset="0.82" stop-color="#00CBFE"/>
<stop offset="1" stop-color="#00CFFE"/>
</linearGradient>
</defs>
</svg>
