<svg width="585" height="493" viewBox="0 0 585 493" fill="none" xmlns="http://www.w3.org/2000/svg">
<path d="M0.0158023 7.47002C2.6558 45.77 17.7558 115.04 89.5058 149.99L165.856 63.99C165.856 63.99 56.0158 58.61 12.5158 2.69002C11.5938 1.51 10.3176 0.656795 8.87476 0.255723C7.43194 -0.145349 5.89852 -0.0731405 4.49977 0.461741C3.10103 0.996623 1.91068 1.96598 1.1036 3.22742C0.29652 4.48885 -0.0847491 5.97586 0.0158023 7.47002Z" fill="url(#paint0_linear_862_12578)"/>
<path d="M584.305 7.47008C581.685 45.7701 566.585 115.04 494.835 149.99L418.485 63.9901C418.485 63.9901 528.355 58.6101 571.825 2.69008C572.75 1.51897 574.025 0.673966 575.463 0.278351C576.902 -0.117263 578.43 -0.0427883 579.823 0.49091C581.217 1.02461 582.403 1.9896 583.209 3.24511C584.016 4.50061 584.4 5.98092 584.305 7.47008Z" fill="url(#paint1_linear_862_12578)"/>
<path d="M292.18 492.54C425.38 492.54 533.36 384.56 533.36 251.36C533.36 118.16 425.38 10.1802 292.18 10.1802C158.98 10.1802 51 118.16 51 251.36C51 384.56 158.98 492.54 292.18 492.54Z" fill="url(#paint2_linear_862_12578)"/>
<g style="mix-blend-mode:soft-light">
<path d="M292.18 492.63C425.38 492.63 533.36 384.65 533.36 251.45C533.36 118.25 425.38 10.27 292.18 10.27C158.98 10.27 51 118.25 51 251.45C51 384.65 158.98 492.63 292.18 492.63Z" fill="url(#paint3_radial_862_12578)"/>
</g>
<g style="mix-blend-mode:soft-light">
<path d="M292.18 492.54C425.38 492.54 533.36 384.56 533.36 251.36C533.36 118.16 425.38 10.1802 292.18 10.1802C158.98 10.1802 51 118.16 51 251.36C51 384.56 158.98 492.54 292.18 492.54Z" fill="url(#paint4_linear_862_12578)"/>
</g>
<g style="mix-blend-mode:overlay">
<path d="M292.18 492.63C425.38 492.63 533.36 384.65 533.36 251.45C533.36 118.25 425.38 10.27 292.18 10.27C158.98 10.27 51 118.25 51 251.45C51 384.65 158.98 492.63 292.18 492.63Z" fill="url(#paint5_radial_862_12578)" fill-opacity="0.7"/>
</g>
<mask id="mask0_862_12578" style="mask-type:alpha" maskUnits="userSpaceOnUse" x="51" y="10" width="483" height="483">
<path d="M292.18 492.63C425.38 492.63 533.36 384.65 533.36 251.45C533.36 118.25 425.38 10.27 292.18 10.27C158.98 10.27 51 118.25 51 251.45C51 384.65 158.98 492.63 292.18 492.63Z" fill="white"/>
</mask>
<g mask="url(#mask0_862_12578)">
<g filter="url(#filter0_f_862_12578)">
<path d="M49.6241 244.569C49.886 241.142 51.0137 240.799 51.3426 244.278C51.7081 248.144 50.9977 255.916 51.1687 260.605C51.6216 273.018 53.5244 283.811 55.486 292.59C61.8075 320.882 70.5617 339.113 78.7268 354.558C105.566 405.331 134.967 431.04 163.648 450.417C205.689 478.819 248.072 487.854 290.49 489.77C291.56 489.818 291.738 496.788 290.686 497.695C288.788 499.331 286.436 497.707 284.494 497.639C278.915 497.444 273.335 497.061 267.756 496.481C251.213 494.762 234.67 491.261 218.162 485.628C173.275 470.314 124.877 444.091 82.6092 370.232C79.9502 365.586 77.3124 360.694 74.7118 355.437C72.6321 351.233 70.5726 346.826 68.5493 342.113C61.8946 326.612 46.3868 286.928 49.6241 244.569ZM290.52 497.77C289.499 497.801 289.241 491.304 290.214 489.955C291.684 487.917 293.888 489.596 295.439 489.499C301.877 489.096 308.314 488.499 314.75 487.691C332.395 485.475 350.028 481.692 367.621 475.866C411.257 461.415 458.17 439.385 499.305 371.701C501.923 367.393 504.518 362.823 507.079 357.911C514.86 342.982 534.361 303.354 532.107 254.091C531.917 249.938 533.181 247.451 533.747 251.013C534.467 255.549 534.175 265.006 533.977 270.038C533.341 286.153 530.866 299.782 528.257 310.788C519.987 345.669 508.376 365.893 497.744 382.78C463.184 437.667 425.648 459.794 389.155 475.694C356.424 489.956 323.444 496.754 290.52 497.77Z" fill="#3A0044"/>
</g>
<g filter="url(#filter1_f_862_12578)">
<path d="M49.6241 244.569C49.886 241.142 51.0137 240.799 51.3426 244.278C51.7081 248.144 50.9977 255.916 51.1687 260.605C51.6216 273.018 53.5244 283.811 55.486 292.59C61.8075 320.882 70.5617 339.113 78.7268 354.558C105.566 405.331 134.967 431.04 163.648 450.417C205.689 478.819 248.072 487.854 290.49 489.77C291.56 489.818 291.738 496.788 290.686 497.695C288.788 499.331 286.436 497.707 284.494 497.639C278.915 497.444 273.335 497.061 267.756 496.481C251.213 494.762 234.67 491.261 218.162 485.628C173.275 470.314 124.877 444.091 82.6092 370.232C79.9502 365.586 77.3124 360.694 74.7118 355.437C72.6321 351.233 70.5726 346.826 68.5493 342.113C61.8946 326.612 46.3868 286.928 49.6241 244.569ZM290.52 497.77C289.499 497.801 289.241 491.304 290.214 489.955C291.684 487.917 293.888 489.596 295.439 489.499C301.877 489.096 308.314 488.499 314.75 487.691C332.395 485.475 350.028 481.692 367.621 475.866C411.257 461.415 458.17 439.385 499.305 371.701C501.923 367.393 504.518 362.823 507.079 357.911C514.86 342.982 534.361 303.354 532.107 254.091C531.917 249.938 533.181 247.451 533.747 251.013C534.467 255.549 534.175 265.006 533.977 270.038C533.341 286.153 530.866 299.782 528.257 310.788C519.987 345.669 508.376 365.893 497.744 382.78C463.184 437.667 425.648 459.794 389.155 475.694C356.424 489.956 323.444 496.754 290.52 497.77Z" fill="#3A0044"/>
</g>
</g>
<path d="M384.229 343.59C386.559 342.25 389.739 343.87 388.999 346C378.229 376.93 339.139 399.85 292.559 399.85C245.979 399.85 206.829 376.91 196.109 345.99C195.369 343.86 198.559 342.24 200.879 343.58C224.059 356.94 256.579 365.26 292.559 365.26C328.539 365.26 361.039 356.91 384.229 343.59Z" fill="url(#paint6_radial_862_12578)"/>
<path d="M384.229 343.59C386.559 342.25 389.739 343.87 388.999 346C378.229 376.93 339.139 399.85 292.559 399.85C245.979 399.85 206.829 376.91 196.109 345.99C195.369 343.86 198.559 342.24 200.879 343.58C224.059 356.94 256.579 365.26 292.559 365.26C328.539 365.26 361.039 356.91 384.229 343.59Z" stroke="url(#paint7_linear_862_12578)" stroke-width="2.5" stroke-miterlimit="10"/>
<path d="M224.559 296.38C240.559 296.38 253.529 279.578 253.529 258.85C253.529 238.123 240.559 221.32 224.559 221.32C208.559 221.32 195.589 238.123 195.589 258.85C195.589 279.578 208.559 296.38 224.559 296.38Z" fill="url(#paint8_radial_862_12578)"/>
<path d="M224.559 296.38C240.559 296.38 253.529 279.578 253.529 258.85C253.529 238.123 240.559 221.32 224.559 221.32C208.559 221.32 195.589 238.123 195.589 258.85C195.589 279.578 208.559 296.38 224.559 296.38Z" stroke="url(#paint9_radial_862_12578)" stroke-width="2" stroke-miterlimit="10"/>
<path d="M260.529 239.9C259.749 240.421 258.811 240.651 257.879 240.55C256.947 240.45 256.08 240.025 255.429 239.35L255.009 238.92C254.119 238 253.209 237.09 252.299 236.18C251.389 235.27 250.529 234.44 249.629 233.58C248.729 232.72 247.889 231.99 246.989 231.13C246.089 230.27 245.279 229.58 244.419 228.82C243.559 228.06 242.739 227.37 241.879 226.65C241.019 225.93 240.229 225.28 239.399 224.65C238.569 224.02 237.779 223.37 236.959 222.74L234.569 220.95C233.789 220.4 233.009 219.84 232.209 219.3C231.409 218.76 230.689 218.3 229.909 217.76C229.129 217.22 228.409 216.76 227.649 216.33C226.889 215.9 226.189 215.45 225.439 215.01C224.689 214.57 224.009 214.19 223.279 213.8C222.549 213.41 221.869 213.05 221.169 212.69L219.089 211.69L217.089 210.77C216.439 210.49 215.779 210.22 215.089 209.95C214.399 209.68 213.819 209.45 213.169 209.22C212.519 208.99 211.919 208.78 211.289 208.57C210.659 208.36 210.059 208.17 209.449 208C208.839 207.83 208.269 207.65 207.669 207.5C207.069 207.35 206.519 207.21 205.929 207.08C205.339 206.95 204.809 206.83 204.249 206.72C203.689 206.61 203.149 206.52 202.609 206.43L201.019 206.19C200.499 206.13 200.019 206.07 199.479 206.03C198.939 205.99 198.479 205.94 197.979 205.9L196.539 205.82H195.149H193.799H192.499L191.299 205.89L190.089 206.01L188.919 206.14L188.409 206.22C182.269 207.08 179.569 204.84 178.479 201.98C176.779 197.51 179.799 192.66 184.479 191.65C220.739 183.78 247.479 213.11 261.599 234.4C262.176 235.274 262.388 236.34 262.188 237.369C261.988 238.397 261.392 239.306 260.529 239.9Z" fill="#331842"/>
<path d="M359.729 296.38C375.728 296.38 388.699 279.578 388.699 258.85C388.699 238.123 375.728 221.32 359.729 221.32C343.729 221.32 330.759 238.123 330.759 258.85C330.759 279.578 343.729 296.38 359.729 296.38Z" fill="url(#paint10_radial_862_12578)"/>
<path d="M359.729 296.38C375.728 296.38 388.699 279.578 388.699 258.85C388.699 238.123 375.728 221.32 359.729 221.32C343.729 221.32 330.759 238.123 330.759 258.85C330.759 279.578 343.729 296.38 359.729 296.38Z" stroke="url(#paint11_radial_862_12578)" stroke-width="2" stroke-miterlimit="10"/>
<path d="M323.759 239.9C324.539 240.421 325.477 240.651 326.409 240.55C327.341 240.45 328.208 240.025 328.859 239.35L329.279 238.92C330.169 238 331.079 237.09 331.989 236.18L334.659 233.58C335.519 232.75 336.399 231.94 337.289 231.13C338.179 230.32 338.999 229.58 339.859 228.82C340.719 228.06 341.539 227.37 342.399 226.65C343.259 225.93 344.049 225.28 344.879 224.65C345.709 224.02 346.499 223.37 347.319 222.74L349.709 220.95C350.489 220.4 351.269 219.84 352.069 219.3C352.869 218.76 353.589 218.3 354.369 217.76C355.149 217.22 355.869 216.76 356.629 216.33C357.389 215.9 358.089 215.45 358.839 215.01C359.589 214.57 360.269 214.19 360.999 213.8C361.729 213.41 362.409 213.05 363.109 212.69L365.189 211.69L367.189 210.77C367.839 210.49 368.499 210.22 369.189 209.95C369.879 209.68 370.459 209.45 371.109 209.22C371.759 208.99 372.359 208.78 372.989 208.57C373.619 208.36 374.219 208.17 374.829 208C375.439 207.83 376.009 207.65 376.609 207.5C377.209 207.35 377.759 207.21 378.349 207.08C378.939 206.95 379.469 206.83 380.029 206.72C380.589 206.61 381.129 206.52 381.669 206.43L383.259 206.19C383.779 206.13 384.259 206.07 384.799 206.03C385.339 205.99 385.799 205.94 386.299 205.9L387.739 205.82H389.129H390.479H391.779L392.979 205.89L394.189 206.01L395.359 206.14L395.869 206.22C402.009 207.08 404.709 204.84 405.799 201.98C407.499 197.51 404.479 192.66 399.799 191.65C363.539 183.78 336.799 213.11 322.679 234.4C322.102 235.275 321.893 236.342 322.095 237.371C322.296 238.399 322.894 239.308 323.759 239.9Z" fill="#331842"/>
<defs>
<filter id="filter0_f_862_12578" x="24.1851" y="216.828" width="535.022" height="306.595" filterUnits="userSpaceOnUse" color-interpolation-filters="sRGB">
<feFlood flood-opacity="0" result="BackgroundImageFix"/>
<feBlend mode="normal" in="SourceGraphic" in2="BackgroundImageFix" result="shape"/>
<feGaussianBlur stdDeviation="12.5" result="effect1_foregroundBlur_862_12578"/>
</filter>
<filter id="filter1_f_862_12578" x="9.18506" y="201.828" width="565.022" height="336.595" filterUnits="userSpaceOnUse" color-interpolation-filters="sRGB">
<feFlood flood-opacity="0" result="BackgroundImageFix"/>
<feBlend mode="normal" in="SourceGraphic" in2="BackgroundImageFix" result="shape"/>
<feGaussianBlur stdDeviation="20" result="effect1_foregroundBlur_862_12578"/>
</filter>
<linearGradient id="paint0_linear_862_12578" x1="39.1952" y1="-19.6472" x2="125.24" y2="129.357" gradientUnits="userSpaceOnUse">
<stop stop-color="#AF4FF7"/>
<stop offset="0.526042" stop-color="#A233FF"/>
<stop offset="1" stop-color="#43008F"/>
</linearGradient>
<linearGradient id="paint1_linear_862_12578" x1="457.675" y1="-19.6157" x2="543.702" y2="129.365" gradientUnits="userSpaceOnUse">
<stop stop-color="#AF4FF7"/>
<stop offset="0.526042" stop-color="#A233FF"/>
<stop offset="1" stop-color="#43008F"/>
</linearGradient>
<linearGradient id="paint2_linear_862_12578" x1="292.17" y1="493" x2="292.17" y2="10.0005" gradientUnits="userSpaceOnUse">
<stop stop-color="#A05AFF"/>
<stop offset="0.486542" stop-color="#A456FF"/>
<stop offset="0.768116" stop-color="#B14BFF"/>
<stop offset="1" stop-color="#C33AFF"/>
</linearGradient>
<radialGradient id="paint3_radial_862_12578" cx="0" cy="0" r="1" gradientUnits="userSpaceOnUse" gradientTransform="translate(292 74.77) rotate(90) scale(417.5)">
<stop stop-color="white" stop-opacity="0.5"/>
<stop offset="0.782278"/>
</radialGradient>
<linearGradient id="paint4_linear_862_12578" x1="292.17" y1="493" x2="292.17" y2="10.0005" gradientUnits="userSpaceOnUse">
<stop stop-color="#A05AFF"/>
<stop offset="0.401042" stop-color="#A456FF"/>
<stop offset="0.768116" stop-color="#B14BFF" stop-opacity="0"/>
<stop offset="1" stop-color="#C33AFF" stop-opacity="0"/>
</linearGradient>
<radialGradient id="paint5_radial_862_12578" cx="0" cy="0" r="1" gradientUnits="userSpaceOnUse" gradientTransform="translate(292 -42.23) rotate(90) scale(534.5 722.835)">
<stop offset="0.0922635" stop-color="white"/>
<stop offset="0.670207" stop-color="white" stop-opacity="0"/>
</radialGradient>
<radialGradient id="paint6_radial_862_12578" cx="0" cy="0" r="1" gradientUnits="userSpaceOnUse" gradientTransform="translate(292.443 371.102) scale(123.083 28.4284)">
<stop stop-color="#490082"/>
<stop offset="1" stop-color="#321040"/>
</radialGradient>
<linearGradient id="paint7_linear_862_12578" x1="292.41" y1="334.77" x2="292.41" y2="420.77" gradientUnits="userSpaceOnUse">
<stop stop-color="#38036B"/>
<stop offset="1" stop-color="#B06CF4"/>
</linearGradient>
<radialGradient id="paint8_radial_862_12578" cx="0" cy="0" r="1" gradientUnits="userSpaceOnUse" gradientTransform="translate(224.525 258.362) scale(36.9297 37.5951)">
<stop stop-color="#490082"/>
<stop offset="1" stop-color="#321040"/>
</radialGradient>
<radialGradient id="paint9_radial_862_12578" cx="0" cy="0" r="1" gradientUnits="userSpaceOnUse" gradientTransform="translate(224.559 258.85) scale(34.52 34.52)">
<stop stop-color="#B66EFF"/>
<stop offset="0.27" stop-color="#B46AFF"/>
<stop offset="0.56" stop-color="#AF5DFF"/>
<stop offset="0.84" stop-color="#A649FF"/>
<stop offset="1" stop-color="#9F3AFF"/>
</radialGradient>
<radialGradient id="paint10_radial_862_12578" cx="0" cy="0" r="1" gradientUnits="userSpaceOnUse" gradientTransform="translate(359.695 258.362) scale(36.9297 37.5951)">
<stop stop-color="#490082"/>
<stop offset="1" stop-color="#321040"/>
</radialGradient>
<radialGradient id="paint11_radial_862_12578" cx="0" cy="0" r="1" gradientUnits="userSpaceOnUse" gradientTransform="translate(359.729 258.85) scale(34.52 34.52)">
<stop stop-color="#B66EFF"/>
<stop offset="0.27" stop-color="#B46AFF"/>
<stop offset="0.56" stop-color="#AF5DFF"/>
<stop offset="0.84" stop-color="#A649FF"/>
<stop offset="1" stop-color="#9F3AFF"/>
</radialGradient>
</defs>
</svg>
