<svg width="615" height="591" viewBox="0 0 615 591" fill="none" xmlns="http://www.w3.org/2000/svg">
<path d="M357.806 528.346C486.467 493.871 562.821 361.623 528.346 232.962C493.871 104.3 361.623 27.9471 232.962 62.4218C104.301 96.8965 27.9473 229.144 62.422 357.806C96.8967 486.467 229.145 562.82 357.806 528.346Z" fill="url(#paint0_radial_862_12570)"/>
<g style="mix-blend-mode:soft-light">
<path d="M357.806 528.346C486.467 493.871 562.821 361.623 528.346 232.962C493.871 104.3 361.623 27.9471 232.962 62.4218C104.301 96.8965 27.9473 229.144 62.422 357.806C96.8967 486.467 229.145 562.82 357.806 528.346Z" fill="url(#paint1_radial_862_12570)"/>
</g>
<g style="mix-blend-mode:soft-light">
<path d="M357.806 528.346C486.467 493.871 562.821 361.623 528.346 232.962C493.871 104.3 361.623 27.9471 232.962 62.4218C104.301 96.8965 27.9473 229.144 62.422 357.806C96.8967 486.467 229.145 562.82 357.806 528.346Z" fill="url(#paint2_radial_862_12570)"/>
</g>
<g style="mix-blend-mode:overlay">
<path d="M357.806 528.346C486.467 493.871 562.821 361.623 528.346 232.962C493.871 104.3 361.623 27.9471 232.962 62.4218C104.301 96.8965 27.9473 229.144 62.422 357.806C96.8967 486.467 229.145 562.82 357.806 528.346Z" fill="url(#paint3_radial_862_12570)" fill-opacity="0.7"/>
</g>
<mask id="mask0_862_12570" style="mask-type:alpha" maskUnits="userSpaceOnUse" x="54" y="54" width="483" height="483">
<path d="M357.806 528.346C486.467 493.871 562.821 361.623 528.346 232.962C493.871 104.3 361.623 27.9471 232.962 62.4218C104.301 96.8965 27.9473 229.144 62.422 357.806C96.8967 486.467 229.145 562.82 357.806 528.346Z" fill="white"/>
</mask>
<g mask="url(#mask0_862_12570)">
<g filter="url(#filter0_f_862_12570)">
<path d="M59.3121 351.515C58.6781 348.137 59.6786 347.514 60.8969 350.79C62.2505 354.429 63.5759 362.12 64.9545 366.605C68.6047 378.478 73.2362 388.411 77.4032 396.383C90.8317 422.075 104.006 437.418 115.891 450.225C154.956 492.32 190.009 509.545 222.728 520.837C270.688 537.391 313.965 535.148 355.434 526.021C356.48 525.79 358.456 532.476 357.674 533.625C356.264 535.696 353.572 534.737 351.679 535.174C346.239 536.429 340.75 537.503 335.211 538.387C318.786 541.008 301.902 541.908 284.498 540.74C237.176 537.565 183.64 524.762 123.697 464.359C119.926 460.559 116.112 456.517 112.24 452.113C109.143 448.59 106.013 444.867 102.839 440.838C92.3987 427.587 67.1485 393.269 59.3121 351.515ZM357.533 533.74C356.555 534.035 354.624 527.826 355.214 526.271C356.107 523.921 358.671 524.973 360.143 524.478C366.258 522.423 372.322 520.18 378.329 517.734C394.799 511.026 410.852 502.808 426.337 492.627C464.747 467.375 504.359 433.954 526.575 357.929C527.988 353.091 529.313 348.005 530.514 342.597C534.166 326.163 542.747 282.838 527.819 235.837C526.561 231.875 527.139 229.145 528.607 232.44C530.477 236.635 532.642 245.845 533.753 250.757C537.31 266.487 538.447 280.292 538.775 291.599C539.814 327.431 533.834 349.971 527.934 369.035C508.758 430.996 478.228 462.084 447.094 486.888C419.169 509.135 389.072 524.237 357.533 533.74Z" fill="#401C02"/>
</g>
<g filter="url(#filter1_f_862_12570)">
<path d="M59.3121 351.515C58.6781 348.137 59.6786 347.514 60.8969 350.79C62.2505 354.429 63.5759 362.12 64.9545 366.605C68.6047 378.478 73.2362 388.411 77.4032 396.383C90.8317 422.075 104.006 437.418 115.891 450.225C154.956 492.32 190.009 509.545 222.728 520.837C270.688 537.391 313.965 535.148 355.434 526.021C356.48 525.79 358.456 532.476 357.674 533.625C356.264 535.696 353.572 534.737 351.679 535.174C346.239 536.429 340.75 537.503 335.211 538.387C318.786 541.008 301.902 541.908 284.498 540.74C237.176 537.565 183.64 524.762 123.697 464.359C119.926 460.559 116.112 456.517 112.24 452.113C109.143 448.59 106.013 444.867 102.839 440.838C92.3987 427.587 67.1485 393.269 59.3121 351.515ZM357.533 533.74C356.555 534.035 354.624 527.826 355.214 526.271C356.107 523.921 358.671 524.973 360.143 524.478C366.258 522.423 372.322 520.18 378.329 517.734C394.799 511.026 410.852 502.808 426.337 492.627C464.747 467.375 504.359 433.954 526.575 357.929C527.988 353.091 529.313 348.005 530.514 342.597C534.166 326.163 542.747 282.838 527.819 235.837C526.561 231.875 527.139 229.145 528.607 232.44C530.477 236.635 532.642 245.845 533.753 250.757C537.31 266.487 538.447 280.292 538.775 291.599C539.814 327.431 533.834 349.971 527.934 369.035C508.758 430.996 478.228 462.084 447.094 486.888C419.169 509.135 389.072 524.237 357.533 533.74Z" fill="#401C02"/>
</g>
</g>
<g opacity="0.85">
<g filter="url(#filter2_f_862_12570)">
<circle cx="449.61" cy="276.649" r="50" transform="rotate(-15 449.61 276.649)" fill="#E66200"/>
</g>
<g filter="url(#filter3_f_862_12570)">
<circle cx="153.071" cy="356.106" r="50" transform="rotate(-15 153.071 356.106)" fill="#E66200"/>
</g>
</g>
<path d="M444.074 314.16C410.325 417.289 255.945 458.707 175.253 386.098C174.542 385.46 174.076 384.594 173.937 383.649C173.798 382.704 173.994 381.74 174.491 380.925C174.988 380.109 175.755 379.493 176.658 379.184C177.562 378.874 178.545 378.891 179.438 379.23C268.55 413.059 376.759 384.168 437.006 310.308C437.607 309.562 438.451 309.05 439.391 308.863C440.331 308.675 441.307 308.824 442.149 309.283C442.99 309.741 443.644 310.481 443.996 311.372C444.348 312.264 444.375 313.251 444.074 314.16Z" fill="url(#paint4_radial_862_12570)"/>
<path d="M444.074 314.16C410.325 417.289 255.945 458.707 175.253 386.098C174.542 385.46 174.076 384.594 173.937 383.649C173.798 382.704 173.994 381.74 174.491 380.925C174.988 380.109 175.755 379.493 176.658 379.184C177.562 378.874 178.545 378.891 179.438 379.23C268.55 413.059 376.759 384.168 437.006 310.308C437.607 309.562 438.451 309.05 439.391 308.863C440.331 308.675 441.307 308.824 442.149 309.283C442.99 309.741 443.644 310.481 443.996 311.372C444.348 312.264 444.375 313.251 444.074 314.16V314.16Z" stroke="url(#paint5_linear_862_12570)" stroke-width="2.5" stroke-miterlimit="10"/>
<path d="M253.115 273.891C255.413 282.325 256.342 291.074 255.865 299.802C255.836 300.782 255.497 301.727 254.898 302.503C254.299 303.279 253.47 303.846 252.53 304.123C251.44 304.378 250.295 304.238 249.3 303.727C248.304 303.217 247.522 302.369 247.093 301.335C239.343 284.311 224.21 274.12 210.378 277.827C196.546 281.533 188.535 297.925 190.335 316.543C190.481 317.653 190.228 318.778 189.621 319.718C189.013 320.658 188.092 321.352 187.021 321.676C186.068 321.905 185.067 321.828 184.161 321.455C183.255 321.083 182.489 320.435 181.972 319.602C177.195 312.281 173.625 304.24 171.398 295.787C162.792 263.67 174.112 232.736 196.676 226.69C219.24 220.644 244.51 241.774 253.115 273.891Z" fill="url(#paint6_radial_862_12570)"/>
<path d="M253.115 273.891C255.413 282.325 256.342 291.074 255.865 299.802C255.836 300.782 255.497 301.727 254.898 302.503C254.299 303.279 253.47 303.846 252.53 304.123C251.44 304.378 250.295 304.238 249.3 303.727C248.304 303.217 247.522 302.369 247.093 301.335C239.343 284.311 224.21 274.12 210.378 277.827C196.546 281.533 188.535 297.925 190.335 316.543C190.481 317.653 190.228 318.778 189.621 319.718C189.013 320.658 188.092 321.352 187.021 321.676V321.676C186.068 321.905 185.067 321.828 184.161 321.455C183.255 321.083 182.489 320.435 181.972 319.602C177.195 312.281 173.625 304.24 171.398 295.787C162.792 263.67 174.112 232.736 196.676 226.69C219.24 220.644 244.51 241.774 253.115 273.891Z" stroke="url(#paint7_linear_862_12570)" stroke-width="2" stroke-miterlimit="10"/>
<path d="M402.235 233.934C404.548 242.362 405.492 251.106 405.033 259.833C405.004 260.812 404.665 261.758 404.066 262.534C403.467 263.31 402.638 263.876 401.698 264.153C400.608 264.408 399.463 264.268 398.468 263.758C397.472 263.247 396.69 262.399 396.261 261.365C388.511 244.341 373.378 234.151 359.546 237.857C345.714 241.563 337.703 257.955 339.503 276.573C339.649 277.683 339.396 278.808 338.789 279.748C338.181 280.689 337.26 281.382 336.189 281.706C335.236 281.937 334.235 281.86 333.328 281.488C332.421 281.115 331.656 280.466 331.14 279.632C326.363 272.311 322.793 264.271 320.566 255.818C311.96 223.7 323.28 192.767 345.844 186.721C368.408 180.675 393.629 201.817 402.235 233.934Z" fill="url(#paint8_radial_862_12570)"/>
<path d="M402.235 233.934C404.548 242.362 405.492 251.106 405.033 259.833C405.004 260.812 404.665 261.758 404.066 262.534C403.467 263.31 402.638 263.876 401.698 264.153C400.608 264.408 399.463 264.268 398.468 263.758C397.472 263.247 396.69 262.399 396.261 261.365C388.511 244.341 373.378 234.151 359.546 237.857C345.714 241.563 337.703 257.955 339.503 276.573C339.649 277.683 339.396 278.808 338.789 279.748C338.181 280.689 337.26 281.382 336.189 281.706C335.236 281.937 334.235 281.86 333.328 281.488C332.421 281.115 331.656 280.466 331.14 279.632C326.363 272.311 322.793 264.271 320.566 255.818C311.96 223.7 323.28 192.767 345.844 186.721C368.408 180.675 393.629 201.817 402.235 233.934Z" fill="url(#paint9_radial_862_12570)"/>
<path d="M402.235 233.934C404.548 242.362 405.492 251.106 405.033 259.833C405.004 260.812 404.665 261.758 404.066 262.534C403.467 263.31 402.638 263.876 401.698 264.153C400.608 264.408 399.463 264.268 398.468 263.758C397.472 263.247 396.69 262.399 396.261 261.365C388.511 244.341 373.378 234.151 359.546 237.857C345.714 241.563 337.703 257.955 339.503 276.573C339.649 277.683 339.396 278.808 338.789 279.748C338.181 280.689 337.26 281.382 336.189 281.706V281.706C335.236 281.937 334.235 281.86 333.328 281.488C332.421 281.115 331.656 280.466 331.14 279.632C326.363 272.311 322.793 264.271 320.566 255.818C311.96 223.7 323.28 192.767 345.844 186.721C368.408 180.675 393.629 201.817 402.235 233.934Z" stroke="url(#paint10_linear_862_12570)" stroke-width="2" stroke-miterlimit="10"/>
<mask id="mask1_862_12570" style="mask-type:alpha" maskUnits="userSpaceOnUse" x="38" y="38" width="483" height="483">
<path d="M321.481 517.116C452.657 493.986 540.246 368.896 517.116 237.72C493.986 106.543 368.896 18.9544 237.72 42.0844C106.544 65.2143 18.9546 190.304 42.0846 321.481C65.2145 452.657 190.305 540.246 321.481 517.116Z" fill="url(#paint11_radial_862_12570)"/>
</mask>
<g mask="url(#mask1_862_12570)">
<g filter="url(#filter4_f_862_12570)">
<path d="M613.358 261.951C610.258 245.951 601.358 230.951 589.358 219.651C580.258 211.051 569.458 204.351 558.058 199.451C552.258 196.951 546.358 194.851 540.258 193.151C534.258 191.451 527.458 190.951 521.858 188.051C510.158 181.951 505.958 162.351 505.158 150.451C504.358 139.051 505.258 125.051 495.358 119.351C488.558 115.351 479.458 117.951 474.058 123.651C468.658 129.351 466.358 137.251 465.458 145.051C463.758 159.851 466.358 175.251 472.958 188.651C477.458 197.851 493.458 216.551 488.658 227.551C485.958 233.651 472.658 236.251 467.058 238.651C458.058 242.551 449.358 246.951 441.258 252.551C431.058 259.651 420.358 270.351 417.258 282.751C415.458 290.051 417.458 297.751 422.158 303.451C426.058 308.351 435.658 316.151 441.958 311.251C434.758 316.851 433.258 328.351 438.758 335.651C444.258 342.951 455.758 344.651 463.058 339.251C455.758 344.851 454.258 356.551 459.758 363.851C465.258 371.151 476.958 372.851 484.358 367.351C469.858 378.151 455.458 388.851 440.958 399.651C435.158 403.951 429.058 408.751 427.158 415.651C424.458 425.051 432.258 435.951 441.958 436.551C449.558 437.051 456.358 432.251 462.558 427.751C491.758 406.351 520.958 384.851 550.158 363.451C564.958 352.551 579.858 341.551 591.958 327.751C604.058 313.951 613.258 296.851 614.558 278.551C614.758 273.051 614.358 267.451 613.358 261.951Z" fill="#BF5703"/>
</g>
</g>
<path d="M613.175 261.524C610.075 245.524 601.175 230.524 589.175 219.224C580.075 210.624 569.275 203.924 557.875 199.024C552.075 196.524 546.175 194.424 540.075 192.724C534.075 191.024 527.275 190.524 521.675 187.624C509.975 181.524 505.775 161.924 504.975 150.024C504.175 138.624 505.075 124.624 495.175 118.924C488.375 114.924 479.275 117.524 473.875 123.224C468.475 128.924 466.175 136.824 465.275 144.624C463.575 159.424 466.175 174.824 472.775 188.224C477.275 197.424 493.275 216.124 488.475 227.124C485.775 233.224 472.475 235.824 466.875 238.224C457.875 242.124 449.175 246.524 441.075 252.124C430.875 259.224 420.175 269.924 417.075 282.324C415.275 289.624 417.275 297.324 421.975 303.024C425.875 307.924 435.475 315.724 441.775 310.824C434.575 316.424 433.075 327.924 438.575 335.224C444.075 342.524 455.575 344.224 462.875 338.824C455.575 344.424 454.075 356.124 459.575 363.424C465.075 370.724 476.775 372.424 484.175 366.924C469.675 377.724 455.275 388.424 440.775 399.224C434.975 403.524 428.875 408.324 426.975 415.224C424.275 424.624 432.075 435.524 441.775 436.124C449.375 436.624 456.175 431.824 462.375 427.324C491.575 405.924 520.775 384.424 549.975 363.024C564.775 352.124 579.675 341.124 591.775 327.324C603.875 313.524 613.075 296.424 614.375 278.124C614.575 272.624 614.175 267.024 613.175 261.524Z" fill="url(#paint12_linear_862_12570)"/>
<mask id="mask2_862_12570" style="mask-type:alpha" maskUnits="userSpaceOnUse" x="416" y="116" width="199" height="321">
<path d="M613.175 261.524C610.075 245.524 601.175 230.524 589.175 219.224C580.075 210.624 569.275 203.924 557.875 199.024C552.075 196.524 546.175 194.424 540.075 192.724C534.075 191.024 527.275 190.524 521.675 187.624C509.975 181.524 505.775 161.924 504.975 150.024C504.175 138.624 505.075 124.624 495.175 118.924C488.375 114.924 479.275 117.524 473.875 123.224C468.475 128.924 466.175 136.824 465.275 144.624C463.575 159.424 466.175 174.824 472.775 188.224C477.275 197.424 493.275 216.124 488.475 227.124C485.775 233.224 472.475 235.824 466.875 238.224C457.875 242.124 449.175 246.524 441.075 252.124C430.875 259.224 420.175 269.924 417.075 282.324C415.275 289.624 417.275 297.324 421.975 303.024C425.875 307.924 435.475 315.724 441.775 310.824C434.575 316.424 433.075 327.924 438.575 335.224C444.075 342.524 455.575 344.224 462.875 338.824C455.575 344.424 454.075 356.124 459.575 363.424C465.075 370.724 476.775 372.424 484.175 366.924C469.675 377.724 455.275 388.424 440.775 399.224C434.975 403.524 428.875 408.324 426.975 415.224C424.275 424.624 432.075 435.524 441.775 436.124C449.375 436.624 456.175 431.824 462.375 427.324C491.575 405.924 520.775 384.424 549.975 363.024C564.775 352.124 579.675 341.124 591.775 327.324C603.875 313.524 613.075 296.424 614.375 278.124C614.575 272.624 614.175 267.024 613.175 261.524Z" fill="white"/>
</mask>
<g mask="url(#mask2_862_12570)">
<g filter="url(#filter5_f_862_12570)">
<path d="M495.175 118.924C488.375 114.924 479.275 117.524 473.875 123.224C468.475 128.924 466.175 136.824 465.275 144.624C463.575 159.424 466.175 174.824 472.775 188.224C477.275 197.424 493.275 216.124 488.475 227.124C485.775 233.224 472.475 235.824 466.875 238.224C457.875 242.124 449.175 246.524 441.075 252.124C430.875 259.224 420.175 269.924 417.075 282.324C415.275 289.624 417.275 297.324 421.975 303.024C425.875 307.924 435.475 315.724 441.775 310.824C434.575 316.424 433.075 327.924 438.575 335.224C444.075 342.524 455.575 344.224 462.875 338.824C455.575 344.424 454.075 356.124 459.575 363.424C465.075 370.724 476.775 372.424 484.175 366.924C469.675 377.724 455.275 388.424 440.775 399.224C434.975 403.524 428.875 408.324 426.975 415.224C424.275 424.624 432.075 435.524 441.775 436.124C449.375 436.624 456.175 431.824 462.375 427.324" stroke="#FF8500" stroke-width="3" stroke-miterlimit="10"/>
</g>
</g>
<mask id="mask3_862_12570" style="mask-type:alpha" maskUnits="userSpaceOnUse" x="416" y="116" width="199" height="321">
<path d="M613.175 261.524C610.075 245.524 601.175 230.524 589.175 219.224C580.075 210.624 569.275 203.924 557.875 199.024C552.075 196.524 546.175 194.424 540.075 192.724C534.075 191.024 527.275 190.524 521.675 187.624C509.975 181.524 505.775 161.924 504.975 150.024C504.175 138.624 505.075 124.624 495.175 118.924C488.375 114.924 479.275 117.524 473.875 123.224C468.475 128.924 466.175 136.824 465.275 144.624C463.575 159.424 466.175 174.824 472.775 188.224C477.275 197.424 493.275 216.124 488.475 227.124C485.775 233.224 472.475 235.824 466.875 238.224C457.875 242.124 449.175 246.524 441.075 252.124C430.875 259.224 420.175 269.924 417.075 282.324C415.275 289.624 417.275 297.324 421.975 303.024C425.875 307.924 435.475 315.724 441.775 310.824C434.575 316.424 433.075 327.924 438.575 335.224C444.075 342.524 455.575 344.224 462.875 338.824C455.575 344.424 454.075 356.124 459.575 363.424C465.075 370.724 476.775 372.424 484.175 366.924C469.675 377.724 455.275 388.424 440.775 399.224C434.975 403.524 428.875 408.324 426.975 415.224C424.275 424.624 432.075 435.524 441.775 436.124C449.375 436.624 456.175 431.824 462.375 427.324C491.575 405.924 520.775 384.424 549.975 363.024C564.775 352.124 579.675 341.124 591.775 327.324C603.875 313.524 613.075 296.424 614.375 278.124C614.575 272.624 614.175 267.024 613.175 261.524Z" fill="white"/>
</mask>
<g mask="url(#mask3_862_12570)">
<g filter="url(#filter6_f_862_12570)">
<path d="M495.175 118.924C493.875 118.224 492.575 117.824 491.175 117.524C489.775 117.224 488.375 117.224 486.975 117.324C484.175 117.624 481.475 118.524 479.075 119.924C474.175 122.724 470.975 127.524 469.075 132.724C467.175 137.924 466.475 143.524 466.275 149.124C466.075 154.724 466.475 160.324 467.475 165.824C468.475 171.324 470.075 176.724 472.175 181.824C472.675 183.124 473.275 184.424 473.875 185.624C474.175 186.224 474.475 186.924 474.775 187.524C475.075 188.124 475.375 188.724 475.775 189.324C477.175 191.724 478.775 194.024 480.375 196.424C483.475 201.224 486.675 206.124 489.175 211.524C490.375 214.224 491.475 217.224 491.875 220.424C492.075 222.024 492.175 223.724 491.775 225.524C491.575 226.424 491.375 227.224 491.075 228.124C490.975 228.524 490.675 229.024 490.375 229.424C490.175 229.924 489.875 230.224 489.575 230.624C488.975 231.424 488.275 231.924 487.675 232.524C486.975 233.024 486.375 233.624 485.675 234.024C484.275 234.924 482.875 235.524 481.475 236.224C478.675 237.424 475.875 238.424 473.175 239.324C471.875 239.824 470.475 240.224 469.275 240.724C468.175 241.124 466.775 241.824 465.575 242.324C462.975 243.524 460.475 244.724 457.975 246.024C448.075 251.124 438.675 257.224 431.175 265.124C429.275 267.124 427.575 269.124 426.075 271.324C424.575 273.524 423.175 275.824 422.175 278.124C421.875 278.724 421.675 279.324 421.475 279.924C421.275 280.524 420.975 281.124 420.875 281.724C420.675 282.324 420.475 282.924 420.375 283.524L420.175 284.424L419.975 285.324C419.675 287.724 419.775 290.124 420.375 292.524C420.975 294.924 421.975 297.124 423.375 299.224C424.075 300.224 424.775 301.224 425.675 302.124C426.475 303.024 427.475 303.924 428.475 304.724C430.375 306.324 432.575 307.724 434.675 308.524C435.675 308.824 436.675 309.024 437.475 309.024C438.275 308.924 438.875 308.724 439.575 308.224L443.775 313.624C440.975 315.724 439.175 319.224 438.675 322.924C438.175 326.624 438.975 330.424 441.075 333.224C443.175 336.024 446.675 337.924 450.375 338.524C454.075 339.124 457.975 338.324 460.875 336.324L464.775 341.524C461.875 343.724 459.975 347.224 459.475 351.024C458.975 354.824 459.775 358.824 461.975 361.724C464.175 364.724 467.775 366.624 471.575 367.224C475.375 367.824 479.475 367.124 482.475 364.924L485.775 369.324L459.975 388.024L446.975 397.124C442.675 400.224 438.175 403.124 434.475 406.624C432.575 408.324 430.975 410.224 429.775 412.324C429.175 413.424 428.675 414.524 428.275 415.624C428.175 416.224 427.975 416.824 427.875 417.324C427.875 417.924 427.675 418.524 427.775 419.124C427.675 424.024 430.175 428.924 434.075 432.024C436.075 433.624 438.375 434.724 440.875 435.124C443.375 435.524 445.975 435.324 448.475 434.624C453.475 433.224 457.975 430.224 462.375 427.224C458.175 430.524 453.875 433.724 448.775 435.624C446.175 436.524 443.475 436.924 440.675 436.624C437.875 436.324 435.175 435.224 432.975 433.524C428.475 430.224 425.375 424.924 425.175 419.024C425.075 418.324 425.275 417.624 425.275 416.824C425.375 416.124 425.575 415.424 425.675 414.624C426.075 413.224 426.575 411.924 427.175 410.624C428.475 408.124 430.275 405.824 432.175 403.924C434.175 401.924 436.275 400.224 438.375 398.524L444.675 393.624L457.275 383.924L482.575 364.524L485.875 368.924C481.575 372.224 475.975 373.324 470.875 372.624C465.675 371.924 460.675 369.424 457.275 365.024C453.975 360.624 452.775 355.024 453.475 349.824C454.175 344.624 456.675 339.424 461.075 336.024L464.975 341.224C460.575 344.524 454.875 345.624 449.675 344.824C444.475 344.024 439.375 341.424 435.975 337.024C432.575 332.624 431.475 326.924 432.175 321.724C432.875 316.524 435.375 311.324 439.775 307.924L443.975 313.324C442.275 314.624 440.175 315.424 438.175 315.524C436.075 315.624 434.275 315.224 432.575 314.724C429.275 313.524 426.575 311.724 424.175 309.724C422.975 308.724 421.875 307.624 420.775 306.424C419.675 305.224 418.675 303.924 417.775 302.624C415.975 299.924 414.675 296.924 413.875 293.724C413.075 290.524 412.875 287.224 413.375 283.924L413.575 282.724L413.875 281.524C414.075 280.724 414.275 280.024 414.575 279.224C414.775 278.424 415.075 277.724 415.375 277.024C415.675 276.324 415.975 275.624 416.275 274.824C418.875 269.124 422.575 264.224 426.675 259.924C430.775 255.624 435.375 251.824 440.275 248.524C445.175 245.224 450.275 242.424 455.475 239.824C458.075 238.524 460.675 237.324 463.375 236.124C464.675 235.524 465.975 234.924 467.475 234.424C468.875 233.924 470.275 233.524 471.675 233.024C474.375 232.124 476.975 231.324 479.475 230.324C480.675 229.824 481.875 229.224 482.875 228.624C483.475 228.324 483.875 227.924 484.375 227.624C484.775 227.224 485.175 226.924 485.475 226.524C485.675 226.324 485.775 226.124 485.875 226.024C485.975 225.824 486.075 225.724 486.175 225.424C486.375 224.924 486.575 224.424 486.675 223.924C486.875 222.924 486.875 221.724 486.775 220.524C486.575 218.124 485.675 215.524 484.675 213.124C482.575 208.124 479.675 203.324 476.675 198.524C475.175 196.124 473.675 193.724 472.175 191.124C471.775 190.424 471.475 189.824 471.175 189.124C470.875 188.424 470.575 187.824 470.275 187.124C469.675 185.824 469.175 184.424 468.575 183.024C466.575 177.524 465.075 171.824 464.275 166.024C463.475 160.224 463.275 154.424 463.775 148.624C464.275 142.824 465.275 137.024 467.475 131.624C468.075 130.224 468.675 128.924 469.475 127.724C470.175 126.424 471.075 125.224 471.975 124.124C473.875 121.824 476.175 119.924 478.775 118.624C481.375 117.324 484.275 116.524 487.175 116.424C488.675 116.424 490.075 116.524 491.475 116.924C492.675 117.624 493.975 118.224 495.175 118.924Z" fill="#FF4200"/>
</g>
</g>
<mask id="mask4_862_12570" style="mask-type:alpha" maskUnits="userSpaceOnUse" x="416" y="116" width="199" height="321">
<path d="M613.175 261.524C610.075 245.524 601.175 230.524 589.175 219.224C580.075 210.624 569.275 203.924 557.875 199.024C552.075 196.524 546.175 194.424 540.075 192.724C534.075 191.024 527.275 190.524 521.675 187.624C509.975 181.524 505.775 161.924 504.975 150.024C504.175 138.624 505.075 124.624 495.175 118.924C488.375 114.924 479.275 117.524 473.875 123.224C468.475 128.924 466.175 136.824 465.275 144.624C463.575 159.424 466.175 174.824 472.775 188.224C477.275 197.424 493.275 216.124 488.475 227.124C485.775 233.224 472.475 235.824 466.875 238.224C457.875 242.124 449.175 246.524 441.075 252.124C430.875 259.224 420.175 269.924 417.075 282.324C415.275 289.624 417.275 297.324 421.975 303.024C425.875 307.924 435.475 315.724 441.775 310.824C434.575 316.424 433.075 327.924 438.575 335.224C444.075 342.524 455.575 344.224 462.875 338.824C455.575 344.424 454.075 356.124 459.575 363.424C465.075 370.724 476.775 372.424 484.175 366.924C469.675 377.724 455.275 388.424 440.775 399.224C434.975 403.524 428.875 408.324 426.975 415.224C424.275 424.624 432.075 435.524 441.775 436.124C449.375 436.624 456.175 431.824 462.375 427.324C491.575 405.924 520.775 384.424 549.975 363.024C564.775 352.124 579.675 341.124 591.775 327.324C603.875 313.524 613.075 296.424 614.375 278.124C614.575 272.624 614.175 267.024 613.175 261.524Z" fill="white"/>
</mask>
<g mask="url(#mask4_862_12570)">
<g filter="url(#filter7_f_862_12570)">
<path d="M417.075 282.424C416.175 286.124 416.375 289.924 417.375 293.524C418.375 297.124 420.175 300.524 422.575 303.324C425.075 306.124 427.975 308.524 431.275 310.224C432.875 311.024 434.675 311.724 436.475 311.824C438.275 312.024 440.075 311.524 441.375 310.424L442.075 311.324C438.675 314.024 436.575 318.224 436.075 322.524C435.575 326.824 436.575 331.424 439.175 334.824C441.775 338.224 445.875 340.324 450.175 341.024C454.475 341.624 458.975 340.724 462.375 338.224L463.475 339.624C460.075 342.224 457.975 346.424 457.375 350.724C456.775 355.024 457.775 359.524 460.375 362.924C462.975 366.324 467.075 368.524 471.375 369.124C475.675 369.724 480.175 368.824 483.575 366.324L484.775 367.924L459.175 386.824L446.375 396.324C442.175 399.524 437.675 402.424 433.875 406.024C431.975 407.824 430.275 409.824 429.075 412.024C428.475 413.124 427.975 414.324 427.575 415.524C427.475 416.124 427.275 416.724 427.175 417.424C427.175 418.024 426.975 418.724 427.075 419.324C427.075 424.424 429.775 429.424 433.775 432.624C435.775 434.224 438.275 435.324 440.775 435.724C443.375 436.124 445.975 435.824 448.475 435.124C453.575 433.624 457.975 430.524 462.275 427.524C458.075 430.724 453.675 433.924 448.575 435.624C446.075 436.424 443.275 436.824 440.575 436.524C437.875 436.224 435.275 435.124 433.075 433.424C428.775 430.124 425.875 424.924 425.675 419.424C425.575 418.724 425.775 418.024 425.775 417.324C425.875 416.624 426.075 415.924 426.175 415.324C426.575 414.024 427.075 412.724 427.675 411.524C428.975 409.124 430.675 407.024 432.675 405.124C434.575 403.224 436.675 401.524 438.775 399.924L445.175 395.124L457.975 385.324L483.475 366.224L484.675 367.824C480.775 370.724 475.675 371.724 470.975 371.024C466.275 370.324 461.675 367.924 458.775 364.024C455.875 360.124 454.775 355.124 455.475 350.424C456.075 345.724 458.475 341.124 462.275 338.224L463.375 339.624C459.475 342.424 454.475 343.424 449.875 342.724C445.275 342.024 440.775 339.624 437.875 335.824C434.975 332.024 434.075 327.024 434.675 322.424C435.275 317.824 437.575 313.324 441.375 310.524L442.075 311.424C440.475 312.724 438.375 313.224 436.375 313.024C434.375 312.824 432.575 312.124 430.875 311.224C427.475 309.324 424.575 306.824 422.175 303.924C419.775 300.924 417.975 297.524 417.075 293.824C416.075 289.924 416.075 286.024 417.075 282.424Z" fill="#FFF761"/>
</g>
</g>
<mask id="mask5_862_12570" style="mask-type:alpha" maskUnits="userSpaceOnUse" x="416" y="116" width="199" height="321">
<path d="M613.175 261.524C610.075 245.524 601.175 230.524 589.175 219.224C580.075 210.624 569.275 203.924 557.875 199.024C552.075 196.524 546.175 194.424 540.075 192.724C534.075 191.024 527.275 190.524 521.675 187.624C509.975 181.524 505.775 161.924 504.975 150.024C504.175 138.624 505.075 124.624 495.175 118.924C488.375 114.924 479.275 117.524 473.875 123.224C468.475 128.924 466.175 136.824 465.275 144.624C463.575 159.424 466.175 174.824 472.775 188.224C477.275 197.424 493.275 216.124 488.475 227.124C485.775 233.224 472.475 235.824 466.875 238.224C457.875 242.124 449.175 246.524 441.075 252.124C430.875 259.224 420.175 269.924 417.075 282.324C415.275 289.624 417.275 297.324 421.975 303.024C425.875 307.924 435.475 315.724 441.775 310.824C434.575 316.424 433.075 327.924 438.575 335.224C444.075 342.524 455.575 344.224 462.875 338.824C455.575 344.424 454.075 356.124 459.575 363.424C465.075 370.724 476.775 372.424 484.175 366.924C469.675 377.724 455.275 388.424 440.775 399.224C434.975 403.524 428.875 408.324 426.975 415.224C424.275 424.624 432.075 435.524 441.775 436.124C449.375 436.624 456.175 431.824 462.375 427.324C491.575 405.924 520.775 384.424 549.975 363.024C564.775 352.124 579.675 341.124 591.775 327.324C603.875 313.524 613.075 296.424 614.375 278.124C614.575 272.624 614.175 267.024 613.175 261.524Z" fill="white"/>
</mask>
<g mask="url(#mask5_862_12570)">
<g filter="url(#filter8_f_862_12570)">
<path d="M589.174 219.224C576.374 208.624 561.374 201.224 545.774 196.524C543.774 195.924 541.874 195.424 539.874 194.824C537.974 194.324 535.974 193.924 533.974 193.524C529.974 192.724 525.674 192.024 521.474 190.124L520.674 189.724L519.874 189.324L518.374 188.424C517.874 188.124 517.474 187.724 516.974 187.324C516.574 186.924 516.074 186.624 515.674 186.224C514.874 185.424 513.974 184.624 513.374 183.724L512.374 182.324L511.474 180.924C509.074 177.224 507.374 173.124 505.974 169.024C504.674 164.924 503.874 160.724 503.274 156.524C502.974 154.424 502.774 152.324 502.574 150.124C502.474 148.024 502.374 145.924 502.274 143.824C502.074 139.724 501.974 135.624 501.174 131.824C500.774 129.924 500.174 128.124 499.374 126.424C498.974 125.524 498.474 124.824 498.074 124.024C497.474 123.324 496.974 122.624 496.274 122.024C493.674 119.524 489.974 118.424 486.174 118.724C482.374 119.024 478.674 120.624 475.674 123.124C472.674 125.624 470.374 129.124 468.774 132.824C467.074 136.524 466.074 140.524 465.274 144.624C465.474 140.524 466.074 136.324 467.474 132.324C468.774 128.324 470.974 124.424 474.074 121.324C477.274 118.224 481.374 116.124 485.874 115.524C488.074 115.224 490.474 115.324 492.774 115.924C493.874 116.224 494.974 116.624 496.074 117.224C496.574 117.524 497.074 117.824 497.574 118.124C497.674 118.324 497.974 118.424 498.174 118.624L498.874 119.224C499.774 119.924 500.574 120.824 501.274 121.724C501.974 122.724 502.674 123.624 503.174 124.624C504.274 126.624 504.974 128.824 505.474 130.924C506.474 135.224 506.774 139.524 507.074 143.624L507.474 149.824C507.674 151.824 507.874 153.824 508.174 155.824C508.774 159.824 509.674 163.724 510.874 167.524C512.074 171.324 513.574 175.024 515.674 178.224C517.774 181.424 520.374 184.224 523.674 185.724C527.074 187.424 530.974 188.224 535.074 189.124C537.074 189.624 539.174 190.024 541.274 190.724C543.274 191.324 545.274 192.024 547.274 192.724C555.174 195.524 562.874 199.124 570.074 203.424C576.874 207.924 583.474 213.124 589.174 219.224Z" fill="#FFFCBD"/>
</g>
</g>
<mask id="mask6_862_12570" style="mask-type:alpha" maskUnits="userSpaceOnUse" x="416" y="116" width="199" height="321">
<path d="M613.175 261.524C610.075 245.524 601.175 230.524 589.175 219.224C580.075 210.624 569.275 203.924 557.875 199.024C552.075 196.524 546.175 194.424 540.075 192.724C534.075 191.024 527.275 190.524 521.675 187.624C509.975 181.524 505.775 161.924 504.975 150.024C504.175 138.624 505.075 124.624 495.175 118.924C488.375 114.924 479.275 117.524 473.875 123.224C468.475 128.924 466.175 136.824 465.275 144.624C463.575 159.424 466.175 174.824 472.775 188.224C477.275 197.424 493.275 216.124 488.475 227.124C485.775 233.224 472.475 235.824 466.875 238.224C457.875 242.124 449.175 246.524 441.075 252.124C430.875 259.224 420.175 269.924 417.075 282.324C415.275 289.624 417.275 297.324 421.975 303.024C425.875 307.924 435.475 315.724 441.775 310.824C434.575 316.424 433.075 327.924 438.575 335.224C444.075 342.524 455.575 344.224 462.875 338.824C455.575 344.424 454.075 356.124 459.575 363.424C465.075 370.724 476.775 372.424 484.175 366.924C469.675 377.724 455.275 388.424 440.775 399.224C434.975 403.524 428.875 408.324 426.975 415.224C424.275 424.624 432.075 435.524 441.775 436.124C449.375 436.624 456.175 431.824 462.375 427.324C491.575 405.924 520.775 384.424 549.975 363.024C564.775 352.124 579.675 341.124 591.775 327.324C603.875 313.524 613.075 296.424 614.375 278.124C614.575 272.624 614.175 267.024 613.175 261.524Z" fill="white"/>
</mask>
<g mask="url(#mask6_862_12570)">
<mask id="mask7_862_12570" style="mask-type:alpha" maskUnits="userSpaceOnUse" x="416" y="116" width="199" height="321">
<path d="M613.175 261.524C610.075 245.524 601.175 230.524 589.175 219.224C580.075 210.624 569.275 203.924 557.875 199.024C552.075 196.524 546.175 194.424 540.075 192.724C534.075 191.024 527.275 190.524 521.675 187.624C509.975 181.524 505.775 161.924 504.975 150.024C504.175 138.624 505.075 124.624 495.175 118.924C488.375 114.924 479.275 117.524 473.875 123.224C468.475 128.924 466.175 136.824 465.275 144.624C463.575 159.424 466.175 174.824 472.775 188.224C477.275 197.424 493.275 216.124 488.475 227.124C485.775 233.224 472.475 235.824 466.875 238.224C457.875 242.124 449.175 246.524 441.075 252.124C430.875 259.224 420.175 269.924 417.075 282.324C415.275 289.624 417.275 297.324 421.975 303.024C425.875 307.924 435.475 315.724 441.775 310.824C434.575 316.424 433.075 327.924 438.575 335.224C444.075 342.524 455.575 344.224 462.875 338.824C455.575 344.424 454.075 356.124 459.575 363.424C465.075 370.724 476.775 372.424 484.175 366.924C469.675 377.724 455.275 388.424 440.775 399.224C434.975 403.524 428.875 408.324 426.975 415.224C424.275 424.624 432.075 435.524 441.775 436.124C449.375 436.624 456.175 431.824 462.375 427.324C491.575 405.924 520.775 384.424 549.975 363.024C564.775 352.124 579.675 341.124 591.775 327.324C603.875 313.524 613.075 296.424 614.375 278.124C614.575 272.624 614.175 267.024 613.175 261.524Z" fill="#ED5700"/>
</mask>
<g mask="url(#mask7_862_12570)">
<g filter="url(#filter9_f_862_12570)">
<path d="M488.475 227.124C488.275 227.724 488.175 228.324 487.775 228.924C487.575 229.224 487.475 229.524 487.275 229.724L486.675 230.524C486.275 231.024 485.775 231.424 485.375 231.924C484.875 232.324 484.375 232.724 483.875 233.224C481.875 234.824 479.575 236.024 477.375 237.224C475.175 238.324 472.875 239.324 470.775 240.324C470.275 240.524 469.775 240.824 469.275 241.024C468.775 241.324 468.375 241.524 467.875 241.824L464.775 243.524C456.475 248.124 448.475 252.824 441.175 258.324C439.375 259.724 437.575 261.124 435.875 262.624C434.175 264.124 432.575 265.624 430.975 267.224C427.875 270.424 425.075 273.924 422.875 277.624C421.775 279.524 420.875 281.524 420.075 283.524C419.375 285.424 418.875 287.524 418.875 289.724C418.575 294.124 419.675 298.724 421.875 303.124C418.075 300.024 415.175 295.424 413.975 290.224C413.375 287.624 413.275 284.824 413.675 282.024C413.775 281.324 413.875 280.724 414.075 280.024C414.175 279.324 414.375 278.724 414.575 278.124C414.775 277.524 414.875 276.824 415.175 276.224L415.875 274.324C417.775 269.424 420.675 264.924 423.975 260.924C427.275 256.924 431.075 253.524 435.075 250.424C443.175 244.224 452.275 239.824 461.475 236.424C462.575 236.024 463.775 235.624 464.975 235.224C465.475 235.024 466.275 234.824 466.875 234.624C467.475 234.424 468.175 234.324 468.775 234.124C471.175 233.524 473.575 233.124 475.875 232.624C478.175 232.124 480.475 231.624 482.675 230.824C483.175 230.624 483.775 230.424 484.275 230.224C484.775 229.924 485.375 229.724 485.775 229.424C486.775 228.824 487.675 228.124 488.475 227.124Z" fill="#FFFB69"/>
</g>
</g>
<path d="M613.175 261.524C610.075 245.524 601.175 230.524 589.175 219.224C580.075 210.624 569.275 203.924 557.875 199.024C552.075 196.524 546.175 194.424 540.075 192.724C534.075 191.024 527.275 190.524 521.675 187.624C509.975 181.524 505.775 161.924 504.975 150.024C504.175 138.624 505.075 124.624 495.175 118.924C488.375 114.924 479.275 117.524 473.875 123.224C468.475 128.924 466.175 136.824 465.275 144.624C463.575 159.424 466.175 174.824 472.775 188.224C477.275 197.424 493.275 216.124 488.475 227.124C485.775 233.224 472.475 235.824 466.875 238.224C457.875 242.124 449.175 246.524 441.075 252.124C430.875 259.224 420.175 269.924 417.075 282.324C415.275 289.624 417.275 297.324 421.975 303.024C425.875 307.924 435.475 315.724 441.775 310.824C434.575 316.424 433.075 327.924 438.575 335.224C444.075 342.524 455.575 344.224 462.875 338.824C455.575 344.424 454.075 356.124 459.575 363.424C465.075 370.724 476.775 372.424 484.175 366.924C469.675 377.724 455.275 388.424 440.775 399.224C434.975 403.524 428.875 408.324 426.975 415.224C424.275 424.624 432.075 435.524 441.775 436.124C449.375 436.624 456.175 431.824 462.375 427.324C491.575 405.924 520.775 384.424 549.975 363.024C564.775 352.124 579.675 341.124 591.775 327.324C603.875 313.524 613.075 296.424 614.375 278.124C614.575 272.624 614.175 267.024 613.175 261.524Z" fill="url(#paint13_linear_862_12570)"/>
</g>
<mask id="mask8_862_12570" style="mask-type:alpha" maskUnits="userSpaceOnUse" x="416" y="116" width="199" height="321">
<path d="M613.175 261.524C610.075 245.524 601.175 230.524 589.175 219.224C580.075 210.624 569.275 203.924 557.875 199.024C552.075 196.524 546.175 194.424 540.075 192.724C534.075 191.024 527.275 190.524 521.675 187.624C509.975 181.524 505.775 161.924 504.975 150.024C504.175 138.624 505.075 124.624 495.175 118.924C488.375 114.924 479.275 117.524 473.875 123.224C468.475 128.924 466.175 136.824 465.275 144.624C463.575 159.424 466.175 174.824 472.775 188.224C477.275 197.424 493.275 216.124 488.475 227.124C485.775 233.224 472.475 235.824 466.875 238.224C457.875 242.124 449.175 246.524 441.075 252.124C430.875 259.224 420.175 269.924 417.075 282.324C415.275 289.624 417.275 297.324 421.975 303.024C425.875 307.924 435.475 315.724 441.775 310.824C434.575 316.424 433.075 327.924 438.575 335.224C444.075 342.524 455.575 344.224 462.875 338.824C455.575 344.424 454.075 356.124 459.575 363.424C465.075 370.724 476.775 372.424 484.175 366.924C469.675 377.724 455.275 388.424 440.775 399.224C434.975 403.524 428.875 408.324 426.975 415.224C424.275 424.624 432.075 435.524 441.775 436.124C449.375 436.624 456.175 431.824 462.375 427.324C491.575 405.924 520.775 384.424 549.975 363.024C564.775 352.124 579.675 341.124 591.775 327.324C603.875 313.524 613.075 296.424 614.375 278.124C614.575 272.624 614.175 267.024 613.175 261.524Z" fill="white"/>
</mask>
<g mask="url(#mask8_862_12570)">
<g filter="url(#filter10_f_862_12570)">
<path d="M426.875 415.324C426.275 418.224 426.575 421.324 427.675 424.024C428.775 426.724 430.475 429.124 432.575 431.024C434.675 432.924 437.275 434.124 439.975 434.624C442.675 435.024 445.475 434.624 448.075 433.724C453.375 431.824 457.875 428.124 462.675 424.424C467.375 420.724 472.175 417.124 476.875 413.424C486.375 406.124 495.975 398.924 505.475 391.724L534.275 370.324C543.975 363.224 553.675 356.324 563.175 349.124C567.875 345.524 572.575 341.824 576.975 338.024C579.175 336.124 581.375 334.124 583.475 332.024C585.575 330.024 587.675 327.924 589.675 325.724C593.575 321.424 597.275 316.824 600.475 311.924C603.675 307.024 606.475 301.924 608.675 296.424C613.175 285.624 614.775 273.524 613.175 261.624C616.275 273.224 615.675 285.924 611.875 297.524C609.975 303.324 607.375 308.924 604.375 314.224C601.375 319.524 597.675 324.524 593.775 329.224C585.975 338.624 576.675 346.724 567.275 354.224C562.575 358.024 557.675 361.524 552.875 365.124L538.475 375.824L509.375 396.924C499.575 403.824 489.875 410.924 480.075 417.724C475.175 421.124 470.275 424.624 465.375 428.024C462.875 429.724 460.375 431.424 457.775 433.024C455.075 434.624 452.275 436.024 449.175 436.924C446.075 437.724 442.775 438.024 439.475 437.224C436.275 436.424 433.475 434.624 431.275 432.324C429.175 430.024 427.575 427.224 426.675 424.224C425.875 421.324 425.875 418.124 426.875 415.324Z" fill="#FF4324"/>
</g>
</g>
<defs>
<filter id="filter0_f_862_12570" x="34.1162" y="205.97" width="529.776" height="360.273" filterUnits="userSpaceOnUse" color-interpolation-filters="sRGB">
<feFlood flood-opacity="0" result="BackgroundImageFix"/>
<feBlend mode="normal" in="SourceGraphic" in2="BackgroundImageFix" result="shape"/>
<feGaussianBlur stdDeviation="12.5" result="effect1_foregroundBlur_862_12570"/>
</filter>
<filter id="filter1_f_862_12570" x="19.1162" y="190.97" width="559.776" height="390.273" filterUnits="userSpaceOnUse" color-interpolation-filters="sRGB">
<feFlood flood-opacity="0" result="BackgroundImageFix"/>
<feBlend mode="normal" in="SourceGraphic" in2="BackgroundImageFix" result="shape"/>
<feGaussianBlur stdDeviation="20" result="effect1_foregroundBlur_862_12570"/>
</filter>
<filter id="filter2_f_862_12570" x="339.598" y="166.637" width="220.025" height="220.025" filterUnits="userSpaceOnUse" color-interpolation-filters="sRGB">
<feFlood flood-opacity="0" result="BackgroundImageFix"/>
<feBlend mode="normal" in="SourceGraphic" in2="BackgroundImageFix" result="shape"/>
<feGaussianBlur stdDeviation="30" result="effect1_foregroundBlur_862_12570"/>
</filter>
<filter id="filter3_f_862_12570" x="43.0586" y="246.094" width="220.025" height="220.025" filterUnits="userSpaceOnUse" color-interpolation-filters="sRGB">
<feFlood flood-opacity="0" result="BackgroundImageFix"/>
<feBlend mode="normal" in="SourceGraphic" in2="BackgroundImageFix" result="shape"/>
<feGaussianBlur stdDeviation="30" result="effect1_foregroundBlur_862_12570"/>
</filter>
<filter id="filter4_f_862_12570" x="376.604" y="77.4209" width="278.005" height="399.166" filterUnits="userSpaceOnUse" color-interpolation-filters="sRGB">
<feFlood flood-opacity="0" result="BackgroundImageFix"/>
<feBlend mode="normal" in="SourceGraphic" in2="BackgroundImageFix" result="shape"/>
<feGaussianBlur stdDeviation="20" result="effect1_foregroundBlur_862_12570"/>
</filter>
<filter id="filter5_f_862_12570" x="402.92" y="103.489" width="105.016" height="346.17" filterUnits="userSpaceOnUse" color-interpolation-filters="sRGB">
<feFlood flood-opacity="0" result="BackgroundImageFix"/>
<feBlend mode="normal" in="SourceGraphic" in2="BackgroundImageFix" result="shape"/>
<feGaussianBlur stdDeviation="6" result="effect1_foregroundBlur_862_12570"/>
</filter>
<filter id="filter6_f_862_12570" x="393.103" y="96.4238" width="122.072" height="360.299" filterUnits="userSpaceOnUse" color-interpolation-filters="sRGB">
<feFlood flood-opacity="0" result="BackgroundImageFix"/>
<feBlend mode="normal" in="SourceGraphic" in2="BackgroundImageFix" result="shape"/>
<feGaussianBlur stdDeviation="10" result="effect1_foregroundBlur_862_12570"/>
</filter>
<filter id="filter7_f_862_12570" x="406.325" y="272.424" width="88.4502" height="174.199" filterUnits="userSpaceOnUse" color-interpolation-filters="sRGB">
<feFlood flood-opacity="0" result="BackgroundImageFix"/>
<feBlend mode="normal" in="SourceGraphic" in2="BackgroundImageFix" result="shape"/>
<feGaussianBlur stdDeviation="5" result="effect1_foregroundBlur_862_12570"/>
</filter>
<filter id="filter8_f_862_12570" x="459.274" y="109.36" width="135.9" height="115.864" filterUnits="userSpaceOnUse" color-interpolation-filters="sRGB">
<feFlood flood-opacity="0" result="BackgroundImageFix"/>
<feBlend mode="normal" in="SourceGraphic" in2="BackgroundImageFix" result="shape"/>
<feGaussianBlur stdDeviation="3" result="effect1_foregroundBlur_862_12570"/>
</filter>
<filter id="filter9_f_862_12570" x="401.435" y="215.124" width="99.04" height="100" filterUnits="userSpaceOnUse" color-interpolation-filters="sRGB">
<feFlood flood-opacity="0" result="BackgroundImageFix"/>
<feBlend mode="normal" in="SourceGraphic" in2="BackgroundImageFix" result="shape"/>
<feGaussianBlur stdDeviation="6" result="effect1_foregroundBlur_862_12570"/>
</filter>
<filter id="filter10_f_862_12570" x="406.098" y="241.624" width="229.063" height="216.07" filterUnits="userSpaceOnUse" color-interpolation-filters="sRGB">
<feFlood flood-opacity="0" result="BackgroundImageFix"/>
<feBlend mode="normal" in="SourceGraphic" in2="BackgroundImageFix" result="shape"/>
<feGaussianBlur stdDeviation="10" result="effect1_foregroundBlur_862_12570"/>
</filter>
<radialGradient id="paint0_radial_862_12570" cx="0" cy="0" r="1" gradientUnits="userSpaceOnUse" gradientTransform="translate(232.788 62.4684) rotate(75) scale(482)">
<stop stop-color="#FFDE43"/>
<stop offset="1" stop-color="#FFBC00"/>
</radialGradient>
<radialGradient id="paint1_radial_862_12570" cx="0" cy="0" r="1" gradientUnits="userSpaceOnUse" gradientTransform="translate(249.482 124.771) rotate(75) scale(417.5)">
<stop stop-color="white" stop-opacity="0.5"/>
<stop offset="0.782278"/>
</radialGradient>
<radialGradient id="paint2_radial_862_12570" cx="0" cy="0" r="1" gradientUnits="userSpaceOnUse" gradientTransform="translate(249.482 124.771) rotate(75) scale(417.5)">
<stop stop-color="white" stop-opacity="0.5"/>
<stop offset="0.782278"/>
</radialGradient>
<radialGradient id="paint3_radial_862_12570" cx="0" cy="0" r="1" gradientUnits="userSpaceOnUse" gradientTransform="translate(219.2 11.7572) rotate(75) scale(534.5 722.835)">
<stop offset="0.0922635" stop-color="white"/>
<stop offset="0.670207" stop-color="white" stop-opacity="0"/>
</radialGradient>
<radialGradient id="paint4_radial_862_12570" cx="0" cy="0" r="1" gradientUnits="userSpaceOnUse" gradientTransform="translate(317.632 379.85) rotate(-15) scale(105.531 75.3312)">
<stop stop-color="#743C1C"/>
<stop offset="1" stop-color="#401C02"/>
</radialGradient>
<linearGradient id="paint5_linear_862_12570" x1="327.865" y1="418.043" x2="307.398" y2="341.658" gradientUnits="userSpaceOnUse">
<stop offset="0.265625" stop-color="#FFDE43"/>
<stop offset="1" stop-color="#F79D14"/>
</linearGradient>
<radialGradient id="paint6_radial_862_12570" cx="0" cy="0" r="1" gradientUnits="userSpaceOnUse" gradientTransform="translate(208.161 269.781) rotate(-15) scale(53.9231 44.7024)">
<stop stop-color="#743C1C"/>
<stop offset="1" stop-color="#401C02"/>
</radialGradient>
<linearGradient id="paint7_linear_862_12570" x1="220.425" y1="315.325" x2="195.932" y2="223.916" gradientUnits="userSpaceOnUse">
<stop stop-color="#FFDE43"/>
<stop offset="0.22" stop-color="#FED93F"/>
<stop offset="0.51" stop-color="#FCC934"/>
<stop offset="0.82" stop-color="#F9AF21"/>
<stop offset="1" stop-color="#F79D14"/>
</linearGradient>
<radialGradient id="paint8_radial_862_12570" cx="0" cy="0" r="1" gradientUnits="userSpaceOnUse" gradientTransform="translate(63891.8 48948) rotate(-15) scale(3521.6 4051.82)">
<stop stop-color="#743C1C"/>
<stop offset="1" stop-color="#401C02"/>
</radialGradient>
<radialGradient id="paint9_radial_862_12570" cx="0" cy="0" r="1" gradientUnits="userSpaceOnUse" gradientTransform="translate(357.306 229.818) rotate(-15) scale(53.8917 44.7024)">
<stop stop-color="#743C1C"/>
<stop offset="1" stop-color="#401C02"/>
</radialGradient>
<linearGradient id="paint10_linear_862_12570" x1="369.57" y1="275.362" x2="345.077" y2="183.953" gradientUnits="userSpaceOnUse">
<stop stop-color="#FFDE43"/>
<stop offset="0.22" stop-color="#FED93F"/>
<stop offset="0.51" stop-color="#FCC934"/>
<stop offset="0.82" stop-color="#F9AF21"/>
<stop offset="1" stop-color="#F79D14"/>
</linearGradient>
<radialGradient id="paint11_radial_862_12570" cx="0" cy="0" r="1" gradientUnits="userSpaceOnUse" gradientTransform="translate(237.543 42.1156) rotate(80) scale(482)">
<stop stop-color="#FFDE43"/>
<stop offset="1" stop-color="#FFBC00"/>
</radialGradient>
<linearGradient id="paint12_linear_862_12570" x1="379.261" y1="379.058" x2="567.652" y2="190.667" gradientUnits="userSpaceOnUse">
<stop offset="0.0825904" stop-color="#E88B00"/>
<stop offset="0.1269" stop-color="#EA9206"/>
<stop offset="0.3512" stop-color="#F3B320"/>
<stop offset="0.5663" stop-color="#FACB34"/>
<stop offset="0.7664" stop-color="#FED93F"/>
<stop offset="0.9366" stop-color="#FFDE43"/>
</linearGradient>
<linearGradient id="paint13_linear_862_12570" x1="639.097" y1="276.62" x2="366.406" y2="276.62" gradientUnits="userSpaceOnUse">
<stop stop-color="#ED5700"/>
<stop offset="0.0354845" stop-color="#EE5F03" stop-opacity="0.9573"/>
<stop offset="0.2673" stop-color="#F58F15" stop-opacity="0.6785"/>
<stop offset="0.4717" stop-color="#FBB223" stop-opacity="0.4326"/>
<stop offset="0.6389" stop-color="#FEC72B" stop-opacity="0.2314"/>
<stop offset="0.7481" stop-color="#FFCF2E" stop-opacity="0.1"/>
</linearGradient>
</defs>
</svg>
