<svg width="544" height="523" viewBox="0 0 544 523" fill="none" xmlns="http://www.w3.org/2000/svg">
<path d="M282.18 491.915C415.38 491.915 523.36 383.935 523.36 250.735C523.36 117.535 415.38 9.55469 282.18 9.55469C148.98 9.55469 41 117.535 41 250.735C41 383.935 148.98 491.915 282.18 491.915Z" fill="url(#paint0_radial_862_12530)"/>
<g style="mix-blend-mode:soft-light">
<path d="M282.18 491.915C415.38 491.915 523.36 383.935 523.36 250.735C523.36 117.535 415.38 9.55469 282.18 9.55469C148.98 9.55469 41 117.535 41 250.735C41 383.935 148.98 491.915 282.18 491.915Z" fill="url(#paint1_radial_862_12530)"/>
</g>
<g style="mix-blend-mode:soft-light">
<path d="M282.18 491.915C415.38 491.915 523.36 383.935 523.36 250.735C523.36 117.535 415.38 9.55469 282.18 9.55469C148.98 9.55469 41 117.535 41 250.735C41 383.935 148.98 491.915 282.18 491.915Z" fill="url(#paint2_radial_862_12530)"/>
</g>
<g style="mix-blend-mode:overlay">
<path d="M282.18 491.915C415.38 491.915 523.36 383.935 523.36 250.735C523.36 117.535 415.38 9.55469 282.18 9.55469C148.98 9.55469 41 117.535 41 250.735C41 383.935 148.98 491.915 282.18 491.915Z" fill="url(#paint3_radial_862_12530)" fill-opacity="0.7"/>
</g>
<mask id="mask0_862_12530" style="mask-type:alpha" maskUnits="userSpaceOnUse" x="41" y="9" width="483" height="483">
<path d="M282.18 491.915C415.38 491.915 523.36 383.935 523.36 250.735C523.36 117.535 415.38 9.55469 282.18 9.55469C148.98 9.55469 41 117.535 41 250.735C41 383.935 148.98 491.915 282.18 491.915Z" fill="white"/>
</mask>
<g mask="url(#mask0_862_12530)">
<g filter="url(#filter0_f_862_12530)">
<path d="M39.6246 243.854C39.8865 240.427 41.0142 240.084 41.3431 243.563C41.7085 247.429 40.9982 255.202 41.1692 259.89C41.622 272.303 43.5249 283.096 45.4865 291.876C51.808 320.167 60.5622 338.398 68.7273 353.844C95.5668 404.616 124.967 430.326 153.648 449.702C195.69 478.104 238.073 487.139 280.491 489.055C281.561 489.104 281.739 496.073 280.686 496.98C278.788 498.616 276.437 496.992 274.495 496.924C268.915 496.729 263.336 496.346 257.756 495.766C241.213 494.047 224.671 490.546 208.162 484.913C163.275 469.599 114.877 443.376 72.6097 369.517C69.9507 364.871 67.3128 359.979 64.7123 354.722C62.6325 350.518 60.573 346.112 58.5498 341.399C51.895 325.897 36.3873 286.213 39.6246 243.854ZM280.52 497.055C279.5 497.086 279.241 490.589 280.214 489.241C281.685 487.202 283.889 488.881 285.439 488.784C291.878 488.382 298.315 487.784 304.75 486.976C322.396 484.761 340.028 480.977 357.621 475.151C401.257 460.701 448.17 438.67 489.305 370.986C491.923 366.678 494.519 362.109 497.079 357.196C504.86 342.267 524.362 302.639 522.107 253.376C521.917 249.223 523.182 246.736 523.748 250.298C524.468 254.834 524.176 264.291 523.977 269.323C523.342 285.438 520.867 299.067 518.257 310.073C509.987 344.954 498.377 365.178 487.744 382.065C453.184 436.952 415.649 459.079 379.156 474.979C346.425 489.241 313.445 496.039 280.52 497.055Z" fill="#401C02"/>
</g>
<g filter="url(#filter1_f_862_12530)">
<path d="M39.6246 243.854C39.8865 240.427 41.0142 240.084 41.3431 243.563C41.7085 247.429 40.9982 255.202 41.1692 259.89C41.622 272.303 43.5249 283.096 45.4865 291.876C51.808 320.167 60.5622 338.398 68.7273 353.844C95.5668 404.616 124.967 430.326 153.648 449.702C195.69 478.104 238.073 487.139 280.491 489.055C281.561 489.104 281.739 496.073 280.686 496.98C278.788 498.616 276.437 496.992 274.495 496.924C268.915 496.729 263.336 496.346 257.756 495.766C241.213 494.047 224.671 490.546 208.162 484.913C163.275 469.599 114.877 443.376 72.6097 369.517C69.9507 364.871 67.3128 359.979 64.7123 354.722C62.6325 350.518 60.573 346.112 58.5498 341.399C51.895 325.897 36.3873 286.213 39.6246 243.854ZM280.52 497.055C279.5 497.086 279.241 490.589 280.214 489.241C281.685 487.202 283.889 488.881 285.439 488.784C291.878 488.382 298.315 487.784 304.75 486.976C322.396 484.761 340.028 480.977 357.621 475.151C401.257 460.701 448.17 438.67 489.305 370.986C491.923 366.678 494.519 362.109 497.079 357.196C504.86 342.267 524.362 302.639 522.107 253.376C521.917 249.223 523.182 246.736 523.748 250.298C524.468 254.834 524.176 264.291 523.977 269.323C523.342 285.438 520.867 299.067 518.257 310.073C509.987 344.954 498.377 365.178 487.744 382.065C453.184 436.952 415.649 459.079 379.156 474.979C346.425 489.241 313.445 496.039 280.52 497.055Z" fill="#401C02"/>
</g>
</g>
<g opacity="0.7">
<g filter="url(#filter2_f_862_12530)">
<circle cx="416" cy="262.555" r="50" fill="#E66200"/>
</g>
<g filter="url(#filter3_f_862_12530)">
<circle cx="149" cy="262.555" r="50" fill="#E66200"/>
</g>
</g>
<path d="M352.945 341.364C353.332 341.06 353.806 340.887 354.297 340.868C354.789 340.85 355.274 340.988 355.683 341.262C356.091 341.536 356.402 341.933 356.572 342.395C356.741 342.857 356.76 343.361 356.625 343.834C348.325 375.444 318.235 398.834 282.355 398.834C246.475 398.834 216.355 375.394 208.085 343.764C207.954 343.292 207.975 342.789 208.145 342.329C208.316 341.87 208.627 341.475 209.035 341.203C209.443 340.93 209.926 340.793 210.417 340.811C210.907 340.829 211.379 341.002 211.765 341.304C229.605 354.954 254.655 363.454 282.355 363.454C310.055 363.454 335.095 354.984 352.945 341.364Z" fill="url(#paint4_radial_862_12530)"/>
<path d="M352.945 341.364C353.332 341.06 353.806 340.887 354.297 340.868C354.789 340.85 355.274 340.988 355.683 341.262C356.091 341.536 356.402 341.933 356.572 342.395C356.741 342.857 356.76 343.361 356.625 343.834C348.325 375.444 318.235 398.834 282.355 398.834C246.475 398.834 216.355 375.394 208.085 343.764C207.954 343.292 207.975 342.789 208.145 342.329C208.316 341.87 208.627 341.475 209.035 341.203C209.443 340.93 209.926 340.793 210.417 340.811C210.907 340.829 211.379 341.002 211.765 341.304C229.605 354.954 254.655 363.454 282.355 363.454C310.055 363.454 335.095 354.984 352.945 341.364Z" stroke="url(#paint5_linear_862_12530)" stroke-width="2.5" stroke-miterlimit="10"/>
<path d="M102.565 170.774C110.495 162.714 159.775 116.064 205.745 149.414C207.253 150.574 208.37 152.166 208.949 153.978C209.528 155.79 209.541 157.735 208.985 159.554C208.648 160.824 207.918 161.954 206.9 162.784C205.881 163.614 204.627 164.1 203.315 164.174C188.885 165.614 162.365 148.054 120.015 173.124C116.325 175.368 112.759 177.812 109.335 180.444C106.835 182.314 102.845 184.544 100.425 182.014C98.3552 179.854 98.9052 177.014 99.7952 174.854C100.45 173.33 101.39 171.945 102.565 170.774Z" fill="#42210B"/>
<path d="M461.585 170.774C453.645 162.714 404.365 116.064 358.405 149.414C356.895 150.572 355.776 152.164 355.197 153.977C354.617 155.789 354.606 157.735 355.165 159.554C355.501 160.824 356.23 161.956 357.249 162.786C358.267 163.616 359.523 164.102 360.835 164.174C375.255 165.614 401.785 148.054 444.135 173.124C447.822 175.373 451.387 177.816 454.815 180.444C457.315 182.314 461.305 184.544 463.725 182.014C465.795 179.854 465.245 177.014 464.345 174.854C463.693 173.331 462.756 171.946 461.585 170.774Z" fill="#42210B"/>
<path d="M222.585 257.114C219.054 255.102 215.271 253.568 211.335 252.554C196.255 248.554 181.655 252.864 168.505 260.504C153.795 269.044 140.505 246.264 155.195 237.734C182.575 221.834 218.025 218.984 243.755 239.794C256.615 250.194 239.125 268.084 226.115 259.194C224.976 258.429 223.798 257.725 222.585 257.084V257.114Z" fill="url(#paint6_radial_862_12530)"/>
<path d="M222.585 257.114C219.054 255.102 215.271 253.568 211.335 252.554C196.255 248.554 181.655 252.864 168.505 260.504C153.795 269.044 140.505 246.264 155.195 237.734C182.575 221.834 218.025 218.984 243.755 239.794C256.615 250.194 239.125 268.084 226.115 259.194C224.976 258.429 223.798 257.725 222.585 257.084V257.114Z" stroke="url(#paint7_linear_862_12530)" stroke-width="2" stroke-miterlimit="10"/>
<path d="M389.674 257.114C386.142 255.105 382.359 253.572 378.424 252.554C363.344 248.554 348.744 252.864 335.584 260.504C320.884 269.044 307.584 246.264 322.274 237.734C349.664 221.834 385.104 218.984 410.834 239.794C423.704 250.194 406.214 268.084 393.194 259.194C392.058 258.431 390.883 257.727 389.674 257.084V257.114Z" fill="url(#paint8_radial_862_12530)"/>
<path d="M389.674 257.114C386.142 255.105 382.359 253.572 378.424 252.554C363.344 248.554 348.744 252.864 335.584 260.504C320.884 269.044 307.584 246.264 322.274 237.734C349.664 221.834 385.104 218.984 410.834 239.794C423.704 250.194 406.214 268.084 393.194 259.194C392.058 258.431 390.883 257.727 389.674 257.084V257.114Z" stroke="url(#paint9_linear_862_12530)" stroke-width="2" stroke-miterlimit="10"/>
<defs>
<filter id="filter0_f_862_12530" x="14.1855" y="216.113" width="535.021" height="306.595" filterUnits="userSpaceOnUse" color-interpolation-filters="sRGB">
<feFlood flood-opacity="0" result="BackgroundImageFix"/>
<feBlend mode="normal" in="SourceGraphic" in2="BackgroundImageFix" result="shape"/>
<feGaussianBlur stdDeviation="12.5" result="effect1_foregroundBlur_862_12530"/>
</filter>
<filter id="filter1_f_862_12530" x="-0.814453" y="201.113" width="565.021" height="336.595" filterUnits="userSpaceOnUse" color-interpolation-filters="sRGB">
<feFlood flood-opacity="0" result="BackgroundImageFix"/>
<feBlend mode="normal" in="SourceGraphic" in2="BackgroundImageFix" result="shape"/>
<feGaussianBlur stdDeviation="20" result="effect1_foregroundBlur_862_12530"/>
</filter>
<filter id="filter2_f_862_12530" x="306" y="152.555" width="220" height="220" filterUnits="userSpaceOnUse" color-interpolation-filters="sRGB">
<feFlood flood-opacity="0" result="BackgroundImageFix"/>
<feBlend mode="normal" in="SourceGraphic" in2="BackgroundImageFix" result="shape"/>
<feGaussianBlur stdDeviation="30" result="effect1_foregroundBlur_862_12530"/>
</filter>
<filter id="filter3_f_862_12530" x="39" y="152.555" width="220" height="220" filterUnits="userSpaceOnUse" color-interpolation-filters="sRGB">
<feFlood flood-opacity="0" result="BackgroundImageFix"/>
<feBlend mode="normal" in="SourceGraphic" in2="BackgroundImageFix" result="shape"/>
<feGaussianBlur stdDeviation="30" result="effect1_foregroundBlur_862_12530"/>
</filter>
<radialGradient id="paint0_radial_862_12530" cx="0" cy="0" r="1" gradientUnits="userSpaceOnUse" gradientTransform="translate(282 9.55468) rotate(90) scale(482)">
<stop stop-color="#FFDE43"/>
<stop offset="1" stop-color="#FFBC00"/>
</radialGradient>
<radialGradient id="paint1_radial_862_12530" cx="0" cy="0" r="1" gradientUnits="userSpaceOnUse" gradientTransform="translate(282 74.0547) rotate(90) scale(417.5)">
<stop stop-color="white" stop-opacity="0.5"/>
<stop offset="0.782278"/>
</radialGradient>
<radialGradient id="paint2_radial_862_12530" cx="0" cy="0" r="1" gradientUnits="userSpaceOnUse" gradientTransform="translate(282 74.0547) rotate(90) scale(417.5)">
<stop stop-color="white" stop-opacity="0.5"/>
<stop offset="0.782278"/>
</radialGradient>
<radialGradient id="paint3_radial_862_12530" cx="0" cy="0" r="1" gradientUnits="userSpaceOnUse" gradientTransform="translate(282 -42.9453) rotate(90) scale(534.5 722.835)">
<stop offset="0.0922635" stop-color="white"/>
<stop offset="0.670207" stop-color="white" stop-opacity="0"/>
</radialGradient>
<radialGradient id="paint4_radial_862_12530" cx="0" cy="0" r="1" gradientUnits="userSpaceOnUse" gradientTransform="translate(282.357 369.705) scale(56.1265 58.608)">
<stop stop-color="#743C1C"/>
<stop offset="1" stop-color="#401C02"/>
</radialGradient>
<linearGradient id="paint5_linear_862_12530" x1="282.357" y1="400.467" x2="282.357" y2="338.942" gradientUnits="userSpaceOnUse">
<stop offset="0.265625" stop-color="#FFDE43"/>
<stop offset="1" stop-color="#F79D14"/>
</linearGradient>
<radialGradient id="paint6_radial_862_12530" cx="0" cy="0" r="1" gradientUnits="userSpaceOnUse" gradientTransform="translate(198.463 243.679) scale(63.3847 18.7281)">
<stop stop-color="#743C1C"/>
<stop offset="1" stop-color="#401C02"/>
</radialGradient>
<linearGradient id="paint7_linear_862_12530" x1="198.532" y1="263.44" x2="198.532" y2="223.793" gradientUnits="userSpaceOnUse">
<stop stop-color="#FFDE43"/>
<stop offset="0.22" stop-color="#FED93F"/>
<stop offset="0.51" stop-color="#FCC934"/>
<stop offset="0.82" stop-color="#F9AF21"/>
<stop offset="1" stop-color="#F79D14"/>
</linearGradient>
<radialGradient id="paint8_radial_862_12530" cx="0" cy="0" r="1" gradientUnits="userSpaceOnUse" gradientTransform="translate(365.546 243.679) scale(63.387 18.7281)">
<stop stop-color="#743C1C"/>
<stop offset="1" stop-color="#401C02"/>
</radialGradient>
<linearGradient id="paint9_linear_862_12530" x1="365.614" y1="263.44" x2="365.614" y2="223.793" gradientUnits="userSpaceOnUse">
<stop stop-color="#FFDE43"/>
<stop offset="0.22" stop-color="#FED93F"/>
<stop offset="0.51" stop-color="#FCC934"/>
<stop offset="0.82" stop-color="#F9AF21"/>
<stop offset="1" stop-color="#F79D14"/>
</linearGradient>
</defs>
</svg>
