<svg width="483" height="483" viewBox="0 0 483 483" fill="none" xmlns="http://www.w3.org/2000/svg">
<path d="M241.18 482.36C374.38 482.36 482.36 374.38 482.36 241.18C482.36 107.98 374.38 0 241.18 0C107.98 0 0 107.98 0 241.18C0 374.38 107.98 482.36 241.18 482.36Z" fill="url(#paint0_radial_862_12565)"/>
<g style="mix-blend-mode:soft-light">
<path d="M241.18 482.36C374.38 482.36 482.36 374.38 482.36 241.18C482.36 107.98 374.38 0 241.18 0C107.98 0 0 107.98 0 241.18C0 374.38 107.98 482.36 241.18 482.36Z" fill="url(#paint1_radial_862_12565)"/>
</g>
<g style="mix-blend-mode:soft-light">
<path d="M241.18 482.36C374.38 482.36 482.36 374.38 482.36 241.18C482.36 107.98 374.38 0 241.18 0C107.98 0 0 107.98 0 241.18C0 374.38 107.98 482.36 241.18 482.36Z" fill="url(#paint2_radial_862_12565)"/>
</g>
<g style="mix-blend-mode:overlay">
<path d="M241.18 482.36C374.38 482.36 482.36 374.38 482.36 241.18C482.36 107.98 374.38 0 241.18 0C107.98 0 0 107.98 0 241.18C0 374.38 107.98 482.36 241.18 482.36Z" fill="url(#paint3_radial_862_12565)" fill-opacity="0.7"/>
</g>
<mask id="mask0_862_12565" style="mask-type:alpha" maskUnits="userSpaceOnUse" x="0" y="0" width="483" height="483">
<path d="M241.18 482.36C374.38 482.36 482.36 374.38 482.36 241.18C482.36 107.98 374.38 0 241.18 0C107.98 0 0 107.98 0 241.18C0 374.38 107.98 482.36 241.18 482.36Z" fill="white"/>
</mask>
<g mask="url(#mask0_862_12565)">
<g filter="url(#filter0_f_862_12565)">
<path d="M-1.3759 234.299C-1.11402 230.872 0.0137008 230.529 0.342619 234.008C0.708055 237.874 -0.00231624 245.646 0.16871 250.335C0.621554 262.748 2.52441 273.541 4.48605 282.32C10.8075 310.612 19.5617 328.843 27.7268 344.288C54.5663 395.06 83.9667 420.77 112.648 440.147C154.689 468.549 197.072 477.584 239.49 479.5C240.56 479.548 240.738 486.518 239.686 487.425C237.788 489.061 235.436 487.437 233.494 487.369C227.915 487.174 222.335 486.791 216.756 486.211C200.213 484.492 183.67 480.991 167.162 475.358C122.275 460.044 73.8765 433.821 31.6092 359.962C28.9502 355.316 26.3124 350.424 23.7118 345.167C21.6321 340.963 19.5726 336.556 17.5493 331.843C10.8946 316.342 -4.61323 276.658 -1.3759 234.299ZM239.52 487.5C238.499 487.531 238.241 481.034 239.214 479.685C240.684 477.647 242.888 479.326 244.439 479.229C250.877 478.826 257.314 478.229 263.75 477.421C281.395 475.205 299.028 471.422 316.621 465.596C360.257 451.145 407.17 429.115 448.305 361.431C450.923 357.123 453.518 352.553 456.079 347.641C463.86 332.712 483.361 293.084 481.107 243.821C480.917 239.668 482.181 237.181 482.747 240.743C483.467 245.279 483.175 254.736 482.977 259.768C482.341 275.883 479.866 289.512 477.257 300.518C468.987 335.399 457.376 355.623 446.744 372.51C412.184 427.397 374.648 449.524 338.155 465.424C305.424 479.686 272.444 486.484 239.52 487.5Z" fill="#401C02"/>
</g>
<g filter="url(#filter1_f_862_12565)">
<path d="M-1.3759 234.299C-1.11402 230.872 0.0137008 230.529 0.342619 234.008C0.708055 237.874 -0.00231624 245.646 0.16871 250.335C0.621554 262.748 2.52441 273.541 4.48605 282.32C10.8075 310.612 19.5617 328.843 27.7268 344.288C54.5663 395.06 83.9667 420.77 112.648 440.147C154.689 468.549 197.072 477.584 239.49 479.5C240.56 479.548 240.738 486.518 239.686 487.425C237.788 489.061 235.436 487.437 233.494 487.369C227.915 487.174 222.335 486.791 216.756 486.211C200.213 484.492 183.67 480.991 167.162 475.358C122.275 460.044 73.8765 433.821 31.6092 359.962C28.9502 355.316 26.3124 350.424 23.7118 345.167C21.6321 340.963 19.5726 336.556 17.5493 331.843C10.8946 316.342 -4.61323 276.658 -1.3759 234.299ZM239.52 487.5C238.499 487.531 238.241 481.034 239.214 479.685C240.684 477.647 242.888 479.326 244.439 479.229C250.877 478.826 257.314 478.229 263.75 477.421C281.395 475.205 299.028 471.422 316.621 465.596C360.257 451.145 407.17 429.115 448.305 361.431C450.923 357.123 453.518 352.553 456.079 347.641C463.86 332.712 483.361 293.084 481.107 243.821C480.917 239.668 482.181 237.181 482.747 240.743C483.467 245.279 483.175 254.736 482.977 259.768C482.341 275.883 479.866 289.512 477.257 300.518C468.987 335.399 457.376 355.623 446.744 372.51C412.184 427.397 374.648 449.524 338.155 465.424C305.424 479.686 272.444 486.484 239.52 487.5Z" fill="#401C02"/>
</g>
</g>
<path d="M158.39 386.32C182.72 387.32 309.07 391.38 320.18 325.38C320.18 325.38 379.1 416.38 157.94 396.66C157.064 396.58 156.249 396.176 155.656 395.527C155.062 394.877 154.732 394.03 154.73 393.15V389.84C154.73 389.366 154.826 388.896 155.011 388.46C155.197 388.023 155.469 387.629 155.81 387.3C156.152 386.971 156.557 386.715 157 386.547C157.444 386.378 157.917 386.301 158.39 386.32Z" fill="url(#paint4_radial_862_12565)"/>
<path d="M158.39 386.32C182.72 387.32 309.07 391.38 320.18 325.38C320.18 325.38 379.1 416.38 157.94 396.66C157.064 396.58 156.249 396.176 155.656 395.527C155.062 394.877 154.732 394.03 154.73 393.15V389.84C154.73 389.366 154.826 388.896 155.011 388.46C155.197 388.023 155.469 387.629 155.81 387.3C156.152 386.971 156.557 386.715 157 386.547C157.444 386.378 157.917 386.301 158.39 386.32V386.32Z" stroke="url(#paint5_linear_862_12565)" stroke-width="1.5" stroke-miterlimit="10"/>
<path d="M159.821 240.62C116.011 239.81 90.5306 255.22 81.7406 261.76C81.0268 262.3 80.5179 263.066 80.2978 263.934C80.0777 264.801 80.1594 265.718 80.5296 266.533C80.8997 267.347 81.5362 268.012 82.3343 268.417C83.1324 268.822 84.0445 268.943 84.9206 268.76C106.701 264.28 122.521 263.76 133.841 264.92C133.841 265.49 133.781 266.07 133.781 266.65C133.781 271.792 135.306 276.819 138.162 281.095C141.019 285.371 145.08 288.703 149.831 290.671C154.582 292.639 159.809 293.154 164.853 292.15C169.896 291.147 174.529 288.671 178.165 285.035C181.802 281.399 184.278 276.766 185.281 271.722C186.284 266.679 185.769 261.451 183.802 256.7C181.834 251.949 178.501 247.889 174.225 245.032C169.95 242.175 164.923 240.65 159.781 240.65L159.821 240.62Z" fill="url(#paint6_radial_862_12565)"/>
<path d="M159.821 240.62C116.011 239.81 90.5306 255.22 81.7406 261.76C81.0268 262.3 80.5179 263.066 80.2978 263.934C80.0777 264.801 80.1594 265.718 80.5296 266.533C80.8997 267.347 81.5362 268.012 82.3343 268.417C83.1324 268.822 84.0445 268.943 84.9206 268.76C106.701 264.28 122.521 263.76 133.841 264.92C133.841 265.49 133.781 266.07 133.781 266.65C133.781 271.792 135.306 276.819 138.162 281.095C141.019 285.371 145.08 288.703 149.831 290.671C154.582 292.639 159.809 293.154 164.853 292.15C169.896 291.147 174.529 288.671 178.165 285.035C181.802 281.399 184.278 276.766 185.281 271.722C186.284 266.679 185.769 261.451 183.802 256.7C181.834 251.949 178.501 247.889 174.225 245.032C169.95 242.175 164.923 240.65 159.781 240.65L159.821 240.62Z" stroke="url(#paint7_linear_862_12565)" stroke-width="2" stroke-miterlimit="10"/>
<path d="M375.821 240.62C332.011 239.81 306.531 255.22 297.741 261.76C297.027 262.3 296.518 263.066 296.298 263.934C296.078 264.801 296.159 265.718 296.53 266.533C296.9 267.347 297.536 268.012 298.334 268.417C299.132 268.822 300.045 268.943 300.921 268.76C322.701 264.28 338.521 263.76 349.841 264.92C349.841 265.49 349.781 266.07 349.781 266.65C349.781 271.792 351.306 276.819 354.162 281.095C357.019 285.371 361.08 288.703 365.831 290.671C370.582 292.639 375.809 293.154 380.853 292.15C385.896 291.147 390.529 288.671 394.165 285.035C397.802 281.399 400.278 276.766 401.281 271.722C402.284 266.679 401.769 261.451 399.802 256.7C397.834 251.949 394.501 247.889 390.225 245.032C385.95 242.175 380.923 240.65 375.781 240.65L375.821 240.62Z" fill="url(#paint8_radial_862_12565)"/>
<path d="M375.821 240.62C332.011 239.81 306.531 255.22 297.741 261.76C297.027 262.3 296.518 263.066 296.298 263.934C296.078 264.801 296.159 265.718 296.53 266.533C296.9 267.347 297.536 268.012 298.334 268.417C299.132 268.822 300.045 268.943 300.921 268.76C322.701 264.28 338.521 263.76 349.841 264.92C349.841 265.49 349.781 266.07 349.781 266.65C349.781 271.792 351.306 276.819 354.162 281.095C357.019 285.371 361.08 288.703 365.831 290.671C370.582 292.639 375.809 293.154 380.853 292.15C385.896 291.147 390.529 288.671 394.165 285.035C397.802 281.399 400.278 276.766 401.281 271.722C402.284 266.679 401.769 261.451 399.802 256.7C397.834 251.949 394.501 247.889 390.225 245.032C385.95 242.175 380.923 240.65 375.781 240.65L375.821 240.62Z" stroke="url(#paint9_linear_862_12565)" stroke-width="2" stroke-miterlimit="10"/>
<path d="M47.0775 201.232C52.9075 193.442 89.7175 147.652 136.747 164.822C138.22 165.328 139.477 166.319 140.313 167.632C141.149 168.946 141.513 170.504 141.347 172.052C141.067 173.972 139.947 175.832 136.987 176.732C124.197 180.632 97.3275 172.032 63.2175 199.682C60.2743 202.12 57.4573 204.707 54.7775 207.432C52.8375 209.372 49.5975 211.872 46.9875 210.362C44.7675 209.072 44.7875 206.732 45.2475 204.902C45.6048 203.568 46.2272 202.32 47.0775 201.232Z" fill="#42210B"/>
<path d="M433.988 201.232C428.148 193.442 391.347 147.652 344.348 164.822C342.868 165.329 341.605 166.326 340.769 167.648C339.932 168.97 339.572 170.538 339.747 172.092C340.027 174.012 341.148 175.872 344.108 176.772C356.898 180.672 383.758 172.072 417.878 199.722C420.817 202.161 423.631 204.747 426.307 207.472C428.257 209.412 431.498 211.912 434.098 210.402C436.328 209.112 436.308 206.772 435.848 204.942C435.482 203.594 434.849 202.332 433.988 201.232Z" fill="#42210B"/>
<defs>
<filter id="filter0_f_862_12565" x="-26.8149" y="206.558" width="535.022" height="306.595" filterUnits="userSpaceOnUse" color-interpolation-filters="sRGB">
<feFlood flood-opacity="0" result="BackgroundImageFix"/>
<feBlend mode="normal" in="SourceGraphic" in2="BackgroundImageFix" result="shape"/>
<feGaussianBlur stdDeviation="12.5" result="effect1_foregroundBlur_862_12565"/>
</filter>
<filter id="filter1_f_862_12565" x="-41.8149" y="191.558" width="565.022" height="336.595" filterUnits="userSpaceOnUse" color-interpolation-filters="sRGB">
<feFlood flood-opacity="0" result="BackgroundImageFix"/>
<feBlend mode="normal" in="SourceGraphic" in2="BackgroundImageFix" result="shape"/>
<feGaussianBlur stdDeviation="20" result="effect1_foregroundBlur_862_12565"/>
</filter>
<radialGradient id="paint0_radial_862_12565" cx="0" cy="0" r="1" gradientUnits="userSpaceOnUse" gradientTransform="translate(241 -4.53898e-06) rotate(90) scale(482)">
<stop stop-color="#FFDE43"/>
<stop offset="1" stop-color="#FFBC00"/>
</radialGradient>
<radialGradient id="paint1_radial_862_12565" cx="0" cy="0" r="1" gradientUnits="userSpaceOnUse" gradientTransform="translate(241 64.5) rotate(90) scale(417.5)">
<stop stop-color="white" stop-opacity="0.5"/>
<stop offset="0.782278"/>
</radialGradient>
<radialGradient id="paint2_radial_862_12565" cx="0" cy="0" r="1" gradientUnits="userSpaceOnUse" gradientTransform="translate(241 64.5) rotate(90) scale(417.5)">
<stop stop-color="white" stop-opacity="0.5"/>
<stop offset="0.782278"/>
</radialGradient>
<radialGradient id="paint3_radial_862_12565" cx="0" cy="0" r="1" gradientUnits="userSpaceOnUse" gradientTransform="translate(241 -52.5) rotate(90) scale(534.5 722.835)">
<stop offset="0.0922635" stop-color="white"/>
<stop offset="0.670207" stop-color="white" stop-opacity="0"/>
</radialGradient>
<radialGradient id="paint4_radial_862_12565" cx="0" cy="0" r="1" gradientUnits="userSpaceOnUse" gradientTransform="translate(241.015 362.269) scale(65.1298 74.8223)">
<stop stop-color="#743C1C"/>
<stop offset="1" stop-color="#401C02"/>
</radialGradient>
<linearGradient id="paint5_linear_862_12565" x1="241.015" y1="401.542" x2="241.015" y2="322.996" gradientUnits="userSpaceOnUse">
<stop offset="0.265625" stop-color="#FFDE43"/>
<stop offset="1" stop-color="#F79D14"/>
</linearGradient>
<radialGradient id="paint6_radial_862_12565" cx="0" cy="0" r="1" gradientUnits="userSpaceOnUse" gradientTransform="translate(132.906 266.602) scale(67.3096 26.0755)">
<stop stop-color="#743C1C"/>
<stop offset="1" stop-color="#401C02"/>
</radialGradient>
<linearGradient id="paint7_linear_862_12565" x1="132.979" y1="294.115" x2="132.979" y2="238.914" gradientUnits="userSpaceOnUse">
<stop stop-color="#FFDE43"/>
<stop offset="0.22" stop-color="#FED93F"/>
<stop offset="0.51" stop-color="#FCC934"/>
<stop offset="0.82" stop-color="#F9AF21"/>
<stop offset="1" stop-color="#F79D14"/>
</linearGradient>
<radialGradient id="paint8_radial_862_12565" cx="0" cy="0" r="1" gradientUnits="userSpaceOnUse" gradientTransform="translate(348.906 266.602) scale(67.3096 26.0755)">
<stop stop-color="#743C1C"/>
<stop offset="1" stop-color="#401C02"/>
</radialGradient>
<linearGradient id="paint9_linear_862_12565" x1="348.979" y1="294.115" x2="348.979" y2="238.914" gradientUnits="userSpaceOnUse">
<stop stop-color="#FFDE43"/>
<stop offset="0.22" stop-color="#FED93F"/>
<stop offset="0.51" stop-color="#FCC934"/>
<stop offset="0.82" stop-color="#F9AF21"/>
<stop offset="1" stop-color="#F79D14"/>
</linearGradient>
</defs>
</svg>
