<svg width="483" height="496" viewBox="0 0 483 496" fill="none" xmlns="http://www.w3.org/2000/svg">
<path d="M241.18 482.36C374.38 482.36 482.36 374.38 482.36 241.18C482.36 107.98 374.38 0 241.18 0C107.98 0 0 107.98 0 241.18C0 374.38 107.98 482.36 241.18 482.36Z" fill="url(#paint0_radial_862_12471)"/>
<g style="mix-blend-mode:soft-light">
<path d="M241.18 482.36C374.38 482.36 482.36 374.38 482.36 241.18C482.36 107.98 374.38 0 241.18 0C107.98 0 0 107.98 0 241.18C0 374.38 107.98 482.36 241.18 482.36Z" fill="url(#paint1_radial_862_12471)"/>
</g>
<g style="mix-blend-mode:soft-light">
<path d="M241.18 482.36C374.38 482.36 482.36 374.38 482.36 241.18C482.36 107.98 374.38 0 241.18 0C107.98 0 0 107.98 0 241.18C0 374.38 107.98 482.36 241.18 482.36Z" fill="url(#paint2_radial_862_12471)"/>
</g>
<g style="mix-blend-mode:overlay">
<path d="M241.18 482.36C374.38 482.36 482.36 374.38 482.36 241.18C482.36 107.98 374.38 0 241.18 0C107.98 0 0 107.98 0 241.18C0 374.38 107.98 482.36 241.18 482.36Z" fill="url(#paint3_radial_862_12471)" fill-opacity="0.7"/>
</g>
<mask id="mask0_862_12471" style="mask-type:alpha" maskUnits="userSpaceOnUse" x="0" y="0" width="483" height="483">
<path d="M241.18 482.36C374.38 482.36 482.36 374.38 482.36 241.18C482.36 107.98 374.38 0 241.18 0C107.98 0 0 107.98 0 241.18C0 374.38 107.98 482.36 241.18 482.36Z" fill="white"/>
</mask>
<g mask="url(#mask0_862_12471)">
<g filter="url(#filter0_f_862_12471)">
<path d="M-1.37541 234.299C-1.11353 230.872 0.0141891 230.529 0.343108 234.008C0.708543 237.874 -0.00182796 245.646 0.169198 250.335C0.622042 262.748 2.5249 273.541 4.48654 282.32C10.808 310.612 19.5622 328.843 27.7273 344.288C54.5668 395.06 83.9672 420.77 112.648 440.147C154.69 468.549 197.073 477.584 239.491 479.5C240.561 479.548 240.739 486.518 239.686 487.425C237.788 489.061 235.437 487.437 233.495 487.369C227.915 487.174 222.336 486.791 216.756 486.211C200.213 484.492 183.671 480.991 167.162 475.358C122.275 460.044 73.877 433.821 31.6097 359.962C28.9507 355.316 26.3128 350.424 23.7123 345.167C21.6325 340.963 19.573 336.556 17.5498 331.843C10.895 316.342 -4.61274 276.658 -1.37541 234.299ZM239.52 487.5C238.5 487.531 238.241 481.034 239.214 479.685C240.685 477.647 242.889 479.326 244.439 479.229C250.878 478.826 257.315 478.229 263.75 477.421C281.396 475.205 299.028 471.422 316.621 465.596C360.257 451.145 407.17 429.115 448.305 361.431C450.923 357.123 453.519 352.553 456.079 347.641C463.86 332.712 483.362 293.084 481.107 243.821C480.917 239.668 482.182 237.181 482.748 240.743C483.468 245.279 483.176 254.736 482.977 259.768C482.342 275.883 479.867 289.512 477.257 300.518C468.987 335.399 457.377 355.623 446.744 372.51C412.184 427.397 374.649 449.524 338.156 465.424C305.425 479.686 272.445 486.484 239.52 487.5Z" fill="#401C02"/>
</g>
<g filter="url(#filter1_f_862_12471)">
<path d="M-1.37541 234.299C-1.11353 230.872 0.0141891 230.529 0.343108 234.008C0.708543 237.874 -0.00182796 245.646 0.169198 250.335C0.622042 262.748 2.5249 273.541 4.48654 282.32C10.808 310.612 19.5622 328.843 27.7273 344.288C54.5668 395.06 83.9672 420.77 112.648 440.147C154.69 468.549 197.073 477.584 239.491 479.5C240.561 479.548 240.739 486.518 239.686 487.425C237.788 489.061 235.437 487.437 233.495 487.369C227.915 487.174 222.336 486.791 216.756 486.211C200.213 484.492 183.671 480.991 167.162 475.358C122.275 460.044 73.877 433.821 31.6097 359.962C28.9507 355.316 26.3128 350.424 23.7123 345.167C21.6325 340.963 19.573 336.556 17.5498 331.843C10.895 316.342 -4.61274 276.658 -1.37541 234.299ZM239.52 487.5C238.5 487.531 238.241 481.034 239.214 479.685C240.685 477.647 242.889 479.326 244.439 479.229C250.878 478.826 257.315 478.229 263.75 477.421C281.396 475.205 299.028 471.422 316.621 465.596C360.257 451.145 407.17 429.115 448.305 361.431C450.923 357.123 453.519 352.553 456.079 347.641C463.86 332.712 483.362 293.084 481.107 243.821C480.917 239.668 482.182 237.181 482.748 240.743C483.468 245.279 483.176 254.736 482.977 259.768C482.342 275.883 479.867 289.512 477.257 300.518C468.987 335.399 457.377 355.623 446.744 372.51C412.184 427.397 374.649 449.524 338.156 465.424C305.425 479.686 272.445 486.484 239.52 487.5Z" fill="#401C02"/>
</g>
</g>
<path d="M369.46 151.98C366.833 153.747 364.193 155.483 361.54 157.19C357.47 159.83 353.38 162.41 349.31 164.98L337.11 172.62L325.04 180.24C317.04 185.34 309.19 190.47 301.97 195.88C298.527 198.42 295.263 201.193 292.2 204.18C291.281 205.103 290.417 206.078 289.61 207.1C289.31 207.383 289.068 207.723 288.9 208.1C288.738 208.486 288.655 208.901 288.655 209.32C288.655 209.739 288.738 210.154 288.9 210.54C289.087 210.986 289.374 211.383 289.74 211.7C290.514 212.687 291.349 213.626 292.24 214.51C295.304 217.499 298.572 220.273 302.02 222.81C309.23 228.22 317.12 233.34 325.08 238.44L337.15 246.05L349.35 253.7C353.42 256.28 357.51 258.86 361.58 261.51C364.23 263.22 366.89 264.96 369.52 266.74C369.731 266.88 369.887 267.091 369.959 267.334C370.031 267.578 370.014 267.839 369.913 268.072C369.812 268.304 369.631 268.494 369.404 268.607C369.177 268.72 368.917 268.749 368.67 268.69C365.52 268.04 362.41 267.28 359.31 266.48C354.55 265.26 349.85 263.86 345.17 262.38C342.83 261.63 340.51 260.84 338.17 260.04C335.83 259.24 333.55 258.38 331.25 257.53C326.65 255.81 322.093 253.95 317.58 251.95C308.395 247.981 299.535 243.3 291.08 237.95C286.573 235.096 282.326 231.85 278.39 228.25C276.146 226.148 274.119 223.827 272.34 221.32C272.11 220.98 271.87 220.58 271.63 220.21C271.39 219.84 271.17 219.47 270.95 219.03L270.28 217.77L269.67 216.36C268.73 214.146 268.246 211.765 268.246 209.36C268.246 206.955 268.73 204.574 269.67 202.36C269.87 201.88 270.08 201.36 270.29 200.94L270.95 199.68C271.17 199.25 271.41 198.88 271.64 198.51C271.87 198.14 272.11 197.74 272.35 197.39C274.126 194.887 276.154 192.572 278.4 190.48C282.336 186.88 286.583 183.634 291.09 180.78C299.551 175.44 308.41 170.759 317.59 166.78C322.11 164.78 326.65 162.92 331.27 161.22C335.89 159.52 340.49 157.87 345.16 156.36C349.83 154.85 354.54 153.48 359.3 152.25C362.38 151.45 365.48 150.69 368.62 150.03C368.862 149.986 369.112 150.026 369.329 150.143C369.546 150.259 369.717 150.445 369.814 150.671C369.911 150.898 369.929 151.15 369.865 151.387C369.801 151.625 369.658 151.834 369.46 151.98Z" fill="url(#paint4_radial_862_12471)"/>
<path d="M369.46 151.98C366.833 153.747 364.193 155.483 361.54 157.19C357.47 159.83 353.38 162.41 349.31 164.98L337.11 172.62L325.04 180.24C317.04 185.34 309.19 190.47 301.97 195.88C298.527 198.42 295.263 201.193 292.2 204.18C291.281 205.103 290.417 206.078 289.61 207.1C289.31 207.383 289.068 207.723 288.9 208.1V208.1C288.738 208.486 288.655 208.901 288.655 209.32C288.655 209.739 288.738 210.154 288.9 210.54C289.087 210.986 289.374 211.383 289.74 211.7C290.514 212.687 291.349 213.626 292.24 214.51C295.304 217.499 298.572 220.273 302.02 222.81C309.23 228.22 317.12 233.34 325.08 238.44L337.15 246.05L349.35 253.7C353.42 256.28 357.51 258.86 361.58 261.51C364.23 263.22 366.89 264.96 369.52 266.74C369.731 266.88 369.887 267.091 369.959 267.334C370.031 267.578 370.014 267.839 369.913 268.072C369.812 268.304 369.631 268.494 369.404 268.607C369.177 268.72 368.917 268.749 368.67 268.69C365.52 268.04 362.41 267.28 359.31 266.48C354.55 265.26 349.85 263.86 345.17 262.38C342.83 261.63 340.51 260.84 338.17 260.04C335.83 259.24 333.55 258.38 331.25 257.53C326.65 255.81 322.093 253.95 317.58 251.95C308.395 247.981 299.535 243.3 291.08 237.95C286.573 235.096 282.326 231.85 278.39 228.25C276.146 226.148 274.119 223.827 272.34 221.32C272.11 220.98 271.87 220.58 271.63 220.21C271.39 219.84 271.17 219.47 270.95 219.03L270.28 217.77L269.67 216.36C268.73 214.146 268.246 211.765 268.246 209.36C268.246 206.955 268.73 204.574 269.67 202.36C269.87 201.88 270.08 201.36 270.29 200.94L270.95 199.68C271.17 199.25 271.41 198.88 271.64 198.51C271.87 198.14 272.11 197.74 272.35 197.39C274.126 194.887 276.154 192.572 278.4 190.48C282.336 186.88 286.583 183.634 291.09 180.78C299.551 175.44 308.41 170.759 317.59 166.78C322.11 164.78 326.65 162.92 331.27 161.22C335.89 159.52 340.49 157.87 345.16 156.36C349.83 154.85 354.54 153.48 359.3 152.25C362.38 151.45 365.48 150.69 368.62 150.03C368.862 149.986 369.112 150.026 369.329 150.143C369.546 150.259 369.717 150.445 369.814 150.671C369.911 150.898 369.929 151.15 369.865 151.387C369.801 151.625 369.658 151.834 369.46 151.98Z" stroke="url(#paint5_linear_862_12471)" stroke-width="2" stroke-miterlimit="10"/>
<path d="M112.543 266.753C115.17 264.986 117.81 263.25 120.463 261.543C124.533 258.903 128.623 256.323 132.693 253.753L144.893 246.113L156.963 238.493C164.963 233.393 172.813 228.263 180.033 222.853C183.476 220.313 186.74 217.54 189.803 214.553C190.722 213.63 191.586 212.655 192.393 211.633C192.693 211.35 192.935 211.01 193.103 210.633C193.265 210.247 193.348 209.832 193.348 209.413C193.348 208.994 193.265 208.579 193.103 208.193C192.916 207.747 192.628 207.35 192.263 207.033C191.489 206.046 190.654 205.107 189.763 204.223C186.699 201.233 183.431 198.46 179.983 195.923C172.773 190.513 164.883 185.393 156.923 180.293L144.853 172.683L132.653 165.033C128.583 162.453 124.493 159.873 120.423 157.223C117.773 155.513 115.113 153.773 112.483 151.993C112.271 151.853 112.116 151.642 112.044 151.399C111.972 151.155 111.988 150.894 112.09 150.661C112.191 150.429 112.372 150.239 112.599 150.126C112.826 150.013 113.086 149.983 113.333 150.043C116.483 150.693 119.593 151.453 122.693 152.253C127.453 153.473 132.153 154.873 136.833 156.353C139.173 157.103 141.493 157.893 143.833 158.693C146.173 159.493 148.453 160.353 150.753 161.203C155.353 162.923 159.91 164.783 164.423 166.783C173.608 170.752 182.468 175.433 190.923 180.783C195.43 183.637 199.677 186.883 203.613 190.483C205.857 192.585 207.883 194.906 209.663 197.413C209.893 197.753 210.133 198.153 210.373 198.523C210.613 198.893 210.833 199.263 211.053 199.703L211.723 200.963L212.333 202.373C213.273 204.587 213.757 206.968 213.757 209.373C213.757 211.778 213.273 214.159 212.333 216.373C212.133 216.853 211.923 217.373 211.713 217.793L211.053 219.053C210.833 219.483 210.593 219.853 210.363 220.223C210.133 220.593 209.893 220.993 209.653 221.343C207.876 223.846 205.849 226.161 203.603 228.253C199.667 231.853 195.42 235.099 190.913 237.953C182.452 243.293 173.593 247.974 164.413 251.953C159.893 253.953 155.353 255.813 150.733 257.513C146.113 259.213 141.513 260.863 136.843 262.373C132.173 263.883 127.463 265.253 122.703 266.483C119.623 267.283 116.523 268.043 113.383 268.703C113.141 268.747 112.891 268.707 112.674 268.59C112.457 268.474 112.286 268.287 112.189 268.061C112.092 267.835 112.074 267.583 112.138 267.345C112.202 267.108 112.345 266.899 112.543 266.753Z" fill="url(#paint6_radial_862_12471)"/>
<path d="M112.543 266.753C115.17 264.986 117.81 263.25 120.463 261.543C124.533 258.903 128.623 256.323 132.693 253.753L144.893 246.113L156.963 238.493C164.963 233.393 172.813 228.263 180.033 222.853C183.476 220.313 186.74 217.54 189.803 214.553C190.722 213.63 191.586 212.655 192.393 211.633C192.693 211.35 192.935 211.01 193.103 210.633V210.633C193.265 210.247 193.348 209.832 193.348 209.413C193.348 208.994 193.265 208.579 193.103 208.193C192.916 207.747 192.628 207.35 192.263 207.033C191.489 206.046 190.654 205.107 189.763 204.223C186.699 201.233 183.431 198.46 179.983 195.923C172.773 190.513 164.883 185.393 156.923 180.293L144.853 172.683L132.653 165.033C128.583 162.453 124.493 159.873 120.423 157.223C117.773 155.513 115.113 153.773 112.483 151.993C112.271 151.853 112.116 151.642 112.044 151.399C111.972 151.155 111.988 150.894 112.09 150.661C112.191 150.429 112.372 150.239 112.599 150.126C112.826 150.013 113.086 149.983 113.333 150.043C116.483 150.693 119.593 151.453 122.693 152.253C127.453 153.473 132.153 154.873 136.833 156.353C139.173 157.103 141.493 157.893 143.833 158.693C146.173 159.493 148.453 160.353 150.753 161.203C155.353 162.923 159.91 164.783 164.423 166.783C173.608 170.752 182.468 175.433 190.923 180.783C195.43 183.637 199.677 186.883 203.613 190.483C205.857 192.585 207.883 194.906 209.663 197.413C209.893 197.753 210.133 198.153 210.373 198.523C210.613 198.893 210.833 199.263 211.053 199.703L211.723 200.963L212.333 202.373C213.273 204.587 213.757 206.968 213.757 209.373C213.757 211.778 213.273 214.159 212.333 216.373C212.133 216.853 211.923 217.373 211.713 217.793L211.053 219.053C210.833 219.483 210.593 219.853 210.363 220.223C210.133 220.593 209.893 220.993 209.653 221.343C207.876 223.846 205.849 226.161 203.603 228.253C199.667 231.853 195.42 235.099 190.913 237.953C182.452 243.293 173.593 247.974 164.413 251.953C159.893 253.953 155.353 255.813 150.733 257.513C146.113 259.213 141.513 260.863 136.843 262.373C132.173 263.883 127.463 265.253 122.703 266.483C119.623 267.283 116.523 268.043 113.383 268.703C113.141 268.747 112.891 268.707 112.674 268.59C112.457 268.474 112.286 268.287 112.189 268.061C112.092 267.835 112.074 267.583 112.138 267.345C112.202 267.108 112.345 266.899 112.543 266.753Z" stroke="url(#paint7_linear_862_12471)" stroke-width="2" stroke-miterlimit="10"/>
<g filter="url(#filter2_f_862_12471)">
<circle cx="118" cy="298" r="50" fill="#E66200" fill-opacity="0.7"/>
</g>
<g filter="url(#filter3_f_862_12471)">
<circle cx="365" cy="298" r="50" fill="#E66200" fill-opacity="0.7"/>
</g>
<path d="M277.61 384.87L244.11 365.66C243.307 365.203 242.399 364.963 241.475 364.963C240.551 364.963 239.643 365.203 238.84 365.66L205.34 384.86C204.274 385.475 203.027 385.698 201.814 385.49C200.601 385.281 199.5 384.655 198.7 383.72L175.5 356.72C174.86 355.978 174.026 355.429 173.093 355.132C172.159 354.836 171.161 354.804 170.21 355.04L131.81 364.55C130.6 364.852 129.322 364.716 128.203 364.167C127.083 363.618 126.193 362.691 125.69 361.55L109.46 324.55C109.175 323.912 109.019 323.225 109.002 322.526C108.984 321.828 109.106 321.133 109.358 320.482C109.611 319.831 109.991 319.237 110.475 318.733C110.96 318.23 111.539 317.828 112.18 317.55L127.4 310.87C128.038 310.588 128.726 310.434 129.423 310.418C130.121 310.402 130.815 310.524 131.465 310.776C132.115 311.029 132.709 311.408 133.213 311.891C133.717 312.373 134.12 312.951 134.4 313.59L141.4 329.59C141.903 330.731 142.793 331.658 143.913 332.207C145.032 332.756 146.31 332.892 147.52 332.59L179.92 324.59C180.872 324.355 181.87 324.388 182.804 324.687C183.738 324.985 184.571 325.537 185.21 326.28L204.66 348.98C205.465 349.911 206.568 350.534 207.781 350.742C208.994 350.95 210.241 350.73 211.31 350.12L238.84 334.34C239.642 333.878 240.55 333.636 241.475 333.636C242.4 333.636 243.309 333.878 244.11 334.34L271.65 350.12C272.715 350.731 273.96 350.951 275.17 350.743C276.38 350.535 277.48 349.911 278.28 348.98L297.74 326.36C298.379 325.617 299.212 325.065 300.146 324.767C301.08 324.468 302.078 324.435 303.03 324.67L335.43 332.67C336.64 332.972 337.918 332.836 339.038 332.287C340.157 331.738 341.047 330.811 341.55 329.67L348.55 313.67C348.828 313.029 349.23 312.45 349.733 311.965C350.237 311.481 350.831 311.102 351.482 310.849C352.133 310.596 352.828 310.474 353.526 310.492C354.225 310.509 354.912 310.665 355.55 310.95L370.77 317.62C371.41 317.899 371.989 318.302 372.472 318.805C372.956 319.309 373.335 319.903 373.588 320.554C373.841 321.204 373.962 321.899 373.945 322.597C373.929 323.295 373.774 323.982 373.49 324.62L357.25 361.62C356.749 362.761 355.861 363.687 354.743 364.236C353.625 364.785 352.349 364.921 351.14 364.62L312.73 355.11C311.781 354.875 310.785 354.907 309.852 355.203C308.92 355.5 308.089 356.049 307.45 356.79L284.25 383.79C283.438 384.709 282.333 385.319 281.123 385.516C279.913 385.713 278.671 385.484 277.61 384.87Z" fill="url(#paint8_radial_862_12471)"/>
<path d="M277.61 384.87L244.11 365.66C243.307 365.203 242.399 364.963 241.475 364.963C240.551 364.963 239.643 365.203 238.84 365.66L205.34 384.86C204.274 385.475 203.027 385.698 201.814 385.49C200.601 385.281 199.5 384.655 198.7 383.72L175.5 356.72C174.86 355.978 174.026 355.429 173.093 355.132C172.159 354.836 171.161 354.804 170.21 355.04L131.81 364.55C130.6 364.852 129.322 364.716 128.203 364.167C127.083 363.618 126.193 362.691 125.69 361.55L109.46 324.55C109.175 323.912 109.019 323.225 109.002 322.526C108.984 321.828 109.106 321.133 109.358 320.482C109.611 319.831 109.991 319.237 110.475 318.733C110.96 318.23 111.539 317.828 112.18 317.55L127.4 310.87C128.038 310.588 128.726 310.434 129.423 310.418C130.121 310.402 130.815 310.524 131.465 310.776C132.115 311.029 132.709 311.408 133.213 311.891C133.717 312.373 134.12 312.951 134.4 313.59L141.4 329.59C141.903 330.731 142.793 331.658 143.913 332.207C145.032 332.756 146.31 332.892 147.52 332.59L179.92 324.59C180.872 324.355 181.87 324.388 182.804 324.687C183.738 324.985 184.571 325.537 185.21 326.28L204.66 348.98C205.465 349.911 206.568 350.534 207.781 350.742C208.994 350.95 210.241 350.73 211.31 350.12L238.84 334.34C239.642 333.879 240.55 333.636 241.475 333.636C242.4 333.636 243.309 333.879 244.11 334.34L271.65 350.12C272.715 350.731 273.96 350.951 275.17 350.743C276.38 350.535 277.48 349.911 278.28 348.98L297.74 326.36C298.379 325.617 299.212 325.065 300.146 324.767C301.08 324.468 302.078 324.435 303.03 324.67L335.43 332.67C336.64 332.972 337.918 332.836 339.038 332.287C340.157 331.738 341.047 330.811 341.55 329.67L348.55 313.67C348.828 313.029 349.23 312.45 349.733 311.965C350.237 311.481 350.831 311.102 351.482 310.849C352.133 310.596 352.828 310.474 353.526 310.492C354.225 310.509 354.912 310.665 355.55 310.95L370.77 317.62C371.41 317.899 371.989 318.302 372.472 318.805C372.956 319.309 373.335 319.903 373.588 320.554C373.841 321.204 373.962 321.899 373.945 322.597C373.929 323.295 373.774 323.982 373.49 324.62L357.25 361.62C356.749 362.761 355.861 363.687 354.743 364.236C353.625 364.785 352.349 364.921 351.14 364.62L312.73 355.11C311.781 354.875 310.785 354.907 309.852 355.203C308.92 355.5 308.089 356.049 307.45 356.79L284.25 383.79C283.438 384.709 282.333 385.319 281.123 385.516C279.913 385.713 278.671 385.484 277.61 384.87V384.87Z" stroke="url(#paint9_linear_862_12471)" stroke-width="2.5" stroke-miterlimit="10"/>
<mask id="mask1_862_12471" style="mask-type:alpha" maskUnits="userSpaceOnUse" x="0" y="0" width="483" height="483">
<path d="M241.18 482.36C374.38 482.36 482.36 374.38 482.36 241.18C482.36 107.98 374.38 0 241.18 0C107.98 0 0 107.98 0 241.18C0 374.38 107.98 482.36 241.18 482.36Z" fill="url(#paint10_radial_862_12471)"/>
</mask>
<g mask="url(#mask1_862_12471)">
<g filter="url(#filter4_f_862_12471)">
<path d="M19.9353 375.157C50.4292 365.191 160.159 326.634 229.766 266.991C242.637 255.967 262.568 264.308 263.646 281.219C266.224 322.065 256.095 395.493 187.43 504.024C187.128 504.503 186.732 504.916 186.268 505.24C185.803 505.563 185.278 505.79 184.724 505.908C184.17 506.025 183.598 506.031 183.042 505.923C182.485 505.816 181.956 505.599 181.486 505.284C165.825 494.818 101.518 456.29 45.0519 486.881C44.2818 487.307 43.3987 487.483 42.5242 487.386C41.6497 487.288 40.827 486.922 40.1695 486.337C39.512 485.753 39.0521 484.978 38.8532 484.121C38.6542 483.264 38.7261 482.366 39.0589 481.552C48.0532 459.349 59.1926 414.059 18.627 382.545C18.0209 382.069 17.5553 381.438 17.2802 380.718C17.0051 379.998 16.9308 379.217 17.0651 378.458C17.1995 377.7 17.5375 376.992 18.043 376.41C18.5486 375.828 19.2026 375.395 19.9353 375.157Z" fill="#A53C00"/>
</g>
</g>
<path d="M3.05139 359.92C34.7514 349.56 148.821 309.48 221.181 247.48C234.561 236.02 255.281 244.69 256.401 262.27C259.081 304.73 248.551 381.06 177.171 493.88C176.857 494.378 176.446 494.808 175.963 495.144C175.479 495.48 174.934 495.717 174.358 495.839C173.782 495.961 173.187 495.966 172.609 495.855C172.031 495.744 171.481 495.518 170.991 495.19C154.711 484.31 87.8614 444.26 29.1614 476.06C28.3609 476.503 27.4428 476.686 26.5338 476.585C25.6247 476.483 24.7695 476.103 24.0859 475.495C23.4024 474.887 22.9243 474.082 22.7175 473.191C22.5107 472.3 22.5855 471.367 22.9314 470.52C32.2814 447.44 43.8614 400.36 1.69139 367.6C1.06124 367.106 0.577306 366.449 0.291319 365.701C0.00533172 364.953 -0.0719566 364.141 0.0677151 363.352C0.207387 362.564 0.558768 361.828 1.0843 361.223C1.60983 360.619 2.28975 360.168 3.05139 359.92Z" fill="url(#paint11_linear_862_12471)"/>
<mask id="mask2_862_12471" style="mask-type:alpha" maskUnits="userSpaceOnUse" x="0" y="242" width="257" height="254">
<path d="M3.05139 359.92C34.7514 349.56 148.821 309.48 221.181 247.48C234.561 236.02 255.281 244.69 256.401 262.27C259.081 304.73 248.551 381.06 177.171 493.88C176.857 494.378 176.446 494.808 175.963 495.144C175.479 495.48 174.934 495.717 174.358 495.839C173.782 495.961 173.187 495.966 172.609 495.855C172.031 495.744 171.481 495.518 170.991 495.19C154.711 484.31 87.8614 444.26 29.1614 476.06C28.3609 476.503 27.4428 476.686 26.5338 476.585C25.6247 476.483 24.7695 476.103 24.0859 475.495C23.4024 474.887 22.9243 474.082 22.7175 473.191C22.5107 472.3 22.5855 471.367 22.9314 470.52C32.2814 447.44 43.8614 400.36 1.69139 367.6C1.06124 367.106 0.577306 366.449 0.291319 365.701C0.00533172 364.953 -0.0719566 364.141 0.0677151 363.352C0.207387 362.564 0.558768 361.828 1.0843 361.223C1.60983 360.619 2.28975 360.168 3.05139 359.92Z" fill="url(#paint12_linear_862_12471)"/>
</mask>
<g mask="url(#mask2_862_12471)">
<g filter="url(#filter5_f_862_12471)">
<path d="M1.28223 361.27C22.6822 353.87 43.7822 345.77 64.5822 336.869C85.3822 328.069 105.882 318.57 125.882 308.07C145.882 297.57 165.482 286.27 184.082 273.57L187.582 271.17C188.782 270.37 189.882 269.57 191.082 268.77L197.882 263.77L204.682 258.77L211.182 253.47L217.682 248.17L219.382 246.77C219.982 246.27 220.582 245.87 221.282 245.47C222.582 244.67 223.882 243.97 225.382 243.47C231.082 241.27 237.582 241.57 243.082 244.17C248.582 246.67 253.082 251.57 254.982 257.27C255.482 258.67 255.782 260.17 255.982 261.67C256.182 263.17 256.182 264.57 256.282 266.07C256.382 268.87 256.582 271.77 256.482 274.57V278.87V280.97L256.382 283.07C256.182 285.87 256.082 288.77 255.882 291.57L255.082 300.07C254.982 301.47 254.782 302.869 254.582 304.27L253.982 308.47L253.382 312.67C253.182 314.07 252.882 315.469 252.682 316.869L251.182 325.27C250.582 328.07 249.882 330.77 249.282 333.57C248.682 336.37 248.082 339.069 247.282 341.869C245.782 347.369 244.382 352.87 242.582 358.27L239.982 366.369C239.582 367.77 239.082 369.07 238.582 370.37L237.082 374.37C229.382 395.67 220.082 416.37 209.782 436.57L201.682 451.47C200.982 452.67 200.382 453.97 199.682 455.17L197.582 458.87L193.282 466.17L188.982 473.47C187.582 475.87 185.982 478.27 184.482 480.67L175.382 494.969C186.982 475.57 198.282 455.97 208.282 435.77C218.282 415.57 227.282 394.77 234.682 373.47C241.982 352.17 247.982 330.37 250.982 308.07L251.582 303.869C251.782 302.469 251.982 301.07 252.082 299.67L252.882 291.27C253.082 288.47 253.182 285.67 253.282 282.87L253.382 280.77V278.67V274.47C253.482 271.67 253.282 268.87 253.182 266.07C253.082 264.67 253.082 263.27 252.882 261.97C252.682 260.67 252.382 259.37 251.982 258.17C250.282 253.17 246.482 249.07 241.682 246.87C236.982 244.67 231.282 244.37 226.382 246.17C225.182 246.67 223.982 247.27 222.882 247.87C222.382 248.27 221.782 248.57 221.282 248.97L219.682 250.27L213.082 255.57L206.482 260.87L199.582 265.87L192.682 270.87C191.582 271.77 190.382 272.47 189.182 273.27L185.682 275.67C166.882 288.27 147.182 299.669 126.982 309.869C106.782 320.069 86.0823 329.369 65.1823 337.869C59.8823 339.969 54.6822 342.07 49.3822 344.07C44.0822 346.07 38.7822 348.07 33.4822 349.97C28.1822 351.87 22.7822 353.769 17.4822 355.569C12.0822 357.769 6.68223 359.57 1.28223 361.27Z" fill="black"/>
</g>
</g>
<mask id="mask3_862_12471" style="mask-type:alpha" maskUnits="userSpaceOnUse" x="0" y="242" width="257" height="254">
<path d="M3.05139 359.92C34.7514 349.56 148.821 309.48 221.181 247.48C234.561 236.02 255.281 244.69 256.401 262.27C259.081 304.73 248.551 381.06 177.171 493.88C176.857 494.378 176.446 494.808 175.963 495.144C175.479 495.48 174.934 495.717 174.358 495.839C173.782 495.961 173.187 495.966 172.609 495.855C172.031 495.744 171.481 495.518 170.991 495.19C154.711 484.31 87.8614 444.26 29.1614 476.06C28.3609 476.503 27.4428 476.686 26.5338 476.585C25.6247 476.483 24.7695 476.103 24.0859 475.495C23.4024 474.887 22.9243 474.082 22.7175 473.191C22.5107 472.3 22.5855 471.367 22.9314 470.52C32.2814 447.44 43.8614 400.36 1.69139 367.6C1.06124 367.106 0.577306 366.449 0.291319 365.701C0.00533172 364.953 -0.0719566 364.141 0.0677151 363.352C0.207387 362.564 0.558768 361.828 1.0843 361.223C1.60983 360.619 2.28975 360.168 3.05139 359.92Z" fill="url(#paint13_linear_862_12471)"/>
</mask>
<g mask="url(#mask3_862_12471)">
<g filter="url(#filter6_f_862_12471)">
<path d="M177.793 493.8C177.093 495.1 175.593 496.1 173.893 496.2C173.093 496.2 172.293 496 171.493 495.6L169.493 494.5C166.893 493 164.193 491.6 161.493 490.2C156.093 487.4 150.693 484.8 145.093 482.5C139.593 480.1 133.893 478 128.293 476.1C122.593 474.2 116.893 472.6 110.993 471.3C99.3927 468.8 87.4927 467.2 75.7927 467.8C69.8927 468.1 64.0928 468.7 58.3928 469.8C52.6928 471 47.0928 472.7 41.6928 474.8L37.6928 476.5C36.3928 477.1 35.0927 477.8 33.7927 478.4L31.7927 479.4L31.4927 479.6L30.9927 479.8C30.6927 479.9 30.3927 480.1 29.9927 480.2C29.2927 480.4 28.5928 480.5 27.8928 480.5C24.9928 480.6 22.1928 479 20.6928 476.7C19.8928 475.5 19.4928 474.1 19.3928 472.6C19.3928 471.9 19.4928 471.2 19.5928 470.5C19.6928 470.2 19.7928 469.8 19.8928 469.5L20.0928 469.1L20.1928 468.8C20.7928 467.4 21.2927 466.1 21.7927 464.7C22.7927 461.9 23.6928 459.1 24.5928 456.3C26.2928 450.7 27.5928 444.9 28.3928 439.1C28.7928 436.2 28.9928 433.3 29.1928 430.3C29.2928 427.4 29.3928 424.4 29.1928 421.5C29.0928 418.6 28.6928 415.7 28.1928 412.8C27.6928 409.9 26.9928 407.1 26.1928 404.3C24.4928 398.7 22.1928 393.3 19.0928 388.2C16.0928 383.1 12.3928 378.4 8.19276 374.1C7.09276 373 6.09275 371.9 4.99275 370.9L3.29274 369.4L2.49275 368.6C2.19275 368.3 1.89278 368.1 1.59278 367.8C0.392784 366.6 -0.00725263 364.7 0.492747 363.1C0.892747 361.5 2.19276 360.3 3.69276 360C2.29276 360.6 1.29278 361.9 1.09278 363.3C0.892784 364.7 1.39277 366.1 2.39277 367C2.59277 367.2 2.99274 367.4 3.29274 367.7L4.19276 368.4L6.09278 369.8C7.29278 370.7 8.49276 371.7 9.69276 372.7C14.3928 376.7 18.5927 381.3 22.2927 386.3C25.8927 391.4 28.7927 397 30.9927 402.9C33.1927 408.8 34.4928 415 35.1928 421.3C35.5928 424.4 35.6928 427.6 35.6928 430.7C35.6928 433.8 35.4928 437 35.1928 440.1C34.4928 446.3 33.3928 452.5 31.6928 458.5C30.8928 461.5 29.8928 464.5 28.8928 467.4C28.3928 468.9 27.7927 470.3 27.2927 471.8H27.1928C27.1928 471.9 27.1928 471.9 27.1928 471.9V472C27.1928 472.1 27.1928 472.1 27.1928 472.1C27.1928 472.2 27.1927 472.2 27.2927 472.3C27.3927 472.5 27.6927 472.6 27.7927 472.6H27.8928H27.9927L28.0928 472.5L30.1928 471.4C31.5928 470.7 32.9928 469.9 34.3928 469.3L38.7927 467.4C44.6927 465.1 50.7928 463.3 56.8928 462.1C63.0928 461 69.3928 460.3 75.5928 460.2C81.8928 460.1 88.0927 460.6 94.2927 461.4C100.493 462.2 106.593 463.5 112.493 465.2C124.393 468.5 135.893 473.2 146.793 478.9C152.193 481.8 157.493 484.8 162.593 488.2C165.193 489.9 167.693 491.6 170.093 493.4L171.893 494.8C172.493 495.2 173.093 495.4 173.793 495.5C175.393 495.7 176.893 495 177.793 493.8Z" fill="white"/>
</g>
</g>
<mask id="mask4_862_12471" style="mask-type:alpha" maskUnits="userSpaceOnUse" x="0" y="242" width="257" height="254">
<path d="M3.05139 359.92C34.7514 349.56 148.821 309.48 221.181 247.48C234.561 236.02 255.281 244.69 256.401 262.27C259.081 304.73 248.551 381.06 177.171 493.88C176.857 494.378 176.446 494.808 175.963 495.144C175.479 495.48 174.934 495.717 174.358 495.839C173.782 495.961 173.187 495.966 172.609 495.855C172.031 495.744 171.481 495.518 170.991 495.19C154.711 484.31 87.8614 444.26 29.1614 476.06C28.3609 476.503 27.4428 476.686 26.5338 476.585C25.6247 476.483 24.7695 476.103 24.0859 475.495C23.4024 474.887 22.9243 474.082 22.7175 473.191C22.5107 472.3 22.5855 471.367 22.9314 470.52C32.2814 447.44 43.8614 400.36 1.69139 367.6C1.06124 367.106 0.577306 366.449 0.291319 365.701C0.00533172 364.953 -0.0719566 364.141 0.0677151 363.352C0.207387 362.564 0.558768 361.828 1.0843 361.223C1.60983 360.619 2.28975 360.168 3.05139 359.92Z" fill="url(#paint14_linear_862_12471)"/>
</mask>
<g mask="url(#mask4_862_12471)">
<g filter="url(#filter7_f_862_12471)">
<path d="M92.2822 465.3C92.2822 465.3 168.582 409.1 207.782 316C207.782 316 219.582 366.2 142.482 479.3L92.2822 465.3Z" fill="#CCCCCC"/>
<path d="M-11.5178 458.5C-11.5178 458.5 97.5822 432.4 183.782 316C183.782 316 72.6822 394.3 -29.7178 408L-11.5178 458.5Z" fill="#CCCCCC"/>
</g>
<g filter="url(#filter8_f_862_12471)">
<path d="M92.2822 465.3C92.2822 465.3 168.582 409.1 207.782 316C207.782 316 219.582 366.2 142.482 479.3L92.2822 465.3Z" fill="#CCCCCC"/>
<path d="M-11.5178 458.5C-11.5178 458.5 97.5822 432.4 183.782 316C183.782 316 72.6822 394.3 -29.7178 408L-11.5178 458.5Z" fill="#CCCCCC"/>
</g>
</g>
<defs>
<filter id="filter0_f_862_12471" x="-26.8145" y="206.558" width="535.021" height="306.595" filterUnits="userSpaceOnUse" color-interpolation-filters="sRGB">
<feFlood flood-opacity="0" result="BackgroundImageFix"/>
<feBlend mode="normal" in="SourceGraphic" in2="BackgroundImageFix" result="shape"/>
<feGaussianBlur stdDeviation="12.5" result="effect1_foregroundBlur_862_12471"/>
</filter>
<filter id="filter1_f_862_12471" x="-41.8145" y="191.558" width="565.021" height="336.595" filterUnits="userSpaceOnUse" color-interpolation-filters="sRGB">
<feFlood flood-opacity="0" result="BackgroundImageFix"/>
<feBlend mode="normal" in="SourceGraphic" in2="BackgroundImageFix" result="shape"/>
<feGaussianBlur stdDeviation="20" result="effect1_foregroundBlur_862_12471"/>
</filter>
<filter id="filter2_f_862_12471" x="8" y="188" width="220" height="220" filterUnits="userSpaceOnUse" color-interpolation-filters="sRGB">
<feFlood flood-opacity="0" result="BackgroundImageFix"/>
<feBlend mode="normal" in="SourceGraphic" in2="BackgroundImageFix" result="shape"/>
<feGaussianBlur stdDeviation="30" result="effect1_foregroundBlur_862_12471"/>
</filter>
<filter id="filter3_f_862_12471" x="255" y="188" width="220" height="220" filterUnits="userSpaceOnUse" color-interpolation-filters="sRGB">
<feFlood flood-opacity="0" result="BackgroundImageFix"/>
<feBlend mode="normal" in="SourceGraphic" in2="BackgroundImageFix" result="shape"/>
<feGaussianBlur stdDeviation="30" result="effect1_foregroundBlur_862_12471"/>
</filter>
<filter id="filter4_f_862_12471" x="-23" y="222" width="327" height="324" filterUnits="userSpaceOnUse" color-interpolation-filters="sRGB">
<feFlood flood-opacity="0" result="BackgroundImageFix"/>
<feBlend mode="normal" in="SourceGraphic" in2="BackgroundImageFix" result="shape"/>
<feGaussianBlur stdDeviation="20" result="effect1_foregroundBlur_862_12471"/>
</filter>
<filter id="filter5_f_862_12471" x="-28.7178" y="212" width="315.228" height="312.969" filterUnits="userSpaceOnUse" color-interpolation-filters="sRGB">
<feFlood flood-opacity="0" result="BackgroundImageFix"/>
<feBlend mode="normal" in="SourceGraphic" in2="BackgroundImageFix" result="shape"/>
<feGaussianBlur stdDeviation="15" result="effect1_foregroundBlur_862_12471"/>
</filter>
<filter id="filter6_f_862_12471" x="-14.7178" y="345" width="207.511" height="166.2" filterUnits="userSpaceOnUse" color-interpolation-filters="sRGB">
<feFlood flood-opacity="0" result="BackgroundImageFix"/>
<feBlend mode="normal" in="SourceGraphic" in2="BackgroundImageFix" result="shape"/>
<feGaussianBlur stdDeviation="7.5" result="effect1_foregroundBlur_862_12471"/>
</filter>
<filter id="filter7_f_862_12471" x="-69.7178" y="276" width="318.148" height="243.3" filterUnits="userSpaceOnUse" color-interpolation-filters="sRGB">
<feFlood flood-opacity="0" result="BackgroundImageFix"/>
<feBlend mode="normal" in="SourceGraphic" in2="BackgroundImageFix" result="shape"/>
<feGaussianBlur stdDeviation="20" result="effect1_foregroundBlur_862_12471"/>
</filter>
<filter id="filter8_f_862_12471" x="-49.7178" y="296" width="278.148" height="203.3" filterUnits="userSpaceOnUse" color-interpolation-filters="sRGB">
<feFlood flood-opacity="0" result="BackgroundImageFix"/>
<feBlend mode="normal" in="SourceGraphic" in2="BackgroundImageFix" result="shape"/>
<feGaussianBlur stdDeviation="10" result="effect1_foregroundBlur_862_12471"/>
</filter>
<radialGradient id="paint0_radial_862_12471" cx="0" cy="0" r="1" gradientUnits="userSpaceOnUse" gradientTransform="translate(241 -4.53898e-06) rotate(90) scale(482)">
<stop stop-color="#FFDE43"/>
<stop offset="1" stop-color="#FFBC00"/>
</radialGradient>
<radialGradient id="paint1_radial_862_12471" cx="0" cy="0" r="1" gradientUnits="userSpaceOnUse" gradientTransform="translate(241 64.5) rotate(90) scale(417.5)">
<stop stop-color="white" stop-opacity="0.5"/>
<stop offset="0.782278"/>
</radialGradient>
<radialGradient id="paint2_radial_862_12471" cx="0" cy="0" r="1" gradientUnits="userSpaceOnUse" gradientTransform="translate(241 64.5) rotate(90) scale(417.5)">
<stop stop-color="white" stop-opacity="0.5"/>
<stop offset="0.782278"/>
</radialGradient>
<radialGradient id="paint3_radial_862_12471" cx="0" cy="0" r="1" gradientUnits="userSpaceOnUse" gradientTransform="translate(241 -52.5) rotate(90) scale(534.5 722.835)">
<stop offset="0.0922635" stop-color="white"/>
<stop offset="0.670207" stop-color="white" stop-opacity="0"/>
</radialGradient>
<radialGradient id="paint4_radial_862_12471" cx="0" cy="0" r="1" gradientUnits="userSpaceOnUse" gradientTransform="translate(319.054 209.327) scale(64.8576 59.4566)">
<stop stop-color="#743C1C"/>
<stop offset="1" stop-color="#401C02"/>
</radialGradient>
<linearGradient id="paint5_linear_862_12471" x1="319.125" y1="272.06" x2="319.125" y2="146.193" gradientUnits="userSpaceOnUse">
<stop stop-color="#FFDE43"/>
<stop offset="0.22" stop-color="#FED93F"/>
<stop offset="0.51" stop-color="#FCC934"/>
<stop offset="0.82" stop-color="#F9AF21"/>
<stop offset="1" stop-color="#F79D14"/>
</linearGradient>
<radialGradient id="paint6_radial_862_12471" cx="0" cy="0" r="1" gradientUnits="userSpaceOnUse" gradientTransform="translate(162.949 209.406) rotate(-180) scale(64.8576 59.4566)">
<stop stop-color="#743C1C"/>
<stop offset="1" stop-color="#401C02"/>
</radialGradient>
<linearGradient id="paint7_linear_862_12471" x1="162.878" y1="146.673" x2="162.878" y2="272.54" gradientUnits="userSpaceOnUse">
<stop stop-color="#FFDE43"/>
<stop offset="0.22" stop-color="#FED93F"/>
<stop offset="0.51" stop-color="#FCC934"/>
<stop offset="0.82" stop-color="#F9AF21"/>
<stop offset="1" stop-color="#F79D14"/>
</linearGradient>
<radialGradient id="paint8_radial_862_12471" cx="0" cy="0" r="1" gradientUnits="userSpaceOnUse" gradientTransform="translate(241.473 347.849) scale(99.9941 75.9239)">
<stop stop-color="#743C1C"/>
<stop offset="1" stop-color="#401C02"/>
</radialGradient>
<linearGradient id="paint9_linear_862_12471" x1="241.473" y1="387.7" x2="241.473" y2="307.998" gradientUnits="userSpaceOnUse">
<stop offset="0.265625" stop-color="#FFDE43"/>
<stop offset="1" stop-color="#F79D14"/>
</linearGradient>
<radialGradient id="paint10_radial_862_12471" cx="0" cy="0" r="1" gradientUnits="userSpaceOnUse" gradientTransform="translate(241 -4.53898e-06) rotate(90) scale(482)">
<stop stop-color="#FFDE43"/>
<stop offset="1" stop-color="#FFBC00"/>
</radialGradient>
<linearGradient id="paint11_linear_862_12471" x1="1.01368" y1="351.847" x2="249.162" y2="372.902" gradientUnits="userSpaceOnUse">
<stop stop-color="white"/>
<stop offset="1" stop-color="#E7E7E3"/>
</linearGradient>
<linearGradient id="paint12_linear_862_12471" x1="1.01368" y1="351.847" x2="249.162" y2="372.902" gradientUnits="userSpaceOnUse">
<stop stop-color="white"/>
<stop offset="1" stop-color="#E7E7E3"/>
</linearGradient>
<linearGradient id="paint13_linear_862_12471" x1="1.01368" y1="351.847" x2="249.162" y2="372.902" gradientUnits="userSpaceOnUse">
<stop stop-color="white"/>
<stop offset="1" stop-color="#E7E7E3"/>
</linearGradient>
<linearGradient id="paint14_linear_862_12471" x1="1.01368" y1="351.847" x2="249.162" y2="372.902" gradientUnits="userSpaceOnUse">
<stop stop-color="white"/>
<stop offset="1" stop-color="#E7E7E3"/>
</linearGradient>
</defs>
</svg>
