<svg width="483" height="519" viewBox="0 0 483 519" fill="none" xmlns="http://www.w3.org/2000/svg">
<path d="M241.18 482.36C374.38 482.36 482.36 374.38 482.36 241.18C482.36 107.98 374.38 0 241.18 0C107.98 0 0 107.98 0 241.18C0 374.38 107.98 482.36 241.18 482.36Z" fill="url(#paint0_radial_862_12506)"/>
<g style="mix-blend-mode:soft-light">
<path d="M241.18 482.36C374.38 482.36 482.36 374.38 482.36 241.18C482.36 107.98 374.38 0 241.18 0C107.98 0 0 107.98 0 241.18C0 374.38 107.98 482.36 241.18 482.36Z" fill="url(#paint1_radial_862_12506)"/>
</g>
<g style="mix-blend-mode:soft-light">
<path d="M241.18 482.36C374.38 482.36 482.36 374.38 482.36 241.18C482.36 107.98 374.38 0 241.18 0C107.98 0 0 107.98 0 241.18C0 374.38 107.98 482.36 241.18 482.36Z" fill="url(#paint2_radial_862_12506)"/>
</g>
<g style="mix-blend-mode:overlay">
<path d="M241.18 482.36C374.38 482.36 482.36 374.38 482.36 241.18C482.36 107.98 374.38 0 241.18 0C107.98 0 0 107.98 0 241.18C0 374.38 107.98 482.36 241.18 482.36Z" fill="url(#paint3_radial_862_12506)" fill-opacity="0.7"/>
</g>
<mask id="mask0_862_12506" style="mask-type:alpha" maskUnits="userSpaceOnUse" x="0" y="0" width="483" height="483">
<path d="M241.18 482.36C374.38 482.36 482.36 374.38 482.36 241.18C482.36 107.98 374.38 0 241.18 0C107.98 0 0 107.98 0 241.18C0 374.38 107.98 482.36 241.18 482.36Z" fill="white"/>
</mask>
<g mask="url(#mask0_862_12506)">
<g filter="url(#filter0_f_862_12506)">
<path d="M-1.3759 234.299C-1.11402 230.872 0.0137008 230.529 0.342619 234.008C0.708055 237.874 -0.00231624 245.646 0.16871 250.335C0.621554 262.748 2.52441 273.541 4.48605 282.32C10.8075 310.612 19.5617 328.843 27.7268 344.288C54.5663 395.06 83.9667 420.77 112.648 440.147C154.689 468.549 197.072 477.584 239.49 479.5C240.56 479.548 240.738 486.518 239.686 487.425C237.788 489.061 235.436 487.437 233.494 487.369C227.915 487.174 222.335 486.791 216.756 486.211C200.213 484.492 183.67 480.991 167.162 475.358C122.275 460.044 73.8765 433.821 31.6092 359.962C28.9502 355.316 26.3124 350.424 23.7118 345.167C21.6321 340.963 19.5726 336.556 17.5493 331.843C10.8946 316.342 -4.61323 276.658 -1.3759 234.299ZM239.52 487.5C238.499 487.531 238.241 481.034 239.214 479.685C240.684 477.647 242.888 479.326 244.439 479.229C250.877 478.826 257.314 478.229 263.75 477.421C281.395 475.205 299.028 471.422 316.621 465.596C360.257 451.145 407.17 429.115 448.305 361.431C450.923 357.123 453.518 352.553 456.079 347.641C463.86 332.712 483.361 293.084 481.107 243.821C480.917 239.668 482.181 237.181 482.747 240.743C483.467 245.279 483.175 254.736 482.977 259.768C482.341 275.883 479.866 289.512 477.257 300.518C468.987 335.399 457.376 355.623 446.744 372.51C412.184 427.397 374.648 449.524 338.155 465.424C305.424 479.686 272.444 486.484 239.52 487.5Z" fill="#401C02"/>
</g>
<g filter="url(#filter1_f_862_12506)">
<path d="M-1.3759 234.299C-1.11402 230.872 0.0137008 230.529 0.342619 234.008C0.708055 237.874 -0.00231624 245.646 0.16871 250.335C0.621554 262.748 2.52441 273.541 4.48605 282.32C10.8075 310.612 19.5617 328.843 27.7268 344.288C54.5663 395.06 83.9667 420.77 112.648 440.147C154.689 468.549 197.072 477.584 239.49 479.5C240.56 479.548 240.738 486.518 239.686 487.425C237.788 489.061 235.436 487.437 233.494 487.369C227.915 487.174 222.335 486.791 216.756 486.211C200.213 484.492 183.67 480.991 167.162 475.358C122.275 460.044 73.8765 433.821 31.6092 359.962C28.9502 355.316 26.3124 350.424 23.7118 345.167C21.6321 340.963 19.5726 336.556 17.5493 331.843C10.8946 316.342 -4.61323 276.658 -1.3759 234.299ZM239.52 487.5C238.499 487.531 238.241 481.034 239.214 479.685C240.684 477.647 242.888 479.326 244.439 479.229C250.877 478.826 257.314 478.229 263.75 477.421C281.395 475.205 299.028 471.422 316.621 465.596C360.257 451.145 407.17 429.115 448.305 361.431C450.923 357.123 453.518 352.553 456.079 347.641C463.86 332.712 483.361 293.084 481.107 243.821C480.917 239.668 482.181 237.181 482.747 240.743C483.467 245.279 483.175 254.736 482.977 259.768C482.341 275.883 479.866 289.512 477.257 300.518C468.987 335.399 457.376 355.623 446.744 372.51C412.184 427.397 374.648 449.524 338.155 465.424C305.424 479.686 272.444 486.484 239.52 487.5Z" fill="#401C02"/>
</g>
</g>
<path d="M101.651 274.851C104.491 273.084 107.344 271.351 110.211 269.651C114.611 267.001 119.031 264.431 123.431 261.851L136.621 254.211L149.671 246.591C158.281 241.501 166.801 236.361 174.611 230.951C178.315 228.427 181.843 225.654 185.171 222.651C186.162 221.734 187.097 220.759 187.971 219.731C188.297 219.457 188.56 219.116 188.741 218.731C188.917 218.344 189.009 217.925 189.011 217.501C189.012 217.083 188.924 216.671 188.751 216.291C188.544 215.837 188.232 215.439 187.841 215.131C187.002 214.137 186.1 213.198 185.141 212.321C181.814 209.316 178.282 206.546 174.571 204.031C166.771 198.621 158.241 193.491 149.641 188.391L136.641 180.781L123.451 173.131C119.061 170.551 114.631 167.981 110.231 165.321C107.357 163.614 104.494 161.874 101.641 160.101C101.376 159.979 101.17 159.756 101.068 159.483C100.967 159.209 100.979 158.906 101.101 158.641C101.223 158.375 101.445 158.17 101.719 158.068C101.993 157.967 102.296 157.979 102.561 158.101C105.971 158.751 109.331 159.511 112.681 160.311C117.831 161.541 122.911 162.931 127.971 164.411C130.501 165.161 132.971 165.961 135.511 166.751C138.051 167.541 140.511 168.411 142.991 169.261C147.971 170.981 152.897 172.841 157.771 174.841C167.656 178.787 177.233 183.466 186.421 188.841C191.266 191.676 195.856 194.924 200.141 198.551C202.554 200.625 204.746 202.944 206.681 205.471C206.941 205.811 207.191 206.211 207.451 206.581C207.711 206.951 207.951 207.321 208.191 207.761L208.911 209.021C209.131 209.481 209.361 209.961 209.571 210.431C210.587 212.624 211.114 215.013 211.114 217.431C211.114 219.848 210.587 222.237 209.571 224.431C209.351 224.911 209.131 225.381 208.901 225.851L208.191 227.111C207.941 227.541 207.691 227.911 207.441 228.291C207.191 228.671 206.931 229.051 206.671 229.401C204.741 231.929 202.549 234.245 200.131 236.311C195.844 239.934 191.253 243.182 186.411 246.021C177.219 251.387 167.643 256.067 157.761 260.021C152.871 262.021 147.971 263.881 142.981 265.591C137.991 267.301 132.981 268.931 127.981 270.441C122.981 271.951 117.841 273.321 112.691 274.551C109.361 275.351 106.011 276.111 102.621 276.771C102.374 276.848 102.108 276.836 101.87 276.735C101.632 276.635 101.437 276.453 101.321 276.222C101.204 275.992 101.173 275.727 101.234 275.476C101.294 275.225 101.442 275.003 101.651 274.851Z" fill="url(#paint4_radial_862_12506)"/>
<path d="M380.511 160.061C377.671 161.827 374.817 163.561 371.951 165.261C367.551 167.911 363.121 170.481 358.731 173.061L345.511 180.701L332.511 188.341C323.891 193.431 315.371 198.571 307.571 203.981C303.865 206.507 300.334 209.28 297.001 212.281C296.013 213.197 295.081 214.172 294.211 215.201C293.882 215.475 293.616 215.816 293.431 216.201C293.251 216.586 293.158 217.006 293.161 217.431C293.159 217.847 293.244 218.259 293.411 218.641C293.62 219.093 293.932 219.49 294.321 219.801C295.162 220.792 296.063 221.731 297.021 222.611C300.35 225.613 303.881 228.383 307.591 230.901C315.401 236.311 323.921 241.441 332.531 246.541L345.531 254.151L358.711 261.801C363.111 264.381 367.541 266.951 371.931 269.611C374.811 271.317 377.677 273.057 380.531 274.831C380.796 274.954 381.001 275.178 381.102 275.452C381.202 275.727 381.189 276.03 381.066 276.296C380.942 276.561 380.719 276.766 380.444 276.867C380.169 276.967 379.866 276.954 379.601 276.831C376.201 276.181 372.841 275.421 369.491 274.621C364.341 273.391 359.261 272.001 354.201 270.521C351.671 269.771 349.201 268.971 346.651 268.181C344.101 267.391 341.651 266.521 339.171 265.671C334.191 263.951 329.264 262.091 324.391 260.091C314.506 256.143 304.929 251.463 295.741 246.091C290.91 243.239 286.333 239.977 282.061 236.341C279.651 234.266 277.462 231.947 275.531 229.421C275.271 229.081 275.021 228.681 274.761 228.311C274.491 227.932 274.244 227.538 274.021 227.131L273.301 225.871C273.071 225.411 272.851 224.931 272.641 224.461C271.624 222.267 271.098 219.878 271.098 217.461C271.098 215.043 271.624 212.654 272.641 210.461C272.861 209.981 273.071 209.461 273.301 209.041L274.021 207.781C274.261 207.351 274.511 206.981 274.771 206.601C275.031 206.221 275.281 205.841 275.531 205.491C277.466 202.964 279.661 200.648 282.081 198.581C286.366 194.955 290.956 191.707 295.801 188.871C304.992 183.504 314.569 178.825 324.451 174.871C329.331 172.871 334.241 171.011 339.231 169.301C344.221 167.591 349.231 165.961 354.231 164.451C359.231 162.941 364.391 161.551 369.511 160.341C372.851 159.541 376.201 158.781 379.591 158.121C379.838 158.053 380.101 158.074 380.334 158.181C380.567 158.287 380.755 158.473 380.865 158.704C380.975 158.936 381 159.199 380.935 159.447C380.87 159.695 380.72 159.912 380.511 160.061Z" fill="url(#paint5_radial_862_12506)"/>
<path d="M101.651 274.851C104.491 273.084 107.344 271.351 110.211 269.651C114.611 267.001 119.031 264.431 123.431 261.851L136.621 254.211L149.671 246.591C158.281 241.501 166.801 236.361 174.611 230.951C178.315 228.427 181.843 225.654 185.171 222.651C186.162 221.734 187.097 220.759 187.971 219.731C188.297 219.457 188.56 219.116 188.741 218.731V218.731C188.917 218.344 189.009 217.925 189.011 217.501C189.012 217.083 188.924 216.671 188.751 216.291C188.544 215.837 188.232 215.439 187.841 215.131C187.002 214.137 186.1 213.198 185.141 212.321C181.814 209.316 178.282 206.546 174.571 204.031C166.771 198.621 158.241 193.491 149.641 188.391L136.641 180.781L123.451 173.131C119.061 170.551 114.631 167.981 110.231 165.321C107.357 163.614 104.494 161.874 101.641 160.101C101.376 159.979 101.17 159.756 101.068 159.483C100.967 159.209 100.979 158.906 101.101 158.641C101.223 158.375 101.445 158.17 101.719 158.068C101.993 157.967 102.296 157.979 102.561 158.101C105.971 158.751 109.331 159.511 112.681 160.311C117.831 161.541 122.911 162.931 127.971 164.411C130.501 165.161 132.971 165.961 135.511 166.751C138.051 167.541 140.511 168.411 142.991 169.261C147.971 170.981 152.897 172.841 157.771 174.841C167.656 178.787 177.233 183.466 186.421 188.841C191.266 191.676 195.856 194.924 200.141 198.551C202.554 200.625 204.746 202.944 206.681 205.471C206.941 205.811 207.191 206.211 207.451 206.581C207.711 206.951 207.951 207.321 208.191 207.761L208.911 209.021C209.131 209.481 209.361 209.961 209.571 210.431C210.587 212.624 211.114 215.013 211.114 217.431C211.114 219.848 210.587 222.237 209.571 224.431C209.351 224.911 209.131 225.381 208.901 225.851L208.191 227.111C207.941 227.541 207.691 227.911 207.441 228.291C207.191 228.671 206.931 229.051 206.671 229.401C204.741 231.929 202.549 234.245 200.131 236.311C195.844 239.934 191.253 243.182 186.411 246.021C177.219 251.387 167.643 256.067 157.761 260.021C152.871 262.021 147.971 263.881 142.981 265.591C137.991 267.301 132.981 268.931 127.981 270.441C122.981 271.951 117.841 273.321 112.691 274.551C109.361 275.351 106.011 276.111 102.621 276.771C102.374 276.848 102.108 276.836 101.87 276.735C101.632 276.635 101.437 276.453 101.321 276.222C101.204 275.992 101.173 275.727 101.234 275.476C101.294 275.225 101.442 275.003 101.651 274.851Z" stroke="url(#paint6_linear_862_12506)" stroke-width="2" stroke-miterlimit="10"/>
<path d="M380.511 160.061C377.671 161.827 374.817 163.561 371.951 165.261C367.551 167.911 363.121 170.481 358.731 173.061L345.511 180.701L332.511 188.341C323.891 193.431 315.371 198.571 307.571 203.981C303.865 206.507 300.334 209.28 297.001 212.281C296.013 213.197 295.081 214.172 294.211 215.201C293.882 215.475 293.616 215.816 293.431 216.201V216.201C293.251 216.586 293.158 217.006 293.161 217.431C293.159 217.847 293.244 218.259 293.411 218.641C293.62 219.093 293.932 219.49 294.321 219.801C295.162 220.792 296.063 221.731 297.021 222.611C300.35 225.613 303.881 228.383 307.591 230.901C315.401 236.311 323.921 241.441 332.531 246.541L345.531 254.151L358.711 261.801C363.111 264.381 367.541 266.951 371.931 269.611C374.811 271.317 377.677 273.057 380.531 274.831C380.796 274.954 381.001 275.178 381.102 275.452C381.202 275.727 381.189 276.03 381.066 276.296C380.942 276.561 380.719 276.766 380.444 276.867C380.169 276.967 379.866 276.954 379.601 276.831C376.201 276.181 372.841 275.421 369.491 274.621C364.341 273.391 359.261 272.001 354.201 270.521C351.671 269.771 349.201 268.971 346.651 268.181C344.101 267.391 341.651 266.521 339.171 265.671C334.191 263.951 329.264 262.091 324.391 260.091C314.506 256.143 304.929 251.463 295.741 246.091C290.91 243.239 286.333 239.977 282.061 236.341C279.651 234.266 277.462 231.947 275.531 229.421C275.271 229.081 275.021 228.681 274.761 228.311C274.491 227.932 274.244 227.538 274.021 227.131L273.301 225.871C273.071 225.411 272.851 224.931 272.641 224.461C271.624 222.267 271.098 219.878 271.098 217.461C271.098 215.043 271.624 212.654 272.641 210.461C272.861 209.981 273.071 209.461 273.301 209.041L274.021 207.781C274.261 207.351 274.511 206.981 274.771 206.601C275.031 206.221 275.281 205.841 275.531 205.491C277.466 202.964 279.661 200.648 282.081 198.581C286.366 194.955 290.956 191.707 295.801 188.871C304.992 183.504 314.569 178.825 324.451 174.871C329.331 172.871 334.241 171.011 339.231 169.301C344.221 167.591 349.231 165.961 354.231 164.451C359.231 162.941 364.391 161.551 369.511 160.341C372.851 159.541 376.201 158.781 379.591 158.121C379.838 158.053 380.101 158.074 380.334 158.181C380.567 158.287 380.755 158.473 380.865 158.704C380.975 158.936 381 159.199 380.935 159.447C380.87 159.695 380.72 159.912 380.511 160.061Z" stroke="url(#paint7_linear_862_12506)" stroke-width="2" stroke-miterlimit="10"/>
<path d="M241.333 335.23C190.943 335.23 143.963 327.64 104.333 314.54C103.296 314.163 102.176 314.079 101.096 314.297C100.015 314.515 99.0148 315.027 98.2058 315.776C97.3967 316.525 96.8097 317.483 96.5093 318.544C96.2088 319.605 96.2065 320.728 96.5026 321.79C112.713 379.7 171.383 422.6 241.303 422.6C311.223 422.6 369.913 379.7 386.143 321.79C386.439 320.728 386.436 319.605 386.136 318.544C385.835 317.483 385.248 316.525 384.439 315.776C383.63 315.027 382.631 314.515 381.55 314.297C380.469 314.079 379.349 314.163 378.313 314.54C338.693 327.64 291.713 335.23 241.333 335.23Z" fill="url(#paint8_radial_862_12506)"/>
<path d="M95.2985 322.126L95.2989 322.127C111.679 380.644 170.895 423.85 241.303 423.85C311.71 423.85 370.946 380.644 387.346 322.127L387.347 322.126C387.704 320.842 387.702 319.485 387.339 318.203C386.976 316.921 386.266 315.764 385.289 314.859C384.311 313.954 383.103 313.335 381.797 313.072C380.497 312.81 379.151 312.909 377.904 313.359C338.425 326.41 291.585 333.98 241.333 333.98C191.071 333.98 144.23 326.41 104.742 313.359C103.495 312.909 102.148 312.81 100.848 313.072C99.5423 313.335 98.3341 313.954 97.3565 314.859C96.3789 315.764 95.6696 316.921 95.3066 318.203C94.9435 319.485 94.9407 320.842 95.2985 322.126Z" stroke="url(#paint9_linear_862_12506)" stroke-width="2.5"/>
<mask id="mask1_862_12506" style="mask-type:alpha" maskUnits="userSpaceOnUse" x="0" y="0" width="483" height="483">
<path d="M241.18 482.36C374.38 482.36 482.36 374.38 482.36 241.18C482.36 107.98 374.38 0 241.18 0C107.98 0 0 107.98 0 241.18C0 374.38 107.98 482.36 241.18 482.36Z" fill="url(#paint10_radial_862_12506)"/>
</mask>
<g mask="url(#mask1_862_12506)">
<mask id="mask2_862_12506" style="mask-type:alpha" maskUnits="userSpaceOnUse" x="96" y="314" width="291" height="205">
<path d="M241.333 335.23C190.943 335.23 143.963 327.64 104.333 314.54C103.296 314.163 102.176 314.079 101.096 314.297C100.015 314.515 99.0148 315.027 98.2058 315.776C97.3967 316.525 96.8097 317.483 96.5093 318.544C96.2088 319.605 96.2065 320.728 96.5026 321.79C112.713 379.7 171.413 519 241.333 519C311.253 519 369.913 379.7 386.143 321.79C386.439 320.728 386.436 319.605 386.136 318.544C385.835 317.483 385.248 316.525 384.439 315.776C383.63 315.027 382.631 314.515 381.55 314.297C380.469 314.079 379.349 314.163 378.313 314.54C338.693 327.64 291.713 335.23 241.333 335.23Z" fill="black"/>
</mask>
<g mask="url(#mask2_862_12506)">
<g filter="url(#filter2_f_862_12506)">
<path d="M241.012 502.9C205.112 502.9 176.112 473.8 176.112 438V329H305.812V438C305.812 473.8 276.812 502.9 241.012 502.9Z" fill="#672500"/>
</g>
</g>
</g>
<mask id="mask3_862_12506" style="mask-type:alpha" maskUnits="userSpaceOnUse" x="96" y="314" width="291" height="205">
<path d="M241.333 335.23C190.943 335.23 143.963 327.64 104.333 314.54C103.296 314.163 102.176 314.079 101.096 314.297C100.015 314.515 99.0148 315.027 98.2058 315.776C97.3967 316.525 96.8097 317.483 96.5093 318.544C96.2088 319.605 96.2065 320.728 96.5026 321.79C112.713 379.7 171.413 519 241.333 519C311.253 519 369.913 379.7 386.143 321.79C386.439 320.728 386.436 319.605 386.136 318.544C385.835 317.483 385.248 316.525 384.439 315.776C383.63 315.027 382.631 314.515 381.55 314.297C380.469 314.079 379.349 314.163 378.313 314.54C338.693 327.64 291.713 335.23 241.333 335.23Z" fill="black"/>
</mask>
<g mask="url(#mask3_862_12506)">
<path d="M241.012 502.9C205.112 502.9 176.112 473.8 176.112 438V329H305.812V438C305.812 473.8 276.812 502.9 241.012 502.9Z" fill="url(#paint11_radial_862_12506)"/>
<g style="mix-blend-mode:multiply">
<path d="M241.012 502.9C205.112 502.9 176.112 473.9 176.112 438V329H305.812V438C305.812 473.9 276.812 502.9 241.012 502.9Z" fill="url(#paint12_radial_862_12506)"/>
</g>
<g style="mix-blend-mode:multiply" opacity="0.5" filter="url(#filter3_f_862_12506)">
<path d="M248.112 385H234.112V448H248.112V385Z" fill="#CF4F87"/>
</g>
</g>
<mask id="mask4_862_12506" style="mask-type:alpha" maskUnits="userSpaceOnUse" x="96" y="314" width="291" height="109">
<path d="M241.333 335.23C190.943 335.23 143.963 327.64 104.333 314.54C103.296 314.163 102.176 314.079 101.096 314.297C100.015 314.515 99.0148 315.027 98.2058 315.776C97.3967 316.525 96.8097 317.483 96.5093 318.544C96.2088 319.605 96.2065 320.728 96.5026 321.79C112.713 379.7 171.383 422.6 241.303 422.6C311.223 422.6 369.913 379.7 386.143 321.79C386.439 320.728 386.436 319.605 386.136 318.544C385.835 317.483 385.248 316.525 384.439 315.776C383.63 315.027 382.631 314.515 381.55 314.297C380.469 314.079 379.349 314.163 378.313 314.54C338.693 327.64 291.713 335.23 241.333 335.23Z" fill="url(#paint13_linear_862_12506)"/>
</mask>
<g mask="url(#mask4_862_12506)">
<g filter="url(#filter4_f_862_12506)">
<ellipse cx="241.112" cy="237" rx="203" ry="142" fill="#401C02"/>
</g>
</g>
<defs>
<filter id="filter0_f_862_12506" x="-26.8149" y="206.558" width="535.022" height="306.595" filterUnits="userSpaceOnUse" color-interpolation-filters="sRGB">
<feFlood flood-opacity="0" result="BackgroundImageFix"/>
<feBlend mode="normal" in="SourceGraphic" in2="BackgroundImageFix" result="shape"/>
<feGaussianBlur stdDeviation="12.5" result="effect1_foregroundBlur_862_12506"/>
</filter>
<filter id="filter1_f_862_12506" x="-41.8149" y="191.558" width="565.022" height="336.595" filterUnits="userSpaceOnUse" color-interpolation-filters="sRGB">
<feFlood flood-opacity="0" result="BackgroundImageFix"/>
<feBlend mode="normal" in="SourceGraphic" in2="BackgroundImageFix" result="shape"/>
<feGaussianBlur stdDeviation="20" result="effect1_foregroundBlur_862_12506"/>
</filter>
<filter id="filter2_f_862_12506" x="156.112" y="309" width="169.7" height="213.9" filterUnits="userSpaceOnUse" color-interpolation-filters="sRGB">
<feFlood flood-opacity="0" result="BackgroundImageFix"/>
<feBlend mode="normal" in="SourceGraphic" in2="BackgroundImageFix" result="shape"/>
<feGaussianBlur stdDeviation="10" result="effect1_foregroundBlur_862_12506"/>
</filter>
<filter id="filter3_f_862_12506" x="214.112" y="365" width="54" height="103" filterUnits="userSpaceOnUse" color-interpolation-filters="sRGB">
<feFlood flood-opacity="0" result="BackgroundImageFix"/>
<feBlend mode="normal" in="SourceGraphic" in2="BackgroundImageFix" result="shape"/>
<feGaussianBlur stdDeviation="10" result="effect1_foregroundBlur_862_12506"/>
</filter>
<filter id="filter4_f_862_12506" x="-16.8877" y="40" width="516" height="394" filterUnits="userSpaceOnUse" color-interpolation-filters="sRGB">
<feFlood flood-opacity="0" result="BackgroundImageFix"/>
<feBlend mode="normal" in="SourceGraphic" in2="BackgroundImageFix" result="shape"/>
<feGaussianBlur stdDeviation="27.5" result="effect1_foregroundBlur_862_12506"/>
</filter>
<radialGradient id="paint0_radial_862_12506" cx="0" cy="0" r="1" gradientUnits="userSpaceOnUse" gradientTransform="translate(241 -4.53898e-06) rotate(90) scale(482)">
<stop stop-color="#FFDE43"/>
<stop offset="1" stop-color="#FFBC00"/>
</radialGradient>
<radialGradient id="paint1_radial_862_12506" cx="0" cy="0" r="1" gradientUnits="userSpaceOnUse" gradientTransform="translate(241 64.5) rotate(90) scale(417.5)">
<stop stop-color="white" stop-opacity="0.5"/>
<stop offset="0.782278"/>
</radialGradient>
<radialGradient id="paint2_radial_862_12506" cx="0" cy="0" r="1" gradientUnits="userSpaceOnUse" gradientTransform="translate(241 64.5) rotate(90) scale(417.5)">
<stop stop-color="white" stop-opacity="0.5"/>
<stop offset="0.782278"/>
</radialGradient>
<radialGradient id="paint3_radial_862_12506" cx="0" cy="0" r="1" gradientUnits="userSpaceOnUse" gradientTransform="translate(241 -52.5) rotate(90) scale(534.5 722.835)">
<stop offset="0.0922635" stop-color="white"/>
<stop offset="0.670207" stop-color="white" stop-opacity="0"/>
</radialGradient>
<radialGradient id="paint4_radial_862_12506" cx="0" cy="0" r="1" gradientUnits="userSpaceOnUse" gradientTransform="translate(155.981 217.371) scale(70.1841 59.5135)">
<stop stop-color="#743C1C"/>
<stop offset="1" stop-color="#401C02"/>
</radialGradient>
<radialGradient id="paint5_radial_862_12506" cx="0" cy="0" r="1" gradientUnits="userSpaceOnUse" gradientTransform="translate(326.057 217.468) scale(70.1567 59.5291)">
<stop stop-color="#743C1C"/>
<stop offset="1" stop-color="#401C02"/>
</radialGradient>
<linearGradient id="paint6_linear_862_12506" x1="156.057" y1="280.164" x2="156.057" y2="154.176" gradientUnits="userSpaceOnUse">
<stop stop-color="#FFDE43"/>
<stop offset="0.22" stop-color="#FED93F"/>
<stop offset="0.51" stop-color="#FCC934"/>
<stop offset="0.82" stop-color="#F9AF21"/>
<stop offset="1" stop-color="#F79D14"/>
</linearGradient>
<linearGradient id="paint7_linear_862_12506" x1="326.133" y1="280.278" x2="326.133" y2="154.257" gradientUnits="userSpaceOnUse">
<stop stop-color="#FFDE43"/>
<stop offset="0.22" stop-color="#FED93F"/>
<stop offset="0.51" stop-color="#FCC934"/>
<stop offset="0.82" stop-color="#F9AF21"/>
<stop offset="1" stop-color="#F79D14"/>
</linearGradient>
<radialGradient id="paint8_radial_862_12506" cx="0" cy="0" r="1" gradientUnits="userSpaceOnUse" gradientTransform="translate(241.323 368.17) scale(109.48 109.511)">
<stop stop-color="#743C1C"/>
<stop offset="1" stop-color="#401C02"/>
</radialGradient>
<linearGradient id="paint9_linear_862_12506" x1="241.323" y1="425.651" x2="241.323" y2="310.69" gradientUnits="userSpaceOnUse">
<stop offset="0.265625" stop-color="#FFDE43"/>
<stop offset="1" stop-color="#F79D14"/>
</linearGradient>
<radialGradient id="paint10_radial_862_12506" cx="0" cy="0" r="1" gradientUnits="userSpaceOnUse" gradientTransform="translate(241 -4.53898e-06) rotate(90) scale(482)">
<stop stop-color="#FFDE43"/>
<stop offset="1" stop-color="#FFBC00"/>
</radialGradient>
<radialGradient id="paint11_radial_862_12506" cx="0" cy="0" r="1" gradientUnits="userSpaceOnUse" gradientTransform="translate(242.24 403.591) scale(80.9374 97.6186)">
<stop offset="0.3" stop-color="#F076AC"/>
<stop offset="0.4761" stop-color="#ED73A9"/>
<stop offset="0.6236" stop-color="#E2699F"/>
<stop offset="0.7609" stop-color="#D1588E"/>
<stop offset="1" stop-color="#B94176"/>
</radialGradient>
<radialGradient id="paint12_radial_862_12506" cx="0" cy="0" r="1" gradientUnits="userSpaceOnUse" gradientTransform="translate(240.964 415.958) scale(74.0615 226.286)">
<stop offset="0.2933" stop-color="#D86B9B" stop-opacity="0"/>
<stop offset="0.4603" stop-color="#D46998" stop-opacity="0.2363"/>
<stop offset="0.6135" stop-color="#C96491" stop-opacity="0.4531"/>
<stop offset="0.7614" stop-color="#B75B84" stop-opacity="0.6623"/>
<stop offset="0.905" stop-color="#9D4E71" stop-opacity="0.8656"/>
<stop offset="1" stop-color="#874462"/>
</radialGradient>
<linearGradient id="paint13_linear_862_12506" x1="241" y1="423" x2="241" y2="336.5" gradientUnits="userSpaceOnUse">
<stop offset="0.152957" stop-color="#743C1C" stop-opacity="0.53"/>
<stop offset="1" stop-color="#401C02"/>
</linearGradient>
</defs>
</svg>
