<svg width="483" height="519" viewBox="0 0 483 519" fill="none" xmlns="http://www.w3.org/2000/svg">
<path d="M241.18 482.36C374.38 482.36 482.36 374.38 482.36 241.18C482.36 107.98 374.38 0 241.18 0C107.98 0 0 107.98 0 241.18C0 374.38 107.98 482.36 241.18 482.36Z" fill="url(#paint0_radial_862_12568)"/>
<g style="mix-blend-mode:soft-light">
<path d="M241.18 482.36C374.38 482.36 482.36 374.38 482.36 241.18C482.36 107.98 374.38 0 241.18 0C107.98 0 0 107.98 0 241.18C0 374.38 107.98 482.36 241.18 482.36Z" fill="url(#paint1_radial_862_12568)"/>
</g>
<g style="mix-blend-mode:soft-light">
<path d="M241.18 482.36C374.38 482.36 482.36 374.38 482.36 241.18C482.36 107.98 374.38 0 241.18 0C107.98 0 0 107.98 0 241.18C0 374.38 107.98 482.36 241.18 482.36Z" fill="url(#paint2_radial_862_12568)"/>
</g>
<g style="mix-blend-mode:overlay">
<path d="M241.18 482.36C374.38 482.36 482.36 374.38 482.36 241.18C482.36 107.98 374.38 0 241.18 0C107.98 0 0 107.98 0 241.18C0 374.38 107.98 482.36 241.18 482.36Z" fill="url(#paint3_radial_862_12568)" fill-opacity="0.7"/>
</g>
<mask id="mask0_862_12568" style="mask-type:alpha" maskUnits="userSpaceOnUse" x="0" y="0" width="483" height="483">
<path d="M241.18 482.36C374.38 482.36 482.36 374.38 482.36 241.18C482.36 107.98 374.38 0 241.18 0C107.98 0 0 107.98 0 241.18C0 374.38 107.98 482.36 241.18 482.36Z" fill="white"/>
</mask>
<g mask="url(#mask0_862_12568)">
<g filter="url(#filter0_f_862_12568)">
<path d="M-1.3759 234.299C-1.11402 230.872 0.0137008 230.529 0.342619 234.009C0.708055 237.875 -0.00231624 245.647 0.16871 250.335C0.621554 262.748 2.52441 273.542 4.48605 282.321C10.8075 310.613 19.5617 328.843 27.7268 344.289C54.5663 395.061 83.9667 420.771 112.648 440.147C154.689 468.55 197.072 477.584 239.49 479.5C240.56 479.549 240.738 486.518 239.686 487.425C237.788 489.062 235.436 487.438 233.494 487.37C227.915 487.174 222.335 486.791 216.756 486.211C200.213 484.492 183.67 480.991 167.162 475.359C122.275 460.044 73.8765 433.821 31.6092 359.962C28.9502 355.316 26.3124 350.424 23.7118 345.168C21.6321 340.964 19.5726 336.557 17.5493 331.844C10.8946 316.342 -4.61323 276.659 -1.3759 234.299ZM239.52 487.5C238.499 487.532 238.241 481.035 239.214 479.686C240.684 477.647 242.888 479.326 244.439 479.229C250.877 478.827 257.314 478.23 263.75 477.422C281.395 475.206 299.028 471.423 316.621 465.596C360.257 451.146 407.17 429.116 448.305 361.431C450.923 357.124 453.518 352.554 456.079 347.641C463.86 332.713 483.361 293.085 481.107 243.821C480.917 239.669 482.181 237.181 482.747 240.744C483.467 245.28 483.175 254.736 482.977 259.768C482.341 275.884 479.866 289.512 477.257 300.518C468.987 335.399 457.376 355.623 446.744 372.51C412.184 427.397 374.648 449.524 338.155 465.425C305.424 479.686 272.444 486.484 239.52 487.5Z" fill="#401C02"/>
</g>
<g filter="url(#filter1_f_862_12568)">
<path d="M-1.3759 234.299C-1.11402 230.872 0.0137008 230.529 0.342619 234.009C0.708055 237.875 -0.00231624 245.647 0.16871 250.335C0.621554 262.748 2.52441 273.542 4.48605 282.321C10.8075 310.613 19.5617 328.843 27.7268 344.289C54.5663 395.061 83.9667 420.771 112.648 440.147C154.689 468.55 197.072 477.584 239.49 479.5C240.56 479.549 240.738 486.518 239.686 487.425C237.788 489.062 235.436 487.438 233.494 487.37C227.915 487.174 222.335 486.791 216.756 486.211C200.213 484.492 183.67 480.991 167.162 475.359C122.275 460.044 73.8765 433.821 31.6092 359.962C28.9502 355.316 26.3124 350.424 23.7118 345.168C21.6321 340.964 19.5726 336.557 17.5493 331.844C10.8946 316.342 -4.61323 276.659 -1.3759 234.299ZM239.52 487.5C238.499 487.532 238.241 481.035 239.214 479.686C240.684 477.647 242.888 479.326 244.439 479.229C250.877 478.827 257.314 478.23 263.75 477.422C281.395 475.206 299.028 471.423 316.621 465.596C360.257 451.146 407.17 429.116 448.305 361.431C450.923 357.124 453.518 352.554 456.079 347.641C463.86 332.713 483.361 293.085 481.107 243.821C480.917 239.669 482.181 237.181 482.747 240.744C483.467 245.28 483.175 254.736 482.977 259.768C482.341 275.884 479.866 289.512 477.257 300.518C468.987 335.399 457.376 355.623 446.744 372.51C412.184 427.397 374.648 449.524 338.155 465.425C305.424 479.686 272.444 486.484 239.52 487.5Z" fill="#401C02"/>
</g>
<path d="M318.871 339.577C319.294 339.272 319.813 339.097 320.352 339.078C320.891 339.058 321.423 339.195 321.871 339.469C322.319 339.743 322.661 340.139 322.846 340.6C323.031 341.062 323.05 341.565 322.901 342.037C313.798 373.657 280.747 397.037 241.359 397.037C201.972 397.037 168.888 373.597 159.807 341.967C159.659 341.494 159.68 340.99 159.866 340.528C160.052 340.066 160.393 339.67 160.842 339.395C161.291 339.121 161.823 338.983 162.363 339.002C162.903 339.02 163.423 339.193 163.848 339.497C183.437 353.157 210.932 361.647 241.359 361.647C271.787 361.647 299.282 353.197 318.871 339.577Z" fill="url(#paint4_radial_862_12568)"/>
<path d="M318.871 339.577C319.294 339.272 319.813 339.097 320.352 339.078C320.891 339.058 321.423 339.195 321.871 339.469C322.319 339.743 322.661 340.139 322.846 340.6C323.031 341.062 323.05 341.565 322.901 342.037C313.798 373.657 280.747 397.037 241.359 397.037C201.972 397.037 168.888 373.597 159.807 341.967C159.659 341.494 159.68 340.99 159.866 340.528C160.052 340.066 160.393 339.67 160.842 339.395C161.291 339.121 161.823 338.983 162.363 339.002C162.903 339.02 163.423 339.193 163.848 339.497C183.437 353.157 210.932 361.647 241.359 361.647C271.787 361.647 299.282 353.197 318.871 339.577Z" stroke="url(#paint5_linear_862_12568)" stroke-width="2.5" stroke-miterlimit="10"/>
</g>
<path d="M339.9 289.8C382.923 289.8 417.8 254.923 417.8 211.9C417.8 168.877 382.923 134 339.9 134C296.877 134 262 168.877 262 211.9C262 254.923 296.877 289.8 339.9 289.8Z" stroke="url(#paint6_linear_862_12568)" stroke-width="2" stroke-miterlimit="10"/>
<path d="M340 289C382.526 289 417 254.526 417 212C417 169.474 382.526 135 340 135C297.474 135 263 169.474 263 212C263 254.526 297.474 289 340 289Z" fill="url(#paint7_radial_862_12568)"/>
<g filter="url(#filter2_f_862_12568)">
<circle cx="340" cy="207" r="32" fill="black"/>
</g>
<mask id="mask1_862_12568" style="mask-type:alpha" maskUnits="userSpaceOnUse" x="263" y="135" width="154" height="154">
<path d="M339.9 288.8C382.371 288.8 416.8 254.371 416.8 211.9C416.8 169.429 382.371 135 339.9 135C297.429 135 263 169.429 263 211.9C263 254.371 297.429 288.8 339.9 288.8Z" fill="white"/>
</mask>
<g mask="url(#mask1_862_12568)">
<path d="M369.88 267.778C369.661 267.998 369.442 268.218 369.222 268.437C368.674 267.778 368.016 267.229 367.468 266.571C365.494 264.375 363.959 261.96 362.314 259.435C362.643 260.093 362.972 260.752 363.301 261.411C363.63 262.069 363.959 262.728 364.398 263.387C365.165 264.595 365.933 265.912 366.92 267.12C367.468 267.888 368.016 268.547 368.564 269.206C367.578 270.194 366.7 271.072 365.604 271.95L363.411 273.927L360.998 275.683C360.231 276.342 359.354 276.781 358.586 277.33C357.709 277.879 356.941 278.428 356.064 278.867L353.542 280.294C352.884 280.624 352.117 280.953 351.459 281.282C351.569 280.733 351.678 280.184 351.897 279.745C352.446 277.44 352.775 275.024 352.775 272.609C353.652 271.731 354.419 270.852 355.077 269.974C354.31 270.743 353.652 271.401 352.775 272.06C352.775 270.523 352.775 269.096 352.665 267.559C352.336 263.497 351.349 259.435 349.704 255.812C351.24 259.544 352.007 263.606 352.117 267.559C352.226 269.206 352.226 270.962 352.007 272.609C352.007 272.829 352.007 273.158 352.007 273.378C351.788 275.464 351.459 277.55 351.02 279.526C350.801 280.294 350.582 281.063 350.362 281.831C350.253 282.27 350.033 282.71 349.924 283.258C349.047 285.784 347.95 288.199 346.634 290.504C345.867 288.638 344.989 286.772 344.003 285.015C343.893 284.905 343.783 284.686 343.674 284.576C343.454 284.247 343.345 284.027 343.125 283.698C342.358 282.6 341.59 281.502 340.713 280.514C340.494 280.184 340.274 279.965 339.946 279.635C339.068 278.647 338.191 277.769 337.314 276.891C336.217 275.903 335.011 274.915 333.805 274.146C332.599 273.268 331.283 272.499 329.967 271.95C332.489 273.597 334.682 275.464 336.656 277.55C337.424 278.318 338.191 279.196 338.849 280.075C336.546 280.843 334.244 281.502 331.941 281.941C329.09 282.49 326.13 282.71 323.169 282.819C323.937 282.929 324.704 282.929 325.362 282.929C326.13 282.929 326.787 283.039 327.555 283.039C328.98 282.929 330.516 282.929 332.051 282.71C334.682 282.49 337.204 281.721 339.617 280.843C340.494 281.941 341.371 283.039 342.029 284.247C342.139 284.466 342.248 284.686 342.467 284.905C342.577 285.015 342.577 285.125 342.687 285.235C343.893 287.211 344.989 289.297 345.867 291.493C344.003 294.676 341.81 297.641 339.288 300.385C336.546 303.459 334.353 306.973 332.599 310.705C330.954 314.438 329.967 318.5 329.858 322.672C329.748 330.906 332.709 339.031 337.753 345.289C335.34 341.995 333.586 338.372 332.38 334.529C331.173 330.687 330.516 326.734 330.735 322.672C330.954 318.72 331.831 314.768 333.476 311.145C335.121 307.522 337.424 304.118 340.055 301.154C342.358 298.519 344.441 295.665 346.305 292.7C346.525 292.371 346.634 292.151 346.854 291.822C348.498 288.967 349.814 286.003 350.801 282.929C350.911 282.929 351.02 282.819 351.13 282.819C354.968 281.392 358.367 279.306 361.656 277.001C364.398 275.024 366.92 272.719 369.113 270.194C369.332 269.974 369.551 269.645 369.771 269.425C369.99 269.206 370.209 268.876 370.428 268.657C373.06 265.583 375.253 262.069 376.679 258.337C375.034 261.74 372.512 264.924 369.88 267.778Z" fill="#FA635A" stroke="#FA635A" stroke-width="0.5" stroke-linejoin="round"/>
<path d="M309.463 282.489C309.243 282.709 309.024 282.928 308.805 283.148C308.257 282.489 307.599 281.94 307.05 281.282C305.077 279.086 303.542 276.671 301.897 274.145C302.226 274.804 302.555 275.463 302.884 276.122C303.213 276.78 303.542 277.439 303.98 278.098C304.748 279.306 305.515 280.623 306.502 281.831C307.05 282.599 307.599 283.258 308.147 283.917C307.16 284.905 306.283 285.783 305.186 286.661L302.993 288.637L300.581 290.394C299.813 291.053 298.936 291.492 298.169 292.041C297.291 292.59 296.524 293.139 295.647 293.578L293.125 295.005C292.467 295.335 291.699 295.664 291.041 295.993C291.151 295.444 291.261 294.895 291.48 294.456C292.028 292.151 292.357 289.735 292.357 287.32C293.234 286.442 294.002 285.563 294.66 284.685C293.892 285.454 293.234 286.112 292.357 286.771C292.357 285.234 292.357 283.807 292.248 282.27C291.919 278.208 290.932 274.145 289.287 270.522C290.822 274.255 291.59 278.317 291.699 282.27C291.809 283.917 291.809 285.673 291.59 287.32C291.59 287.54 291.59 287.869 291.59 288.089C291.37 290.174 291.041 292.26 290.603 294.237C290.383 295.005 290.164 295.774 289.945 296.542C289.835 296.981 289.616 297.42 289.506 297.969C288.629 300.495 287.533 302.91 286.217 305.215C285.449 303.349 284.572 301.483 283.585 299.726C283.475 299.616 283.366 299.397 283.256 299.287C283.037 298.958 282.927 298.738 282.708 298.409C281.94 297.311 281.173 296.213 280.296 295.225C280.076 294.895 279.857 294.676 279.528 294.346C278.651 293.358 277.774 292.48 276.896 291.602C275.8 290.614 274.594 289.626 273.388 288.857C272.181 287.979 270.866 287.21 269.55 286.661C272.072 288.308 274.265 290.174 276.239 292.26C277.006 293.029 277.774 293.907 278.432 294.786C276.129 295.554 273.826 296.213 271.524 296.652C268.673 297.201 265.712 297.42 262.751 297.53C263.519 297.64 264.287 297.64 264.944 297.64C265.712 297.64 266.37 297.75 267.137 297.75C268.563 297.64 270.098 297.64 271.633 297.42C274.265 297.201 276.787 296.432 279.199 295.554C280.076 296.652 280.953 297.75 281.611 298.958C281.721 299.177 281.831 299.397 282.05 299.616C282.16 299.726 282.16 299.836 282.269 299.946C283.475 301.922 284.572 304.008 285.449 306.204C283.585 309.387 281.392 312.352 278.87 315.096C276.129 318.17 273.936 321.684 272.181 325.416C270.537 329.149 269.55 333.211 269.44 337.383C269.331 345.617 272.291 353.742 277.335 360C274.923 356.706 273.168 353.083 271.962 349.24C270.756 345.398 270.098 341.445 270.317 337.383C270.537 333.431 271.414 329.479 273.059 325.856C274.703 322.233 277.006 318.829 279.638 315.865C281.94 313.23 284.024 310.375 285.888 307.411C286.107 307.082 286.217 306.862 286.436 306.533C288.081 303.678 289.397 300.714 290.383 297.64C290.493 297.64 290.603 297.53 290.712 297.53C294.55 296.103 297.949 294.017 301.239 291.712C303.98 289.735 306.502 287.43 308.695 284.905C308.914 284.685 309.134 284.356 309.353 284.136C309.572 283.917 309.792 283.587 310.011 283.368C312.643 280.294 314.836 276.78 316.261 273.048C314.616 276.451 312.204 279.525 309.463 282.489Z" fill="#FA635A" stroke="#FA635A" stroke-width="0.5" stroke-linejoin="round"/>
<path d="M400.363 212.665C400.473 212.885 400.692 213.214 400.802 213.543C400.034 213.873 399.267 214.202 398.389 214.531C395.648 215.629 392.797 216.288 389.946 217.057C390.714 216.947 391.372 216.947 392.139 216.837C392.907 216.727 393.674 216.727 394.332 216.508C395.758 216.178 397.293 215.849 398.609 215.41C399.486 215.19 400.253 214.861 401.131 214.531C401.679 215.739 402.227 216.947 402.775 218.154L403.872 220.899L404.749 223.754C405.078 224.742 405.297 225.62 405.517 226.608C405.736 227.596 405.955 228.475 406.175 229.463L406.723 232.427C406.832 233.195 406.942 233.964 406.942 234.732C406.504 234.403 406.065 234.074 405.626 233.854C403.543 232.537 401.46 231.439 399.267 230.561C398.718 229.463 398.17 228.475 397.512 227.486C397.951 228.365 398.389 229.353 398.718 230.341C397.293 229.792 395.867 229.353 394.442 228.914C390.495 227.926 386.437 227.377 382.38 227.816C386.437 227.596 390.495 228.255 394.332 229.463C395.977 229.902 397.512 230.561 399.047 231.219C399.267 231.329 399.486 231.439 399.705 231.549C401.569 232.427 403.433 233.415 405.188 234.623C405.846 235.062 406.504 235.501 407.161 236.05C407.6 236.379 407.929 236.599 408.258 236.928C410.341 238.575 412.205 240.441 413.96 242.418C411.986 242.418 409.903 242.747 407.929 243.076C407.71 243.076 407.6 243.186 407.381 243.186C407.052 243.296 406.723 243.296 406.394 243.406C405.078 243.735 403.872 244.064 402.556 244.613C402.227 244.723 401.789 244.833 401.46 245.053C400.253 245.492 399.157 246.041 398.06 246.699C396.745 247.358 395.429 248.236 394.223 249.005C393.017 249.883 391.81 250.761 390.823 251.859C393.126 250.103 395.758 248.566 398.389 247.358C399.376 246.919 400.473 246.48 401.46 246.041C401.46 248.456 401.35 250.871 400.911 253.287C400.473 256.141 399.705 258.996 398.828 261.85C399.157 261.191 399.376 260.533 399.705 259.764C399.925 259.105 400.363 258.447 400.473 257.678C400.911 256.251 401.35 254.824 401.679 253.396C402.337 250.871 402.446 248.236 402.556 245.601C403.872 245.162 405.188 244.723 406.613 244.394C406.832 244.394 407.052 244.284 407.381 244.174C407.49 244.174 407.71 244.174 407.819 244.064C410.122 243.625 412.425 243.296 414.727 243.186C417.14 246.041 419.223 249.115 420.868 252.299C422.842 255.812 425.363 259.215 428.324 261.96C431.285 264.814 434.793 267.01 438.631 268.547C446.307 271.402 454.969 271.292 462.535 268.657C458.697 269.755 454.64 270.304 450.583 270.084C446.636 269.974 442.579 269.206 438.851 267.669C435.122 266.132 431.833 263.936 428.872 261.191C426.021 258.447 423.609 255.153 421.635 251.64C419.991 248.566 418.017 245.601 415.714 242.967C415.495 242.637 415.276 242.418 415.056 242.198C412.863 239.783 410.561 237.477 407.929 235.501C407.929 235.391 407.929 235.281 407.929 235.172C407.819 231.109 407.052 227.157 405.955 223.205C404.968 219.911 403.653 216.837 402.118 213.873C402.008 213.543 401.789 213.324 401.679 212.994C401.569 212.665 401.35 212.446 401.131 212.116C399.047 208.603 396.525 205.419 393.565 202.784C396.416 205.748 398.499 209.152 400.363 212.665Z" fill="#FA635A" stroke="#FA635A" stroke-width="0.5" stroke-linejoin="round"/>
<path d="M391.262 276.562C391.372 276.781 391.591 277.111 391.701 277.44C390.933 277.769 390.166 278.099 389.288 278.428C386.547 279.526 383.696 280.185 380.845 280.953C381.613 280.843 382.271 280.843 383.038 280.734C383.806 280.624 384.573 280.624 385.231 280.404C386.657 280.075 388.192 279.745 389.508 279.306C390.385 279.087 391.152 278.757 392.03 278.428C392.578 279.636 393.126 280.843 393.674 282.051L394.771 284.796L395.648 287.65C395.977 288.638 396.196 289.517 396.416 290.505C396.635 291.493 396.854 292.371 397.074 293.359L397.622 296.323C397.731 297.092 397.841 297.86 397.841 298.629C397.402 298.3 396.964 297.97 396.525 297.751C394.442 296.433 392.359 295.335 390.166 294.457C389.617 293.359 389.069 292.371 388.411 291.383C388.85 292.261 389.288 293.249 389.617 294.237C388.192 293.688 386.766 293.249 385.341 292.81C381.393 291.822 377.336 291.273 373.279 291.712C377.336 291.493 381.393 292.151 385.231 293.359C386.876 293.798 388.411 294.457 389.946 295.116C390.166 295.226 390.385 295.335 390.604 295.445C392.468 296.323 394.332 297.311 396.087 298.519C396.745 298.958 397.402 299.397 398.06 299.946C398.499 300.276 398.828 300.495 399.157 300.825C401.24 302.472 403.104 304.338 404.859 306.314C402.885 306.314 400.802 306.643 398.828 306.973C398.609 306.973 398.499 307.083 398.28 307.083C397.951 307.192 397.622 307.192 397.293 307.302C395.977 307.632 394.771 307.961 393.455 308.51C393.126 308.62 392.687 308.729 392.359 308.949C391.152 309.388 390.056 309.937 388.959 310.596C387.644 311.255 386.328 312.133 385.122 312.901C383.915 313.78 382.709 314.658 381.722 315.756C384.025 313.999 386.657 312.462 389.288 311.255C390.275 310.815 391.372 310.376 392.359 309.937C392.359 312.352 392.249 314.768 391.81 317.183C391.372 320.038 390.604 322.892 389.727 325.747C390.056 325.088 390.275 324.429 390.604 323.661C390.823 323.002 391.262 322.343 391.372 321.575C391.81 320.147 392.249 318.72 392.578 317.293C393.236 314.768 393.345 312.133 393.455 309.498C394.771 309.059 396.087 308.62 397.512 308.29C397.731 308.29 397.951 308.18 398.28 308.071C398.389 308.071 398.609 308.071 398.718 307.961C401.021 307.522 403.324 307.192 405.626 307.083C408.039 309.937 410.122 313.011 411.767 316.195C413.74 319.708 416.262 323.112 419.223 325.856C422.184 328.711 425.692 330.907 429.53 332.444C437.206 335.298 445.868 335.188 453.434 332.553C449.596 333.651 445.539 334.2 441.482 333.981C437.535 333.871 433.478 333.102 429.749 331.565C426.021 330.028 422.732 327.833 419.771 325.088C416.92 322.343 414.508 319.049 412.534 315.536C410.89 312.462 408.916 309.498 406.613 306.863C406.394 306.534 406.175 306.314 405.955 306.095C403.762 303.679 401.46 301.374 398.828 299.397C398.828 299.288 398.828 299.178 398.828 299.068C398.718 295.006 397.951 291.054 396.854 287.101C395.867 283.808 394.552 280.734 393.016 277.769C392.907 277.44 392.687 277.22 392.578 276.891C392.468 276.562 392.249 276.342 392.03 276.013C389.946 272.499 387.424 269.316 384.464 266.681C387.315 269.755 389.398 273.048 391.262 276.562Z" fill="#FA635A" stroke="#FA635A" stroke-width="0.5" stroke-linejoin="round"/>
<path d="M358.586 165.456C358.915 165.456 359.244 165.346 359.463 165.346C359.573 166.225 359.573 167.103 359.573 167.871C359.683 170.836 359.354 173.69 359.134 176.654C359.354 175.886 359.463 175.227 359.573 174.459C359.683 173.69 359.902 173.031 360.012 172.263C360.121 170.836 360.45 169.299 360.341 167.762C360.341 166.883 360.341 166.005 360.341 165.017C361.656 164.907 362.972 164.797 364.398 164.688L367.358 164.578L370.319 164.688C371.306 164.688 372.293 164.797 373.279 164.907C374.266 165.017 375.253 165.127 376.24 165.237L379.201 165.676C379.968 165.785 380.736 166.005 381.503 166.225C381.065 166.554 380.626 166.883 380.187 167.213C378.323 168.75 376.569 170.397 375.034 172.153C373.828 172.263 372.731 172.483 371.525 172.812C372.512 172.702 373.608 172.592 374.595 172.592C373.608 173.69 372.731 174.898 371.854 176.106C369.551 179.509 367.797 183.132 366.81 187.084C368.016 183.242 369.88 179.619 372.293 176.435C373.279 175.117 374.376 173.8 375.472 172.592C375.582 172.373 375.801 172.263 376.021 172.043C377.446 170.506 379.091 169.189 380.736 167.871C381.394 167.432 382.051 166.993 382.709 166.554C383.148 166.225 383.477 166.005 383.915 165.785C386.109 164.358 388.521 163.26 390.933 162.272C390.275 164.139 389.837 166.225 389.617 168.201C389.617 168.42 389.508 168.53 389.508 168.75C389.398 169.079 389.398 169.408 389.398 169.848C389.288 171.165 389.179 172.483 389.179 173.8C389.179 174.239 389.179 174.568 389.179 175.008C389.179 176.325 389.288 177.533 389.508 178.85C389.727 180.387 390.056 181.814 390.385 183.242C390.823 184.669 391.262 186.096 392.03 187.414C391.152 184.559 390.604 181.705 390.385 178.85C390.275 177.752 390.275 176.654 390.166 175.557C392.468 176.325 394.661 177.313 396.745 178.521C399.376 179.838 401.679 181.595 404.091 183.352C403.543 182.803 402.995 182.363 402.446 181.814C401.898 181.375 401.35 180.826 400.802 180.387C399.596 179.509 398.389 178.631 397.183 177.862C394.99 176.435 392.578 175.337 390.166 174.459C390.166 173.031 390.275 171.604 390.385 170.287C390.385 170.067 390.385 169.738 390.495 169.518C390.495 169.408 390.495 169.189 390.495 169.079C390.823 166.774 391.262 164.468 391.92 162.272C395.319 160.955 398.938 160.076 402.556 159.528C406.613 158.869 410.561 157.551 414.179 155.795C417.798 153.928 421.197 151.403 423.828 148.219C429.092 141.962 431.943 133.727 431.943 125.713C431.723 129.775 430.736 133.727 429.311 137.46C427.885 141.193 425.802 144.706 423.17 147.67C420.539 150.635 417.249 153.05 413.741 154.916C410.122 156.673 406.284 157.881 402.337 158.539C398.938 159.088 395.429 159.967 392.139 161.174C391.81 161.284 391.481 161.394 391.152 161.504C388.082 162.711 385.231 164.139 382.49 166.005C382.38 166.005 382.271 165.895 382.161 165.895C378.323 164.688 374.266 164.029 370.209 163.809C366.81 163.59 363.52 163.809 360.121 164.358C359.792 164.358 359.463 164.468 359.134 164.578C358.805 164.578 358.477 164.688 358.148 164.797C354.2 165.566 350.362 166.883 346.854 168.86C350.801 166.883 354.748 166.005 358.586 165.456Z" fill="#FA635A" stroke="#FA635A" stroke-width="0.5" stroke-linejoin="round"/>
<path d="M412.534 196.416C412.863 196.416 413.192 196.306 413.412 196.306C413.521 197.185 413.521 198.063 413.521 198.831C413.631 201.796 413.302 204.65 413.083 207.614C413.302 206.846 413.412 206.187 413.521 205.419C413.631 204.65 413.85 203.991 413.96 203.223C414.07 201.796 414.398 200.259 414.289 198.722C414.289 197.843 414.289 196.965 414.289 195.977C415.605 195.867 416.92 195.757 418.346 195.648L421.306 195.538L424.267 195.648C425.254 195.648 426.241 195.757 427.228 195.867C428.214 195.977 429.201 196.087 430.188 196.196L433.149 196.636C433.916 196.745 434.684 196.965 435.451 197.185C435.013 197.514 434.574 197.843 434.136 198.173C432.272 199.71 430.517 201.357 428.982 203.113C427.776 203.223 426.679 203.442 425.473 203.772C426.46 203.662 427.557 203.552 428.543 203.552C427.557 204.65 426.679 205.858 425.802 207.065C423.499 210.469 421.745 214.092 420.758 218.044C421.964 214.202 423.828 210.579 426.241 207.395C427.228 206.077 428.324 204.76 429.421 203.552C429.53 203.333 429.75 203.223 429.969 203.003C431.394 201.466 433.039 200.149 434.684 198.831C435.342 198.392 436 197.953 436.658 197.514C437.096 197.185 437.425 196.965 437.864 196.745C440.057 195.318 442.469 194.22 444.881 193.232C444.223 195.099 443.785 197.185 443.566 199.161C443.566 199.38 443.456 199.49 443.456 199.71C443.346 200.039 443.346 200.368 443.346 200.808C443.237 202.125 443.127 203.442 443.127 204.76C443.127 205.199 443.127 205.528 443.127 205.968C443.127 207.285 443.237 208.493 443.456 209.81C443.675 211.347 444.004 212.774 444.333 214.202C444.772 215.629 445.21 217.056 445.978 218.374C445.101 215.519 444.552 212.665 444.333 209.81C444.223 208.712 444.223 207.614 444.114 206.517C446.416 207.285 448.609 208.273 450.693 209.481C453.324 210.798 455.627 212.555 458.039 214.311C457.491 213.763 456.943 213.323 456.395 212.774C455.846 212.335 455.298 211.786 454.75 211.347C453.544 210.469 452.338 209.591 451.131 208.822C448.938 207.395 446.526 206.297 444.114 205.419C444.114 203.991 444.223 202.564 444.333 201.247C444.333 201.027 444.333 200.698 444.443 200.478C444.443 200.368 444.443 200.149 444.443 200.039C444.772 197.734 445.21 195.428 445.868 193.232C449.267 191.915 452.886 191.036 456.504 190.488C460.561 189.829 464.509 188.511 468.127 186.755C471.746 184.888 475.145 182.363 477.777 179.179C483.04 172.921 485.891 164.687 485.891 156.673C485.671 160.735 484.685 164.687 483.259 168.42C481.834 172.153 479.75 175.666 477.119 178.63C474.487 181.595 471.198 184.01 467.689 185.876C464.07 187.633 460.232 188.841 456.285 189.499C452.886 190.048 449.377 190.927 446.088 192.134C445.759 192.244 445.43 192.354 445.101 192.464C442.03 193.671 439.18 195.099 436.438 196.965C436.329 196.965 436.219 196.855 436.109 196.855C432.272 195.648 428.214 194.989 424.157 194.769C420.758 194.55 417.469 194.769 414.069 195.318C413.741 195.318 413.412 195.428 413.083 195.538C412.754 195.538 412.425 195.648 412.096 195.757C408.148 196.526 404.311 197.843 400.802 199.819C404.749 197.953 408.697 197.075 412.534 196.416Z" fill="#FA635A" stroke="#FA635A" stroke-width="0.5" stroke-linejoin="round"/>
<path d="M300.252 189.06C300.361 188.731 300.361 188.402 300.471 188.182C301.348 188.402 302.116 188.621 302.883 188.951C305.625 189.829 308.366 191.037 310.998 192.354C310.34 191.915 309.791 191.585 309.134 191.146C308.476 190.817 307.927 190.378 307.269 190.048C305.954 189.39 304.638 188.731 303.212 188.182C302.335 187.853 301.568 187.523 300.69 187.304C301.019 185.986 301.348 184.669 301.677 183.461L302.555 180.607L303.651 177.862C303.98 176.874 304.419 176.105 304.857 175.117C305.296 174.239 305.625 173.361 306.173 172.482L307.598 169.847C308.037 169.189 308.366 168.53 308.805 167.871C308.914 168.42 309.134 168.859 309.243 169.408C310.011 171.714 310.998 173.91 312.094 175.996C311.875 177.093 311.656 178.301 311.546 179.509C311.765 178.521 312.094 177.533 312.423 176.545C313.191 177.862 313.958 179.07 314.835 180.277C317.248 183.571 320.099 186.535 323.498 188.731C320.208 186.316 317.467 183.351 315.274 179.948C314.287 178.521 313.52 177.093 312.752 175.666C312.642 175.447 312.533 175.227 312.423 175.007C311.546 173.141 310.669 171.165 310.12 169.189C309.901 168.42 309.682 167.652 309.463 166.883C309.353 166.444 309.243 165.895 309.134 165.456C308.585 162.931 308.256 160.296 308.147 157.661C309.791 158.869 311.436 159.967 313.3 160.955C313.52 161.064 313.629 161.174 313.739 161.174C314.068 161.394 314.397 161.504 314.726 161.613C315.932 162.162 317.138 162.711 318.454 163.15C318.783 163.26 319.221 163.37 319.55 163.48C320.757 163.809 321.963 164.138 323.278 164.468C324.704 164.797 326.239 164.907 327.665 165.017C329.2 165.127 330.625 165.127 332.16 164.907C329.2 164.797 326.349 164.358 323.498 163.59C322.401 163.26 321.305 163.041 320.318 162.601C321.853 160.735 323.498 158.978 325.252 157.332C327.445 155.355 329.748 153.709 332.27 151.952C331.612 152.281 330.954 152.611 330.296 152.94C329.638 153.269 328.98 153.599 328.322 154.038C327.116 154.916 325.8 155.685 324.704 156.673C322.621 158.21 320.866 160.186 319.221 162.162C317.906 161.723 316.59 161.174 315.384 160.515C315.164 160.406 314.945 160.296 314.726 160.186C314.616 160.076 314.506 160.076 314.397 159.967C312.313 158.869 310.34 157.661 308.476 156.344C308.366 152.611 308.695 148.988 309.463 145.365C310.12 141.303 310.34 137.24 309.791 133.178C309.243 129.116 307.927 125.164 305.844 121.541C301.458 114.405 294.66 109.135 287.094 106.28C290.822 107.817 294.221 110.013 297.291 112.648C300.361 115.283 302.883 118.357 304.857 121.87C306.721 125.383 308.037 129.226 308.476 133.178C308.914 137.131 308.805 141.193 308.037 145.145C307.379 148.549 307.05 152.062 307.16 155.575C307.16 155.904 307.16 156.234 307.16 156.673C307.269 159.967 307.708 163.15 308.476 166.334C308.366 166.444 308.366 166.554 308.256 166.664C305.734 169.847 303.87 173.47 302.335 177.203C301.019 180.277 300.033 183.571 299.484 186.865C299.375 187.194 299.375 187.523 299.265 187.853C299.155 188.182 299.155 188.511 299.046 188.841C298.497 192.793 298.388 196.965 299.046 200.917C299.046 196.855 299.484 192.903 300.252 189.06Z" fill="#FA635A" stroke="#FA635A" stroke-width="0.5" stroke-linejoin="round"/>
<path d="M350.472 147.78C350.582 147.451 350.582 147.121 350.691 146.902C351.569 147.121 352.336 147.341 353.104 147.67C355.845 148.549 358.586 149.756 361.218 151.074C360.56 150.635 360.012 150.305 359.354 149.866C358.696 149.537 358.148 149.098 357.49 148.768C356.174 148.109 354.858 147.451 353.433 146.902C352.555 146.572 351.788 146.243 350.911 146.023C351.24 144.706 351.569 143.389 351.897 142.181L352.775 139.326L353.871 136.582C354.2 135.594 354.639 134.825 355.077 133.837C355.516 132.959 355.845 132.08 356.393 131.202L357.819 128.567C358.257 127.908 358.586 127.25 359.025 126.591C359.134 127.14 359.354 127.579 359.463 128.128C360.231 130.434 361.218 132.629 362.314 134.715C362.095 135.813 361.876 137.021 361.766 138.229C361.985 137.24 362.314 136.252 362.643 135.264C363.411 136.582 364.178 137.789 365.056 138.997C367.468 142.291 370.319 145.255 373.718 147.451C370.428 145.035 367.687 142.071 365.494 138.668C364.507 137.24 363.74 135.813 362.972 134.386C362.863 134.166 362.753 133.947 362.643 133.727C361.766 131.861 360.889 129.885 360.341 127.908C360.121 127.14 359.902 126.371 359.683 125.603C359.573 125.164 359.463 124.615 359.354 124.176C358.805 121.651 358.477 119.016 358.367 116.381C360.012 117.588 361.656 118.686 363.52 119.674C363.74 119.784 363.849 119.894 363.959 119.894C364.288 120.114 364.617 120.223 364.946 120.333C366.152 120.882 367.358 121.431 368.674 121.87C369.003 121.98 369.442 122.09 369.771 122.199C370.977 122.529 372.183 122.858 373.499 123.188C374.924 123.517 376.459 123.627 377.885 123.737C379.42 123.846 380.845 123.846 382.38 123.627C379.42 123.517 376.569 123.078 373.718 122.309C372.621 121.98 371.525 121.76 370.538 121.321C372.073 119.455 373.718 117.698 375.472 116.051C377.665 114.075 379.968 112.428 382.49 110.672C381.832 111.001 381.174 111.33 380.516 111.66C379.858 111.989 379.201 112.319 378.543 112.758C377.336 113.636 376.021 114.405 374.924 115.393C372.841 116.93 371.086 118.906 369.442 120.882C368.126 120.443 366.81 119.894 365.604 119.235C365.385 119.125 365.165 119.016 364.946 118.906C364.836 118.796 364.727 118.796 364.617 118.686C362.534 117.588 360.56 116.381 358.696 115.063C358.586 111.33 358.915 107.707 359.683 104.084C360.341 100.022 360.56 95.9602 360.012 91.898C359.463 87.8359 358.148 83.8835 356.064 80.2605C351.897 73.1243 345.099 67.8545 337.533 65C341.261 66.537 344.661 68.7328 347.731 71.3677C350.801 74.0026 353.323 77.0767 355.297 80.5899C357.161 84.1031 358.477 87.9457 358.915 91.898C359.354 95.8504 359.244 99.9125 358.477 103.865C357.819 107.268 357.49 110.782 357.599 114.295C357.599 114.624 357.599 114.953 357.599 115.393C357.709 118.686 358.148 121.87 358.915 125.054C358.805 125.164 358.805 125.274 358.696 125.383C356.174 128.567 354.31 132.19 352.775 135.923C351.459 138.997 350.472 142.291 349.924 145.584C349.814 145.914 349.814 146.243 349.704 146.572C349.595 146.902 349.595 147.231 349.485 147.56C348.937 151.513 348.827 155.685 349.485 159.637C349.266 155.575 349.704 151.623 350.472 147.78Z" fill="#FA635A" stroke="#FA635A" stroke-width="0.5" stroke-linejoin="round"/>
<path d="M302.993 258.886C302.774 258.776 302.445 258.556 302.226 258.447C302.664 257.788 303.213 257.019 303.761 256.361C305.515 254.055 307.599 251.969 309.682 249.773C309.134 250.213 308.476 250.652 307.928 251.091C307.379 251.53 306.721 251.969 306.173 252.518C305.077 253.616 303.98 254.604 303.103 255.702C302.555 256.361 301.897 257.019 301.458 257.788C300.362 257.019 299.265 256.361 298.169 255.482L295.866 253.726L293.673 251.75C292.905 251.091 292.247 250.432 291.48 249.664C290.822 249.005 290.054 248.346 289.397 247.578L287.423 245.382C286.875 244.833 286.436 244.174 285.997 243.515C286.546 243.515 287.094 243.515 287.642 243.625C290.054 243.625 292.467 243.515 294.769 243.076C295.756 243.735 296.743 244.284 297.84 244.723C296.962 244.174 296.195 243.515 295.318 242.967C296.743 242.637 298.278 242.308 299.704 241.978C303.542 240.771 307.379 239.124 310.559 236.599C307.16 238.904 303.432 240.441 299.594 241.429C297.949 241.869 296.305 242.198 294.66 242.418C294.44 242.418 294.221 242.527 293.892 242.527C291.809 242.747 289.726 242.857 287.642 242.747C286.875 242.747 285.997 242.637 285.23 242.527C284.791 242.527 284.243 242.418 283.804 242.308C281.173 241.978 278.651 241.429 276.129 240.661C277.774 239.563 279.418 238.246 280.953 236.928C281.063 236.818 281.173 236.709 281.392 236.599C281.611 236.379 281.94 236.16 282.16 235.83C283.146 234.952 284.024 233.854 284.791 232.866C285.011 232.537 285.23 232.207 285.559 231.988C286.326 231 286.984 229.902 287.642 228.804C288.41 227.486 289.068 226.169 289.616 224.852C290.164 223.424 290.712 222.107 291.041 220.57C289.945 223.315 288.519 225.949 286.984 228.365C286.326 229.243 285.668 230.231 285.011 231.109C283.804 229.023 282.598 226.937 281.721 224.632C280.515 221.887 279.747 219.143 278.98 216.288C279.089 217.057 279.199 217.715 279.309 218.484C279.418 219.252 279.528 219.911 279.638 220.68C280.076 222.107 280.296 223.534 280.844 224.961C281.611 227.486 282.817 229.792 284.133 231.988C283.256 233.086 282.269 234.074 281.282 235.062C281.063 235.281 280.953 235.391 280.734 235.611C280.624 235.721 280.515 235.83 280.405 235.94C278.651 237.587 276.896 239.014 274.923 240.332C271.414 239.234 268.015 237.587 264.835 235.721C261.216 233.744 257.379 232.207 253.431 231.329C249.374 230.561 245.207 230.341 241.15 231.109C233.036 232.646 225.799 237.258 220.646 243.515C223.387 240.551 226.567 238.026 230.075 236.05C233.584 234.074 237.312 232.646 241.26 231.988C245.207 231.329 249.264 231.439 253.102 232.317C256.94 233.195 260.778 234.732 264.177 236.709C267.247 238.465 270.427 239.892 273.716 241.1C274.045 241.21 274.374 241.32 274.703 241.429C277.774 242.418 280.953 243.076 284.243 243.406C284.353 243.515 284.353 243.625 284.462 243.735C286.655 247.138 289.397 250.103 292.357 252.847C294.879 255.153 297.62 257.129 300.471 258.776C300.8 258.996 301.02 259.105 301.348 259.325C301.677 259.544 301.897 259.654 302.226 259.874C305.735 261.74 309.572 263.167 313.52 263.936C309.901 262.619 306.283 260.862 302.993 258.886Z" fill="#FA635A" stroke="#FA635A" stroke-width="0.5" stroke-linejoin="round"/>
<path d="M276.238 202.016C276.019 201.906 275.69 201.686 275.471 201.577C275.909 200.918 276.458 200.149 277.006 199.491C278.76 197.185 280.844 195.099 282.927 192.903C282.379 193.342 281.721 193.782 281.173 194.221C280.624 194.66 279.966 195.099 279.418 195.648C278.322 196.746 277.225 197.734 276.348 198.832C275.8 199.491 275.142 200.149 274.703 200.918C273.607 200.149 272.51 199.491 271.414 198.612L269.111 196.856L266.918 194.879C266.15 194.221 265.493 193.562 264.725 192.793C264.067 192.135 263.3 191.476 262.642 190.708L260.668 188.512C260.12 187.963 259.681 187.304 259.242 186.645C259.791 186.645 260.339 186.645 260.887 186.755C263.3 186.755 265.712 186.645 268.015 186.206C269.001 186.865 269.988 187.414 271.085 187.853C270.208 187.304 269.44 186.645 268.563 186.096C269.988 185.767 271.523 185.438 272.949 185.108C276.787 183.901 280.624 182.254 283.804 179.729C280.405 182.034 276.677 183.571 272.839 184.559C271.194 184.999 269.55 185.328 267.905 185.547C267.686 185.547 267.466 185.657 267.137 185.657C265.054 185.877 262.971 185.987 260.887 185.877C260.12 185.877 259.242 185.767 258.475 185.657C258.036 185.657 257.488 185.547 257.049 185.438C254.418 185.108 251.896 184.559 249.374 183.791C251.019 182.693 252.663 181.376 254.199 180.058C254.308 179.948 254.418 179.839 254.637 179.729C254.856 179.509 255.185 179.29 255.405 178.96C256.392 178.082 257.269 176.984 258.036 175.996C258.256 175.667 258.475 175.337 258.804 175.118C259.571 174.13 260.229 173.032 260.887 171.934C261.655 170.616 262.313 169.299 262.861 167.981C263.409 166.554 263.957 165.237 264.286 163.7C263.19 166.444 261.764 169.079 260.229 171.495C259.571 172.373 258.914 173.361 258.256 174.239C257.049 172.153 255.843 170.067 254.966 167.762C253.76 165.017 252.992 162.272 252.225 159.418C252.334 160.186 252.444 160.845 252.554 161.614C252.663 162.382 252.773 163.041 252.883 163.809C253.321 165.237 253.541 166.664 254.089 168.091C254.856 170.616 256.063 172.922 257.378 175.118C256.501 176.216 255.514 177.204 254.528 178.192C254.308 178.411 254.199 178.521 253.979 178.741C253.87 178.85 253.76 178.96 253.65 179.07C251.896 180.717 250.141 182.144 248.168 183.462C244.659 182.364 241.26 180.717 238.08 178.85C234.461 176.874 230.624 175.337 226.676 174.459C222.619 173.69 218.452 173.471 214.395 174.239C206.281 175.776 199.044 180.387 193.891 186.645C196.632 183.681 199.812 181.156 203.321 179.18C206.829 177.204 210.558 175.776 214.505 175.118C218.452 174.459 222.509 174.569 226.347 175.447C230.185 176.325 234.023 177.862 237.422 179.839C240.492 181.595 243.672 183.022 246.962 184.23C247.291 184.34 247.62 184.45 247.948 184.559C251.019 185.547 254.199 186.206 257.488 186.536C257.598 186.645 257.598 186.755 257.707 186.865C259.9 190.268 262.642 193.233 265.602 195.977C268.124 198.283 270.865 200.259 273.716 201.906C274.045 202.125 274.265 202.235 274.594 202.455C274.923 202.674 275.142 202.784 275.471 203.004C278.98 204.87 282.817 206.297 286.765 207.066C283.256 205.858 279.638 204.102 276.238 202.016Z" fill="#FA635A" stroke="#FA635A" stroke-width="0.5" stroke-linejoin="round"/>
</g>
<mask id="mask2_862_12568" style="mask-type:alpha" maskUnits="userSpaceOnUse" x="263" y="135" width="154" height="154">
<path d="M340 289C297.474 289 263 254.526 263 212C263 169.474 297.474 135 340 135C382.526 135 417 169.474 417 212C417 254.526 382.526 289 340 289Z" fill="white"/>
</mask>
<g mask="url(#mask2_862_12568)">
<g filter="url(#filter3_f_862_12568)">
<path d="M265 212C265 253.986 298.591 288 340 288C381.409 288 415 253.986 415 212C415 170.014 381.409 136 340 136C298.591 136 265 170.014 265 212Z" stroke="#743C1C" stroke-width="2"/>
</g>
</g>
<mask id="mask3_862_12568" style="mask-type:alpha" maskUnits="userSpaceOnUse" x="263" y="135" width="154" height="154">
<path d="M340 289C382.526 289 417 254.526 417 212C417 169.474 382.526 135 340 135C297.474 135 263 169.474 263 212C263 254.526 297.474 289 340 289Z" fill="url(#paint8_radial_862_12568)"/>
</mask>
<g mask="url(#mask3_862_12568)">
<g filter="url(#filter4_f_862_12568)">
<path fill-rule="evenodd" clip-rule="evenodd" d="M263.212 206.24C285.816 199.726 312.038 196 340 196C367.963 196 394.185 199.726 416.788 206.24C413.842 166.404 380.589 135 340 135C299.412 135 266.158 166.404 263.212 206.24Z" fill="#743C1C" fill-opacity="0.5"/>
</g>
</g>
<path fill-rule="evenodd" clip-rule="evenodd" d="M263.212 206.24C285.816 199.726 312.038 196 340 196C367.963 196 394.185 199.726 416.788 206.24C413.842 166.404 380.589 135 340 135C299.412 135 266.158 166.404 263.212 206.24Z" fill="url(#paint9_linear_862_12568)"/>
<path d="M141.9 289.8C184.923 289.8 219.8 254.923 219.8 211.9C219.8 168.877 184.923 134 141.9 134C98.877 134 64 168.877 64 211.9C64 254.923 98.877 289.8 141.9 289.8Z" stroke="url(#paint10_linear_862_12568)" stroke-width="2" stroke-miterlimit="10"/>
<path d="M142 289C184.526 289 219 254.526 219 212C219 169.474 184.526 135 142 135C99.4741 135 65 169.474 65 212C65 254.526 99.4741 289 142 289Z" fill="url(#paint11_radial_862_12568)"/>
<g filter="url(#filter5_f_862_12568)">
<circle cx="142" cy="207" r="32" fill="black"/>
</g>
<mask id="mask4_862_12568" style="mask-type:alpha" maskUnits="userSpaceOnUse" x="65" y="135" width="154" height="154">
<path d="M141.9 288.8C184.371 288.8 218.8 254.371 218.8 211.9C218.8 169.429 184.371 135 141.9 135C99.4293 135 65 169.429 65 211.9C65 254.371 99.4293 288.8 141.9 288.8Z" fill="white"/>
</mask>
<g mask="url(#mask4_862_12568)">
<path d="M171.88 267.778C171.661 267.998 171.442 268.218 171.222 268.437C170.674 267.778 170.016 267.229 169.468 266.571C167.494 264.375 165.959 261.96 164.314 259.435C164.643 260.093 164.972 260.752 165.301 261.411C165.63 262.069 165.959 262.728 166.398 263.387C167.165 264.595 167.933 265.912 168.92 267.12C169.468 267.888 170.016 268.547 170.564 269.206C169.578 270.194 168.7 271.072 167.604 271.95L165.411 273.927L162.998 275.683C162.231 276.342 161.354 276.781 160.586 277.33C159.709 277.879 158.941 278.428 158.064 278.867L155.542 280.294C154.884 280.624 154.117 280.953 153.459 281.282C153.569 280.733 153.678 280.184 153.897 279.745C154.446 277.44 154.775 275.024 154.775 272.609C155.652 271.731 156.419 270.852 157.077 269.974C156.31 270.743 155.652 271.401 154.775 272.06C154.775 270.523 154.775 269.096 154.665 267.559C154.336 263.497 153.349 259.435 151.704 255.812C153.24 259.544 154.007 263.606 154.117 267.559C154.226 269.206 154.226 270.962 154.007 272.609C154.007 272.829 154.007 273.158 154.007 273.378C153.788 275.464 153.459 277.55 153.02 279.526C152.801 280.294 152.582 281.063 152.362 281.831C152.253 282.27 152.033 282.71 151.924 283.258C151.047 285.784 149.95 288.199 148.634 290.504C147.867 288.638 146.989 286.772 146.003 285.015C145.893 284.905 145.783 284.686 145.674 284.576C145.454 284.247 145.345 284.027 145.125 283.698C144.358 282.6 143.59 281.502 142.713 280.514C142.494 280.184 142.274 279.965 141.946 279.635C141.068 278.647 140.191 277.769 139.314 276.891C138.217 275.903 137.011 274.915 135.805 274.146C134.599 273.268 133.283 272.499 131.967 271.95C134.489 273.597 136.682 275.464 138.656 277.55C139.424 278.318 140.191 279.196 140.849 280.075C138.546 280.843 136.244 281.502 133.941 281.941C131.09 282.49 128.13 282.71 125.169 282.819C125.937 282.929 126.704 282.929 127.362 282.929C128.13 282.929 128.787 283.039 129.555 283.039C130.98 282.929 132.516 282.929 134.051 282.71C136.682 282.49 139.204 281.721 141.617 280.843C142.494 281.941 143.371 283.039 144.029 284.247C144.139 284.466 144.248 284.686 144.467 284.905C144.577 285.015 144.577 285.125 144.687 285.235C145.893 287.211 146.989 289.297 147.867 291.493C146.003 294.676 143.81 297.641 141.288 300.385C138.546 303.459 136.353 306.973 134.599 310.705C132.954 314.438 131.967 318.5 131.858 322.672C131.748 330.906 134.709 339.031 139.753 345.289C137.34 341.995 135.586 338.372 134.38 334.529C133.173 330.687 132.516 326.734 132.735 322.672C132.954 318.72 133.831 314.768 135.476 311.145C137.121 307.522 139.424 304.118 142.055 301.154C144.358 298.519 146.441 295.665 148.305 292.7C148.525 292.371 148.634 292.151 148.854 291.822C150.498 288.967 151.814 286.003 152.801 282.929C152.911 282.929 153.02 282.819 153.13 282.819C156.968 281.392 160.367 279.306 163.656 277.001C166.398 275.024 168.92 272.719 171.113 270.194C171.332 269.974 171.551 269.645 171.771 269.425C171.99 269.206 172.209 268.876 172.428 268.657C175.06 265.583 177.253 262.069 178.679 258.337C177.034 261.74 174.512 264.924 171.88 267.778Z" fill="#FA635A" stroke="#FA635A" stroke-width="0.5" stroke-linejoin="round"/>
<path d="M111.463 282.489C111.243 282.709 111.024 282.928 110.805 283.148C110.257 282.489 109.599 281.94 109.05 281.282C107.077 279.086 105.542 276.671 103.897 274.145C104.226 274.804 104.555 275.463 104.884 276.122C105.213 276.78 105.542 277.439 105.98 278.098C106.748 279.306 107.515 280.623 108.502 281.831C109.05 282.599 109.599 283.258 110.147 283.917C109.16 284.905 108.283 285.783 107.186 286.661L104.993 288.637L102.581 290.394C101.813 291.053 100.936 291.492 100.169 292.041C99.2915 292.59 98.5239 293.139 97.6467 293.578L95.1247 295.005C94.4668 295.335 93.6993 295.664 93.0414 295.993C93.151 295.444 93.2607 294.895 93.48 294.456C94.0282 292.151 94.3572 289.735 94.3572 287.32C95.2344 286.442 96.0019 285.563 96.6598 284.685C95.8923 285.454 95.2344 286.112 94.3572 286.771C94.3572 285.234 94.3572 283.807 94.2475 282.27C93.9186 278.208 92.9317 274.145 91.287 270.522C92.8221 274.255 93.5896 278.317 93.6993 282.27C93.8089 283.917 93.8089 285.673 93.5896 287.32C93.5896 287.54 93.5896 287.869 93.5896 288.089C93.3703 290.174 93.0414 292.26 92.6028 294.237C92.3835 295.005 92.1642 295.774 91.9449 296.542C91.8352 296.981 91.6159 297.42 91.5063 297.969C90.629 300.495 89.5325 302.91 88.2167 305.215C87.4492 303.349 86.572 301.483 85.5851 299.726C85.4755 299.616 85.3658 299.397 85.2562 299.287C85.0369 298.958 84.9272 298.738 84.7079 298.409C83.9404 297.311 83.1728 296.213 82.2956 295.225C82.0763 294.895 81.857 294.676 81.528 294.346C80.6508 293.358 79.7736 292.48 78.8964 291.602C77.7999 290.614 76.5938 289.626 75.3876 288.857C74.1814 287.979 72.8656 287.21 71.5498 286.661C74.0718 288.308 76.2648 290.174 78.2385 292.26C79.0061 293.029 79.7736 293.907 80.4315 294.786C78.1289 295.554 75.8262 296.213 73.5235 296.652C70.6726 297.201 67.712 297.42 64.7515 297.53C65.519 297.64 66.2866 297.64 66.9445 297.64C67.712 297.64 68.3699 297.75 69.1375 297.75C70.563 297.64 72.0981 297.64 73.6332 297.42C76.2648 297.201 78.7868 296.432 81.1991 295.554C82.0763 296.652 82.9535 297.75 83.6114 298.958C83.7211 299.177 83.8307 299.397 84.05 299.616C84.1597 299.726 84.1597 299.836 84.2693 299.946C85.4755 301.922 86.572 304.008 87.4492 306.204C85.5851 309.387 83.3921 312.352 80.8701 315.096C78.1289 318.17 75.9358 321.684 74.1814 325.416C72.5367 329.149 71.5498 333.211 71.4402 337.383C71.3305 345.617 74.2911 353.742 79.335 360C76.9227 356.706 75.1683 353.083 73.9621 349.24C72.756 345.398 72.0981 341.445 72.3174 337.383C72.5367 333.431 73.4139 329.479 75.0586 325.856C76.7034 322.233 79.0061 318.829 81.6377 315.865C83.9404 313.23 86.0237 310.375 87.8878 307.411C88.1071 307.082 88.2167 306.862 88.436 306.533C90.0808 303.678 91.3966 300.714 92.3835 297.64C92.4931 297.64 92.6028 297.53 92.7124 297.53C96.5502 296.103 99.9494 294.017 103.239 291.712C105.98 289.735 108.502 287.43 110.695 284.905C110.914 284.685 111.134 284.356 111.353 284.136C111.572 283.917 111.792 283.587 112.011 283.368C114.643 280.294 116.836 276.78 118.261 273.048C116.616 276.451 114.204 279.525 111.463 282.489Z" fill="#FA635A" stroke="#FA635A" stroke-width="0.5" stroke-linejoin="round"/>
<path d="M202.363 212.665C202.473 212.885 202.692 213.214 202.802 213.543C202.034 213.873 201.267 214.202 200.389 214.531C197.648 215.629 194.797 216.288 191.946 217.057C192.714 216.947 193.372 216.947 194.139 216.837C194.907 216.727 195.674 216.727 196.332 216.508C197.758 216.178 199.293 215.849 200.609 215.41C201.486 215.19 202.253 214.861 203.131 214.531C203.679 215.739 204.227 216.947 204.775 218.154L205.872 220.899L206.749 223.754C207.078 224.742 207.297 225.62 207.517 226.608C207.736 227.596 207.955 228.475 208.175 229.463L208.723 232.427C208.832 233.195 208.942 233.964 208.942 234.732C208.504 234.403 208.065 234.074 207.626 233.854C205.543 232.537 203.46 231.439 201.267 230.561C200.718 229.463 200.17 228.475 199.512 227.486C199.951 228.365 200.389 229.353 200.718 230.341C199.293 229.792 197.867 229.353 196.442 228.914C192.495 227.926 188.437 227.377 184.38 227.816C188.437 227.596 192.495 228.255 196.332 229.463C197.977 229.902 199.512 230.561 201.047 231.219C201.267 231.329 201.486 231.439 201.705 231.549C203.569 232.427 205.433 233.415 207.188 234.623C207.846 235.062 208.504 235.501 209.161 236.05C209.6 236.379 209.929 236.599 210.258 236.928C212.341 238.575 214.205 240.441 215.96 242.418C213.986 242.418 211.903 242.747 209.929 243.076C209.71 243.076 209.6 243.186 209.381 243.186C209.052 243.296 208.723 243.296 208.394 243.406C207.078 243.735 205.872 244.064 204.556 244.613C204.227 244.723 203.789 244.833 203.46 245.053C202.253 245.492 201.157 246.041 200.06 246.699C198.745 247.358 197.429 248.236 196.223 249.005C195.017 249.883 193.81 250.761 192.823 251.859C195.126 250.103 197.758 248.566 200.389 247.358C201.376 246.919 202.473 246.48 203.46 246.041C203.46 248.456 203.35 250.871 202.911 253.287C202.473 256.141 201.705 258.996 200.828 261.85C201.157 261.191 201.376 260.533 201.705 259.764C201.925 259.105 202.363 258.447 202.473 257.678C202.911 256.251 203.35 254.824 203.679 253.396C204.337 250.871 204.446 248.236 204.556 245.601C205.872 245.162 207.188 244.723 208.613 244.394C208.832 244.394 209.052 244.284 209.381 244.174C209.49 244.174 209.71 244.174 209.819 244.064C212.122 243.625 214.425 243.296 216.727 243.186C219.14 246.041 221.223 249.115 222.868 252.299C224.842 255.812 227.363 259.215 230.324 261.96C233.285 264.814 236.793 267.01 240.631 268.547C248.307 271.402 256.969 271.292 264.535 268.657C260.697 269.755 256.64 270.304 252.583 270.084C248.636 269.974 244.579 269.206 240.851 267.669C237.122 266.132 233.833 263.936 230.872 261.191C228.021 258.447 225.609 255.153 223.635 251.64C221.991 248.566 220.017 245.601 217.714 242.967C217.495 242.637 217.276 242.418 217.056 242.198C214.863 239.783 212.561 237.477 209.929 235.501C209.929 235.391 209.929 235.281 209.929 235.172C209.819 231.109 209.052 227.157 207.955 223.205C206.968 219.911 205.653 216.837 204.118 213.873C204.008 213.543 203.789 213.324 203.679 212.994C203.569 212.665 203.35 212.446 203.131 212.116C201.047 208.603 198.525 205.419 195.565 202.784C198.416 205.748 200.499 209.152 202.363 212.665Z" fill="#FA635A" stroke="#FA635A" stroke-width="0.5" stroke-linejoin="round"/>
<path d="M193.262 276.562C193.372 276.781 193.591 277.111 193.701 277.44C192.933 277.769 192.166 278.099 191.288 278.428C188.547 279.526 185.696 280.185 182.845 280.953C183.613 280.843 184.271 280.843 185.038 280.734C185.806 280.624 186.573 280.624 187.231 280.404C188.657 280.075 190.192 279.745 191.508 279.306C192.385 279.087 193.152 278.757 194.03 278.428C194.578 279.636 195.126 280.843 195.674 282.051L196.771 284.796L197.648 287.65C197.977 288.638 198.196 289.517 198.416 290.505C198.635 291.493 198.854 292.371 199.074 293.359L199.622 296.323C199.731 297.092 199.841 297.86 199.841 298.629C199.402 298.3 198.964 297.97 198.525 297.751C196.442 296.433 194.359 295.335 192.166 294.457C191.617 293.359 191.069 292.371 190.411 291.383C190.85 292.261 191.288 293.249 191.617 294.237C190.192 293.688 188.766 293.249 187.341 292.81C183.393 291.822 179.336 291.273 175.279 291.712C179.336 291.493 183.393 292.151 187.231 293.359C188.876 293.798 190.411 294.457 191.946 295.116C192.166 295.226 192.385 295.335 192.604 295.445C194.468 296.323 196.332 297.311 198.087 298.519C198.745 298.958 199.402 299.397 200.06 299.946C200.499 300.276 200.828 300.495 201.157 300.825C203.24 302.472 205.104 304.338 206.859 306.314C204.885 306.314 202.802 306.643 200.828 306.973C200.609 306.973 200.499 307.083 200.28 307.083C199.951 307.192 199.622 307.192 199.293 307.302C197.977 307.632 196.771 307.961 195.455 308.51C195.126 308.62 194.687 308.729 194.359 308.949C193.152 309.388 192.056 309.937 190.959 310.596C189.644 311.255 188.328 312.133 187.122 312.901C185.915 313.78 184.709 314.658 183.722 315.756C186.025 313.999 188.657 312.462 191.288 311.255C192.275 310.815 193.372 310.376 194.359 309.937C194.359 312.352 194.249 314.768 193.81 317.183C193.372 320.038 192.604 322.892 191.727 325.747C192.056 325.088 192.275 324.429 192.604 323.661C192.823 323.002 193.262 322.343 193.372 321.575C193.81 320.147 194.249 318.72 194.578 317.293C195.236 314.768 195.345 312.133 195.455 309.498C196.771 309.059 198.087 308.62 199.512 308.29C199.731 308.29 199.951 308.18 200.28 308.071C200.389 308.071 200.609 308.071 200.718 307.961C203.021 307.522 205.324 307.192 207.626 307.083C210.039 309.937 212.122 313.011 213.767 316.195C215.74 319.708 218.262 323.112 221.223 325.856C224.184 328.711 227.692 330.907 231.53 332.444C239.206 335.298 247.868 335.188 255.434 332.553C251.596 333.651 247.539 334.2 243.482 333.981C239.535 333.871 235.478 333.102 231.749 331.565C228.021 330.028 224.732 327.833 221.771 325.088C218.92 322.343 216.508 319.049 214.534 315.536C212.89 312.462 210.916 309.498 208.613 306.863C208.394 306.534 208.175 306.314 207.955 306.095C205.762 303.679 203.46 301.374 200.828 299.397C200.828 299.288 200.828 299.178 200.828 299.068C200.718 295.006 199.951 291.054 198.854 287.101C197.867 283.808 196.552 280.734 195.016 277.769C194.907 277.44 194.687 277.22 194.578 276.891C194.468 276.562 194.249 276.342 194.03 276.013C191.946 272.499 189.424 269.316 186.464 266.681C189.315 269.755 191.398 273.048 193.262 276.562Z" fill="#FA635A" stroke="#FA635A" stroke-width="0.5" stroke-linejoin="round"/>
<path d="M160.586 165.456C160.915 165.456 161.244 165.346 161.463 165.346C161.573 166.225 161.573 167.103 161.573 167.871C161.683 170.836 161.354 173.69 161.134 176.654C161.354 175.886 161.463 175.227 161.573 174.459C161.683 173.69 161.902 173.031 162.012 172.263C162.121 170.836 162.45 169.299 162.341 167.762C162.341 166.883 162.341 166.005 162.341 165.017C163.656 164.907 164.972 164.797 166.398 164.688L169.358 164.578L172.319 164.688C173.306 164.688 174.293 164.797 175.279 164.907C176.266 165.017 177.253 165.127 178.24 165.237L181.201 165.676C181.968 165.785 182.736 166.005 183.503 166.225C183.065 166.554 182.626 166.883 182.187 167.213C180.323 168.75 178.569 170.397 177.034 172.153C175.828 172.263 174.731 172.483 173.525 172.812C174.512 172.702 175.608 172.592 176.595 172.592C175.608 173.69 174.731 174.898 173.854 176.106C171.551 179.509 169.797 183.132 168.81 187.084C170.016 183.242 171.88 179.619 174.293 176.435C175.279 175.117 176.376 173.8 177.472 172.592C177.582 172.373 177.801 172.263 178.021 172.043C179.446 170.506 181.091 169.189 182.736 167.871C183.394 167.432 184.051 166.993 184.709 166.554C185.148 166.225 185.477 166.005 185.915 165.785C188.109 164.358 190.521 163.26 192.933 162.272C192.275 164.139 191.837 166.225 191.617 168.201C191.617 168.42 191.508 168.53 191.508 168.75C191.398 169.079 191.398 169.408 191.398 169.848C191.288 171.165 191.179 172.483 191.179 173.8C191.179 174.239 191.179 174.568 191.179 175.008C191.179 176.325 191.288 177.533 191.508 178.85C191.727 180.387 192.056 181.814 192.385 183.242C192.823 184.669 193.262 186.096 194.03 187.414C193.152 184.559 192.604 181.705 192.385 178.85C192.275 177.752 192.275 176.654 192.166 175.557C194.468 176.325 196.661 177.313 198.745 178.521C201.376 179.838 203.679 181.595 206.091 183.352C205.543 182.803 204.995 182.363 204.446 181.814C203.898 181.375 203.35 180.826 202.802 180.387C201.596 179.509 200.389 178.631 199.183 177.862C196.99 176.435 194.578 175.337 192.166 174.459C192.166 173.031 192.275 171.604 192.385 170.287C192.385 170.067 192.385 169.738 192.495 169.518C192.495 169.408 192.495 169.189 192.495 169.079C192.823 166.774 193.262 164.468 193.92 162.272C197.319 160.955 200.938 160.076 204.556 159.528C208.613 158.869 212.561 157.551 216.179 155.795C219.798 153.928 223.197 151.403 225.828 148.219C231.092 141.962 233.943 133.727 233.943 125.713C233.723 129.775 232.736 133.727 231.311 137.46C229.885 141.193 227.802 144.706 225.17 147.67C222.539 150.635 219.249 153.05 215.741 154.916C212.122 156.673 208.284 157.881 204.337 158.539C200.938 159.088 197.429 159.967 194.139 161.174C193.81 161.284 193.481 161.394 193.152 161.504C190.082 162.711 187.231 164.139 184.49 166.005C184.38 166.005 184.271 165.895 184.161 165.895C180.323 164.688 176.266 164.029 172.209 163.809C168.81 163.59 165.52 163.809 162.121 164.358C161.792 164.358 161.463 164.468 161.134 164.578C160.805 164.578 160.477 164.688 160.148 164.797C156.2 165.566 152.362 166.883 148.854 168.86C152.801 166.883 156.748 166.005 160.586 165.456Z" fill="#FA635A" stroke="#FA635A" stroke-width="0.5" stroke-linejoin="round"/>
<path d="M214.534 196.416C214.863 196.416 215.192 196.306 215.412 196.306C215.521 197.185 215.521 198.063 215.521 198.831C215.631 201.796 215.302 204.65 215.083 207.614C215.302 206.846 215.412 206.187 215.521 205.419C215.631 204.65 215.85 203.991 215.96 203.223C216.07 201.796 216.398 200.259 216.289 198.722C216.289 197.843 216.289 196.965 216.289 195.977C217.605 195.867 218.92 195.757 220.346 195.648L223.306 195.538L226.267 195.648C227.254 195.648 228.241 195.757 229.228 195.867C230.214 195.977 231.201 196.087 232.188 196.196L235.149 196.636C235.916 196.745 236.684 196.965 237.451 197.185C237.013 197.514 236.574 197.843 236.136 198.173C234.272 199.71 232.517 201.357 230.982 203.113C229.776 203.223 228.679 203.442 227.473 203.772C228.46 203.662 229.557 203.552 230.543 203.552C229.557 204.65 228.679 205.858 227.802 207.065C225.499 210.469 223.745 214.092 222.758 218.044C223.964 214.202 225.828 210.579 228.241 207.395C229.228 206.077 230.324 204.76 231.421 203.552C231.53 203.333 231.75 203.223 231.969 203.003C233.394 201.466 235.039 200.149 236.684 198.831C237.342 198.392 238 197.953 238.658 197.514C239.096 197.185 239.425 196.965 239.864 196.745C242.057 195.318 244.469 194.22 246.881 193.232C246.223 195.099 245.785 197.185 245.566 199.161C245.566 199.38 245.456 199.49 245.456 199.71C245.346 200.039 245.346 200.368 245.346 200.808C245.237 202.125 245.127 203.442 245.127 204.76C245.127 205.199 245.127 205.528 245.127 205.968C245.127 207.285 245.237 208.493 245.456 209.81C245.675 211.347 246.004 212.774 246.333 214.202C246.772 215.629 247.21 217.056 247.978 218.374C247.101 215.519 246.552 212.665 246.333 209.81C246.223 208.712 246.223 207.614 246.114 206.517C248.416 207.285 250.609 208.273 252.693 209.481C255.324 210.798 257.627 212.555 260.039 214.311C259.491 213.763 258.943 213.323 258.395 212.774C257.846 212.335 257.298 211.786 256.75 211.347C255.544 210.469 254.338 209.591 253.131 208.822C250.938 207.395 248.526 206.297 246.114 205.419C246.114 203.991 246.223 202.564 246.333 201.247C246.333 201.027 246.333 200.698 246.443 200.478C246.443 200.368 246.443 200.149 246.443 200.039C246.772 197.734 247.21 195.428 247.868 193.232C251.267 191.915 254.886 191.036 258.504 190.488C262.561 189.829 266.509 188.511 270.127 186.755C273.746 184.888 277.145 182.363 279.777 179.179C285.04 172.921 287.891 164.687 287.891 156.673C287.671 160.735 286.685 164.687 285.259 168.42C283.834 172.153 281.75 175.666 279.119 178.63C276.487 181.595 273.198 184.01 269.689 185.876C266.07 187.633 262.232 188.841 258.285 189.499C254.886 190.048 251.377 190.927 248.088 192.134C247.759 192.244 247.43 192.354 247.101 192.464C244.03 193.671 241.18 195.099 238.438 196.965C238.329 196.965 238.219 196.855 238.109 196.855C234.272 195.648 230.214 194.989 226.157 194.769C222.758 194.55 219.469 194.769 216.069 195.318C215.741 195.318 215.412 195.428 215.083 195.538C214.754 195.538 214.425 195.648 214.096 195.757C210.148 196.526 206.311 197.843 202.802 199.819C206.749 197.953 210.697 197.075 214.534 196.416Z" fill="#FA635A" stroke="#FA635A" stroke-width="0.5" stroke-linejoin="round"/>
<path d="M102.252 189.06C102.361 188.731 102.361 188.402 102.471 188.182C103.348 188.402 104.116 188.621 104.883 188.951C107.625 189.829 110.366 191.037 112.998 192.354C112.34 191.915 111.791 191.585 111.134 191.146C110.476 190.817 109.927 190.378 109.269 190.048C107.954 189.39 106.638 188.731 105.212 188.182C104.335 187.853 103.568 187.523 102.69 187.304C103.019 185.986 103.348 184.669 103.677 183.461L104.555 180.607L105.651 177.862C105.98 176.874 106.419 176.105 106.857 175.117C107.296 174.239 107.625 173.361 108.173 172.482L109.598 169.847C110.037 169.189 110.366 168.53 110.805 167.871C110.914 168.42 111.134 168.859 111.243 169.408C112.011 171.714 112.998 173.91 114.094 175.996C113.875 177.093 113.656 178.301 113.546 179.509C113.765 178.521 114.094 177.533 114.423 176.545C115.191 177.862 115.958 179.07 116.835 180.277C119.248 183.571 122.099 186.535 125.498 188.731C122.208 186.316 119.467 183.351 117.274 179.948C116.287 178.521 115.52 177.093 114.752 175.666C114.642 175.447 114.533 175.227 114.423 175.007C113.546 173.141 112.669 171.165 112.12 169.189C111.901 168.42 111.682 167.652 111.463 166.883C111.353 166.444 111.243 165.895 111.134 165.456C110.585 162.931 110.256 160.296 110.147 157.661C111.791 158.869 113.436 159.967 115.3 160.955C115.52 161.064 115.629 161.174 115.739 161.174C116.068 161.394 116.397 161.504 116.726 161.613C117.932 162.162 119.138 162.711 120.454 163.15C120.783 163.26 121.221 163.37 121.55 163.48C122.757 163.809 123.963 164.138 125.278 164.468C126.704 164.797 128.239 164.907 129.665 165.017C131.2 165.127 132.625 165.127 134.16 164.907C131.2 164.797 128.349 164.358 125.498 163.59C124.401 163.26 123.305 163.041 122.318 162.601C123.853 160.735 125.498 158.978 127.252 157.332C129.445 155.355 131.748 153.709 134.27 151.952C133.612 152.281 132.954 152.611 132.296 152.94C131.638 153.269 130.98 153.599 130.322 154.038C129.116 154.916 127.8 155.685 126.704 156.673C124.621 158.21 122.866 160.186 121.221 162.162C119.906 161.723 118.59 161.174 117.384 160.515C117.164 160.406 116.945 160.296 116.726 160.186C116.616 160.076 116.506 160.076 116.397 159.967C114.313 158.869 112.34 157.661 110.476 156.344C110.366 152.611 110.695 148.988 111.463 145.365C112.12 141.303 112.34 137.24 111.791 133.178C111.243 129.116 109.927 125.164 107.844 121.541C103.458 114.405 96.6597 109.135 89.0938 106.28C92.8219 107.817 96.221 110.013 99.2913 112.648C102.361 115.283 104.883 118.357 106.857 121.87C108.721 125.383 110.037 129.226 110.476 133.178C110.914 137.131 110.805 141.193 110.037 145.145C109.379 148.549 109.05 152.062 109.16 155.575C109.16 155.904 109.16 156.234 109.16 156.673C109.269 159.967 109.708 163.15 110.476 166.334C110.366 166.444 110.366 166.554 110.256 166.664C107.734 169.847 105.87 173.47 104.335 177.203C103.019 180.277 102.033 183.571 101.484 186.865C101.375 187.194 101.375 187.523 101.265 187.853C101.155 188.182 101.155 188.511 101.046 188.841C100.497 192.793 100.388 196.965 101.046 200.917C101.046 196.855 101.484 192.903 102.252 189.06Z" fill="#FA635A" stroke="#FA635A" stroke-width="0.5" stroke-linejoin="round"/>
<path d="M152.472 147.78C152.582 147.451 152.582 147.121 152.691 146.902C153.569 147.121 154.336 147.341 155.104 147.67C157.845 148.549 160.586 149.756 163.218 151.074C162.56 150.635 162.012 150.305 161.354 149.866C160.696 149.537 160.148 149.098 159.49 148.768C158.174 148.109 156.858 147.451 155.433 146.902C154.555 146.572 153.788 146.243 152.911 146.023C153.24 144.706 153.569 143.389 153.897 142.181L154.775 139.326L155.871 136.582C156.2 135.594 156.639 134.825 157.077 133.837C157.516 132.959 157.845 132.08 158.393 131.202L159.819 128.567C160.257 127.908 160.586 127.25 161.025 126.591C161.134 127.14 161.354 127.579 161.463 128.128C162.231 130.434 163.218 132.629 164.314 134.715C164.095 135.813 163.876 137.021 163.766 138.229C163.985 137.24 164.314 136.252 164.643 135.264C165.411 136.582 166.178 137.789 167.056 138.997C169.468 142.291 172.319 145.255 175.718 147.451C172.428 145.035 169.687 142.071 167.494 138.668C166.507 137.24 165.74 135.813 164.972 134.386C164.863 134.166 164.753 133.947 164.643 133.727C163.766 131.861 162.889 129.885 162.341 127.908C162.121 127.14 161.902 126.371 161.683 125.603C161.573 125.164 161.463 124.615 161.354 124.176C160.805 121.651 160.477 119.016 160.367 116.381C162.012 117.588 163.656 118.686 165.52 119.674C165.74 119.784 165.849 119.894 165.959 119.894C166.288 120.114 166.617 120.223 166.946 120.333C168.152 120.882 169.358 121.431 170.674 121.87C171.003 121.98 171.442 122.09 171.771 122.199C172.977 122.529 174.183 122.858 175.499 123.188C176.924 123.517 178.459 123.627 179.885 123.737C181.42 123.846 182.845 123.846 184.38 123.627C181.42 123.517 178.569 123.078 175.718 122.309C174.621 121.98 173.525 121.76 172.538 121.321C174.073 119.455 175.718 117.698 177.472 116.051C179.665 114.075 181.968 112.428 184.49 110.672C183.832 111.001 183.174 111.33 182.516 111.66C181.858 111.989 181.201 112.319 180.543 112.758C179.336 113.636 178.021 114.405 176.924 115.393C174.841 116.93 173.086 118.906 171.442 120.882C170.126 120.443 168.81 119.894 167.604 119.235C167.385 119.125 167.165 119.016 166.946 118.906C166.836 118.796 166.727 118.796 166.617 118.686C164.534 117.588 162.56 116.381 160.696 115.063C160.586 111.33 160.915 107.707 161.683 104.084C162.341 100.022 162.56 95.9602 162.012 91.898C161.463 87.8359 160.148 83.8835 158.064 80.2605C153.897 73.1243 147.099 67.8545 139.533 65C143.261 66.537 146.661 68.7328 149.731 71.3677C152.801 74.0026 155.323 77.0767 157.297 80.5899C159.161 84.1031 160.477 87.9457 160.915 91.898C161.354 95.8504 161.244 99.9125 160.477 103.865C159.819 107.268 159.49 110.782 159.599 114.295C159.599 114.624 159.599 114.953 159.599 115.393C159.709 118.686 160.148 121.87 160.915 125.054C160.805 125.164 160.805 125.274 160.696 125.383C158.174 128.567 156.31 132.19 154.775 135.923C153.459 138.997 152.472 142.291 151.924 145.584C151.814 145.914 151.814 146.243 151.704 146.572C151.595 146.902 151.595 147.231 151.485 147.56C150.937 151.513 150.827 155.685 151.485 159.637C151.266 155.575 151.704 151.623 152.472 147.78Z" fill="#FA635A" stroke="#FA635A" stroke-width="0.5" stroke-linejoin="round"/>
<path d="M104.993 258.886C104.774 258.776 104.445 258.556 104.226 258.447C104.664 257.788 105.213 257.019 105.761 256.361C107.515 254.055 109.599 251.969 111.682 249.773C111.134 250.213 110.476 250.652 109.928 251.091C109.379 251.53 108.721 251.969 108.173 252.518C107.077 253.616 105.98 254.604 105.103 255.702C104.555 256.361 103.897 257.019 103.458 257.788C102.362 257.019 101.265 256.361 100.169 255.482L97.866 253.726L95.6729 251.75C94.9054 251.091 94.2475 250.432 93.4799 249.664C92.822 249.005 92.0545 248.346 91.3965 247.578L89.4228 245.382C88.8746 244.833 88.436 244.174 87.9974 243.515C88.5456 243.515 89.0939 243.515 89.6421 243.625C92.0545 243.625 94.4668 243.515 96.7694 243.076C97.7563 243.735 98.7431 244.284 99.8397 244.723C98.9624 244.174 98.1949 243.515 97.3177 242.967C98.7432 242.637 100.278 242.308 101.704 241.978C105.542 240.771 109.379 239.124 112.559 236.599C109.16 238.904 105.432 240.441 101.594 241.429C99.9493 241.869 98.3045 242.198 96.6598 242.418C96.4405 242.418 96.2212 242.527 95.8922 242.527C93.8089 242.747 91.7255 242.857 89.6421 242.747C88.8746 242.747 87.9974 242.637 87.2298 242.527C86.7912 242.527 86.243 242.418 85.8044 242.308C83.1727 241.978 80.6508 241.429 78.1288 240.661C79.7736 239.563 81.4183 238.246 82.9534 236.928C83.0631 236.818 83.1727 236.709 83.392 236.599C83.6113 236.379 83.9403 236.16 84.1596 235.83C85.1465 234.952 86.0237 233.854 86.7912 232.866C87.0105 232.537 87.2298 232.207 87.5588 231.988C88.3263 231 88.9842 229.902 89.6421 228.804C90.4097 227.486 91.0676 226.169 91.6158 224.852C92.1641 223.424 92.7123 222.107 93.0413 220.57C91.9448 223.315 90.5193 225.949 88.9842 228.365C88.3263 229.243 87.6684 230.231 87.0105 231.109C85.8044 229.023 84.5982 226.937 83.721 224.632C82.5148 221.887 81.7473 219.143 80.9797 216.288C81.0894 217.057 81.199 217.715 81.3087 218.484C81.4183 219.252 81.528 219.911 81.6376 220.68C82.0762 222.107 82.2955 223.534 82.8438 224.961C83.6113 227.486 84.8175 229.792 86.1333 231.988C85.2561 233.086 84.2692 234.074 83.2824 235.062C83.0631 235.281 82.9534 235.391 82.7341 235.611C82.6245 235.721 82.5148 235.83 82.4052 235.94C80.6508 237.587 78.8964 239.014 76.9226 240.332C73.4138 239.234 70.0146 237.587 66.8348 235.721C63.2163 233.744 59.3785 232.207 55.4311 231.329C51.374 230.561 47.2073 230.341 43.1502 231.109C35.036 232.646 27.7991 237.258 22.6455 243.515C25.3868 240.551 28.5667 238.026 32.0755 236.05C35.5843 234.074 39.3124 232.646 43.2599 231.988C47.2073 231.329 51.2644 231.439 55.1021 232.317C58.9399 233.195 62.7777 234.732 66.1769 236.709C69.2471 238.465 72.427 239.892 75.7165 241.1C76.0454 241.21 76.3744 241.32 76.7033 241.429C79.7736 242.418 82.9534 243.076 86.243 243.406C86.3526 243.515 86.3526 243.625 86.4623 243.735C88.6553 247.138 91.3965 250.103 94.3571 252.847C96.8791 255.153 99.6204 257.129 102.471 258.776C102.8 258.996 103.02 259.105 103.348 259.325C103.677 259.544 103.897 259.654 104.226 259.874C107.735 261.74 111.572 263.167 115.52 263.936C111.901 262.619 108.283 260.862 104.993 258.886Z" fill="#FA635A" stroke="#FA635A" stroke-width="0.5" stroke-linejoin="round"/>
<path d="M78.2384 202.016C78.0191 201.906 77.6901 201.686 77.4708 201.577C77.9094 200.918 78.4577 200.149 79.0059 199.491C80.7603 197.185 82.8437 195.099 84.9271 192.903C84.3788 193.342 83.7209 193.782 83.1726 194.221C82.6244 194.66 81.9665 195.099 81.4182 195.648C80.3217 196.746 79.2252 197.734 78.348 198.832C77.7998 199.491 77.1418 200.149 76.7032 200.918C75.6067 200.149 74.5102 199.491 73.4137 198.612L71.1111 196.856L68.918 194.879C68.1505 194.221 67.4926 193.562 66.725 192.793C66.0671 192.135 65.2996 191.476 64.6417 190.708L62.6679 188.512C62.1197 187.963 61.6811 187.304 61.2425 186.645C61.7907 186.645 62.339 186.645 62.8873 186.755C65.2996 186.755 67.7119 186.645 70.0145 186.206C71.0014 186.865 71.9883 187.414 73.0848 187.853C72.2076 187.304 71.44 186.645 70.5628 186.096C71.9883 185.767 73.5234 185.438 74.9488 185.108C78.7866 183.901 82.6244 182.254 85.8043 179.729C82.4051 182.034 78.677 183.571 74.8392 184.559C73.1944 184.999 71.5497 185.328 69.9049 185.547C69.6856 185.547 69.4663 185.657 69.1373 185.657C67.054 185.877 64.9706 185.987 62.8873 185.877C62.1197 185.877 61.2425 185.767 60.4749 185.657C60.0363 185.657 59.4881 185.547 59.0495 185.438C56.4179 185.108 53.8959 184.559 51.3739 183.791C53.0187 182.693 54.6634 181.376 56.1986 180.058C56.3082 179.948 56.4179 179.839 56.6372 179.729C56.8565 179.509 57.1854 179.29 57.4047 178.96C58.3916 178.082 59.2688 176.984 60.0363 175.996C60.2556 175.667 60.4749 175.337 60.8039 175.118C61.5714 174.13 62.2293 173.032 62.8873 171.934C63.6548 170.616 64.3127 169.299 64.861 167.981C65.4092 166.554 65.9575 165.237 66.2864 163.7C65.1899 166.444 63.7645 169.079 62.2293 171.495C61.5714 172.373 60.9135 173.361 60.2556 174.239C59.0495 172.153 57.8433 170.067 56.9661 167.762C55.7599 165.017 54.9924 162.272 54.2248 159.418C54.3345 160.186 54.4441 160.845 54.5538 161.614C54.6634 162.382 54.7731 163.041 54.8827 163.809C55.3213 165.237 55.5406 166.664 56.0889 168.091C56.8565 170.616 58.0626 172.922 59.3784 175.118C58.5012 176.216 57.5144 177.204 56.5275 178.192C56.3082 178.411 56.1986 178.521 55.9793 178.741C55.8696 178.85 55.7599 178.96 55.6503 179.07C53.8959 180.717 52.1415 182.144 50.1678 183.462C46.6589 182.364 43.2598 180.717 40.0799 178.85C36.4614 176.874 32.6236 175.337 28.6762 174.459C24.6191 173.69 20.4524 173.471 16.3953 174.239C8.28116 175.776 1.04421 180.387 -4.10938 186.645C-1.36811 183.681 1.81177 181.156 5.32059 179.18C8.82942 177.204 12.5575 175.776 16.505 175.118C20.4524 174.459 24.5095 174.569 28.3473 175.447C32.185 176.325 36.0228 177.862 39.422 179.839C42.4922 181.595 45.6721 183.022 48.9616 184.23C49.2906 184.34 49.6195 184.45 49.9485 184.559C53.0187 185.547 56.1986 186.206 59.4881 186.536C59.5977 186.645 59.5977 186.755 59.7074 186.865C61.9004 190.268 64.6417 193.233 67.6022 195.977C70.1242 198.283 72.8655 200.259 75.7164 201.906C76.0453 202.125 76.2646 202.235 76.5936 202.455C76.9225 202.674 77.1419 202.784 77.4708 203.004C80.9796 204.87 84.8174 206.297 88.7648 207.066C85.256 205.858 81.6375 204.102 78.2384 202.016Z" fill="#FA635A" stroke="#FA635A" stroke-width="0.5" stroke-linejoin="round"/>
</g>
<mask id="mask5_862_12568" style="mask-type:alpha" maskUnits="userSpaceOnUse" x="65" y="135" width="154" height="154">
<path d="M142 289C99.4741 289 65 254.526 65 212C65 169.474 99.4741 135 142 135C184.526 135 219 169.474 219 212C219 254.526 184.526 289 142 289Z" fill="white"/>
</mask>
<g mask="url(#mask5_862_12568)">
<g filter="url(#filter6_f_862_12568)">
<path d="M67 212C67 253.986 100.591 288 142 288C183.409 288 217 253.986 217 212C217 170.014 183.409 136 142 136C100.591 136 67 170.014 67 212Z" stroke="#743C1C" stroke-width="2"/>
</g>
</g>
<mask id="mask6_862_12568" style="mask-type:alpha" maskUnits="userSpaceOnUse" x="65" y="135" width="154" height="154">
<path d="M142 289C184.526 289 219 254.526 219 212C219 169.474 184.526 135 142 135C99.4741 135 65 169.474 65 212C65 254.526 99.4741 289 142 289Z" fill="url(#paint12_radial_862_12568)"/>
</mask>
<g mask="url(#mask6_862_12568)">
<g filter="url(#filter7_f_862_12568)">
<path fill-rule="evenodd" clip-rule="evenodd" d="M65.2124 206.24C87.8157 199.726 114.038 196 142 196C169.963 196 196.185 199.726 218.788 206.24C215.842 166.404 182.589 135 142 135C101.412 135 68.1583 166.404 65.2124 206.24Z" fill="#743C1C" fill-opacity="0.5"/>
</g>
</g>
<path fill-rule="evenodd" clip-rule="evenodd" d="M65.2124 206.24C87.8157 199.726 114.038 196 142 196C169.963 196 196.185 199.726 218.788 206.24C215.842 166.404 182.589 135 142 135C101.412 135 68.1583 166.404 65.2124 206.24Z" fill="url(#paint13_linear_862_12568)"/>
<defs>
<filter id="filter0_f_862_12568" x="-26.8149" y="206.559" width="535.022" height="306.595" filterUnits="userSpaceOnUse" color-interpolation-filters="sRGB">
<feFlood flood-opacity="0" result="BackgroundImageFix"/>
<feBlend mode="normal" in="SourceGraphic" in2="BackgroundImageFix" result="shape"/>
<feGaussianBlur stdDeviation="12.5" result="effect1_foregroundBlur_862_12568"/>
</filter>
<filter id="filter1_f_862_12568" x="-41.8149" y="191.559" width="565.022" height="336.595" filterUnits="userSpaceOnUse" color-interpolation-filters="sRGB">
<feFlood flood-opacity="0" result="BackgroundImageFix"/>
<feBlend mode="normal" in="SourceGraphic" in2="BackgroundImageFix" result="shape"/>
<feGaussianBlur stdDeviation="20" result="effect1_foregroundBlur_862_12568"/>
</filter>
<filter id="filter2_f_862_12568" x="306" y="173" width="68" height="68" filterUnits="userSpaceOnUse" color-interpolation-filters="sRGB">
<feFlood flood-opacity="0" result="BackgroundImageFix"/>
<feBlend mode="normal" in="SourceGraphic" in2="BackgroundImageFix" result="shape"/>
<feGaussianBlur stdDeviation="1" result="effect1_foregroundBlur_862_12568"/>
</filter>
<filter id="filter3_f_862_12568" x="249" y="120" width="182" height="184" filterUnits="userSpaceOnUse" color-interpolation-filters="sRGB">
<feFlood flood-opacity="0" result="BackgroundImageFix"/>
<feBlend mode="normal" in="SourceGraphic" in2="BackgroundImageFix" result="shape"/>
<feGaussianBlur stdDeviation="7.5" result="effect1_foregroundBlur_862_12568"/>
</filter>
<filter id="filter4_f_862_12568" x="243.212" y="115" width="193.576" height="111.24" filterUnits="userSpaceOnUse" color-interpolation-filters="sRGB">
<feFlood flood-opacity="0" result="BackgroundImageFix"/>
<feBlend mode="normal" in="SourceGraphic" in2="BackgroundImageFix" result="shape"/>
<feGaussianBlur stdDeviation="10" result="effect1_foregroundBlur_862_12568"/>
</filter>
<filter id="filter5_f_862_12568" x="108" y="173" width="68" height="68" filterUnits="userSpaceOnUse" color-interpolation-filters="sRGB">
<feFlood flood-opacity="0" result="BackgroundImageFix"/>
<feBlend mode="normal" in="SourceGraphic" in2="BackgroundImageFix" result="shape"/>
<feGaussianBlur stdDeviation="1" result="effect1_foregroundBlur_862_12568"/>
</filter>
<filter id="filter6_f_862_12568" x="51" y="120" width="182" height="184" filterUnits="userSpaceOnUse" color-interpolation-filters="sRGB">
<feFlood flood-opacity="0" result="BackgroundImageFix"/>
<feBlend mode="normal" in="SourceGraphic" in2="BackgroundImageFix" result="shape"/>
<feGaussianBlur stdDeviation="7.5" result="effect1_foregroundBlur_862_12568"/>
</filter>
<filter id="filter7_f_862_12568" x="45.2124" y="115" width="193.576" height="111.24" filterUnits="userSpaceOnUse" color-interpolation-filters="sRGB">
<feFlood flood-opacity="0" result="BackgroundImageFix"/>
<feBlend mode="normal" in="SourceGraphic" in2="BackgroundImageFix" result="shape"/>
<feGaussianBlur stdDeviation="10" result="effect1_foregroundBlur_862_12568"/>
</filter>
<radialGradient id="paint0_radial_862_12568" cx="0" cy="0" r="1" gradientUnits="userSpaceOnUse" gradientTransform="translate(241 -4.53898e-06) rotate(90) scale(482)">
<stop stop-color="#FFDE43"/>
<stop offset="1" stop-color="#FFBC00"/>
</radialGradient>
<radialGradient id="paint1_radial_862_12568" cx="0" cy="0" r="1" gradientUnits="userSpaceOnUse" gradientTransform="translate(241 64.5) rotate(90) scale(417.5)">
<stop stop-color="white" stop-opacity="0.5"/>
<stop offset="0.782278"/>
</radialGradient>
<radialGradient id="paint2_radial_862_12568" cx="0" cy="0" r="1" gradientUnits="userSpaceOnUse" gradientTransform="translate(241 64.5) rotate(90) scale(417.5)">
<stop stop-color="white" stop-opacity="0.5"/>
<stop offset="0.782278"/>
</radialGradient>
<radialGradient id="paint3_radial_862_12568" cx="0" cy="0" r="1" gradientUnits="userSpaceOnUse" gradientTransform="translate(241 -52.5) rotate(90) scale(534.5 722.835)">
<stop offset="0.0922635" stop-color="white"/>
<stop offset="0.670207" stop-color="white" stop-opacity="0"/>
</radialGradient>
<radialGradient id="paint4_radial_862_12568" cx="0" cy="0" r="1" gradientUnits="userSpaceOnUse" gradientTransform="translate(241.355 367.901) scale(61.6279 58.6209)">
<stop stop-color="#743C1C"/>
<stop offset="1" stop-color="#401C02"/>
</radialGradient>
<linearGradient id="paint5_linear_862_12568" x1="241.355" y1="398.67" x2="241.355" y2="337.132" gradientUnits="userSpaceOnUse">
<stop offset="0.265625" stop-color="#FFDE43"/>
<stop offset="1" stop-color="#F79D14"/>
</linearGradient>
<linearGradient id="paint6_linear_862_12568" x1="339.9" y1="293.128" x2="339.9" y2="130.051" gradientUnits="userSpaceOnUse">
<stop stop-color="#FFDE43"/>
<stop offset="0.22" stop-color="#FED93F"/>
<stop offset="0.51" stop-color="#FCC934"/>
<stop offset="0.82" stop-color="#F9AF21"/>
<stop offset="1" stop-color="#F79D14"/>
</linearGradient>
<radialGradient id="paint7_radial_862_12568" cx="0" cy="0" r="1" gradientUnits="userSpaceOnUse" gradientTransform="translate(340 212) rotate(90) scale(77)">
<stop offset="0.151042" stop-color="#FED9D7"/>
<stop offset="1" stop-color="#FFC3BF"/>
</radialGradient>
<radialGradient id="paint8_radial_862_12568" cx="0" cy="0" r="1" gradientUnits="userSpaceOnUse" gradientTransform="translate(340 212) rotate(90) scale(77)">
<stop offset="0.151042" stop-color="#FED9D7"/>
<stop offset="1" stop-color="#FFC3BF"/>
</radialGradient>
<linearGradient id="paint9_linear_862_12568" x1="340" y1="208.245" x2="340" y2="132.708" gradientUnits="userSpaceOnUse">
<stop stop-color="#FFDE43"/>
<stop offset="0.848958" stop-color="#F4B000"/>
</linearGradient>
<linearGradient id="paint10_linear_862_12568" x1="141.9" y1="293.128" x2="141.9" y2="130.051" gradientUnits="userSpaceOnUse">
<stop stop-color="#FFDE43"/>
<stop offset="0.22" stop-color="#FED93F"/>
<stop offset="0.51" stop-color="#FCC934"/>
<stop offset="0.82" stop-color="#F9AF21"/>
<stop offset="1" stop-color="#F79D14"/>
</linearGradient>
<radialGradient id="paint11_radial_862_12568" cx="0" cy="0" r="1" gradientUnits="userSpaceOnUse" gradientTransform="translate(142 212) rotate(90) scale(77)">
<stop offset="0.151042" stop-color="#FED9D7"/>
<stop offset="1" stop-color="#FFC3BF"/>
</radialGradient>
<radialGradient id="paint12_radial_862_12568" cx="0" cy="0" r="1" gradientUnits="userSpaceOnUse" gradientTransform="translate(142 212) rotate(90) scale(77)">
<stop offset="0.151042" stop-color="#FED9D7"/>
<stop offset="1" stop-color="#FFC3BF"/>
</radialGradient>
<linearGradient id="paint13_linear_862_12568" x1="142" y1="208.245" x2="142" y2="132.708" gradientUnits="userSpaceOnUse">
<stop stop-color="#FFDE43"/>
<stop offset="0.848958" stop-color="#F4B000"/>
</linearGradient>
</defs>
</svg>
