<svg width="544" height="523" viewBox="0 0 544 523" fill="none" xmlns="http://www.w3.org/2000/svg">
<path d="M282.18 492.36C415.38 492.36 523.36 384.38 523.36 251.18C523.36 117.98 415.38 10 282.18 10C148.98 10 41 117.98 41 251.18C41 384.38 148.98 492.36 282.18 492.36Z" fill="url(#paint0_radial_862_12493)"/>
<g style="mix-blend-mode:soft-light">
<path d="M282.18 492.36C415.38 492.36 523.36 384.38 523.36 251.18C523.36 117.98 415.38 10 282.18 10C148.98 10 41 117.98 41 251.18C41 384.38 148.98 492.36 282.18 492.36Z" fill="url(#paint1_radial_862_12493)"/>
</g>
<g style="mix-blend-mode:soft-light">
<path d="M282.18 492.36C415.38 492.36 523.36 384.38 523.36 251.18C523.36 117.98 415.38 10 282.18 10C148.98 10 41 117.98 41 251.18C41 384.38 148.98 492.36 282.18 492.36Z" fill="url(#paint2_radial_862_12493)"/>
</g>
<g style="mix-blend-mode:overlay">
<path d="M282.18 492.36C415.38 492.36 523.36 384.38 523.36 251.18C523.36 117.98 415.38 10 282.18 10C148.98 10 41 117.98 41 251.18C41 384.38 148.98 492.36 282.18 492.36Z" fill="url(#paint3_radial_862_12493)" fill-opacity="0.7"/>
</g>
<mask id="mask0_862_12493" style="mask-type:alpha" maskUnits="userSpaceOnUse" x="41" y="10" width="483" height="483">
<path d="M282.18 492.36C415.38 492.36 523.36 384.38 523.36 251.18C523.36 117.98 415.38 10 282.18 10C148.98 10 41 117.98 41 251.18C41 384.38 148.98 492.36 282.18 492.36Z" fill="white"/>
</mask>
<g mask="url(#mask0_862_12493)">
<g filter="url(#filter0_f_862_12493)">
<path d="M39.6246 244.299C39.8865 240.872 41.0142 240.529 41.3431 244.009C41.7085 247.875 40.9982 255.647 41.1692 260.335C41.622 272.748 43.5249 283.542 45.4865 292.321C51.808 320.613 60.5622 338.843 68.7273 354.289C95.5668 405.061 124.967 430.771 153.648 450.147C195.69 478.55 238.073 487.584 280.491 489.5C281.561 489.549 281.739 496.518 280.686 497.425C278.788 499.062 276.437 497.438 274.495 497.37C268.915 497.174 263.336 496.791 257.756 496.211C241.213 494.492 224.671 490.991 208.162 485.359C163.275 470.044 114.877 443.821 72.6097 369.962C69.9507 365.316 67.3128 360.424 64.7123 355.168C62.6325 350.964 60.573 346.557 58.5498 341.844C51.895 326.342 36.3873 286.659 39.6246 244.299ZM280.52 497.5C279.5 497.532 279.241 491.035 280.214 489.686C281.685 487.647 283.889 489.326 285.439 489.229C291.878 488.827 298.315 488.23 304.75 487.422C322.396 485.206 340.028 481.423 357.621 475.596C401.257 461.146 448.17 439.116 489.305 371.431C491.923 367.124 494.519 362.554 497.079 357.641C504.86 342.713 524.362 303.085 522.107 253.821C521.917 249.669 523.182 247.181 523.748 250.744C524.468 255.28 524.176 264.736 523.977 269.768C523.342 285.884 520.867 299.512 518.257 310.518C509.987 345.399 498.377 365.623 487.744 382.51C453.184 437.397 415.649 459.524 379.156 475.425C346.425 489.686 313.445 496.484 280.52 497.5Z" fill="#401C02"/>
</g>
<g filter="url(#filter1_f_862_12493)">
<path d="M39.6246 244.299C39.8865 240.872 41.0142 240.529 41.3431 244.009C41.7085 247.875 40.9982 255.647 41.1692 260.335C41.622 272.748 43.5249 283.542 45.4865 292.321C51.808 320.613 60.5622 338.843 68.7273 354.289C95.5668 405.061 124.967 430.771 153.648 450.147C195.69 478.55 238.073 487.584 280.491 489.5C281.561 489.549 281.739 496.518 280.686 497.425C278.788 499.062 276.437 497.438 274.495 497.37C268.915 497.174 263.336 496.791 257.756 496.211C241.213 494.492 224.671 490.991 208.162 485.359C163.275 470.044 114.877 443.821 72.6097 369.962C69.9507 365.316 67.3128 360.424 64.7123 355.168C62.6325 350.964 60.573 346.557 58.5498 341.844C51.895 326.342 36.3873 286.659 39.6246 244.299ZM280.52 497.5C279.5 497.532 279.241 491.035 280.214 489.686C281.685 487.647 283.889 489.326 285.439 489.229C291.878 488.827 298.315 488.23 304.75 487.422C322.396 485.206 340.028 481.423 357.621 475.596C401.257 461.146 448.17 439.116 489.305 371.431C491.923 367.124 494.519 362.554 497.079 357.641C504.86 342.713 524.362 303.085 522.107 253.821C521.917 249.669 523.182 247.181 523.748 250.744C524.468 255.28 524.176 264.736 523.977 269.768C523.342 285.884 520.867 299.512 518.257 310.518C509.987 345.399 498.377 365.623 487.744 382.51C453.184 437.397 415.649 459.524 379.156 475.425C346.425 489.686 313.445 496.484 280.52 497.5Z" fill="#401C02"/>
</g>
</g>
<path d="M372.289 305C331.696 305 298.789 271.869 298.789 231C298.789 190.131 331.696 157 372.289 157C412.882 157 445.789 190.131 445.789 231C445.789 271.869 412.882 305 372.289 305Z" stroke="url(#paint4_linear_862_12493)" stroke-width="5"/>
<path d="M372.289 305C331.696 305 298.789 271.869 298.789 231C298.789 190.131 331.696 157 372.289 157C412.882 157 445.789 190.131 445.789 231C445.789 271.869 412.882 305 372.289 305Z" fill="white"/>
<mask id="mask1_862_12493" style="mask-type:alpha" maskUnits="userSpaceOnUse" x="298" y="157" width="148" height="148">
<path d="M372.289 305C331.696 305 298.789 271.869 298.789 231C298.789 190.131 331.696 157 372.289 157C412.882 157 445.789 190.131 445.789 231C445.789 271.869 412.882 305 372.289 305Z" fill="white"/>
</mask>
<g mask="url(#mask1_862_12493)">
<g filter="url(#filter2_f_862_12493)">
<path d="M299.789 231C299.789 271.323 332.255 304 372.289 304C412.323 304 444.789 271.323 444.789 231C444.789 190.677 412.323 158 372.289 158C332.255 158 299.789 190.677 299.789 231Z" stroke="#743C1C" stroke-width="2"/>
</g>
</g>
<path d="M372.339 290.85C335.458 290.85 305.559 260.952 305.559 224.07C305.559 187.188 335.458 157.29 372.339 157.29C409.221 157.29 439.119 187.188 439.119 224.07C439.119 260.952 409.221 290.85 372.339 290.85Z" fill="black"/>
<path d="M372.339 290.85C335.458 290.85 305.559 260.952 305.559 224.07C305.559 187.188 335.458 157.29 372.339 157.29C409.221 157.29 439.119 187.188 439.119 224.07C439.119 260.952 409.221 290.85 372.339 290.85Z" fill="url(#paint5_linear_862_12493)"/>
<path d="M372.339 290.85C335.458 290.85 305.559 260.952 305.559 224.07C305.559 187.188 335.458 157.29 372.339 157.29C409.221 157.29 439.119 187.188 439.119 224.07C439.119 260.952 409.221 290.85 372.339 290.85Z" fill="url(#paint6_linear_862_12493)"/>
<path d="M374.629 235.172C391.614 222.704 396.733 200.813 386.063 186.277C375.392 171.74 352.973 170.063 335.988 182.531C319.003 194.998 313.884 216.889 324.554 231.426C335.225 245.962 357.644 247.639 374.629 235.172Z" fill="white"/>
<path d="M394.901 262.796C399.745 259.24 401.002 252.72 397.707 248.232C394.413 243.744 387.816 242.989 382.972 246.544C378.128 250.1 376.872 256.62 380.166 261.108C383.46 265.596 390.057 266.352 394.901 262.796Z" fill="white"/>
<path d="M385.679 101.49C388.919 110.68 410.359 165.37 460.359 163.06C461.922 163.02 463.425 162.447 464.618 161.435C465.811 160.424 466.623 159.036 466.919 157.5C467.229 155.59 466.719 153.5 464.169 151.73C453.169 144.19 424.919 144.35 400.639 107.73C398.56 104.524 396.647 101.213 394.909 97.8099C393.629 95.3799 391.279 92.0199 388.349 92.6799C385.839 93.2399 385.159 95.4899 385.049 97.3699C384.977 98.7718 385.191 100.174 385.679 101.49Z" fill="#42210B"/>
<path d="M446.888 259.318C446.86 258.566 446.644 257.832 446.259 257.186C445.873 256.539 445.331 256 444.682 255.619C444.034 255.237 443.299 255.025 442.547 255.002C441.794 254.979 441.048 255.146 440.378 255.488C435.948 257.748 428.248 263.358 425.028 275.648C420.438 293.268 403.198 288.348 398.108 288.308C393.018 288.268 388.528 295.718 381.728 297.368C374.928 299.018 367.028 286.898 350.288 288.278C333.548 289.658 317.488 279.458 310.388 265.938C303.288 252.418 302.698 274.368 308.738 282.838C314.778 291.308 317.248 297.838 337.048 301.358C356.848 304.878 346.868 314.358 368.578 316.478C390.288 318.598 385.478 308.858 400.398 310.318C415.318 311.778 421.688 314.478 428.278 301.448C434.428 289.268 446.478 280.218 446.108 268.928C446.069 267.157 446.217 265.388 446.548 263.648C446.819 262.221 446.933 260.769 446.888 259.318Z" fill="url(#paint7_linear_862_12493)"/>
<mask id="mask2_862_12493" style="mask-type:alpha" maskUnits="userSpaceOnUse" x="304" y="255" width="143" height="62">
<path d="M446.888 259.318C446.86 258.566 446.644 257.832 446.259 257.186C445.873 256.539 445.331 256 444.682 255.619C444.034 255.237 443.299 255.025 442.547 255.002C441.794 254.979 441.048 255.146 440.378 255.488C435.948 257.748 428.248 263.358 425.028 275.648C420.438 293.268 403.198 288.348 398.108 288.308C393.018 288.268 388.528 295.718 381.728 297.368C374.928 299.018 367.028 286.898 350.288 288.278C333.548 289.658 317.488 279.458 310.388 265.938C303.288 252.418 302.698 274.368 308.738 282.838C314.778 291.308 317.248 297.838 337.048 301.358C356.848 304.878 346.868 314.358 368.578 316.478C390.288 318.598 385.478 308.858 400.398 310.318C415.318 311.778 421.688 314.478 428.278 301.448C434.428 289.268 446.478 280.218 446.108 268.928C446.069 267.157 446.217 265.388 446.548 263.648C446.819 262.221 446.933 260.769 446.888 259.318Z" fill="url(#paint8_linear_862_12493)"/>
</mask>
<g mask="url(#mask2_862_12493)">
<g filter="url(#filter3_f_862_12493)">
<path d="M308.738 282.838C314.778 291.308 317.248 297.838 337.048 301.358C356.848 304.878 346.868 314.358 368.578 316.478C390.288 318.598 385.478 308.858 400.398 310.318C415.318 311.778 421.688 314.478 428.278 301.448C434.428 289.268 446.478 280.218 446.108 268.928" stroke="url(#paint9_linear_862_12493)" stroke-width="4"/>
</g>
</g>
<mask id="mask3_862_12493" style="mask-type:alpha" maskUnits="userSpaceOnUse" x="304" y="255" width="143" height="62">
<path d="M446.888 259.318C446.86 258.566 446.644 257.832 446.259 257.186C445.873 256.539 445.331 256 444.682 255.619C444.034 255.237 443.299 255.025 442.547 255.002C441.794 254.979 441.048 255.146 440.378 255.488C435.948 257.748 428.248 263.358 425.028 275.648C420.438 293.268 403.198 288.348 398.108 288.308C393.018 288.268 388.528 295.718 381.728 297.368C374.928 299.018 367.028 286.898 350.288 288.278C333.548 289.658 317.488 279.458 310.388 265.938C303.288 252.418 302.698 274.368 308.738 282.838C314.778 291.308 317.248 297.838 337.048 301.358C356.848 304.878 346.868 314.358 368.578 316.478C390.288 318.598 385.478 308.858 400.398 310.318C415.318 311.778 421.688 314.478 428.278 301.448C434.428 289.268 446.478 280.218 446.108 268.928C446.069 267.157 446.217 265.388 446.548 263.648C446.819 262.221 446.933 260.769 446.888 259.318Z" fill="url(#paint10_linear_862_12493)"/>
</mask>
<g mask="url(#mask3_862_12493)">
<g filter="url(#filter4_f_862_12493)">
<path d="M440.378 255.488C435.948 257.748 428.248 263.358 425.028 275.648C420.438 293.268 403.198 288.348 398.108 288.308C393.018 288.268 388.528 295.718 381.728 297.368C374.928 299.018 367.028 286.898 350.288 288.278C333.548 289.658 317.488 279.458 310.388 265.938" stroke="white" stroke-width="4"/>
</g>
</g>
<path d="M193.711 305C153.118 305 120.211 271.869 120.211 231C120.211 190.131 153.118 157 193.711 157C234.304 157 267.211 190.131 267.211 231C267.211 271.869 234.304 305 193.711 305Z" stroke="url(#paint11_linear_862_12493)" stroke-width="5"/>
<path d="M193.711 305C153.118 305 120.211 271.869 120.211 231C120.211 190.131 153.118 157 193.711 157C234.304 157 267.211 190.131 267.211 231C267.211 271.869 234.304 305 193.711 305Z" fill="white"/>
<mask id="mask4_862_12493" style="mask-type:alpha" maskUnits="userSpaceOnUse" x="120" y="157" width="148" height="148">
<path d="M193.711 305C153.118 305 120.211 271.869 120.211 231C120.211 190.131 153.118 157 193.711 157C234.304 157 267.211 190.131 267.211 231C267.211 271.869 234.304 305 193.711 305Z" fill="white"/>
</mask>
<g mask="url(#mask4_862_12493)">
<g filter="url(#filter5_f_862_12493)">
<path d="M121.211 231C121.211 271.323 153.677 304 193.711 304C233.745 304 266.211 271.323 266.211 231C266.211 190.677 233.745 158 193.711 158C153.677 158 121.211 190.677 121.211 231Z" stroke="#743C1C" stroke-width="2"/>
</g>
</g>
<path d="M193.761 290.85C156.879 290.85 126.981 260.952 126.981 224.07C126.981 187.188 156.879 157.29 193.761 157.29C230.643 157.29 260.541 187.188 260.541 224.07C260.541 260.952 230.643 290.85 193.761 290.85Z" fill="black"/>
<path d="M193.761 290.85C156.879 290.85 126.981 260.952 126.981 224.07C126.981 187.188 156.879 157.29 193.761 157.29C230.643 157.29 260.541 187.188 260.541 224.07C260.541 260.952 230.643 290.85 193.761 290.85Z" fill="url(#paint12_linear_862_12493)"/>
<path d="M193.761 290.85C156.879 290.85 126.981 260.952 126.981 224.07C126.981 187.188 156.879 157.29 193.761 157.29C230.643 157.29 260.541 187.188 260.541 224.07C260.541 260.952 230.643 290.85 193.761 290.85Z" fill="url(#paint13_linear_862_12493)"/>
<path d="M196.05 235.172C213.035 222.704 218.155 200.813 207.484 186.277C196.814 171.74 174.395 170.063 157.41 182.531C140.425 194.998 135.306 216.889 145.976 231.426C156.646 245.962 179.065 247.639 196.05 235.172Z" fill="white"/>
<path d="M216.323 262.796C221.167 259.24 222.423 252.72 219.129 248.232C215.835 243.744 209.238 242.989 204.394 246.544C199.55 250.1 198.294 256.62 201.588 261.108C204.882 265.596 211.479 266.352 216.323 262.796Z" fill="white"/>
<path d="M180.321 101.49C177.081 110.68 155.641 165.37 105.641 163.06C104.078 163.02 102.575 162.447 101.382 161.435C100.189 160.424 99.3769 159.036 99.081 157.5C98.771 155.59 99.281 153.5 101.831 151.73C112.831 144.19 141.081 144.35 165.361 107.73C167.44 104.524 169.353 101.213 171.091 97.8099C172.371 95.3799 174.721 92.0199 177.651 92.6799C180.161 93.2399 180.841 95.4899 180.951 97.3699C181.023 98.7718 180.809 100.174 180.321 101.49Z" fill="#42210B"/>
<path d="M120.112 259.318C120.14 258.566 120.356 257.832 120.741 257.186C121.127 256.539 121.669 256 122.318 255.619C122.966 255.237 123.701 255.025 124.453 255.002C125.206 254.979 125.952 255.146 126.622 255.488C131.052 257.748 138.752 263.358 141.972 275.648C146.562 293.268 163.802 288.348 168.892 288.308C173.982 288.268 178.472 295.718 185.272 297.368C192.072 299.018 199.972 286.898 216.712 288.278C233.452 289.658 249.512 279.458 256.612 265.938C263.712 252.418 264.302 274.368 258.262 282.838C252.222 291.308 249.752 297.838 229.952 301.358C210.152 304.878 220.132 314.358 198.422 316.478C176.712 318.598 181.522 308.858 166.602 310.318C151.682 311.778 145.312 314.478 138.722 301.448C132.572 289.268 120.522 280.218 120.892 268.928C120.931 267.157 120.783 265.388 120.452 263.648C120.181 262.221 120.067 260.769 120.112 259.318Z" fill="url(#paint14_linear_862_12493)"/>
<mask id="mask5_862_12493" style="mask-type:alpha" maskUnits="userSpaceOnUse" x="120" y="255" width="143" height="62">
<path d="M120.112 259.318C120.14 258.566 120.356 257.832 120.741 257.186C121.127 256.539 121.669 256 122.318 255.619C122.966 255.237 123.701 255.025 124.453 255.002C125.206 254.979 125.952 255.146 126.622 255.488C131.052 257.748 138.752 263.358 141.972 275.648C146.562 293.268 163.802 288.348 168.892 288.308C173.982 288.268 178.472 295.718 185.272 297.368C192.072 299.018 199.972 286.898 216.712 288.278C233.452 289.658 249.512 279.458 256.612 265.938C263.712 252.418 264.302 274.368 258.262 282.838C252.222 291.308 249.752 297.838 229.952 301.358C210.152 304.878 220.132 314.358 198.422 316.478C176.712 318.598 181.522 308.858 166.602 310.318C151.682 311.778 145.312 314.478 138.722 301.448C132.572 289.268 120.522 280.218 120.892 268.928C120.931 267.157 120.783 265.388 120.452 263.648C120.181 262.221 120.067 260.769 120.112 259.318Z" fill="url(#paint15_linear_862_12493)"/>
</mask>
<g mask="url(#mask5_862_12493)">
<g filter="url(#filter6_f_862_12493)">
<path d="M258.262 282.838C252.222 291.308 249.752 297.838 229.952 301.358C210.152 304.878 220.132 314.358 198.422 316.478C176.712 318.598 181.522 308.858 166.602 310.318C151.682 311.778 145.312 314.478 138.722 301.448C132.572 289.268 120.522 280.218 120.892 268.928" stroke="url(#paint16_linear_862_12493)" stroke-width="4"/>
</g>
</g>
<mask id="mask6_862_12493" style="mask-type:alpha" maskUnits="userSpaceOnUse" x="120" y="255" width="143" height="62">
<path d="M120.112 259.318C120.14 258.566 120.356 257.832 120.741 257.186C121.127 256.539 121.669 256 122.318 255.619C122.966 255.237 123.701 255.025 124.453 255.002C125.206 254.979 125.952 255.146 126.622 255.488C131.052 257.748 138.752 263.358 141.972 275.648C146.562 293.268 163.802 288.348 168.892 288.308C173.982 288.268 178.472 295.718 185.272 297.368C192.072 299.018 199.972 286.898 216.712 288.278C233.452 289.658 249.512 279.458 256.612 265.938C263.712 252.418 264.302 274.368 258.262 282.838C252.222 291.308 249.752 297.838 229.952 301.358C210.152 304.878 220.132 314.358 198.422 316.478C176.712 318.598 181.522 308.858 166.602 310.318C151.682 311.778 145.312 314.478 138.722 301.448C132.572 289.268 120.522 280.218 120.892 268.928C120.931 267.157 120.783 265.388 120.452 263.648C120.181 262.221 120.067 260.769 120.112 259.318Z" fill="url(#paint17_linear_862_12493)"/>
</mask>
<g mask="url(#mask6_862_12493)">
<g filter="url(#filter7_f_862_12493)">
<path d="M126.622 255.488C131.052 257.748 138.752 263.358 141.972 275.648C146.562 293.268 163.802 288.348 168.892 288.308C173.982 288.268 178.472 295.718 185.272 297.368C192.072 299.018 199.972 286.898 216.712 288.278C233.452 289.658 249.512 279.458 256.612 265.938" stroke="white" stroke-width="4"/>
</g>
</g>
<path d="M214.567 369.15L214.613 368.945C214.986 367.286 215.765 365.747 216.879 364.463C217.994 363.18 219.41 362.194 221 361.593C222.59 360.992 224.304 360.795 225.989 361.019C227.674 361.244 229.277 361.883 230.653 362.879C244.571 372.601 261.774 376.411 278.494 373.474C280.167 373.143 281.896 373.235 283.524 373.74C285.153 374.245 286.63 375.147 287.822 376.365C289.015 377.584 289.885 379.08 290.355 380.719C290.825 382.358 290.88 384.088 290.514 385.753L290.479 385.909C290.116 387.56 289.35 389.095 288.249 390.377C287.148 391.659 285.747 392.65 284.171 393.259C272.764 397.483 260.381 398.331 248.504 395.701C236.628 393.071 225.761 387.074 217.203 378.429C216.037 377.217 215.186 375.737 214.727 374.119C214.267 372.5 214.212 370.794 214.567 369.15Z" fill="url(#paint18_radial_862_12493)"/>
<path d="M214.567 369.15L214.613 368.945C214.986 367.286 215.765 365.747 216.879 364.463C217.994 363.18 219.41 362.194 221 361.593C222.59 360.992 224.304 360.795 225.989 361.019C227.674 361.244 229.277 361.883 230.653 362.879C244.571 372.601 261.774 376.411 278.494 373.474C280.167 373.143 281.896 373.235 283.524 373.74C285.153 374.245 286.63 375.147 287.822 376.365C289.015 377.584 289.885 379.08 290.355 380.719C290.825 382.358 290.88 384.088 290.514 385.753L290.479 385.909C290.116 387.56 289.35 389.095 288.249 390.377C287.148 391.659 285.747 392.65 284.171 393.259C272.764 397.483 260.381 398.331 248.504 395.701C236.628 393.071 225.761 387.074 217.203 378.429C216.037 377.217 215.186 375.737 214.727 374.119C214.267 372.5 214.212 370.794 214.567 369.15V369.15Z" stroke="url(#paint19_linear_862_12493)" stroke-width="2" stroke-miterlimit="10"/>
<mask id="mask7_862_12493" style="mask-type:alpha" maskUnits="userSpaceOnUse" x="41" y="10" width="483" height="483">
<path d="M282.18 492.36C415.38 492.36 523.36 384.38 523.36 251.18C523.36 117.98 415.38 10 282.18 10C148.98 10 41 117.98 41 251.18C41 384.38 148.98 492.36 282.18 492.36Z" fill="url(#paint20_radial_862_12493)"/>
</mask>
<g mask="url(#mask7_862_12493)">
<g style="mix-blend-mode:multiply" filter="url(#filter8_f_862_12493)">
<path d="M465.261 39.1996C504.561 -18.5004 619.861 66.5996 465.261 163.3C310.761 66.5996 425.961 -18.5004 465.261 39.1996Z" fill="#692A00"/>
</g>
<g style="mix-blend-mode:multiply" filter="url(#filter9_f_862_12493)">
<path d="M88.2615 336.754C127.561 279.054 242.861 364.154 88.2615 460.854C-66.2385 364.154 48.9615 279.054 88.2615 336.754Z" fill="#692A00"/>
</g>
<g style="mix-blend-mode:multiply" filter="url(#filter10_f_862_12493)">
<path d="M445.261 399.754C484.561 342.054 599.861 427.154 445.261 523.854C290.761 427.154 405.961 342.054 445.261 399.754Z" fill="#692A00"/>
</g>
</g>
<path d="M465.261 398.754C504.561 341.054 619.861 426.154 465.261 522.854C310.761 426.154 425.961 341.054 465.261 398.754Z" fill="url(#paint21_linear_862_12493)"/>
<mask id="mask8_862_12493" style="mask-type:alpha" maskUnits="userSpaceOnUse" x="387" y="380" width="157" height="143">
<path d="M465.261 398.754C504.561 341.054 619.861 426.154 465.261 522.854C310.761 426.154 425.961 341.054 465.261 398.754Z" fill="url(#paint22_linear_862_12493)"/>
</mask>
<g mask="url(#mask8_862_12493)">
<g filter="url(#filter11_f_862_12493)">
<path d="M397.085 437.555C394.785 429.255 396.185 419.555 400.885 411.155C405.585 402.755 413.485 395.755 423.085 391.855C427.885 389.955 433.085 388.755 438.485 388.555C443.885 388.355 449.385 389.055 454.685 390.755C459.985 392.455 464.985 395.155 469.385 398.555C473.785 401.955 477.385 406.055 480.385 410.355H455.585C456.385 409.255 457.185 408.255 457.985 407.155C458.785 406.055 459.685 405.055 460.585 404.055C461.485 403.055 462.485 402.155 463.485 401.155C464.485 400.155 465.585 399.355 466.585 398.455C470.985 395.055 475.985 392.355 481.285 390.655C486.585 388.955 492.185 388.255 497.585 388.455C502.985 388.655 508.185 389.855 512.985 391.755C522.585 395.655 530.485 402.655 535.185 411.055C539.885 419.455 541.285 429.155 538.985 437.455C536.785 433.755 534.585 430.455 532.085 427.655C529.585 424.855 526.885 422.555 523.985 420.655C518.385 416.955 512.285 414.955 506.585 414.555C500.885 414.155 495.585 415.155 491.285 417.355C486.985 419.555 483.485 422.755 480.385 427.255L467.985 445.055L455.585 427.255C452.485 422.855 448.985 419.555 444.685 417.355C440.385 415.155 435.185 414.055 429.385 414.555C423.685 415.055 417.585 416.955 411.985 420.755C409.185 422.655 406.485 424.955 403.885 427.755C401.485 430.555 399.185 433.755 397.085 437.555Z" fill="#FF3E3E"/>
</g>
<g filter="url(#filter12_f_862_12493)">
<path d="M449 511.154C446.8 509.854 444.7 508.554 442.6 507.254C441.5 506.554 440.5 505.954 439.4 505.254C438.4 504.554 437.4 503.854 436.3 503.054L430.2 498.654C428.2 497.054 426.3 495.454 424.4 493.854C416.8 487.354 409.6 480.054 403.5 471.954C397.4 463.854 392.4 454.754 389.5 444.954L388.5 441.254C388.2 440.054 388 438.754 387.8 437.454L387.5 435.554C387.4 434.954 387.4 434.254 387.3 433.654L387 429.854C387 424.754 387.6 419.654 389.1 414.854C388.6 419.854 388.8 424.754 389.4 429.554L390.1 433.154C390.2 433.754 390.3 434.354 390.5 434.954L391 436.754C391.4 437.954 391.6 439.054 392 440.254L393.2 443.654C396.6 452.754 401.6 461.154 407.5 468.954C413.3 476.754 420 483.954 427 490.954C428.8 492.654 430.5 494.354 432.3 496.154L437.8 501.154C438.7 501.954 439.6 502.854 440.5 503.654C441.4 504.454 442.4 505.254 443.3 506.054C445.3 507.754 447.2 509.454 449 511.154Z" fill="white"/>
</g>
<g filter="url(#filter13_f_862_12493)">
<path d="M390 419.354C390 410.554 392.9 401.454 398.5 393.954C404 386.454 412.1 380.754 421.1 377.754C430.2 374.754 440.4 374.654 449.7 378.054C454.3 379.654 458.7 382.154 462.5 385.254C466.3 388.354 469.6 391.954 472.4 395.954H464.1C466.8 391.954 470.1 388.354 473.9 385.254C477.7 382.154 482.1 379.754 486.7 378.054C496 374.754 506.2 374.754 515.3 377.754C524.4 380.754 532.4 386.454 538 393.954C543.6 401.454 546.5 410.554 546.5 419.354C546.2 418.254 545.9 417.254 545.6 416.154C545.3 415.154 544.9 414.054 544.5 413.054C543.7 411.054 542.8 409.054 541.8 407.154C539.7 403.454 537.2 400.054 534.3 397.054C528.4 391.154 521 387.054 513.2 385.254C505.4 383.454 497.2 383.954 490.1 386.854C482.9 389.754 476.8 394.954 472.4 401.454L468.3 407.554L464.2 401.454C459.7 394.954 453.7 389.654 446.5 386.754C439.3 383.854 431.2 383.354 423.3 385.154C415.5 386.954 408.1 391.054 402.2 396.954C399.3 399.854 396.7 403.354 394.7 407.054C393.7 408.954 392.8 410.854 392 412.954C391.6 413.954 391.2 414.954 390.9 416.054C390.6 417.154 390.3 418.254 390 419.354Z" fill="#700000"/>
</g>
<g filter="url(#filter14_f_862_12493)">
<path d="M390 419.354C390 410.554 392.9 401.454 398.5 393.954C404 386.454 412.1 380.754 421.1 377.754C430.2 374.754 440.4 374.654 449.7 378.054C454.3 379.654 458.7 382.154 462.5 385.254C466.3 388.354 469.6 391.954 472.4 395.954H464.1C466.8 391.954 470.1 388.354 473.9 385.254C477.7 382.154 482.1 379.754 486.7 378.054C496 374.754 506.2 374.754 515.3 377.754C524.4 380.754 532.4 386.454 538 393.954C543.6 401.454 546.5 410.554 546.5 419.354C546.2 418.254 545.9 417.254 545.6 416.154C545.3 415.154 544.9 414.054 544.5 413.054C543.7 411.054 542.8 409.054 541.8 407.154C539.7 403.454 537.2 400.054 534.3 397.054C528.4 391.154 521 387.054 513.2 385.254C505.4 383.454 497.2 383.954 490.1 386.854C482.9 389.754 476.8 394.954 472.4 401.454L468.3 407.554L464.2 401.454C459.7 394.954 453.7 389.654 446.5 386.754C439.3 383.854 431.2 383.354 423.3 385.154C415.5 386.954 408.1 391.054 402.2 396.954C399.3 399.854 396.7 403.354 394.7 407.054C393.7 408.954 392.8 410.854 392 412.954C391.6 413.954 391.2 414.954 390.9 416.054C390.6 417.154 390.3 418.254 390 419.354Z" fill="#700000"/>
</g>
<g filter="url(#filter15_f_862_12493)">
<path d="M394.085 437.555C391.785 429.255 393.185 419.555 397.885 411.155C402.585 402.755 410.485 395.755 420.085 391.855C424.885 389.955 430.085 388.755 435.485 388.555C440.885 388.355 446.385 389.055 451.685 390.755C456.985 392.455 461.985 395.155 466.385 398.555C470.785 401.955 474.385 406.055 477.385 410.355H452.585C453.385 409.255 454.185 408.255 454.985 407.155C455.785 406.055 456.685 405.055 457.585 404.055C458.485 403.055 459.485 402.155 460.485 401.155C461.485 400.155 462.585 399.355 463.585 398.455C467.985 395.055 472.985 392.355 478.285 390.655C483.585 388.955 489.185 388.255 494.585 388.455C499.985 388.655 505.185 389.855 509.985 391.755C519.585 395.655 527.485 402.655 532.185 411.055C536.885 419.455 538.285 429.155 535.985 437.455C533.785 433.755 531.585 430.455 529.085 427.655C526.585 424.855 523.885 422.555 520.985 420.655C515.385 416.955 509.285 414.955 503.585 414.555C497.885 414.155 492.585 415.155 488.285 417.355C483.985 419.555 480.485 422.755 477.385 427.255L464.985 445.055L452.685 427.255C449.585 422.855 446.085 419.555 441.785 417.355C437.485 415.155 432.285 414.055 426.485 414.555C420.785 415.055 414.685 416.955 409.085 420.755C406.285 422.655 403.585 424.955 400.985 427.755C398.485 430.555 396.185 433.755 394.085 437.555Z" fill="#FF9797"/>
</g>
<g filter="url(#filter16_f_862_12493)">
<path d="M482 511.155C483.8 509.455 485.7 507.755 487.6 506.155C488.5 505.355 489.5 504.555 490.4 503.755C491.3 502.955 492.2 502.055 493.1 501.255L498.6 496.255C500.3 494.455 502.1 492.755 503.9 491.055C510.9 484.055 517.5 476.855 523.4 469.055C529.2 461.255 534.3 452.855 537.7 443.755L538.9 440.355C539.3 439.155 539.5 438.055 539.9 436.855L540.4 435.055C540.6 434.455 540.6 433.855 540.8 433.255L541.5 429.655C542.2 424.855 542.3 419.855 541.8 414.955C543.4 419.755 543.9 424.855 543.9 429.955L543.6 433.755C543.5 434.355 543.5 435.055 543.4 435.655L543.1 437.555C542.9 438.855 542.7 440.055 542.4 441.355L541.4 445.055C538.5 454.855 533.5 463.955 527.4 472.055C521.3 480.155 514.2 487.455 506.5 493.955C504.6 495.555 502.7 497.155 500.7 498.755L494.6 503.155C493.6 503.855 492.6 504.655 491.5 505.355C490.4 506.055 489.4 506.755 488.3 507.355C486.3 508.555 484.2 509.955 482 511.155Z" fill="white"/>
</g>
</g>
<g style="mix-blend-mode:soft-light">
<path d="M465.305 398.754C504.605 341.054 619.905 426.154 465.305 522.854C310.705 426.154 426.005 341.054 465.305 398.754Z" fill="url(#paint23_linear_862_12493)"/>
</g>
<g style="mix-blend-mode:soft-light">
<path d="M465.305 398.754C426.005 341.054 310.705 426.154 465.305 522.854C619.905 426.154 504.605 341.054 465.305 398.754Z" fill="url(#paint24_linear_862_12493)"/>
</g>
<mask id="mask9_862_12493" style="mask-type:alpha" maskUnits="userSpaceOnUse" x="387" y="380" width="157" height="143">
<path d="M465.261 398.754C504.561 341.054 619.861 426.154 465.261 522.854C310.761 426.154 425.961 341.054 465.261 398.754Z" fill="url(#paint25_linear_862_12493)"/>
</mask>
<g mask="url(#mask9_862_12493)">
<g filter="url(#filter17_f_862_12493)">
<path d="M438 380.555C440.8 380.955 443.5 381.655 446.2 382.655C448.8 383.655 451.4 384.955 453.8 386.555C456.2 388.055 458.4 389.955 460.4 391.955C462.4 393.955 464.2 396.155 465.8 398.555H465C466.6 396.255 468.4 394.055 470.4 391.955C472.4 389.955 474.6 388.055 477 386.555C479.4 384.955 481.9 383.655 484.6 382.655C487.3 381.655 490 380.955 492.8 380.555C487.2 381.655 482 383.955 477.4 387.155C475.1 388.755 473 390.555 471 392.555C469.1 394.555 467.3 396.755 465.7 399.055L465.3 399.655L465 399.055C463.4 396.755 461.7 394.555 459.7 392.555C457.8 390.555 455.6 388.755 453.3 387.155C448.8 383.955 443.5 381.655 438 380.555Z" fill="#820010"/>
</g>
<g filter="url(#filter18_f_862_12493)">
<path d="M438 380.555C440.8 380.955 443.5 381.655 446.2 382.655C448.8 383.655 451.4 384.955 453.8 386.555C456.2 388.055 458.4 389.955 460.4 391.955C462.4 393.955 464.2 396.155 465.8 398.555H465C466.6 396.255 468.4 394.055 470.4 391.955C472.4 389.955 474.6 388.055 477 386.555C479.4 384.955 481.9 383.655 484.6 382.655C487.3 381.655 490 380.955 492.8 380.555C487.2 381.655 482 383.955 477.4 387.155C475.1 388.755 473 390.555 471 392.555C469.1 394.555 467.3 396.755 465.7 399.055L465.3 399.655L465 399.055C463.4 396.755 461.7 394.555 459.7 392.555C457.8 390.555 455.6 388.755 453.3 387.155C448.8 383.955 443.5 381.655 438 380.555Z" fill="#820010"/>
</g>
<g filter="url(#filter19_f_862_12493)">
<path d="M438 380.555C440.8 380.955 443.5 381.655 446.2 382.655C448.8 383.655 451.4 384.955 453.8 386.555C456.2 388.055 458.4 389.955 460.4 391.955C462.4 393.955 464.2 396.155 465.8 398.555H465C466.6 396.255 468.4 394.055 470.4 391.955C472.4 389.955 474.6 388.055 477 386.555C479.4 384.955 481.9 383.655 484.6 382.655C487.3 381.655 490 380.955 492.8 380.555C487.2 381.655 482 383.955 477.4 387.155C475.1 388.755 473 390.555 471 392.555C469.1 394.555 467.3 396.755 465.7 399.055L465.3 399.655L465 399.055C463.4 396.755 461.7 394.555 459.7 392.555C457.8 390.555 455.6 388.755 453.3 387.155C448.8 383.955 443.5 381.655 438 380.555Z" fill="#820010"/>
</g>
</g>
<path d="M78.2615 336.754C117.561 279.054 232.861 364.154 78.2615 460.854C-76.2385 364.154 38.9615 279.054 78.2615 336.754Z" fill="url(#paint26_linear_862_12493)"/>
<mask id="mask10_862_12493" style="mask-type:alpha" maskUnits="userSpaceOnUse" x="0" y="318" width="157" height="143">
<path d="M78.2615 336.754C117.561 279.054 232.861 364.154 78.2615 460.854C-76.2385 364.154 38.9615 279.054 78.2615 336.754Z" fill="url(#paint27_linear_862_12493)"/>
</mask>
<g mask="url(#mask10_862_12493)">
<g filter="url(#filter20_f_862_12493)">
<path d="M10.0846 375.555C7.78461 367.255 9.18466 357.555 13.8847 349.155C18.5847 340.755 26.4846 333.755 36.0846 329.855C40.8846 327.955 46.0846 326.755 51.4846 326.555C56.8846 326.355 62.3847 327.055 67.6847 328.755C72.9847 330.455 77.9847 333.155 82.3847 336.555C86.7847 339.955 90.3847 344.055 93.3847 348.355H68.5846C69.3846 347.255 70.1846 346.255 70.9846 345.155C71.7846 344.055 72.6846 343.055 73.5846 342.055C74.4846 341.055 75.4846 340.155 76.4846 339.155C77.4846 338.155 78.5846 337.355 79.5846 336.455C83.9846 333.055 88.9847 330.355 94.2847 328.655C99.5847 326.955 105.185 326.255 110.585 326.455C115.985 326.655 121.185 327.855 125.985 329.755C135.585 333.655 143.485 340.655 148.185 349.055C152.885 357.455 154.285 367.155 151.985 375.455C149.785 371.755 147.585 368.455 145.085 365.655C142.585 362.855 139.885 360.555 136.985 358.655C131.385 354.955 125.285 352.955 119.585 352.555C113.885 352.155 108.585 353.155 104.285 355.355C99.9847 357.555 96.4847 360.755 93.3847 365.255L80.9846 383.055L68.5846 365.255C65.4846 360.855 61.9847 357.555 57.6847 355.355C53.3847 353.155 48.1847 352.055 42.3847 352.555C36.6847 353.055 30.5846 354.955 24.9846 358.755C22.1846 360.655 19.4847 362.955 16.8847 365.755C14.4847 368.555 12.1846 371.755 10.0846 375.555Z" fill="#FF3E3E"/>
</g>
<g filter="url(#filter21_f_862_12493)">
<path d="M62 449.154C59.8 447.854 57.7001 446.554 55.6001 445.254C54.5001 444.554 53.5 443.954 52.4 443.254C51.4 442.554 50.4 441.854 49.3 441.054L43.2001 436.654C41.2001 435.054 39.3 433.454 37.4 431.854C29.8 425.354 22.6 418.054 16.5 409.954C10.4 401.854 5.4 392.754 2.5 382.954L1.5 379.254C1.2 378.054 1.00005 376.754 0.800049 375.454L0.5 373.554C0.4 372.954 0.400049 372.254 0.300049 371.654L0 367.854C0 362.754 0.600098 357.654 2.1001 352.854C1.6001 357.854 1.80002 362.754 2.40002 367.554L3.1001 371.154C3.2001 371.754 3.3 372.354 3.5 372.954L4 374.754C4.4 375.954 4.6 377.054 5 378.254L6.20007 381.654C9.60007 390.754 14.6 399.154 20.5 406.954C26.3 414.754 33 421.954 40 428.954C41.8 430.654 43.5 432.354 45.3 434.154L50.8 439.154C51.7001 439.954 52.6 440.854 53.5 441.654C54.4 442.454 55.4 443.254 56.3 444.054C58.3 445.754 60.2 447.454 62 449.154Z" fill="white"/>
</g>
<g filter="url(#filter22_f_862_12493)">
<path d="M3 357.354C3 348.554 5.9 339.454 11.5 331.954C17 324.454 25.1 318.754 34.1 315.754C43.2 312.754 53.4 312.654 62.7 316.054C67.3 317.654 71.7 320.154 75.5 323.254C79.3 326.354 82.6 329.954 85.4 333.954H77.1C79.8 329.954 83.1 326.354 86.9 323.254C90.7 320.154 95.1 317.754 99.7 316.054C109 312.754 119.2 312.754 128.3 315.754C137.4 318.754 145.4 324.454 151 331.954C156.6 339.454 159.5 348.554 159.5 357.354C159.2 356.254 158.9 355.254 158.6 354.154C158.3 353.154 157.9 352.054 157.5 351.054C156.7 349.054 155.8 347.054 154.8 345.154C152.7 341.454 150.2 338.054 147.3 335.054C141.4 329.154 134 325.054 126.2 323.254C118.4 321.454 110.2 321.954 103.1 324.854C95.9 327.754 89.8 332.954 85.4 339.454L81.3 345.554L77.2 339.454C72.7 332.954 66.7 327.654 59.5 324.754C52.3 321.854 44.2 321.354 36.3 323.154C28.5 324.954 21.1 329.054 15.2 334.954C12.3 337.854 9.70001 341.354 7.70001 345.054C6.70001 346.954 5.8 348.854 5 350.954C4.6 351.954 4.20002 352.954 3.90002 354.054C3.60002 355.154 3.3 356.254 3 357.354Z" fill="#700000"/>
</g>
<g filter="url(#filter23_f_862_12493)">
<path d="M3 357.354C3 348.554 5.9 339.454 11.5 331.954C17 324.454 25.1 318.754 34.1 315.754C43.2 312.754 53.4 312.654 62.7 316.054C67.3 317.654 71.7 320.154 75.5 323.254C79.3 326.354 82.6 329.954 85.4 333.954H77.1C79.8 329.954 83.1 326.354 86.9 323.254C90.7 320.154 95.1 317.754 99.7 316.054C109 312.754 119.2 312.754 128.3 315.754C137.4 318.754 145.4 324.454 151 331.954C156.6 339.454 159.5 348.554 159.5 357.354C159.2 356.254 158.9 355.254 158.6 354.154C158.3 353.154 157.9 352.054 157.5 351.054C156.7 349.054 155.8 347.054 154.8 345.154C152.7 341.454 150.2 338.054 147.3 335.054C141.4 329.154 134 325.054 126.2 323.254C118.4 321.454 110.2 321.954 103.1 324.854C95.9 327.754 89.8 332.954 85.4 339.454L81.3 345.554L77.2 339.454C72.7 332.954 66.7 327.654 59.5 324.754C52.3 321.854 44.2 321.354 36.3 323.154C28.5 324.954 21.1 329.054 15.2 334.954C12.3 337.854 9.70001 341.354 7.70001 345.054C6.70001 346.954 5.8 348.854 5 350.954C4.6 351.954 4.20002 352.954 3.90002 354.054C3.60002 355.154 3.3 356.254 3 357.354Z" fill="#700000"/>
</g>
<g filter="url(#filter24_f_862_12493)">
<path d="M7.08462 375.555C4.78462 367.255 6.18462 357.555 10.8846 349.155C15.5846 340.755 23.4846 333.755 33.0846 329.855C37.8846 327.955 43.0846 326.755 48.4846 326.555C53.8846 326.355 59.3846 327.055 64.6846 328.755C69.9846 330.455 74.9846 333.155 79.3846 336.555C83.7846 339.955 87.3846 344.055 90.3846 348.355H65.5846C66.3846 347.255 67.1846 346.255 67.9846 345.155C68.7846 344.055 69.6846 343.055 70.5846 342.055C71.4846 341.055 72.4846 340.155 73.4846 339.155C74.4846 338.155 75.5846 337.355 76.5846 336.455C80.9846 333.055 85.9846 330.355 91.2846 328.655C96.5846 326.955 102.185 326.255 107.585 326.455C112.985 326.655 118.185 327.855 122.985 329.755C132.585 333.655 140.485 340.655 145.185 349.055C149.885 357.455 151.285 367.155 148.985 375.455C146.785 371.755 144.585 368.455 142.085 365.655C139.585 362.855 136.885 360.555 133.985 358.655C128.385 354.955 122.285 352.955 116.585 352.555C110.885 352.155 105.585 353.155 101.285 355.355C96.9846 357.555 93.4846 360.755 90.3846 365.255L77.9846 383.055L65.6846 365.255C62.5846 360.855 59.0846 357.555 54.7846 355.355C50.4846 353.155 45.2846 352.055 39.4846 352.555C33.7846 353.055 27.6846 354.955 22.0846 358.755C19.2846 360.655 16.5846 362.955 13.9846 365.755C11.4846 368.555 9.18462 371.755 7.08462 375.555Z" fill="#FF9797"/>
</g>
<g filter="url(#filter25_f_862_12493)">
<path d="M95 449.155C96.8 447.455 98.7 445.755 100.6 444.155C101.5 443.355 102.5 442.555 103.4 441.755C104.3 440.955 105.2 440.055 106.1 439.255L111.6 434.255C113.3 432.455 115.1 430.755 116.9 429.055C123.9 422.055 130.5 414.855 136.4 407.055C142.2 399.255 147.3 390.855 150.7 381.755L151.9 378.355C152.3 377.155 152.5 376.055 152.9 374.855L153.4 373.055C153.6 372.455 153.6 371.855 153.8 371.255L154.5 367.655C155.2 362.855 155.3 357.855 154.8 352.955C156.4 357.755 156.9 362.855 156.9 367.955L156.6 371.755C156.5 372.355 156.5 373.055 156.4 373.655L156.1 375.555C155.9 376.855 155.7 378.055 155.4 379.355L154.4 383.055C151.5 392.855 146.5 401.955 140.4 410.055C134.3 418.155 127.2 425.455 119.5 431.955C117.6 433.555 115.7 435.155 113.7 436.755L107.6 441.155C106.6 441.855 105.6 442.655 104.5 443.355C103.4 444.055 102.4 444.755 101.3 445.355C99.3 446.555 97.2 447.955 95 449.155Z" fill="white"/>
</g>
</g>
<g style="mix-blend-mode:soft-light">
<path d="M78.3053 336.754C117.605 279.054 232.905 364.154 78.3053 460.854C-76.2947 364.154 39.0053 279.054 78.3053 336.754Z" fill="url(#paint28_linear_862_12493)"/>
</g>
<g style="mix-blend-mode:soft-light">
<path d="M78.3053 336.754C39.0053 279.054 -76.2947 364.154 78.3053 460.854C232.905 364.154 117.605 279.054 78.3053 336.754Z" fill="url(#paint29_linear_862_12493)"/>
</g>
<mask id="mask11_862_12493" style="mask-type:alpha" maskUnits="userSpaceOnUse" x="0" y="318" width="157" height="143">
<path d="M78.2615 336.754C117.561 279.054 232.861 364.154 78.2615 460.854C-76.2385 364.154 38.9615 279.054 78.2615 336.754Z" fill="url(#paint30_linear_862_12493)"/>
</mask>
<g mask="url(#mask11_862_12493)">
<g filter="url(#filter26_f_862_12493)">
<path d="M51 318.555C53.8 318.955 56.5 319.655 59.2 320.655C61.8 321.655 64.4 322.955 66.8 324.555C69.2 326.055 71.4 327.955 73.4 329.955C75.4 331.955 77.2 334.155 78.8 336.555H78C79.6 334.255 81.4 332.055 83.4 329.955C85.4 327.955 87.6 326.055 90 324.555C92.4 322.955 94.9 321.655 97.6 320.655C100.3 319.655 103 318.955 105.8 318.555C100.2 319.655 95 321.955 90.4 325.155C88.1 326.755 86 328.555 84 330.555C82.1 332.555 80.3 334.755 78.7 337.055L78.3 337.655L78 337.055C76.4 334.755 74.7 332.555 72.7 330.555C70.8 328.555 68.6 326.755 66.3 325.155C61.8 321.955 56.5 319.655 51 318.555Z" fill="#820010"/>
</g>
<g filter="url(#filter27_f_862_12493)">
<path d="M51 318.555C53.8 318.955 56.5 319.655 59.2 320.655C61.8 321.655 64.4 322.955 66.8 324.555C69.2 326.055 71.4 327.955 73.4 329.955C75.4 331.955 77.2 334.155 78.8 336.555H78C79.6 334.255 81.4 332.055 83.4 329.955C85.4 327.955 87.6 326.055 90 324.555C92.4 322.955 94.9 321.655 97.6 320.655C100.3 319.655 103 318.955 105.8 318.555C100.2 319.655 95 321.955 90.4 325.155C88.1 326.755 86 328.555 84 330.555C82.1 332.555 80.3 334.755 78.7 337.055L78.3 337.655L78 337.055C76.4 334.755 74.7 332.555 72.7 330.555C70.8 328.555 68.6 326.755 66.3 325.155C61.8 321.955 56.5 319.655 51 318.555Z" fill="#820010"/>
</g>
<g filter="url(#filter28_f_862_12493)">
<path d="M51 318.555C53.8 318.955 56.5 319.655 59.2 320.655C61.8 321.655 64.4 322.955 66.8 324.555C69.2 326.055 71.4 327.955 73.4 329.955C75.4 331.955 77.2 334.155 78.8 336.555H78C79.6 334.255 81.4 332.055 83.4 329.955C85.4 327.955 87.6 326.055 90 324.555C92.4 322.955 94.9 321.655 97.6 320.655C100.3 319.655 103 318.955 105.8 318.555C100.2 319.655 95 321.955 90.4 325.155C88.1 326.755 86 328.555 84 330.555C82.1 332.555 80.3 334.755 78.7 337.055L78.3 337.655L78 337.055C76.4 334.755 74.7 332.555 72.7 330.555C70.8 328.555 68.6 326.755 66.3 325.155C61.8 321.955 56.5 319.655 51 318.555Z" fill="#820010"/>
</g>
</g>
<path d="M465.261 18.7542C504.561 -38.9458 619.861 46.1543 465.261 142.854C310.761 46.1543 425.961 -38.9458 465.261 18.7542Z" fill="url(#paint31_linear_862_12493)"/>
<mask id="mask12_862_12493" style="mask-type:alpha" maskUnits="userSpaceOnUse" x="387" y="0" width="157" height="143">
<path d="M465.261 18.7542C504.561 -38.9458 619.861 46.1543 465.261 142.854C310.761 46.1543 425.961 -38.9458 465.261 18.7542Z" fill="url(#paint32_linear_862_12493)"/>
</mask>
<g mask="url(#mask12_862_12493)">
<g filter="url(#filter29_f_862_12493)">
<path d="M397.085 57.5551C394.785 49.2551 396.185 39.5551 400.885 31.1551C405.585 22.7551 413.485 15.7551 423.085 11.8551C427.885 9.95507 433.085 8.75507 438.485 8.55507C443.885 8.35507 449.385 9.05507 454.685 10.7551C459.985 12.4551 464.985 15.1551 469.385 18.5551C473.785 21.9551 477.385 26.0551 480.385 30.3551H455.585C456.385 29.2551 457.185 28.2551 457.985 27.1551C458.785 26.0551 459.685 25.0551 460.585 24.0551C461.485 23.0551 462.485 22.1551 463.485 21.1551C464.485 20.1551 465.585 19.3551 466.585 18.4551C470.985 15.0551 475.985 12.3551 481.285 10.6551C486.585 8.95507 492.185 8.25507 497.585 8.45507C502.985 8.65507 508.185 9.85507 512.985 11.7551C522.585 15.6551 530.485 22.6551 535.185 31.0551C539.885 39.4551 541.285 49.1551 538.985 57.4551C536.785 53.7551 534.585 50.4551 532.085 47.6551C529.585 44.8551 526.885 42.5551 523.985 40.6551C518.385 36.9551 512.285 34.9551 506.585 34.5551C500.885 34.1551 495.585 35.1551 491.285 37.3551C486.985 39.5551 483.485 42.7551 480.385 47.2551L467.985 65.0551L455.585 47.2551C452.485 42.8551 448.985 39.5551 444.685 37.3551C440.385 35.1551 435.185 34.0551 429.385 34.5551C423.685 35.0551 417.585 36.9551 411.985 40.7551C409.185 42.6551 406.485 44.9551 403.885 47.7551C401.485 50.5551 399.185 53.7551 397.085 57.5551Z" fill="#FF3E3E"/>
</g>
<g filter="url(#filter30_f_862_12493)">
<path d="M449 131.154C446.8 129.854 444.7 128.554 442.6 127.254C441.5 126.554 440.5 125.954 439.4 125.254C438.4 124.554 437.4 123.854 436.3 123.054L430.2 118.654C428.2 117.054 426.3 115.454 424.4 113.854C416.8 107.354 409.6 100.054 403.5 91.9545C397.4 83.8545 392.4 74.7545 389.5 64.9545L388.5 61.2545C388.2 60.0545 388 58.7545 387.8 57.4545L387.5 55.5545C387.4 54.9545 387.4 54.2545 387.3 53.6545L387 49.8545C387 44.7545 387.6 39.6545 389.1 34.8545C388.6 39.8545 388.8 44.7545 389.4 49.5545L390.1 53.1545C390.2 53.7545 390.3 54.3545 390.5 54.9545L391 56.7545C391.4 57.9545 391.6 59.0545 392 60.2545L393.2 63.6545C396.6 72.7545 401.6 81.1545 407.5 88.9545C413.3 96.7545 420 103.954 427 110.954C428.8 112.654 430.5 114.354 432.3 116.154L437.8 121.154C438.7 121.954 439.6 122.854 440.5 123.654C441.4 124.454 442.4 125.254 443.3 126.054C445.3 127.754 447.2 129.454 449 131.154Z" fill="white"/>
</g>
<g filter="url(#filter31_f_862_12493)">
<path d="M390 39.3545C390 30.5545 392.9 21.4545 398.5 13.9545C404 6.45449 412.1 0.754493 421.1 -2.24551C430.2 -5.24551 440.4 -5.34551 449.7 -1.94551C454.3 -0.345508 458.7 2.15449 462.5 5.25449C466.3 8.35449 469.6 11.9545 472.4 15.9545H464.1C466.8 11.9545 470.1 8.35449 473.9 5.25449C477.7 2.15449 482.1 -0.245508 486.7 -1.94551C496 -5.24551 506.2 -5.24551 515.3 -2.24551C524.4 0.754493 532.4 6.45449 538 13.9545C543.6 21.4545 546.5 30.5545 546.5 39.3545C546.2 38.2545 545.9 37.2545 545.6 36.1545C545.3 35.1545 544.9 34.0545 544.5 33.0545C543.7 31.0545 542.8 29.0545 541.8 27.1545C539.7 23.4545 537.2 20.0545 534.3 17.0545C528.4 11.1545 521 7.05449 513.2 5.25449C505.4 3.45449 497.2 3.95449 490.1 6.85449C482.9 9.75449 476.8 14.9545 472.4 21.4545L468.3 27.5545L464.2 21.4545C459.7 14.9545 453.7 9.65449 446.5 6.75449C439.3 3.85449 431.2 3.35449 423.3 5.15449C415.5 6.95449 408.1 11.0545 402.2 16.9545C399.3 19.8545 396.7 23.3545 394.7 27.0545C393.7 28.9545 392.8 30.8545 392 32.9545C391.6 33.9545 391.2 34.9545 390.9 36.0545C390.6 37.1545 390.3 38.2545 390 39.3545Z" fill="#700000"/>
</g>
<g filter="url(#filter32_f_862_12493)">
<path d="M390 39.3545C390 30.5545 392.9 21.4545 398.5 13.9545C404 6.45449 412.1 0.754493 421.1 -2.24551C430.2 -5.24551 440.4 -5.34551 449.7 -1.94551C454.3 -0.345508 458.7 2.15449 462.5 5.25449C466.3 8.35449 469.6 11.9545 472.4 15.9545H464.1C466.8 11.9545 470.1 8.35449 473.9 5.25449C477.7 2.15449 482.1 -0.245508 486.7 -1.94551C496 -5.24551 506.2 -5.24551 515.3 -2.24551C524.4 0.754493 532.4 6.45449 538 13.9545C543.6 21.4545 546.5 30.5545 546.5 39.3545C546.2 38.2545 545.9 37.2545 545.6 36.1545C545.3 35.1545 544.9 34.0545 544.5 33.0545C543.7 31.0545 542.8 29.0545 541.8 27.1545C539.7 23.4545 537.2 20.0545 534.3 17.0545C528.4 11.1545 521 7.05449 513.2 5.25449C505.4 3.45449 497.2 3.95449 490.1 6.85449C482.9 9.75449 476.8 14.9545 472.4 21.4545L468.3 27.5545L464.2 21.4545C459.7 14.9545 453.7 9.65449 446.5 6.75449C439.3 3.85449 431.2 3.35449 423.3 5.15449C415.5 6.95449 408.1 11.0545 402.2 16.9545C399.3 19.8545 396.7 23.3545 394.7 27.0545C393.7 28.9545 392.8 30.8545 392 32.9545C391.6 33.9545 391.2 34.9545 390.9 36.0545C390.6 37.1545 390.3 38.2545 390 39.3545Z" fill="#700000"/>
</g>
<g filter="url(#filter33_f_862_12493)">
<path d="M394.085 57.5551C391.785 49.2551 393.185 39.5551 397.885 31.1551C402.585 22.7551 410.485 15.7551 420.085 11.8551C424.885 9.95507 430.085 8.75507 435.485 8.55507C440.885 8.35507 446.385 9.05507 451.685 10.7551C456.985 12.4551 461.985 15.1551 466.385 18.5551C470.785 21.9551 474.385 26.0551 477.385 30.3551H452.585C453.385 29.2551 454.185 28.2551 454.985 27.1551C455.785 26.0551 456.685 25.0551 457.585 24.0551C458.485 23.0551 459.485 22.1551 460.485 21.1551C461.485 20.1551 462.585 19.3551 463.585 18.4551C467.985 15.0551 472.985 12.3551 478.285 10.6551C483.585 8.95507 489.185 8.25507 494.585 8.45507C499.985 8.65507 505.185 9.85507 509.985 11.7551C519.585 15.6551 527.485 22.6551 532.185 31.0551C536.885 39.4551 538.285 49.1551 535.985 57.4551C533.785 53.7551 531.585 50.4551 529.085 47.6551C526.585 44.8551 523.885 42.5551 520.985 40.6551C515.385 36.9551 509.285 34.9551 503.585 34.5551C497.885 34.1551 492.585 35.1551 488.285 37.3551C483.985 39.5551 480.485 42.7551 477.385 47.2551L464.985 65.0551L452.685 47.2551C449.585 42.8551 446.085 39.5551 441.785 37.3551C437.485 35.1551 432.285 34.0551 426.485 34.5551C420.785 35.0551 414.685 36.9551 409.085 40.7551C406.285 42.6551 403.585 44.9551 400.985 47.7551C398.485 50.5551 396.185 53.7551 394.085 57.5551Z" fill="#FF9797"/>
</g>
<g filter="url(#filter34_f_862_12493)">
<path d="M482 131.155C483.8 129.455 485.7 127.755 487.6 126.155C488.5 125.355 489.5 124.555 490.4 123.755C491.3 122.955 492.2 122.055 493.1 121.255L498.6 116.255C500.3 114.455 502.1 112.755 503.9 111.055C510.9 104.055 517.5 96.8551 523.4 89.0551C529.2 81.2551 534.3 72.8551 537.7 63.7551L538.9 60.3551C539.3 59.1551 539.5 58.0551 539.9 56.8551L540.4 55.0551C540.6 54.4551 540.6 53.8551 540.8 53.2551L541.5 49.6551C542.2 44.8551 542.3 39.8551 541.8 34.9551C543.4 39.7551 543.9 44.8551 543.9 49.9551L543.6 53.7551C543.5 54.3551 543.5 55.0551 543.4 55.6551L543.1 57.5551C542.9 58.8551 542.7 60.0551 542.4 61.3551L541.4 65.0551C538.5 74.8551 533.5 83.9551 527.4 92.0551C521.3 100.155 514.2 107.455 506.5 113.955C504.6 115.555 502.7 117.155 500.7 118.755L494.6 123.155C493.6 123.855 492.6 124.655 491.5 125.355C490.4 126.055 489.4 126.755 488.3 127.355C486.3 128.555 484.2 129.955 482 131.155Z" fill="white"/>
</g>
</g>
<g style="mix-blend-mode:soft-light">
<path d="M465.305 18.7542C504.605 -38.9458 619.905 46.1543 465.305 142.854C310.705 46.1543 426.005 -38.9458 465.305 18.7542Z" fill="url(#paint33_linear_862_12493)"/>
</g>
<g style="mix-blend-mode:soft-light">
<path d="M465.305 18.7542C426.005 -38.9458 310.705 46.1543 465.305 142.854C619.905 46.1543 504.605 -38.9458 465.305 18.7542Z" fill="url(#paint34_linear_862_12493)"/>
</g>
<mask id="mask13_862_12493" style="mask-type:alpha" maskUnits="userSpaceOnUse" x="387" y="0" width="157" height="143">
<path d="M465.261 18.7542C504.561 -38.9458 619.861 46.1543 465.261 142.854C310.761 46.1543 425.961 -38.9458 465.261 18.7542Z" fill="url(#paint35_linear_862_12493)"/>
</mask>
<g mask="url(#mask13_862_12493)">
<g filter="url(#filter35_f_862_12493)">
<path d="M438 0.554688C440.8 0.954688 443.5 1.65469 446.2 2.65469C448.8 3.65469 451.4 4.95469 453.8 6.55469C456.2 8.05469 458.4 9.95469 460.4 11.9547C462.4 13.9547 464.2 16.1547 465.8 18.5547H465C466.6 16.2547 468.4 14.0547 470.4 11.9547C472.4 9.95469 474.6 8.05469 477 6.55469C479.4 4.95469 481.9 3.65469 484.6 2.65469C487.3 1.65469 490 0.954688 492.8 0.554688C487.2 1.65469 482 3.95469 477.4 7.15469C475.1 8.75469 473 10.5547 471 12.5547C469.1 14.5547 467.3 16.7547 465.7 19.0547L465.3 19.6547L465 19.0547C463.4 16.7547 461.7 14.5547 459.7 12.5547C457.8 10.5547 455.6 8.75469 453.3 7.15469C448.8 3.95469 443.5 1.65469 438 0.554688Z" fill="#820010"/>
</g>
<g filter="url(#filter36_f_862_12493)">
<path d="M438 0.554688C440.8 0.954688 443.5 1.65469 446.2 2.65469C448.8 3.65469 451.4 4.95469 453.8 6.55469C456.2 8.05469 458.4 9.95469 460.4 11.9547C462.4 13.9547 464.2 16.1547 465.8 18.5547H465C466.6 16.2547 468.4 14.0547 470.4 11.9547C472.4 9.95469 474.6 8.05469 477 6.55469C479.4 4.95469 481.9 3.65469 484.6 2.65469C487.3 1.65469 490 0.954688 492.8 0.554688C487.2 1.65469 482 3.95469 477.4 7.15469C475.1 8.75469 473 10.5547 471 12.5547C469.1 14.5547 467.3 16.7547 465.7 19.0547L465.3 19.6547L465 19.0547C463.4 16.7547 461.7 14.5547 459.7 12.5547C457.8 10.5547 455.6 8.75469 453.3 7.15469C448.8 3.95469 443.5 1.65469 438 0.554688Z" fill="#820010"/>
</g>
<g filter="url(#filter37_f_862_12493)">
<path d="M438 0.554688C440.8 0.954688 443.5 1.65469 446.2 2.65469C448.8 3.65469 451.4 4.95469 453.8 6.55469C456.2 8.05469 458.4 9.95469 460.4 11.9547C462.4 13.9547 464.2 16.1547 465.8 18.5547H465C466.6 16.2547 468.4 14.0547 470.4 11.9547C472.4 9.95469 474.6 8.05469 477 6.55469C479.4 4.95469 481.9 3.65469 484.6 2.65469C487.3 1.65469 490 0.954688 492.8 0.554688C487.2 1.65469 482 3.95469 477.4 7.15469C475.1 8.75469 473 10.5547 471 12.5547C469.1 14.5547 467.3 16.7547 465.7 19.0547L465.3 19.6547L465 19.0547C463.4 16.7547 461.7 14.5547 459.7 12.5547C457.8 10.5547 455.6 8.75469 453.3 7.15469C448.8 3.95469 443.5 1.65469 438 0.554688Z" fill="#820010"/>
</g>
</g>
<defs>
<filter id="filter0_f_862_12493" x="14.1855" y="216.559" width="535.021" height="306.595" filterUnits="userSpaceOnUse" color-interpolation-filters="sRGB">
<feFlood flood-opacity="0" result="BackgroundImageFix"/>
<feBlend mode="normal" in="SourceGraphic" in2="BackgroundImageFix" result="shape"/>
<feGaussianBlur stdDeviation="12.5" result="effect1_foregroundBlur_862_12493"/>
</filter>
<filter id="filter1_f_862_12493" x="-0.814453" y="201.559" width="565.021" height="336.595" filterUnits="userSpaceOnUse" color-interpolation-filters="sRGB">
<feFlood flood-opacity="0" result="BackgroundImageFix"/>
<feBlend mode="normal" in="SourceGraphic" in2="BackgroundImageFix" result="shape"/>
<feGaussianBlur stdDeviation="20" result="effect1_foregroundBlur_862_12493"/>
</filter>
<filter id="filter2_f_862_12493" x="292.789" y="151" width="159" height="160" filterUnits="userSpaceOnUse" color-interpolation-filters="sRGB">
<feFlood flood-opacity="0" result="BackgroundImageFix"/>
<feBlend mode="normal" in="SourceGraphic" in2="BackgroundImageFix" result="shape"/>
<feGaussianBlur stdDeviation="3" result="effect1_foregroundBlur_862_12493"/>
</filter>
<filter id="filter3_f_862_12493" x="301.109" y="262.862" width="153.007" height="61.9189" filterUnits="userSpaceOnUse" color-interpolation-filters="sRGB">
<feFlood flood-opacity="0" result="BackgroundImageFix"/>
<feBlend mode="normal" in="SourceGraphic" in2="BackgroundImageFix" result="shape"/>
<feGaussianBlur stdDeviation="3" result="effect1_foregroundBlur_862_12493"/>
</filter>
<filter id="filter4_f_862_12493" x="302.617" y="247.707" width="144.67" height="57.8164" filterUnits="userSpaceOnUse" color-interpolation-filters="sRGB">
<feFlood flood-opacity="0" result="BackgroundImageFix"/>
<feBlend mode="normal" in="SourceGraphic" in2="BackgroundImageFix" result="shape"/>
<feGaussianBlur stdDeviation="3" result="effect1_foregroundBlur_862_12493"/>
</filter>
<filter id="filter5_f_862_12493" x="114.211" y="151" width="159" height="160" filterUnits="userSpaceOnUse" color-interpolation-filters="sRGB">
<feFlood flood-opacity="0" result="BackgroundImageFix"/>
<feBlend mode="normal" in="SourceGraphic" in2="BackgroundImageFix" result="shape"/>
<feGaussianBlur stdDeviation="3" result="effect1_foregroundBlur_862_12493"/>
</filter>
<filter id="filter6_f_862_12493" x="112.884" y="262.862" width="153.007" height="61.9189" filterUnits="userSpaceOnUse" color-interpolation-filters="sRGB">
<feFlood flood-opacity="0" result="BackgroundImageFix"/>
<feBlend mode="normal" in="SourceGraphic" in2="BackgroundImageFix" result="shape"/>
<feGaussianBlur stdDeviation="3" result="effect1_foregroundBlur_862_12493"/>
</filter>
<filter id="filter7_f_862_12493" x="119.713" y="247.707" width="144.67" height="57.8164" filterUnits="userSpaceOnUse" color-interpolation-filters="sRGB">
<feFlood flood-opacity="0" result="BackgroundImageFix"/>
<feBlend mode="normal" in="SourceGraphic" in2="BackgroundImageFix" result="shape"/>
<feGaussianBlur stdDeviation="3" result="effect1_foregroundBlur_862_12493"/>
</filter>
<filter id="filter8_f_862_12493" x="327" y="-39.5547" width="276.566" height="262.854" filterUnits="userSpaceOnUse" color-interpolation-filters="sRGB">
<feFlood flood-opacity="0" result="BackgroundImageFix"/>
<feBlend mode="normal" in="SourceGraphic" in2="BackgroundImageFix" result="shape"/>
<feGaussianBlur stdDeviation="30" result="effect1_foregroundBlur_862_12493"/>
</filter>
<filter id="filter9_f_862_12493" x="-50" y="258" width="276.566" height="262.854" filterUnits="userSpaceOnUse" color-interpolation-filters="sRGB">
<feFlood flood-opacity="0" result="BackgroundImageFix"/>
<feBlend mode="normal" in="SourceGraphic" in2="BackgroundImageFix" result="shape"/>
<feGaussianBlur stdDeviation="30" result="effect1_foregroundBlur_862_12493"/>
</filter>
<filter id="filter10_f_862_12493" x="307" y="321" width="276.566" height="262.854" filterUnits="userSpaceOnUse" color-interpolation-filters="sRGB">
<feFlood flood-opacity="0" result="BackgroundImageFix"/>
<feBlend mode="normal" in="SourceGraphic" in2="BackgroundImageFix" result="shape"/>
<feGaussianBlur stdDeviation="30" result="effect1_foregroundBlur_862_12493"/>
</filter>
<filter id="filter11_f_862_12493" x="376" y="368.422" width="184.069" height="96.6328" filterUnits="userSpaceOnUse" color-interpolation-filters="sRGB">
<feFlood flood-opacity="0" result="BackgroundImageFix"/>
<feBlend mode="normal" in="SourceGraphic" in2="BackgroundImageFix" result="shape"/>
<feGaussianBlur stdDeviation="10" result="effect1_foregroundBlur_862_12493"/>
</filter>
<filter id="filter12_f_862_12493" x="377" y="404.854" width="82" height="116.3" filterUnits="userSpaceOnUse" color-interpolation-filters="sRGB">
<feFlood flood-opacity="0" result="BackgroundImageFix"/>
<feBlend mode="normal" in="SourceGraphic" in2="BackgroundImageFix" result="shape"/>
<feGaussianBlur stdDeviation="5" result="effect1_foregroundBlur_862_12493"/>
</filter>
<filter id="filter13_f_862_12493" x="370" y="355.504" width="196.5" height="83.8506" filterUnits="userSpaceOnUse" color-interpolation-filters="sRGB">
<feFlood flood-opacity="0" result="BackgroundImageFix"/>
<feBlend mode="normal" in="SourceGraphic" in2="BackgroundImageFix" result="shape"/>
<feGaussianBlur stdDeviation="10" result="effect1_foregroundBlur_862_12493"/>
</filter>
<filter id="filter14_f_862_12493" x="370" y="355.504" width="196.5" height="83.8506" filterUnits="userSpaceOnUse" color-interpolation-filters="sRGB">
<feFlood flood-opacity="0" result="BackgroundImageFix"/>
<feBlend mode="normal" in="SourceGraphic" in2="BackgroundImageFix" result="shape"/>
<feGaussianBlur stdDeviation="10" result="effect1_foregroundBlur_862_12493"/>
</filter>
<filter id="filter15_f_862_12493" x="353" y="348.422" width="224.069" height="136.633" filterUnits="userSpaceOnUse" color-interpolation-filters="sRGB">
<feFlood flood-opacity="0" result="BackgroundImageFix"/>
<feBlend mode="normal" in="SourceGraphic" in2="BackgroundImageFix" result="shape"/>
<feGaussianBlur stdDeviation="20" result="effect1_foregroundBlur_862_12493"/>
</filter>
<filter id="filter16_f_862_12493" x="472" y="404.955" width="81.9004" height="116.2" filterUnits="userSpaceOnUse" color-interpolation-filters="sRGB">
<feFlood flood-opacity="0" result="BackgroundImageFix"/>
<feBlend mode="normal" in="SourceGraphic" in2="BackgroundImageFix" result="shape"/>
<feGaussianBlur stdDeviation="5" result="effect1_foregroundBlur_862_12493"/>
</filter>
<filter id="filter17_f_862_12493" x="432" y="374.555" width="66.7998" height="31.0996" filterUnits="userSpaceOnUse" color-interpolation-filters="sRGB">
<feFlood flood-opacity="0" result="BackgroundImageFix"/>
<feBlend mode="normal" in="SourceGraphic" in2="BackgroundImageFix" result="shape"/>
<feGaussianBlur stdDeviation="3" result="effect1_foregroundBlur_862_12493"/>
</filter>
<filter id="filter18_f_862_12493" x="434" y="376.555" width="62.7998" height="27.0996" filterUnits="userSpaceOnUse" color-interpolation-filters="sRGB">
<feFlood flood-opacity="0" result="BackgroundImageFix"/>
<feBlend mode="normal" in="SourceGraphic" in2="BackgroundImageFix" result="shape"/>
<feGaussianBlur stdDeviation="2" result="effect1_foregroundBlur_862_12493"/>
</filter>
<filter id="filter19_f_862_12493" x="430" y="372.555" width="70.7998" height="35.0996" filterUnits="userSpaceOnUse" color-interpolation-filters="sRGB">
<feFlood flood-opacity="0" result="BackgroundImageFix"/>
<feBlend mode="normal" in="SourceGraphic" in2="BackgroundImageFix" result="shape"/>
<feGaussianBlur stdDeviation="4" result="effect1_foregroundBlur_862_12493"/>
</filter>
<filter id="filter20_f_862_12493" x="-11" y="306.422" width="184.069" height="96.6328" filterUnits="userSpaceOnUse" color-interpolation-filters="sRGB">
<feFlood flood-opacity="0" result="BackgroundImageFix"/>
<feBlend mode="normal" in="SourceGraphic" in2="BackgroundImageFix" result="shape"/>
<feGaussianBlur stdDeviation="10" result="effect1_foregroundBlur_862_12493"/>
</filter>
<filter id="filter21_f_862_12493" x="-10" y="342.854" width="82" height="116.3" filterUnits="userSpaceOnUse" color-interpolation-filters="sRGB">
<feFlood flood-opacity="0" result="BackgroundImageFix"/>
<feBlend mode="normal" in="SourceGraphic" in2="BackgroundImageFix" result="shape"/>
<feGaussianBlur stdDeviation="5" result="effect1_foregroundBlur_862_12493"/>
</filter>
<filter id="filter22_f_862_12493" x="-17" y="293.504" width="196.5" height="83.8506" filterUnits="userSpaceOnUse" color-interpolation-filters="sRGB">
<feFlood flood-opacity="0" result="BackgroundImageFix"/>
<feBlend mode="normal" in="SourceGraphic" in2="BackgroundImageFix" result="shape"/>
<feGaussianBlur stdDeviation="10" result="effect1_foregroundBlur_862_12493"/>
</filter>
<filter id="filter23_f_862_12493" x="-17" y="293.504" width="196.5" height="83.8506" filterUnits="userSpaceOnUse" color-interpolation-filters="sRGB">
<feFlood flood-opacity="0" result="BackgroundImageFix"/>
<feBlend mode="normal" in="SourceGraphic" in2="BackgroundImageFix" result="shape"/>
<feGaussianBlur stdDeviation="10" result="effect1_foregroundBlur_862_12493"/>
</filter>
<filter id="filter24_f_862_12493" x="-34" y="286.422" width="224.069" height="136.633" filterUnits="userSpaceOnUse" color-interpolation-filters="sRGB">
<feFlood flood-opacity="0" result="BackgroundImageFix"/>
<feBlend mode="normal" in="SourceGraphic" in2="BackgroundImageFix" result="shape"/>
<feGaussianBlur stdDeviation="20" result="effect1_foregroundBlur_862_12493"/>
</filter>
<filter id="filter25_f_862_12493" x="85" y="342.955" width="81.9004" height="116.2" filterUnits="userSpaceOnUse" color-interpolation-filters="sRGB">
<feFlood flood-opacity="0" result="BackgroundImageFix"/>
<feBlend mode="normal" in="SourceGraphic" in2="BackgroundImageFix" result="shape"/>
<feGaussianBlur stdDeviation="5" result="effect1_foregroundBlur_862_12493"/>
</filter>
<filter id="filter26_f_862_12493" x="45" y="312.555" width="66.7998" height="31.0996" filterUnits="userSpaceOnUse" color-interpolation-filters="sRGB">
<feFlood flood-opacity="0" result="BackgroundImageFix"/>
<feBlend mode="normal" in="SourceGraphic" in2="BackgroundImageFix" result="shape"/>
<feGaussianBlur stdDeviation="3" result="effect1_foregroundBlur_862_12493"/>
</filter>
<filter id="filter27_f_862_12493" x="47" y="314.555" width="62.7998" height="27.0996" filterUnits="userSpaceOnUse" color-interpolation-filters="sRGB">
<feFlood flood-opacity="0" result="BackgroundImageFix"/>
<feBlend mode="normal" in="SourceGraphic" in2="BackgroundImageFix" result="shape"/>
<feGaussianBlur stdDeviation="2" result="effect1_foregroundBlur_862_12493"/>
</filter>
<filter id="filter28_f_862_12493" x="43" y="310.555" width="70.7998" height="35.0996" filterUnits="userSpaceOnUse" color-interpolation-filters="sRGB">
<feFlood flood-opacity="0" result="BackgroundImageFix"/>
<feBlend mode="normal" in="SourceGraphic" in2="BackgroundImageFix" result="shape"/>
<feGaussianBlur stdDeviation="4" result="effect1_foregroundBlur_862_12493"/>
</filter>
<filter id="filter29_f_862_12493" x="376" y="-11.5781" width="184.069" height="96.6328" filterUnits="userSpaceOnUse" color-interpolation-filters="sRGB">
<feFlood flood-opacity="0" result="BackgroundImageFix"/>
<feBlend mode="normal" in="SourceGraphic" in2="BackgroundImageFix" result="shape"/>
<feGaussianBlur stdDeviation="10" result="effect1_foregroundBlur_862_12493"/>
</filter>
<filter id="filter30_f_862_12493" x="377" y="24.8545" width="82" height="116.3" filterUnits="userSpaceOnUse" color-interpolation-filters="sRGB">
<feFlood flood-opacity="0" result="BackgroundImageFix"/>
<feBlend mode="normal" in="SourceGraphic" in2="BackgroundImageFix" result="shape"/>
<feGaussianBlur stdDeviation="5" result="effect1_foregroundBlur_862_12493"/>
</filter>
<filter id="filter31_f_862_12493" x="370" y="-24.4961" width="196.5" height="83.8506" filterUnits="userSpaceOnUse" color-interpolation-filters="sRGB">
<feFlood flood-opacity="0" result="BackgroundImageFix"/>
<feBlend mode="normal" in="SourceGraphic" in2="BackgroundImageFix" result="shape"/>
<feGaussianBlur stdDeviation="10" result="effect1_foregroundBlur_862_12493"/>
</filter>
<filter id="filter32_f_862_12493" x="370" y="-24.4961" width="196.5" height="83.8506" filterUnits="userSpaceOnUse" color-interpolation-filters="sRGB">
<feFlood flood-opacity="0" result="BackgroundImageFix"/>
<feBlend mode="normal" in="SourceGraphic" in2="BackgroundImageFix" result="shape"/>
<feGaussianBlur stdDeviation="10" result="effect1_foregroundBlur_862_12493"/>
</filter>
<filter id="filter33_f_862_12493" x="353" y="-31.5781" width="224.069" height="136.633" filterUnits="userSpaceOnUse" color-interpolation-filters="sRGB">
<feFlood flood-opacity="0" result="BackgroundImageFix"/>
<feBlend mode="normal" in="SourceGraphic" in2="BackgroundImageFix" result="shape"/>
<feGaussianBlur stdDeviation="20" result="effect1_foregroundBlur_862_12493"/>
</filter>
<filter id="filter34_f_862_12493" x="472" y="24.9551" width="81.9004" height="116.2" filterUnits="userSpaceOnUse" color-interpolation-filters="sRGB">
<feFlood flood-opacity="0" result="BackgroundImageFix"/>
<feBlend mode="normal" in="SourceGraphic" in2="BackgroundImageFix" result="shape"/>
<feGaussianBlur stdDeviation="5" result="effect1_foregroundBlur_862_12493"/>
</filter>
<filter id="filter35_f_862_12493" x="432" y="-5.44531" width="66.7998" height="31.0996" filterUnits="userSpaceOnUse" color-interpolation-filters="sRGB">
<feFlood flood-opacity="0" result="BackgroundImageFix"/>
<feBlend mode="normal" in="SourceGraphic" in2="BackgroundImageFix" result="shape"/>
<feGaussianBlur stdDeviation="3" result="effect1_foregroundBlur_862_12493"/>
</filter>
<filter id="filter36_f_862_12493" x="434" y="-3.44531" width="62.7998" height="27.0996" filterUnits="userSpaceOnUse" color-interpolation-filters="sRGB">
<feFlood flood-opacity="0" result="BackgroundImageFix"/>
<feBlend mode="normal" in="SourceGraphic" in2="BackgroundImageFix" result="shape"/>
<feGaussianBlur stdDeviation="2" result="effect1_foregroundBlur_862_12493"/>
</filter>
<filter id="filter37_f_862_12493" x="430" y="-7.44531" width="70.7998" height="35.0996" filterUnits="userSpaceOnUse" color-interpolation-filters="sRGB">
<feFlood flood-opacity="0" result="BackgroundImageFix"/>
<feBlend mode="normal" in="SourceGraphic" in2="BackgroundImageFix" result="shape"/>
<feGaussianBlur stdDeviation="4" result="effect1_foregroundBlur_862_12493"/>
</filter>
<radialGradient id="paint0_radial_862_12493" cx="0" cy="0" r="1" gradientUnits="userSpaceOnUse" gradientTransform="translate(282 10) rotate(90) scale(482)">
<stop stop-color="#FFDE43"/>
<stop offset="1" stop-color="#FFBC00"/>
</radialGradient>
<radialGradient id="paint1_radial_862_12493" cx="0" cy="0" r="1" gradientUnits="userSpaceOnUse" gradientTransform="translate(282 74.5) rotate(90) scale(417.5)">
<stop stop-color="white" stop-opacity="0.5"/>
<stop offset="0.782278"/>
</radialGradient>
<radialGradient id="paint2_radial_862_12493" cx="0" cy="0" r="1" gradientUnits="userSpaceOnUse" gradientTransform="translate(282 74.5) rotate(90) scale(417.5)">
<stop stop-color="white" stop-opacity="0.5"/>
<stop offset="0.782278"/>
</radialGradient>
<radialGradient id="paint3_radial_862_12493" cx="0" cy="0" r="1" gradientUnits="userSpaceOnUse" gradientTransform="translate(282 -42.5) rotate(90) scale(534.5 722.835)">
<stop offset="0.0922635" stop-color="white"/>
<stop offset="0.670207" stop-color="white" stop-opacity="0"/>
</radialGradient>
<linearGradient id="paint4_linear_862_12493" x1="372.289" y1="309.164" x2="372.289" y2="152.238" gradientUnits="userSpaceOnUse">
<stop offset="0.265625" stop-color="#FFDE43"/>
<stop offset="1" stop-color="#F79D14"/>
</linearGradient>
<linearGradient id="paint5_linear_862_12493" x1="372.339" y1="290.85" x2="372.339" y2="157.29" gradientUnits="userSpaceOnUse">
<stop stop-opacity="0"/>
<stop offset="0.21" stop-color="#070707" stop-opacity="0.01"/>
<stop offset="0.39" stop-color="#1B1B1B" stop-opacity="0.05"/>
<stop offset="0.55" stop-color="#3D3D3D" stop-opacity="0.12"/>
<stop offset="0.7" stop-color="#6E6E6E" stop-opacity="0.21"/>
<stop offset="0.85" stop-color="#ACACAC" stop-opacity="0.34"/>
<stop offset="0.99" stop-color="#F7F7F7" stop-opacity="0.49"/>
<stop offset="1" stop-color="white" stop-opacity="0.5"/>
</linearGradient>
<linearGradient id="paint6_linear_862_12493" x1="372.339" y1="290.85" x2="372.339" y2="157.29" gradientUnits="userSpaceOnUse">
<stop stop-opacity="0"/>
<stop offset="0.21" stop-color="#070707" stop-opacity="0.01"/>
<stop offset="0.39" stop-color="#1B1B1B" stop-opacity="0.05"/>
<stop offset="0.55" stop-color="#3D3D3D" stop-opacity="0.12"/>
<stop offset="0.7" stop-color="#6E6E6E" stop-opacity="0.21"/>
<stop offset="0.85" stop-color="#ACACAC" stop-opacity="0.34"/>
<stop offset="0.99" stop-color="#F7F7F7" stop-opacity="0.49"/>
<stop offset="1" stop-color="white" stop-opacity="0.5"/>
</linearGradient>
<linearGradient id="paint7_linear_862_12493" x1="443.617" y1="288.948" x2="303.299" y2="274.916" gradientUnits="userSpaceOnUse">
<stop stop-color="#0048FF"/>
<stop offset="0.04" stop-color="#0067FF"/>
<stop offset="0.09" stop-color="#0087FF"/>
<stop offset="0.14" stop-color="#00A1FE"/>
<stop offset="0.2" stop-color="#00B6FE"/>
<stop offset="0.26" stop-color="#00C4FE"/>
<stop offset="0.34" stop-color="#00CCFE"/>
<stop offset="0.46" stop-color="#00CFFE"/>
<stop offset="0.55" stop-color="#00CAFE"/>
<stop offset="0.64" stop-color="#00BDFE"/>
<stop offset="0.74" stop-color="#00A6FE"/>
<stop offset="0.84" stop-color="#0086FF"/>
<stop offset="0.95" stop-color="#005EFF"/>
<stop offset="1" stop-color="#0048FF"/>
</linearGradient>
<linearGradient id="paint8_linear_862_12493" x1="443.617" y1="288.948" x2="303.299" y2="274.916" gradientUnits="userSpaceOnUse">
<stop stop-color="#0048FF"/>
<stop offset="0.04" stop-color="#0067FF"/>
<stop offset="0.09" stop-color="#0087FF"/>
<stop offset="0.14" stop-color="#00A1FE"/>
<stop offset="0.2" stop-color="#00B6FE"/>
<stop offset="0.26" stop-color="#00C4FE"/>
<stop offset="0.34" stop-color="#00CCFE"/>
<stop offset="0.46" stop-color="#00CFFE"/>
<stop offset="0.55" stop-color="#00CAFE"/>
<stop offset="0.64" stop-color="#00BDFE"/>
<stop offset="0.74" stop-color="#00A6FE"/>
<stop offset="0.84" stop-color="#0086FF"/>
<stop offset="0.95" stop-color="#005EFF"/>
<stop offset="1" stop-color="#0048FF"/>
</linearGradient>
<linearGradient id="paint9_linear_862_12493" x1="411.78" y1="313.579" x2="401.097" y2="260.46" gradientUnits="userSpaceOnUse">
<stop stop-color="#0067FF"/>
<stop offset="0.3" stop-color="#008BFF"/>
<stop offset="0.97" stop-color="#00E7FF"/>
<stop offset="1" stop-color="#00EBFF"/>
</linearGradient>
<linearGradient id="paint10_linear_862_12493" x1="443.617" y1="288.948" x2="303.299" y2="274.916" gradientUnits="userSpaceOnUse">
<stop stop-color="#0048FF"/>
<stop offset="0.04" stop-color="#0067FF"/>
<stop offset="0.09" stop-color="#0087FF"/>
<stop offset="0.14" stop-color="#00A1FE"/>
<stop offset="0.2" stop-color="#00B6FE"/>
<stop offset="0.26" stop-color="#00C4FE"/>
<stop offset="0.34" stop-color="#00CCFE"/>
<stop offset="0.46" stop-color="#00CFFE"/>
<stop offset="0.55" stop-color="#00CAFE"/>
<stop offset="0.64" stop-color="#00BDFE"/>
<stop offset="0.74" stop-color="#00A6FE"/>
<stop offset="0.84" stop-color="#0086FF"/>
<stop offset="0.95" stop-color="#005EFF"/>
<stop offset="1" stop-color="#0048FF"/>
</linearGradient>
<linearGradient id="paint11_linear_862_12493" x1="193.711" y1="309.164" x2="193.711" y2="152.238" gradientUnits="userSpaceOnUse">
<stop offset="0.265625" stop-color="#FFDE43"/>
<stop offset="1" stop-color="#F79D14"/>
</linearGradient>
<linearGradient id="paint12_linear_862_12493" x1="193.761" y1="290.85" x2="193.761" y2="157.29" gradientUnits="userSpaceOnUse">
<stop stop-opacity="0"/>
<stop offset="0.21" stop-color="#070707" stop-opacity="0.01"/>
<stop offset="0.39" stop-color="#1B1B1B" stop-opacity="0.05"/>
<stop offset="0.55" stop-color="#3D3D3D" stop-opacity="0.12"/>
<stop offset="0.7" stop-color="#6E6E6E" stop-opacity="0.21"/>
<stop offset="0.85" stop-color="#ACACAC" stop-opacity="0.34"/>
<stop offset="0.99" stop-color="#F7F7F7" stop-opacity="0.49"/>
<stop offset="1" stop-color="white" stop-opacity="0.5"/>
</linearGradient>
<linearGradient id="paint13_linear_862_12493" x1="193.761" y1="290.85" x2="193.761" y2="157.29" gradientUnits="userSpaceOnUse">
<stop stop-opacity="0"/>
<stop offset="0.21" stop-color="#070707" stop-opacity="0.01"/>
<stop offset="0.39" stop-color="#1B1B1B" stop-opacity="0.05"/>
<stop offset="0.55" stop-color="#3D3D3D" stop-opacity="0.12"/>
<stop offset="0.7" stop-color="#6E6E6E" stop-opacity="0.21"/>
<stop offset="0.85" stop-color="#ACACAC" stop-opacity="0.34"/>
<stop offset="0.99" stop-color="#F7F7F7" stop-opacity="0.49"/>
<stop offset="1" stop-color="white" stop-opacity="0.5"/>
</linearGradient>
<linearGradient id="paint14_linear_862_12493" x1="123.383" y1="288.948" x2="263.701" y2="274.916" gradientUnits="userSpaceOnUse">
<stop stop-color="#0048FF"/>
<stop offset="0.04" stop-color="#0067FF"/>
<stop offset="0.09" stop-color="#0087FF"/>
<stop offset="0.14" stop-color="#00A1FE"/>
<stop offset="0.2" stop-color="#00B6FE"/>
<stop offset="0.26" stop-color="#00C4FE"/>
<stop offset="0.34" stop-color="#00CCFE"/>
<stop offset="0.46" stop-color="#00CFFE"/>
<stop offset="0.55" stop-color="#00CAFE"/>
<stop offset="0.64" stop-color="#00BDFE"/>
<stop offset="0.74" stop-color="#00A6FE"/>
<stop offset="0.84" stop-color="#0086FF"/>
<stop offset="0.95" stop-color="#005EFF"/>
<stop offset="1" stop-color="#0048FF"/>
</linearGradient>
<linearGradient id="paint15_linear_862_12493" x1="123.383" y1="288.948" x2="263.701" y2="274.916" gradientUnits="userSpaceOnUse">
<stop stop-color="#0048FF"/>
<stop offset="0.04" stop-color="#0067FF"/>
<stop offset="0.09" stop-color="#0087FF"/>
<stop offset="0.14" stop-color="#00A1FE"/>
<stop offset="0.2" stop-color="#00B6FE"/>
<stop offset="0.26" stop-color="#00C4FE"/>
<stop offset="0.34" stop-color="#00CCFE"/>
<stop offset="0.46" stop-color="#00CFFE"/>
<stop offset="0.55" stop-color="#00CAFE"/>
<stop offset="0.64" stop-color="#00BDFE"/>
<stop offset="0.74" stop-color="#00A6FE"/>
<stop offset="0.84" stop-color="#0086FF"/>
<stop offset="0.95" stop-color="#005EFF"/>
<stop offset="1" stop-color="#0048FF"/>
</linearGradient>
<linearGradient id="paint16_linear_862_12493" x1="155.22" y1="313.579" x2="165.903" y2="260.46" gradientUnits="userSpaceOnUse">
<stop stop-color="#0067FF"/>
<stop offset="0.3" stop-color="#008BFF"/>
<stop offset="0.97" stop-color="#00E7FF"/>
<stop offset="1" stop-color="#00EBFF"/>
</linearGradient>
<linearGradient id="paint17_linear_862_12493" x1="123.383" y1="288.948" x2="263.701" y2="274.916" gradientUnits="userSpaceOnUse">
<stop stop-color="#0048FF"/>
<stop offset="0.04" stop-color="#0067FF"/>
<stop offset="0.09" stop-color="#0087FF"/>
<stop offset="0.14" stop-color="#00A1FE"/>
<stop offset="0.2" stop-color="#00B6FE"/>
<stop offset="0.26" stop-color="#00C4FE"/>
<stop offset="0.34" stop-color="#00CCFE"/>
<stop offset="0.46" stop-color="#00CFFE"/>
<stop offset="0.55" stop-color="#00CAFE"/>
<stop offset="0.64" stop-color="#00BDFE"/>
<stop offset="0.74" stop-color="#00A6FE"/>
<stop offset="0.84" stop-color="#0086FF"/>
<stop offset="0.95" stop-color="#005EFF"/>
<stop offset="1" stop-color="#0048FF"/>
</linearGradient>
<radialGradient id="paint18_radial_862_12493" cx="0" cy="0" r="1" gradientUnits="userSpaceOnUse" gradientTransform="translate(251.627 381.576) rotate(-167.514) scale(29.34 29.34)">
<stop stop-color="#743C1C"/>
<stop offset="1" stop-color="#401C02"/>
</radialGradient>
<linearGradient id="paint19_linear_862_12493" x1="254.957" y1="366.541" x2="248.297" y2="396.612" gradientUnits="userSpaceOnUse">
<stop offset="0.260417" stop-color="#F79D14"/>
<stop offset="1" stop-color="#FFDE43"/>
</linearGradient>
<radialGradient id="paint20_radial_862_12493" cx="0" cy="0" r="1" gradientUnits="userSpaceOnUse" gradientTransform="translate(282 10) rotate(90) scale(482)">
<stop stop-color="#FFDE43"/>
<stop offset="1" stop-color="#FFBC00"/>
</radialGradient>
<linearGradient id="paint21_linear_862_12493" x1="465.294" y1="379.997" x2="465.294" y2="522.851" gradientUnits="userSpaceOnUse">
<stop stop-color="#FF0000"/>
<stop offset="1" stop-color="#610003"/>
</linearGradient>
<linearGradient id="paint22_linear_862_12493" x1="465.294" y1="379.997" x2="465.294" y2="522.851" gradientUnits="userSpaceOnUse">
<stop stop-color="#FF0000"/>
<stop offset="1" stop-color="#610003"/>
</linearGradient>
<linearGradient id="paint23_linear_862_12493" x1="543.593" y1="451.424" x2="387.015" y2="451.424" gradientUnits="userSpaceOnUse">
<stop stop-color="#FF8F00"/>
<stop offset="0.0143476" stop-color="#FF9001" stop-opacity="0.9857"/>
<stop offset="0.2987" stop-color="#FF9912" stop-opacity="0.7013"/>
<stop offset="0.6103" stop-color="#FF9F1C" stop-opacity="0.3897"/>
<stop offset="1" stop-color="#FFA11F" stop-opacity="0"/>
</linearGradient>
<linearGradient id="paint24_linear_862_12493" x1="387.057" y1="451.424" x2="543.636" y2="451.424" gradientUnits="userSpaceOnUse">
<stop stop-color="#FF8F00"/>
<stop offset="0.0143476" stop-color="#FF9001" stop-opacity="0.9857"/>
<stop offset="0.2987" stop-color="#FF9912" stop-opacity="0.7013"/>
<stop offset="0.6103" stop-color="#FF9F1C" stop-opacity="0.3897"/>
<stop offset="1" stop-color="#FFA11F" stop-opacity="0"/>
</linearGradient>
<linearGradient id="paint25_linear_862_12493" x1="465.294" y1="379.997" x2="465.294" y2="522.851" gradientUnits="userSpaceOnUse">
<stop stop-color="#FF0000"/>
<stop offset="1" stop-color="#610003"/>
</linearGradient>
<linearGradient id="paint26_linear_862_12493" x1="78.2941" y1="317.997" x2="78.2941" y2="460.851" gradientUnits="userSpaceOnUse">
<stop stop-color="#FF0000"/>
<stop offset="1" stop-color="#610003"/>
</linearGradient>
<linearGradient id="paint27_linear_862_12493" x1="78.2941" y1="317.997" x2="78.2941" y2="460.851" gradientUnits="userSpaceOnUse">
<stop stop-color="#FF0000"/>
<stop offset="1" stop-color="#610003"/>
</linearGradient>
<linearGradient id="paint28_linear_862_12493" x1="156.593" y1="389.424" x2="0.0149325" y2="389.424" gradientUnits="userSpaceOnUse">
<stop stop-color="#FF8F00"/>
<stop offset="0.0143476" stop-color="#FF9001" stop-opacity="0.9857"/>
<stop offset="0.2987" stop-color="#FF9912" stop-opacity="0.7013"/>
<stop offset="0.6103" stop-color="#FF9F1C" stop-opacity="0.3897"/>
<stop offset="1" stop-color="#FFA11F" stop-opacity="0"/>
</linearGradient>
<linearGradient id="paint29_linear_862_12493" x1="0.0574391" y1="389.424" x2="156.636" y2="389.424" gradientUnits="userSpaceOnUse">
<stop stop-color="#FF8F00"/>
<stop offset="0.0143476" stop-color="#FF9001" stop-opacity="0.9857"/>
<stop offset="0.2987" stop-color="#FF9912" stop-opacity="0.7013"/>
<stop offset="0.6103" stop-color="#FF9F1C" stop-opacity="0.3897"/>
<stop offset="1" stop-color="#FFA11F" stop-opacity="0"/>
</linearGradient>
<linearGradient id="paint30_linear_862_12493" x1="78.2941" y1="317.997" x2="78.2941" y2="460.851" gradientUnits="userSpaceOnUse">
<stop stop-color="#FF0000"/>
<stop offset="1" stop-color="#610003"/>
</linearGradient>
<linearGradient id="paint31_linear_862_12493" x1="465.294" y1="-0.00335548" x2="465.294" y2="142.851" gradientUnits="userSpaceOnUse">
<stop stop-color="#FF0000"/>
<stop offset="1" stop-color="#610003"/>
</linearGradient>
<linearGradient id="paint32_linear_862_12493" x1="465.294" y1="-0.00335548" x2="465.294" y2="142.851" gradientUnits="userSpaceOnUse">
<stop stop-color="#FF0000"/>
<stop offset="1" stop-color="#610003"/>
</linearGradient>
<linearGradient id="paint33_linear_862_12493" x1="543.593" y1="71.424" x2="387.015" y2="71.424" gradientUnits="userSpaceOnUse">
<stop stop-color="#FF8F00"/>
<stop offset="0.0143476" stop-color="#FF9001" stop-opacity="0.9857"/>
<stop offset="0.2987" stop-color="#FF9912" stop-opacity="0.7013"/>
<stop offset="0.6103" stop-color="#FF9F1C" stop-opacity="0.3897"/>
<stop offset="1" stop-color="#FFA11F" stop-opacity="0"/>
</linearGradient>
<linearGradient id="paint34_linear_862_12493" x1="387.057" y1="71.424" x2="543.636" y2="71.424" gradientUnits="userSpaceOnUse">
<stop stop-color="#FF8F00"/>
<stop offset="0.0143476" stop-color="#FF9001" stop-opacity="0.9857"/>
<stop offset="0.2987" stop-color="#FF9912" stop-opacity="0.7013"/>
<stop offset="0.6103" stop-color="#FF9F1C" stop-opacity="0.3897"/>
<stop offset="1" stop-color="#FFA11F" stop-opacity="0"/>
</linearGradient>
<linearGradient id="paint35_linear_862_12493" x1="465.294" y1="-0.00335548" x2="465.294" y2="142.851" gradientUnits="userSpaceOnUse">
<stop stop-color="#FF0000"/>
<stop offset="1" stop-color="#610003"/>
</linearGradient>
</defs>
</svg>
