<svg width="483" height="519" viewBox="0 0 483 519" fill="none" xmlns="http://www.w3.org/2000/svg">
<path d="M241.18 482.36C374.38 482.36 482.36 374.38 482.36 241.18C482.36 107.98 374.38 0 241.18 0C107.98 0 0 107.98 0 241.18C0 374.38 107.98 482.36 241.18 482.36Z" fill="url(#paint0_radial_862_12486)"/>
<g style="mix-blend-mode:soft-light">
<path d="M241.18 482.36C374.38 482.36 482.36 374.38 482.36 241.18C482.36 107.98 374.38 0 241.18 0C107.98 0 0 107.98 0 241.18C0 374.38 107.98 482.36 241.18 482.36Z" fill="url(#paint1_radial_862_12486)"/>
</g>
<g style="mix-blend-mode:soft-light">
<path d="M241.18 482.36C374.38 482.36 482.36 374.38 482.36 241.18C482.36 107.98 374.38 0 241.18 0C107.98 0 0 107.98 0 241.18C0 374.38 107.98 482.36 241.18 482.36Z" fill="url(#paint2_radial_862_12486)"/>
</g>
<g style="mix-blend-mode:overlay">
<path d="M241.18 482.36C374.38 482.36 482.36 374.38 482.36 241.18C482.36 107.98 374.38 0 241.18 0C107.98 0 0 107.98 0 241.18C0 374.38 107.98 482.36 241.18 482.36Z" fill="url(#paint3_radial_862_12486)" fill-opacity="0.7"/>
</g>
<mask id="mask0_862_12486" style="mask-type:alpha" maskUnits="userSpaceOnUse" x="0" y="0" width="483" height="483">
<path d="M241.18 482.36C374.38 482.36 482.36 374.38 482.36 241.18C482.36 107.98 374.38 0 241.18 0C107.98 0 0 107.98 0 241.18C0 374.38 107.98 482.36 241.18 482.36Z" fill="white"/>
</mask>
<g mask="url(#mask0_862_12486)">
<g filter="url(#filter0_f_862_12486)">
<path d="M-1.3759 234.299C-1.11402 230.872 0.0137008 230.529 0.342619 234.009C0.708055 237.875 -0.00231624 245.647 0.16871 250.335C0.621554 262.748 2.52441 273.542 4.48605 282.321C10.8075 310.613 19.5617 328.843 27.7268 344.289C54.5663 395.061 83.9667 420.771 112.648 440.147C154.689 468.55 197.072 477.584 239.49 479.5C240.56 479.549 240.738 486.518 239.686 487.425C237.788 489.062 235.436 487.438 233.494 487.37C227.915 487.174 222.335 486.791 216.756 486.211C200.213 484.492 183.67 480.991 167.162 475.359C122.275 460.044 73.8765 433.821 31.6092 359.962C28.9502 355.316 26.3124 350.424 23.7118 345.168C21.6321 340.964 19.5726 336.557 17.5493 331.844C10.8946 316.342 -4.61323 276.659 -1.3759 234.299ZM239.52 487.5C238.499 487.532 238.241 481.035 239.214 479.686C240.684 477.647 242.888 479.326 244.439 479.229C250.877 478.827 257.314 478.23 263.75 477.422C281.395 475.206 299.028 471.423 316.621 465.596C360.257 451.146 407.17 429.116 448.305 361.431C450.923 357.124 453.518 352.554 456.079 347.641C463.86 332.713 483.361 293.085 481.107 243.821C480.917 239.669 482.181 237.181 482.747 240.744C483.467 245.28 483.175 254.736 482.977 259.768C482.341 275.884 479.866 289.512 477.257 300.518C468.987 335.399 457.376 355.623 446.744 372.51C412.184 427.397 374.648 449.524 338.155 465.425C305.424 479.686 272.444 486.484 239.52 487.5Z" fill="#401C02"/>
</g>
<g filter="url(#filter1_f_862_12486)">
<path d="M-1.3759 234.299C-1.11402 230.872 0.0137008 230.529 0.342619 234.009C0.708055 237.875 -0.00231624 245.647 0.16871 250.335C0.621554 262.748 2.52441 273.542 4.48605 282.321C10.8075 310.613 19.5617 328.843 27.7268 344.289C54.5663 395.061 83.9667 420.771 112.648 440.147C154.689 468.55 197.072 477.584 239.49 479.5C240.56 479.549 240.738 486.518 239.686 487.425C237.788 489.062 235.436 487.438 233.494 487.37C227.915 487.174 222.335 486.791 216.756 486.211C200.213 484.492 183.67 480.991 167.162 475.359C122.275 460.044 73.8765 433.821 31.6092 359.962C28.9502 355.316 26.3124 350.424 23.7118 345.168C21.6321 340.964 19.5726 336.557 17.5493 331.844C10.8946 316.342 -4.61323 276.659 -1.3759 234.299ZM239.52 487.5C238.499 487.532 238.241 481.035 239.214 479.686C240.684 477.647 242.888 479.326 244.439 479.229C250.877 478.827 257.314 478.23 263.75 477.422C281.395 475.206 299.028 471.423 316.621 465.596C360.257 451.146 407.17 429.116 448.305 361.431C450.923 357.124 453.518 352.554 456.079 347.641C463.86 332.713 483.361 293.085 481.107 243.821C480.917 239.669 482.181 237.181 482.747 240.744C483.467 245.28 483.175 254.736 482.977 259.768C482.341 275.884 479.866 289.512 477.257 300.518C468.987 335.399 457.376 355.623 446.744 372.51C412.184 427.397 374.648 449.524 338.155 465.425C305.424 479.686 272.444 486.484 239.52 487.5Z" fill="#401C02"/>
</g>
</g>
<path d="M157.142 212.46L189.092 180.51C191.744 177.858 193.234 174.261 193.234 170.51C193.234 166.76 191.744 163.162 189.092 160.51C186.44 157.858 182.843 156.368 179.092 156.368C175.341 156.368 171.744 157.858 169.092 160.51L137.142 192.51L105.142 160.51C102.49 157.858 98.8929 156.368 95.1421 156.368C91.3914 156.368 87.7943 157.858 85.1421 160.51C82.49 163.162 81 166.76 81 170.51C81 174.261 82.49 177.858 85.1421 180.51L117.142 212.46L85.2321 244.41C83.9163 245.722 82.8722 247.281 82.1599 248.997C81.4475 250.713 81.0808 252.552 81.0808 254.41C81.0808 256.268 81.4475 258.108 82.1599 259.824C82.8722 261.54 83.9163 263.099 85.2321 264.41C86.5445 265.725 88.1033 266.768 89.8192 267.48C91.5351 268.191 93.3745 268.557 95.2321 268.557C97.0898 268.557 98.9291 268.191 100.645 267.48C102.361 266.768 103.92 265.725 105.232 264.41L137.232 232.41L169.182 264.41C170.495 265.725 172.053 266.768 173.769 267.48C175.485 268.191 177.325 268.557 179.182 268.557C181.04 268.557 182.879 268.191 184.595 267.48C186.311 266.768 187.87 265.725 189.182 264.41C190.498 263.099 191.542 261.54 192.254 259.824C192.967 258.108 193.333 256.268 193.333 254.41C193.333 252.552 192.967 250.713 192.254 248.997C191.542 247.281 190.498 245.722 189.182 244.41L157.142 212.46Z" fill="url(#paint4_radial_862_12486)"/>
<path d="M365.472 212.46L397.422 180.51C400.074 177.858 401.564 174.261 401.564 170.51C401.564 166.76 400.074 163.162 397.422 160.51C394.77 157.858 391.173 156.368 387.422 156.368C383.672 156.368 380.074 157.858 377.422 160.51L345.422 192.51L313.422 160.51C310.77 157.858 307.173 156.368 303.422 156.368C299.672 156.368 296.074 157.858 293.422 160.51C290.77 163.162 289.28 166.76 289.28 170.51C289.28 174.261 290.77 177.858 293.422 180.51L325.422 212.46L293.422 244.41C292.109 245.723 291.067 247.282 290.356 248.998C289.645 250.714 289.279 252.553 289.279 254.41C289.279 256.268 289.645 258.107 290.356 259.822C291.067 261.538 292.109 263.097 293.422 264.41C294.735 265.724 296.294 266.766 298.01 267.477C299.726 268.187 301.565 268.553 303.422 268.553C305.28 268.553 307.119 268.187 308.834 267.477C310.55 266.766 312.109 265.724 313.422 264.41L345.422 232.41L377.422 264.41C378.735 265.725 380.293 266.768 382.009 267.48C383.725 268.191 385.565 268.557 387.422 268.557C389.28 268.557 391.119 268.191 392.835 267.48C394.551 266.768 396.11 265.725 397.422 264.41C398.738 263.099 399.782 261.54 400.495 259.824C401.207 258.108 401.574 256.268 401.574 254.41C401.574 252.552 401.207 250.713 400.495 248.997C399.782 247.281 398.738 245.722 397.422 244.41L365.472 212.46Z" fill="url(#paint5_radial_862_12486)"/>
<path d="M157.142 212.46L189.092 180.51C191.744 177.858 193.234 174.261 193.234 170.51C193.234 166.76 191.744 163.162 189.092 160.51C186.44 157.858 182.843 156.368 179.092 156.368C175.341 156.368 171.744 157.858 169.092 160.51L137.142 192.51L105.142 160.51C102.49 157.858 98.8929 156.368 95.1421 156.368C91.3914 156.368 87.7943 157.858 85.1421 160.51C82.49 163.162 81 166.76 81 170.51C81 174.261 82.49 177.858 85.1421 180.51L117.142 212.46L85.2321 244.41C83.9163 245.722 82.8722 247.281 82.1599 248.997C81.4475 250.713 81.0808 252.552 81.0808 254.41C81.0808 256.268 81.4475 258.108 82.1599 259.824C82.8722 261.54 83.9163 263.099 85.2321 264.41V264.41C86.5445 265.725 88.1033 266.768 89.8192 267.48C91.5351 268.191 93.3745 268.557 95.2321 268.557C97.0898 268.557 98.9291 268.191 100.645 267.48C102.361 266.768 103.92 265.725 105.232 264.41L137.232 232.41L169.182 264.41C170.495 265.725 172.053 266.768 173.769 267.48C175.485 268.191 177.325 268.557 179.182 268.557C181.04 268.557 182.879 268.191 184.595 267.48C186.311 266.768 187.87 265.725 189.182 264.41C190.498 263.099 191.542 261.54 192.254 259.824C192.967 258.108 193.333 256.268 193.333 254.41C193.333 252.552 192.967 250.713 192.254 248.997C191.542 247.281 190.498 245.722 189.182 244.41L157.142 212.46Z" stroke="url(#paint6_linear_862_12486)" stroke-width="2" stroke-miterlimit="10"/>
<path d="M365.472 212.46L397.422 180.51C400.074 177.858 401.564 174.261 401.564 170.51C401.564 166.76 400.074 163.162 397.422 160.51C394.77 157.858 391.173 156.368 387.422 156.368C383.672 156.368 380.074 157.858 377.422 160.51L345.422 192.51L313.422 160.51C310.77 157.858 307.173 156.368 303.422 156.368C299.672 156.368 296.074 157.858 293.422 160.51C290.77 163.162 289.28 166.76 289.28 170.51C289.28 174.261 290.77 177.858 293.422 180.51L325.422 212.46L293.422 244.41C292.109 245.723 291.067 247.282 290.356 248.998C289.645 250.714 289.279 252.553 289.279 254.41C289.279 256.268 289.645 258.107 290.356 259.822C291.067 261.538 292.109 263.097 293.422 264.41V264.41C294.735 265.724 296.294 266.766 298.01 267.477C299.726 268.187 301.565 268.553 303.422 268.553C305.28 268.553 307.119 268.187 308.834 267.477C310.55 266.766 312.109 265.724 313.422 264.41L345.422 232.41L377.422 264.41C378.735 265.725 380.293 266.768 382.009 267.48C383.725 268.191 385.565 268.557 387.422 268.557C389.28 268.557 391.119 268.191 392.835 267.48C394.551 266.768 396.11 265.725 397.422 264.41V264.41C398.738 263.099 399.782 261.54 400.495 259.824C401.207 258.108 401.574 256.268 401.574 254.41C401.574 252.552 401.207 250.713 400.495 248.997C399.782 247.281 398.738 245.722 397.422 244.41L365.472 212.46Z" stroke="url(#paint7_linear_862_12486)" stroke-width="2" stroke-miterlimit="10"/>
<path d="M241.333 335.23C190.943 335.23 143.963 327.64 104.333 314.54C103.296 314.163 102.176 314.079 101.096 314.297C100.015 314.515 99.0148 315.027 98.2058 315.776C97.3967 316.525 96.8097 317.483 96.5093 318.544C96.2088 319.605 96.2065 320.728 96.5026 321.79C112.713 379.7 171.383 422.6 241.303 422.6C311.223 422.6 369.913 379.7 386.143 321.79C386.439 320.728 386.436 319.605 386.136 318.544C385.835 317.483 385.248 316.525 384.439 315.776C383.63 315.027 382.631 314.515 381.55 314.297C380.469 314.079 379.349 314.163 378.313 314.54C338.693 327.64 291.713 335.23 241.333 335.23Z" fill="url(#paint8_radial_862_12486)"/>
<path d="M95.2985 322.126L95.2989 322.127C111.679 380.644 170.895 423.85 241.303 423.85C311.71 423.85 370.946 380.644 387.346 322.127L387.347 322.126C387.704 320.842 387.702 319.485 387.339 318.203C386.976 316.921 386.266 315.764 385.289 314.859C384.311 313.954 383.103 313.335 381.797 313.072C380.497 312.81 379.151 312.909 377.904 313.359C338.425 326.41 291.585 333.98 241.333 333.98C191.071 333.98 144.23 326.41 104.742 313.359C103.495 312.909 102.148 312.81 100.848 313.072C99.5423 313.335 98.3341 313.954 97.3565 314.859C96.3789 315.764 95.6696 316.921 95.3066 318.203C94.9435 319.485 94.9407 320.842 95.2985 322.126Z" stroke="url(#paint9_linear_862_12486)" stroke-width="2.5"/>
<mask id="mask1_862_12486" style="mask-type:alpha" maskUnits="userSpaceOnUse" x="0" y="0" width="483" height="483">
<path d="M241.18 482.36C374.38 482.36 482.36 374.38 482.36 241.18C482.36 107.98 374.38 0 241.18 0C107.98 0 0 107.98 0 241.18C0 374.38 107.98 482.36 241.18 482.36Z" fill="url(#paint10_radial_862_12486)"/>
</mask>
<g mask="url(#mask1_862_12486)">
<mask id="mask2_862_12486" style="mask-type:alpha" maskUnits="userSpaceOnUse" x="96" y="314" width="291" height="205">
<path d="M241.333 335.23C190.943 335.23 143.963 327.64 104.333 314.54C103.296 314.163 102.176 314.079 101.096 314.297C100.015 314.515 99.0148 315.027 98.2058 315.776C97.3967 316.525 96.8097 317.483 96.5093 318.544C96.2088 319.605 96.2065 320.728 96.5026 321.79C112.713 379.7 171.413 519 241.333 519C311.253 519 369.913 379.7 386.143 321.79C386.439 320.728 386.436 319.605 386.136 318.544C385.835 317.483 385.248 316.525 384.439 315.776C383.63 315.027 382.631 314.515 381.55 314.297C380.469 314.079 379.349 314.163 378.313 314.54C338.693 327.64 291.713 335.23 241.333 335.23Z" fill="black"/>
</mask>
<g mask="url(#mask2_862_12486)">
<g filter="url(#filter2_f_862_12486)">
<path d="M241.012 502.9C205.112 502.9 176.112 473.8 176.112 438V329H305.812V438C305.812 473.8 276.812 502.9 241.012 502.9Z" fill="#672500"/>
</g>
</g>
</g>
<mask id="mask3_862_12486" style="mask-type:alpha" maskUnits="userSpaceOnUse" x="96" y="314" width="291" height="205">
<path d="M241.333 335.23C190.943 335.23 143.963 327.64 104.333 314.54C103.296 314.163 102.176 314.079 101.096 314.297C100.015 314.515 99.0148 315.027 98.2058 315.776C97.3967 316.525 96.8097 317.483 96.5093 318.544C96.2088 319.605 96.2065 320.728 96.5026 321.79C112.713 379.7 171.413 519 241.333 519C311.253 519 369.913 379.7 386.143 321.79C386.439 320.728 386.436 319.605 386.136 318.544C385.835 317.483 385.248 316.525 384.439 315.776C383.63 315.027 382.631 314.515 381.55 314.297C380.469 314.079 379.349 314.163 378.313 314.54C338.693 327.64 291.713 335.23 241.333 335.23Z" fill="black"/>
</mask>
<g mask="url(#mask3_862_12486)">
<path d="M241.012 502.9C205.112 502.9 176.112 473.8 176.112 438V329H305.812V438C305.812 473.8 276.812 502.9 241.012 502.9Z" fill="url(#paint11_radial_862_12486)"/>
<g style="mix-blend-mode:multiply">
<path d="M241.012 502.9C205.112 502.9 176.112 473.9 176.112 438V329H305.812V438C305.812 473.9 276.812 502.9 241.012 502.9Z" fill="url(#paint12_radial_862_12486)"/>
</g>
<g style="mix-blend-mode:multiply" opacity="0.5" filter="url(#filter3_f_862_12486)">
<path d="M248.112 385H234.112V448H248.112V385Z" fill="#CF4F87"/>
</g>
</g>
<mask id="mask4_862_12486" style="mask-type:alpha" maskUnits="userSpaceOnUse" x="96" y="314" width="291" height="109">
<path d="M241.333 335.23C190.943 335.23 143.963 327.64 104.333 314.54C103.296 314.163 102.176 314.079 101.096 314.297C100.015 314.515 99.0148 315.027 98.2058 315.776C97.3967 316.525 96.8097 317.483 96.5093 318.544C96.2088 319.605 96.2065 320.728 96.5026 321.79C112.713 379.7 171.383 422.6 241.303 422.6C311.223 422.6 369.913 379.7 386.143 321.79C386.439 320.728 386.436 319.605 386.136 318.544C385.835 317.483 385.248 316.525 384.439 315.776C383.63 315.027 382.631 314.515 381.55 314.297C380.469 314.079 379.349 314.163 378.313 314.54C338.693 327.64 291.713 335.23 241.333 335.23Z" fill="url(#paint13_linear_862_12486)"/>
</mask>
<g mask="url(#mask4_862_12486)">
<g filter="url(#filter4_f_862_12486)">
<ellipse cx="241.112" cy="237" rx="203" ry="142" fill="#401C02"/>
</g>
</g>
<defs>
<filter id="filter0_f_862_12486" x="-26.8149" y="206.559" width="535.022" height="306.595" filterUnits="userSpaceOnUse" color-interpolation-filters="sRGB">
<feFlood flood-opacity="0" result="BackgroundImageFix"/>
<feBlend mode="normal" in="SourceGraphic" in2="BackgroundImageFix" result="shape"/>
<feGaussianBlur stdDeviation="12.5" result="effect1_foregroundBlur_862_12486"/>
</filter>
<filter id="filter1_f_862_12486" x="-41.8149" y="191.559" width="565.022" height="336.595" filterUnits="userSpaceOnUse" color-interpolation-filters="sRGB">
<feFlood flood-opacity="0" result="BackgroundImageFix"/>
<feBlend mode="normal" in="SourceGraphic" in2="BackgroundImageFix" result="shape"/>
<feGaussianBlur stdDeviation="20" result="effect1_foregroundBlur_862_12486"/>
</filter>
<filter id="filter2_f_862_12486" x="156.112" y="309" width="169.7" height="213.9" filterUnits="userSpaceOnUse" color-interpolation-filters="sRGB">
<feFlood flood-opacity="0" result="BackgroundImageFix"/>
<feBlend mode="normal" in="SourceGraphic" in2="BackgroundImageFix" result="shape"/>
<feGaussianBlur stdDeviation="10" result="effect1_foregroundBlur_862_12486"/>
</filter>
<filter id="filter3_f_862_12486" x="214.112" y="365" width="54" height="103" filterUnits="userSpaceOnUse" color-interpolation-filters="sRGB">
<feFlood flood-opacity="0" result="BackgroundImageFix"/>
<feBlend mode="normal" in="SourceGraphic" in2="BackgroundImageFix" result="shape"/>
<feGaussianBlur stdDeviation="10" result="effect1_foregroundBlur_862_12486"/>
</filter>
<filter id="filter4_f_862_12486" x="-16.8877" y="40" width="516" height="394" filterUnits="userSpaceOnUse" color-interpolation-filters="sRGB">
<feFlood flood-opacity="0" result="BackgroundImageFix"/>
<feBlend mode="normal" in="SourceGraphic" in2="BackgroundImageFix" result="shape"/>
<feGaussianBlur stdDeviation="27.5" result="effect1_foregroundBlur_862_12486"/>
</filter>
<radialGradient id="paint0_radial_862_12486" cx="0" cy="0" r="1" gradientUnits="userSpaceOnUse" gradientTransform="translate(241 -4.53898e-06) rotate(90) scale(482)">
<stop stop-color="#FFDE43"/>
<stop offset="1" stop-color="#FFBC00"/>
</radialGradient>
<radialGradient id="paint1_radial_862_12486" cx="0" cy="0" r="1" gradientUnits="userSpaceOnUse" gradientTransform="translate(241 64.5) rotate(90) scale(417.5)">
<stop stop-color="white" stop-opacity="0.5"/>
<stop offset="0.782278"/>
</radialGradient>
<radialGradient id="paint2_radial_862_12486" cx="0" cy="0" r="1" gradientUnits="userSpaceOnUse" gradientTransform="translate(241 64.5) rotate(90) scale(417.5)">
<stop stop-color="white" stop-opacity="0.5"/>
<stop offset="0.782278"/>
</radialGradient>
<radialGradient id="paint3_radial_862_12486" cx="0" cy="0" r="1" gradientUnits="userSpaceOnUse" gradientTransform="translate(241 -52.5) rotate(90) scale(534.5 722.835)">
<stop offset="0.0922635" stop-color="white"/>
<stop offset="0.670207" stop-color="white" stop-opacity="0"/>
</radialGradient>
<radialGradient id="paint4_radial_862_12486" cx="0" cy="0" r="1" gradientUnits="userSpaceOnUse" gradientTransform="translate(137.089 212.425) scale(71.5989 56.192)">
<stop stop-color="#743C1C"/>
<stop offset="1" stop-color="#401C02"/>
</radialGradient>
<radialGradient id="paint5_radial_862_12486" cx="0" cy="0" r="1" gradientUnits="userSpaceOnUse" gradientTransform="translate(345.349 212.425) scale(71.574 56.192)">
<stop stop-color="#743C1C"/>
<stop offset="1" stop-color="#401C02"/>
</radialGradient>
<linearGradient id="paint6_linear_862_12486" x1="137.167" y1="271.714" x2="137.167" y2="152.758" gradientUnits="userSpaceOnUse">
<stop stop-color="#FFDE43"/>
<stop offset="0.22" stop-color="#FED93F"/>
<stop offset="0.51" stop-color="#FCC934"/>
<stop offset="0.82" stop-color="#F9AF21"/>
<stop offset="1" stop-color="#F79D14"/>
</linearGradient>
<linearGradient id="paint7_linear_862_12486" x1="345.426" y1="271.714" x2="345.426" y2="152.758" gradientUnits="userSpaceOnUse">
<stop stop-color="#FFDE43"/>
<stop offset="0.22" stop-color="#FED93F"/>
<stop offset="0.51" stop-color="#FCC934"/>
<stop offset="0.82" stop-color="#F9AF21"/>
<stop offset="1" stop-color="#F79D14"/>
</linearGradient>
<radialGradient id="paint8_radial_862_12486" cx="0" cy="0" r="1" gradientUnits="userSpaceOnUse" gradientTransform="translate(241.323 368.17) scale(109.48 109.511)">
<stop stop-color="#743C1C"/>
<stop offset="1" stop-color="#401C02"/>
</radialGradient>
<linearGradient id="paint9_linear_862_12486" x1="241.323" y1="425.651" x2="241.323" y2="310.69" gradientUnits="userSpaceOnUse">
<stop offset="0.265625" stop-color="#FFDE43"/>
<stop offset="1" stop-color="#F79D14"/>
</linearGradient>
<radialGradient id="paint10_radial_862_12486" cx="0" cy="0" r="1" gradientUnits="userSpaceOnUse" gradientTransform="translate(241 -4.53898e-06) rotate(90) scale(482)">
<stop stop-color="#FFDE43"/>
<stop offset="1" stop-color="#FFBC00"/>
</radialGradient>
<radialGradient id="paint11_radial_862_12486" cx="0" cy="0" r="1" gradientUnits="userSpaceOnUse" gradientTransform="translate(242.24 403.591) scale(80.9374 97.6186)">
<stop offset="0.3" stop-color="#F076AC"/>
<stop offset="0.4761" stop-color="#ED73A9"/>
<stop offset="0.6236" stop-color="#E2699F"/>
<stop offset="0.7609" stop-color="#D1588E"/>
<stop offset="1" stop-color="#B94176"/>
</radialGradient>
<radialGradient id="paint12_radial_862_12486" cx="0" cy="0" r="1" gradientUnits="userSpaceOnUse" gradientTransform="translate(240.964 415.958) scale(74.0615 226.286)">
<stop offset="0.2933" stop-color="#D86B9B" stop-opacity="0"/>
<stop offset="0.4603" stop-color="#D46998" stop-opacity="0.2363"/>
<stop offset="0.6135" stop-color="#C96491" stop-opacity="0.4531"/>
<stop offset="0.7614" stop-color="#B75B84" stop-opacity="0.6623"/>
<stop offset="0.905" stop-color="#9D4E71" stop-opacity="0.8656"/>
<stop offset="1" stop-color="#874462"/>
</radialGradient>
<linearGradient id="paint13_linear_862_12486" x1="241" y1="423" x2="241" y2="336.5" gradientUnits="userSpaceOnUse">
<stop offset="0.152957" stop-color="#743C1C" stop-opacity="0.53"/>
<stop offset="1" stop-color="#401C02"/>
</linearGradient>
</defs>
</svg>
