<svg width="483" height="483" viewBox="0 0 483 483" fill="none" xmlns="http://www.w3.org/2000/svg">
<path d="M241.18 482.36C374.38 482.36 482.36 374.38 482.36 241.18C482.36 107.98 374.38 0 241.18 0C107.98 0 0 107.98 0 241.18C0 374.38 107.98 482.36 241.18 482.36Z" fill="url(#paint0_radial_862_12562)"/>
<g style="mix-blend-mode:soft-light">
<path d="M241.18 482.36C374.38 482.36 482.36 374.38 482.36 241.18C482.36 107.98 374.38 0 241.18 0C107.98 0 0 107.98 0 241.18C0 374.38 107.98 482.36 241.18 482.36Z" fill="url(#paint1_radial_862_12562)"/>
</g>
<g style="mix-blend-mode:soft-light">
<path d="M241.18 482.36C374.38 482.36 482.36 374.38 482.36 241.18C482.36 107.98 374.38 0 241.18 0C107.98 0 0 107.98 0 241.18C0 374.38 107.98 482.36 241.18 482.36Z" fill="url(#paint2_radial_862_12562)"/>
</g>
<g style="mix-blend-mode:overlay">
<path d="M241.18 482.36C374.38 482.36 482.36 374.38 482.36 241.18C482.36 107.98 374.38 0 241.18 0C107.98 0 0 107.98 0 241.18C0 374.38 107.98 482.36 241.18 482.36Z" fill="url(#paint3_radial_862_12562)" fill-opacity="0.7"/>
</g>
<mask id="mask0_862_12562" style="mask-type:alpha" maskUnits="userSpaceOnUse" x="0" y="0" width="483" height="483">
<path d="M241.18 482.36C374.38 482.36 482.36 374.38 482.36 241.18C482.36 107.98 374.38 0 241.18 0C107.98 0 0 107.98 0 241.18C0 374.38 107.98 482.36 241.18 482.36Z" fill="white"/>
</mask>
<g mask="url(#mask0_862_12562)">
<g filter="url(#filter0_f_862_12562)">
<path d="M-1.3759 234.299C-1.11402 230.872 0.0137008 230.529 0.342619 234.008C0.708055 237.874 -0.00231624 245.646 0.16871 250.335C0.621554 262.748 2.52441 273.541 4.48605 282.32C10.8075 310.612 19.5617 328.843 27.7268 344.288C54.5663 395.06 83.9667 420.77 112.648 440.147C154.689 468.549 197.072 477.584 239.49 479.5C240.56 479.548 240.738 486.518 239.686 487.425C237.788 489.061 235.436 487.437 233.494 487.369C227.915 487.174 222.335 486.791 216.756 486.211C200.213 484.492 183.67 480.991 167.162 475.358C122.275 460.044 73.8765 433.821 31.6092 359.962C28.9502 355.316 26.3124 350.424 23.7118 345.167C21.6321 340.963 19.5726 336.556 17.5493 331.843C10.8946 316.342 -4.61323 276.658 -1.3759 234.299ZM239.52 487.5C238.499 487.531 238.241 481.034 239.214 479.685C240.684 477.647 242.888 479.326 244.439 479.229C250.877 478.826 257.314 478.229 263.75 477.421C281.395 475.205 299.028 471.422 316.621 465.596C360.257 451.145 407.17 429.115 448.305 361.431C450.923 357.123 453.518 352.553 456.079 347.641C463.86 332.712 483.361 293.084 481.107 243.821C480.917 239.668 482.181 237.181 482.747 240.743C483.467 245.279 483.175 254.736 482.977 259.768C482.341 275.883 479.866 289.512 477.257 300.518C468.987 335.399 457.376 355.623 446.744 372.51C412.184 427.397 374.648 449.524 338.155 465.424C305.424 479.686 272.444 486.484 239.52 487.5Z" fill="#401C02"/>
</g>
<g filter="url(#filter1_f_862_12562)">
<path d="M-1.3759 234.299C-1.11402 230.872 0.0137008 230.529 0.342619 234.008C0.708055 237.874 -0.00231624 245.646 0.16871 250.335C0.621554 262.748 2.52441 273.541 4.48605 282.32C10.8075 310.612 19.5617 328.843 27.7268 344.288C54.5663 395.06 83.9667 420.77 112.648 440.147C154.689 468.549 197.072 477.584 239.49 479.5C240.56 479.548 240.738 486.518 239.686 487.425C237.788 489.061 235.436 487.437 233.494 487.369C227.915 487.174 222.335 486.791 216.756 486.211C200.213 484.492 183.67 480.991 167.162 475.358C122.275 460.044 73.8765 433.821 31.6092 359.962C28.9502 355.316 26.3124 350.424 23.7118 345.167C21.6321 340.963 19.5726 336.556 17.5493 331.843C10.8946 316.342 -4.61323 276.658 -1.3759 234.299ZM239.52 487.5C238.499 487.531 238.241 481.034 239.214 479.685C240.684 477.647 242.888 479.326 244.439 479.229C250.877 478.826 257.314 478.229 263.75 477.421C281.395 475.205 299.028 471.422 316.621 465.596C360.257 451.145 407.17 429.115 448.305 361.431C450.923 357.123 453.518 352.553 456.079 347.641C463.86 332.712 483.361 293.084 481.107 243.821C480.917 239.668 482.181 237.181 482.747 240.743C483.467 245.279 483.175 254.736 482.977 259.768C482.341 275.883 479.866 289.512 477.257 300.518C468.987 335.399 457.376 355.623 446.744 372.51C412.184 427.397 374.648 449.524 338.155 465.424C305.424 479.686 272.444 486.484 239.52 487.5Z" fill="#401C02"/>
</g>
</g>
<path d="M110.01 388.46C109.886 388.504 109.752 388.514 109.623 388.49C109.493 388.466 109.372 388.409 109.271 388.325C109.17 388.24 109.093 388.13 109.047 388.007C109.002 387.884 108.989 387.75 109.01 387.62C114.807 356.88 131.159 329.131 155.242 309.166C179.324 289.201 209.623 278.274 240.905 278.274C272.187 278.274 302.486 289.201 326.568 309.166C350.65 329.131 367.003 356.88 372.8 387.62C372.821 387.75 372.808 387.884 372.762 388.007C372.717 388.13 372.639 388.24 372.539 388.325C372.438 388.409 372.317 388.466 372.187 388.49C372.058 388.514 371.924 388.504 371.8 388.46C334.49 373.87 289.43 365.34 240.92 365.34C192.41 365.34 147.32 373.87 110.01 388.46Z" stroke="url(#paint4_linear_862_12562)" stroke-width="12" stroke-miterlimit="10"/>
<path d="M110.01 388.46C109.886 388.504 109.752 388.514 109.623 388.49C109.493 388.466 109.372 388.409 109.271 388.325C109.17 388.24 109.093 388.13 109.047 388.007C109.002 387.884 108.989 387.75 109.01 387.62C114.807 356.88 131.159 329.131 155.242 309.166C179.324 289.201 209.623 278.274 240.905 278.274C272.187 278.274 302.486 289.201 326.568 309.166C350.65 329.131 367.003 356.88 372.8 387.62C372.821 387.75 372.808 387.884 372.762 388.007C372.717 388.13 372.639 388.24 372.539 388.325C372.438 388.409 372.317 388.466 372.187 388.49C372.058 388.514 371.924 388.504 371.8 388.46C334.49 373.87 289.43 365.34 240.92 365.34C192.41 365.34 147.32 373.87 110.01 388.46Z" fill="url(#paint5_radial_862_12562)"/>
<path d="M348.23 331.99C279.984 309.167 206.43 307.522 137.23 327.27C150.142 311.572 166.45 299.012 184.925 290.538C203.399 282.063 223.557 277.896 243.878 278.351C264.198 278.806 284.149 283.87 302.227 293.162C320.304 302.454 336.034 315.73 348.23 331.99Z" fill="url(#paint6_linear_862_12562)"/>
<mask id="mask1_862_12562" style="mask-type:alpha" maskUnits="userSpaceOnUse" x="109" y="278" width="264" height="111">
<path d="M110.01 388.46C109.886 388.504 109.752 388.514 109.623 388.49C109.493 388.466 109.372 388.409 109.271 388.325C109.17 388.24 109.093 388.13 109.047 388.007C109.002 387.884 108.989 387.75 109.01 387.62C114.807 356.88 131.159 329.131 155.242 309.166C179.324 289.201 209.623 278.274 240.905 278.274C272.187 278.274 302.486 289.201 326.568 309.166C350.65 329.131 367.003 356.88 372.8 387.62C372.821 387.75 372.808 387.884 372.762 388.007C372.717 388.13 372.639 388.24 372.539 388.325C372.438 388.409 372.317 388.466 372.187 388.49C372.058 388.514 371.924 388.504 371.8 388.46C334.49 373.87 289.43 365.34 240.92 365.34C192.41 365.34 147.32 373.87 110.01 388.46Z" fill="url(#paint7_linear_862_12562)"/>
</mask>
<g mask="url(#mask1_862_12562)">
<g filter="url(#filter2_f_862_12562)">
<path d="M110.01 388.46C109.886 388.504 109.752 388.514 109.623 388.49C109.493 388.466 109.372 388.409 109.271 388.325C109.17 388.24 109.093 388.13 109.047 388.007C109.002 387.884 108.989 387.75 109.01 387.62C114.807 356.88 131.159 329.131 155.242 309.166C179.324 289.201 209.623 278.274 240.905 278.274C272.187 278.274 302.486 289.201 326.568 309.166C350.65 329.131 367.003 356.88 372.8 387.62C372.821 387.75 372.808 387.884 372.762 388.007C372.717 388.13 372.639 388.24 372.539 388.325C372.438 388.409 372.317 388.466 372.187 388.49C372.058 388.514 371.924 388.504 371.8 388.46C334.49 373.87 289.43 365.34 240.92 365.34C192.41 365.34 147.32 373.87 110.01 388.46Z" stroke="url(#paint8_linear_862_12562)" stroke-width="9" stroke-miterlimit="10"/>
</g>
</g>
<path d="M110.01 388.46C109.886 388.504 109.752 388.514 109.623 388.49C109.493 388.466 109.372 388.409 109.271 388.325C109.17 388.24 109.093 388.13 109.047 388.007C109.002 387.884 108.989 387.75 109.01 387.62C114.807 356.88 131.159 329.131 155.242 309.166C179.324 289.201 209.623 278.274 240.905 278.274C272.187 278.274 302.486 289.201 326.568 309.166C350.65 329.131 367.003 356.88 372.8 387.62C372.821 387.75 372.808 387.884 372.762 388.007C372.717 388.13 372.639 388.24 372.539 388.325C372.438 388.409 372.317 388.466 372.187 388.49C372.058 388.514 371.924 388.504 371.8 388.46C334.49 373.87 289.43 365.34 240.92 365.34C192.41 365.34 147.32 373.87 110.01 388.46Z" stroke="url(#paint9_linear_862_12562)" stroke-width="9" stroke-miterlimit="10"/>
<path d="M196.478 74.4596C191.428 82.7796 159.228 131.91 110.748 119.38C109.226 119.018 107.874 118.148 106.914 116.913C105.953 115.679 105.443 114.153 105.468 112.59C105.558 110.66 106.468 108.69 109.348 107.51C121.708 102.39 149.278 108.35 180.548 77.5096C183.241 74.7982 185.794 71.9511 188.198 68.9796C189.948 66.8596 192.928 64.0596 195.668 65.3096C198.008 66.3696 198.218 68.7096 197.938 70.5696C197.717 71.9512 197.221 73.2742 196.478 74.4596Z" fill="#42210B"/>
<path d="M103.638 144.559C106.478 146.339 109.338 148.059 112.198 149.769C116.598 152.419 121.028 154.989 125.418 157.569L138.618 165.209L151.618 172.829C160.228 177.919 168.758 183.059 176.558 188.469C180.264 190.99 183.793 193.764 187.118 196.769C188.108 197.683 189.043 198.654 189.918 199.679C190.241 199.958 190.506 200.298 190.698 200.679C190.873 201.062 190.963 201.479 190.963 201.899C190.963 202.32 190.873 202.736 190.698 203.119C190.495 203.573 190.187 203.971 189.798 204.279C188.951 205.266 188.05 206.204 187.098 207.089C183.806 210.105 180.311 212.892 176.638 215.429C168.828 220.839 160.298 225.969 151.698 231.069L138.638 238.679L125.458 246.329C121.058 248.909 116.628 251.479 112.238 254.139C109.358 255.849 106.498 257.579 103.638 259.359C103.373 259.483 103.167 259.706 103.067 259.981C102.967 260.256 102.98 260.559 103.103 260.824C103.226 261.09 103.45 261.295 103.725 261.395C103.999 261.496 104.303 261.483 104.568 261.359C107.968 260.699 111.328 259.949 114.678 259.149C119.828 257.919 124.908 256.529 129.968 255.049C132.498 254.299 134.968 253.499 137.518 252.709C140.068 251.919 142.518 251.049 144.998 250.189C149.998 248.479 154.898 246.609 159.778 244.619C169.661 240.667 179.237 235.988 188.428 230.619C193.266 227.779 197.852 224.53 202.138 220.909C204.554 218.838 206.746 216.518 208.678 213.989C208.938 213.649 209.188 213.249 209.448 212.879C209.708 212.509 209.948 212.139 210.188 211.699L210.908 210.429C211.138 209.979 211.358 209.489 211.568 209.019C212.586 206.826 213.113 204.437 213.113 202.019C213.113 199.602 212.586 197.213 211.568 195.019C211.348 194.539 211.138 194.019 210.898 193.599L210.188 192.339C209.948 191.909 209.698 191.539 209.438 191.159C209.178 190.779 208.928 190.389 208.668 190.049C206.738 187.521 204.546 185.205 202.128 183.139C197.849 179.476 193.258 176.194 188.408 173.329C179.216 167.963 169.64 163.283 159.758 159.329C154.878 157.329 149.968 155.469 144.978 153.759C139.988 152.049 134.978 150.419 129.978 148.899C124.978 147.379 119.828 146.029 114.688 144.799C111.348 143.999 107.998 143.239 104.608 142.579C104.345 142.451 104.042 142.432 103.766 142.526C103.489 142.621 103.261 142.822 103.133 143.084C103.004 143.347 102.985 143.65 103.08 143.927C103.175 144.203 103.375 144.431 103.638 144.559Z" fill="url(#paint10_radial_862_12562)"/>
<path d="M103.638 144.559C106.478 146.339 109.338 148.059 112.198 149.769C116.598 152.419 121.028 154.989 125.418 157.569L138.618 165.209L151.618 172.829C160.228 177.919 168.758 183.059 176.558 188.469C180.264 190.99 183.793 193.764 187.118 196.769C188.108 197.683 189.043 198.654 189.918 199.679C190.241 199.958 190.506 200.298 190.698 200.679V200.679C190.873 201.062 190.963 201.479 190.963 201.899C190.963 202.32 190.873 202.736 190.698 203.119C190.495 203.573 190.187 203.971 189.798 204.279C188.951 205.266 188.05 206.204 187.098 207.089C183.806 210.105 180.311 212.892 176.638 215.429C168.828 220.839 160.298 225.969 151.698 231.069L138.638 238.679L125.458 246.329C121.058 248.909 116.628 251.479 112.238 254.139C109.358 255.849 106.498 257.579 103.638 259.359C103.373 259.483 103.167 259.706 103.067 259.981C102.967 260.256 102.98 260.559 103.103 260.824C103.226 261.09 103.45 261.295 103.725 261.395C103.999 261.496 104.303 261.483 104.568 261.359C107.968 260.699 111.328 259.949 114.678 259.149C119.828 257.919 124.908 256.529 129.968 255.049C132.498 254.299 134.968 253.499 137.518 252.709C140.068 251.919 142.518 251.049 144.998 250.189C149.998 248.479 154.898 246.609 159.778 244.619C169.661 240.667 179.237 235.988 188.428 230.619C193.266 227.779 197.852 224.53 202.138 220.909C204.554 218.838 206.746 216.518 208.678 213.989C208.938 213.649 209.188 213.249 209.448 212.879C209.708 212.509 209.948 212.139 210.188 211.699L210.908 210.429C211.138 209.979 211.358 209.489 211.568 209.019C212.586 206.826 213.113 204.437 213.113 202.019C213.113 199.602 212.586 197.213 211.568 195.019C211.348 194.539 211.138 194.019 210.898 193.599L210.188 192.339C209.948 191.909 209.698 191.539 209.438 191.159C209.178 190.779 208.928 190.389 208.668 190.049C206.738 187.521 204.546 185.205 202.128 183.139C197.849 179.476 193.258 176.194 188.408 173.329C179.216 167.963 169.64 163.283 159.758 159.329C154.878 157.329 149.968 155.469 144.978 153.759C139.988 152.049 134.978 150.419 129.978 148.899C124.978 147.379 119.828 146.029 114.688 144.799C111.348 143.999 107.998 143.239 104.608 142.579C104.345 142.451 104.042 142.432 103.766 142.526C103.489 142.621 103.261 142.822 103.133 143.084C103.004 143.347 102.985 143.65 103.08 143.927C103.175 144.203 103.375 144.431 103.638 144.559V144.559Z" stroke="url(#paint11_linear_862_12562)" stroke-width="2" stroke-miterlimit="10"/>
<path d="M285.158 74.4596C290.218 82.7796 322.418 131.91 370.888 119.38C372.411 119.02 373.766 118.151 374.728 116.916C375.69 115.681 376.201 114.155 376.178 112.59C376.088 110.66 375.178 108.69 372.288 107.51C359.938 102.39 332.368 108.35 301.088 77.5096C298.4 74.7955 295.85 71.9486 293.448 68.9796C291.698 66.8596 288.718 64.0596 285.978 65.3096C283.638 66.3696 283.428 68.7096 283.708 70.5696C283.929 71.9495 284.422 73.2717 285.158 74.4596Z" fill="#42210B"/>
<path d="M377.968 144.56C375.118 146.34 372.258 148.06 369.408 149.77C365.008 152.42 360.578 154.99 356.178 157.57L342.988 165.21L329.988 172.83C321.368 177.92 312.848 183.06 305.048 188.47C301.34 190.993 297.809 193.766 294.478 196.77C293.493 197.685 292.562 198.657 291.688 199.68C291.362 199.955 291.096 200.296 290.908 200.68C290.725 201.064 290.629 201.484 290.628 201.91C290.631 202.326 290.72 202.738 290.888 203.12C291.098 203.571 291.409 203.968 291.798 204.28C292.642 205.269 293.543 206.207 294.498 207.09C297.827 210.092 301.359 212.862 305.068 215.38C312.868 220.79 321.398 225.92 330.008 231.02L343.058 238.63L356.188 246.33C360.588 248.91 365.008 251.48 369.408 254.14C372.288 255.85 375.148 257.58 377.998 259.36C378.263 259.482 378.469 259.704 378.571 259.978C378.672 260.252 378.66 260.554 378.538 260.82C378.416 261.085 378.194 261.291 377.92 261.392C377.646 261.493 377.343 261.482 377.078 261.36C373.678 260.7 370.308 259.95 366.968 259.15C361.818 257.92 356.738 256.53 351.678 255.05C349.138 254.3 346.678 253.5 344.128 252.71C341.578 251.92 339.128 251.05 336.648 250.19C331.648 248.48 326.748 246.61 321.868 244.62C311.985 240.667 302.409 235.988 293.218 230.62C288.376 227.781 283.785 224.533 279.498 220.91C277.088 218.835 274.9 216.516 272.968 213.99C272.708 213.65 272.458 213.25 272.198 212.88C271.931 212.499 271.684 212.106 271.458 211.7L270.738 210.43C270.508 209.98 270.288 209.49 270.078 209.02C269.06 206.826 268.533 204.437 268.533 202.02C268.533 199.602 269.06 197.213 270.078 195.02C270.298 194.54 270.508 194.02 270.738 193.6L271.458 192.34C271.698 191.91 271.948 191.54 272.198 191.16C272.448 190.78 272.708 190.39 272.968 190.05C274.904 187.523 277.099 185.207 279.518 183.14C283.796 179.479 288.383 176.196 293.228 173.33C302.421 167.965 311.997 163.286 321.878 159.33C326.768 157.33 331.678 155.47 336.658 153.76C341.638 152.05 346.658 150.42 351.658 148.9C356.658 147.38 361.808 146.03 366.948 144.8C370.288 144 373.638 143.24 377.028 142.58C377.291 142.455 377.592 142.44 377.866 142.537C378.14 142.635 378.364 142.837 378.488 143.1C378.613 143.362 378.628 143.663 378.531 143.937C378.433 144.211 378.231 144.435 377.968 144.56Z" fill="url(#paint12_radial_862_12562)"/>
<path d="M377.968 144.56C375.118 146.34 372.258 148.06 369.408 149.77C365.008 152.42 360.578 154.99 356.178 157.57L342.988 165.21L329.988 172.83C321.368 177.92 312.848 183.06 305.048 188.47C301.34 190.993 297.809 193.766 294.478 196.77C293.493 197.685 292.562 198.657 291.688 199.68C291.362 199.955 291.096 200.296 290.908 200.68C290.725 201.064 290.629 201.484 290.628 201.91C290.631 202.326 290.72 202.738 290.888 203.12C291.098 203.571 291.409 203.968 291.798 204.28C292.642 205.269 293.543 206.207 294.498 207.09C297.827 210.092 301.359 212.862 305.068 215.38C312.868 220.79 321.398 225.92 330.008 231.02L343.058 238.63L356.188 246.33C360.588 248.91 365.008 251.48 369.408 254.14C372.288 255.85 375.148 257.58 377.998 259.36C378.263 259.482 378.469 259.704 378.571 259.978C378.672 260.252 378.66 260.554 378.538 260.82C378.416 261.085 378.194 261.291 377.92 261.392C377.646 261.493 377.343 261.482 377.078 261.36C373.678 260.7 370.308 259.95 366.968 259.15C361.818 257.92 356.738 256.53 351.678 255.05C349.138 254.3 346.678 253.5 344.128 252.71C341.578 251.92 339.128 251.05 336.648 250.19C331.648 248.48 326.748 246.61 321.868 244.62C311.985 240.667 302.409 235.988 293.218 230.62C288.376 227.781 283.785 224.533 279.498 220.91C277.088 218.835 274.9 216.516 272.968 213.99C272.708 213.65 272.458 213.25 272.198 212.88C271.931 212.499 271.684 212.106 271.458 211.7L270.738 210.43C270.508 209.98 270.288 209.49 270.078 209.02C269.06 206.826 268.533 204.437 268.533 202.02C268.533 199.602 269.06 197.213 270.078 195.02C270.298 194.54 270.508 194.02 270.738 193.6L271.458 192.34C271.698 191.91 271.948 191.54 272.198 191.16C272.448 190.78 272.708 190.39 272.968 190.05C274.904 187.523 277.099 185.207 279.518 183.14C283.796 179.479 288.383 176.196 293.228 173.33C302.421 167.965 311.997 163.286 321.878 159.33C326.768 157.33 331.678 155.47 336.658 153.76C341.638 152.05 346.658 150.42 351.658 148.9C356.658 147.38 361.808 146.03 366.948 144.8C370.288 144 373.638 143.24 377.028 142.58C377.291 142.455 377.592 142.44 377.866 142.537C378.14 142.635 378.364 142.837 378.488 143.1C378.613 143.362 378.628 143.663 378.531 143.937C378.433 144.211 378.231 144.435 377.968 144.56Z" stroke="url(#paint13_linear_862_12562)" stroke-width="2" stroke-miterlimit="10"/>
<defs>
<filter id="filter0_f_862_12562" x="-26.8149" y="206.558" width="535.022" height="306.595" filterUnits="userSpaceOnUse" color-interpolation-filters="sRGB">
<feFlood flood-opacity="0" result="BackgroundImageFix"/>
<feBlend mode="normal" in="SourceGraphic" in2="BackgroundImageFix" result="shape"/>
<feGaussianBlur stdDeviation="12.5" result="effect1_foregroundBlur_862_12562"/>
</filter>
<filter id="filter1_f_862_12562" x="-41.8149" y="191.558" width="565.022" height="336.595" filterUnits="userSpaceOnUse" color-interpolation-filters="sRGB">
<feFlood flood-opacity="0" result="BackgroundImageFix"/>
<feBlend mode="normal" in="SourceGraphic" in2="BackgroundImageFix" result="shape"/>
<feGaussianBlur stdDeviation="20" result="effect1_foregroundBlur_862_12562"/>
</filter>
<filter id="filter2_f_862_12562" x="94.5" y="263.774" width="292.81" height="139.228" filterUnits="userSpaceOnUse" color-interpolation-filters="sRGB">
<feFlood flood-opacity="0" result="BackgroundImageFix"/>
<feBlend mode="normal" in="SourceGraphic" in2="BackgroundImageFix" result="shape"/>
<feGaussianBlur stdDeviation="5" result="effect1_foregroundBlur_862_12562"/>
</filter>
<radialGradient id="paint0_radial_862_12562" cx="0" cy="0" r="1" gradientUnits="userSpaceOnUse" gradientTransform="translate(241 -4.53898e-06) rotate(90) scale(482)">
<stop stop-color="#FFDE43"/>
<stop offset="1" stop-color="#FFBC00"/>
</radialGradient>
<radialGradient id="paint1_radial_862_12562" cx="0" cy="0" r="1" gradientUnits="userSpaceOnUse" gradientTransform="translate(241 64.5) rotate(90) scale(417.5)">
<stop stop-color="white" stop-opacity="0.5"/>
<stop offset="0.782278"/>
</radialGradient>
<radialGradient id="paint2_radial_862_12562" cx="0" cy="0" r="1" gradientUnits="userSpaceOnUse" gradientTransform="translate(241 64.5) rotate(90) scale(417.5)">
<stop stop-color="white" stop-opacity="0.5"/>
<stop offset="0.782278"/>
</radialGradient>
<radialGradient id="paint3_radial_862_12562" cx="0" cy="0" r="1" gradientUnits="userSpaceOnUse" gradientTransform="translate(241 -52.5) rotate(90) scale(534.5 722.835)">
<stop offset="0.0922635" stop-color="white"/>
<stop offset="0.670207" stop-color="white" stop-opacity="0"/>
</radialGradient>
<linearGradient id="paint4_linear_862_12562" x1="240.905" y1="391.604" x2="240.905" y2="274.727" gradientUnits="userSpaceOnUse">
<stop offset="0.265625" stop-color="#FFDE43"/>
<stop offset="1" stop-color="#F79D14"/>
</linearGradient>
<radialGradient id="paint5_radial_862_12562" cx="0" cy="0" r="1" gradientUnits="userSpaceOnUse" gradientTransform="translate(240.905 333.166) scale(99.565 111.337)">
<stop stop-color="#743C1C"/>
<stop offset="1" stop-color="#401C02"/>
</radialGradient>
<linearGradient id="paint6_linear_862_12562" x1="137.15" y1="305.163" x2="348.23" y2="305.163" gradientUnits="userSpaceOnUse">
<stop stop-color="#CCCCCC"/>
<stop offset="0.05" stop-color="#D5D5D5"/>
<stop offset="0.2" stop-color="#E9E9E9"/>
<stop offset="0.35" stop-color="#F6F6F6"/>
<stop offset="0.5" stop-color="#FAFAFA"/>
<stop offset="0.65" stop-color="#F6F6F6"/>
<stop offset="0.8" stop-color="#E9E9E9"/>
<stop offset="0.95" stop-color="#D5D5D5"/>
<stop offset="1" stop-color="#CCCCCC"/>
</linearGradient>
<linearGradient id="paint7_linear_862_12562" x1="240.89" y1="273.73" x2="240.89" y2="393.06" gradientUnits="userSpaceOnUse">
<stop stop-color="#401C02"/>
<stop offset="1" stop-color="#401C02"/>
</linearGradient>
<linearGradient id="paint8_linear_862_12562" x1="240.89" y1="273.73" x2="240.89" y2="393.06" gradientUnits="userSpaceOnUse">
<stop stop-color="#401C02"/>
<stop offset="1" stop-color="#401C02"/>
</linearGradient>
<linearGradient id="paint9_linear_862_12562" x1="240.89" y1="273.73" x2="240.89" y2="393.06" gradientUnits="userSpaceOnUse">
<stop stop-color="#401C02"/>
<stop offset="1" stop-color="#401C02"/>
</linearGradient>
<radialGradient id="paint10_radial_862_12562" cx="0" cy="0" r="1" gradientUnits="userSpaceOnUse" gradientTransform="translate(157.98 201.925) scale(70.1835 59.6008)">
<stop stop-color="#743C1C"/>
<stop offset="1" stop-color="#401C02"/>
</radialGradient>
<linearGradient id="paint11_linear_862_12562" x1="158.056" y1="264.811" x2="158.056" y2="138.638" gradientUnits="userSpaceOnUse">
<stop stop-color="#FFDE43"/>
<stop offset="0.22" stop-color="#FED93F"/>
<stop offset="0.51" stop-color="#FCC934"/>
<stop offset="0.82" stop-color="#F9AF21"/>
<stop offset="1" stop-color="#F79D14"/>
</linearGradient>
<radialGradient id="paint12_radial_862_12562" cx="0" cy="0" r="1" gradientUnits="userSpaceOnUse" gradientTransform="translate(323.51 201.927) scale(70.179 59.5965)">
<stop stop-color="#743C1C"/>
<stop offset="1" stop-color="#401C02"/>
</radialGradient>
<linearGradient id="paint13_linear_862_12562" x1="323.586" y1="264.808" x2="323.586" y2="138.645" gradientUnits="userSpaceOnUse">
<stop stop-color="#FFDE43"/>
<stop offset="0.22" stop-color="#FED93F"/>
<stop offset="0.51" stop-color="#FCC934"/>
<stop offset="0.82" stop-color="#F9AF21"/>
<stop offset="1" stop-color="#F79D14"/>
</linearGradient>
</defs>
</svg>
