<svg width="483" height="483" viewBox="0 0 483 483" fill="none" xmlns="http://www.w3.org/2000/svg">
<path d="M241.18 482.36C374.38 482.36 482.36 374.38 482.36 241.18C482.36 107.98 374.38 0 241.18 0C107.98 0 0 107.98 0 241.18C0 374.38 107.98 482.36 241.18 482.36Z" fill="url(#paint0_radial_862_12485)"/>
<g style="mix-blend-mode:soft-light">
<path d="M241.18 482.36C374.38 482.36 482.36 374.38 482.36 241.18C482.36 107.98 374.38 0 241.18 0C107.98 0 0 107.98 0 241.18C0 374.38 107.98 482.36 241.18 482.36Z" fill="url(#paint1_radial_862_12485)"/>
</g>
<g style="mix-blend-mode:soft-light">
<path d="M241.18 482.36C374.38 482.36 482.36 374.38 482.36 241.18C482.36 107.98 374.38 0 241.18 0C107.98 0 0 107.98 0 241.18C0 374.38 107.98 482.36 241.18 482.36Z" fill="url(#paint2_radial_862_12485)"/>
</g>
<g style="mix-blend-mode:overlay">
<path d="M241.18 482.36C374.38 482.36 482.36 374.38 482.36 241.18C482.36 107.98 374.38 0 241.18 0C107.98 0 0 107.98 0 241.18C0 374.38 107.98 482.36 241.18 482.36Z" fill="url(#paint3_radial_862_12485)" fill-opacity="0.7"/>
</g>
<mask id="mask0_862_12485" style="mask-type:alpha" maskUnits="userSpaceOnUse" x="0" y="0" width="483" height="483">
<path d="M241.18 482.36C374.38 482.36 482.36 374.38 482.36 241.18C482.36 107.98 374.38 0 241.18 0C107.98 0 0 107.98 0 241.18C0 374.38 107.98 482.36 241.18 482.36Z" fill="white"/>
</mask>
<g mask="url(#mask0_862_12485)">
<g filter="url(#filter0_f_862_12485)">
<path d="M-1.3759 234.299C-1.11402 230.872 0.0137008 230.529 0.342619 234.008C0.708055 237.874 -0.00231624 245.646 0.16871 250.335C0.621554 262.748 2.52441 273.541 4.48605 282.32C10.8075 310.612 19.5617 328.843 27.7268 344.288C54.5663 395.06 83.9667 420.77 112.648 440.147C154.689 468.549 197.072 477.584 239.49 479.5C240.56 479.548 240.738 486.518 239.686 487.425C237.788 489.061 235.436 487.437 233.494 487.369C227.915 487.174 222.335 486.791 216.756 486.211C200.213 484.492 183.67 480.991 167.162 475.358C122.275 460.044 73.8765 433.821 31.6092 359.962C28.9502 355.316 26.3124 350.424 23.7118 345.167C21.6321 340.963 19.5726 336.556 17.5493 331.843C10.8946 316.342 -4.61323 276.658 -1.3759 234.299ZM239.52 487.5C238.499 487.531 238.241 481.034 239.214 479.685C240.684 477.647 242.888 479.326 244.439 479.229C250.877 478.826 257.314 478.229 263.75 477.421C281.395 475.205 299.028 471.422 316.621 465.596C360.257 451.145 407.17 429.115 448.305 361.431C450.923 357.123 453.518 352.553 456.079 347.641C463.86 332.712 483.361 293.084 481.107 243.821C480.917 239.668 482.181 237.181 482.747 240.743C483.467 245.279 483.175 254.736 482.977 259.768C482.341 275.883 479.866 289.512 477.257 300.518C468.987 335.399 457.376 355.623 446.744 372.51C412.184 427.397 374.648 449.524 338.155 465.424C305.424 479.686 272.444 486.484 239.52 487.5Z" fill="#401C02"/>
</g>
<g filter="url(#filter1_f_862_12485)">
<path d="M-1.3759 234.299C-1.11402 230.872 0.0137008 230.529 0.342619 234.008C0.708055 237.874 -0.00231624 245.646 0.16871 250.335C0.621554 262.748 2.52441 273.541 4.48605 282.32C10.8075 310.612 19.5617 328.843 27.7268 344.288C54.5663 395.06 83.9667 420.77 112.648 440.147C154.689 468.549 197.072 477.584 239.49 479.5C240.56 479.548 240.738 486.518 239.686 487.425C237.788 489.061 235.436 487.437 233.494 487.369C227.915 487.174 222.335 486.791 216.756 486.211C200.213 484.492 183.67 480.991 167.162 475.358C122.275 460.044 73.8765 433.821 31.6092 359.962C28.9502 355.316 26.3124 350.424 23.7118 345.167C21.6321 340.963 19.5726 336.556 17.5493 331.843C10.8946 316.342 -4.61323 276.658 -1.3759 234.299ZM239.52 487.5C238.499 487.531 238.241 481.034 239.214 479.685C240.684 477.647 242.888 479.326 244.439 479.229C250.877 478.826 257.314 478.229 263.75 477.421C281.395 475.205 299.028 471.422 316.621 465.596C360.257 451.145 407.17 429.115 448.305 361.431C450.923 357.123 453.518 352.553 456.079 347.641C463.86 332.712 483.361 293.084 481.107 243.821C480.917 239.668 482.181 237.181 482.747 240.743C483.467 245.279 483.175 254.736 482.977 259.768C482.341 275.883 479.866 289.512 477.257 300.518C468.987 335.399 457.376 355.623 446.744 372.51C412.184 427.397 374.648 449.524 338.155 465.424C305.424 479.686 272.444 486.484 239.52 487.5Z" fill="#401C02"/>
</g>
</g>
<path d="M86 252.42V252.77C86.1 259.72 94.22 263.31 99.65 258.99C111.73 249.37 130.75 243.17 152.13 243.17C173.51 243.17 192.53 244.83 204.61 254.45C210.04 258.78 218.16 259.72 218.26 252.77V252.43C218.26 230.1 188.65 212 152.13 212C115.61 212 86 230.09 86 252.42Z" stroke="url(#paint4_linear_862_12485)" stroke-width="2.5" stroke-miterlimit="10"/>
<path d="M86 252.43V252.78C86.1 259.72 94.22 263.31 99.65 258.99C111.73 249.37 130.75 243.17 152.13 243.17C173.51 243.17 192.53 244.83 204.61 254.45C210.04 258.78 218.16 259.72 218.26 252.78V252.43C218.26 230.1 188.65 212 152.13 212C115.61 212 86 230.1 86 252.43Z" fill="url(#paint5_radial_862_12485)"/>
<path d="M141.577 176.02C138.736 176.59 135.934 177.338 133.187 178.26C126.73 180.181 120.541 182.909 114.767 186.38C96.767 196.6 82.887 212.6 76.767 233.09C73.487 244.17 56.107 239.45 59.417 228.3C66.547 204.3 82.487 184.52 103.997 171.78C113.917 165.91 125.327 160.78 136.747 158.67C141.527 157.78 146.457 159.98 147.817 164.95C149.027 169.33 146.337 175.13 141.537 176.02H141.577Z" fill="#42210B"/>
<path d="M396.25 252.42V252.77C396.15 259.72 388.03 263.31 382.6 258.99C370.52 249.37 351.5 243.17 330.12 243.17C308.74 243.17 289.73 244.83 277.64 254.45C272.21 258.78 264.09 259.72 264 252.77C264 252.66 264 252.54 264 252.43C264 230.1 293.61 212 330.13 212C366.65 212 396.25 230.09 396.25 252.42Z" stroke="url(#paint6_linear_862_12485)" stroke-width="2.5" stroke-miterlimit="10"/>
<path d="M396.25 252.43V252.78C396.15 259.72 388.03 263.31 382.6 258.99C370.52 249.37 351.5 243.17 330.12 243.17C308.74 243.17 289.73 244.83 277.64 254.45C272.21 258.78 264.09 259.72 264 252.78C264 252.66 264 252.54 264 252.43C264 230.1 293.61 212 330.13 212C366.65 212 396.25 230.1 396.25 252.43Z" fill="url(#paint7_radial_862_12485)"/>
<path d="M340.467 176.02C343.308 176.59 346.11 177.338 348.857 178.26C355.317 180.183 361.509 182.911 367.287 186.38C385.287 196.6 399.157 212.6 405.237 233.09C408.517 244.17 425.897 239.45 422.587 228.3C415.457 204.3 399.517 184.52 378.007 171.78C368.087 165.91 356.677 160.78 345.257 158.67C340.477 157.78 335.547 159.98 334.187 164.95C332.977 169.33 335.667 175.13 340.467 176.02Z" fill="#42210B"/>
<path d="M372.05 306.239C366.562 336.857 350.483 364.569 326.627 384.53C302.771 404.49 272.656 415.427 241.55 415.427C210.445 415.427 180.33 404.49 156.474 384.53C132.617 364.569 116.539 336.857 111.05 306.239C148.15 320.949 193.12 329.569 241.58 329.569C290.04 329.569 334.92 320.949 372.05 306.239Z" stroke="url(#paint8_linear_862_12485)" stroke-width="11.23" stroke-miterlimit="10"/>
<path d="M360.78 340.97C349.903 363.34 332.952 382.2 311.865 395.394C290.778 408.588 266.405 415.585 241.53 415.585C216.656 415.585 192.282 408.588 171.195 395.394C150.108 382.2 133.158 363.34 122.28 340.97C157.06 353.11 197.88 360.11 241.53 360.11C285.18 360.11 326 353.11 360.78 340.97Z" fill="url(#paint9_radial_862_12485)"/>
<path d="M372.05 306.239C371.92 306.999 371.78 307.769 371.63 308.519C371.48 309.269 371.36 309.899 371.21 310.579C371.21 310.719 371.18 310.849 371.12 310.969C370.98 311.669 370.83 312.359 370.67 313.049C370.51 313.739 370.37 314.299 370.21 314.919C370.12 315.289 370.03 315.669 369.93 316.039C369.93 316.209 369.84 316.379 369.8 316.539C369.7 316.929 369.6 317.319 369.49 317.699C369.46 317.852 369.419 318.002 369.37 318.149C369.23 318.679 369.08 319.219 368.92 319.749C368.72 320.469 368.5 321.189 368.29 321.899V321.949C368.08 322.619 367.87 323.299 367.65 323.949C367.163 325.449 366.65 326.936 366.11 328.409C365.85 329.129 365.58 329.839 365.31 330.549C365.04 331.259 364.85 331.739 364.61 332.339C364.25 333.239 363.88 334.129 363.5 335.019C363.25 335.599 363 336.179 362.74 336.759C362.74 336.759 362.74 336.759 362.74 336.829C362.49 337.399 362.23 337.949 361.98 338.499C361.85 338.799 361.71 339.079 361.58 339.369L360.83 340.939C326.05 353.079 285.22 360.079 241.58 360.079C197.94 360.079 157.11 353.079 122.33 340.939C122.07 340.419 121.83 339.939 121.58 339.369C121.44 339.079 121.31 338.799 121.18 338.499C120.92 337.949 120.67 337.399 120.42 336.829V336.759C120.17 336.179 119.91 335.599 119.67 335.019C119.28 334.129 118.92 333.239 118.56 332.339C118.32 331.739 118.09 331.139 117.85 330.549C117.61 329.959 117.31 329.129 117.05 328.409C116.51 326.939 116.05 325.409 115.52 323.949C115.29 323.269 115.08 322.589 114.87 321.949C114.875 321.933 114.875 321.916 114.87 321.899C114.65 321.189 114.43 320.469 114.23 319.749C114.07 319.219 113.92 318.679 113.78 318.149L113.66 317.699C113.56 317.319 113.45 316.929 113.36 316.539C113.31 316.379 113.27 316.209 113.23 316.039C113.12 315.669 113.03 315.289 112.94 314.919L112.49 313.049C112.33 312.359 112.17 311.669 112.03 310.969C111.997 310.841 111.97 310.711 111.95 310.579C111.8 309.899 111.66 309.209 111.53 308.519C111.4 307.829 111.24 306.999 111.1 306.239C148.2 320.949 193.17 329.569 241.63 329.569C290.09 329.569 334.92 320.949 372.05 306.239Z" fill="url(#paint10_linear_862_12485)"/>
<path d="M372.05 306.239C369.924 318.283 366.131 329.972 360.78 340.969C326 353.109 285.17 360.109 241.53 360.109C197.89 360.109 157.06 353.109 122.28 340.969C116.93 329.971 113.134 318.282 111 306.239C148.1 320.949 193.07 329.569 241.53 329.569C289.99 329.569 334.92 320.949 372.05 306.239Z" stroke="#401C02" stroke-width="4.5" stroke-miterlimit="10"/>
<path d="M372.05 306.239C366.562 336.857 350.483 364.569 326.627 384.53C302.771 404.49 272.656 415.427 241.55 415.427C210.445 415.427 180.33 404.49 156.474 384.53C132.617 364.569 116.539 336.857 111.05 306.239C148.15 320.949 193.12 329.569 241.58 329.569C290.04 329.569 334.92 320.949 372.05 306.239Z" stroke="url(#paint11_linear_862_12485)" stroke-width="9" stroke-miterlimit="10"/>
<mask id="mask1_862_12485" style="mask-type:alpha" maskUnits="userSpaceOnUse" x="111" y="306" width="262" height="110">
<path d="M372.05 306.239C366.562 336.857 350.483 364.569 326.627 384.53C302.771 404.49 272.656 415.427 241.55 415.427C210.445 415.427 180.33 404.49 156.474 384.53C132.617 364.569 116.539 336.857 111.05 306.239C148.15 320.949 193.12 329.569 241.58 329.569C290.04 329.569 334.92 320.949 372.05 306.239Z" fill="url(#paint12_linear_862_12485)"/>
</mask>
<g mask="url(#mask1_862_12485)">
<g filter="url(#filter2_f_862_12485)">
<path d="M372.05 306.239C366.562 336.857 350.483 364.569 326.627 384.53C302.771 404.49 272.656 415.427 241.55 415.427C210.445 415.427 180.33 404.49 156.474 384.53C132.617 364.569 116.539 336.857 111.05 306.239C148.15 320.949 193.12 329.569 241.58 329.569C290.04 329.569 334.92 320.949 372.05 306.239Z" stroke="url(#paint13_linear_862_12485)" stroke-width="12" stroke-miterlimit="10"/>
</g>
</g>
<defs>
<filter id="filter0_f_862_12485" x="-26.8149" y="206.558" width="535.022" height="306.595" filterUnits="userSpaceOnUse" color-interpolation-filters="sRGB">
<feFlood flood-opacity="0" result="BackgroundImageFix"/>
<feBlend mode="normal" in="SourceGraphic" in2="BackgroundImageFix" result="shape"/>
<feGaussianBlur stdDeviation="12.5" result="effect1_foregroundBlur_862_12485"/>
</filter>
<filter id="filter1_f_862_12485" x="-41.8149" y="191.558" width="565.022" height="336.595" filterUnits="userSpaceOnUse" color-interpolation-filters="sRGB">
<feFlood flood-opacity="0" result="BackgroundImageFix"/>
<feBlend mode="normal" in="SourceGraphic" in2="BackgroundImageFix" result="shape"/>
<feGaussianBlur stdDeviation="20" result="effect1_foregroundBlur_862_12485"/>
</filter>
<filter id="filter2_f_862_12485" x="88.2427" y="281.689" width="306.615" height="154.738" filterUnits="userSpaceOnUse" color-interpolation-filters="sRGB">
<feFlood flood-opacity="0" result="BackgroundImageFix"/>
<feBlend mode="normal" in="SourceGraphic" in2="BackgroundImageFix" result="shape"/>
<feGaussianBlur stdDeviation="7.5" result="effect1_foregroundBlur_862_12485"/>
</filter>
<radialGradient id="paint0_radial_862_12485" cx="0" cy="0" r="1" gradientUnits="userSpaceOnUse" gradientTransform="translate(241 -4.53898e-06) rotate(90) scale(482)">
<stop stop-color="#FFDE43"/>
<stop offset="1" stop-color="#FFBC00"/>
</radialGradient>
<radialGradient id="paint1_radial_862_12485" cx="0" cy="0" r="1" gradientUnits="userSpaceOnUse" gradientTransform="translate(241 64.5) rotate(90) scale(417.5)">
<stop stop-color="white" stop-opacity="0.5"/>
<stop offset="0.782278"/>
</radialGradient>
<radialGradient id="paint2_radial_862_12485" cx="0" cy="0" r="1" gradientUnits="userSpaceOnUse" gradientTransform="translate(241 64.5) rotate(90) scale(417.5)">
<stop stop-color="white" stop-opacity="0.5"/>
<stop offset="0.782278"/>
</radialGradient>
<radialGradient id="paint3_radial_862_12485" cx="0" cy="0" r="1" gradientUnits="userSpaceOnUse" gradientTransform="translate(241 -52.5) rotate(90) scale(534.5 722.835)">
<stop offset="0.0922635" stop-color="white"/>
<stop offset="0.670207" stop-color="white" stop-opacity="0"/>
</radialGradient>
<linearGradient id="paint4_linear_862_12485" x1="222571" y1="22160.3" x2="220181" y2="15691.1" gradientUnits="userSpaceOnUse">
<stop stop-color="#FFA216"/>
<stop offset="0.7" stop-color="#FFDE43"/>
</linearGradient>
<radialGradient id="paint5_radial_862_12485" cx="0" cy="0" r="1" gradientUnits="userSpaceOnUse" gradientTransform="translate(152.038 236.416) scale(84.2996 24.4751)">
<stop stop-color="#743C1C"/>
<stop offset="1" stop-color="#401C02"/>
</radialGradient>
<linearGradient id="paint6_linear_862_12485" x1="330.125" y1="262.24" x2="330.125" y2="210.428" gradientUnits="userSpaceOnUse">
<stop stop-color="#FFDE43"/>
<stop offset="0.22" stop-color="#FED93F"/>
<stop offset="0.51" stop-color="#FCC934"/>
<stop offset="0.82" stop-color="#F9AF21"/>
<stop offset="1" stop-color="#F79D14"/>
</linearGradient>
<radialGradient id="paint7_radial_862_12485" cx="0" cy="0" r="1" gradientUnits="userSpaceOnUse" gradientTransform="translate(330.033 236.416) scale(84.2933 24.4751)">
<stop stop-color="#743C1C"/>
<stop offset="1" stop-color="#401C02"/>
</radialGradient>
<linearGradient id="paint8_linear_862_12485" x1="241.55" y1="418.499" x2="241.55" y2="302.726" gradientUnits="userSpaceOnUse">
<stop offset="0.265625" stop-color="#FFDE43"/>
<stop offset="1" stop-color="#F79D14"/>
</linearGradient>
<radialGradient id="paint9_radial_862_12485" cx="0" cy="0" r="1" gradientUnits="userSpaceOnUse" gradientTransform="translate(241.53 378.127) scale(90.0127 75.3658)">
<stop stop-color="#743C1C"/>
<stop offset="1" stop-color="#401C02"/>
</radialGradient>
<linearGradient id="paint10_linear_862_12485" x1="111" y1="333.169" x2="372.05" y2="333.169" gradientUnits="userSpaceOnUse">
<stop stop-color="#CCCCCC"/>
<stop offset="0.05" stop-color="#D5D5D5"/>
<stop offset="0.2" stop-color="#E9E9E9"/>
<stop offset="0.35" stop-color="#F6F6F6"/>
<stop offset="0.5" stop-color="#FAFAFA"/>
<stop offset="0.65" stop-color="#F6F6F6"/>
<stop offset="0.8" stop-color="#E9E9E9"/>
<stop offset="0.95" stop-color="#D5D5D5"/>
<stop offset="1" stop-color="#CCCCCC"/>
</linearGradient>
<linearGradient id="paint11_linear_862_12485" x1="553993" y1="101031" x2="553993" y2="87822.7" gradientUnits="userSpaceOnUse">
<stop stop-color="#401C02"/>
<stop offset="1" stop-color="#401C02"/>
</linearGradient>
<linearGradient id="paint12_linear_862_12485" x1="553993" y1="101031" x2="553993" y2="87822.7" gradientUnits="userSpaceOnUse">
<stop stop-color="#401C02"/>
<stop offset="1" stop-color="#401C02"/>
</linearGradient>
<linearGradient id="paint13_linear_862_12485" x1="553993" y1="101031" x2="553993" y2="87822.7" gradientUnits="userSpaceOnUse">
<stop stop-color="#401C02"/>
<stop offset="1" stop-color="#401C02"/>
</linearGradient>
</defs>
</svg>
