<svg width="483" height="483" viewBox="0 0 483 483" fill="none" xmlns="http://www.w3.org/2000/svg">
<path d="M241.18 482.36C374.38 482.36 482.36 374.38 482.36 241.18C482.36 107.98 374.38 0 241.18 0C107.98 0 0 107.98 0 241.18C0 374.38 107.98 482.36 241.18 482.36Z" fill="url(#paint0_radial_862_12525)"/>
<g style="mix-blend-mode:soft-light">
<path d="M241.18 482.36C374.38 482.36 482.36 374.38 482.36 241.18C482.36 107.98 374.38 0 241.18 0C107.98 0 0 107.98 0 241.18C0 374.38 107.98 482.36 241.18 482.36Z" fill="url(#paint1_radial_862_12525)"/>
</g>
<g style="mix-blend-mode:soft-light">
<path d="M241.18 482.36C374.38 482.36 482.36 374.38 482.36 241.18C482.36 107.98 374.38 0 241.18 0C107.98 0 0 107.98 0 241.18C0 374.38 107.98 482.36 241.18 482.36Z" fill="url(#paint2_radial_862_12525)"/>
</g>
<g style="mix-blend-mode:overlay">
<path d="M241.18 482.36C374.38 482.36 482.36 374.38 482.36 241.18C482.36 107.98 374.38 0 241.18 0C107.98 0 0 107.98 0 241.18C0 374.38 107.98 482.36 241.18 482.36Z" fill="url(#paint3_radial_862_12525)" fill-opacity="0.7"/>
</g>
<mask id="mask0_862_12525" style="mask-type:alpha" maskUnits="userSpaceOnUse" x="0" y="0" width="483" height="483">
<path d="M241.18 482.36C374.38 482.36 482.36 374.38 482.36 241.18C482.36 107.98 374.38 0 241.18 0C107.98 0 0 107.98 0 241.18C0 374.38 107.98 482.36 241.18 482.36Z" fill="white"/>
</mask>
<g mask="url(#mask0_862_12525)">
<g filter="url(#filter0_f_862_12525)">
<path d="M-1.3759 234.299C-1.11402 230.872 0.0137008 230.529 0.342619 234.008C0.708055 237.874 -0.00231624 245.646 0.16871 250.335C0.621554 262.748 2.52441 273.541 4.48605 282.32C10.8075 310.612 19.5617 328.843 27.7268 344.288C54.5663 395.06 83.9667 420.77 112.648 440.147C154.689 468.549 197.072 477.584 239.49 479.5C240.56 479.548 240.738 486.518 239.686 487.425C237.788 489.061 235.436 487.437 233.494 487.369C227.915 487.174 222.335 486.791 216.756 486.211C200.213 484.492 183.67 480.991 167.162 475.358C122.275 460.044 73.8765 433.821 31.6092 359.962C28.9502 355.316 26.3124 350.424 23.7118 345.167C21.6321 340.963 19.5726 336.556 17.5493 331.843C10.8946 316.342 -4.61323 276.658 -1.3759 234.299ZM239.52 487.5C238.499 487.531 238.241 481.034 239.214 479.685C240.684 477.647 242.888 479.326 244.439 479.229C250.877 478.826 257.314 478.229 263.75 477.421C281.395 475.205 299.028 471.422 316.621 465.596C360.257 451.145 407.17 429.115 448.305 361.431C450.923 357.123 453.518 352.553 456.079 347.641C463.86 332.712 483.361 293.084 481.107 243.821C480.917 239.668 482.181 237.181 482.747 240.743C483.467 245.279 483.175 254.736 482.977 259.768C482.341 275.883 479.866 289.512 477.257 300.518C468.987 335.399 457.376 355.623 446.744 372.51C412.184 427.397 374.648 449.524 338.155 465.424C305.424 479.686 272.444 486.484 239.52 487.5Z" fill="#401C02"/>
</g>
<g filter="url(#filter1_f_862_12525)">
<path d="M-1.3759 234.299C-1.11402 230.872 0.0137008 230.529 0.342619 234.008C0.708055 237.874 -0.00231624 245.646 0.16871 250.335C0.621554 262.748 2.52441 273.541 4.48605 282.32C10.8075 310.612 19.5617 328.843 27.7268 344.288C54.5663 395.06 83.9667 420.77 112.648 440.147C154.689 468.549 197.072 477.584 239.49 479.5C240.56 479.548 240.738 486.518 239.686 487.425C237.788 489.061 235.436 487.437 233.494 487.369C227.915 487.174 222.335 486.791 216.756 486.211C200.213 484.492 183.67 480.991 167.162 475.358C122.275 460.044 73.8765 433.821 31.6092 359.962C28.9502 355.316 26.3124 350.424 23.7118 345.167C21.6321 340.963 19.5726 336.556 17.5493 331.843C10.8946 316.342 -4.61323 276.658 -1.3759 234.299ZM239.52 487.5C238.499 487.531 238.241 481.034 239.214 479.685C240.684 477.647 242.888 479.326 244.439 479.229C250.877 478.826 257.314 478.229 263.75 477.421C281.395 475.205 299.028 471.422 316.621 465.596C360.257 451.145 407.17 429.115 448.305 361.431C450.923 357.123 453.518 352.553 456.079 347.641C463.86 332.712 483.361 293.084 481.107 243.821C480.917 239.668 482.181 237.181 482.747 240.743C483.467 245.279 483.175 254.736 482.977 259.768C482.341 275.883 479.866 289.512 477.257 300.518C468.987 335.399 457.376 355.623 446.744 372.51C412.184 427.397 374.648 449.524 338.155 465.424C305.424 479.686 272.444 486.484 239.52 487.5Z" fill="#401C02"/>
</g>
</g>
<path d="M171.286 203.69C109.016 202.54 72.8156 224.45 60.2856 233.69C59.2505 234.452 58.5082 235.545 58.1828 236.788C57.8575 238.032 57.9687 239.349 58.498 240.52C59.0272 241.691 59.9424 242.644 61.0905 243.221C62.2387 243.798 63.5501 243.964 64.8056 243.69C95.8056 237.31 118.246 236.57 134.336 238.23C134.276 239.043 134.246 239.863 134.246 240.69C134.246 248.008 136.416 255.162 140.481 261.246C144.547 267.331 150.325 272.073 157.086 274.874C163.847 277.674 171.287 278.407 178.464 276.979C185.641 275.551 192.234 272.028 197.409 266.853C202.583 261.678 206.107 255.086 207.535 247.908C208.962 240.731 208.23 233.292 205.429 226.531C202.629 219.77 197.886 213.991 191.802 209.926C185.717 205.86 178.563 203.69 171.246 203.69H171.286Z" fill="url(#paint4_radial_862_12525)"/>
<path d="M171.286 203.69C109.016 202.54 72.8156 224.45 60.2856 233.69C59.2505 234.452 58.5082 235.545 58.1828 236.788C57.8575 238.032 57.9687 239.349 58.498 240.52C59.0272 241.691 59.9424 242.644 61.0905 243.221C62.2387 243.798 63.5501 243.964 64.8056 243.69C95.8056 237.31 118.246 236.57 134.336 238.23C134.276 239.043 134.246 239.863 134.246 240.69C134.246 248.008 136.416 255.162 140.481 261.246C144.547 267.331 150.325 272.073 157.086 274.874C163.847 277.674 171.287 278.407 178.464 276.979C185.641 275.551 192.234 272.028 197.409 266.853C202.583 261.678 206.107 255.086 207.535 247.908C208.962 240.731 208.23 233.292 205.429 226.531C202.629 219.77 197.886 213.991 191.802 209.926C185.717 205.86 178.563 203.69 171.246 203.69H171.286Z" stroke="url(#paint5_linear_862_12525)" stroke-width="2" stroke-miterlimit="10"/>
<path d="M387.215 203.69C324.945 202.54 288.745 224.45 276.215 233.69C275.18 234.452 274.438 235.545 274.113 236.788C273.787 238.032 273.898 239.349 274.428 240.52C274.957 241.691 275.872 242.644 277.02 243.221C278.168 243.798 279.48 243.964 280.735 243.69C311.735 237.31 334.175 236.57 350.265 238.23C350.205 239.043 350.175 239.863 350.175 240.69C350.175 248.008 352.345 255.162 356.411 261.246C360.477 267.331 366.255 272.073 373.016 274.874C379.777 277.674 387.216 278.407 394.394 276.979C401.571 275.551 408.164 272.028 413.338 266.853C418.513 261.678 422.037 255.086 423.464 247.908C424.892 240.731 424.159 233.292 421.359 226.531C418.558 219.77 413.816 213.991 407.731 209.926C401.647 205.86 394.493 203.69 387.175 203.69H387.215Z" fill="url(#paint6_radial_862_12525)"/>
<path d="M387.215 203.69C324.945 202.54 288.745 224.45 276.215 233.69C275.18 234.452 274.438 235.545 274.113 236.788C273.787 238.032 273.898 239.349 274.428 240.52C274.957 241.691 275.872 242.644 277.02 243.221C278.168 243.798 279.48 243.964 280.735 243.69C311.735 237.31 334.175 236.57 350.265 238.23C350.205 239.043 350.175 239.863 350.175 240.69C350.175 248.008 352.345 255.162 356.411 261.246C360.477 267.331 366.255 272.073 373.016 274.874C379.777 277.674 387.216 278.407 394.394 276.979C401.571 275.551 408.164 272.028 413.338 266.853C418.513 261.678 422.037 255.086 423.464 247.908C424.892 240.731 424.159 233.292 421.359 226.531C418.558 219.77 413.816 213.991 407.731 209.926C401.647 205.86 394.493 203.69 387.175 203.69H387.215Z" stroke="url(#paint7_linear_862_12525)" stroke-width="2" stroke-miterlimit="10"/>
<path d="M170.756 401.02C170.369 401.32 169.897 401.49 169.407 401.506C168.918 401.522 168.435 401.384 168.029 401.11C167.623 400.837 167.313 400.442 167.144 399.982C166.974 399.523 166.954 399.022 167.086 398.55C175.376 366.94 205.476 343.55 241.346 343.55C277.216 343.55 307.346 366.99 315.616 398.62C315.751 399.093 315.732 399.597 315.563 400.059C315.393 400.521 315.082 400.918 314.673 401.192C314.265 401.466 313.78 401.604 313.288 401.586C312.796 401.567 312.323 401.394 311.936 401.09C294.096 387.43 269.056 378.94 241.346 378.94C213.636 378.94 188.616 387.4 170.756 401.02Z" fill="url(#paint8_radial_862_12525)"/>
<path d="M170.756 401.02C170.369 401.32 169.897 401.49 169.407 401.506C168.918 401.522 168.435 401.384 168.029 401.11C167.623 400.837 167.313 400.442 167.144 399.982C166.974 399.523 166.954 399.022 167.086 398.55C175.376 366.94 205.476 343.55 241.346 343.55C277.216 343.55 307.346 366.99 315.616 398.62C315.751 399.093 315.732 399.597 315.563 400.059C315.393 400.521 315.082 400.918 314.673 401.192C314.265 401.466 313.78 401.604 313.288 401.586C312.796 401.567 312.323 401.394 311.936 401.09C294.096 387.43 269.056 378.94 241.346 378.94C213.636 378.94 188.616 387.4 170.756 401.02Z" stroke="url(#paint9_linear_862_12525)" stroke-width="2" stroke-miterlimit="10"/>
<defs>
<filter id="filter0_f_862_12525" x="-26.8149" y="206.558" width="535.022" height="306.595" filterUnits="userSpaceOnUse" color-interpolation-filters="sRGB">
<feFlood flood-opacity="0" result="BackgroundImageFix"/>
<feBlend mode="normal" in="SourceGraphic" in2="BackgroundImageFix" result="shape"/>
<feGaussianBlur stdDeviation="12.5" result="effect1_foregroundBlur_862_12525"/>
</filter>
<filter id="filter1_f_862_12525" x="-41.8149" y="191.558" width="565.022" height="336.595" filterUnits="userSpaceOnUse" color-interpolation-filters="sRGB">
<feFlood flood-opacity="0" result="BackgroundImageFix"/>
<feBlend mode="normal" in="SourceGraphic" in2="BackgroundImageFix" result="shape"/>
<feGaussianBlur stdDeviation="20" result="effect1_foregroundBlur_862_12525"/>
</filter>
<radialGradient id="paint0_radial_862_12525" cx="0" cy="0" r="1" gradientUnits="userSpaceOnUse" gradientTransform="translate(241 -4.53898e-06) rotate(90) scale(482)">
<stop stop-color="#FFDE43"/>
<stop offset="1" stop-color="#FFBC00"/>
</radialGradient>
<radialGradient id="paint1_radial_862_12525" cx="0" cy="0" r="1" gradientUnits="userSpaceOnUse" gradientTransform="translate(241 64.5) rotate(90) scale(417.5)">
<stop stop-color="white" stop-opacity="0.5"/>
<stop offset="0.782278"/>
</radialGradient>
<radialGradient id="paint2_radial_862_12525" cx="0" cy="0" r="1" gradientUnits="userSpaceOnUse" gradientTransform="translate(241 64.5) rotate(90) scale(417.5)">
<stop stop-color="white" stop-opacity="0.5"/>
<stop offset="0.782278"/>
</radialGradient>
<radialGradient id="paint3_radial_862_12525" cx="0" cy="0" r="1" gradientUnits="userSpaceOnUse" gradientTransform="translate(241 -52.5) rotate(90) scale(534.5 722.835)">
<stop offset="0.0922635" stop-color="white"/>
<stop offset="0.670207" stop-color="white" stop-opacity="0"/>
</radialGradient>
<radialGradient id="paint4_radial_862_12525" cx="0" cy="0" r="1" gradientUnits="userSpaceOnUse" gradientTransform="translate(133.019 240.644) scale(95.7633 37.086)">
<stop stop-color="#743C1C"/>
<stop offset="1" stop-color="#401C02"/>
</radialGradient>
<linearGradient id="paint5_linear_862_12525" x1="133.123" y1="279.774" x2="133.123" y2="201.264" gradientUnits="userSpaceOnUse">
<stop stop-color="#FFDE43"/>
<stop offset="0.22" stop-color="#FED93F"/>
<stop offset="0.51" stop-color="#FCC934"/>
<stop offset="0.82" stop-color="#F9AF21"/>
<stop offset="1" stop-color="#F79D14"/>
</linearGradient>
<radialGradient id="paint6_radial_862_12525" cx="0" cy="0" r="1" gradientUnits="userSpaceOnUse" gradientTransform="translate(348.949 240.644) scale(95.7633 37.086)">
<stop stop-color="#743C1C"/>
<stop offset="1" stop-color="#401C02"/>
</radialGradient>
<linearGradient id="paint7_linear_862_12525" x1="349.053" y1="279.774" x2="349.053" y2="201.264" gradientUnits="userSpaceOnUse">
<stop stop-color="#FFDE43"/>
<stop offset="0.22" stop-color="#FED93F"/>
<stop offset="0.51" stop-color="#FCC934"/>
<stop offset="0.82" stop-color="#F9AF21"/>
<stop offset="1" stop-color="#F79D14"/>
</linearGradient>
<radialGradient id="paint8_radial_862_12525" cx="0" cy="0" r="1" gradientUnits="userSpaceOnUse" gradientTransform="translate(241.352 372.451) scale(56.123 58.621)">
<stop stop-color="#743C1C"/>
<stop offset="1" stop-color="#401C02"/>
</radialGradient>
<linearGradient id="paint9_linear_862_12525" x1="241.352" y1="403.22" x2="241.352" y2="341.682" gradientUnits="userSpaceOnUse">
<stop stop-color="#FFDE43"/>
<stop offset="0.22" stop-color="#FED93F"/>
<stop offset="0.51" stop-color="#FCC934"/>
<stop offset="0.82" stop-color="#F9AF21"/>
<stop offset="1" stop-color="#F79D14"/>
</linearGradient>
</defs>
</svg>
