<svg width="484" height="530" viewBox="0 0 484 530" fill="none" xmlns="http://www.w3.org/2000/svg">
<path d="M242.18 482.36C375.38 482.36 483.36 374.38 483.36 241.18C483.36 107.98 375.38 0 242.18 0C108.98 0 1 107.98 1 241.18C1 374.38 108.98 482.36 242.18 482.36Z" fill="url(#paint0_radial_868_1194)"/>
<g style="mix-blend-mode:soft-light">
<path d="M242.18 482.36C375.38 482.36 483.36 374.38 483.36 241.18C483.36 107.98 375.38 0 242.18 0C108.98 0 1 107.98 1 241.18C1 374.38 108.98 482.36 242.18 482.36Z" fill="url(#paint1_radial_868_1194)"/>
</g>
<g style="mix-blend-mode:soft-light">
<path d="M242.18 482.36C375.38 482.36 483.36 374.38 483.36 241.18C483.36 107.98 375.38 0 242.18 0C108.98 0 1 107.98 1 241.18C1 374.38 108.98 482.36 242.18 482.36Z" fill="url(#paint2_radial_868_1194)"/>
</g>
<g style="mix-blend-mode:overlay">
<path d="M242.18 482.36C375.38 482.36 483.36 374.38 483.36 241.18C483.36 107.98 375.38 0 242.18 0C108.98 0 1 107.98 1 241.18C1 374.38 108.98 482.36 242.18 482.36Z" fill="url(#paint3_radial_868_1194)" fill-opacity="0.7"/>
</g>
<mask id="mask0_868_1194" style="mask-type:alpha" maskUnits="userSpaceOnUse" x="0" y="0" width="483" height="483">
<path d="M241.18 482.36C374.38 482.36 482.36 374.38 482.36 241.18C482.36 107.98 374.38 0 241.18 0C107.98 0 0 107.98 0 241.18C0 374.38 107.98 482.36 241.18 482.36Z" fill="white"/>
</mask>
<g mask="url(#mask0_868_1194)">
<g filter="url(#filter0_f_868_1194)">
<path d="M-1.3759 234.299C-1.11402 230.872 0.0137008 230.529 0.342619 234.008C0.708055 237.874 -0.00231624 245.646 0.16871 250.335C0.621554 262.748 2.52441 273.541 4.48605 282.32C10.8075 310.612 19.5617 328.843 27.7268 344.288C54.5663 395.06 83.9667 420.77 112.648 440.147C154.689 468.549 197.072 477.584 239.49 479.5C240.56 479.548 240.738 486.518 239.686 487.425C237.788 489.061 235.436 487.437 233.494 487.369C227.915 487.174 222.335 486.791 216.756 486.211C200.213 484.492 183.67 480.991 167.162 475.358C122.275 460.044 73.8765 433.821 31.6092 359.962C28.9502 355.316 26.3124 350.424 23.7118 345.167C21.6321 340.963 19.5726 336.556 17.5493 331.843C10.8946 316.342 -4.61323 276.658 -1.3759 234.299ZM239.52 487.5C238.499 487.531 238.241 481.034 239.214 479.685C240.684 477.647 242.888 479.326 244.439 479.229C250.877 478.826 257.314 478.229 263.75 477.421C281.395 475.205 299.028 471.422 316.621 465.596C360.257 451.145 407.17 429.115 448.305 361.431C450.923 357.123 453.518 352.553 456.079 347.641C463.86 332.712 483.361 293.084 481.107 243.821C480.917 239.668 482.181 237.181 482.747 240.743C483.467 245.279 483.175 254.736 482.977 259.768C482.341 275.883 479.866 289.512 477.257 300.518C468.987 335.399 457.376 355.623 446.744 372.51C412.184 427.397 374.648 449.524 338.155 465.424C305.424 479.686 272.444 486.484 239.52 487.5Z" fill="#401C02"/>
</g>
<g filter="url(#filter1_f_868_1194)">
<path d="M-1.3759 234.299C-1.11402 230.872 0.0137008 230.529 0.342619 234.008C0.708055 237.874 -0.00231624 245.646 0.16871 250.335C0.621554 262.748 2.52441 273.541 4.48605 282.32C10.8075 310.612 19.5617 328.843 27.7268 344.288C54.5663 395.06 83.9667 420.77 112.648 440.147C154.689 468.549 197.072 477.584 239.49 479.5C240.56 479.548 240.738 486.518 239.686 487.425C237.788 489.061 235.436 487.437 233.494 487.369C227.915 487.174 222.335 486.791 216.756 486.211C200.213 484.492 183.67 480.991 167.162 475.358C122.275 460.044 73.8765 433.821 31.6092 359.962C28.9502 355.316 26.3124 350.424 23.7118 345.167C21.6321 340.963 19.5726 336.556 17.5493 331.843C10.8946 316.342 -4.61323 276.658 -1.3759 234.299ZM239.52 487.5C238.499 487.531 238.241 481.034 239.214 479.685C240.684 477.647 242.888 479.326 244.439 479.229C250.877 478.826 257.314 478.229 263.75 477.421C281.395 475.205 299.028 471.422 316.621 465.596C360.257 451.145 407.17 429.115 448.305 361.431C450.923 357.123 453.518 352.553 456.079 347.641C463.86 332.712 483.361 293.084 481.107 243.821C480.917 239.668 482.181 237.181 482.747 240.743C483.467 245.279 483.175 254.736 482.977 259.768C482.341 275.883 479.866 289.512 477.257 300.518C468.987 335.399 457.376 355.623 446.744 372.51C412.184 427.397 374.648 449.524 338.155 465.424C305.424 479.686 272.444 486.484 239.52 487.5Z" fill="#401C02"/>
</g>
</g>
<path d="M326.208 365.2C326.288 367.71 326.208 370.2 326.118 372.64C325.118 390.46 304.678 400.38 290.178 389.97C275.51 379.467 257.923 373.82 239.883 373.82C221.843 373.82 204.255 379.467 189.588 389.97C174.918 400.49 154.518 390.21 153.588 372.18C153.518 370.73 153.478 369.26 153.478 367.79C153.488 345.114 162.415 323.352 178.332 307.201C194.249 291.051 215.879 281.808 238.552 281.468C261.226 281.128 283.123 289.718 299.517 305.384C315.912 321.05 325.488 342.535 326.178 365.2H326.208Z" fill="url(#paint4_radial_868_1194)"/>
<path d="M326.208 365.2C326.288 367.71 326.208 370.2 326.118 372.64C325.118 390.46 304.678 400.38 290.178 389.97C275.51 379.467 257.923 373.82 239.883 373.82C221.843 373.82 204.255 379.467 189.588 389.97C174.918 400.49 154.518 390.21 153.588 372.18C153.518 370.73 153.478 369.26 153.478 367.79C153.488 345.114 162.415 323.352 178.332 307.201C194.249 291.051 215.879 281.808 238.552 281.468C261.226 281.128 283.123 289.718 299.517 305.384C315.912 321.05 325.488 342.535 326.178 365.2H326.208Z" stroke="url(#paint5_linear_868_1194)" stroke-width="2.5" stroke-miterlimit="10"/>
<path d="M145.908 226L145.268 226.07C145.478 226.028 145.693 226.004 145.908 226Z" stroke="url(#paint6_radial_868_1194)" stroke-width="0.97" stroke-miterlimit="10"/>
<path d="M180.077 228.28C180.077 228.37 180.077 228.46 180.077 228.55C180.149 229.788 179.872 231.022 179.278 232.11C178.683 233.199 177.796 234.099 176.716 234.708C175.636 235.317 174.406 235.611 173.167 235.557C171.928 235.503 170.73 235.102 169.707 234.4C159.497 227.62 144.047 224.02 127.137 225.48C110.227 226.94 95.317 229.56 86.417 237.99C82.417 241.78 76.067 243.08 75.517 237.6V237.32C73.987 219.67 96.167 203.32 125.037 200.84C153.907 198.36 178.497 210.62 180.077 228.28Z" stroke="url(#paint7_linear_868_1194)" stroke-width="2" stroke-miterlimit="10"/>
<path d="M180.077 228.28C180.077 228.37 180.077 228.46 180.077 228.55C180.149 229.788 179.872 231.022 179.278 232.11C178.683 233.199 177.796 234.099 176.716 234.708C175.636 235.317 174.406 235.611 173.167 235.557C171.928 235.503 170.73 235.102 169.707 234.4C159.497 227.62 144.047 224.02 127.137 225.48C110.227 226.94 95.317 229.56 86.417 237.99C82.417 241.78 76.067 243.08 75.517 237.6V237.32C73.987 219.67 96.167 203.32 125.037 200.84C153.907 198.36 178.497 210.62 180.077 228.28Z" fill="url(#paint8_radial_868_1194)"/>
<path d="M145.677 112.46C144.291 115.004 142.748 117.459 141.057 119.81C137.306 125.406 132.868 130.509 127.847 135C112.767 149.16 93.3774 161.09 72.0074 160.83C66.2274 160.76 63.1774 161.83 63.0074 166.33C62.8374 170.83 65.6074 171.96 71.4174 172.03C96.4874 172.33 120.067 166.34 138.597 149.56C147.137 141.83 155.417 132.45 160.817 122.16C163.077 117.86 162.427 112.5 158.087 109.72C154.267 107.28 147.927 108.13 145.657 112.45L145.677 112.46Z" fill="#42210B"/>
<path d="M301.777 228.28C301.772 228.37 301.772 228.46 301.777 228.55C301.711 229.778 301.989 231.001 302.579 232.08C303.169 233.159 304.049 234.053 305.118 234.66C306.188 235.267 307.405 235.565 308.635 235.519C309.864 235.473 311.056 235.086 312.077 234.4C322.287 227.62 337.747 224.02 354.657 225.48C371.567 226.94 386.477 229.56 395.377 237.99C399.377 241.78 405.727 243.08 406.277 237.6V237.32C407.797 219.67 385.627 203.32 356.757 200.84C327.887 198.36 303.307 210.62 301.777 228.28Z" stroke="url(#paint9_linear_868_1194)" stroke-width="2" stroke-miterlimit="10"/>
<path d="M301.777 228.28C301.772 228.37 301.772 228.46 301.777 228.55C301.711 229.778 301.989 231.001 302.579 232.08C303.169 233.159 304.049 234.053 305.118 234.66C306.188 235.267 307.405 235.565 308.635 235.519C309.864 235.473 311.056 235.086 312.077 234.4C322.287 227.62 337.747 224.02 354.657 225.48C371.567 226.94 386.477 229.56 395.377 237.99C399.377 241.78 405.727 243.08 406.277 237.6V237.32C407.797 219.67 385.627 203.32 356.757 200.84C327.887 198.36 303.307 210.62 301.777 228.28Z" fill="url(#paint10_radial_868_1194)"/>
<path d="M336.127 112.46C337.51 115.006 339.053 117.461 340.747 119.81C344.495 125.409 348.929 130.515 353.947 135.01C369.037 149.17 388.427 161.1 409.797 160.84C415.577 160.77 418.627 161.84 418.797 166.34C418.967 170.84 416.197 171.97 410.387 172.04C385.317 172.34 361.738 166.35 343.208 149.57C334.668 141.84 326.377 132.46 320.987 122.17C318.727 117.87 319.368 112.51 323.718 109.73C327.538 107.29 333.878 108.14 336.148 112.46H336.127Z" fill="#42210B"/>
<mask id="mask1_868_1194" style="mask-type:alpha" maskUnits="userSpaceOnUse" x="116" y="226" width="253" height="263">
<rect x="116" y="226" width="253" height="263" fill="black"/>
</mask>
<g mask="url(#mask1_868_1194)">
<g style="mix-blend-mode:multiply" filter="url(#filter2_f_868_1194)">
<path d="M338.305 226C341.229 226.3 343.63 228.1 345.197 230.4C346.867 232.7 347.807 235.3 348.538 238C349.269 240.7 349.582 243.4 349.791 246.1C349.895 247.5 349.895 248.8 350 250.2V252.3V253.3C350 253.7 350 254 349.895 254.5V254.3L348.956 285.5L347.911 316.7L346.763 347.9L345.51 379.1L344.257 410.3L344.048 414.2C343.944 415.5 343.944 416.8 343.839 418.2C343.63 421 343.004 423.7 342.273 426.4C340.602 431.7 337.887 436.7 334.233 441C333.293 442.1 332.353 443.1 331.414 444.1L329.952 445.5C329.534 445.9 329.116 446.3 328.699 446.8C327.133 448.6 325.88 450.6 324.94 452.7C324.522 453.8 324.104 454.9 323.791 456C323.687 456.3 323.687 456.6 323.582 456.8L323.374 457.7C323.269 458.4 323.06 459.2 322.851 459.9C322.016 462.8 320.45 465.5 318.57 467.8C310.217 476.8 297.374 479.5 285.992 477.9H286.41H286.306H285.992L285.679 477.8C271.061 475.1 256.025 474 241.093 474C226.162 474 211.126 475.1 196.507 477.8L196.194 477.9H195.881H195.776H196.194C190.451 478.6 184.395 478.4 178.757 476.8C175.937 476 173.118 474.8 170.612 473.3C169.359 472.6 168.106 471.7 166.957 470.8C165.704 469.9 164.556 468.8 163.616 467.6C161.632 465.3 160.17 462.5 159.335 459.7C159.126 459 158.917 458.2 158.813 457.5C158.709 456.9 158.604 456.4 158.395 455.8C158.082 454.7 157.664 453.6 157.247 452.5C156.307 450.4 155.054 448.4 153.488 446.6C153.07 446.2 152.652 445.7 152.235 445.3L150.773 443.8C149.833 442.8 148.789 441.7 147.954 440.6C144.403 436.2 141.584 431.2 140.018 425.9C139.183 423.2 138.661 420.5 138.452 417.7C138.347 416.3 138.347 415 138.243 413.7L138.034 409.8L136.781 378.5L135.528 347.2L134.484 315.8L133.44 284.5L132.5 253.4V253.2C132.5 250.6 132.5 248 132.709 245.4C133.022 242.8 133.335 240.2 134.066 237.7C134.797 235.2 135.737 232.7 137.199 230.5C138.661 228.4 140.853 226.5 143.568 226C140.853 226.7 138.765 228.6 137.408 230.8C136.05 233 135.215 235.4 134.693 237.9C134.171 240.4 133.962 242.9 133.753 245.5C133.544 248 133.649 250.6 133.753 253.2V253C133.962 253.9 133.857 254.5 133.962 255.1L134.066 257.1L134.275 261L134.797 268.8L135.841 284.4L137.825 315.7L139.809 347L141.689 378.3L143.464 409.6L143.673 413.5C143.777 414.8 143.777 416.2 143.881 417.3C144.09 419.7 144.612 422.1 145.343 424.5C146.805 429.2 149.207 433.6 152.444 437.4C153.279 438.3 154.114 439.3 154.95 440.2L156.307 441.5C156.829 442 157.351 442.5 157.873 443.1C159.857 445.3 161.528 447.8 162.676 450.4C163.303 451.7 163.721 453.1 164.138 454.5C164.347 455.2 164.451 455.9 164.66 456.6C164.765 457.2 164.869 457.7 165.078 458.2C165.704 460.3 166.853 462.4 168.315 464.1C169.046 465 169.881 465.7 170.716 466.4C171.656 467.1 172.7 467.8 173.745 468.4C175.833 469.6 178.13 470.6 180.532 471.3C185.335 472.6 190.451 472.8 195.463 472.2H195.672H195.881H195.985L195.359 472.3C210.499 469.5 225.848 468.3 241.093 468.2C256.443 468.2 271.792 469.4 286.828 472.3L286.201 472.2H286.306H286.515H286.723C291.735 472.9 296.852 472.7 301.551 471.3C303.952 470.6 306.145 469.7 308.338 468.5C309.382 467.9 310.426 467.2 311.366 466.5C312.201 465.8 313.036 465 313.872 464.2C315.333 462.5 316.482 460.5 317.109 458.4C317.317 457.9 317.422 457.3 317.526 456.8L317.735 455.8C317.839 455.4 317.944 455.1 317.944 454.7C318.362 453.3 318.779 451.9 319.406 450.6C320.554 447.9 322.225 445.5 324.104 443.3C324.627 442.8 325.149 442.2 325.671 441.7L327.133 440.3C328.072 439.4 328.908 438.5 329.639 437.6C332.875 433.8 335.381 429.5 336.843 424.8C337.574 422.5 338.096 420.1 338.305 417.7C338.41 416.5 338.514 415.2 338.514 413.9L338.723 410L340.498 378.9L342.273 347.8L344.152 316.7L348.225 254.4V254.3V254.2C348.329 253.9 348.329 253 348.329 252.4V250.4C348.329 249.1 348.329 247.7 348.329 246.3C348.225 243.6 348.016 240.9 347.389 238.3C346.763 235.7 346.032 233.1 344.466 230.8C343.422 228.3 341.124 226.4 338.305 226Z" stroke="#7A2C00" stroke-opacity="0.8" stroke-width="4"/>
</g>
</g>
<path d="M431.118 478.409C431.216 477.618 431.315 476.827 431.315 476.036C431.315 467.932 424.794 461.409 416.692 461.409C416.099 461.409 415.506 461.409 414.913 461.508L403.748 241.404L403.649 238.834C403.55 236.462 402.859 234.189 401.475 232.212C396.831 225.195 385.963 218.969 372.624 216.3C354.739 212.841 338.634 217.091 334.879 225.887L335.472 225.986C337.646 226.381 344.365 228.951 345.353 245.357C345.451 247.631 345.55 250.2 345.451 253.066C345.451 253.462 345.451 253.857 345.353 254.154C345.353 254.351 345.353 254.549 345.353 254.747L337.744 416.242C337.25 426.422 332.606 435.91 325.295 443.026C321.54 446.683 318.971 451.427 317.983 456.764C317.193 461.409 314.722 465.56 311.066 468.525C305.928 472.577 297.53 476.531 285.278 474.85C285.278 474.85 285.278 474.85 285.179 474.85C272.63 472.38 257.809 470.897 241.901 470.897C225.993 470.897 211.172 472.38 198.624 474.85C198.624 474.85 198.624 474.85 198.525 474.85C186.273 476.531 177.874 472.577 172.736 468.525C169.08 465.659 166.61 461.409 165.819 456.764C164.831 451.427 162.262 446.683 158.508 443.026C151.196 435.91 146.552 426.422 146.058 416.242L138.45 254.747C138.45 254.549 138.45 254.351 138.45 254.154C138.45 253.758 138.45 253.363 138.351 253.066C138.252 250.2 138.252 247.631 138.45 245.357C139.537 228.951 146.157 226.381 148.33 225.986L148.923 225.887C145.366 216.992 129.261 212.742 111.376 216.201C97.9387 218.771 87.1687 225.096 82.5247 232.114C81.2402 234.09 80.4497 236.363 80.3509 238.736L80.1533 241.305L68.9881 461.607C68.3952 461.508 67.8024 461.508 67.2095 461.508C59.1073 461.508 52.586 468.031 52.586 476.135C52.586 476.926 52.6848 477.717 52.7836 478.507C27.3901 481.868 10 488.786 10 496.792C10 508.256 45.5707 517.448 89.4412 517.448C98.1363 517.448 106.535 517.053 114.44 516.361C139.043 524.465 186.964 530 242 530C297.036 530 344.957 524.465 369.56 516.361C377.465 517.053 385.864 517.448 394.559 517.448C438.429 517.448 474 508.158 474 496.792C473.901 488.786 456.511 481.868 431.118 478.409Z" fill="url(#paint11_linear_868_1194)"/>
<mask id="mask2_868_1194" style="mask-type:alpha" maskUnits="userSpaceOnUse" x="67" y="215" width="83" height="286">
<path d="M138.34 254.657C138.34 254.459 138.34 254.261 138.34 254.064C138.34 253.668 138.34 253.273 138.242 252.976C138.143 250.11 138.143 247.539 138.34 245.266C139.427 228.856 146.048 226.286 148.221 225.89L148.814 225.792C145.158 216.994 129.052 212.743 111.168 216.203C97.7298 218.773 86.9595 225.1 82.2167 232.118C80.9321 234.095 80.1417 236.369 80.0429 238.741L79.944 241.312L67 496.848L150 501L138.34 254.657Z" fill="url(#paint12_linear_868_1194)"/>
</mask>
<g mask="url(#mask2_868_1194)">
<path d="M138.34 254.657C138.34 254.459 138.34 254.261 138.34 254.064C138.34 253.668 138.34 253.273 138.242 252.976C138.143 250.11 138.143 247.539 138.34 245.266C139.427 228.856 146.048 226.286 148.221 225.89L148.814 225.792C145.158 216.994 129.052 212.743 111.168 216.203C97.7298 218.773 86.9595 225.1 82.2167 232.118C80.9321 234.095 80.1417 236.369 80.0429 238.741L79.944 241.312L67 496.848L150 501L138.34 254.657Z" fill="url(#paint13_linear_868_1194)"/>
</g>
<mask id="mask3_868_1194" style="mask-type:alpha" maskUnits="userSpaceOnUse" x="334" y="215" width="83" height="286">
<path d="M345.66 254.657C345.66 254.459 345.66 254.261 345.66 254.064C345.66 253.668 345.66 253.273 345.758 252.976C345.857 250.11 345.857 247.539 345.66 245.266C344.573 228.856 337.952 226.286 335.779 225.89L335.186 225.792C338.842 216.994 354.948 212.743 372.832 216.203C386.27 218.773 397.04 225.1 401.783 232.118C403.068 234.095 403.858 236.369 403.957 238.741L404.056 241.312L417 496.848L334 501L345.66 254.657Z" fill="url(#paint14_linear_868_1194)"/>
</mask>
<g mask="url(#mask3_868_1194)">
<path d="M345.66 254.657C345.66 254.459 345.66 254.261 345.66 254.064C345.66 253.668 345.66 253.273 345.758 252.976C345.857 250.11 345.857 247.539 345.66 245.266C344.573 228.856 337.952 226.286 335.779 225.89L335.186 225.792C338.842 216.994 354.948 212.743 372.832 216.203C386.27 218.773 397.04 225.1 401.783 232.118C403.068 234.095 403.858 236.369 403.957 238.741L404.056 241.312L417 496.848L334 501L345.66 254.657Z" fill="url(#paint15_linear_868_1194)"/>
</g>
<mask id="mask4_868_1194" style="mask-type:alpha" maskUnits="userSpaceOnUse" x="10" y="215" width="464" height="315">
<path d="M431.118 478.409C431.216 477.618 431.315 476.827 431.315 476.036C431.315 467.932 424.794 461.409 416.692 461.409C416.099 461.409 415.506 461.409 414.913 461.508L403.748 241.404L403.649 238.834C403.55 236.462 402.859 234.189 401.475 232.212C396.831 225.195 385.963 218.969 372.624 216.3C354.739 212.841 338.634 217.091 334.879 225.887L335.472 225.986C337.646 226.381 344.365 228.951 345.353 245.357C345.451 247.631 345.55 250.2 345.451 253.066C345.451 253.462 345.451 253.857 345.353 254.154C345.353 254.351 345.353 254.549 345.353 254.747L337.744 416.242C337.25 426.422 332.606 435.91 325.295 443.026C321.54 446.683 318.971 451.427 317.983 456.764C317.193 461.409 314.722 465.56 311.066 468.525C305.928 472.577 297.53 476.531 285.278 474.85C285.278 474.85 285.278 474.85 285.179 474.85C272.63 472.38 257.809 470.897 241.901 470.897C225.993 470.897 211.172 472.38 198.624 474.85C198.624 474.85 198.624 474.85 198.525 474.85C186.273 476.531 177.874 472.577 172.736 468.525C169.08 465.659 166.61 461.409 165.819 456.764C164.831 451.427 162.262 446.683 158.508 443.026C151.196 435.91 146.552 426.422 146.058 416.242L138.45 254.747C138.45 254.549 138.45 254.351 138.45 254.154C138.45 253.758 138.45 253.363 138.351 253.066C138.252 250.2 138.252 247.631 138.45 245.357C139.537 228.951 146.157 226.381 148.33 225.986L148.923 225.887C145.366 216.992 129.261 212.742 111.376 216.201C97.9387 218.771 87.1687 225.096 82.5247 232.114C81.2402 234.09 80.4497 236.363 80.3509 238.736L80.1533 241.305L68.9881 461.607C68.3952 461.508 67.8024 461.508 67.2095 461.508C59.1073 461.508 52.586 468.031 52.586 476.135C52.586 476.926 52.6848 477.717 52.7836 478.507C27.3901 481.868 10 488.786 10 496.792C10 508.256 45.5707 517.448 89.4412 517.448C98.1363 517.448 106.535 517.053 114.44 516.361C139.043 524.465 186.964 530 242 530C297.036 530 344.957 524.465 369.56 516.361C377.465 517.053 385.864 517.448 394.559 517.448C438.429 517.448 474 508.158 474 496.792C473.901 488.786 456.511 481.868 431.118 478.409Z" fill="black"/>
</mask>
<g mask="url(#mask4_868_1194)">
<g filter="url(#filter3_f_868_1194)">
<path d="M131.726 251.448L139.701 444.153C136.71 442.376 133.222 441.192 129.533 440.896C126.842 440.698 124.35 440.896 121.957 441.488L118.269 322.923C118.169 321.343 116.973 320.158 115.378 320.158C113.883 320.158 112.587 321.343 112.487 322.923L109.696 448.892C107.902 450.965 106.407 453.334 105.41 455.901L102.519 320.06L101.722 282.249C101.722 281.163 100.824 280.275 99.7279 280.275C98.6313 280.275 97.7342 281.163 97.7342 282.249L97.0364 320.06L94.7437 453.038C92.451 452.545 90.0586 452.347 87.5665 452.545C83.7785 452.841 80.1899 454.124 77 456L86.4699 241.181L86.5696 239.206C86.6693 237.429 87.2674 235.652 88.2642 234.073C91.8529 228.742 100.326 223.904 110.693 221.93C124.549 219.264 137.109 222.522 140 229.235L139.502 229.334C137.807 229.63 132.623 231.605 131.826 244.241C131.726 246.018 131.726 247.894 131.726 250.164C131.726 250.461 131.726 250.757 131.726 251.053C131.726 251.053 131.726 251.25 131.726 251.448Z" fill="url(#paint16_linear_868_1194)"/>
</g>
<g filter="url(#filter4_f_868_1194)">
<path d="M157.604 468.56C156.415 475.505 151.265 481.161 144.63 483.245C139.48 484.833 133.933 486.222 128.09 487.115C124.327 487.71 120.464 488.206 116.502 488.504C112.64 488.802 108.579 489 104.519 489C97.2887 489 90.2569 488.504 83.5222 487.512C77.1836 486.619 72.6278 480.864 73.024 474.513C73.024 474.414 73.024 474.315 73.024 474.216C73.6182 466.575 77.8769 460.026 84.0174 456.157C87.0876 454.172 90.653 452.981 94.5156 452.684C96.9916 452.485 99.3685 452.684 101.646 453.18C105.41 454.073 108.876 455.76 111.748 458.24C111.947 457.546 112.145 456.851 112.442 456.157C113.432 453.577 114.819 451.096 116.7 449.112C119.87 445.54 124.029 442.86 128.783 441.67C131.16 441.074 133.735 440.876 136.31 441.074C139.975 441.372 143.441 442.464 146.412 444.349C152.751 448.119 157.208 454.867 157.901 462.606C158.099 464.491 158 466.575 157.604 468.56Z" fill="url(#paint17_linear_868_1194)"/>
</g>
<g filter="url(#filter5_f_868_1194)">
<path d="M352.174 251.547L344.199 444.252C347.19 442.475 350.679 441.29 354.367 440.994C357.059 440.797 359.551 440.994 361.943 441.587L365.631 323.021C365.731 321.442 366.927 320.257 368.522 320.257C370.017 320.257 371.313 321.442 371.413 323.021L374.204 448.991C375.998 451.064 377.494 453.433 378.49 456L381.381 320.158L382.179 282.348C382.179 281.262 383.076 280.373 384.172 280.373C385.269 280.373 386.166 281.262 386.166 282.348L386.864 320.158L389.256 453.038C391.549 452.545 393.941 452.347 396.434 452.545C400.222 452.841 403.81 454.124 407 456L397.53 241.181L397.43 239.206C397.331 237.429 396.733 235.652 395.736 234.073C392.147 228.742 383.674 223.904 373.307 221.93C359.451 219.264 346.891 222.522 344 229.235L344.498 229.334C346.193 229.63 351.377 231.605 352.174 244.241C352.274 246.018 352.274 247.894 352.274 250.164C352.274 250.461 352.274 250.757 352.274 251.053C352.174 251.152 352.174 251.349 352.174 251.547Z" fill="url(#paint18_linear_868_1194)"/>
</g>
<g filter="url(#filter6_f_868_1194)">
<path d="M326.396 468.56C327.585 475.505 332.735 481.161 339.37 483.245C344.52 484.833 350.067 486.222 355.91 487.115C359.673 487.71 363.536 488.206 367.498 488.504C371.36 488.802 375.421 489 379.481 489C386.711 489 393.743 488.504 400.478 487.512C406.816 486.619 411.372 480.864 410.976 474.513C410.976 474.414 410.976 474.315 410.976 474.216C410.382 466.575 406.123 460.026 399.983 456.157C396.912 454.172 393.347 452.981 389.484 452.684C387.008 452.485 384.631 452.684 382.354 453.18C378.59 454.073 375.124 455.76 372.252 458.24C372.053 457.546 371.855 456.851 371.558 456.157C370.568 453.577 369.181 451.096 367.3 449.112C364.13 445.54 359.971 442.86 355.217 441.67C352.84 441.074 350.265 440.876 347.69 441.074C344.025 441.372 340.559 442.464 337.588 444.349C331.249 448.119 326.792 454.867 326.099 462.606C325.901 464.491 326 466.575 326.396 468.56Z" fill="url(#paint19_linear_868_1194)"/>
</g>
<g filter="url(#filter7_f_868_1194)">
<path d="M241.5 522C287.063 522 324 511.703 324 499C324 486.297 287.063 476 241.5 476C195.937 476 159 486.297 159 499C159 511.703 195.937 522 241.5 522Z" fill="url(#paint20_linear_868_1194)"/>
</g>
<g filter="url(#filter8_f_868_1194)">
<path d="M242 522C267.957 522 289 512.598 289 501C289 489.402 267.957 480 242 480C216.043 480 195 489.402 195 501C195 512.598 216.043 522 242 522Z" fill="url(#paint21_linear_868_1194)"/>
</g>
<g filter="url(#filter9_f_868_1194)">
<path d="M387.726 473C353.036 473 323.684 478.898 313.405 487.057C292.354 485.189 267.647 484.206 241.358 484.206C215.563 484.206 191.349 485.189 170.496 486.958C160.02 478.898 130.766 473 96.274 473C52.9861 473 18 482.142 18 493.446C18 504.75 53.0849 513.892 96.274 513.892C102.5 513.892 108.529 513.696 114.36 513.302C136.893 520.183 185.321 525 241.358 525C297.592 525 346.118 520.183 368.553 513.204C374.68 513.597 381.104 513.794 387.726 513.794C431.014 513.794 466 504.652 466 493.348C466 482.142 430.915 473 387.726 473Z" fill="url(#paint22_linear_868_1194)"/>
</g>
</g>
<mask id="mask5_868_1194" style="mask-type:alpha" maskUnits="userSpaceOnUse" x="9" y="215" width="465" height="315">
<path d="M430.968 478.408C431.067 477.618 431.166 476.827 431.166 476.036C431.166 467.932 424.643 461.409 416.538 461.409C415.945 461.409 415.352 461.409 414.759 461.508L403.591 241.405L403.492 238.835C403.393 236.463 402.702 234.19 401.318 232.213C396.673 225.196 385.801 218.97 372.458 216.301C354.57 212.842 338.46 217.092 334.704 225.888L335.297 225.987C337.471 226.382 344.192 228.952 345.18 245.358C345.279 247.631 345.378 250.201 345.279 253.067C345.279 253.463 345.279 253.858 345.18 254.154C345.18 254.352 345.18 254.55 345.18 254.747L337.57 416.242C337.076 426.422 332.431 435.91 325.117 443.026C321.361 446.683 318.792 451.427 317.803 456.764C317.013 461.409 314.542 465.56 310.885 468.525C305.746 472.577 297.345 476.531 285.089 474.85C285.089 474.85 285.089 474.85 284.991 474.85C272.439 472.38 257.614 470.897 241.701 470.897C225.789 470.897 210.964 472.38 198.412 474.85C198.412 474.85 198.412 474.85 198.313 474.85C186.058 476.531 177.657 472.577 172.518 468.525C168.861 465.659 166.39 461.409 165.599 456.764C164.611 451.427 162.041 446.683 158.286 443.026C150.972 435.91 146.327 426.422 145.832 416.242L138.222 254.747C138.222 254.55 138.222 254.352 138.222 254.154C138.222 253.759 138.222 253.364 138.123 253.067C138.025 250.201 138.025 247.631 138.222 245.358C139.309 228.952 145.931 226.382 148.106 225.987L148.699 225.888C145.141 216.993 129.031 212.743 111.142 216.202C97.7004 218.772 86.9275 225.097 82.2823 232.115C80.9975 234.091 80.2068 236.364 80.108 238.736L79.9103 241.306L68.7421 461.607C68.1491 461.508 67.5561 461.508 66.9631 461.508C58.8587 461.508 52.3357 468.031 52.3357 476.135C52.3357 476.926 52.4345 477.717 52.5333 478.507C27.133 481.868 9.73828 488.786 9.73828 496.792C9.73828 508.256 45.3185 517.448 89.2007 517.448C97.8981 517.448 106.299 517.052 114.206 516.361C138.815 524.465 186.75 530 241.8 530C296.851 530 344.785 524.465 369.395 516.361C377.301 517.052 385.702 517.448 394.4 517.448C438.282 517.448 473.862 508.157 473.862 496.792C473.763 488.786 456.368 481.868 430.968 478.408Z" fill="black"/>
</mask>
<g mask="url(#mask5_868_1194)">
<g opacity="0.6" filter="url(#filter10_f_868_1194)">
<path d="M430.968 478.408C431.067 477.618 431.166 476.827 431.166 476.036C431.166 467.932 424.643 461.409 416.538 461.409C415.945 461.409 415.352 461.409 414.759 461.508L403.591 241.405L403.492 238.835C403.393 236.463 402.702 234.19 401.318 232.213C396.673 225.196 385.801 218.97 372.458 216.301C354.57 212.842 338.46 217.092 334.704 225.888L335.297 225.987C337.471 226.382 344.192 228.952 345.18 245.358C345.279 247.631 345.378 250.201 345.279 253.067C345.279 253.463 345.279 253.858 345.18 254.154C345.18 254.352 345.18 254.55 345.18 254.747L337.57 416.242C337.076 426.422 332.431 435.91 325.117 443.026C321.361 446.683 318.792 451.427 317.803 456.764C317.013 461.409 314.542 465.56 310.885 468.525C305.746 472.577 297.345 476.531 285.089 474.85C285.089 474.85 285.089 474.85 284.99 474.85C272.439 472.38 257.614 470.897 241.701 470.897C225.789 470.897 210.964 472.38 198.412 474.85C198.412 474.85 198.412 474.85 198.313 474.85C186.058 476.531 177.657 472.577 172.518 468.525C168.861 465.659 166.39 461.409 165.599 456.764C164.611 451.427 162.041 446.683 158.286 443.026C150.972 435.91 146.327 426.422 145.832 416.242L138.222 254.747C138.222 254.55 138.222 254.352 138.222 254.154C138.222 253.759 138.222 253.364 138.123 253.067C138.025 250.201 138.025 247.631 138.222 245.358C139.309 228.952 145.931 226.382 148.106 225.987L148.699 225.888C145.141 216.993 129.031 212.743 111.142 216.202C97.7004 218.772 86.9275 225.097 82.2823 232.115C80.9975 234.091 80.2068 236.364 80.108 238.736L79.9103 241.306L68.7421 461.607C68.1491 461.508 67.5561 461.508 66.9631 461.508C58.8587 461.508 52.3357 468.031 52.3357 476.135C52.3357 476.926 52.4345 477.717 52.5333 478.507C27.133 481.868 9.73828 488.786 9.73828 496.792C9.73828 508.256 45.3185 517.448 89.2007 517.448C97.8981 517.448 106.299 517.052 114.206 516.361C138.815 524.465 186.75 530 241.8 530C296.851 530 344.785 524.465 369.395 516.361C377.301 517.052 385.702 517.448 394.4 517.448C438.282 517.448 473.862 508.157 473.862 496.792C473.763 488.786 456.368 481.868 430.968 478.408Z" stroke="black" stroke-width="4" stroke-miterlimit="10"/>
</g>
</g>
<g style="mix-blend-mode:multiply" opacity="0.6">
<mask id="mask6_868_1194" style="mask-type:alpha" maskUnits="userSpaceOnUse" x="10" y="215" width="464" height="315">
<path d="M431.118 478.409C431.216 477.618 431.315 476.827 431.315 476.036C431.315 467.932 424.794 461.409 416.692 461.409C416.099 461.409 415.506 461.409 414.913 461.508L403.748 241.404L403.649 238.834C403.55 236.462 402.859 234.189 401.475 232.212C396.831 225.195 385.963 218.969 372.624 216.3C354.739 212.841 338.634 217.091 334.879 225.887L335.472 225.986C337.646 226.381 344.365 228.951 345.353 245.357C345.451 247.631 345.55 250.2 345.451 253.066C345.451 253.462 345.451 253.857 345.353 254.154C345.353 254.351 345.353 254.549 345.353 254.747L337.744 416.242C337.25 426.422 332.606 435.91 325.295 443.026C321.54 446.683 318.971 451.427 317.983 456.764C317.193 461.409 314.722 465.56 311.066 468.525C305.928 472.577 297.53 476.531 285.278 474.85C285.278 474.85 285.278 474.85 285.179 474.85C272.63 472.38 257.809 470.897 241.901 470.897C225.993 470.897 211.172 472.38 198.624 474.85C198.624 474.85 198.624 474.85 198.525 474.85C186.273 476.531 177.874 472.577 172.736 468.525C169.08 465.659 166.61 461.409 165.819 456.764C164.831 451.427 162.262 446.683 158.508 443.026C151.196 435.91 146.552 426.422 146.058 416.242L138.45 254.747C138.45 254.549 138.45 254.351 138.45 254.154C138.45 253.758 138.45 253.363 138.351 253.066C138.252 250.2 138.252 247.631 138.45 245.357C139.537 228.951 146.157 226.381 148.33 225.986L148.923 225.887C145.366 216.992 129.261 212.742 111.376 216.201C97.9387 218.771 87.1687 225.096 82.5247 232.114C81.2402 234.09 80.4497 236.363 80.3509 238.736L80.1533 241.305L68.9881 461.607C68.3952 461.508 67.8024 461.508 67.2095 461.508C59.1073 461.508 52.586 468.031 52.586 476.135C52.586 476.926 52.6848 477.717 52.7836 478.507C27.3901 481.868 10 488.786 10 496.792C10 508.256 45.5707 517.448 89.4412 517.448C98.1363 517.448 106.535 517.053 114.44 516.361C139.043 524.465 186.964 530 242 530C297.036 530 344.957 524.465 369.56 516.361C377.465 517.053 385.864 517.448 394.559 517.448C438.429 517.448 474 508.158 474 496.792C473.901 488.786 456.511 481.868 431.118 478.409Z" fill="url(#paint23_linear_868_1194)"/>
</mask>
<g mask="url(#mask6_868_1194)">
<g filter="url(#filter11_f_868_1194)">
<path d="M338 416C338 418.78 337.703 421.461 337.11 424.241C336.517 426.922 335.627 429.602 334.441 432.184C333.254 434.765 331.87 437.148 330.189 439.432C329.399 440.524 328.509 441.616 327.52 442.709L326.136 444.198C325.74 444.694 325.246 445.191 324.851 445.687C323.269 447.673 321.984 449.957 321.094 452.34C320.698 453.531 320.303 454.822 320.105 456.013L319.71 458.098C319.512 458.793 319.413 459.588 319.116 460.283C318.227 463.162 316.744 465.843 314.667 468.126C312.591 470.41 310.218 472.098 307.648 473.587C305.077 474.977 302.309 476.169 299.442 476.864C296.575 477.559 293.708 477.857 290.741 477.956C290.049 477.956 289.258 477.956 288.566 477.956C287.874 477.956 287.083 477.857 286.391 477.757L285.304 477.658H285.007C284.908 477.658 284.908 477.658 284.809 477.658H284.711L284.216 477.559L282.239 477.162C279.57 476.665 276.9 476.367 274.231 475.97C263.553 474.58 252.777 473.984 242 473.984C231.223 473.984 220.447 474.58 209.769 475.97C207.1 476.268 204.43 476.665 201.761 477.162L199.784 477.559L199.289 477.658H199.191C199.092 477.658 199.092 477.658 198.993 477.658H198.696L197.609 477.757C196.917 477.857 196.126 477.857 195.434 477.956C194.742 477.956 193.951 478.055 193.258 477.956C190.391 477.956 187.425 477.559 184.558 476.864C181.691 476.169 178.923 475.077 176.352 473.587C173.782 472.098 171.409 470.509 169.333 468.126C167.256 465.843 165.773 463.162 164.884 460.283C164.686 459.588 164.488 458.793 164.29 458.098L163.895 456.013C163.697 454.722 163.302 453.531 162.906 452.34C162.016 449.957 160.731 447.673 159.149 445.687C158.754 445.191 158.358 444.694 157.864 444.198L156.48 442.709C155.59 441.616 154.7 440.524 153.81 439.432C152.13 437.148 150.746 434.765 149.559 432.184C148.373 429.602 147.483 427.021 146.89 424.241C146.297 421.56 146 418.78 146 416C146.297 418.681 146.89 421.362 147.681 423.943C148.472 426.525 149.559 429.007 150.943 431.29C152.229 433.574 153.811 435.858 155.491 437.843C156.381 438.836 157.271 439.829 158.26 440.723L159.743 442.113C160.237 442.609 160.731 443.106 161.226 443.701C163.203 445.886 164.785 448.368 165.872 451.049C166.466 452.439 166.96 453.829 167.256 455.219L167.751 457.205C167.949 457.8 168.047 458.396 168.344 458.992C169.234 461.275 170.519 463.46 172.2 465.148C173.881 466.836 176.056 468.226 178.33 469.417C182.877 471.701 187.92 472.694 192.962 472.594C193.555 472.594 194.247 472.594 194.84 472.495C195.434 472.495 196.126 472.396 196.719 472.296L197.609 472.197H197.806H197.905H198.004L198.498 472.098L200.476 471.701C203.145 471.204 205.913 470.708 208.682 470.311C219.656 468.722 230.63 468.027 241.703 467.928C252.777 468.027 263.751 468.623 274.725 470.311C277.493 470.708 280.163 471.204 282.931 471.701L284.908 472.098L285.403 472.197H285.502C285.502 472.197 285.502 472.197 285.6 472.197H285.798L286.688 472.296C287.281 472.396 287.973 472.396 288.566 472.495C289.16 472.594 289.852 472.594 290.445 472.594C295.487 472.694 300.628 471.701 305.077 469.417C307.252 468.226 309.526 466.836 311.207 465.148C312.888 463.46 314.272 461.275 315.063 458.992C315.261 458.396 315.458 457.8 315.656 457.205L316.15 455.219C316.546 453.829 316.941 452.439 317.534 451.049C318.721 448.368 320.303 445.886 322.181 443.701C322.676 443.205 323.17 442.609 323.664 442.113L325.147 440.723C326.136 439.829 327.026 438.836 327.916 437.843C329.596 435.858 331.178 433.574 332.463 431.29C333.749 428.907 334.836 426.425 335.726 423.943C337.11 421.362 337.703 418.681 338 416Z" fill="#002153"/>
</g>
</g>
</g>
<defs>
<filter id="filter0_f_868_1194" x="-26.8149" y="206.558" width="535.022" height="306.595" filterUnits="userSpaceOnUse" color-interpolation-filters="sRGB">
<feFlood flood-opacity="0" result="BackgroundImageFix"/>
<feBlend mode="normal" in="SourceGraphic" in2="BackgroundImageFix" result="shape"/>
<feGaussianBlur stdDeviation="12.5" result="effect1_foregroundBlur_868_1194"/>
</filter>
<filter id="filter1_f_868_1194" x="-41.8149" y="191.558" width="565.022" height="336.595" filterUnits="userSpaceOnUse" color-interpolation-filters="sRGB">
<feFlood flood-opacity="0" result="BackgroundImageFix"/>
<feBlend mode="normal" in="SourceGraphic" in2="BackgroundImageFix" result="shape"/>
<feGaussianBlur stdDeviation="20" result="effect1_foregroundBlur_868_1194"/>
</filter>
<filter id="filter2_f_868_1194" x="115.5" y="209.01" width="251.5" height="286.323" filterUnits="userSpaceOnUse" color-interpolation-filters="sRGB">
<feFlood flood-opacity="0" result="BackgroundImageFix"/>
<feBlend mode="normal" in="SourceGraphic" in2="BackgroundImageFix" result="shape"/>
<feGaussianBlur stdDeviation="7.5" result="effect1_foregroundBlur_868_1194"/>
</filter>
<filter id="filter3_f_868_1194" x="67" y="211" width="83" height="255" filterUnits="userSpaceOnUse" color-interpolation-filters="sRGB">
<feFlood flood-opacity="0" result="BackgroundImageFix"/>
<feBlend mode="normal" in="SourceGraphic" in2="BackgroundImageFix" result="shape"/>
<feGaussianBlur stdDeviation="5" result="effect1_foregroundBlur_868_1194"/>
</filter>
<filter id="filter4_f_868_1194" x="65" y="433" width="101" height="64" filterUnits="userSpaceOnUse" color-interpolation-filters="sRGB">
<feFlood flood-opacity="0" result="BackgroundImageFix"/>
<feBlend mode="normal" in="SourceGraphic" in2="BackgroundImageFix" result="shape"/>
<feGaussianBlur stdDeviation="4" result="effect1_foregroundBlur_868_1194"/>
</filter>
<filter id="filter5_f_868_1194" x="334" y="211" width="83" height="255" filterUnits="userSpaceOnUse" color-interpolation-filters="sRGB">
<feFlood flood-opacity="0" result="BackgroundImageFix"/>
<feBlend mode="normal" in="SourceGraphic" in2="BackgroundImageFix" result="shape"/>
<feGaussianBlur stdDeviation="5" result="effect1_foregroundBlur_868_1194"/>
</filter>
<filter id="filter6_f_868_1194" x="318" y="433" width="101" height="64" filterUnits="userSpaceOnUse" color-interpolation-filters="sRGB">
<feFlood flood-opacity="0" result="BackgroundImageFix"/>
<feBlend mode="normal" in="SourceGraphic" in2="BackgroundImageFix" result="shape"/>
<feGaussianBlur stdDeviation="4" result="effect1_foregroundBlur_868_1194"/>
</filter>
<filter id="filter7_f_868_1194" x="147" y="464" width="189" height="70" filterUnits="userSpaceOnUse" color-interpolation-filters="sRGB">
<feFlood flood-opacity="0" result="BackgroundImageFix"/>
<feBlend mode="normal" in="SourceGraphic" in2="BackgroundImageFix" result="shape"/>
<feGaussianBlur stdDeviation="6" result="effect1_foregroundBlur_868_1194"/>
</filter>
<filter id="filter8_f_868_1194" x="187" y="472" width="110" height="58" filterUnits="userSpaceOnUse" color-interpolation-filters="sRGB">
<feFlood flood-opacity="0" result="BackgroundImageFix"/>
<feBlend mode="normal" in="SourceGraphic" in2="BackgroundImageFix" result="shape"/>
<feGaussianBlur stdDeviation="4" result="effect1_foregroundBlur_868_1194"/>
</filter>
<filter id="filter9_f_868_1194" x="8" y="463" width="468" height="72" filterUnits="userSpaceOnUse" color-interpolation-filters="sRGB">
<feFlood flood-opacity="0" result="BackgroundImageFix"/>
<feBlend mode="normal" in="SourceGraphic" in2="BackgroundImageFix" result="shape"/>
<feGaussianBlur stdDeviation="5" result="effect1_foregroundBlur_868_1194"/>
</filter>
<filter id="filter10_f_868_1194" x="-2.26172" y="203.001" width="488.124" height="338.999" filterUnits="userSpaceOnUse" color-interpolation-filters="sRGB">
<feFlood flood-opacity="0" result="BackgroundImageFix"/>
<feBlend mode="normal" in="SourceGraphic" in2="BackgroundImageFix" result="shape"/>
<feGaussianBlur stdDeviation="5" result="effect1_foregroundBlur_868_1194"/>
</filter>
<filter id="filter11_f_868_1194" x="136" y="406" width="212" height="82" filterUnits="userSpaceOnUse" color-interpolation-filters="sRGB">
<feFlood flood-opacity="0" result="BackgroundImageFix"/>
<feBlend mode="normal" in="SourceGraphic" in2="BackgroundImageFix" result="shape"/>
<feGaussianBlur stdDeviation="5" result="effect1_foregroundBlur_868_1194"/>
</filter>
<radialGradient id="paint0_radial_868_1194" cx="0" cy="0" r="1" gradientUnits="userSpaceOnUse" gradientTransform="translate(242 -4.53898e-06) rotate(90) scale(482)">
<stop stop-color="#FFDE43"/>
<stop offset="1" stop-color="#FFBC00"/>
</radialGradient>
<radialGradient id="paint1_radial_868_1194" cx="0" cy="0" r="1" gradientUnits="userSpaceOnUse" gradientTransform="translate(242 64.5) rotate(90) scale(417.5)">
<stop stop-color="white" stop-opacity="0.5"/>
<stop offset="0.782278"/>
</radialGradient>
<radialGradient id="paint2_radial_868_1194" cx="0" cy="0" r="1" gradientUnits="userSpaceOnUse" gradientTransform="translate(242 64.5) rotate(90) scale(417.5)">
<stop stop-color="white" stop-opacity="0.5"/>
<stop offset="0.782278"/>
</radialGradient>
<radialGradient id="paint3_radial_868_1194" cx="0" cy="0" r="1" gradientUnits="userSpaceOnUse" gradientTransform="translate(242 -52.5) rotate(90) scale(534.5 722.835)">
<stop offset="0.0922635" stop-color="white"/>
<stop offset="0.670207" stop-color="white" stop-opacity="0"/>
</radialGradient>
<radialGradient id="paint4_radial_868_1194" cx="0" cy="0" r="1" gradientUnits="userSpaceOnUse" gradientTransform="translate(239.859 337.604) scale(65.2028 113.881)">
<stop stop-color="#743C1C"/>
<stop offset="1" stop-color="#401C02"/>
</radialGradient>
<linearGradient id="paint5_linear_868_1194" x1="239.859" y1="397.378" x2="239.859" y2="277.83" gradientUnits="userSpaceOnUse">
<stop offset="0.265625" stop-color="#FFDE43"/>
<stop offset="1" stop-color="#F79D14"/>
</linearGradient>
<radialGradient id="paint6_radial_868_1194" cx="0" cy="0" r="1" gradientUnits="userSpaceOnUse" gradientTransform="translate(145.568 225.99) scale(0.459989 0.460048)">
<stop stop-color="#743C1C"/>
<stop offset="1" stop-color="#401C02"/>
</radialGradient>
<linearGradient id="paint7_linear_868_1194" x1="127.765" y1="242.427" x2="127.765" y2="199.21" gradientUnits="userSpaceOnUse">
<stop stop-color="#FFDE43"/>
<stop offset="0.22" stop-color="#FED93F"/>
<stop offset="0.51" stop-color="#FCC934"/>
<stop offset="0.82" stop-color="#F9AF21"/>
<stop offset="1" stop-color="#F79D14"/>
</linearGradient>
<radialGradient id="paint8_radial_868_1194" cx="0" cy="0" r="1" gradientUnits="userSpaceOnUse" gradientTransform="translate(127.693 220.887) scale(66.6989 20.4145)">
<stop stop-color="#743C1C"/>
<stop offset="1" stop-color="#401C02"/>
</radialGradient>
<linearGradient id="paint9_linear_868_1194" x1="354.059" y1="242.427" x2="354.059" y2="199.21" gradientUnits="userSpaceOnUse">
<stop stop-color="#FFDE43"/>
<stop offset="0.22" stop-color="#FED93F"/>
<stop offset="0.51" stop-color="#FCC934"/>
<stop offset="0.82" stop-color="#F9AF21"/>
<stop offset="1" stop-color="#F79D14"/>
</linearGradient>
<radialGradient id="paint10_radial_868_1194" cx="0" cy="0" r="1" gradientUnits="userSpaceOnUse" gradientTransform="translate(353.987 220.887) scale(66.659 20.4145)">
<stop stop-color="#743C1C"/>
<stop offset="1" stop-color="#401C02"/>
</radialGradient>
<linearGradient id="paint11_linear_868_1194" x1="10" y1="372.538" x2="473.901" y2="372.538" gradientUnits="userSpaceOnUse">
<stop stop-color="#0048FF"/>
<stop offset="0.0374917" stop-color="#0067FF"/>
<stop offset="0.0856915" stop-color="#0087FF"/>
<stop offset="0.1381" stop-color="#00A1FE"/>
<stop offset="0.1953" stop-color="#00B6FE"/>
<stop offset="0.2597" stop-color="#00C4FE"/>
<stop offset="0.3375" stop-color="#00CCFE"/>
<stop offset="0.4646" stop-color="#00CFFE"/>
<stop offset="0.5478" stop-color="#00CAFE"/>
<stop offset="0.642" stop-color="#00BDFE"/>
<stop offset="0.7416" stop-color="#00A6FE"/>
<stop offset="0.845" stop-color="#0086FF"/>
<stop offset="0.9502" stop-color="#005EFF"/>
<stop offset="1" stop-color="#0048FF"/>
</linearGradient>
<linearGradient id="paint12_linear_868_1194" x1="66.9902" y1="258" x2="66.9902" y2="447" gradientUnits="userSpaceOnUse">
<stop offset="0.302083"/>
<stop offset="1" stop-opacity="0"/>
</linearGradient>
<linearGradient id="paint13_linear_868_1194" x1="66.9902" y1="357.994" x2="149.99" y2="357.994" gradientUnits="userSpaceOnUse">
<stop stop-color="#0048FF"/>
<stop offset="0.0374917" stop-color="#0067FF"/>
<stop offset="0.0856915" stop-color="#0087FF"/>
<stop offset="0.1381" stop-color="#00A1FE"/>
<stop offset="0.1953" stop-color="#00B6FE"/>
<stop offset="0.2597" stop-color="#00C4FE"/>
<stop offset="0.3375" stop-color="#00CCFE"/>
<stop offset="0.4646" stop-color="#00CFFE"/>
<stop offset="0.5478" stop-color="#00CAFE"/>
<stop offset="0.642" stop-color="#00BDFE"/>
<stop offset="0.7416" stop-color="#00A6FE"/>
<stop offset="0.845" stop-color="#0086FF"/>
<stop offset="0.9502" stop-color="#005EFF"/>
<stop offset="1" stop-color="#0048FF"/>
</linearGradient>
<linearGradient id="paint14_linear_868_1194" x1="417.01" y1="258" x2="417.01" y2="447" gradientUnits="userSpaceOnUse">
<stop offset="0.302083"/>
<stop offset="1" stop-opacity="0"/>
</linearGradient>
<linearGradient id="paint15_linear_868_1194" x1="417.01" y1="357.994" x2="334.01" y2="357.994" gradientUnits="userSpaceOnUse">
<stop stop-color="#0048FF"/>
<stop offset="0.0374917" stop-color="#0067FF"/>
<stop offset="0.0856915" stop-color="#0087FF"/>
<stop offset="0.1381" stop-color="#00A1FE"/>
<stop offset="0.1953" stop-color="#00B6FE"/>
<stop offset="0.2597" stop-color="#00C4FE"/>
<stop offset="0.3375" stop-color="#00CCFE"/>
<stop offset="0.4646" stop-color="#00CFFE"/>
<stop offset="0.5478" stop-color="#00CAFE"/>
<stop offset="0.642" stop-color="#00BDFE"/>
<stop offset="0.7416" stop-color="#00A6FE"/>
<stop offset="0.845" stop-color="#0086FF"/>
<stop offset="0.9502" stop-color="#005EFF"/>
<stop offset="1" stop-color="#0048FF"/>
</linearGradient>
<linearGradient id="paint16_linear_868_1194" x1="108.45" y1="456.002" x2="108.45" y2="220.994" gradientUnits="userSpaceOnUse">
<stop offset="0.1935" stop-color="#C7EDFE" stop-opacity="0"/>
<stop offset="0.5084" stop-color="#D3F0FE" stop-opacity="0.3904"/>
<stop offset="1" stop-color="#E1F4FD"/>
</linearGradient>
<linearGradient id="paint17_linear_868_1194" x1="115.507" y1="489.042" x2="115.507" y2="440.872" gradientUnits="userSpaceOnUse">
<stop offset="0.1935" stop-color="#C7EDFE" stop-opacity="0"/>
<stop offset="0.5084" stop-color="#D3F0FE" stop-opacity="0.3904"/>
<stop offset="1" stop-color="#E1F4FD"/>
</linearGradient>
<linearGradient id="paint18_linear_868_1194" x1="375.434" y1="456.101" x2="375.434" y2="221.093" gradientUnits="userSpaceOnUse">
<stop offset="0.1935" stop-color="#C7EDFE" stop-opacity="0"/>
<stop offset="0.5084" stop-color="#D3F0FE" stop-opacity="0.3904"/>
<stop offset="1" stop-color="#E1F4FD"/>
</linearGradient>
<linearGradient id="paint19_linear_868_1194" x1="368.477" y1="489.042" x2="368.477" y2="440.872" gradientUnits="userSpaceOnUse">
<stop offset="0.1935" stop-color="#C7EDFE" stop-opacity="0"/>
<stop offset="0.5084" stop-color="#D3F0FE" stop-opacity="0.3904"/>
<stop offset="1" stop-color="#E1F4FD"/>
</linearGradient>
<linearGradient id="paint20_linear_868_1194" x1="241.454" y1="522.013" x2="241.454" y2="475.996" gradientUnits="userSpaceOnUse">
<stop offset="0.2871" stop-color="#C7EDFE" stop-opacity="0"/>
<stop offset="0.573" stop-color="#CDEFFE" stop-opacity="0.4011"/>
<stop offset="0.9694" stop-color="#DFF4FD" stop-opacity="0.957"/>
<stop offset="1" stop-color="#E1F4FD"/>
</linearGradient>
<linearGradient id="paint21_linear_868_1194" x1="241.951" y1="522.013" x2="241.951" y2="479.931" gradientUnits="userSpaceOnUse">
<stop offset="0.2871" stop-color="#C7EDFE" stop-opacity="0"/>
<stop offset="0.573" stop-color="#CDEFFE" stop-opacity="0.4011"/>
<stop offset="0.9694" stop-color="#DFF4FD" stop-opacity="0.957"/>
<stop offset="1" stop-color="#E1F4FD"/>
</linearGradient>
<linearGradient id="paint22_linear_868_1194" x1="241.974" y1="525.093" x2="241.974" y2="472.975" gradientUnits="userSpaceOnUse">
<stop stop-color="#E1F4FD"/>
<stop offset="0.3889" stop-color="#D5F1FD" stop-opacity="0.4545"/>
<stop offset="0.7129" stop-color="#C7EDFE" stop-opacity="0"/>
</linearGradient>
<linearGradient id="paint23_linear_868_1194" x1="10" y1="372.538" x2="473.901" y2="372.538" gradientUnits="userSpaceOnUse">
<stop stop-color="#0048FF"/>
<stop offset="0.0374917" stop-color="#0067FF"/>
<stop offset="0.0856915" stop-color="#0087FF"/>
<stop offset="0.1381" stop-color="#00A1FE"/>
<stop offset="0.1953" stop-color="#00B6FE"/>
<stop offset="0.2597" stop-color="#00C4FE"/>
<stop offset="0.3375" stop-color="#00CCFE"/>
<stop offset="0.4646" stop-color="#00CFFE"/>
<stop offset="0.5478" stop-color="#00CAFE"/>
<stop offset="0.642" stop-color="#00BDFE"/>
<stop offset="0.7416" stop-color="#00A6FE"/>
<stop offset="0.845" stop-color="#0086FF"/>
<stop offset="0.9502" stop-color="#005EFF"/>
<stop offset="1" stop-color="#0048FF"/>
</linearGradient>
</defs>
</svg>
