<svg width="483" height="483" viewBox="0 0 483 483" fill="none" xmlns="http://www.w3.org/2000/svg">
<path d="M241.18 482.36C374.38 482.36 482.36 374.38 482.36 241.18C482.36 107.98 374.38 0 241.18 0C107.98 0 0 107.98 0 241.18C0 374.38 107.98 482.36 241.18 482.36Z" fill="url(#paint0_radial_862_12518)"/>
<g style="mix-blend-mode:soft-light">
<path d="M241.18 482.36C374.38 482.36 482.36 374.38 482.36 241.18C482.36 107.98 374.38 0 241.18 0C107.98 0 0 107.98 0 241.18C0 374.38 107.98 482.36 241.18 482.36Z" fill="url(#paint1_radial_862_12518)"/>
</g>
<g style="mix-blend-mode:soft-light">
<path d="M241.18 482.36C374.38 482.36 482.36 374.38 482.36 241.18C482.36 107.98 374.38 0 241.18 0C107.98 0 0 107.98 0 241.18C0 374.38 107.98 482.36 241.18 482.36Z" fill="url(#paint2_radial_862_12518)"/>
</g>
<g style="mix-blend-mode:overlay">
<path d="M241.18 482.36C374.38 482.36 482.36 374.38 482.36 241.18C482.36 107.98 374.38 0 241.18 0C107.98 0 0 107.98 0 241.18C0 374.38 107.98 482.36 241.18 482.36Z" fill="url(#paint3_radial_862_12518)" fill-opacity="0.7"/>
</g>
<mask id="mask0_862_12518" style="mask-type:alpha" maskUnits="userSpaceOnUse" x="0" y="0" width="483" height="483">
<path d="M241.18 482.36C374.38 482.36 482.36 374.38 482.36 241.18C482.36 107.98 374.38 0 241.18 0C107.98 0 0 107.98 0 241.18C0 374.38 107.98 482.36 241.18 482.36Z" fill="white"/>
</mask>
<g mask="url(#mask0_862_12518)">
<g filter="url(#filter0_f_862_12518)">
<path d="M-1.3759 234.299C-1.11402 230.872 0.0137008 230.529 0.342619 234.008C0.708055 237.874 -0.00231624 245.646 0.16871 250.335C0.621554 262.748 2.52441 273.541 4.48605 282.32C10.8075 310.612 19.5617 328.843 27.7268 344.288C54.5663 395.06 83.9667 420.77 112.648 440.147C154.689 468.549 197.072 477.584 239.49 479.5C240.56 479.548 240.738 486.518 239.686 487.425C237.788 489.061 235.436 487.437 233.494 487.369C227.915 487.174 222.335 486.791 216.756 486.211C200.213 484.492 183.67 480.991 167.162 475.358C122.275 460.044 73.8765 433.821 31.6092 359.962C28.9502 355.316 26.3124 350.424 23.7118 345.167C21.6321 340.963 19.5726 336.556 17.5493 331.843C10.8946 316.342 -4.61323 276.658 -1.3759 234.299ZM239.52 487.5C238.499 487.531 238.241 481.034 239.214 479.685C240.684 477.647 242.888 479.326 244.439 479.229C250.877 478.826 257.314 478.229 263.75 477.421C281.395 475.205 299.028 471.422 316.621 465.596C360.257 451.145 407.17 429.115 448.305 361.431C450.923 357.123 453.518 352.553 456.079 347.641C463.86 332.712 483.361 293.084 481.107 243.821C480.917 239.668 482.181 237.181 482.747 240.743C483.467 245.279 483.175 254.736 482.977 259.768C482.341 275.883 479.866 289.512 477.257 300.518C468.987 335.399 457.376 355.623 446.744 372.51C412.184 427.397 374.648 449.524 338.155 465.424C305.424 479.686 272.444 486.484 239.52 487.5Z" fill="#401C02"/>
</g>
<g filter="url(#filter1_f_862_12518)">
<path d="M-1.3759 234.299C-1.11402 230.872 0.0137008 230.529 0.342619 234.008C0.708055 237.874 -0.00231624 245.646 0.16871 250.335C0.621554 262.748 2.52441 273.541 4.48605 282.32C10.8075 310.612 19.5617 328.843 27.7268 344.288C54.5663 395.06 83.9667 420.77 112.648 440.147C154.689 468.549 197.072 477.584 239.49 479.5C240.56 479.548 240.738 486.518 239.686 487.425C237.788 489.061 235.436 487.437 233.494 487.369C227.915 487.174 222.335 486.791 216.756 486.211C200.213 484.492 183.67 480.991 167.162 475.358C122.275 460.044 73.8765 433.821 31.6092 359.962C28.9502 355.316 26.3124 350.424 23.7118 345.167C21.6321 340.963 19.5726 336.556 17.5493 331.843C10.8946 316.342 -4.61323 276.658 -1.3759 234.299ZM239.52 487.5C238.499 487.531 238.241 481.034 239.214 479.685C240.684 477.647 242.888 479.326 244.439 479.229C250.877 478.826 257.314 478.229 263.75 477.421C281.395 475.205 299.028 471.422 316.621 465.596C360.257 451.145 407.17 429.115 448.305 361.431C450.923 357.123 453.518 352.553 456.079 347.641C463.86 332.712 483.361 293.084 481.107 243.821C480.917 239.668 482.181 237.181 482.747 240.743C483.467 245.279 483.175 254.736 482.977 259.768C482.341 275.883 479.866 289.512 477.257 300.518C468.987 335.399 457.376 355.623 446.744 372.51C412.184 427.397 374.648 449.524 338.155 465.424C305.424 479.686 272.444 486.484 239.52 487.5Z" fill="#401C02"/>
</g>
</g>
<path d="M110.01 388.46C109.886 388.504 109.752 388.514 109.623 388.49C109.493 388.466 109.372 388.409 109.271 388.325C109.17 388.24 109.093 388.13 109.047 388.007C109.002 387.884 108.989 387.75 109.01 387.62C114.807 356.88 131.159 329.131 155.242 309.166C179.324 289.201 209.623 278.274 240.905 278.274C272.187 278.274 302.486 289.201 326.568 309.166C350.65 329.131 367.003 356.88 372.8 387.62C372.821 387.75 372.808 387.884 372.762 388.007C372.717 388.13 372.639 388.24 372.539 388.325C372.438 388.409 372.317 388.466 372.187 388.49C372.058 388.514 371.924 388.504 371.8 388.46C334.49 373.87 289.43 365.34 240.92 365.34C192.41 365.34 147.32 373.87 110.01 388.46Z" stroke="url(#paint4_linear_862_12518)" stroke-width="12" stroke-miterlimit="10"/>
<path d="M110.01 388.46C109.886 388.504 109.752 388.514 109.623 388.49C109.493 388.466 109.372 388.409 109.271 388.325C109.17 388.24 109.093 388.13 109.047 388.007C109.002 387.884 108.989 387.75 109.01 387.62C114.807 356.88 131.159 329.131 155.242 309.166C179.324 289.201 209.623 278.274 240.905 278.274C272.187 278.274 302.486 289.201 326.568 309.166C350.65 329.131 367.003 356.88 372.8 387.62C372.821 387.75 372.808 387.884 372.762 388.007C372.717 388.13 372.639 388.24 372.539 388.325C372.438 388.409 372.317 388.466 372.187 388.49C372.058 388.514 371.924 388.504 371.8 388.46C334.49 373.87 289.43 365.34 240.92 365.34C192.41 365.34 147.32 373.87 110.01 388.46Z" fill="url(#paint5_radial_862_12518)"/>
<path d="M348.23 331.99C279.984 309.167 206.43 307.522 137.23 327.27C150.142 311.572 166.45 299.012 184.925 290.538C203.399 282.063 223.557 277.896 243.878 278.351C264.198 278.806 284.149 283.87 302.227 293.162C320.304 302.454 336.034 315.73 348.23 331.99Z" fill="url(#paint6_linear_862_12518)"/>
<mask id="mask1_862_12518" style="mask-type:alpha" maskUnits="userSpaceOnUse" x="109" y="278" width="264" height="111">
<path d="M110.01 388.46C109.886 388.504 109.752 388.514 109.623 388.49C109.493 388.466 109.372 388.409 109.271 388.325C109.17 388.24 109.093 388.13 109.047 388.007C109.002 387.884 108.989 387.75 109.01 387.62C114.807 356.88 131.159 329.131 155.242 309.166C179.324 289.201 209.623 278.274 240.905 278.274C272.187 278.274 302.486 289.201 326.568 309.166C350.65 329.131 367.003 356.88 372.8 387.62C372.821 387.75 372.808 387.884 372.762 388.007C372.717 388.13 372.639 388.24 372.539 388.325C372.438 388.409 372.317 388.466 372.187 388.49C372.058 388.514 371.924 388.504 371.8 388.46C334.49 373.87 289.43 365.34 240.92 365.34C192.41 365.34 147.32 373.87 110.01 388.46Z" fill="url(#paint7_linear_862_12518)"/>
</mask>
<g mask="url(#mask1_862_12518)">
<g filter="url(#filter2_f_862_12518)">
<path d="M110.01 388.46C109.886 388.504 109.752 388.514 109.623 388.49C109.493 388.466 109.372 388.409 109.271 388.325C109.17 388.24 109.093 388.13 109.047 388.007C109.002 387.884 108.989 387.75 109.01 387.62C114.807 356.88 131.159 329.131 155.242 309.166C179.324 289.201 209.623 278.274 240.905 278.274C272.187 278.274 302.486 289.201 326.568 309.166C350.65 329.131 367.003 356.88 372.8 387.62C372.821 387.75 372.808 387.884 372.762 388.007C372.717 388.13 372.639 388.24 372.539 388.325C372.438 388.409 372.317 388.466 372.187 388.49C372.058 388.514 371.924 388.504 371.8 388.46C334.49 373.87 289.43 365.34 240.92 365.34C192.41 365.34 147.32 373.87 110.01 388.46Z" stroke="url(#paint8_linear_862_12518)" stroke-width="9" stroke-miterlimit="10"/>
</g>
</g>
<path d="M110.01 388.46C109.886 388.504 109.752 388.514 109.623 388.49C109.493 388.466 109.372 388.409 109.271 388.325C109.17 388.24 109.093 388.13 109.047 388.007C109.002 387.884 108.989 387.75 109.01 387.62C114.807 356.88 131.159 329.131 155.242 309.166C179.324 289.201 209.623 278.274 240.905 278.274C272.187 278.274 302.486 289.201 326.568 309.166C350.65 329.131 367.003 356.88 372.8 387.62C372.821 387.75 372.808 387.884 372.762 388.007C372.717 388.13 372.639 388.24 372.539 388.325C372.438 388.409 372.317 388.466 372.187 388.49C372.058 388.514 371.924 388.504 371.8 388.46C334.49 373.87 289.43 365.34 240.92 365.34C192.41 365.34 147.32 373.87 110.01 388.46Z" stroke="url(#paint9_linear_862_12518)" stroke-width="9" stroke-miterlimit="10"/>
<path d="M290.171 83.4699C293.901 92.4699 318.171 145.94 368.031 140.96C369.592 140.836 371.063 140.182 372.202 139.107C373.34 138.032 374.077 136.601 374.291 135.05C374.501 133.13 373.871 131.05 371.231 129.44C359.801 122.5 331.651 124.17 305.441 88.9399C303.199 85.8429 301.113 82.6355 299.191 79.3299C297.781 76.9799 295.271 73.7499 292.371 74.5699C289.901 75.2599 289.371 77.5699 289.321 79.4199C289.337 80.8125 289.626 82.1884 290.171 83.4699Z" fill="#42210B"/>
<path d="M386.972 201.08C387.302 202.134 387.308 203.263 386.989 204.32C386.67 205.378 386.04 206.315 385.182 207.01C365.432 222.99 336.902 226.48 312.432 213.72C287.962 200.96 274.432 175.54 276.192 150.26C276.269 149.155 276.676 148.099 277.361 147.229C278.045 146.358 278.976 145.714 280.032 145.38C281.385 144.966 282.846 145.089 284.11 145.724C285.375 146.359 286.346 147.457 286.822 148.79C292.752 164.73 306.182 179.9 324.952 189.67C343.722 199.44 363.852 201.76 380.312 197.46C381.679 197.082 383.139 197.246 384.387 197.919C385.635 198.592 386.576 199.72 387.012 201.07L386.972 201.08Z" fill="url(#paint10_radial_862_12518)"/>
<path d="M386.972 201.08C387.302 202.134 387.308 203.263 386.989 204.32C386.67 205.378 386.04 206.315 385.182 207.01C365.432 222.99 336.902 226.48 312.432 213.72C287.962 200.96 274.432 175.54 276.192 150.26C276.269 149.155 276.676 148.099 277.361 147.229C278.045 146.358 278.976 145.714 280.032 145.38C281.385 144.966 282.846 145.089 284.11 145.724C285.375 146.359 286.346 147.457 286.822 148.79C292.752 164.73 306.182 179.9 324.952 189.67C343.722 199.44 363.852 201.76 380.312 197.46C381.679 197.082 383.139 197.246 384.387 197.919C385.635 198.592 386.576 199.72 387.012 201.07L386.972 201.08Z" stroke="url(#paint11_linear_862_12518)" stroke-width="2" stroke-miterlimit="10"/>
<path d="M193.061 83.4699C189.331 92.4699 165.061 145.94 115.191 140.96C113.632 140.832 112.162 140.177 111.024 139.103C109.887 138.029 109.148 136.599 108.931 135.05C108.731 133.13 109.351 131.05 112.001 129.44C123.421 122.5 151.581 124.17 177.781 88.9399C180.027 85.8453 182.113 82.6377 184.031 79.3299C185.441 76.9799 187.961 73.7499 190.861 74.5699C193.331 75.2599 193.861 77.5699 193.861 79.4199C193.866 80.8096 193.594 82.1865 193.061 83.4699Z" fill="#42210B"/>
<path d="M96.2518 201.08C95.9211 202.135 95.916 203.265 96.2371 204.323C96.5582 205.38 97.1906 206.317 98.0518 207.01C117.752 222.96 146.322 226.48 170.842 213.72C195.362 200.96 208.842 175.54 207.072 150.26C206.999 149.156 206.594 148.099 205.91 147.228C205.227 146.358 204.297 145.714 203.242 145.38C201.887 144.968 200.426 145.092 199.161 145.727C197.895 146.361 196.922 147.458 196.442 148.79C190.522 164.73 177.092 179.9 158.322 189.67C139.552 199.44 119.412 201.76 102.952 197.46C101.586 197.08 100.127 197.243 98.8791 197.916C97.6316 198.589 96.6935 199.72 96.2618 201.07L96.2518 201.08Z" fill="url(#paint12_radial_862_12518)"/>
<path d="M96.2518 201.08C95.9211 202.135 95.916 203.265 96.2371 204.323C96.5582 205.38 97.1906 206.317 98.0518 207.01C117.752 222.96 146.322 226.48 170.842 213.72C195.362 200.96 208.842 175.54 207.072 150.26C206.999 149.156 206.594 148.099 205.91 147.228C205.227 146.358 204.297 145.714 203.242 145.38V145.38C201.887 144.968 200.426 145.092 199.161 145.727C197.895 146.361 196.922 147.458 196.442 148.79C190.522 164.73 177.092 179.9 158.322 189.67C139.552 199.44 119.412 201.76 102.952 197.46C101.586 197.08 100.127 197.243 98.8791 197.916C97.6316 198.589 96.6935 199.72 96.2618 201.07L96.2518 201.08Z" stroke="url(#paint13_linear_862_12518)" stroke-width="2" stroke-miterlimit="10"/>
<defs>
<filter id="filter0_f_862_12518" x="-26.8149" y="206.558" width="535.022" height="306.595" filterUnits="userSpaceOnUse" color-interpolation-filters="sRGB">
<feFlood flood-opacity="0" result="BackgroundImageFix"/>
<feBlend mode="normal" in="SourceGraphic" in2="BackgroundImageFix" result="shape"/>
<feGaussianBlur stdDeviation="12.5" result="effect1_foregroundBlur_862_12518"/>
</filter>
<filter id="filter1_f_862_12518" x="-41.8149" y="191.558" width="565.022" height="336.595" filterUnits="userSpaceOnUse" color-interpolation-filters="sRGB">
<feFlood flood-opacity="0" result="BackgroundImageFix"/>
<feBlend mode="normal" in="SourceGraphic" in2="BackgroundImageFix" result="shape"/>
<feGaussianBlur stdDeviation="20" result="effect1_foregroundBlur_862_12518"/>
</filter>
<filter id="filter2_f_862_12518" x="94.5" y="263.774" width="292.81" height="139.228" filterUnits="userSpaceOnUse" color-interpolation-filters="sRGB">
<feFlood flood-opacity="0" result="BackgroundImageFix"/>
<feBlend mode="normal" in="SourceGraphic" in2="BackgroundImageFix" result="shape"/>
<feGaussianBlur stdDeviation="5" result="effect1_foregroundBlur_862_12518"/>
</filter>
<radialGradient id="paint0_radial_862_12518" cx="0" cy="0" r="1" gradientUnits="userSpaceOnUse" gradientTransform="translate(241 -4.53898e-06) rotate(90) scale(482)">
<stop stop-color="#FFDE43"/>
<stop offset="1" stop-color="#FFBC00"/>
</radialGradient>
<radialGradient id="paint1_radial_862_12518" cx="0" cy="0" r="1" gradientUnits="userSpaceOnUse" gradientTransform="translate(241 64.5) rotate(90) scale(417.5)">
<stop stop-color="white" stop-opacity="0.5"/>
<stop offset="0.782278"/>
</radialGradient>
<radialGradient id="paint2_radial_862_12518" cx="0" cy="0" r="1" gradientUnits="userSpaceOnUse" gradientTransform="translate(241 64.5) rotate(90) scale(417.5)">
<stop stop-color="white" stop-opacity="0.5"/>
<stop offset="0.782278"/>
</radialGradient>
<radialGradient id="paint3_radial_862_12518" cx="0" cy="0" r="1" gradientUnits="userSpaceOnUse" gradientTransform="translate(241 -52.5) rotate(90) scale(534.5 722.835)">
<stop offset="0.0922635" stop-color="white"/>
<stop offset="0.670207" stop-color="white" stop-opacity="0"/>
</radialGradient>
<linearGradient id="paint4_linear_862_12518" x1="240.905" y1="391.604" x2="240.905" y2="274.727" gradientUnits="userSpaceOnUse">
<stop offset="0.265625" stop-color="#FFDE43"/>
<stop offset="1" stop-color="#F79D14"/>
</linearGradient>
<radialGradient id="paint5_radial_862_12518" cx="0" cy="0" r="1" gradientUnits="userSpaceOnUse" gradientTransform="translate(240.905 333.166) scale(99.565 111.337)">
<stop stop-color="#743C1C"/>
<stop offset="1" stop-color="#401C02"/>
</radialGradient>
<linearGradient id="paint6_linear_862_12518" x1="137.15" y1="305.163" x2="348.23" y2="305.163" gradientUnits="userSpaceOnUse">
<stop stop-color="#CCCCCC"/>
<stop offset="0.05" stop-color="#D5D5D5"/>
<stop offset="0.2" stop-color="#E9E9E9"/>
<stop offset="0.35" stop-color="#F6F6F6"/>
<stop offset="0.5" stop-color="#FAFAFA"/>
<stop offset="0.65" stop-color="#F6F6F6"/>
<stop offset="0.8" stop-color="#E9E9E9"/>
<stop offset="0.95" stop-color="#D5D5D5"/>
<stop offset="1" stop-color="#CCCCCC"/>
</linearGradient>
<linearGradient id="paint7_linear_862_12518" x1="240.89" y1="273.73" x2="240.89" y2="393.06" gradientUnits="userSpaceOnUse">
<stop stop-color="#401C02"/>
<stop offset="1" stop-color="#401C02"/>
</linearGradient>
<linearGradient id="paint8_linear_862_12518" x1="240.89" y1="273.73" x2="240.89" y2="393.06" gradientUnits="userSpaceOnUse">
<stop stop-color="#401C02"/>
<stop offset="1" stop-color="#401C02"/>
</linearGradient>
<linearGradient id="paint9_linear_862_12518" x1="240.89" y1="273.73" x2="240.89" y2="393.06" gradientUnits="userSpaceOnUse">
<stop stop-color="#401C02"/>
<stop offset="1" stop-color="#401C02"/>
</linearGradient>
<radialGradient id="paint10_radial_862_12518" cx="0" cy="0" r="1" gradientUnits="userSpaceOnUse" gradientTransform="translate(331.555 183.284) scale(70.8669 38.2363)">
<stop stop-color="#743C1C"/>
<stop offset="1" stop-color="#401C02"/>
</radialGradient>
<linearGradient id="paint11_linear_862_12518" x1="331.632" y1="223.627" x2="331.632" y2="142.682" gradientUnits="userSpaceOnUse">
<stop stop-color="#FFDE43"/>
<stop offset="0.22" stop-color="#FED93F"/>
<stop offset="0.51" stop-color="#FCC934"/>
<stop offset="0.82" stop-color="#F9AF21"/>
<stop offset="1" stop-color="#F79D14"/>
</linearGradient>
<radialGradient id="paint12_radial_862_12518" cx="0" cy="0" r="1" gradientUnits="userSpaceOnUse" gradientTransform="translate(151.536 183.28) scale(70.8935 38.2309)">
<stop stop-color="#743C1C"/>
<stop offset="1" stop-color="#401C02"/>
</radialGradient>
<linearGradient id="paint13_linear_862_12518" x1="151.613" y1="223.618" x2="151.613" y2="142.685" gradientUnits="userSpaceOnUse">
<stop stop-color="#FFDE43"/>
<stop offset="0.22" stop-color="#FED93F"/>
<stop offset="0.51" stop-color="#FCC934"/>
<stop offset="0.82" stop-color="#F9AF21"/>
<stop offset="1" stop-color="#F79D14"/>
</linearGradient>
</defs>
</svg>
