<svg width="483" height="483" viewBox="0 0 483 483" fill="none" xmlns="http://www.w3.org/2000/svg">
<path d="M241.18 482.36C374.38 482.36 482.36 374.38 482.36 241.18C482.36 107.98 374.38 0 241.18 0C107.98 0 0 107.98 0 241.18C0 374.38 107.98 482.36 241.18 482.36Z" fill="url(#paint0_radial_862_12499)"/>
<g style="mix-blend-mode:soft-light">
<path d="M241.18 482.36C374.38 482.36 482.36 374.38 482.36 241.18C482.36 107.98 374.38 0 241.18 0C107.98 0 0 107.98 0 241.18C0 374.38 107.98 482.36 241.18 482.36Z" fill="url(#paint1_radial_862_12499)"/>
</g>
<g style="mix-blend-mode:soft-light">
<path d="M241.18 482.36C374.38 482.36 482.36 374.38 482.36 241.18C482.36 107.98 374.38 0 241.18 0C107.98 0 0 107.98 0 241.18C0 374.38 107.98 482.36 241.18 482.36Z" fill="url(#paint2_radial_862_12499)"/>
</g>
<g style="mix-blend-mode:overlay">
<path d="M241.18 482.36C374.38 482.36 482.36 374.38 482.36 241.18C482.36 107.98 374.38 0 241.18 0C107.98 0 0 107.98 0 241.18C0 374.38 107.98 482.36 241.18 482.36Z" fill="url(#paint3_radial_862_12499)" fill-opacity="0.7"/>
</g>
<mask id="mask0_862_12499" style="mask-type:alpha" maskUnits="userSpaceOnUse" x="0" y="0" width="483" height="483">
<path d="M241.18 482.36C374.38 482.36 482.36 374.38 482.36 241.18C482.36 107.98 374.38 0 241.18 0C107.98 0 0 107.98 0 241.18C0 374.38 107.98 482.36 241.18 482.36Z" fill="white"/>
</mask>
<g mask="url(#mask0_862_12499)">
<g filter="url(#filter0_f_862_12499)">
<path d="M-1.3759 234.299C-1.11402 230.872 0.0137008 230.529 0.342619 234.009C0.708055 237.875 -0.00231624 245.647 0.16871 250.335C0.621554 262.748 2.52441 273.542 4.48605 282.321C10.8075 310.613 19.5617 328.843 27.7268 344.289C54.5663 395.061 83.9667 420.771 112.648 440.147C154.689 468.55 197.072 477.584 239.49 479.5C240.56 479.549 240.738 486.518 239.686 487.425C237.788 489.062 235.436 487.438 233.494 487.37C227.915 487.174 222.335 486.791 216.756 486.211C200.213 484.492 183.67 480.991 167.162 475.359C122.275 460.044 73.8765 433.821 31.6092 359.962C28.9502 355.316 26.3124 350.424 23.7118 345.168C21.6321 340.964 19.5726 336.557 17.5493 331.844C10.8946 316.342 -4.61323 276.659 -1.3759 234.299ZM239.52 487.5C238.499 487.532 238.241 481.035 239.214 479.686C240.684 477.647 242.888 479.326 244.439 479.229C250.877 478.827 257.314 478.23 263.75 477.422C281.395 475.206 299.028 471.423 316.621 465.596C360.257 451.146 407.17 429.116 448.305 361.431C450.923 357.124 453.518 352.554 456.079 347.641C463.86 332.713 483.361 293.085 481.107 243.821C480.917 239.669 482.181 237.181 482.747 240.744C483.467 245.28 483.175 254.736 482.977 259.768C482.341 275.884 479.866 289.512 477.257 300.518C468.987 335.399 457.376 355.623 446.744 372.51C412.184 427.397 374.648 449.524 338.155 465.425C305.424 479.686 272.444 486.484 239.52 487.5Z" fill="#401C02"/>
</g>
<g filter="url(#filter1_f_862_12499)">
<path d="M-1.3759 234.299C-1.11402 230.872 0.0137008 230.529 0.342619 234.009C0.708055 237.875 -0.00231624 245.647 0.16871 250.335C0.621554 262.748 2.52441 273.542 4.48605 282.321C10.8075 310.613 19.5617 328.843 27.7268 344.289C54.5663 395.061 83.9667 420.771 112.648 440.147C154.689 468.55 197.072 477.584 239.49 479.5C240.56 479.549 240.738 486.518 239.686 487.425C237.788 489.062 235.436 487.438 233.494 487.37C227.915 487.174 222.335 486.791 216.756 486.211C200.213 484.492 183.67 480.991 167.162 475.359C122.275 460.044 73.8765 433.821 31.6092 359.962C28.9502 355.316 26.3124 350.424 23.7118 345.168C21.6321 340.964 19.5726 336.557 17.5493 331.844C10.8946 316.342 -4.61323 276.659 -1.3759 234.299ZM239.52 487.5C238.499 487.532 238.241 481.035 239.214 479.686C240.684 477.647 242.888 479.326 244.439 479.229C250.877 478.827 257.314 478.23 263.75 477.422C281.395 475.206 299.028 471.423 316.621 465.596C360.257 451.146 407.17 429.116 448.305 361.431C450.923 357.124 453.518 352.554 456.079 347.641C463.86 332.713 483.361 293.085 481.107 243.821C480.917 239.669 482.181 237.181 482.747 240.744C483.467 245.28 483.175 254.736 482.977 259.768C482.341 275.884 479.866 289.512 477.257 300.518C468.987 335.399 457.376 355.623 446.744 372.51C412.184 427.397 374.648 449.524 338.155 465.425C305.424 479.686 272.444 486.484 239.52 487.5Z" fill="#401C02"/>
</g>
</g>
<path d="M311.945 344.24C312.332 343.936 312.806 343.763 313.297 343.744C313.789 343.726 314.274 343.864 314.683 344.138C315.091 344.412 315.402 344.809 315.572 345.271C315.741 345.733 315.76 346.237 315.625 346.71C307.325 378.32 277.235 401.71 241.355 401.71C205.475 401.71 175.355 378.27 167.085 346.64C166.954 346.167 166.975 345.665 167.145 345.205C167.316 344.746 167.627 344.351 168.035 344.079C168.443 343.806 168.926 343.669 169.417 343.687C169.907 343.705 170.379 343.878 170.765 344.18C188.605 357.83 213.655 366.33 241.355 366.33C269.055 366.33 294.095 357.86 311.945 344.24Z" fill="url(#paint4_radial_862_12499)"/>
<path d="M311.945 344.24C312.332 343.936 312.806 343.763 313.297 343.744C313.789 343.726 314.274 343.864 314.683 344.138C315.091 344.412 315.402 344.809 315.572 345.271C315.741 345.733 315.76 346.237 315.625 346.71C307.325 378.32 277.235 401.71 241.355 401.71C205.475 401.71 175.355 378.27 167.085 346.64C166.954 346.167 166.975 345.665 167.145 345.205C167.316 344.746 167.627 344.351 168.035 344.079C168.443 343.806 168.926 343.669 169.417 343.687C169.907 343.705 170.379 343.878 170.765 344.18C188.605 357.83 213.655 366.33 241.355 366.33C269.055 366.33 294.095 357.86 311.945 344.24Z" stroke="url(#paint5_linear_862_12499)" stroke-width="2.5" stroke-miterlimit="10"/>
<path d="M75.7131 192.99C79.3031 182.8 103.063 122.14 158.533 124.71C160.268 124.753 161.936 125.387 163.262 126.507C164.588 127.628 165.491 129.167 165.823 130.87C166.163 133 165.593 135.34 162.763 137.28C150.553 145.64 119.233 145.43 92.3031 186.03C90.0003 189.588 87.8777 193.259 85.9432 197.03C84.5232 199.73 81.9431 203.45 78.6731 202.72C75.8931 202.1 75.1331 199.61 75.0131 197.52C74.9393 195.978 75.1774 194.438 75.7131 192.99Z" fill="#42210B"/>
<path d="M404.462 213.821C396.332 206.701 345.862 165.511 298.782 194.961C297.283 195.855 296.135 197.236 295.531 198.874C294.927 200.512 294.903 202.307 295.462 203.961C296.212 205.961 297.862 207.741 301.272 208.041C316.042 209.321 343.212 193.801 386.592 215.941C390.362 217.871 393.962 220.121 397.522 222.411C400.082 224.061 404.172 226.031 406.652 223.801C408.772 221.891 408.212 219.351 407.292 217.471C406.605 216.076 405.642 214.834 404.462 213.821Z" fill="#42210B"/>
<path d="M295.852 280.661C291.172 284.441 296.852 280.151 298.372 279.301C301.905 277.299 305.688 275.775 309.622 274.771C324.702 270.771 339.302 275.081 352.452 282.721C367.162 291.261 380.452 268.481 365.762 259.951C338.382 244.041 302.932 241.201 277.202 262.011C264.002 272.681 282.772 291.241 295.852 280.661Z" fill="url(#paint6_radial_862_12499)"/>
<path d="M168.173 300.051C185.095 300.051 198.813 279.474 198.813 254.091C198.813 228.708 185.095 208.131 168.173 208.131C151.251 208.131 137.533 228.708 137.533 254.091C137.533 279.474 151.251 300.051 168.173 300.051Z" fill="url(#paint7_radial_862_12499)"/>
<path d="M168.173 300.051C185.095 300.051 198.813 279.474 198.813 254.091C198.813 228.708 185.095 208.131 168.173 208.131C151.251 208.131 137.533 228.708 137.533 254.091C137.533 279.474 151.251 300.051 168.173 300.051Z" stroke="url(#paint8_linear_862_12499)" stroke-width="2" stroke-miterlimit="10"/>
<path d="M295.852 280.661C291.172 284.441 296.852 280.151 298.372 279.301C301.905 277.299 305.688 275.775 309.622 274.771C324.702 270.771 339.302 275.081 352.452 282.721C367.162 291.261 380.452 268.481 365.762 259.951C338.382 244.041 302.932 241.201 277.202 262.011C264.002 272.681 282.772 291.241 295.852 280.661V280.661Z" stroke="url(#paint9_linear_862_12499)" stroke-width="2" stroke-miterlimit="10"/>
<defs>
<filter id="filter0_f_862_12499" x="-26.8149" y="206.559" width="535.022" height="306.595" filterUnits="userSpaceOnUse" color-interpolation-filters="sRGB">
<feFlood flood-opacity="0" result="BackgroundImageFix"/>
<feBlend mode="normal" in="SourceGraphic" in2="BackgroundImageFix" result="shape"/>
<feGaussianBlur stdDeviation="12.5" result="effect1_foregroundBlur_862_12499"/>
</filter>
<filter id="filter1_f_862_12499" x="-41.8149" y="191.559" width="565.022" height="336.595" filterUnits="userSpaceOnUse" color-interpolation-filters="sRGB">
<feFlood flood-opacity="0" result="BackgroundImageFix"/>
<feBlend mode="normal" in="SourceGraphic" in2="BackgroundImageFix" result="shape"/>
<feGaussianBlur stdDeviation="20" result="effect1_foregroundBlur_862_12499"/>
</filter>
<radialGradient id="paint0_radial_862_12499" cx="0" cy="0" r="1" gradientUnits="userSpaceOnUse" gradientTransform="translate(241 -4.53898e-06) rotate(90) scale(482)">
<stop stop-color="#FFDE43"/>
<stop offset="1" stop-color="#FFBC00"/>
</radialGradient>
<radialGradient id="paint1_radial_862_12499" cx="0" cy="0" r="1" gradientUnits="userSpaceOnUse" gradientTransform="translate(241 64.5) rotate(90) scale(417.5)">
<stop stop-color="white" stop-opacity="0.5"/>
<stop offset="0.782278"/>
</radialGradient>
<radialGradient id="paint2_radial_862_12499" cx="0" cy="0" r="1" gradientUnits="userSpaceOnUse" gradientTransform="translate(241 64.5) rotate(90) scale(417.5)">
<stop stop-color="white" stop-opacity="0.5"/>
<stop offset="0.782278"/>
</radialGradient>
<radialGradient id="paint3_radial_862_12499" cx="0" cy="0" r="1" gradientUnits="userSpaceOnUse" gradientTransform="translate(241 -52.5) rotate(90) scale(534.5 722.835)">
<stop offset="0.0922635" stop-color="white"/>
<stop offset="0.670207" stop-color="white" stop-opacity="0"/>
</radialGradient>
<radialGradient id="paint4_radial_862_12499" cx="0" cy="0" r="1" gradientUnits="userSpaceOnUse" gradientTransform="translate(241.357 372.581) scale(56.1265 58.608)">
<stop stop-color="#743C1C"/>
<stop offset="1" stop-color="#401C02"/>
</radialGradient>
<linearGradient id="paint5_linear_862_12499" x1="241.357" y1="403.343" x2="241.357" y2="341.818" gradientUnits="userSpaceOnUse">
<stop offset="0.265625" stop-color="#FFDE43"/>
<stop offset="1" stop-color="#F79D14"/>
</linearGradient>
<radialGradient id="paint6_radial_862_12499" cx="0" cy="0" r="1" gradientUnits="userSpaceOnUse" gradientTransform="translate(322.357 265.894) scale(63.3853 18.73)">
<stop stop-color="#743C1C"/>
<stop offset="1" stop-color="#401C02"/>
</radialGradient>
<radialGradient id="paint7_radial_862_12499" cx="0" cy="0" r="1" gradientUnits="userSpaceOnUse" gradientTransform="translate(168.131 254.06) scale(39.0585 46.0397)">
<stop stop-color="#743C1C"/>
<stop offset="1" stop-color="#401C02"/>
</radialGradient>
<linearGradient id="paint8_linear_862_12499" x1="168.173" y1="302.637" x2="168.173" y2="205.173" gradientUnits="userSpaceOnUse">
<stop stop-color="#FFDE43"/>
<stop offset="0.22" stop-color="#FED93F"/>
<stop offset="0.51" stop-color="#FCC934"/>
<stop offset="0.82" stop-color="#F9AF21"/>
<stop offset="1" stop-color="#F79D14"/>
</linearGradient>
<linearGradient id="paint9_linear_862_12499" x1="322.426" y1="285.656" x2="322.426" y2="246.006" gradientUnits="userSpaceOnUse">
<stop stop-color="#FFDE43"/>
<stop offset="0.22" stop-color="#FED93F"/>
<stop offset="0.51" stop-color="#FCC934"/>
<stop offset="0.82" stop-color="#F9AF21"/>
<stop offset="1" stop-color="#F79D14"/>
</linearGradient>
</defs>
</svg>
