<svg width="483" height="519" viewBox="0 0 483 519" fill="none" xmlns="http://www.w3.org/2000/svg">
<path d="M241.18 482.36C374.38 482.36 482.36 374.38 482.36 241.18C482.36 107.98 374.38 0 241.18 0C107.98 0 0 107.98 0 241.18C0 374.38 107.98 482.36 241.18 482.36Z" fill="url(#paint0_radial_862_12508)"/>
<g style="mix-blend-mode:soft-light">
<path d="M241.18 482.36C374.38 482.36 482.36 374.38 482.36 241.18C482.36 107.98 374.38 0 241.18 0C107.98 0 0 107.98 0 241.18C0 374.38 107.98 482.36 241.18 482.36Z" fill="url(#paint1_radial_862_12508)"/>
</g>
<g style="mix-blend-mode:soft-light">
<path d="M241.18 482.36C374.38 482.36 482.36 374.38 482.36 241.18C482.36 107.98 374.38 0 241.18 0C107.98 0 0 107.98 0 241.18C0 374.38 107.98 482.36 241.18 482.36Z" fill="url(#paint2_radial_862_12508)"/>
</g>
<g style="mix-blend-mode:overlay">
<path d="M241.18 482.36C374.38 482.36 482.36 374.38 482.36 241.18C482.36 107.98 374.38 0 241.18 0C107.98 0 0 107.98 0 241.18C0 374.38 107.98 482.36 241.18 482.36Z" fill="url(#paint3_radial_862_12508)" fill-opacity="0.7"/>
</g>
<mask id="mask0_862_12508" style="mask-type:alpha" maskUnits="userSpaceOnUse" x="0" y="0" width="483" height="483">
<path d="M241.18 482.36C374.38 482.36 482.36 374.38 482.36 241.18C482.36 107.98 374.38 0 241.18 0C107.98 0 0 107.98 0 241.18C0 374.38 107.98 482.36 241.18 482.36Z" fill="white"/>
</mask>
<g mask="url(#mask0_862_12508)">
<g filter="url(#filter0_f_862_12508)">
<path d="M-1.3759 234.299C-1.11402 230.872 0.0137008 230.529 0.342619 234.008C0.708055 237.874 -0.00231624 245.646 0.16871 250.335C0.621554 262.748 2.52441 273.541 4.48605 282.32C10.8075 310.612 19.5617 328.843 27.7268 344.288C54.5663 395.06 83.9667 420.77 112.648 440.147C154.689 468.549 197.072 477.584 239.49 479.5C240.56 479.548 240.738 486.518 239.686 487.425C237.788 489.061 235.436 487.437 233.494 487.369C227.915 487.174 222.335 486.791 216.756 486.211C200.213 484.492 183.67 480.991 167.162 475.358C122.275 460.044 73.8765 433.821 31.6092 359.962C28.9502 355.316 26.3124 350.424 23.7118 345.167C21.6321 340.963 19.5726 336.556 17.5493 331.843C10.8946 316.342 -4.61323 276.658 -1.3759 234.299ZM239.52 487.5C238.499 487.531 238.241 481.034 239.214 479.685C240.684 477.647 242.888 479.326 244.439 479.229C250.877 478.826 257.314 478.229 263.75 477.421C281.395 475.205 299.028 471.422 316.621 465.596C360.257 451.145 407.17 429.115 448.305 361.431C450.923 357.123 453.518 352.553 456.079 347.641C463.86 332.712 483.361 293.084 481.107 243.821C480.917 239.668 482.181 237.181 482.747 240.743C483.467 245.279 483.175 254.736 482.977 259.768C482.341 275.883 479.866 289.512 477.257 300.518C468.987 335.399 457.376 355.623 446.744 372.51C412.184 427.397 374.648 449.524 338.155 465.424C305.424 479.686 272.444 486.484 239.52 487.5Z" fill="#401C02"/>
</g>
<g filter="url(#filter1_f_862_12508)">
<path d="M-1.3759 234.299C-1.11402 230.872 0.0137008 230.529 0.342619 234.008C0.708055 237.874 -0.00231624 245.646 0.16871 250.335C0.621554 262.748 2.52441 273.541 4.48605 282.32C10.8075 310.612 19.5617 328.843 27.7268 344.288C54.5663 395.06 83.9667 420.77 112.648 440.147C154.689 468.549 197.072 477.584 239.49 479.5C240.56 479.548 240.738 486.518 239.686 487.425C237.788 489.061 235.436 487.437 233.494 487.369C227.915 487.174 222.335 486.791 216.756 486.211C200.213 484.492 183.67 480.991 167.162 475.358C122.275 460.044 73.8765 433.821 31.6092 359.962C28.9502 355.316 26.3124 350.424 23.7118 345.167C21.6321 340.963 19.5726 336.556 17.5493 331.843C10.8946 316.342 -4.61323 276.658 -1.3759 234.299ZM239.52 487.5C238.499 487.531 238.241 481.034 239.214 479.685C240.684 477.647 242.888 479.326 244.439 479.229C250.877 478.826 257.314 478.229 263.75 477.421C281.395 475.205 299.028 471.422 316.621 465.596C360.257 451.145 407.17 429.115 448.305 361.431C450.923 357.123 453.518 352.553 456.079 347.641C463.86 332.712 483.361 293.084 481.107 243.821C480.917 239.668 482.181 237.181 482.747 240.743C483.467 245.279 483.175 254.736 482.977 259.768C482.341 275.883 479.866 289.512 477.257 300.518C468.987 335.399 457.376 355.623 446.744 372.51C412.184 427.397 374.648 449.524 338.155 465.424C305.424 479.686 272.444 486.484 239.52 487.5Z" fill="#401C02"/>
</g>
</g>
<path d="M241.333 335.23C190.943 335.23 143.963 327.64 104.333 314.54C103.296 314.163 102.176 314.079 101.096 314.297C100.015 314.515 99.0148 315.027 98.2058 315.776C97.3967 316.525 96.8097 317.483 96.5093 318.544C96.2088 319.605 96.2065 320.728 96.5026 321.79C112.713 379.7 171.383 422.6 241.303 422.6C311.223 422.6 369.913 379.7 386.143 321.79C386.439 320.728 386.436 319.605 386.136 318.544C385.835 317.483 385.248 316.525 384.439 315.776C383.63 315.027 382.631 314.515 381.55 314.297C380.469 314.079 379.349 314.163 378.313 314.54C338.693 327.64 291.713 335.23 241.333 335.23Z" fill="url(#paint4_radial_862_12508)"/>
<path d="M95.2985 322.126L95.2989 322.127C111.679 380.644 170.895 423.85 241.303 423.85C311.71 423.85 370.946 380.644 387.346 322.127L387.347 322.126C387.704 320.842 387.702 319.485 387.339 318.203C386.976 316.921 386.266 315.764 385.289 314.859C384.311 313.954 383.103 313.335 381.797 313.072C380.497 312.81 379.151 312.909 377.904 313.359C338.425 326.41 291.585 333.98 241.333 333.98C191.071 333.98 144.23 326.41 104.742 313.359C103.495 312.909 102.148 312.81 100.848 313.072C99.5423 313.335 98.3341 313.954 97.3565 314.859C96.3789 315.764 95.6696 316.921 95.3066 318.203C94.9435 319.485 94.9407 320.842 95.2985 322.126Z" stroke="url(#paint5_linear_862_12508)" stroke-width="2.5"/>
<mask id="mask1_862_12508" style="mask-type:alpha" maskUnits="userSpaceOnUse" x="0" y="0" width="483" height="483">
<path d="M241.18 482.36C374.38 482.36 482.36 374.38 482.36 241.18C482.36 107.98 374.38 0 241.18 0C107.98 0 0 107.98 0 241.18C0 374.38 107.98 482.36 241.18 482.36Z" fill="url(#paint6_radial_862_12508)"/>
</mask>
<g mask="url(#mask1_862_12508)">
<mask id="mask2_862_12508" style="mask-type:alpha" maskUnits="userSpaceOnUse" x="96" y="314" width="291" height="205">
<path d="M241.333 335.23C190.943 335.23 143.963 327.64 104.333 314.54C103.296 314.163 102.176 314.079 101.096 314.297C100.015 314.515 99.0148 315.027 98.2058 315.776C97.3967 316.525 96.8097 317.483 96.5093 318.544C96.2088 319.605 96.2065 320.728 96.5026 321.79C112.713 379.7 171.413 519 241.333 519C311.253 519 369.913 379.7 386.143 321.79C386.439 320.728 386.436 319.605 386.136 318.544C385.835 317.483 385.248 316.525 384.439 315.776C383.63 315.027 382.631 314.515 381.55 314.297C380.469 314.079 379.349 314.163 378.313 314.54C338.693 327.64 291.713 335.23 241.333 335.23Z" fill="black"/>
</mask>
<g mask="url(#mask2_862_12508)">
<g filter="url(#filter2_f_862_12508)">
<path d="M241.012 502.9C205.112 502.9 176.112 473.8 176.112 438V329H305.812V438C305.812 473.8 276.812 502.9 241.012 502.9Z" fill="#672500"/>
</g>
</g>
</g>
<mask id="mask3_862_12508" style="mask-type:alpha" maskUnits="userSpaceOnUse" x="96" y="314" width="291" height="205">
<path d="M241.333 335.23C190.943 335.23 143.963 327.64 104.333 314.54C103.296 314.163 102.176 314.079 101.096 314.297C100.015 314.515 99.0148 315.027 98.2058 315.776C97.3967 316.525 96.8097 317.483 96.5093 318.544C96.2088 319.605 96.2065 320.728 96.5026 321.79C112.713 379.7 171.413 519 241.333 519C311.253 519 369.913 379.7 386.143 321.79C386.439 320.728 386.436 319.605 386.136 318.544C385.835 317.483 385.248 316.525 384.439 315.776C383.63 315.027 382.631 314.515 381.55 314.297C380.469 314.079 379.349 314.163 378.313 314.54C338.693 327.64 291.713 335.23 241.333 335.23Z" fill="black"/>
</mask>
<g mask="url(#mask3_862_12508)">
<path d="M241.012 502.9C205.112 502.9 176.112 473.8 176.112 438V329H305.812V438C305.812 473.8 276.812 502.9 241.012 502.9Z" fill="url(#paint7_radial_862_12508)"/>
<g style="mix-blend-mode:multiply">
<path d="M241.012 502.9C205.112 502.9 176.112 473.9 176.112 438V329H305.812V438C305.812 473.9 276.812 502.9 241.012 502.9Z" fill="url(#paint8_radial_862_12508)"/>
</g>
<g style="mix-blend-mode:multiply" opacity="0.5" filter="url(#filter3_f_862_12508)">
<path d="M248.112 385H234.112V448H248.112V385Z" fill="#CF4F87"/>
</g>
</g>
<mask id="mask4_862_12508" style="mask-type:alpha" maskUnits="userSpaceOnUse" x="96" y="314" width="291" height="109">
<path d="M241.333 335.23C190.943 335.23 143.963 327.64 104.333 314.54C103.296 314.163 102.176 314.079 101.096 314.297C100.015 314.515 99.0148 315.027 98.2058 315.776C97.3967 316.525 96.8097 317.483 96.5093 318.544C96.2088 319.605 96.2065 320.728 96.5026 321.79C112.713 379.7 171.383 422.6 241.303 422.6C311.223 422.6 369.913 379.7 386.143 321.79C386.439 320.728 386.436 319.605 386.136 318.544C385.835 317.483 385.248 316.525 384.439 315.776C383.63 315.027 382.631 314.515 381.55 314.297C380.469 314.079 379.349 314.163 378.313 314.54C338.693 327.64 291.713 335.23 241.333 335.23Z" fill="url(#paint9_linear_862_12508)"/>
</mask>
<g mask="url(#mask4_862_12508)">
<g filter="url(#filter4_f_862_12508)">
<ellipse cx="241.112" cy="237" rx="203" ry="142" fill="#401C02"/>
</g>
</g>
<path d="M345.1 287.8C302.629 287.8 268.2 253.371 268.2 210.9C268.2 168.429 302.629 134 345.1 134C387.571 134 422 168.429 422 210.9C422 253.371 387.571 287.8 345.1 287.8Z" fill="url(#paint10_linear_862_12508)"/>
<mask id="mask5_862_12508" style="mask-type:alpha" maskUnits="userSpaceOnUse" x="268" y="134" width="154" height="156">
<path d="M345 289.048C387.526 289.048 422 254.339 422 211.524C422 168.709 387.526 134 345 134C302.474 134 268 168.709 268 211.524C268 254.339 302.474 289.048 345 289.048Z" fill="white"/>
</mask>
<g mask="url(#mask5_862_12508)">
<g filter="url(#filter5_f_862_12508)">
<path d="M421 211.524C421 253.793 386.967 288.048 345 288.048C303.033 288.048 269 253.793 269 211.524C269 169.254 303.033 135 345 135C386.967 135 421 169.254 421 211.524Z" stroke="#743C1C" stroke-width="2"/>
</g>
</g>
<g filter="url(#filter6_f_862_12508)">
<circle r="28" transform="matrix(-1 0 0 1 345 211)" fill="black"/>
</g>
<path d="M345.1 287.8C302.629 287.8 268.2 253.371 268.2 210.9C268.2 168.429 302.629 134 345.1 134C387.571 134 422 168.429 422 210.9C422 253.371 387.571 287.8 345.1 287.8Z" stroke="url(#paint11_linear_862_12508)" stroke-width="2.5" stroke-miterlimit="10"/>
<path d="M92.1222 242.568C100.062 231.918 139.012 187.568 212.702 227.118C215.156 228.393 217.063 230.514 218.071 233.089C219.079 235.664 219.118 238.516 218.182 241.118C216.912 244.428 214.062 246.758 207.982 244.788C193.802 240.208 148.982 225.738 101.322 248.148C101.322 248.148 94.8722 252.618 91.9222 248.678C91.2893 247.775 90.9667 246.691 91.0027 245.589C91.0388 244.488 91.4316 243.427 92.1222 242.568Z" fill="url(#paint12_radial_862_12508)"/>
<path d="M92.1222 242.568C100.062 231.918 139.012 187.568 212.702 227.118C215.156 228.393 217.063 230.514 218.071 233.089C219.079 235.664 219.118 238.516 218.182 241.118C216.912 244.428 214.062 246.758 207.982 244.788C193.802 240.208 148.982 225.738 101.322 248.148C101.322 248.148 94.8722 252.618 91.9222 248.678C91.2893 247.775 90.9667 246.691 91.0027 245.589C91.0388 244.488 91.4316 243.427 92.1222 242.568V242.568Z" stroke="url(#paint13_linear_862_12508)" stroke-width="2" stroke-miterlimit="10"/>
<defs>
<filter id="filter0_f_862_12508" x="-26.8149" y="206.558" width="535.022" height="306.595" filterUnits="userSpaceOnUse" color-interpolation-filters="sRGB">
<feFlood flood-opacity="0" result="BackgroundImageFix"/>
<feBlend mode="normal" in="SourceGraphic" in2="BackgroundImageFix" result="shape"/>
<feGaussianBlur stdDeviation="12.5" result="effect1_foregroundBlur_862_12508"/>
</filter>
<filter id="filter1_f_862_12508" x="-41.8149" y="191.558" width="565.022" height="336.595" filterUnits="userSpaceOnUse" color-interpolation-filters="sRGB">
<feFlood flood-opacity="0" result="BackgroundImageFix"/>
<feBlend mode="normal" in="SourceGraphic" in2="BackgroundImageFix" result="shape"/>
<feGaussianBlur stdDeviation="20" result="effect1_foregroundBlur_862_12508"/>
</filter>
<filter id="filter2_f_862_12508" x="156.112" y="309" width="169.7" height="213.9" filterUnits="userSpaceOnUse" color-interpolation-filters="sRGB">
<feFlood flood-opacity="0" result="BackgroundImageFix"/>
<feBlend mode="normal" in="SourceGraphic" in2="BackgroundImageFix" result="shape"/>
<feGaussianBlur stdDeviation="10" result="effect1_foregroundBlur_862_12508"/>
</filter>
<filter id="filter3_f_862_12508" x="214.112" y="365" width="54" height="103" filterUnits="userSpaceOnUse" color-interpolation-filters="sRGB">
<feFlood flood-opacity="0" result="BackgroundImageFix"/>
<feBlend mode="normal" in="SourceGraphic" in2="BackgroundImageFix" result="shape"/>
<feGaussianBlur stdDeviation="10" result="effect1_foregroundBlur_862_12508"/>
</filter>
<filter id="filter4_f_862_12508" x="-16.8877" y="40" width="516" height="394" filterUnits="userSpaceOnUse" color-interpolation-filters="sRGB">
<feFlood flood-opacity="0" result="BackgroundImageFix"/>
<feBlend mode="normal" in="SourceGraphic" in2="BackgroundImageFix" result="shape"/>
<feGaussianBlur stdDeviation="27.5" result="effect1_foregroundBlur_862_12508"/>
</filter>
<filter id="filter5_f_862_12508" x="253" y="119" width="184" height="185.048" filterUnits="userSpaceOnUse" color-interpolation-filters="sRGB">
<feFlood flood-opacity="0" result="BackgroundImageFix"/>
<feBlend mode="normal" in="SourceGraphic" in2="BackgroundImageFix" result="shape"/>
<feGaussianBlur stdDeviation="7.5" result="effect1_foregroundBlur_862_12508"/>
</filter>
<filter id="filter6_f_862_12508" x="313" y="179" width="64" height="64" filterUnits="userSpaceOnUse" color-interpolation-filters="sRGB">
<feFlood flood-opacity="0" result="BackgroundImageFix"/>
<feBlend mode="normal" in="SourceGraphic" in2="BackgroundImageFix" result="shape"/>
<feGaussianBlur stdDeviation="2" result="effect1_foregroundBlur_862_12508"/>
</filter>
<radialGradient id="paint0_radial_862_12508" cx="0" cy="0" r="1" gradientUnits="userSpaceOnUse" gradientTransform="translate(241 -4.53898e-06) rotate(90) scale(482)">
<stop stop-color="#FFDE43"/>
<stop offset="1" stop-color="#FFBC00"/>
</radialGradient>
<radialGradient id="paint1_radial_862_12508" cx="0" cy="0" r="1" gradientUnits="userSpaceOnUse" gradientTransform="translate(241 64.5) rotate(90) scale(417.5)">
<stop stop-color="white" stop-opacity="0.5"/>
<stop offset="0.782278"/>
</radialGradient>
<radialGradient id="paint2_radial_862_12508" cx="0" cy="0" r="1" gradientUnits="userSpaceOnUse" gradientTransform="translate(241 64.5) rotate(90) scale(417.5)">
<stop stop-color="white" stop-opacity="0.5"/>
<stop offset="0.782278"/>
</radialGradient>
<radialGradient id="paint3_radial_862_12508" cx="0" cy="0" r="1" gradientUnits="userSpaceOnUse" gradientTransform="translate(241 -52.5) rotate(90) scale(534.5 722.835)">
<stop offset="0.0922635" stop-color="white"/>
<stop offset="0.670207" stop-color="white" stop-opacity="0"/>
</radialGradient>
<radialGradient id="paint4_radial_862_12508" cx="0" cy="0" r="1" gradientUnits="userSpaceOnUse" gradientTransform="translate(241.323 368.17) scale(109.48 109.511)">
<stop stop-color="#743C1C"/>
<stop offset="1" stop-color="#401C02"/>
</radialGradient>
<linearGradient id="paint5_linear_862_12508" x1="241.323" y1="425.651" x2="241.323" y2="310.69" gradientUnits="userSpaceOnUse">
<stop offset="0.265625" stop-color="#FFDE43"/>
<stop offset="1" stop-color="#F79D14"/>
</linearGradient>
<radialGradient id="paint6_radial_862_12508" cx="0" cy="0" r="1" gradientUnits="userSpaceOnUse" gradientTransform="translate(241 -4.53898e-06) rotate(90) scale(482)">
<stop stop-color="#FFDE43"/>
<stop offset="1" stop-color="#FFBC00"/>
</radialGradient>
<radialGradient id="paint7_radial_862_12508" cx="0" cy="0" r="1" gradientUnits="userSpaceOnUse" gradientTransform="translate(242.24 403.591) scale(80.9374 97.6186)">
<stop offset="0.3" stop-color="#F076AC"/>
<stop offset="0.4761" stop-color="#ED73A9"/>
<stop offset="0.6236" stop-color="#E2699F"/>
<stop offset="0.7609" stop-color="#D1588E"/>
<stop offset="1" stop-color="#B94176"/>
</radialGradient>
<radialGradient id="paint8_radial_862_12508" cx="0" cy="0" r="1" gradientUnits="userSpaceOnUse" gradientTransform="translate(240.964 415.958) scale(74.0615 226.286)">
<stop offset="0.2933" stop-color="#D86B9B" stop-opacity="0"/>
<stop offset="0.4603" stop-color="#D46998" stop-opacity="0.2363"/>
<stop offset="0.6135" stop-color="#C96491" stop-opacity="0.4531"/>
<stop offset="0.7614" stop-color="#B75B84" stop-opacity="0.6623"/>
<stop offset="0.905" stop-color="#9D4E71" stop-opacity="0.8656"/>
<stop offset="1" stop-color="#874462"/>
</radialGradient>
<linearGradient id="paint9_linear_862_12508" x1="241" y1="423" x2="241" y2="336.5" gradientUnits="userSpaceOnUse">
<stop offset="0.152957" stop-color="#743C1C" stop-opacity="0.53"/>
<stop offset="1" stop-color="#401C02"/>
</linearGradient>
<linearGradient id="paint10_linear_862_12508" x1="422.059" y1="210.929" x2="268.2" y2="210.929" gradientUnits="userSpaceOnUse">
<stop stop-color="#CCCCCC"/>
<stop offset="0.05" stop-color="#D5D5D5"/>
<stop offset="0.2" stop-color="#E9E9E9"/>
<stop offset="0.35" stop-color="#F6F6F6"/>
<stop offset="0.5" stop-color="#FAFAFA"/>
<stop offset="0.65" stop-color="#F6F6F6"/>
<stop offset="0.8" stop-color="#E9E9E9"/>
<stop offset="0.95" stop-color="#D5D5D5"/>
<stop offset="1" stop-color="#CCCCCC"/>
</linearGradient>
<linearGradient id="paint11_linear_862_12508" x1="345.1" y1="292.128" x2="345.1" y2="129.051" gradientUnits="userSpaceOnUse">
<stop stop-color="#FFDE43"/>
<stop offset="0.22" stop-color="#FED93F"/>
<stop offset="0.51" stop-color="#FCC934"/>
<stop offset="0.82" stop-color="#F9AF21"/>
<stop offset="1" stop-color="#F79D14"/>
</linearGradient>
<radialGradient id="paint12_radial_862_12508" cx="0" cy="0" r="1" gradientUnits="userSpaceOnUse" gradientTransform="translate(154.84 230.638) scale(81.493 19.6848)">
<stop stop-color="#743C1C"/>
<stop offset="1" stop-color="#401C02"/>
</radialGradient>
<linearGradient id="paint13_linear_862_12508" x1="154.928" y1="251.407" x2="154.928" y2="209.735" gradientUnits="userSpaceOnUse">
<stop stop-color="#FFDE43"/>
<stop offset="0.22" stop-color="#FED93F"/>
<stop offset="0.51" stop-color="#FCC934"/>
<stop offset="0.82" stop-color="#F9AF21"/>
<stop offset="1" stop-color="#F79D14"/>
</linearGradient>
</defs>
</svg>
