<svg width="483" height="483" viewBox="0 0 483 483" fill="none" xmlns="http://www.w3.org/2000/svg">
<path d="M241.18 482.36C374.38 482.36 482.36 374.38 482.36 241.18C482.36 107.98 374.38 0 241.18 0C107.98 0 0 107.98 0 241.18C0 374.38 107.98 482.36 241.18 482.36Z" fill="url(#paint0_radial_862_12573)"/>
<g style="mix-blend-mode:soft-light">
<path d="M241.18 482.36C374.38 482.36 482.36 374.38 482.36 241.18C482.36 107.98 374.38 0 241.18 0C107.98 0 0 107.98 0 241.18C0 374.38 107.98 482.36 241.18 482.36Z" fill="url(#paint1_radial_862_12573)"/>
</g>
<g style="mix-blend-mode:soft-light">
<path d="M241.18 482.36C374.38 482.36 482.36 374.38 482.36 241.18C482.36 107.98 374.38 0 241.18 0C107.98 0 0 107.98 0 241.18C0 374.38 107.98 482.36 241.18 482.36Z" fill="url(#paint2_radial_862_12573)"/>
</g>
<g style="mix-blend-mode:overlay">
<path d="M241.18 482.36C374.38 482.36 482.36 374.38 482.36 241.18C482.36 107.98 374.38 0 241.18 0C107.98 0 0 107.98 0 241.18C0 374.38 107.98 482.36 241.18 482.36Z" fill="url(#paint3_radial_862_12573)" fill-opacity="0.7"/>
</g>
<mask id="mask0_862_12573" style="mask-type:alpha" maskUnits="userSpaceOnUse" x="0" y="0" width="483" height="483">
<path d="M241.18 482.36C374.38 482.36 482.36 374.38 482.36 241.18C482.36 107.98 374.38 0 241.18 0C107.98 0 0 107.98 0 241.18C0 374.38 107.98 482.36 241.18 482.36Z" fill="white"/>
</mask>
<g mask="url(#mask0_862_12573)">
<g filter="url(#filter0_f_862_12573)">
<path d="M-1.3759 234.299C-1.11402 230.872 0.0137008 230.529 0.342619 234.008C0.708055 237.874 -0.00231624 245.646 0.16871 250.335C0.621554 262.748 2.52441 273.541 4.48605 282.32C10.8075 310.612 19.5617 328.843 27.7268 344.288C54.5663 395.06 83.9667 420.77 112.648 440.147C154.689 468.549 197.072 477.584 239.49 479.5C240.56 479.548 240.738 486.518 239.686 487.425C237.788 489.061 235.436 487.437 233.494 487.369C227.915 487.174 222.335 486.791 216.756 486.211C200.213 484.492 183.67 480.991 167.162 475.358C122.275 460.044 73.8765 433.821 31.6092 359.962C28.9502 355.316 26.3124 350.424 23.7118 345.167C21.6321 340.963 19.5726 336.556 17.5493 331.843C10.8946 316.342 -4.61323 276.658 -1.3759 234.299ZM239.52 487.5C238.499 487.531 238.241 481.034 239.214 479.685C240.684 477.647 242.888 479.326 244.439 479.229C250.877 478.826 257.314 478.229 263.75 477.421C281.395 475.205 299.028 471.422 316.621 465.596C360.257 451.145 407.17 429.115 448.305 361.431C450.923 357.123 453.518 352.553 456.079 347.641C463.86 332.712 483.361 293.084 481.107 243.821C480.917 239.668 482.181 237.181 482.747 240.743C483.467 245.279 483.175 254.736 482.977 259.768C482.341 275.883 479.866 289.512 477.257 300.518C468.987 335.399 457.376 355.623 446.744 372.51C412.184 427.397 374.648 449.524 338.155 465.424C305.424 479.686 272.444 486.484 239.52 487.5Z" fill="#401C02"/>
</g>
<g filter="url(#filter1_f_862_12573)">
<path d="M-1.3759 234.299C-1.11402 230.872 0.0137008 230.529 0.342619 234.008C0.708055 237.874 -0.00231624 245.646 0.16871 250.335C0.621554 262.748 2.52441 273.541 4.48605 282.32C10.8075 310.612 19.5617 328.843 27.7268 344.288C54.5663 395.06 83.9667 420.77 112.648 440.147C154.689 468.549 197.072 477.584 239.49 479.5C240.56 479.548 240.738 486.518 239.686 487.425C237.788 489.061 235.436 487.437 233.494 487.369C227.915 487.174 222.335 486.791 216.756 486.211C200.213 484.492 183.67 480.991 167.162 475.358C122.275 460.044 73.8765 433.821 31.6092 359.962C28.9502 355.316 26.3124 350.424 23.7118 345.167C21.6321 340.963 19.5726 336.556 17.5493 331.843C10.8946 316.342 -4.61323 276.658 -1.3759 234.299ZM239.52 487.5C238.499 487.531 238.241 481.034 239.214 479.685C240.684 477.647 242.888 479.326 244.439 479.229C250.877 478.826 257.314 478.229 263.75 477.421C281.395 475.205 299.028 471.422 316.621 465.596C360.257 451.145 407.17 429.115 448.305 361.431C450.923 357.123 453.518 352.553 456.079 347.641C463.86 332.712 483.361 293.084 481.107 243.821C480.917 239.668 482.181 237.181 482.747 240.743C483.467 245.279 483.175 254.736 482.977 259.768C482.341 275.883 479.866 289.512 477.257 300.518C468.987 335.399 457.376 355.623 446.744 372.51C412.184 427.397 374.648 449.524 338.155 465.424C305.424 479.686 272.444 486.484 239.52 487.5Z" fill="#401C02"/>
</g>
</g>
<path d="M362.341 104.89C353.621 97.6902 299.861 56.2702 257.521 94.1202C256.138 95.4256 255.188 97.122 254.797 98.9825C254.405 100.843 254.591 102.779 255.331 104.53C255.795 105.758 256.636 106.806 257.734 107.525C258.832 108.244 260.13 108.596 261.441 108.53C275.931 108.53 300.541 88.3402 345.221 108.98C349.115 110.846 352.908 112.919 356.581 115.19C359.261 116.79 363.461 118.61 365.581 115.84C367.411 113.48 366.581 110.68 365.471 108.65C364.673 107.211 363.611 105.936 362.341 104.89Z" fill="#42210B"/>
<path d="M105.87 207.23C117.18 207.1 184.97 203.95 192.81 147.71C193.026 145.82 192.658 143.91 191.755 142.237C190.852 140.563 189.458 139.206 187.76 138.35C186.612 137.709 185.291 137.449 183.987 137.608C182.682 137.766 181.461 138.334 180.5 139.23C169.5 148.61 163.72 179.91 116.28 193.03C112.103 194.125 107.87 194.996 103.6 195.64C100.52 196.15 96.1399 197.48 96.2899 200.97C96.4099 203.97 98.8599 205.56 101.02 206.39C102.567 206.98 104.214 207.265 105.87 207.23Z" fill="#42210B"/>
<path d="M128.75 239.28C132.287 241.28 136.073 242.803 140.01 243.81C155.08 247.81 169.68 243.5 182.84 235.86C197.54 227.32 210.84 250.11 196.15 258.64C168.77 274.54 133.32 277.379 107.59 256.579C94.7301 246.169 112.22 228.29 125.23 237.17C126.365 237.936 127.54 238.64 128.75 239.28Z" fill="url(#paint4_radial_862_12573)"/>
<path d="M128.75 239.28C132.287 241.28 136.073 242.803 140.01 243.81C155.08 247.81 169.68 243.5 182.84 235.86C197.54 227.32 210.84 250.11 196.15 258.64C168.77 274.54 133.32 277.379 107.59 256.579C94.7301 246.169 112.22 228.29 125.23 237.17C126.365 237.936 127.54 238.64 128.75 239.28V239.28Z" stroke="url(#paint5_linear_862_12573)" stroke-width="2" stroke-miterlimit="10"/>
<path d="M310.54 249.83C325.623 249.83 337.85 230.784 337.85 207.29C337.85 183.796 325.623 164.75 310.54 164.75C295.458 164.75 283.23 183.796 283.23 207.29C283.23 230.784 295.458 249.83 310.54 249.83Z" fill="url(#paint6_radial_862_12573)"/>
<path d="M310.54 249.83C325.623 249.83 337.85 230.784 337.85 207.29C337.85 183.796 325.623 164.75 310.54 164.75C295.458 164.75 283.23 183.796 283.23 207.29C283.23 230.784 295.458 249.83 310.54 249.83Z" stroke="url(#paint7_linear_862_12573)" stroke-width="2" stroke-miterlimit="10"/>
<path d="M78 304.54C98.28 388.18 186.96 332.95 241.28 328.1C278.28 324.75 309.8 349.75 346.48 348.65C387.09 347.45 394.65 304.43 394.98 271.37C394.92 276.91 399.91 285.01 401.11 290.75C402.631 297.763 403.259 304.94 402.98 312.11C402.39 324.99 398.47 337.67 390.75 348.11C374.9 369.51 345.97 377.7 320.33 374.5C306.38 372.75 293.11 365.59 279.03 362.66C262.684 359.219 245.916 358.239 229.28 359.75C189.11 363.51 128.11 390.63 93.81 356.82C77.93 341.25 82.65 323.75 78 304.54Z" stroke="url(#paint8_linear_862_12573)" stroke-width="2.5" stroke-miterlimit="10"/>
<path d="M78 304.54C98.28 388.18 186.96 332.95 241.28 328.1C278.28 324.75 309.8 349.75 346.48 348.65C387.09 347.45 394.65 304.43 394.98 271.37C394.92 276.91 399.91 285.01 401.11 290.75C402.631 297.763 403.259 304.94 402.98 312.11C402.39 324.99 398.47 337.67 390.75 348.11C374.9 369.51 345.97 377.7 320.33 374.5C306.38 372.75 293.11 365.59 279.03 362.66C262.684 359.219 245.916 358.239 229.28 359.75C189.11 363.51 128.11 390.63 93.81 356.82C77.93 341.25 82.65 323.75 78 304.54Z" fill="url(#paint9_radial_862_12573)"/>
<g opacity="0.7">
<g filter="url(#filter2_f_862_12573)">
<circle cx="388" cy="257" r="50" fill="#E66200"/>
</g>
<g filter="url(#filter3_f_862_12573)">
<circle cx="78" cy="291" r="34" fill="#E66200"/>
</g>
</g>
<defs>
<filter id="filter0_f_862_12573" x="-26.8149" y="206.558" width="535.022" height="306.595" filterUnits="userSpaceOnUse" color-interpolation-filters="sRGB">
<feFlood flood-opacity="0" result="BackgroundImageFix"/>
<feBlend mode="normal" in="SourceGraphic" in2="BackgroundImageFix" result="shape"/>
<feGaussianBlur stdDeviation="12.5" result="effect1_foregroundBlur_862_12573"/>
</filter>
<filter id="filter1_f_862_12573" x="-41.8149" y="191.558" width="565.022" height="336.595" filterUnits="userSpaceOnUse" color-interpolation-filters="sRGB">
<feFlood flood-opacity="0" result="BackgroundImageFix"/>
<feBlend mode="normal" in="SourceGraphic" in2="BackgroundImageFix" result="shape"/>
<feGaussianBlur stdDeviation="20" result="effect1_foregroundBlur_862_12573"/>
</filter>
<filter id="filter2_f_862_12573" x="298" y="167" width="180" height="180" filterUnits="userSpaceOnUse" color-interpolation-filters="sRGB">
<feFlood flood-opacity="0" result="BackgroundImageFix"/>
<feBlend mode="normal" in="SourceGraphic" in2="BackgroundImageFix" result="shape"/>
<feGaussianBlur stdDeviation="20" result="effect1_foregroundBlur_862_12573"/>
</filter>
<filter id="filter3_f_862_12573" x="4" y="217" width="148" height="148" filterUnits="userSpaceOnUse" color-interpolation-filters="sRGB">
<feFlood flood-opacity="0" result="BackgroundImageFix"/>
<feBlend mode="normal" in="SourceGraphic" in2="BackgroundImageFix" result="shape"/>
<feGaussianBlur stdDeviation="20" result="effect1_foregroundBlur_862_12573"/>
</filter>
<radialGradient id="paint0_radial_862_12573" cx="0" cy="0" r="1" gradientUnits="userSpaceOnUse" gradientTransform="translate(241 -4.53898e-06) rotate(90) scale(482)">
<stop stop-color="#FFDE43"/>
<stop offset="1" stop-color="#FFBC00"/>
</radialGradient>
<radialGradient id="paint1_radial_862_12573" cx="0" cy="0" r="1" gradientUnits="userSpaceOnUse" gradientTransform="translate(241 64.5) rotate(90) scale(417.5)">
<stop stop-color="white" stop-opacity="0.5"/>
<stop offset="0.782278"/>
</radialGradient>
<radialGradient id="paint2_radial_862_12573" cx="0" cy="0" r="1" gradientUnits="userSpaceOnUse" gradientTransform="translate(241 64.5) rotate(90) scale(417.5)">
<stop stop-color="white" stop-opacity="0.5"/>
<stop offset="0.782278"/>
</radialGradient>
<radialGradient id="paint3_radial_862_12573" cx="0" cy="0" r="1" gradientUnits="userSpaceOnUse" gradientTransform="translate(241 -52.5) rotate(90) scale(534.5 722.835)">
<stop offset="0.0922635" stop-color="white"/>
<stop offset="0.670207" stop-color="white" stop-opacity="0"/>
</radialGradient>
<radialGradient id="paint4_radial_862_12573" cx="0" cy="0" r="1" gradientUnits="userSpaceOnUse" gradientTransform="translate(152.744 252.663) scale(63.3835 18.7309)">
<stop stop-color="#743C1C"/>
<stop offset="1" stop-color="#401C02"/>
</radialGradient>
<linearGradient id="paint5_linear_862_12573" x1="152.813" y1="272.426" x2="152.813" y2="232.773" gradientUnits="userSpaceOnUse">
<stop stop-color="#FFDE43"/>
<stop offset="0.22" stop-color="#FED93F"/>
<stop offset="0.51" stop-color="#FCC934"/>
<stop offset="0.82" stop-color="#F9AF21"/>
<stop offset="1" stop-color="#F79D14"/>
</linearGradient>
<radialGradient id="paint6_radial_862_12573" cx="0" cy="0" r="1" gradientUnits="userSpaceOnUse" gradientTransform="translate(311.743 203.453) scale(34.9335 42.5856)">
<stop stop-color="#743C1C"/>
<stop offset="1" stop-color="#401C02"/>
</radialGradient>
<linearGradient id="paint7_linear_862_12573" x1="310.54" y1="252.224" x2="310.54" y2="162.012" gradientUnits="userSpaceOnUse">
<stop stop-color="#FFDE43"/>
<stop offset="0.22" stop-color="#FED93F"/>
<stop offset="0.51" stop-color="#FCC934"/>
<stop offset="0.82" stop-color="#F9AF21"/>
<stop offset="1" stop-color="#F79D14"/>
</linearGradient>
<linearGradient id="paint8_linear_862_12573" x1="240.522" y1="378.09" x2="240.522" y2="268.03" gradientUnits="userSpaceOnUse">
<stop offset="0.265625" stop-color="#FFDE43"/>
<stop offset="1" stop-color="#F79D14"/>
</linearGradient>
<radialGradient id="paint9_radial_862_12573" cx="0" cy="0" r="1" gradientUnits="userSpaceOnUse" gradientTransform="translate(240.522 323.06) scale(122.676 104.843)">
<stop stop-color="#743C1C"/>
<stop offset="1" stop-color="#401C02"/>
</radialGradient>
</defs>
</svg>
