<svg width="483" height="483" viewBox="0 0 483 483" fill="none" xmlns="http://www.w3.org/2000/svg">
<path d="M241.18 482.36C374.38 482.36 482.36 374.38 482.36 241.18C482.36 107.98 374.38 0 241.18 0C107.98 0 0 107.98 0 241.18C0 374.38 107.98 482.36 241.18 482.36Z" fill="url(#paint0_radial_862_12473)"/>
<g style="mix-blend-mode:soft-light">
<path d="M241.18 482.36C374.38 482.36 482.36 374.38 482.36 241.18C482.36 107.98 374.38 0 241.18 0C107.98 0 0 107.98 0 241.18C0 374.38 107.98 482.36 241.18 482.36Z" fill="url(#paint1_radial_862_12473)"/>
</g>
<g style="mix-blend-mode:soft-light">
<path d="M241.18 482.36C374.38 482.36 482.36 374.38 482.36 241.18C482.36 107.98 374.38 0 241.18 0C107.98 0 0 107.98 0 241.18C0 374.38 107.98 482.36 241.18 482.36Z" fill="url(#paint2_radial_862_12473)"/>
</g>
<g style="mix-blend-mode:overlay">
<path d="M241.18 482.36C374.38 482.36 482.36 374.38 482.36 241.18C482.36 107.98 374.38 0 241.18 0C107.98 0 0 107.98 0 241.18C0 374.38 107.98 482.36 241.18 482.36Z" fill="url(#paint3_radial_862_12473)" fill-opacity="0.7"/>
</g>
<mask id="mask0_862_12473" style="mask-type:alpha" maskUnits="userSpaceOnUse" x="0" y="0" width="483" height="483">
<path d="M241.18 482.36C374.38 482.36 482.36 374.38 482.36 241.18C482.36 107.98 374.38 0 241.18 0C107.98 0 0 107.98 0 241.18C0 374.38 107.98 482.36 241.18 482.36Z" fill="white"/>
</mask>
<g mask="url(#mask0_862_12473)">
<g filter="url(#filter0_f_862_12473)">
<path d="M-1.3759 234.299C-1.11402 230.872 0.0137008 230.529 0.342619 234.008C0.708055 237.874 -0.00231624 245.646 0.16871 250.335C0.621554 262.748 2.52441 273.541 4.48605 282.32C10.8075 310.612 19.5617 328.843 27.7268 344.288C54.5663 395.06 83.9667 420.77 112.648 440.147C154.689 468.549 197.072 477.584 239.49 479.5C240.56 479.548 240.738 486.518 239.686 487.425C237.788 489.061 235.436 487.437 233.494 487.369C227.915 487.174 222.335 486.791 216.756 486.211C200.213 484.492 183.67 480.991 167.162 475.358C122.275 460.044 73.8765 433.821 31.6092 359.962C28.9502 355.316 26.3124 350.424 23.7118 345.167C21.6321 340.963 19.5726 336.556 17.5493 331.843C10.8946 316.342 -4.61323 276.658 -1.3759 234.299ZM239.52 487.5C238.499 487.531 238.241 481.034 239.214 479.685C240.684 477.647 242.888 479.326 244.439 479.229C250.877 478.826 257.314 478.229 263.75 477.421C281.395 475.205 299.028 471.422 316.621 465.596C360.257 451.145 407.17 429.115 448.305 361.431C450.923 357.123 453.518 352.553 456.079 347.641C463.86 332.712 483.361 293.084 481.107 243.821C480.917 239.668 482.181 237.181 482.747 240.743C483.467 245.279 483.175 254.736 482.977 259.768C482.341 275.883 479.866 289.512 477.257 300.518C468.987 335.399 457.376 355.623 446.744 372.51C412.184 427.397 374.648 449.524 338.155 465.424C305.424 479.686 272.444 486.484 239.52 487.5Z" fill="#401C02"/>
</g>
<g filter="url(#filter1_f_862_12473)">
<path d="M-1.3759 234.299C-1.11402 230.872 0.0137008 230.529 0.342619 234.008C0.708055 237.874 -0.00231624 245.646 0.16871 250.335C0.621554 262.748 2.52441 273.541 4.48605 282.32C10.8075 310.612 19.5617 328.843 27.7268 344.288C54.5663 395.06 83.9667 420.77 112.648 440.147C154.689 468.549 197.072 477.584 239.49 479.5C240.56 479.548 240.738 486.518 239.686 487.425C237.788 489.061 235.436 487.437 233.494 487.369C227.915 487.174 222.335 486.791 216.756 486.211C200.213 484.492 183.67 480.991 167.162 475.358C122.275 460.044 73.8765 433.821 31.6092 359.962C28.9502 355.316 26.3124 350.424 23.7118 345.167C21.6321 340.963 19.5726 336.556 17.5493 331.843C10.8946 316.342 -4.61323 276.658 -1.3759 234.299ZM239.52 487.5C238.499 487.531 238.241 481.034 239.214 479.685C240.684 477.647 242.888 479.326 244.439 479.229C250.877 478.826 257.314 478.229 263.75 477.421C281.395 475.205 299.028 471.422 316.621 465.596C360.257 451.145 407.17 429.115 448.305 361.431C450.923 357.123 453.518 352.553 456.079 347.641C463.86 332.712 483.361 293.084 481.107 243.821C480.917 239.668 482.181 237.181 482.747 240.743C483.467 245.279 483.175 254.736 482.977 259.768C482.341 275.883 479.866 289.512 477.257 300.518C468.987 335.399 457.376 355.623 446.744 372.51C412.184 427.397 374.648 449.524 338.155 465.424C305.424 479.686 272.444 486.484 239.52 487.5Z" fill="#401C02"/>
</g>
</g>
<path d="M155.564 378.07C153.384 379.21 150.404 377.83 151.104 376.02C161.174 349.72 197.724 330.24 241.294 330.24C284.864 330.24 321.464 349.74 331.494 376.05C332.184 377.87 329.204 379.24 327.034 378.1C305.364 366.74 274.944 359.67 241.294 359.67C207.644 359.67 177.254 366.74 155.564 378.07Z" fill="url(#paint4_radial_862_12473)"/>
<path d="M155.564 378.07C153.384 379.21 150.404 377.83 151.104 376.02C161.174 349.72 197.724 330.24 241.294 330.24C284.864 330.24 321.464 349.74 331.494 376.05C332.184 377.87 329.204 379.24 327.034 378.1C305.364 366.74 274.944 359.67 241.294 359.67C207.644 359.67 177.254 366.74 155.564 378.07Z" stroke="url(#paint5_linear_862_12473)" stroke-width="2" stroke-miterlimit="10"/>
<path d="M88.0775 157.17C93.9075 149.38 130.717 103.59 177.747 120.76C179.22 121.265 180.477 122.256 181.313 123.57C182.149 124.883 182.513 126.442 182.347 127.99C182.067 129.91 180.947 131.77 177.987 132.67C165.197 136.57 138.327 127.97 104.217 155.62C101.274 158.058 98.4573 160.645 95.7775 163.37C93.8375 165.31 90.5975 167.81 87.9875 166.3C85.7675 165.01 85.7875 162.67 86.2475 160.84C86.6048 159.506 87.2272 158.258 88.0775 157.17Z" fill="#42210B"/>
<path d="M394.988 157.17C389.148 149.38 352.347 103.59 305.348 120.76C303.868 121.267 302.605 122.264 301.769 123.586C300.932 124.908 300.572 126.475 300.747 128.03C301.027 129.95 302.148 131.81 305.108 132.71C317.898 136.61 344.758 128.01 378.878 155.66C381.817 158.098 384.631 160.685 387.307 163.41C389.257 165.35 392.498 167.85 395.098 166.34C397.328 165.05 397.308 162.71 396.848 160.88C396.482 159.531 395.849 158.27 394.988 157.17Z" fill="#42210B"/>
<path d="M153.778 268.08C169.777 268.08 182.748 251.277 182.748 230.55C182.748 209.822 169.777 193.02 153.778 193.02C137.778 193.02 124.808 209.822 124.808 230.55C124.808 251.277 137.778 268.08 153.778 268.08Z" fill="url(#paint6_radial_862_12473)"/>
<path d="M153.778 268.08C169.777 268.08 182.748 251.277 182.748 230.55C182.748 209.822 169.777 193.02 153.778 193.02C137.778 193.02 124.808 209.822 124.808 230.55C124.808 251.277 137.778 268.08 153.778 268.08Z" stroke="url(#paint7_linear_862_12473)" stroke-width="2.5" stroke-miterlimit="10"/>
<path d="M329.278 268.08C345.277 268.08 358.248 251.277 358.248 230.55C358.248 209.822 345.277 193.02 329.278 193.02C313.278 193.02 300.308 209.822 300.308 230.55C300.308 251.277 313.278 268.08 329.278 268.08Z" fill="url(#paint8_radial_862_12473)"/>
<path d="M329.278 268.08C345.277 268.08 358.248 251.277 358.248 230.55C358.248 209.822 345.277 193.02 329.278 193.02C313.278 193.02 300.308 209.822 300.308 230.55C300.308 251.277 313.278 268.08 329.278 268.08Z" stroke="url(#paint9_linear_862_12473)" stroke-width="2.5" stroke-miterlimit="10"/>
<defs>
<filter id="filter0_f_862_12473" x="-26.8149" y="206.558" width="535.022" height="306.595" filterUnits="userSpaceOnUse" color-interpolation-filters="sRGB">
<feFlood flood-opacity="0" result="BackgroundImageFix"/>
<feBlend mode="normal" in="SourceGraphic" in2="BackgroundImageFix" result="shape"/>
<feGaussianBlur stdDeviation="12.5" result="effect1_foregroundBlur_862_12473"/>
</filter>
<filter id="filter1_f_862_12473" x="-41.8149" y="191.558" width="565.022" height="336.595" filterUnits="userSpaceOnUse" color-interpolation-filters="sRGB">
<feFlood flood-opacity="0" result="BackgroundImageFix"/>
<feBlend mode="normal" in="SourceGraphic" in2="BackgroundImageFix" result="shape"/>
<feGaussianBlur stdDeviation="20" result="effect1_foregroundBlur_862_12473"/>
</filter>
<radialGradient id="paint0_radial_862_12473" cx="0" cy="0" r="1" gradientUnits="userSpaceOnUse" gradientTransform="translate(241 -4.53898e-06) rotate(90) scale(482)">
<stop stop-color="#FFDE43"/>
<stop offset="1" stop-color="#FFBC00"/>
</radialGradient>
<radialGradient id="paint1_radial_862_12473" cx="0" cy="0" r="1" gradientUnits="userSpaceOnUse" gradientTransform="translate(241 64.5) rotate(90) scale(417.5)">
<stop stop-color="white" stop-opacity="0.5"/>
<stop offset="0.782278"/>
</radialGradient>
<radialGradient id="paint2_radial_862_12473" cx="0" cy="0" r="1" gradientUnits="userSpaceOnUse" gradientTransform="translate(241 64.5) rotate(90) scale(417.5)">
<stop stop-color="white" stop-opacity="0.5"/>
<stop offset="0.782278"/>
</radialGradient>
<radialGradient id="paint3_radial_862_12473" cx="0" cy="0" r="1" gradientUnits="userSpaceOnUse" gradientTransform="translate(241 -52.5) rotate(90) scale(534.5 722.835)">
<stop offset="0.0922635" stop-color="white"/>
<stop offset="0.670207" stop-color="white" stop-opacity="0"/>
</radialGradient>
<radialGradient id="paint4_radial_862_12473" cx="0" cy="0" r="1" gradientUnits="userSpaceOnUse" gradientTransform="translate(241.298 354.281) scale(68.1589 48.7621)">
<stop stop-color="#743C1C"/>
<stop offset="1" stop-color="#401C02"/>
</radialGradient>
<linearGradient id="paint5_linear_862_12473" x1="241.298" y1="379.875" x2="241.298" y2="328.687" gradientUnits="userSpaceOnUse">
<stop offset="0.265625" stop-color="#FFDE43"/>
<stop offset="1" stop-color="#F79D14"/>
</linearGradient>
<radialGradient id="paint6_radial_862_12473" cx="0" cy="0" r="1" gradientUnits="userSpaceOnUse" gradientTransform="translate(153.738 230.525) scale(36.9297 37.5951)">
<stop stop-color="#743C1C"/>
<stop offset="1" stop-color="#401C02"/>
</radialGradient>
<linearGradient id="paint7_linear_862_12473" x1="153.778" y1="270.192" x2="153.778" y2="190.604" gradientUnits="userSpaceOnUse">
<stop stop-color="#FFDE43"/>
<stop offset="0.22" stop-color="#FED93F"/>
<stop offset="0.51" stop-color="#FCC934"/>
<stop offset="0.82" stop-color="#F9AF21"/>
<stop offset="1" stop-color="#F79D14"/>
</linearGradient>
<radialGradient id="paint8_radial_862_12473" cx="0" cy="0" r="1" gradientUnits="userSpaceOnUse" gradientTransform="translate(329.238 230.525) scale(36.9297 37.5951)">
<stop stop-color="#743C1C"/>
<stop offset="1" stop-color="#401C02"/>
</radialGradient>
<linearGradient id="paint9_linear_862_12473" x1="329.278" y1="270.192" x2="329.278" y2="190.604" gradientUnits="userSpaceOnUse">
<stop stop-color="#FFDE43"/>
<stop offset="0.22" stop-color="#FED93F"/>
<stop offset="0.51" stop-color="#FCC934"/>
<stop offset="0.82" stop-color="#F9AF21"/>
<stop offset="1" stop-color="#F79D14"/>
</linearGradient>
</defs>
</svg>
