<svg width="661" height="685" viewBox="0 0 661 685" fill="none" xmlns="http://www.w3.org/2000/svg">
<path d="M337.18 565.36C470.38 565.36 578.36 457.38 578.36 324.18C578.36 190.98 470.38 83 337.18 83C203.98 83 96.0002 190.98 96.0002 324.18C96.0002 457.38 203.98 565.36 337.18 565.36Z" fill="url(#paint0_radial_862_12528)"/>
<g style="mix-blend-mode:soft-light">
<path d="M337.18 565.36C470.38 565.36 578.36 457.38 578.36 324.18C578.36 190.98 470.38 83 337.18 83C203.98 83 96.0002 190.98 96.0002 324.18C96.0002 457.38 203.98 565.36 337.18 565.36Z" fill="url(#paint1_radial_862_12528)"/>
</g>
<g style="mix-blend-mode:soft-light">
<path d="M337.18 565.36C470.38 565.36 578.36 457.38 578.36 324.18C578.36 190.98 470.38 83 337.18 83C203.98 83 96.0002 190.98 96.0002 324.18C96.0002 457.38 203.98 565.36 337.18 565.36Z" fill="url(#paint2_radial_862_12528)"/>
</g>
<g style="mix-blend-mode:overlay">
<path d="M337.18 565.36C470.38 565.36 578.36 457.38 578.36 324.18C578.36 190.98 470.38 83 337.18 83C203.98 83 96.0002 190.98 96.0002 324.18C96.0002 457.38 203.98 565.36 337.18 565.36Z" fill="url(#paint3_radial_862_12528)" fill-opacity="0.7"/>
</g>
<mask id="mask0_862_12528" style="mask-type:alpha" maskUnits="userSpaceOnUse" x="96" y="83" width="483" height="483">
<path d="M337.18 565.36C470.38 565.36 578.36 457.38 578.36 324.18C578.36 190.98 470.38 83 337.18 83C203.98 83 96.0002 190.98 96.0002 324.18C96.0002 457.38 203.98 565.36 337.18 565.36Z" fill="white"/>
</mask>
<g mask="url(#mask0_862_12528)">
<g filter="url(#filter0_f_862_12528)">
<path d="M94.6243 317.299C94.8862 313.872 96.0139 313.529 96.3429 317.008C96.7083 320.874 95.9979 328.646 96.169 333.335C96.6218 345.748 98.5247 356.541 100.486 365.32C106.808 393.612 115.562 411.843 123.727 427.288C150.567 478.06 179.967 503.77 208.648 523.147C250.69 551.549 293.073 560.584 335.49 562.5C336.56 562.548 336.739 569.518 335.686 570.425C333.788 572.061 331.437 570.437 329.494 570.369C323.915 570.174 318.335 569.791 312.756 569.211C296.213 567.492 279.671 563.991 263.162 558.358C218.275 543.044 169.877 516.821 127.609 442.962C124.95 438.316 122.313 433.424 119.712 428.167C117.632 423.963 115.573 419.556 113.55 414.843C106.895 399.342 91.387 359.658 94.6243 317.299ZM335.52 570.5C334.5 570.531 334.241 564.034 335.214 562.685C336.684 560.647 338.888 562.326 340.439 562.229C346.877 561.826 353.315 561.229 359.75 560.421C377.395 558.205 395.028 554.422 412.621 548.596C456.257 534.145 503.17 512.115 544.305 444.431C546.923 440.123 549.518 435.553 552.079 430.641C559.86 415.712 579.362 376.084 577.107 326.821C576.917 322.668 578.182 320.181 578.747 323.743C579.468 328.279 579.175 337.736 578.977 342.768C578.342 358.883 575.867 372.512 573.257 383.518C564.987 418.399 553.376 438.623 542.744 455.51C508.184 510.397 470.648 532.524 434.156 548.424C401.424 562.686 368.444 569.484 335.52 570.5Z" fill="#401C02"/>
</g>
<g filter="url(#filter1_f_862_12528)">
<path d="M94.6243 317.299C94.8862 313.872 96.0139 313.529 96.3429 317.008C96.7083 320.874 95.9979 328.646 96.169 333.335C96.6218 345.748 98.5247 356.541 100.486 365.32C106.808 393.612 115.562 411.843 123.727 427.288C150.567 478.06 179.967 503.77 208.648 523.147C250.69 551.549 293.073 560.584 335.49 562.5C336.56 562.548 336.739 569.518 335.686 570.425C333.788 572.061 331.437 570.437 329.494 570.369C323.915 570.174 318.335 569.791 312.756 569.211C296.213 567.492 279.671 563.991 263.162 558.358C218.275 543.044 169.877 516.821 127.609 442.962C124.95 438.316 122.313 433.424 119.712 428.167C117.632 423.963 115.573 419.556 113.55 414.843C106.895 399.342 91.387 359.658 94.6243 317.299ZM335.52 570.5C334.5 570.531 334.241 564.034 335.214 562.685C336.684 560.647 338.888 562.326 340.439 562.229C346.877 561.826 353.315 561.229 359.75 560.421C377.395 558.205 395.028 554.422 412.621 548.596C456.257 534.145 503.17 512.115 544.305 444.431C546.923 440.123 549.518 435.553 552.079 430.641C559.86 415.712 579.362 376.084 577.107 326.821C576.917 322.668 578.182 320.181 578.747 323.743C579.468 328.279 579.175 337.736 578.977 342.768C578.342 358.883 575.867 372.512 573.257 383.518C564.987 418.399 553.376 438.623 542.744 455.51C508.184 510.397 470.648 532.524 434.156 548.424C401.424 562.686 368.444 569.484 335.52 570.5Z" fill="#401C02"/>
</g>
</g>
<path d="M409.795 308.989C452.265 308.989 486.695 274.56 486.695 232.089C486.695 189.619 452.265 155.189 409.795 155.189C367.324 155.189 332.895 189.619 332.895 232.089C332.895 274.56 367.324 308.989 409.795 308.989Z" fill="url(#paint4_linear_862_12528)"/>
<path d="M409.795 308.989C452.265 308.989 486.695 274.56 486.695 232.089C486.695 189.619 452.265 155.189 409.795 155.189C367.324 155.189 332.895 189.619 332.895 232.089C332.895 274.56 367.324 308.989 409.795 308.989Z" stroke="url(#paint5_linear_862_12528)" stroke-width="2" stroke-miterlimit="10"/>
<path d="M230.405 354.56C260.748 354.56 285.345 329.962 285.345 299.62C285.345 269.277 260.748 244.68 230.405 244.68C200.063 244.68 175.465 269.277 175.465 299.62C175.465 329.962 200.063 354.56 230.405 354.56Z" fill="url(#paint6_linear_862_12528)"/>
<mask id="mask1_862_12528" style="mask-type:alpha" maskUnits="userSpaceOnUse" x="332" y="155" width="155" height="154">
<path d="M409.795 308.989C452.265 308.989 486.695 274.56 486.695 232.089C486.695 189.619 452.265 155.189 409.795 155.189C367.324 155.189 332.895 189.619 332.895 232.089C332.895 274.56 367.324 308.989 409.795 308.989Z" fill="url(#paint7_linear_862_12528)"/>
</mask>
<g mask="url(#mask1_862_12528)">
<g filter="url(#filter2_f_862_12528)">
<path d="M485.695 232.089C485.695 274.008 451.713 307.989 409.795 307.989C367.876 307.989 333.895 274.008 333.895 232.089C333.895 190.171 367.876 156.189 409.795 156.189C451.713 156.189 485.695 190.171 485.695 232.089Z" stroke="#743C1C" stroke-width="2"/>
</g>
</g>
<mask id="mask2_862_12528" style="mask-type:alpha" maskUnits="userSpaceOnUse" x="175" y="244" width="111" height="111">
<path d="M230.405 354.56C260.748 354.56 285.345 329.962 285.345 299.62C285.345 269.277 260.748 244.68 230.405 244.68C200.063 244.68 175.465 269.277 175.465 299.62C175.465 329.962 200.063 354.56 230.405 354.56Z" fill="url(#paint8_linear_862_12528)"/>
</mask>
<g mask="url(#mask2_862_12528)">
<g filter="url(#filter3_f_862_12528)">
<path d="M284.345 299.62C284.345 329.41 260.195 353.56 230.405 353.56C200.615 353.56 176.465 329.41 176.465 299.62C176.465 269.829 200.615 245.68 230.405 245.68C260.195 245.68 284.345 269.829 284.345 299.62Z" stroke="#743C1C" stroke-width="2"/>
</g>
</g>
<path d="M230.405 354.56C260.748 354.56 285.345 329.962 285.345 299.62C285.345 269.277 260.748 244.68 230.405 244.68C200.063 244.68 175.465 269.277 175.465 299.62C175.465 329.962 200.063 354.56 230.405 354.56Z" stroke="url(#paint9_linear_862_12528)" stroke-width="2" stroke-miterlimit="10"/>
<g filter="url(#filter4_f_862_12528)">
<circle cx="389.955" cy="217.67" r="26" fill="black"/>
</g>
<g filter="url(#filter5_f_862_12528)">
<circle cx="232.955" cy="311.67" r="20" fill="black"/>
</g>
<path d="M518.758 301.513C517.971 296.359 511.867 294.332 508.086 297.621L508.086 297.621C469.006 331.621 417.952 361.751 358.942 383.153C299.933 404.555 241.437 414.157 189.658 413.113C184.648 413.012 181.262 418.482 183.962 422.942C205.367 458.301 238.223 485.333 277.128 499.507C317.186 514.101 361.103 514.132 401.183 499.596C441.262 485.059 474.948 456.882 496.336 420.001C517.109 384.182 524.997 342.373 518.758 301.513Z" stroke="url(#paint10_linear_862_12528)" stroke-width="9" stroke-miterlimit="10"/>
<path d="M515.379 347.389C511.906 380.425 499.212 411.819 478.745 437.983C458.278 464.148 430.865 484.028 399.637 495.354C368.409 506.679 334.625 508.993 302.145 502.031C269.664 495.069 239.797 479.112 215.954 455.982C265.144 455.39 319.586 445.583 374.383 425.704C429.181 405.824 477.254 378.454 515.379 347.389Z" fill="#42210B"/>
<path d="M511.039 301.016C512.221 299.988 514.073 300.644 514.31 302.193C520.394 342.039 512.702 382.812 492.444 417.743C471.585 453.71 438.734 481.189 399.648 495.365C360.562 509.542 317.734 509.511 278.668 495.278C240.727 481.456 208.686 455.094 187.812 420.612C187 419.271 188.001 417.581 189.567 417.612C241.948 418.668 300.994 408.957 360.477 387.384C419.959 365.81 471.505 335.411 511.039 301.016Z" stroke="url(#paint11_radial_862_12528)" stroke-width="12" stroke-miterlimit="10"/>
<mask id="mask3_862_12528" style="mask-type:alpha" maskUnits="userSpaceOnUse" x="89" y="83" width="483" height="483">
<path d="M330.485 565.36C463.685 565.36 571.665 457.38 571.665 324.18C571.665 190.98 463.685 83 330.485 83C197.285 83 89.3047 190.98 89.3047 324.18C89.3047 457.38 197.285 565.36 330.485 565.36Z" fill="url(#paint12_radial_862_12528)"/>
</mask>
<g mask="url(#mask3_862_12528)">
<mask id="mask4_862_12528" style="mask-type:alpha" maskUnits="userSpaceOnUse" x="185" y="397" width="291" height="205">
<path d="M330.637 418.23C280.247 418.23 233.267 410.64 193.637 397.54C192.601 397.163 191.481 397.079 190.4 397.297C189.319 397.515 188.32 398.027 187.51 398.776C186.701 399.525 186.114 400.483 185.814 401.544C185.514 402.605 185.511 403.728 185.807 404.79C202.017 462.7 260.717 602 330.637 602C400.557 602 459.217 462.7 475.447 404.79C475.743 403.728 475.741 402.605 475.441 401.544C475.14 400.483 474.553 399.525 473.744 398.776C472.935 398.027 471.935 397.515 470.854 397.297C469.774 397.079 468.654 397.163 467.617 397.54C427.997 410.64 381.017 418.23 330.637 418.23Z" fill="black"/>
</mask>
<g mask="url(#mask4_862_12528)">
<g filter="url(#filter6_f_862_12528)">
<path d="M330.317 585.9C294.417 585.9 265.417 556.8 265.417 521V412H395.117V521C395.117 556.8 366.117 585.9 330.317 585.9Z" fill="#42210B"/>
</g>
</g>
</g>
<mask id="mask5_862_12528" style="mask-type:alpha" maskUnits="userSpaceOnUse" x="185" y="397" width="291" height="205">
<path d="M330.637 418.23C280.247 418.23 233.267 410.64 193.637 397.54C192.601 397.163 191.481 397.079 190.4 397.297C189.319 397.515 188.32 398.027 187.51 398.776C186.701 399.525 186.114 400.483 185.814 401.544C185.514 402.605 185.511 403.728 185.807 404.79C202.017 462.7 260.717 602 330.637 602C400.557 602 459.217 462.7 475.447 404.79C475.743 403.728 475.741 402.605 475.441 401.544C475.14 400.483 474.553 399.525 473.744 398.776C472.935 398.027 471.935 397.515 470.854 397.297C469.774 397.079 468.654 397.163 467.617 397.54C427.997 410.64 381.017 418.23 330.637 418.23Z" fill="black"/>
</mask>
<g mask="url(#mask5_862_12528)">
<path d="M330.317 585.9C294.417 585.9 265.417 556.8 265.417 521V412H395.117V521C395.117 556.8 366.117 585.9 330.317 585.9Z" fill="url(#paint13_radial_862_12528)"/>
<g style="mix-blend-mode:multiply">
<path d="M330.317 585.9C294.417 585.9 265.417 556.9 265.417 521V412H395.117V521C395.117 556.9 366.117 585.9 330.317 585.9Z" fill="url(#paint14_radial_862_12528)"/>
</g>
<g style="mix-blend-mode:multiply" opacity="0.5" filter="url(#filter7_f_862_12528)">
<path d="M337.417 468H323.417V531H337.417V468Z" fill="#CF4F87"/>
</g>
</g>
<mask id="mask6_862_12528" style="mask-type:alpha" maskUnits="userSpaceOnUse" x="265" y="412" width="131" height="174">
<g style="mix-blend-mode:multiply">
<path d="M330.317 585.9C294.417 585.9 265.417 556.9 265.417 521V412H395.117V521C395.117 556.9 366.117 585.9 330.317 585.9Z" fill="black"/>
</g>
</mask>
<g mask="url(#mask6_862_12528)">
<g filter="url(#filter8_f_862_12528)">
<ellipse cx="323.303" cy="416.9" rx="101.912" ry="64.0258" transform="rotate(-8.19565 323.303 416.9)" fill="#42210B"/>
</g>
</g>
<path d="M513.732 298.651C513.902 299.697 514.08 300.693 514.204 301.711C514.328 302.728 514.496 303.56 514.616 304.485C514.645 304.663 514.665 304.839 514.684 305.015C514.822 305.954 514.941 306.889 515.059 307.824C515.177 308.759 515.253 309.534 515.336 310.382C515.398 310.891 515.447 311.417 515.489 311.922C515.522 312.141 515.541 312.378 515.561 312.605C515.618 313.144 515.672 313.641 515.704 314.205C515.728 314.412 515.742 314.618 515.757 314.824C515.82 315.556 515.871 316.296 515.922 317.037C515.984 318.063 516.046 319.029 516.103 320.024C516.103 320.024 516.103 320.024 516.091 320.093C516.137 321.036 516.183 321.978 516.207 322.927C516.289 325.044 516.324 327.132 516.317 329.233C516.31 330.248 516.302 331.262 516.285 332.275C516.268 333.287 516.244 333.994 516.213 334.852C516.177 336.145 516.121 337.435 516.046 338.712C515.998 339.557 515.948 340.411 515.89 341.254L515.87 341.362C515.814 342.178 515.751 342.99 515.682 343.797L515.577 345.078C515.501 345.847 515.426 346.615 515.34 347.382C477.254 378.454 429.178 405.844 374.382 425.714C319.586 445.583 265.143 455.4 215.954 455.983L214.302 454.359L213.398 453.447L211.677 451.699L211.599 451.624C211.016 451.013 210.424 450.4 209.895 449.778C209.043 448.855 208.197 447.903 207.283 446.928C206.706 446.287 206.141 445.638 205.595 444.993C205.049 444.348 204.271 443.468 203.609 442.68C202.269 441.072 200.953 439.447 199.655 437.774C199.066 437.03 198.489 436.277 197.921 435.526L197.872 435.518C197.272 434.721 196.674 433.914 196.096 433.11C195.653 432.514 195.217 431.939 194.801 431.306C194.678 431.142 194.566 430.97 194.445 430.796C194.145 430.367 193.827 429.925 193.531 429.476L193.144 428.91C192.843 428.491 192.555 428.054 192.275 427.628C191.791 426.923 191.32 426.199 190.847 425.486C190.375 424.772 189.828 423.903 189.332 423.094L189.047 422.637L187.583 420.245C187.06 419.359 186.526 418.473 186.026 417.571C239.289 419.154 299.676 409.499 360.519 387.432C421.361 365.365 473.858 334.017 513.732 298.651Z" fill="url(#paint15_linear_862_12528)"/>
<path d="M509.686 302.188C511.465 300.655 514.242 301.635 514.575 303.96C516.576 317.933 516.89 332.101 515.505 346.159C515.428 346.947 515.038 347.668 514.422 348.167C476.451 378.911 428.72 406.01 374.382 425.714C320.044 445.417 266.052 455.235 217.187 455.966C216.395 455.978 215.634 455.674 215.07 455.119C204.996 445.216 196.157 434.138 188.739 422.128C187.505 420.13 189.009 417.598 191.357 417.634C243.291 418.436 301.672 408.702 360.478 387.374C419.285 366.046 470.332 336.101 509.686 302.188Z" stroke="url(#paint16_radial_862_12528)" stroke-width="6" stroke-miterlimit="10"/>
<mask id="mask7_862_12528" style="mask-type:alpha" maskUnits="userSpaceOnUse" x="185" y="298" width="332" height="208">
<path d="M513.732 298.651C520.839 339.617 513.302 381.777 492.444 417.743C471.585 453.71 438.734 481.189 399.648 495.365C360.562 509.542 317.734 509.511 278.668 495.278C239.603 481.046 206.791 453.52 185.984 417.523C239.247 419.106 299.634 409.45 360.477 387.384C421.319 365.317 473.858 334.017 513.732 298.651Z" fill="url(#paint17_linear_862_12528)"/>
</mask>
<g mask="url(#mask7_862_12528)">
<g filter="url(#filter9_f_862_12528)">
<path d="M399.648 495.365C438.734 481.189 471.585 453.71 492.444 417.743C513.302 381.777 520.839 339.617 513.732 298.651C473.858 334.017 421.319 365.317 360.477 387.384C299.634 409.45 239.247 419.106 185.984 417.523C202.492 446.082 226.556 469.31 255.305 484.796" stroke="url(#paint18_linear_862_12528)" stroke-width="12" stroke-miterlimit="10"/>
</g>
</g>
<defs>
<filter id="filter0_f_862_12528" x="69.1853" y="289.558" width="535.022" height="306.595" filterUnits="userSpaceOnUse" color-interpolation-filters="sRGB">
<feFlood flood-opacity="0" result="BackgroundImageFix"/>
<feBlend mode="normal" in="SourceGraphic" in2="BackgroundImageFix" result="shape"/>
<feGaussianBlur stdDeviation="12.5" result="effect1_foregroundBlur_862_12528"/>
</filter>
<filter id="filter1_f_862_12528" x="54.1853" y="274.558" width="565.022" height="336.595" filterUnits="userSpaceOnUse" color-interpolation-filters="sRGB">
<feFlood flood-opacity="0" result="BackgroundImageFix"/>
<feBlend mode="normal" in="SourceGraphic" in2="BackgroundImageFix" result="shape"/>
<feGaussianBlur stdDeviation="20" result="effect1_foregroundBlur_862_12528"/>
</filter>
<filter id="filter2_f_862_12528" x="317.895" y="140.189" width="183.8" height="183.8" filterUnits="userSpaceOnUse" color-interpolation-filters="sRGB">
<feFlood flood-opacity="0" result="BackgroundImageFix"/>
<feBlend mode="normal" in="SourceGraphic" in2="BackgroundImageFix" result="shape"/>
<feGaussianBlur stdDeviation="7.5" result="effect1_foregroundBlur_862_12528"/>
</filter>
<filter id="filter3_f_862_12528" x="160.465" y="229.68" width="139.88" height="139.88" filterUnits="userSpaceOnUse" color-interpolation-filters="sRGB">
<feFlood flood-opacity="0" result="BackgroundImageFix"/>
<feBlend mode="normal" in="SourceGraphic" in2="BackgroundImageFix" result="shape"/>
<feGaussianBlur stdDeviation="7.5" result="effect1_foregroundBlur_862_12528"/>
</filter>
<filter id="filter4_f_862_12528" x="359.955" y="187.67" width="60" height="60" filterUnits="userSpaceOnUse" color-interpolation-filters="sRGB">
<feFlood flood-opacity="0" result="BackgroundImageFix"/>
<feBlend mode="normal" in="SourceGraphic" in2="BackgroundImageFix" result="shape"/>
<feGaussianBlur stdDeviation="2" result="effect1_foregroundBlur_862_12528"/>
</filter>
<filter id="filter5_f_862_12528" x="208.955" y="287.67" width="48" height="48" filterUnits="userSpaceOnUse" color-interpolation-filters="sRGB">
<feFlood flood-opacity="0" result="BackgroundImageFix"/>
<feBlend mode="normal" in="SourceGraphic" in2="BackgroundImageFix" result="shape"/>
<feGaussianBlur stdDeviation="2" result="effect1_foregroundBlur_862_12528"/>
</filter>
<filter id="filter6_f_862_12528" x="245.417" y="392" width="169.7" height="213.9" filterUnits="userSpaceOnUse" color-interpolation-filters="sRGB">
<feFlood flood-opacity="0" result="BackgroundImageFix"/>
<feBlend mode="normal" in="SourceGraphic" in2="BackgroundImageFix" result="shape"/>
<feGaussianBlur stdDeviation="10" result="effect1_foregroundBlur_862_12528"/>
</filter>
<filter id="filter7_f_862_12528" x="303.417" y="448" width="54" height="103" filterUnits="userSpaceOnUse" color-interpolation-filters="sRGB">
<feFlood flood-opacity="0" result="BackgroundImageFix"/>
<feBlend mode="normal" in="SourceGraphic" in2="BackgroundImageFix" result="shape"/>
<feGaussianBlur stdDeviation="10" result="effect1_foregroundBlur_862_12528"/>
</filter>
<filter id="filter8_f_862_12528" x="172.013" y="301.87" width="302.58" height="230.06" filterUnits="userSpaceOnUse" color-interpolation-filters="sRGB">
<feFlood flood-opacity="0" result="BackgroundImageFix"/>
<feBlend mode="normal" in="SourceGraphic" in2="BackgroundImageFix" result="shape"/>
<feGaussianBlur stdDeviation="25" result="effect1_foregroundBlur_862_12528"/>
</filter>
<filter id="filter9_f_862_12528" x="155.403" y="267.02" width="386.936" height="253.986" filterUnits="userSpaceOnUse" color-interpolation-filters="sRGB">
<feFlood flood-opacity="0" result="BackgroundImageFix"/>
<feBlend mode="normal" in="SourceGraphic" in2="BackgroundImageFix" result="shape"/>
<feGaussianBlur stdDeviation="10" result="effect1_foregroundBlur_862_12528"/>
</filter>
<radialGradient id="paint0_radial_862_12528" cx="0" cy="0" r="1" gradientUnits="userSpaceOnUse" gradientTransform="translate(337 83) rotate(90) scale(482)">
<stop stop-color="#FFDE43"/>
<stop offset="1" stop-color="#FFBC00"/>
</radialGradient>
<radialGradient id="paint1_radial_862_12528" cx="0" cy="0" r="1" gradientUnits="userSpaceOnUse" gradientTransform="translate(337 147.5) rotate(90) scale(417.5)">
<stop stop-color="white" stop-opacity="0.5"/>
<stop offset="0.782278"/>
</radialGradient>
<radialGradient id="paint2_radial_862_12528" cx="0" cy="0" r="1" gradientUnits="userSpaceOnUse" gradientTransform="translate(337 147.5) rotate(90) scale(417.5)">
<stop stop-color="white" stop-opacity="0.5"/>
<stop offset="0.782278"/>
</radialGradient>
<radialGradient id="paint3_radial_862_12528" cx="0" cy="0" r="1" gradientUnits="userSpaceOnUse" gradientTransform="translate(337 30.5) rotate(90) scale(534.5 722.835)">
<stop offset="0.0922635" stop-color="white"/>
<stop offset="0.670207" stop-color="white" stop-opacity="0"/>
</radialGradient>
<linearGradient id="paint4_linear_862_12528" x1="332.836" y1="232.118" x2="486.695" y2="232.118" gradientUnits="userSpaceOnUse">
<stop stop-color="#CCCCCC"/>
<stop offset="0.05" stop-color="#D5D5D5"/>
<stop offset="0.2" stop-color="#E9E9E9"/>
<stop offset="0.35" stop-color="#F6F6F6"/>
<stop offset="0.5" stop-color="#FAFAFA"/>
<stop offset="0.65" stop-color="#F6F6F6"/>
<stop offset="0.8" stop-color="#E9E9E9"/>
<stop offset="0.95" stop-color="#D5D5D5"/>
<stop offset="1" stop-color="#CCCCCC"/>
</linearGradient>
<linearGradient id="paint5_linear_862_12528" x1="409.795" y1="313.317" x2="409.795" y2="150.24" gradientUnits="userSpaceOnUse">
<stop stop-color="#FFDE43"/>
<stop offset="0.22" stop-color="#FED93F"/>
<stop offset="0.51" stop-color="#FCC934"/>
<stop offset="0.82" stop-color="#F9AF21"/>
<stop offset="1" stop-color="#F79D14"/>
</linearGradient>
<linearGradient id="paint6_linear_862_12528" x1="175.423" y1="299.64" x2="285.345" y2="299.64" gradientUnits="userSpaceOnUse">
<stop stop-color="#CCCCCC"/>
<stop offset="0.05" stop-color="#D5D5D5"/>
<stop offset="0.2" stop-color="#E9E9E9"/>
<stop offset="0.35" stop-color="#F6F6F6"/>
<stop offset="0.5" stop-color="#FAFAFA"/>
<stop offset="0.65" stop-color="#F6F6F6"/>
<stop offset="0.8" stop-color="#E9E9E9"/>
<stop offset="0.95" stop-color="#D5D5D5"/>
<stop offset="1" stop-color="#CCCCCC"/>
</linearGradient>
<linearGradient id="paint7_linear_862_12528" x1="332.836" y1="232.118" x2="486.695" y2="232.118" gradientUnits="userSpaceOnUse">
<stop stop-color="#CCCCCC"/>
<stop offset="0.05" stop-color="#D5D5D5"/>
<stop offset="0.2" stop-color="#E9E9E9"/>
<stop offset="0.35" stop-color="#F6F6F6"/>
<stop offset="0.5" stop-color="#FAFAFA"/>
<stop offset="0.65" stop-color="#F6F6F6"/>
<stop offset="0.8" stop-color="#E9E9E9"/>
<stop offset="0.95" stop-color="#D5D5D5"/>
<stop offset="1" stop-color="#CCCCCC"/>
</linearGradient>
<linearGradient id="paint8_linear_862_12528" x1="175.423" y1="299.64" x2="285.345" y2="299.64" gradientUnits="userSpaceOnUse">
<stop stop-color="#CCCCCC"/>
<stop offset="0.05" stop-color="#D5D5D5"/>
<stop offset="0.2" stop-color="#E9E9E9"/>
<stop offset="0.35" stop-color="#F6F6F6"/>
<stop offset="0.5" stop-color="#FAFAFA"/>
<stop offset="0.65" stop-color="#F6F6F6"/>
<stop offset="0.8" stop-color="#E9E9E9"/>
<stop offset="0.95" stop-color="#D5D5D5"/>
<stop offset="1" stop-color="#CCCCCC"/>
</linearGradient>
<linearGradient id="paint9_linear_862_12528" x1="230.405" y1="357.652" x2="230.405" y2="241.144" gradientUnits="userSpaceOnUse">
<stop stop-color="#FFDE43"/>
<stop offset="0.22" stop-color="#FED93F"/>
<stop offset="0.51" stop-color="#FCC934"/>
<stop offset="0.82" stop-color="#F9AF21"/>
<stop offset="1" stop-color="#F79D14"/>
</linearGradient>
<linearGradient id="paint10_linear_862_12528" x1="327.653" y1="513.462" x2="371.633" y2="265.673" gradientUnits="userSpaceOnUse">
<stop offset="0.265625" stop-color="#FFDE43"/>
<stop offset="1" stop-color="#F79D14"/>
</linearGradient>
<radialGradient id="paint11_radial_862_12528" cx="0" cy="0" r="1" gradientUnits="userSpaceOnUse" gradientTransform="translate(349.36 389.924) rotate(10.0647) scale(199.187 118.879)">
<stop stop-color="#743C1C"/>
<stop offset="1" stop-color="#401C02"/>
</radialGradient>
<radialGradient id="paint12_radial_862_12528" cx="0" cy="0" r="1" gradientUnits="userSpaceOnUse" gradientTransform="translate(330.305 83) rotate(90) scale(482)">
<stop stop-color="#FFDE43"/>
<stop offset="1" stop-color="#FFBC00"/>
</radialGradient>
<radialGradient id="paint13_radial_862_12528" cx="0" cy="0" r="1" gradientUnits="userSpaceOnUse" gradientTransform="translate(331.545 486.591) scale(80.9374 97.6186)">
<stop offset="0.3" stop-color="#F076AC"/>
<stop offset="0.4761" stop-color="#ED73A9"/>
<stop offset="0.6236" stop-color="#E2699F"/>
<stop offset="0.7609" stop-color="#D1588E"/>
<stop offset="1" stop-color="#B94176"/>
</radialGradient>
<radialGradient id="paint14_radial_862_12528" cx="0" cy="0" r="1" gradientUnits="userSpaceOnUse" gradientTransform="translate(330.268 498.958) scale(74.0615 226.286)">
<stop offset="0.2933" stop-color="#D86B9B" stop-opacity="0"/>
<stop offset="0.4603" stop-color="#D46998" stop-opacity="0.2363"/>
<stop offset="0.6135" stop-color="#C96491" stop-opacity="0.4531"/>
<stop offset="0.7614" stop-color="#B75B84" stop-opacity="0.6623"/>
<stop offset="0.905" stop-color="#9D4E71" stop-opacity="0.8656"/>
<stop offset="1" stop-color="#874462"/>
</radialGradient>
<linearGradient id="paint15_linear_862_12528" x1="198.29" y1="347.794" x2="505.586" y2="402.337" gradientUnits="userSpaceOnUse">
<stop stop-color="#CCCCCC"/>
<stop offset="0.05" stop-color="#D5D5D5"/>
<stop offset="0.2" stop-color="#E9E9E9"/>
<stop offset="0.35" stop-color="#F6F6F6"/>
<stop offset="0.5" stop-color="#FAFAFA"/>
<stop offset="0.65" stop-color="#F6F6F6"/>
<stop offset="0.8" stop-color="#E9E9E9"/>
<stop offset="0.95" stop-color="#D5D5D5"/>
<stop offset="1" stop-color="#CCCCCC"/>
</linearGradient>
<radialGradient id="paint16_radial_862_12528" cx="0" cy="0" r="1" gradientUnits="userSpaceOnUse" gradientTransform="translate(361.812 391.077) rotate(-19.9353) scale(129.13 129.13)">
<stop stop-color="#401C02"/>
<stop offset="1" stop-color="#401C02"/>
</radialGradient>
<linearGradient id="paint17_linear_862_12528" x1="639814" y1="112513" x2="626740" y2="76465.1" gradientUnits="userSpaceOnUse">
<stop stop-color="#401C02"/>
<stop offset="1" stop-color="#401C02"/>
</linearGradient>
<linearGradient id="paint18_linear_862_12528" x1="639814" y1="112513" x2="626740" y2="76465.1" gradientUnits="userSpaceOnUse">
<stop stop-color="#401C02"/>
<stop offset="1" stop-color="#401C02"/>
</linearGradient>
</defs>
</svg>
