<svg width="483" height="483" viewBox="0 0 483 483" fill="none" xmlns="http://www.w3.org/2000/svg">
<path d="M241.18 482.36C374.38 482.36 482.36 374.38 482.36 241.18C482.36 107.98 374.38 0 241.18 0C107.98 0 0 107.98 0 241.18C0 374.38 107.98 482.36 241.18 482.36Z" fill="url(#paint0_radial_862_12536)"/>
<g style="mix-blend-mode:soft-light">
<path d="M241.18 482.36C374.38 482.36 482.36 374.38 482.36 241.18C482.36 107.98 374.38 0 241.18 0C107.98 0 0 107.98 0 241.18C0 374.38 107.98 482.36 241.18 482.36Z" fill="url(#paint1_radial_862_12536)"/>
</g>
<g style="mix-blend-mode:soft-light">
<path d="M241.18 482.36C374.38 482.36 482.36 374.38 482.36 241.18C482.36 107.98 374.38 0 241.18 0C107.98 0 0 107.98 0 241.18C0 374.38 107.98 482.36 241.18 482.36Z" fill="url(#paint2_radial_862_12536)"/>
</g>
<g style="mix-blend-mode:overlay">
<path d="M241.18 482.36C374.38 482.36 482.36 374.38 482.36 241.18C482.36 107.98 374.38 0 241.18 0C107.98 0 0 107.98 0 241.18C0 374.38 107.98 482.36 241.18 482.36Z" fill="url(#paint3_radial_862_12536)" fill-opacity="0.7"/>
</g>
<mask id="mask0_862_12536" style="mask-type:alpha" maskUnits="userSpaceOnUse" x="0" y="0" width="483" height="483">
<path d="M241.18 482.36C374.38 482.36 482.36 374.38 482.36 241.18C482.36 107.98 374.38 0 241.18 0C107.98 0 0 107.98 0 241.18C0 374.38 107.98 482.36 241.18 482.36Z" fill="white"/>
</mask>
<g mask="url(#mask0_862_12536)">
<g filter="url(#filter0_f_862_12536)">
<path d="M-1.3759 234.299C-1.11402 230.872 0.0137008 230.529 0.342619 234.008C0.708055 237.874 -0.00231624 245.646 0.16871 250.335C0.621554 262.748 2.52441 273.541 4.48605 282.32C10.8075 310.612 19.5617 328.843 27.7268 344.288C54.5663 395.06 83.9667 420.77 112.648 440.147C154.689 468.549 197.072 477.584 239.49 479.5C240.56 479.548 240.738 486.518 239.686 487.425C237.788 489.061 235.436 487.437 233.494 487.369C227.915 487.174 222.335 486.791 216.756 486.211C200.213 484.492 183.67 480.991 167.162 475.358C122.275 460.044 73.8765 433.821 31.6092 359.962C28.9502 355.316 26.3124 350.424 23.7118 345.167C21.6321 340.963 19.5726 336.556 17.5493 331.843C10.8946 316.342 -4.61323 276.658 -1.3759 234.299ZM239.52 487.5C238.499 487.531 238.241 481.034 239.214 479.685C240.684 477.647 242.888 479.326 244.439 479.229C250.877 478.826 257.314 478.229 263.75 477.421C281.395 475.205 299.028 471.422 316.621 465.596C360.257 451.145 407.17 429.115 448.305 361.431C450.923 357.123 453.518 352.553 456.079 347.641C463.86 332.712 483.361 293.084 481.107 243.821C480.917 239.668 482.181 237.181 482.747 240.743C483.467 245.279 483.175 254.736 482.977 259.768C482.341 275.883 479.866 289.512 477.257 300.518C468.987 335.399 457.376 355.623 446.744 372.51C412.184 427.397 374.648 449.524 338.155 465.424C305.424 479.686 272.444 486.484 239.52 487.5Z" fill="#401C02"/>
</g>
<g filter="url(#filter1_f_862_12536)">
<path d="M-1.3759 234.299C-1.11402 230.872 0.0137008 230.529 0.342619 234.008C0.708055 237.874 -0.00231624 245.646 0.16871 250.335C0.621554 262.748 2.52441 273.541 4.48605 282.32C10.8075 310.612 19.5617 328.843 27.7268 344.288C54.5663 395.06 83.9667 420.77 112.648 440.147C154.689 468.549 197.072 477.584 239.49 479.5C240.56 479.548 240.738 486.518 239.686 487.425C237.788 489.061 235.436 487.437 233.494 487.369C227.915 487.174 222.335 486.791 216.756 486.211C200.213 484.492 183.67 480.991 167.162 475.358C122.275 460.044 73.8765 433.821 31.6092 359.962C28.9502 355.316 26.3124 350.424 23.7118 345.167C21.6321 340.963 19.5726 336.556 17.5493 331.843C10.8946 316.342 -4.61323 276.658 -1.3759 234.299ZM239.52 487.5C238.499 487.531 238.241 481.034 239.214 479.685C240.684 477.647 242.888 479.326 244.439 479.229C250.877 478.826 257.314 478.229 263.75 477.421C281.395 475.205 299.028 471.422 316.621 465.596C360.257 451.145 407.17 429.115 448.305 361.431C450.923 357.123 453.518 352.553 456.079 347.641C463.86 332.712 483.361 293.084 481.107 243.821C480.917 239.668 482.181 237.181 482.747 240.743C483.467 245.279 483.175 254.736 482.977 259.768C482.341 275.883 479.866 289.512 477.257 300.518C468.987 335.399 457.376 355.623 446.744 372.51C412.184 427.397 374.648 449.524 338.155 465.424C305.424 479.686 272.444 486.484 239.52 487.5Z" fill="#401C02"/>
</g>
</g>
<mask id="mask1_862_12536" style="mask-type:alpha" maskUnits="userSpaceOnUse" x="0" y="0" width="483" height="483">
<path d="M241.18 482.36C374.38 482.36 482.36 374.38 482.36 241.18C482.36 107.98 374.38 0 241.18 0C107.98 0 0 107.98 0 241.18C0 374.38 107.98 482.36 241.18 482.36Z" fill="url(#paint4_radial_862_12536)"/>
</mask>
<g mask="url(#mask1_862_12536)">
<g filter="url(#filter2_f_862_12536)">
<path d="M174.3 290.4H160.56C157.898 290.4 155.74 292.558 155.74 295.22V321.27C155.74 323.932 157.898 326.09 160.56 326.09H174.3C176.962 326.09 179.12 323.932 179.12 321.27V295.22C179.12 292.558 176.962 290.4 174.3 290.4Z" fill="#743C1C"/>
<path d="M202.05 317.34H188.31C185.648 317.34 183.49 319.498 183.49 322.16V348.21C183.49 350.872 185.648 353.03 188.31 353.03H202.05C204.712 353.03 206.87 350.872 206.87 348.21V322.16C206.87 319.498 204.712 317.34 202.05 317.34Z" fill="#743C1C"/>
<path d="M229.79 290.4H216.05C213.388 290.4 211.23 292.558 211.23 295.22V321.27C211.23 323.932 213.388 326.09 216.05 326.09H229.79C232.453 326.09 234.61 323.932 234.61 321.27V295.22C234.61 292.558 232.453 290.4 229.79 290.4Z" fill="#743C1C"/>
<path d="M257.54 317.34H243.8C241.138 317.34 238.98 319.498 238.98 322.16V348.21C238.98 350.872 241.138 353.03 243.8 353.03H257.54C260.203 353.03 262.36 350.872 262.36 348.21V322.16C262.36 319.498 260.203 317.34 257.54 317.34Z" fill="#743C1C"/>
<path d="M285.29 290.4H271.55C268.888 290.4 266.73 292.558 266.73 295.22V321.27C266.73 323.932 268.888 326.09 271.55 326.09H285.29C287.953 326.09 290.11 323.932 290.11 321.27V295.22C290.11 292.558 287.953 290.4 285.29 290.4Z" fill="#743C1C"/>
<path d="M367.04 290.4H308.4C301.502 290.4 295.91 295.992 295.91 302.89V340.53C295.91 347.428 301.502 353.02 308.4 353.02H367.04C373.938 353.02 379.53 347.428 379.53 340.53V302.89C379.53 295.992 373.938 290.4 367.04 290.4Z" fill="#743C1C"/>
<mask id="mask2_862_12536" style="mask-type:alpha" maskUnits="userSpaceOnUse" x="295" y="290" width="85" height="64">
<path d="M367.04 290.4H308.4C301.502 290.4 295.91 295.992 295.91 302.89V340.53C295.91 347.428 301.502 353.02 308.4 353.02H367.04C373.938 353.02 379.53 347.428 379.53 340.53V302.89C379.53 295.992 373.938 290.4 367.04 290.4Z" fill="url(#paint5_linear_862_12536)"/>
</mask>
<g mask="url(#mask2_862_12536)">
<g filter="url(#filter3_f_862_12536)">
<path d="M295.873 303.3C295.773 301.3 296.273 299.2 297.173 297.3C298.073 295.4 299.473 293.8 301.173 292.6C302.873 291.4 304.973 290.6 307.073 290.4C308.173 290.3 309.173 290.3 310.173 290.3L313.273 290.2C321.473 290.1 329.573 290 337.773 290C345.973 290 354.073 290 362.273 290.2L365.373 290.3C366.373 290.3 367.373 290.3 368.473 290.4C370.573 290.7 372.573 291.4 374.373 292.6C376.073 293.8 377.473 295.5 378.373 297.3C379.273 299.2 379.773 301.2 379.673 303.3C379.573 301.3 378.973 299.3 377.973 297.5C376.973 295.8 375.573 294.3 373.873 293.2C372.173 292.2 370.273 291.5 368.373 291.3C367.373 291.3 366.373 291.3 365.373 291.3L362.273 291.4C354.073 291.5 345.973 291.6 337.773 291.6C329.573 291.6 321.473 291.6 313.273 291.4L310.173 291.3C309.173 291.3 308.173 291.3 307.173 291.3C305.173 291.5 303.273 292.1 301.673 293.2C299.973 294.3 298.573 295.7 297.573 297.5C296.473 299.2 295.973 301.2 295.873 303.3Z" fill="#743C1C"/>
</g>
</g>
<path d="M146.21 290.4H114.82C112.158 290.4 110 292.558 110 295.22V348.2C110 350.862 112.158 353.02 114.82 353.02H146.21C148.872 353.02 151.03 350.862 151.03 348.2V295.22C151.03 292.558 148.872 290.4 146.21 290.4Z" fill="#743C1C"/>
<mask id="mask3_862_12536" style="mask-type:alpha" maskUnits="userSpaceOnUse" x="110" y="290" width="42" height="64">
<path d="M146.21 290.4H114.82C112.158 290.4 110 292.558 110 295.22V348.2C110 350.862 112.158 353.02 114.82 353.02H146.21C148.872 353.02 151.03 350.862 151.03 348.2V295.22C151.03 292.558 148.872 290.4 146.21 290.4Z" fill="url(#paint6_linear_862_12536)"/>
</mask>
<g mask="url(#mask3_862_12536)">
<g filter="url(#filter4_f_862_12536)">
<path d="M150.781 348C150.881 350 149.581 351.9 147.781 352.7C146.881 353.1 145.781 353.1 144.881 353.1L141.981 353.2C138.081 353.3 134.181 353.3 130.381 353.3C126.481 353.3 122.581 353.3 118.781 353.2L115.781 353.1C114.881 353.1 113.781 353.1 112.881 352.7C110.981 351.9 109.681 350 109.881 348C109.981 350 111.281 351.7 113.081 352.3C113.981 352.6 114.881 352.6 115.881 352.6L118.781 352.5C122.681 352.4 126.581 352.4 130.381 352.4C134.281 352.4 138.181 352.4 141.981 352.5L144.881 352.6C145.881 352.6 146.781 352.7 147.681 352.3C149.381 351.7 150.781 349.9 150.781 348Z" fill="#743C1C"/>
<path d="M109.866 295.3C109.766 293.3 111.066 291.4 112.866 290.6C113.866 290.2 114.866 290.3 115.866 290.2L118.766 290.1C122.666 290 126.566 290 130.366 290C134.266 290 138.166 290 141.966 290.1L144.866 290.2C145.766 290.2 146.866 290.2 147.766 290.6C149.666 291.4 150.966 293.3 150.766 295.3C150.666 293.3 149.366 291.6 147.566 291C146.666 290.7 145.766 290.7 144.766 290.7L141.866 290.8C137.966 290.9 134.066 290.9 130.266 290.9C126.366 290.9 122.466 290.9 118.666 290.8L115.866 290.7C114.866 290.7 113.966 290.6 113.066 291C111.266 291.6 109.966 293.4 109.866 295.3Z" fill="#743C1C"/>
</g>
</g>
<path d="M466.63 353.87L463.03 351.07L407.73 308.67L401.53 303.87L397.63 300.87C392.23 296.77 385.63 294.57 378.93 295.07C378.03 295.17 377.13 295.27 376.23 295.47C370.93 296.47 365.93 298.97 361.83 303.07C359.03 305.87 356.93 309.17 355.63 312.67C354.63 315.17 354.13 317.87 353.93 320.57C353.43 327.07 355.63 333.67 359.73 338.87L362.63 342.67V342.77L365.73 346.77L409.73 404.17L413.03 408.27C422.13 419.67 436.83 425.37 451.13 422.47C457.93 421.07 464.33 417.97 469.63 412.97C477.73 405.47 481.93 395.27 482.03 385.17C482.33 372.87 476.33 361.37 466.63 353.87ZM398.23 339.47C390.23 347.47 377.23 347.47 369.23 339.47C368.73 338.97 368.13 338.37 367.73 337.77C361.13 329.47 361.83 317.17 370.03 309.77C377.43 303.07 388.83 302.77 396.53 308.97C396.83 309.17 397.13 309.47 397.33 309.67C406.23 317.57 406.53 331.17 398.23 339.47ZM464.93 402.87C453.23 416.57 432.13 416.57 420.43 402.87C411.23 392.07 411.23 375.87 420.43 365.07C432.13 351.37 453.23 351.37 464.93 365.07C474.13 375.87 474.13 392.07 464.93 402.87Z" fill="#743C1C"/>
<mask id="mask4_862_12536" style="mask-type:alpha" maskUnits="userSpaceOnUse" x="353" y="295" width="130" height="129">
<path d="M466.63 353.87L463.03 351.07L407.73 308.67L401.53 303.87L397.63 300.87C392.23 296.77 385.63 294.57 378.93 295.07C378.03 295.17 377.13 295.27 376.23 295.47C370.93 296.47 365.93 298.97 361.83 303.07C359.03 305.87 356.93 309.17 355.63 312.67C354.63 315.17 354.13 317.87 353.93 320.57C353.43 327.07 355.63 333.67 359.73 338.87L362.63 342.67V342.77L365.73 346.77L409.73 404.17L413.03 408.27C422.13 419.67 436.83 425.37 451.13 422.47C457.93 421.07 464.33 417.97 469.63 412.97C477.73 405.47 481.93 395.27 482.03 385.17C482.33 372.87 476.33 361.37 466.63 353.87ZM398.23 339.47C390.23 347.47 377.23 347.47 369.23 339.47C368.73 338.97 368.13 338.37 367.73 337.77C361.13 329.47 361.83 317.17 370.03 309.77C377.43 303.07 388.83 302.77 396.53 308.97C396.83 309.17 397.13 309.47 397.33 309.67C406.23 317.57 406.53 331.17 398.23 339.47ZM464.93 402.87C453.23 416.57 432.13 416.57 420.43 402.87C411.23 392.07 411.23 375.87 420.43 365.07C432.13 351.37 453.23 351.37 464.93 365.07C474.13 375.87 474.13 392.07 464.93 402.87Z" fill="url(#paint7_linear_862_12536)"/>
</mask>
<g mask="url(#mask4_862_12536)">
<g filter="url(#filter5_f_862_12536)">
<path d="M398.261 310.3C400.261 312.1 401.761 314.4 402.861 316.9C403.961 319.4 404.461 322.1 404.561 324.8C404.661 330.3 402.361 335.7 398.561 339.6C394.661 343.5 389.261 345.7 383.761 345.6C381.061 345.6 378.361 345 375.861 343.9C373.361 342.8 371.161 341.2 369.261 339.3C373.161 343 378.461 345 383.761 345C389.061 344.9 394.261 342.8 397.961 339C401.761 335.3 403.861 330.1 403.961 324.8C404.061 319.5 401.961 314.2 398.261 310.3Z" fill="#743C1C"/>
</g>
</g>
<mask id="mask5_862_12536" style="mask-type:alpha" maskUnits="userSpaceOnUse" x="353" y="295" width="130" height="129">
<path d="M466.63 353.87L463.03 351.07L407.73 308.67L401.53 303.87L397.63 300.87C392.23 296.77 385.63 294.57 378.93 295.07C378.03 295.17 377.13 295.27 376.23 295.47C370.93 296.47 365.93 298.97 361.83 303.07C359.03 305.87 356.93 309.17 355.63 312.67C354.63 315.17 354.13 317.87 353.93 320.57C353.43 327.07 355.63 333.67 359.73 338.87L362.63 342.67V342.77L365.73 346.77L409.73 404.17L413.03 408.27C422.13 419.67 436.83 425.37 451.13 422.47C457.93 421.07 464.33 417.97 469.63 412.97C477.73 405.47 481.93 395.27 482.03 385.17C482.33 372.87 476.33 361.37 466.63 353.87ZM398.23 339.47C390.23 347.47 377.23 347.47 369.23 339.47C368.73 338.97 368.13 338.37 367.73 337.77C361.13 329.47 361.83 317.17 370.03 309.77C377.43 303.07 388.83 302.77 396.53 308.97C396.83 309.17 397.13 309.47 397.33 309.67C406.23 317.57 406.53 331.17 398.23 339.47ZM464.93 402.87C453.23 416.57 432.13 416.57 420.43 402.87C411.23 392.07 411.23 375.87 420.43 365.07C432.13 351.37 453.23 351.37 464.93 365.07C474.13 375.87 474.13 392.07 464.93 402.87Z" fill="url(#paint8_linear_862_12536)"/>
</mask>
<g mask="url(#mask5_862_12536)">
<g filter="url(#filter6_f_862_12536)">
<path d="M463.061 363.1C465.761 365.8 468.061 369 469.561 372.5C471.061 376 471.861 379.9 471.861 383.7C471.961 391.4 468.761 399.1 463.261 404.6C457.761 410.1 450.061 413.3 442.361 413.2C438.461 413.2 434.661 412.4 431.161 410.9C427.661 409.4 424.461 407.1 421.761 404.4C427.261 409.7 434.861 412.7 442.361 412.6C446.161 412.5 449.861 411.8 453.361 410.4C456.861 409 460.061 406.8 462.661 404.1C465.361 401.4 467.461 398.3 468.961 394.8C470.461 391.3 471.161 387.6 471.161 383.8C471.361 376.2 468.361 368.6 463.061 363.1Z" fill="#743C1C"/>
</g>
</g>
<mask id="mask6_862_12536" style="mask-type:alpha" maskUnits="userSpaceOnUse" x="353" y="295" width="130" height="129">
<path d="M466.63 353.87L463.03 351.07L407.73 308.67L401.53 303.87L397.63 300.87C392.23 296.77 385.63 294.57 378.93 295.07C378.03 295.17 377.13 295.27 376.23 295.47C370.93 296.47 365.93 298.97 361.83 303.07C359.03 305.87 356.93 309.17 355.63 312.67C354.63 315.17 354.13 317.87 353.93 320.57C353.43 327.07 355.63 333.67 359.73 338.87L362.63 342.67V342.77L365.73 346.77L409.73 404.17L413.03 408.27C422.13 419.67 436.83 425.37 451.13 422.47C457.93 421.07 464.33 417.97 469.63 412.97C477.73 405.47 481.93 395.27 482.03 385.17C482.33 372.87 476.33 361.37 466.63 353.87ZM398.23 339.47C390.23 347.47 377.23 347.47 369.23 339.47C368.73 338.97 368.13 338.37 367.73 337.77C361.13 329.47 361.83 317.17 370.03 309.77C377.43 303.07 388.83 302.77 396.53 308.97C396.83 309.17 397.13 309.47 397.33 309.67C406.23 317.57 406.53 331.17 398.23 339.47ZM464.93 402.87C453.23 416.57 432.13 416.57 420.43 402.87C411.23 392.07 411.23 375.87 420.43 365.07C432.13 351.37 453.23 351.37 464.93 365.07C474.13 375.87 474.13 392.07 464.93 402.87Z" fill="url(#paint9_linear_862_12536)"/>
</mask>
<g mask="url(#mask6_862_12536)">
<g filter="url(#filter7_f_862_12536)">
<path d="M361.561 303.4C364.061 300.8 367.061 298.7 370.361 297.3C373.661 295.8 377.261 295.1 380.861 295C384.461 294.9 388.161 295.6 391.461 297C394.861 298.4 397.961 300.4 400.561 303H400.461C405.661 306.9 410.961 310.9 416.161 314.9L431.861 326.8C437.061 330.8 442.361 334.7 447.461 338.8L463.061 350.8L462.961 350.7C465.561 352.2 467.961 354 470.161 356.1C470.761 356.6 471.261 357.2 471.761 357.7L473.261 359.4C474.261 360.5 475.061 361.8 475.961 363C479.161 368.1 481.261 373.9 481.961 379.8L482.061 380.9C482.061 381.3 482.061 381.6 482.161 382L482.261 384.2C482.361 384.9 482.161 385.7 482.161 386.4C482.061 387.1 482.061 387.9 482.061 388.6C481.661 391.6 481.061 394.5 480.061 397.3C478.061 402.9 474.761 408 470.561 412.1C474.661 407.8 477.761 402.7 479.561 397.1C480.561 394.3 480.961 391.4 481.361 388.5C481.461 387.8 481.461 387 481.461 386.3C481.461 385.6 481.561 384.8 481.461 384.1L481.361 381.9C481.361 381.5 481.361 381.2 481.261 380.8L481.061 379.7C480.261 373.9 478.161 368.4 474.961 363.5C474.061 362.4 473.261 361.1 472.361 360L470.861 358.4C470.361 357.9 469.861 357.3 469.361 356.8C467.261 354.8 464.861 353.1 462.361 351.6L446.661 340C441.461 336 436.261 332 431.061 328L415.461 316C410.261 312 405.061 307.9 399.961 303.9C397.461 301.4 394.561 299.4 391.361 298C387.961 296.5 384.461 295.8 380.861 295.7C377.361 295.7 373.861 296.3 370.561 297.6C367.261 298.9 364.161 300.9 361.561 303.4Z" fill="#743C1C"/>
</g>
</g>
</g>
</g>
<path d="M364.961 319.71H123.201C122.135 319.71 121.271 320.574 121.271 321.64V322.24C121.271 323.306 122.135 324.17 123.201 324.17H364.961C366.026 324.17 366.891 323.306 366.891 322.24V321.64C366.891 320.574 366.026 319.71 364.961 319.71Z" fill="url(#paint10_radial_862_12536)"/>
<path d="M364.961 319.71H123.201C122.135 319.71 121.271 320.574 121.271 321.64V322.24C121.271 323.306 122.135 324.17 123.201 324.17H364.961C366.026 324.17 366.891 323.306 366.891 322.24V321.64C366.891 320.574 366.026 319.71 364.961 319.71Z" stroke="url(#paint11_linear_862_12536)" stroke-width="2" stroke-miterlimit="10"/>
<path d="M174.3 290.4H160.56C157.898 290.4 155.74 292.558 155.74 295.22V321.27C155.74 323.932 157.898 326.09 160.56 326.09H174.3C176.962 326.09 179.12 323.932 179.12 321.27V295.22C179.12 292.558 176.962 290.4 174.3 290.4Z" fill="url(#paint12_linear_862_12536)"/>
<path d="M202.05 317.34H188.31C185.648 317.34 183.49 319.498 183.49 322.16V348.21C183.49 350.872 185.648 353.03 188.31 353.03H202.05C204.712 353.03 206.87 350.872 206.87 348.21V322.16C206.87 319.498 204.712 317.34 202.05 317.34Z" fill="url(#paint13_linear_862_12536)"/>
<path d="M229.79 290.4H216.05C213.388 290.4 211.23 292.558 211.23 295.22V321.27C211.23 323.932 213.388 326.09 216.05 326.09H229.79C232.453 326.09 234.61 323.932 234.61 321.27V295.22C234.61 292.558 232.453 290.4 229.79 290.4Z" fill="url(#paint14_linear_862_12536)"/>
<path d="M257.54 317.34H243.8C241.138 317.34 238.98 319.498 238.98 322.16V348.21C238.98 350.872 241.138 353.03 243.8 353.03H257.54C260.203 353.03 262.36 350.872 262.36 348.21V322.16C262.36 319.498 260.203 317.34 257.54 317.34Z" fill="url(#paint15_linear_862_12536)"/>
<path d="M285.29 290.4H271.55C268.888 290.4 266.73 292.558 266.73 295.22V321.27C266.73 323.932 268.888 326.09 271.55 326.09H285.29C287.953 326.09 290.11 323.932 290.11 321.27V295.22C290.11 292.558 287.953 290.4 285.29 290.4Z" fill="url(#paint16_linear_862_12536)"/>
<path d="M466.63 353.87L463.03 351.07L407.73 308.67L401.53 303.87L397.63 300.87C392.23 296.77 385.63 294.57 378.93 295.07C378.03 295.17 377.13 295.27 376.23 295.47C370.93 296.47 365.93 298.97 361.83 303.07C359.03 305.87 356.93 309.17 355.63 312.67C354.63 315.17 354.13 317.87 353.93 320.57C353.43 327.07 355.63 333.67 359.73 338.87L362.63 342.67V342.77L365.73 346.77L409.73 404.17L413.03 408.27C422.13 419.67 436.83 425.37 451.13 422.47C457.93 421.07 464.33 417.97 469.63 412.97C477.73 405.47 481.93 395.27 482.03 385.17C482.33 372.87 476.33 361.37 466.63 353.87ZM398.23 339.47C390.23 347.47 377.23 347.47 369.23 339.47C368.73 338.97 368.13 338.37 367.73 337.77C361.13 329.47 361.83 317.17 370.03 309.77C377.43 303.07 388.83 302.77 396.53 308.97C396.83 309.17 397.13 309.47 397.33 309.67C406.23 317.57 406.53 331.17 398.23 339.47ZM464.93 402.87C453.23 416.57 432.13 416.57 420.43 402.87C411.23 392.07 411.23 375.87 420.43 365.07C432.13 351.37 453.23 351.37 464.93 365.07C474.13 375.87 474.13 392.07 464.93 402.87Z" fill="url(#paint17_linear_862_12536)"/>
<mask id="mask7_862_12536" style="mask-type:alpha" maskUnits="userSpaceOnUse" x="353" y="295" width="130" height="129">
<path d="M466.63 353.87L463.03 351.07L407.73 308.67L401.53 303.87L397.63 300.87C392.23 296.77 385.63 294.57 378.93 295.07C378.03 295.17 377.13 295.27 376.23 295.47C370.93 296.47 365.93 298.97 361.83 303.07C359.03 305.87 356.93 309.17 355.63 312.67C354.63 315.17 354.13 317.87 353.93 320.57C353.43 327.07 355.63 333.67 359.73 338.87L362.63 342.67V342.77L365.73 346.77L409.73 404.17L413.03 408.27C422.13 419.67 436.83 425.37 451.13 422.47C457.93 421.07 464.33 417.97 469.63 412.97C477.73 405.47 481.93 395.27 482.03 385.17C482.33 372.87 476.33 361.37 466.63 353.87ZM398.23 339.47C390.23 347.47 377.23 347.47 369.23 339.47C368.73 338.97 368.13 338.37 367.73 337.77C361.13 329.47 361.83 317.17 370.03 309.77C377.43 303.07 388.83 302.77 396.53 308.97C396.83 309.17 397.13 309.47 397.33 309.67C406.23 317.57 406.53 331.17 398.23 339.47ZM464.93 402.87C453.23 416.57 432.13 416.57 420.43 402.87C411.23 392.07 411.23 375.87 420.43 365.07C432.13 351.37 453.23 351.37 464.93 365.07C474.13 375.87 474.13 392.07 464.93 402.87Z" fill="url(#paint18_linear_862_12536)"/>
</mask>
<g mask="url(#mask7_862_12536)">
<g filter="url(#filter8_f_862_12536)">
<path d="M398.261 310.3C400.261 312.1 401.761 314.4 402.861 316.9C403.961 319.4 404.461 322.1 404.561 324.8C404.661 330.3 402.361 335.7 398.561 339.6C394.661 343.5 389.261 345.7 383.761 345.6C381.061 345.6 378.361 345 375.861 343.9C373.361 342.8 371.161 341.2 369.261 339.3C373.161 343 378.461 345 383.761 345C389.061 344.9 394.261 342.8 397.961 339C401.761 335.3 403.861 330.1 403.961 324.8C404.061 319.5 401.961 314.2 398.261 310.3Z" fill="#F2F2F2"/>
</g>
</g>
<mask id="mask8_862_12536" style="mask-type:alpha" maskUnits="userSpaceOnUse" x="353" y="295" width="130" height="129">
<path d="M466.63 353.87L463.03 351.07L407.73 308.67L401.53 303.87L397.63 300.87C392.23 296.77 385.63 294.57 378.93 295.07C378.03 295.17 377.13 295.27 376.23 295.47C370.93 296.47 365.93 298.97 361.83 303.07C359.03 305.87 356.93 309.17 355.63 312.67C354.63 315.17 354.13 317.87 353.93 320.57C353.43 327.07 355.63 333.67 359.73 338.87L362.63 342.67V342.77L365.73 346.77L409.73 404.17L413.03 408.27C422.13 419.67 436.83 425.37 451.13 422.47C457.93 421.07 464.33 417.97 469.63 412.97C477.73 405.47 481.93 395.27 482.03 385.17C482.33 372.87 476.33 361.37 466.63 353.87ZM398.23 339.47C390.23 347.47 377.23 347.47 369.23 339.47C368.73 338.97 368.13 338.37 367.73 337.77C361.13 329.47 361.83 317.17 370.03 309.77C377.43 303.07 388.83 302.77 396.53 308.97C396.83 309.17 397.13 309.47 397.33 309.67C406.23 317.57 406.53 331.17 398.23 339.47ZM464.93 402.87C453.23 416.57 432.13 416.57 420.43 402.87C411.23 392.07 411.23 375.87 420.43 365.07C432.13 351.37 453.23 351.37 464.93 365.07C474.13 375.87 474.13 392.07 464.93 402.87Z" fill="url(#paint19_linear_862_12536)"/>
</mask>
<g mask="url(#mask8_862_12536)">
<g filter="url(#filter9_f_862_12536)">
<path d="M463.061 363.1C465.761 365.8 468.061 369 469.561 372.5C471.061 376 471.861 379.9 471.861 383.7C471.961 391.4 468.761 399.1 463.261 404.6C457.761 410.1 450.061 413.3 442.361 413.2C438.461 413.2 434.661 412.4 431.161 410.9C427.661 409.4 424.461 407.1 421.761 404.4C427.261 409.7 434.861 412.7 442.361 412.6C446.161 412.5 449.861 411.8 453.361 410.4C456.861 409 460.061 406.8 462.661 404.1C465.361 401.4 467.461 398.3 468.961 394.8C470.461 391.3 471.161 387.6 471.161 383.8C471.361 376.2 468.361 368.6 463.061 363.1Z" fill="#F2F2F2"/>
</g>
</g>
<mask id="mask9_862_12536" style="mask-type:alpha" maskUnits="userSpaceOnUse" x="353" y="295" width="130" height="129">
<path d="M466.63 353.87L463.03 351.07L407.73 308.67L401.53 303.87L397.63 300.87C392.23 296.77 385.63 294.57 378.93 295.07C378.03 295.17 377.13 295.27 376.23 295.47C370.93 296.47 365.93 298.97 361.83 303.07C359.03 305.87 356.93 309.17 355.63 312.67C354.63 315.17 354.13 317.87 353.93 320.57C353.43 327.07 355.63 333.67 359.73 338.87L362.63 342.67V342.77L365.73 346.77L409.73 404.17L413.03 408.27C422.13 419.67 436.83 425.37 451.13 422.47C457.93 421.07 464.33 417.97 469.63 412.97C477.73 405.47 481.93 395.27 482.03 385.17C482.33 372.87 476.33 361.37 466.63 353.87ZM398.23 339.47C390.23 347.47 377.23 347.47 369.23 339.47C368.73 338.97 368.13 338.37 367.73 337.77C361.13 329.47 361.83 317.17 370.03 309.77C377.43 303.07 388.83 302.77 396.53 308.97C396.83 309.17 397.13 309.47 397.33 309.67C406.23 317.57 406.53 331.17 398.23 339.47ZM464.93 402.87C453.23 416.57 432.13 416.57 420.43 402.87C411.23 392.07 411.23 375.87 420.43 365.07C432.13 351.37 453.23 351.37 464.93 365.07C474.13 375.87 474.13 392.07 464.93 402.87Z" fill="url(#paint20_linear_862_12536)"/>
</mask>
<g mask="url(#mask9_862_12536)">
<g filter="url(#filter10_f_862_12536)">
<path d="M361.561 303.4C364.061 300.8 367.061 298.7 370.361 297.3C373.661 295.8 377.261 295.1 380.861 295C384.461 294.9 388.161 295.6 391.461 297C394.861 298.4 397.961 300.4 400.561 303H400.461C405.661 306.9 410.961 310.9 416.161 314.9L431.861 326.8C437.061 330.8 442.361 334.7 447.461 338.8L463.061 350.8L462.961 350.7C465.561 352.2 467.961 354 470.161 356.1C470.761 356.6 471.261 357.2 471.761 357.7L473.261 359.4C474.261 360.5 475.061 361.8 475.961 363C479.161 368.1 481.261 373.9 481.961 379.8L482.061 380.9C482.061 381.3 482.061 381.6 482.161 382L482.261 384.2C482.361 384.9 482.161 385.7 482.161 386.4C482.061 387.1 482.061 387.9 482.061 388.6C481.661 391.6 481.061 394.5 480.061 397.3C478.061 402.9 474.761 408 470.561 412.1C474.661 407.8 477.761 402.7 479.561 397.1C480.561 394.3 480.961 391.4 481.361 388.5C481.461 387.8 481.461 387 481.461 386.3C481.461 385.6 481.561 384.8 481.461 384.1L481.361 381.9C481.361 381.5 481.361 381.2 481.261 380.8L481.061 379.7C480.261 373.9 478.161 368.4 474.961 363.5C474.061 362.4 473.261 361.1 472.361 360L470.861 358.4C470.361 357.9 469.861 357.3 469.361 356.8C467.261 354.8 464.861 353.1 462.361 351.6L446.661 340C441.461 336 436.261 332 431.061 328L415.461 316C410.261 312 405.061 307.9 399.961 303.9C397.461 301.4 394.561 299.4 391.361 298C387.961 296.5 384.461 295.8 380.861 295.7C377.361 295.7 373.861 296.3 370.561 297.6C367.261 298.9 364.161 300.9 361.561 303.4Z" fill="#F2F2F2"/>
</g>
</g>
<path d="M367.04 290.4H308.4C301.502 290.4 295.91 295.992 295.91 302.89V340.53C295.91 347.428 301.502 353.02 308.4 353.02H367.04C373.938 353.02 379.53 347.428 379.53 340.53V302.89C379.53 295.992 373.938 290.4 367.04 290.4Z" fill="url(#paint21_linear_862_12536)"/>
<mask id="mask10_862_12536" style="mask-type:alpha" maskUnits="userSpaceOnUse" x="295" y="290" width="85" height="64">
<path d="M367.04 290.4H308.4C301.502 290.4 295.91 295.992 295.91 302.89V340.53C295.91 347.428 301.502 353.02 308.4 353.02H367.04C373.938 353.02 379.53 347.428 379.53 340.53V302.89C379.53 295.992 373.938 290.4 367.04 290.4Z" fill="url(#paint22_linear_862_12536)"/>
</mask>
<g mask="url(#mask10_862_12536)">
<g filter="url(#filter11_f_862_12536)">
<path d="M295.873 303.3C295.773 301.3 296.273 299.2 297.173 297.3C298.073 295.4 299.473 293.8 301.173 292.6C302.873 291.4 304.973 290.6 307.073 290.4C308.173 290.3 309.173 290.3 310.173 290.3L313.273 290.2C321.473 290.1 329.573 290 337.773 290C345.973 290 354.073 290 362.273 290.2L365.373 290.3C366.373 290.3 367.373 290.3 368.473 290.4C370.573 290.7 372.573 291.4 374.373 292.6C376.073 293.8 377.473 295.5 378.373 297.3C379.273 299.2 379.773 301.2 379.673 303.3C379.573 301.3 378.973 299.3 377.973 297.5C376.973 295.8 375.573 294.3 373.873 293.2C372.173 292.2 370.273 291.5 368.373 291.3C367.373 291.3 366.373 291.3 365.373 291.3L362.273 291.4C354.073 291.5 345.973 291.6 337.773 291.6C329.573 291.6 321.473 291.6 313.273 291.4L310.173 291.3C309.173 291.3 308.173 291.3 307.173 291.3C305.173 291.5 303.273 292.1 301.673 293.2C299.973 294.3 298.573 295.7 297.573 297.5C296.473 299.2 295.973 301.2 295.873 303.3Z" fill="#F2F2F2"/>
</g>
</g>
<path d="M146.21 290.4H114.82C112.158 290.4 110 292.558 110 295.22V348.2C110 350.862 112.158 353.02 114.82 353.02H146.21C148.872 353.02 151.03 350.862 151.03 348.2V295.22C151.03 292.558 148.872 290.4 146.21 290.4Z" fill="url(#paint23_linear_862_12536)"/>
<mask id="mask11_862_12536" style="mask-type:alpha" maskUnits="userSpaceOnUse" x="110" y="290" width="42" height="64">
<path d="M146.21 290.4H114.82C112.158 290.4 110 292.558 110 295.22V348.2C110 350.862 112.158 353.02 114.82 353.02H146.21C148.872 353.02 151.03 350.862 151.03 348.2V295.22C151.03 292.558 148.872 290.4 146.21 290.4Z" fill="url(#paint24_linear_862_12536)"/>
</mask>
<g mask="url(#mask11_862_12536)">
<g filter="url(#filter12_f_862_12536)">
<path d="M150.781 348C150.881 350 149.581 351.9 147.781 352.7C146.881 353.1 145.781 353.1 144.881 353.1L141.981 353.2C138.081 353.3 134.181 353.3 130.381 353.3C126.481 353.3 122.581 353.3 118.781 353.2L115.781 353.1C114.881 353.1 113.781 353.1 112.881 352.7C110.981 351.9 109.681 350 109.881 348C109.981 350 111.281 351.7 113.081 352.3C113.981 352.6 114.881 352.6 115.881 352.6L118.781 352.5C122.681 352.4 126.581 352.4 130.381 352.4C134.281 352.4 138.181 352.4 141.981 352.5L144.881 352.6C145.881 352.6 146.781 352.7 147.681 352.3C149.381 351.7 150.781 349.9 150.781 348Z" fill="#F2F2F2"/>
<path d="M109.866 295.3C109.766 293.3 111.066 291.4 112.866 290.6C113.866 290.2 114.866 290.3 115.866 290.2L118.766 290.1C122.666 290 126.566 290 130.366 290C134.266 290 138.166 290 141.966 290.1L144.866 290.2C145.766 290.2 146.866 290.2 147.766 290.6C149.666 291.4 150.966 293.3 150.766 295.3C150.666 293.3 149.366 291.6 147.566 291C146.666 290.7 145.766 290.7 144.766 290.7L141.866 290.8C137.966 290.9 134.066 290.9 130.266 290.9C126.366 290.9 122.466 290.9 118.666 290.8L115.866 290.7C114.866 290.7 113.966 290.6 113.066 291C111.266 291.6 109.966 293.4 109.866 295.3Z" fill="#F2F2F2"/>
</g>
</g>
<path d="M378.55 312.55H316.86C313.331 312.55 310.47 315.411 310.47 318.94V324.48C310.47 328.009 313.331 330.87 316.86 330.87H378.55C382.079 330.87 384.94 328.009 384.94 324.48V318.94C384.94 315.411 382.079 312.55 378.55 312.55Z" fill="url(#paint25_linear_862_12536)"/>
<mask id="mask12_862_12536" style="mask-type:alpha" maskUnits="userSpaceOnUse" x="310" y="312" width="75" height="19">
<path d="M378.55 312.55H316.86C313.331 312.55 310.47 315.411 310.47 318.94V324.48C310.47 328.009 313.331 330.87 316.86 330.87H378.55C382.079 330.87 384.94 328.009 384.94 324.48V318.94C384.94 315.411 382.079 312.55 378.55 312.55Z" fill="url(#paint26_linear_862_12536)"/>
</mask>
<g mask="url(#mask12_862_12536)">
<g filter="url(#filter13_f_862_12536)">
<path d="M310.87 319.2C310.77 317.5 311.47 315.7 312.67 314.5C313.87 313.2 315.67 312.5 317.47 312.4L327.67 312.2C334.47 312.1 341.27 312 348.07 312C354.87 312 361.67 312 368.47 312.2L378.67 312.4C380.47 312.4 382.27 313.2 383.47 314.5C384.67 315.8 385.37 317.5 385.27 319.2C385.17 317.5 384.37 315.9 383.17 314.8C381.97 313.7 380.27 313.1 378.67 313.2L368.47 313.4C361.67 313.5 354.87 313.6 348.07 313.6C341.27 313.6 334.47 313.6 327.67 313.4L317.47 313.2C315.87 313.1 314.17 313.7 312.97 314.8C311.77 315.8 310.97 317.5 310.87 319.2Z" fill="#F2F2F2"/>
</g>
</g>
<path d="M171.67 216.46C187.67 216.46 200.64 199.658 200.64 178.93C200.64 158.203 187.67 141.4 171.67 141.4C155.671 141.4 142.7 158.203 142.7 178.93C142.7 199.658 155.671 216.46 171.67 216.46Z" fill="url(#paint27_radial_862_12536)"/>
<path d="M171.67 216.46C187.67 216.46 200.64 199.658 200.64 178.93C200.64 158.203 187.67 141.4 171.67 141.4C155.671 141.4 142.7 158.203 142.7 178.93C142.7 199.658 155.671 216.46 171.67 216.46Z" stroke="url(#paint28_linear_862_12536)" stroke-width="2.17" stroke-miterlimit="10"/>
<path d="M316.491 216.46C332.49 216.46 345.461 199.658 345.461 178.93C345.461 158.203 332.49 141.4 316.491 141.4C300.491 141.4 287.521 158.203 287.521 178.93C287.521 199.658 300.491 216.46 316.491 216.46Z" fill="url(#paint29_radial_862_12536)"/>
<path d="M316.491 216.46C332.49 216.46 345.461 199.658 345.461 178.93C345.461 158.203 332.49 141.4 316.491 141.4C300.491 141.4 287.521 158.203 287.521 178.93C287.521 199.658 300.491 216.46 316.491 216.46Z" stroke="url(#paint30_linear_862_12536)" stroke-width="2.17" stroke-miterlimit="10"/>
<defs>
<filter id="filter0_f_862_12536" x="-26.8149" y="206.558" width="535.022" height="306.595" filterUnits="userSpaceOnUse" color-interpolation-filters="sRGB">
<feFlood flood-opacity="0" result="BackgroundImageFix"/>
<feBlend mode="normal" in="SourceGraphic" in2="BackgroundImageFix" result="shape"/>
<feGaussianBlur stdDeviation="12.5" result="effect1_foregroundBlur_862_12536"/>
</filter>
<filter id="filter1_f_862_12536" x="-41.8149" y="191.558" width="565.022" height="336.595" filterUnits="userSpaceOnUse" color-interpolation-filters="sRGB">
<feFlood flood-opacity="0" result="BackgroundImageFix"/>
<feBlend mode="normal" in="SourceGraphic" in2="BackgroundImageFix" result="shape"/>
<feGaussianBlur stdDeviation="20" result="effect1_foregroundBlur_862_12536"/>
</filter>
<filter id="filter2_f_862_12536" x="96" y="276.4" width="400.041" height="160.818" filterUnits="userSpaceOnUse" color-interpolation-filters="sRGB">
<feFlood flood-opacity="0" result="BackgroundImageFix"/>
<feBlend mode="normal" in="SourceGraphic" in2="BackgroundImageFix" result="shape"/>
<feGaussianBlur stdDeviation="7" result="effect1_foregroundBlur_862_12536"/>
</filter>
<filter id="filter3_f_862_12536" x="291.86" y="286" width="91.8252" height="21.3" filterUnits="userSpaceOnUse" color-interpolation-filters="sRGB">
<feFlood flood-opacity="0" result="BackgroundImageFix"/>
<feBlend mode="normal" in="SourceGraphic" in2="BackgroundImageFix" result="shape"/>
<feGaussianBlur stdDeviation="2" result="effect1_foregroundBlur_862_12536"/>
</filter>
<filter id="filter4_f_862_12536" x="107.86" y="288" width="44.9257" height="67.3" filterUnits="userSpaceOnUse" color-interpolation-filters="sRGB">
<feFlood flood-opacity="0" result="BackgroundImageFix"/>
<feBlend mode="normal" in="SourceGraphic" in2="BackgroundImageFix" result="shape"/>
<feGaussianBlur stdDeviation="1" result="effect1_foregroundBlur_862_12536"/>
</filter>
<filter id="filter5_f_862_12536" x="368.261" y="309.3" width="37.3031" height="37.3032" filterUnits="userSpaceOnUse" color-interpolation-filters="sRGB">
<feFlood flood-opacity="0" result="BackgroundImageFix"/>
<feBlend mode="normal" in="SourceGraphic" in2="BackgroundImageFix" result="shape"/>
<feGaussianBlur stdDeviation="0.5" result="effect1_foregroundBlur_862_12536"/>
</filter>
<filter id="filter6_f_862_12536" x="420.761" y="362.1" width="52.1023" height="52.1023" filterUnits="userSpaceOnUse" color-interpolation-filters="sRGB">
<feFlood flood-opacity="0" result="BackgroundImageFix"/>
<feBlend mode="normal" in="SourceGraphic" in2="BackgroundImageFix" result="shape"/>
<feGaussianBlur stdDeviation="0.5" result="effect1_foregroundBlur_862_12536"/>
</filter>
<filter id="filter7_f_862_12536" x="359.561" y="292.991" width="124.728" height="121.109" filterUnits="userSpaceOnUse" color-interpolation-filters="sRGB">
<feFlood flood-opacity="0" result="BackgroundImageFix"/>
<feBlend mode="normal" in="SourceGraphic" in2="BackgroundImageFix" result="shape"/>
<feGaussianBlur stdDeviation="1" result="effect1_foregroundBlur_862_12536"/>
</filter>
<filter id="filter8_f_862_12536" x="368.261" y="309.3" width="37.3031" height="37.3032" filterUnits="userSpaceOnUse" color-interpolation-filters="sRGB">
<feFlood flood-opacity="0" result="BackgroundImageFix"/>
<feBlend mode="normal" in="SourceGraphic" in2="BackgroundImageFix" result="shape"/>
<feGaussianBlur stdDeviation="0.5" result="effect1_foregroundBlur_862_12536"/>
</filter>
<filter id="filter9_f_862_12536" x="420.761" y="362.1" width="52.1023" height="52.1023" filterUnits="userSpaceOnUse" color-interpolation-filters="sRGB">
<feFlood flood-opacity="0" result="BackgroundImageFix"/>
<feBlend mode="normal" in="SourceGraphic" in2="BackgroundImageFix" result="shape"/>
<feGaussianBlur stdDeviation="0.5" result="effect1_foregroundBlur_862_12536"/>
</filter>
<filter id="filter10_f_862_12536" x="359.561" y="292.991" width="124.728" height="121.109" filterUnits="userSpaceOnUse" color-interpolation-filters="sRGB">
<feFlood flood-opacity="0" result="BackgroundImageFix"/>
<feBlend mode="normal" in="SourceGraphic" in2="BackgroundImageFix" result="shape"/>
<feGaussianBlur stdDeviation="1" result="effect1_foregroundBlur_862_12536"/>
</filter>
<filter id="filter11_f_862_12536" x="291.86" y="286" width="91.8252" height="21.3" filterUnits="userSpaceOnUse" color-interpolation-filters="sRGB">
<feFlood flood-opacity="0" result="BackgroundImageFix"/>
<feBlend mode="normal" in="SourceGraphic" in2="BackgroundImageFix" result="shape"/>
<feGaussianBlur stdDeviation="2" result="effect1_foregroundBlur_862_12536"/>
</filter>
<filter id="filter12_f_862_12536" x="107.86" y="288" width="44.9257" height="67.3" filterUnits="userSpaceOnUse" color-interpolation-filters="sRGB">
<feFlood flood-opacity="0" result="BackgroundImageFix"/>
<feBlend mode="normal" in="SourceGraphic" in2="BackgroundImageFix" result="shape"/>
<feGaussianBlur stdDeviation="1" result="effect1_foregroundBlur_862_12536"/>
</filter>
<filter id="filter13_f_862_12536" x="308.86" y="310" width="78.4189" height="11.2" filterUnits="userSpaceOnUse" color-interpolation-filters="sRGB">
<feFlood flood-opacity="0" result="BackgroundImageFix"/>
<feBlend mode="normal" in="SourceGraphic" in2="BackgroundImageFix" result="shape"/>
<feGaussianBlur stdDeviation="1" result="effect1_foregroundBlur_862_12536"/>
</filter>
<radialGradient id="paint0_radial_862_12536" cx="0" cy="0" r="1" gradientUnits="userSpaceOnUse" gradientTransform="translate(241 -4.53898e-06) rotate(90) scale(482)">
<stop stop-color="#FFDE43"/>
<stop offset="1" stop-color="#FFBC00"/>
</radialGradient>
<radialGradient id="paint1_radial_862_12536" cx="0" cy="0" r="1" gradientUnits="userSpaceOnUse" gradientTransform="translate(241 64.5) rotate(90) scale(417.5)">
<stop stop-color="white" stop-opacity="0.5"/>
<stop offset="0.782278"/>
</radialGradient>
<radialGradient id="paint2_radial_862_12536" cx="0" cy="0" r="1" gradientUnits="userSpaceOnUse" gradientTransform="translate(241 64.5) rotate(90) scale(417.5)">
<stop stop-color="white" stop-opacity="0.5"/>
<stop offset="0.782278"/>
</radialGradient>
<radialGradient id="paint3_radial_862_12536" cx="0" cy="0" r="1" gradientUnits="userSpaceOnUse" gradientTransform="translate(241 -52.5) rotate(90) scale(534.5 722.835)">
<stop offset="0.0922635" stop-color="white"/>
<stop offset="0.670207" stop-color="white" stop-opacity="0"/>
</radialGradient>
<radialGradient id="paint4_radial_862_12536" cx="0" cy="0" r="1" gradientUnits="userSpaceOnUse" gradientTransform="translate(241 -4.53898e-06) rotate(90) scale(482)">
<stop stop-color="#FFDE43"/>
<stop offset="1" stop-color="#FFBC00"/>
</radialGradient>
<linearGradient id="paint5_linear_862_12536" x1="36318.6" y1="22529.3" x2="43310.9" y2="22529.3" gradientUnits="userSpaceOnUse">
<stop stop-color="#BCBDBF"/>
<stop offset="1" stop-color="#4B4B4D"/>
</linearGradient>
<linearGradient id="paint6_linear_862_12536" x1="130.66" y1="353.38" x2="130.66" y2="290.75" gradientUnits="userSpaceOnUse">
<stop stop-color="#BCBDBF"/>
<stop offset="1" stop-color="#4B4B4D"/>
</linearGradient>
<linearGradient id="paint7_linear_862_12536" x1="443.546" y1="330.285" x2="389.136" y2="384.695" gradientUnits="userSpaceOnUse">
<stop offset="0.0589498" stop-color="#4B4B4D"/>
<stop offset="0.229" stop-color="#59595B"/>
<stop offset="0.5531" stop-color="#7F7F81"/>
<stop offset="0.9944" stop-color="#BBBCBE"/>
<stop offset="1" stop-color="#BCBDBF"/>
</linearGradient>
<linearGradient id="paint8_linear_862_12536" x1="443.546" y1="330.285" x2="389.136" y2="384.695" gradientUnits="userSpaceOnUse">
<stop offset="0.0589498" stop-color="#4B4B4D"/>
<stop offset="0.229" stop-color="#59595B"/>
<stop offset="0.5531" stop-color="#7F7F81"/>
<stop offset="0.9944" stop-color="#BBBCBE"/>
<stop offset="1" stop-color="#BCBDBF"/>
</linearGradient>
<linearGradient id="paint9_linear_862_12536" x1="443.546" y1="330.285" x2="389.136" y2="384.695" gradientUnits="userSpaceOnUse">
<stop offset="0.0589498" stop-color="#4B4B4D"/>
<stop offset="0.229" stop-color="#59595B"/>
<stop offset="0.5531" stop-color="#7F7F81"/>
<stop offset="0.9944" stop-color="#BBBCBE"/>
<stop offset="1" stop-color="#BCBDBF"/>
</linearGradient>
<radialGradient id="paint10_radial_862_12536" cx="0" cy="0" r="1" gradientUnits="userSpaceOnUse" gradientTransform="translate(244.081 321.931) scale(92.6999 4.50484)">
<stop stop-color="#743C1C"/>
<stop offset="1" stop-color="#401C02"/>
</radialGradient>
<linearGradient id="paint11_linear_862_12536" x1="244.081" y1="324.295" x2="244.081" y2="319.566" gradientUnits="userSpaceOnUse">
<stop offset="0.265625" stop-color="#FFDE43"/>
<stop offset="1" stop-color="#F79D14"/>
</linearGradient>
<linearGradient id="paint12_linear_862_12536" x1="155.87" y1="290" x2="155.87" y2="326" gradientUnits="userSpaceOnUse">
<stop stop-color="#BBBDBE"/>
<stop offset="1" stop-color="#4B4B4D"/>
</linearGradient>
<linearGradient id="paint13_linear_862_12536" x1="183.62" y1="316.94" x2="183.62" y2="352.94" gradientUnits="userSpaceOnUse">
<stop stop-color="#BBBDBE"/>
<stop offset="1" stop-color="#4B4B4D"/>
</linearGradient>
<linearGradient id="paint14_linear_862_12536" x1="211.36" y1="290" x2="211.36" y2="326" gradientUnits="userSpaceOnUse">
<stop stop-color="#BBBDBE"/>
<stop offset="1" stop-color="#4B4B4D"/>
</linearGradient>
<linearGradient id="paint15_linear_862_12536" x1="239.11" y1="316.94" x2="239.11" y2="352.94" gradientUnits="userSpaceOnUse">
<stop stop-color="#BBBDBE"/>
<stop offset="1" stop-color="#4B4B4D"/>
</linearGradient>
<linearGradient id="paint16_linear_862_12536" x1="266.86" y1="290" x2="266.86" y2="326" gradientUnits="userSpaceOnUse">
<stop stop-color="#BBBDBE"/>
<stop offset="1" stop-color="#4B4B4D"/>
</linearGradient>
<linearGradient id="paint17_linear_862_12536" x1="443.546" y1="330.285" x2="389.136" y2="384.695" gradientUnits="userSpaceOnUse">
<stop offset="0.0589498" stop-color="#4B4B4D"/>
<stop offset="0.229" stop-color="#59595B"/>
<stop offset="0.5531" stop-color="#7F7F81"/>
<stop offset="0.9944" stop-color="#BBBCBE"/>
<stop offset="1" stop-color="#BCBDBF"/>
</linearGradient>
<linearGradient id="paint18_linear_862_12536" x1="443.546" y1="330.285" x2="389.136" y2="384.695" gradientUnits="userSpaceOnUse">
<stop offset="0.0589498" stop-color="#4B4B4D"/>
<stop offset="0.229" stop-color="#59595B"/>
<stop offset="0.5531" stop-color="#7F7F81"/>
<stop offset="0.9944" stop-color="#BBBCBE"/>
<stop offset="1" stop-color="#BCBDBF"/>
</linearGradient>
<linearGradient id="paint19_linear_862_12536" x1="443.546" y1="330.285" x2="389.136" y2="384.695" gradientUnits="userSpaceOnUse">
<stop offset="0.0589498" stop-color="#4B4B4D"/>
<stop offset="0.229" stop-color="#59595B"/>
<stop offset="0.5531" stop-color="#7F7F81"/>
<stop offset="0.9944" stop-color="#BBBCBE"/>
<stop offset="1" stop-color="#BCBDBF"/>
</linearGradient>
<linearGradient id="paint20_linear_862_12536" x1="443.546" y1="330.285" x2="389.136" y2="384.695" gradientUnits="userSpaceOnUse">
<stop offset="0.0589498" stop-color="#4B4B4D"/>
<stop offset="0.229" stop-color="#59595B"/>
<stop offset="0.5531" stop-color="#7F7F81"/>
<stop offset="0.9944" stop-color="#BBBCBE"/>
<stop offset="1" stop-color="#BCBDBF"/>
</linearGradient>
<linearGradient id="paint21_linear_862_12536" x1="374.388" y1="307.633" x2="296.349" y2="307.633" gradientUnits="userSpaceOnUse">
<stop stop-color="#BBBCBE"/>
<stop offset="1" stop-color="#4B4B4D"/>
</linearGradient>
<linearGradient id="paint22_linear_862_12536" x1="36318.6" y1="22529.3" x2="43310.9" y2="22529.3" gradientUnits="userSpaceOnUse">
<stop stop-color="#BCBDBF"/>
<stop offset="1" stop-color="#4B4B4D"/>
</linearGradient>
<linearGradient id="paint23_linear_862_12536" x1="130.66" y1="353.38" x2="130.66" y2="290.75" gradientUnits="userSpaceOnUse">
<stop stop-color="#BCBDBF"/>
<stop offset="1" stop-color="#4B4B4D"/>
</linearGradient>
<linearGradient id="paint24_linear_862_12536" x1="130.66" y1="353.38" x2="130.66" y2="290.75" gradientUnits="userSpaceOnUse">
<stop stop-color="#BCBDBF"/>
<stop offset="1" stop-color="#4B4B4D"/>
</linearGradient>
<linearGradient id="paint25_linear_862_12536" x1="380.36" y1="317.592" x2="310.86" y2="317.592" gradientUnits="userSpaceOnUse">
<stop stop-color="#BBBCBE"/>
<stop offset="1" stop-color="#4B4B4D"/>
</linearGradient>
<linearGradient id="paint26_linear_862_12536" x1="33475.7" y1="6818.72" x2="39022.2" y2="6818.72" gradientUnits="userSpaceOnUse">
<stop stop-color="#4B4B4D"/>
<stop offset="1" stop-color="#BCBDBF"/>
</linearGradient>
<radialGradient id="paint27_radial_862_12536" cx="0" cy="0" r="1" gradientUnits="userSpaceOnUse" gradientTransform="translate(171.642 178.643) scale(36.9297 37.5951)">
<stop stop-color="#743C1C"/>
<stop offset="1" stop-color="#401C02"/>
</radialGradient>
<linearGradient id="paint28_linear_862_12536" x1="171.67" y1="217.55" x2="171.67" y2="140.32" gradientUnits="userSpaceOnUse">
<stop stop-color="#FFDE43"/>
<stop offset="0.22" stop-color="#FED93F"/>
<stop offset="0.51" stop-color="#FCC934"/>
<stop offset="0.82" stop-color="#F9AF21"/>
<stop offset="1" stop-color="#F79D14"/>
</linearGradient>
<radialGradient id="paint29_radial_862_12536" cx="0" cy="0" r="1" gradientUnits="userSpaceOnUse" gradientTransform="translate(-19009.4 8867.13) scale(1927.66 2497.25)">
<stop stop-color="#743C1C"/>
<stop offset="1" stop-color="#401C02"/>
</radialGradient>
<linearGradient id="paint30_linear_862_12536" x1="16788.3" y1="16919.6" x2="16788.3" y2="11122.7" gradientUnits="userSpaceOnUse">
<stop stop-color="#FFDE43"/>
<stop offset="0.22" stop-color="#FED93F"/>
<stop offset="0.51" stop-color="#FCC934"/>
<stop offset="0.82" stop-color="#F9AF21"/>
<stop offset="1" stop-color="#F79D14"/>
</linearGradient>
</defs>
</svg>
